<svg xmlns="http://www.w3.org/2000/svg" width="150" height="200" viewBox="0 0 39.7 52.9"><path d="M10.17 40.045a1.14 1.14 0 0 0-.822.318c-.212.212-.318.477-.318.795s.106.583.318.795.477.318.822.318a1.02 1.02 0 0 0 .769-.318c.212-.212.318-.477.318-.795s-.106-.583-.318-.795c-.185-.212-.45-.318-.769-.318zm.98-13.144c.212-.212.318-.477.318-.795s-.106-.583-.318-.795a1.02 1.02 0 0 0-.769-.318 1.14 1.14 0 0 0-.822.318c-.212.212-.318.477-.318.795s.106.583.318.795.477.318.822.318c.318 0 .583-.106.769-.318zM24.798 22.9a1.02 1.02 0 0 0 .768-.318c.212-.212.318-.477.318-.795s-.106-.583-.318-.795a1.02 1.02 0 0 0-.768-.318 1.14 1.14 0 0 0-.822.318c-.212.212-.318.477-.318.795s.106.583.318.795.477.318.822.318z" fill="#339"/><path d="M35.848 38.455c1.325-1.325 1.988-2.915 1.988-4.797s-.663-3.472-1.988-4.797-2.915-1.987-4.796-1.987l-1.245.053c.53-.715.795-1.802.795-3.26a6.56 6.56 0 0 0-1.988-4.797c-1.325-1.325-2.915-1.987-4.796-1.987s-3.471.662-4.796 1.987-1.988 2.623-1.988 3.895c-1.007-1.378-2.676-2.067-4.982-2.067a6.56 6.56 0 0 0-4.797 1.988c-1.325 1.325-1.987 2.915-1.987 4.796 0 1.458.424 2.783 1.298 4.002.875 1.193 1.696 1.935 2.517 2.173-.821.265-1.643.98-2.517 2.173s-1.298 2.544-1.298 4.028c0 1.855.662 3.445 1.987 4.77s2.915 1.988 4.797 1.988c2.305 0 3.975-.689 4.982-2.067 0 1.272.663 2.57 1.988 3.895 1.325 1.352 2.915 2.014 4.797 2.014s3.471-.662 4.796-1.987 1.988-2.915 1.988-4.797c0-1.484-.265-2.571-.795-3.286.106.026.53.053 1.245.053 1.881 0 3.472-.662 4.796-1.988zm-7.923 1.617c.821.583 1.219 1.802 1.219 3.604 0 1.484-.53 2.729-1.564 3.763a5.16 5.16 0 0 1-3.763 1.564c-1.484 0-2.729-.53-3.763-1.564a5.16 5.16 0 0 1-1.564-3.763c0-.583.053-1.06.186-1.404.106-.371-.079-.609-.583-.742-.556-.212-.954 0-1.166.636s-.795 1.298-1.722 1.988a5.18 5.18 0 0 1-3.127 1.007c-1.484 0-2.73-.504-3.763-1.537s-1.564-2.279-1.564-3.763.53-2.73 1.564-3.79 1.987-1.563 2.835-1.563 1.245-.291 1.219-.848c.026-.556-.371-.848-1.219-.848s-1.776-.53-2.835-1.563a5.16 5.16 0 0 1-1.564-3.763c0-1.484.53-2.73 1.564-3.763a5.16 5.16 0 0 1 3.763-1.563 5.3 5.3 0 0 1 3.127 1.007c.954.689 1.511 1.352 1.723 1.987s.61.848 1.166.636c.504-.132.689-.371.583-.742s-.186-.822-.186-1.378c0-1.484.53-2.73 1.564-3.763a5.16 5.16 0 0 1 3.763-1.563c1.484 0 2.729.53 3.763 1.563a5.16 5.16 0 0 1 1.564 3.763c0 1.802-.398 2.995-1.219 3.604-.822.583-1.034 1.139-.636 1.617.265.424.689.451 1.245.053s1.404-.609 2.544-.609c1.484 0 2.73.53 3.763 1.563a5.16 5.16 0 0 1 1.563 3.763c0 1.484-.53 2.73-1.563 3.763a5.16 5.16 0 0 1-3.763 1.564c-1.166 0-2.014-.185-2.571-.583s-.954-.371-1.219.053c-.398.504-.186 1.034.636 1.617z" fill="#b32"/><path d="M33.305 35.275a1.02 1.02 0 0 0 .768-.318c.212-.212.318-.477.318-.795s-.106-.583-.318-.795a1.02 1.02 0 0 0-.768-.318 1.14 1.14 0 0 0-.822.318c-.212.212-.318.477-.318.795s.106.583.318.795a1.14 1.14 0 0 0 .822.318z" fill="#339"/><path d="M26.944 36.07l3.259.928c.026.159.079.291.212.371.106.106.265.185.424.185.186 0 .345-.053.477-.185a.6.6 0 0 0 .186-.477.58.58 0 0 0-.186-.45c-.106-.133-.265-.186-.477-.186-.186 0-.318.053-.424.185l-.053.053-3.18-1.245c.026-.106.026-.212.053-.318l4.426-.477c.186-.026.318-.132.398-.344.132-.371.026-.583-.345-.61l-4.425-.662c0-.053 0-.106-.026-.186l3.259-1.007c0 .027.026.027.053.053.106.106.265.186.424.186.186 0 .345-.053.477-.186a.6.6 0 0 0 .186-.477.58.58 0 0 0-.186-.45c-.106-.132-.265-.185-.477-.185-.185 0-.318.053-.424.185s-.186.238-.212.371l-3.259.689c-.291-1.087-.874-2.067-1.749-2.968l-.53-.477 2.04-2.968h.079c.186 0 .345-.053.477-.186a.6.6 0 0 0 .186-.477.58.58 0 0 0-.185-.45c-.106-.132-.265-.185-.477-.185a.58.58 0 0 0-.45.185.58.58 0 0 0-.186.45c0 .133.027.265.08.345l-2.253 2.756c-.159-.106-.318-.185-.477-.265l.928-4.32c.053-.265-.053-.424-.344-.53-.265-.106-.477-.027-.583.212l-1.961 3.948-.477-.053.053-3.047c.079-.027.133-.08.212-.133.106-.106.185-.265.185-.477a.58.58 0 0 0-.185-.45c-.106-.133-.265-.186-.477-.186a.58.58 0 0 0-.45.185.58.58 0 0 0-.186.451c0 .185.08.344.212.477.053.053.133.106.212.106l-.318 3.047c-1.272 0-2.411.318-3.445.927L14.73 24.78c.053-.106.079-.212.079-.345a.58.58 0 0 0-.185-.45.6.6 0 0 0-.477-.185.58.58 0 0 0-.636.636c0 .186.053.345.185.477.133.106.265.186.45.186h.133l2.014 3.18c-.185.159-.397.318-.583.53l-3.95-2.279c-.318-.186-.53-.08-.663.291-.053.186 0 .398.212.583l3.154 3.074-.291.636-3.233-1.087c0-.159-.053-.291-.185-.424-.106-.106-.265-.185-.477-.185a.58.58 0 0 0-.636.636.64.64 0 0 0 .185.477c.133.106.265.186.45.186s.345-.053.477-.186l.053-.053 3.074 1.431a7.3 7.3 0 0 0-.212 1.723c0 .503.053.98.133 1.431l-3.26 1.166c-.106-.106-.265-.185-.477-.185a.58.58 0 0 0-.636.636.64.64 0 0 0 .185.477c.133.106.265.186.45.186s.345-.053.477-.186a.6.6 0 0 0 .185-.477v-.027l3.286-.874a5.24 5.24 0 0 0 .318.822l-3.524 3.233c-.106.318-.026.53.291.636.159.026.291.026.424-.053l4.028-2.093c.026.026.079.079.106.079l.344.318-2.2 2.968c-.106-.027-.185-.053-.291-.053a.58.58 0 0 0-.636.636.64.64 0 0 0 .185.477c.133.106.265.185.45.185a.64.64 0 0 0 .477-.185.6.6 0 0 0 .186-.477.77.77 0 0 0-.053-.265l2.544-2.782a6.31 6.31 0 0 0 3.286 1.166l.133 3.207c-.079.026-.133.079-.212.132-.133.132-.212.292-.212.477s.053.345.186.477c.133.106.265.185.451.185s.345-.053.477-.185a.6.6 0 0 0 .186-.477.68.68 0 0 0-.186-.477c-.053-.053-.132-.106-.238-.132l.185-3.18c.186-.026.398-.026.61-.053l1.855 4.214c.026.053.106.106.265.185.318.106.53.026.636-.292 0-.026-.265-1.563-.769-4.664l.239-.106 2.173 2.995a.61.61 0 0 0-.106.371c0 .186.053.345.185.477.133.106.265.186.451.186s.345-.053.477-.186a.6.6 0 0 0 .186-.477.58.58 0 0 0-.186-.45c-.106-.132-.265-.185-.477-.185-.053 0-.106 0-.133.026l-1.855-3.207c.318-.238.663-.504.981-.848a5.52 5.52 0 0 0 1.696-2.332zm-2.623 1.404a5.16 5.16 0 0 1-3.763 1.564c-1.484 0-2.729-.53-3.763-1.564a5.16 5.16 0 0 1-1.564-3.763c0-1.484.53-2.73 1.564-3.763a5.16 5.16 0 0 1 3.763-1.563 5.12 5.12 0 0 1 3.763 1.563 5.16 5.16 0 0 1 1.564 3.763c0 1.457-.53 2.703-1.564 3.763z" fill="#b32"/><path d="M24.294 44.815a1.14 1.14 0 0 0-.822.318c-.212.212-.318.477-.318.795s.106.583.318.795.477.318.822.318a1.02 1.02 0 0 0 .768-.318c.212-.212.318-.477.318-.795s-.106-.583-.318-.795a1.06 1.06 0 0 0-.768-.318z" fill="#339"/><path d="M38.339 12.75c-.663 0-1.113-.027-1.404-.08-.398-.106-.609-.371-.609-.822V2.521c-.822.424-2.12.689-3.843.795v.848h1.563c.477 0 .716.185.716.583v7.102c0 .344-.08.583-.239.662-.239.159-.848.239-1.855.239v.874h5.645v-.874z" fill="#b32"/><path d="M1.16 10.1l.556.053c.609 0 1.06-.212 1.828-.822C6.061 7.211 6.22 7.105 6.3 6.654c.159-.901.239-1.564.239-2.041 0-.689-.133-.98-.689-1.537l.026-.08c.133-.132.212-.185.318-.185.715 0 2.12 1.087 2.12 1.617 0 .159-.106.53-.318 1.087a3.2 3.2 0 0 0-.159.61c.663.371.901.609.901.874 0 .212-.053.318-.61.795-.636.609-.848.98-.98 1.855.291.556.371.795.371 1.033 0 .053 0 .08-.026.133-.026.079-.053.132-.053.159v.053l.239-.133c.133-.053.345-.318.636-.795l.715-1.192.344-.716c.026-.053.08-.132.185-.291h.053v.132c0 .795-.901 2.968-1.563 3.816l-1.272 1.617c-.106.186-.159.451-.159.769 0 .583.212 2.358.398 3.153.106.53.159.98.159 1.272 0 .186-.133.318-.239.318-.053 0-.133-.053-.212-.106-.663-.609-1.034-1.643-1.034-2.756 0-.08.026-.742.106-1.987l-.821.689c-.769.636-.928.742-1.166.742-.265 0-.371-.318-.371-1.007 0-.795 0-.822.901-1.352.61-.371 1.298-1.192 1.51-1.828.053-.185.212-1.219.212-1.457 0-.027 0-.053-.053-.053-.106 0-.53.318-1.139.848-1.405 1.219-1.431 1.245-1.802 1.245-.291 0-.742-.265-1.378-.768-.424-.371-.477-.451-.53-1.007zm6.572 3.418c.053.027.106.027.133.027.053 0 .185-.053.318-.106.106-.053.45-.186 1.007-.371l.715-.265.556-1.987c.212-.875.424-1.458.61-1.67l.556-.689.636-.927c.08-.106.265-.291.53-.556-.954.265-1.245.397-1.669.662-.239.159-.45.265-.583.265-.053 0-.133-.053-.185-.106-.159-.132-.504-.715-.477-.822 0-.106.133-.292.318-.504.424-.477.715-.927.715-1.219 0-.079-.08-.212-.159-.238-.61-.239-.61-.239-.742-.371l-.053-.08c.026-.318.212-.556.424-.53l.477.079c.98.133.98.133 1.299.345.291.212.503.503.503.715 0 .132-.133.397-.265.556-.133.106-.133.133-.133.186l.239-.053c1.749-.769 1.749-.769 2.12-.769.609 0 1.564.61 1.564.981 0 .238-.239.344-1.272.583-1.325.318-3.206 1.749-3.206 2.491 0 .053.026.106.08.106.212 0 .715-.291 1.484-.848.318-.238.636-.371.874-.371s.795.291 1.246.609c.344.265.583.583.583.795 0 .053-.053.344-.133.768l-.053 1.272c1.14.08 1.537.238 2.173.768.503.424.662.61.662.822 0 .159-.133.265-.344.265-.133 0-.344-.027-.583-.08-.848-.238-1.087-.238-2.04-.291l-.159 2.093c.609.053.874.212 1.404.715.239.239.371.451.371.61s-.133.238-.398.238c-.239 0-.344-.026-.927-.212-.318-.106-.318-.132-.689-.212-.583 1.431-.928 2.04-1.563 2.677-.265.239-.504.398-.715.398s-.239-.027-.503-.557l-.345-.556-.477-1.352.053-.053c.556.318.848.424 1.113.424.53 0 .795-.345 1.193-1.378-.291-.053-.53-.053-.689-.053-.53 0-1.113.132-2.305.609-.61.239-.61.239-1.245.61a.92.92 0 0 1-.477.132.8.8 0 0 1-.424-.132c-.239-.265-.504-.901-.504-1.219 0-.159 0-.159.556-.822.08-.079.133-.159.133-.212s-.053-.079-.133-.079c-.053 0-.132.026-.238.053l-.398.106-1.325-.212c0-.027 0-.027.08-.133l.265-.424a2.19 2.19 0 0 1 .318-.397h.106zm3.684 1.219c.133-.212.583-1.087.583-1.219 0-.053-.053-.079-.133-.079-.185 0-.424.079-1.272.477l-.928 1.669c1.087-.292 1.458-.504 1.749-.848zm.212-5.088c-.08 1.272-.133 1.484-.504 2.809l1.166-.318c.132-.53.265-1.404.265-1.828 0-.132-.053-.265-.159-.318zm1.272 5.194c.345-.053.61-.053.795-.053.106 0 .291 0 .504.027l.239-1.855c-.954.053-1.166.079-1.272.238-.053.08-.504 1.431-.504 1.563 0 .053.053.106.133.106h.106zm1.617-3.869c0-1.458-.053-1.776-.239-1.776-.026 0-.026 0-.424.318-.424.398-.424.398-.424.451s.053.212.133.397c.053.186.106.345.106.451 0 .132-.026.291-.08.53-.053.106-.053.292-.133.53.556-.053.636-.053 1.113-.238z" fill="#339"/></svg>