<svg xmlns="http://www.w3.org/2000/svg" width="150" height="200" viewBox="0 0 39.7 52.9"><g transform="matrix(.265 0 0 .265 47.8 -90.6)"><path d="M-35.7 390c-2.5 0-4.2-.1-5.3-.3-1.5-.4-2.3-1.4-2.3-3.1v-35.2c-3.1 1.6-8 2.6-14.5 3v3.2h5.9c1.8 0 2.7.7 2.7 2.2v26.8c0 1.3-.3 2.2-.9 2.5-.9.6-3.2.9-7 .9v3.3h21.3V390z" fill="#b32"/><path d="M-176 379l2.1.2c2.3 0 4-.8 6.9-3.1 9.5-8 10.1-8.4 10.4-10.1.6-3.4.9-5.9.9-7.7 0-2.6-.5-3.7-2.6-5.8l.1-.3c.5-.5.8-.7 1.2-.7 2.7 0 8 4.1 8 6.1 0 .6-.4 2-1.2 4.1-.2.5-.4 1.2-.6 2.3 2.5 1.4 3.4 2.3 3.4 3.3 0 .8-.2 1.2-2.3 3-2.4 2.3-3.2 3.7-3.7 7 1.1 2.1 1.4 3 1.4 3.9 0 .2 0 .3-.1.5-.1.3-.2.5-.2.6v.2l.9-.5c.5-.2 1.3-1.2 2.4-3 .9-1.6 1.8-3 2.7-4.5l1.3-2.7c.1-.2.3-.5.7-1.1h.2v.5c0 3-3.4 11.2-5.9 14.4-2.8 3.4-4.7 5.8-4.8 6.1-.4.7-.6 1.7-.6 2.9 0 2.2.8 8.9 1.5 11.9.4 2 .6 3.7.6 4.8 0 .7-.5 1.2-.9 1.2-.2 0-.5-.2-.8-.4-2.5-2.3-3.9-6.2-3.9-10.4 0-.3.1-2.8.4-7.5l-3.1 2.6c-2.9 2.4-3.5 2.8-4.4 2.8-1 0-1.4-1.2-1.4-3.8 0-3 0-3.1 3.4-5.1 2.3-1.4 4.9-4.5 5.7-6.9.2-.7.8-4.6.8-5.5 0-.1 0-.2-.2-.2-.4 0-2 1.2-4.3 3.2-5.3 4.6-5.4 4.7-6.8 4.7-1.1 0-2.8-1-5.2-2.9-1.6-1.4-1.8-1.7-2-3.8zm24.8 12.9c.2.1.4.1.5.1.2 0 .7-.2 1.2-.4.4-.2 1.7-.7 3.8-1.4.3-.1 1.5-.5 2.7-1l2.1-7.5c.8-3.3 1.6-5.5 2.3-6.3l2.1-2.6 2.4-3.5c.3-.4 1-1.1 2-2.1-3.6 1-4.7 1.5-6.3 2.5-.9.6-1.7 1-2.2 1-.2 0-.5-.2-.7-.4-.6-.5-1.9-2.7-1.8-3.1 0-.4.5-1.1 1.2-1.9 1.6-1.8 2.7-3.5 2.7-4.6 0-.3-.3-.8-.6-.9-2.3-.9-2.3-.9-2.8-1.4l-.2-.3c.1-1.2.8-2.1 1.6-2l1.8.3c3.7.5 3.7.5 4.9 1.3 1.1.8 1.9 1.9 1.9 2.7 0 .5-.5 1.5-1 2.1-.5.4-.5.5-.5.7l.9-.2c6.6-2.9 6.6-2.9 8-2.9 2.3 0 5.9 2.3 5.9 3.7 0 .9-.9 1.3-4.8 2.2-5 1.2-12.1 6.6-12.1 9.4 0 .2.1.4.3.4.8 0 2.7-1.1 5.6-3.2 1.2-.9 2.4-1.4 3.3-1.4s3 1.1 4.7 2.3c1.3 1 2.2 2.2 2.2 3 0 .2-.2 1.3-.5 2.9 0 .7-.1 2.3-.2 4.8 4.3.3 5.8.9 8.2 2.9 1.9 1.6 2.5 2.3 2.5 3.1 0 .6-.5 1-1.3 1-.5 0-1.3-.1-2.2-.3-3.2-.9-4.1-.9-7.7-1.1-.2 3.8-.3 4.4-.6 7.9 2.3.2 3.3.8 5.3 2.7.9.9 1.4 1.7 1.4 2.3s-.5.9-1.5.9c-.9 0-1.3-.1-3.5-.8-1.2-.4-1.2-.5-2.6-.8-2.2 5.4-3.5 7.7-5.9 10.1-1 .9-1.9 1.5-2.7 1.5s-.9-.1-1.9-2.1l-1.3-2.1c-.8-2.3-1-3-1.8-5.1l.2-.2c2.1 1.2 3.2 1.6 4.2 1.6 2 0 3-1.3 4.5-5.2-1.1-.2-2-.2-2.6-.2-2 0-4.2.5-8.7 2.3-2.3.9-2.3.9-4.7 2.3-.5.3-1.1.5-1.8.5-.5 0-1.2-.2-1.6-.5-.9-1-1.9-3.4-1.9-4.6 0-.6 0-.6 2.1-3.1.3-.3.5-.6.5-.8s-.2-.3-.5-.3c-.2 0-.5.1-.9.2-.9.2-1.5.4-1.5.4-5-.6-5-.6-5-.8 0-.1 0-.1.3-.5l1-1.6c.1-.2.6-.9 1.2-1.5h.4zm13.9 4.6c.5-.8 2.2-4.1 2.2-4.6 0-.2-.2-.3-.5-.3-.7 0-1.6.3-4.8 1.8-1.6 3-1.9 3.4-3.5 6.3 4.1-1.1 5.5-1.9 6.6-3.2zm.8-19.2c-.3 4.8-.5 5.6-1.9 10.6 1.9-.6 2.2-.7 4.4-1.2.5-2 1-5.3 1-6.9 0-.5-.2-1-.6-1.2zm4.8 19.6c1.3-.2 2.3-.2 3-.2.4 0 1.1 0 1.9.1.5-3.5.6-4.1.9-7-3.6.2-4.4.3-4.8.9-.2.3-1.9 5.4-1.9 5.9 0 .2.2.4.5.4h.4zm6.1-14.6c0-5.5-.2-6.7-.9-6.7-.1 0-.1 0-1.6 1.2-1.6 1.5-1.6 1.5-1.6 1.7s.2.8.5 1.5c.2.7.4 1.3.4 1.7 0 .5-.1 1.1-.3 2-.2.4-.2 1.1-.5 2 2.1-.2 2.4-.2 4.2-.9z" fill="#339"/><path d="M-127 534l.7-3.8 1.2-5.6 1.6-6.8 2.2-7.5 3.5-1.7 5.7-2.6c2.2-1 4.8-1.9 7.6-2.9l9-2.8 4.7 4.4 7 5.6-3.1.4c-1.3.2-2.5.5-3.7.9s-2.2 1-3.1 1.7-1.2 1.5-1.1 2.6c.2 2.1 1.1 3.4 2.8 4.1s3.4 1 5 1a3.94 3.94 0 0 0 2.7-1c.7-.6 1.4-1.4 1.9-2.3a16 16 0 0 0 1.2-2.7l.6-2.4 4.7 2.9c3.1 1.8 6.3 3.3 9.8 4.7s6.7 2.6 9.7 3.6c3.4 1.2 6.8 2.3 10.3 3.2l1.3-1.4c-.8-.2-1.7-.5-2.6-.8-1.7-.5-3.8-1.2-6.5-2.3 1.1-.4 2.3-.9 3.8-1.5 1.4-.6 2.8-1.2 4-1.9 1.3-.6 2.3-1.3 3.2-1.9s1.3-1.2 1.2-1.8c0-.3-.1-.6-.3-1a2.36 2.36 0 0 0-.9-.8c-.5-.2-1.2-.4-2.1-.5s-2.2-.2-3.8-.2c-1.4 0-2.7.3-3.8 1s-1.9 1.5-2.7 2.4c-.7.9-1.3 1.8-1.7 2.7s-.8 1.5-1 1.9c-2.8-1.1-5.5-2.3-8.3-3.5s-5.1-2.3-7.1-3.5c-1.7-1-3.5-2.3-5.5-3.7-1.9-1.4-3.8-2.9-5.5-4.3s-3.2-2.7-4.5-3.9-2.3-2.1-2.8-2.7c.3-.1 1-.2 2-.4a105 105 0 0 1 3.3-.6c1.2-.2 2.3-.4 3.3-.5 1-.2 1.7-.2 2.1-.2 1.8-.2 3.8-.3 5.8-.4s4.1-.2 6.2-.2c-.7.9-1.4 1.8-2 2.9-.6 1-.8 2.1-.7 3.2a4.49 4.49 0 0 0 .7 1.8l.4.4c1.1 1.2 2.3 1.8 3.5 1.8.6 0 1.3-.1 1.9-.4.6-.2 1.2-.6 1.8-1 .2-.2.5-.3.7-.5.3-.2.5-.4.6-.7.2-.2.5-.5.8-1h.1c.5.6 1 1.2 1.5 1.6.6.4 1.2.6 1.8.6l.6-.1c1-.2 2-.3 2.8-.5.9-.2 1.6-.5 2.2-.9.9-.7 1.3-1.7 1.2-2.9l-.1-.7c-.2-.6-.6-1.2-1-1.8-.4-.5-1-1-1.6-1.4.9.1 1.7.1 2.4.1h1.7c.6 0 1.1 0 1.6.1l-.2-1.7c-.4-.1-.9-.2-1.5-.2-.5-.1-1.1-.1-1.8-.2-.7 0-1.5-.1-2.4-.3l.7-.4c.1-.2.3-.3.3-.3.1 0 .1-.1.2-.3.8-.9 1.4-1.7 1.8-2.3.4-.7.5-1.3.5-2 0-.4-.3-.9-.8-1.6-.3-.5-.6-.9-1-1.2-1-.7-2-1.1-3.1-1.1-1.5 0-3.1.4-4.6 1.2.5-.8.9-1.6 1.1-2.4s.3-1.6.3-2.4a4.49 4.49 0 0 0-.7-1.8l-.3-.4c-1.2-1.1-2.3-1.7-3.5-1.7-.6 0-1.3.1-1.9.4-.6.2-1.2.6-1.8 1l-1.6 1.3c-1 1-1.3 2.3-1.2 3.9.1 1.1.4 2.2.8 3.3s.9 2 1.4 2.8c-.5-.6-1.2-1.2-1.9-2-.8-.8-1.6-1.4-2.4-2-.9-.6-1.7-1.1-2.6-1.6-.8-.4-1.6-.7-2.4-.7-.7 0-1.3.2-1.6.5-1.4 1-2 2.2-1.8 3.8.1.9.3 1.8.8 2.6.4.9 1 1.7 1.6 2.5.1.2.2.3.4.5l-4.7.4c-3.8.4-7.3.9-10.6 1.4.5-1.3 1.1-2.7 1.6-4.2.6-1.6.8-2.6.8-3.2 0-.2-.3-.5-.9-.7-.5-.2-1.2-.5-1.9-.7s-1.5-.4-2.3-.5-1.5-.2-2.1-.2c-.8 0-1.4.5-1.8 1.6s-.7 2.3-.9 3.6-.2 2.6-.2 3.8.1 1.9.1 2.2c-4.9 1.2-9 2.5-12.4 3.8l-7.8 3.3c.6-1.6 1.1-3.2 1.7-4.8s1.2-3.1 2-4.5c1-2.1 2.4-4.3 4.3-6.6 1.8-2.3 3.9-4.6 6.2-7 2.3-2.3 4.7-4.6 7.3-6.9l7.5-6.2c.2.8.4 1.9.9 3.2.4 1.4.9 2.7 1.5 4s1.3 2.4 2.1 3.4 1.7 1.4 2.8 1.4c.8 0 1.5-.3 2.1-.8.6-.6 1-1.3 1.4-2.1.3-.8.5-1.8.6-2.7.1-1 .1-1.9 0-2.8-.1-.6-.3-1.3-.7-2.1s-.9-1.5-1.5-2.2-1.2-1.4-1.8-2-1.2-1.2-1.7-1.6c1.4-1.1 2.7-2.1 3.9-2.9s2.2-1.6 3.1-2.2c1-.7 1.9-1.4 2.8-2l-.5-1.8c-.2-.6-.4-1.4-.6-2.1-.2-.8-.4-1.7-.7-2.6a58.1 58.1 0 0 0 3.6.8c1.6.3 3 .5 4.4.5 1 0 1.9-.1 2.5-.4.7-.3.9-.9.9-1.7a9.11 9.11 0 0 0-.9-3.1c-.5-1-1.1-1.9-1.8-2.7s-1.4-1.4-2-1.9c-.7-.5-1.3-.7-1.9-.7-.9 0-1.9.5-3 1.6-1.1 1-2 2.1-2.8 3.2-.7-2.8-1.2-5.8-1.6-9h.7c1.1 0 2.1-.4 3-1.1a13.6 13.6 0 0 0 2.4-2.4c.6-.9.8-1.9.7-3-.1-1-.4-2.1-1-3.1a27.6 27.6 0 0 0-1.7-2.9c.9.5 1.9.9 3 1.3s2.1.5 3.2.5c.6 0 1.2-.1 1.8-.4.5-.2 1.1-.7 1.6-1.3.5-.8.7-1.6.6-2.5s-.4-1.7-1.1-2.4c-.6-.7-1.3-1.4-2.1-2-.5-.5-1.1-.8-1.7-1.1-.4-.2-.8-.4-1.3-.6.2-.2.5-.7.9-1.7s.5-2 .4-3.2c-.1-1.1-.6-2.1-1.6-3-.9-.9-2.6-1.4-4.9-1.4-.9 0-1.6.3-2.2.8s-1.1 1.1-1.4 1.7c.3-4.5.7-9 1.2-13.5l1.6-12.8c.8.1 2.1.2 3.8.2 1.7.1 3.3.1 4.7.1 1 0 1.9-.1 2.5-.4.7-.3.9-.9.9-1.7a9.11 9.11 0 0 0-.9-3.1c-.5-1-1.1-2-1.8-2.7-.7-.8-1.4-1.4-2.1-1.9s-1.3-.7-1.9-.7c-.7 0-1.5.4-2.2 1.1-.8.7-1.4 1.5-2 2.4.6-3.3 1.1-6.4 1.5-9.2.5-2.8.9-5.2 1.4-7.3l1.4-6.6-1.7 1.2-2.6 11c-.8 3.3-1.6 7.2-2.5 11.6s-1.7 9.1-2.5 14c-.6-.6-1.3-1.2-2.1-2s-1.5-1.5-2.2-2.1-1.5-1.2-2.1-1.7c-.7-.5-1.3-.7-1.8-.7s-.9.2-1.4.7c-1.2 1.6-1.8 3.1-1.6 4.4.1 1.1.6 2.1 1.5 2.9.4.4 1.1.7 1.9 1l2.5.6c.9.2 1.7.3 2.6.4s1.6.1 2.1.1c-.4 2.5-.8 5.1-1.1 7.7l-.8 7.7h-.1c-.9-.4-1.7-.7-2.3-.9s-1.2-.3-1.8-.3c-.8 0-1.5.4-2.2 1.1-.1.2-.3.5-.4.7s-.2.4-.3.5c-.2.5-.3 1-.2 1.7.1 1 .4 1.9 1.1 2.8.6.9 1.4 1.8 2.2 2.7-1.1-.3-2.2-.5-3.3-.5s-2.1.4-3 1.1-1.2 1.7-1.1 3c.1.9.4 1.7 1 2.4.6.8 1.3 1.5 2.2 2.1.5.5 1.1.9 1.8 1.2.8.4 1.6.6 2.3.6 1 0 2.1-.3 3.3-.8 0 .9 0 1.8.1 2.7l.3 2.7c.3 3.6.8 6.8 1.3 9.8-1.5-1.8-3.3-3.8-5.3-6-2-2.1-4.3-4.3-6.8-6.3-2.3-1.8-4.9-3.6-7.6-5.4l-7.7-4.8c.6-.5 1.3-1.2 2.3-2.2.9-1 1.6-1.9 2.1-2.8.2-.5.3-.9.2-1.2-.2-1.7-.6-2.9-1.3-3.6-.7-.8-1.4-1.3-2.1-1.6-.1-.1-.3-.1-.6-.1-.2 0-.6.1-.9.2-.4.2-1 .4-1.7.8a5.87 5.87 0 0 0-.6 2c-.1.8-.2 1.6-.2 2.4v2.4c0 .8.1 1.5.1 2-1.4-.7-2.6-1.4-3.7-2s-2.1-1.1-3-1.5c-.9-.5-1.8-.9-2.7-1.3l-1.7 1.1 7.6 4.3 7.1 4.2c2.5 1.5 4.9 3 7.1 4.5-1.4 0-3.3 0-5.6-.1l-7.3-.4-7.6-.6c-2.5-.2-4.7-.6-6.5-1-2.4-.5-5.1-1.3-8.1-2.4s-5.9-2.3-8.6-3.5l-9.7-4.4.3 2c.8.5 1.8 1 2.8 1.6.9.5 2 1 3.2 1.7 1.2.6 2.6 1.3 4 1.9-.7.4-1.5.9-2.6 1.6-1 .7-1.8 1.4-2.4 2.1-.4.4-.5 1-.6 1.8a9.37 9.37 0 0 0 .8 3.2c.4.8.9 1.5 1.4 1.9.6.5 1.2.7 1.8.7s1.1-.3 1.7-1c.8-1.1 1.4-2.6 1.9-4.4s.8-3.4.9-4.7c2.1.9 4.3 1.7 6.5 2.4 2.2.8 4.6 1.4 7.1 2 1.9.4 3.9.7 6.1 1s4.4.5 6.6.7 4.4.3 6.5.3 3.9.1 5.5.1c1.1 0 2.1 0 2.9-.1.8 0 1.5-.1 2-.1.5.5.9.8 1.2 1 1.9 1.6 3.8 3.4 5.8 5.5 1.9 2.1 3.7 4 5.2 5.9l3.8 4.8 1.5 2.1c.3 1 .4 1.8.6 2.6.1.8.3 1.5.5 2 .1.6.3 1.2.5 1.7-2.7 1.9-13.9 10.4-17 13l-9.1 8.1c-1-1.6-2.3-3.7-4-6.2s-3.9-5.3-6.6-8.2c-.7-.6-1.4-1.3-2-2s-1.3-1.3-2-2c.5-.2 1.1-.6 2.1-1.1.9-.5 1.8-1.1 2.7-1.6.9-.6 1.6-1.1 2.3-1.7s1-1 .9-1.4c0-.2-.3-.5-.7-1.1l-1.6-1.9c-.6-.6-1.2-1.2-1.9-1.7s-1.3-.8-1.9-.8-1.3.2-2 .7-1.3 1.1-2 1.8-1.3 1.5-1.8 2.2a40.1 40.1 0 0 0-1.4 2c-1.7-1.4-3.4-2.7-5.1-3.8l-4.3-3c-1.5-1-2.8-1.8-4.1-2.6l-1.9.7c.3.2.7.5 1 .8.3.2.7.5 1.1.8s.8.6 1.4 1c-.6.2-1.4.4-2.2.8s-1.2 1-1.1 1.9c.1 1 .5 1.9 1.1 2.6.7.7 1.4 1.2 2.3 1.6s1.7.7 2.6.8c.8.2 1.4.2 1.8.2 1 0 1.6-.3 1.8-.8.2-.6.3-1.2.3-1.8v-.5c2.3 1.8 4.2 3.3 5.8 4.7s3.2 2.9 4.7 4.5c.8.9 1.7 1.8 2.6 2.8l2.1 2.3c-1.2-.4-2.1-.7-2.8-.8-.7-.2-1.4-.2-2-.2s-1.1.1-1.4.4c-1 .9-1.7 1.8-2.1 2.6-.4.9-.5 1.7-.4 2.4s.3 1.3.8 1.7c.4.5 1 .7 2 .7 1.4 0 2.9-.4 4.5-1.1l3.9-1.9c1.2 1.6 2.2 3.1 3.1 4.6s1.6 2.7 2.2 3.8c-2.5 2.5-4.8 5-6.9 7.5-2.1 2.6-3.8 5-5.2 7.4-.3.5-.4.8-.5 1-1.2-1.1-2.8-2.4-4.6-3.8s-3.8-2.9-6-4.4c.8-.4 1.4-1 1.6-1.7.3-1 .6-1.9.8-2.7.2-.9.3-1.7.3-2.4-.1-1.4-1-2.5-2.5-3.1-.7-.2-1.3-.4-2-.4-.9 0-1.7.2-2.5.5s-1.6.7-2.4 1.1c.4-.5.6-1 .8-1.5a3.21 3.21 0 0 0 .2-1.7c0-.4-.1-.7-.2-.8-.6-1.7-1.1-2.9-1.7-3.7s-1.5-1.2-2.6-1.2c-.6 0-1.1 0-1.4.1-1.3.3-2.1 1.1-2.6 2.3s-.8 2.6-.9 4c-.8-1.3-1.6-2.4-2.4-3.3s-1.8-1.4-2.9-1.4h-.5c-1.4.2-2.3.7-2.8 1.5s-.8 1.8-.9 2.8c-1.9-.6-3.7-1.2-5.3-1.5-1.6-.4-3-.8-4.3-1.2-1.5-.3-2.8-.7-4-1.1l-1.3 1.4c.3.1.7.2 1.2.4.4.2.9.3 1.6.5.6.2 1.3.4 2 .5-1.1.6-2.2 1.4-3.3 2.3s-1.6 1.7-1.6 2.5c.2 2.1.7 3.6 1.6 4.7.9 1 1.8 1.6 2.6 1.6.7 0 1.3-.4 1.8-1.2s.9-1.7 1.2-2.8.5-2.1.7-3.2.3-1.9.4-2.6c1 .4 2.1.8 3.2 1.1 1.1.4 2.3.7 3.4 1.1 0 .5.1.8.2 1.1.3 1 .7 1.8 1.4 2.4s1.4 1.2 2.3 1.6c.8.4 1.7.8 2.6 1a94.34 94.34 0 0 1 2.5.6c-.9.1-1.9.2-3.1.5-1.2.2-2.3.6-3.3 1s-1.8.9-2.5 1.6c-.7.6-.9 1.4-.9 2.4.2 2.1 1.1 3.4 2.8 4.1s3.4 1 5 1 2.9-.7 3.8-2.2c.9-1.4 1.6-2.8 2-4.2.2.7.5 1.5.8 2.4s.7 1.7 1.3 2.4c.5.8 1.1 1.4 1.7 1.9s1.4.7 2.2.7h.5c1.7-.2 2.8-.8 3.2-2a6.93 6.93 0 0 0 .5-3.8l-.1-.6 3.8 3c1.2 1 2.3 1.8 3.2 2.6s1.7 1.4 2.2 1.9c.6.5.9.8 1.1.9-1.6 3.4-3 7-4.2 10.6s-2.2 7-2.9 10.2c-.8 3.2-1.4 6-1.8 8.5l-.9 5.6zm62.3-42.2l3.4-.1-2.8 3.1-1 .1zm-14.4-70.6l.4.8-1.2 2.7-2.3-2.9zm-64.1 64.8l-1.2-.7.6-1.4 1.5 1.3z" fill="#084"/><g fill="#b32"><path d="M-66.3 379c-.5-1-1.1-2-1.8-2.7-.7-.8-1.4-1.4-2.1-1.9s-1.3-.7-1.9-.7c-.7 0-1.5.4-2.2 1.1-.8.7-1.4 1.5-2 2.4v-.2c-.6.8-1.1 7.4-1.1 7 .8.1 2.1.2 3.8.2l4.7.1c1 0 1.9-.1 2.5-.4.7-.3.9-.9.9-1.7 0-1.2-.3-2.2-.8-3.2zm-24.6 14.4c.4.4 1.1.7 1.9 1l2.5.6c.9.2 1.7.3 2.6.4s1.6.1 2.1.1v.1c.3-.1 1-2.7.7-4 0 .1 0 .2-.1.3l-2.1-2-2.2-2.1-2.1-1.7c-.7-.5-1.3-.7-1.8-.7s-.9.2-1.4.7c-1.2 1.6-1.8 3.1-1.6 4.4.1 1.2.6 2.1 1.5 2.9zm-.9 33.8c.5.5 1.1.9 1.8 1.2.8.4 1.6.6 2.3.6 1 0 2.1-.3 3.3-.8l.1 2.7.3 2.7c.1 1 .5 2.3 1.7 3.2l.7.4c.6.3 1.3.5 2 .7h.7c1.1 0 2.1-.4 3-1.1a13.6 13.6 0 0 0 2.4-2.4c.6-.9.8-1.9.7-3-.1-1-.4-2.1-1-3.1a27.6 27.6 0 0 0-1.7-2.9c.9.5 1.9.9 3 1.3s2.1.5 3.2.5c.6 0 1.2-.1 1.8-.4.5-.2 1.1-.7 1.6-1.3.5-.8.7-1.6.6-2.5s-.4-1.7-1.1-2.4c-.6-.7-1.3-1.4-2.1-2-.5-.5-1.1-.8-1.7-1.1l-1.3-.6c.2-.2.5-.7.9-1.7s.5-2 .4-3.2c-.1-1.1-.6-2.1-1.6-3-.9-.9-2.6-1.4-4.9-1.4-.9 0-1.6.3-2.2.8s-1.1 1.1-1.4 1.7c0-.4-1.4 3.1-1.3 2.6-.2-.3-.5-1.1-.6-.8l-1.9-1.2-2.3-.9c-.6-.2-1.2-.3-1.8-.3-.8 0-1.5.4-2.2 1.1-.1.2-.3.5-.4.7s-.2.4-.3.5c-.2.5-.3 1-.2 1.7.1 1 .4 1.9 1.1 2.8.6.9 1.4 1.8 2.2 2.7-1.1-.3-2.2-.5-3.3-.5s-2.1.4-3 1.1-1.2 1.7-1.1 3c.1.9.4 1.7 1 2.4 1 .9 1.7 1.6 2.6 2.2zm13-6.3l.4.8-1.2 2.7-2.3-2.9zm-28-9.8c-.7-.8-1.4-1.3-2.1-1.6-.1-.1-.3-.1-.6-.1-.2 0-.6.1-.9.2-.4.2-1 .4-1.7.8a5.87 5.87 0 0 0-.6 2l-.2 2.4v2.4c0 .8.1 1.5.1 2 0 0-.1 0-.1-.1.3.9 2.1 1.7 3.1 1.4.6-.5 1.2-1.1 2-2 .9-1 1.6-1.9 2.1-2.8.2-.5.3-.9.2-1.2-.2-1.5-.6-2.7-1.3-3.4zm-38.4 12.4h0l-2.5 1.6c-1 .7-1.8 1.4-2.4 2.1-.4.4-.5 1-.6 1.8a9.37 9.37 0 0 0 .8 3.2c.4.8.9 1.5 1.4 1.9.6.5 1.2.7 1.8.7s1.1-.3 1.7-1c.8-1.1 1.4-2.6 1.9-4.4s.8-3.4.9-4.7h.1c-.1-.7-2.2-1.5-3.1-1.2zm7.7 32.1c.9.4 1.7.7 2.6.8.8.2 1.4.2 1.8.2 1 0 1.6-.3 1.8-.8.2-.6.3-1.2.3-1.8v-.3c-1.4-1-5.7-5.2-6.7-5.1.1 0 .1.1.1.1-.6.2-1.4.4-2.2.8s-1.2 1-1.1 1.9c.1 1 .5 1.9 1.1 2.6.7.7 1.4 1.2 2.3 1.6zm13.6 18.3c.4.5 1 .7 2 .7 1.4 0 2.9-.4 4.5-1.1l3.9-1.9c0 .1-2.4-3.7-2.4-3.7-.2-.1-.4-.1-.6-.2-.2 0-.4-.1-.5-.2l-1.7-.5c-.7-.2-1.4-.2-2-.2s-1.1.1-1.4.4c-1 .9-1.7 1.8-2.1 2.6-.4.9-.5 1.7-.4 2.4s.3 1.3.7 1.7zm33.1-4.3c.1-.1.2-.1.2-.2.2.8.4 1.9.9 3.2.4 1.4.9 2.7 1.5 4s1.3 2.4 2.1 3.4 1.7 1.4 2.8 1.4c.8 0 1.5-.3 2.1-.8.6-.6 1-1.3 1.4-2.1.3-.8.5-1.8.6-2.7.1-1 .1-1.9 0-2.8-.1-.6-.3-1.3-.7-2.1s-.9-1.5-1.5-2.2l-1.8-2-1.7-1.6c-1.6-.2-5.7 3.1-5.9 4.5zm36.4 26.8l1.8-1.9c.1-.2.3-.3.3-.3.1 0 .1-.1.2-.3.8-.9 1.4-1.7 1.8-2.3.4-.7.5-1.3.5-2 0-.4-.3-.9-.8-1.6-.3-.5-.6-.9-1-1.2-1-.7-2-1.1-3.1-1.1-1.5 0-3.1.4-4.6 1.2.5-.8.9-1.6 1.1-2.4s.3-1.6.3-2.4a4.49 4.49 0 0 0-.7-1.8l-.3-.4c-1.2-1.1-2.3-1.7-3.5-1.7-.6 0-1.3.1-1.9.4-.6.2-1.2.6-1.8 1l-1.6 1.3c-1 1-1.3 2.3-1.2 3.9.1 1.1.4 2.2.8 3.3s.9 2 1.4 2.8c-.5-.6-1.2-1.2-1.9-2-.8-.8-1.6-1.4-2.4-2l-2.6-1.6c-.8-.4-1.6-.7-2.4-.7-.7 0-1.3.2-1.6.5-1.4 1-2 2.2-1.8 3.8.1.9.3 1.8.8 2.6.4.9 1 1.7 1.6 2.5.1.1.1.2.2.3 1 1.4 6.2 2.2 8.2 2.1-.7.9-1.4 1.8-2 2.9-.6 1-.8 2.1-.7 3.2a4.49 4.49 0 0 0 .7 1.8l.4.4c1.1 1.2 2.3 1.8 3.5 1.8.6 0 1.3-.1 1.9-.4.6-.2 1.2-.6 1.8-1 .2-.2.5-.3.7-.5.3-.2.5-.4.6-.7a4.87 4.87 0 0 0 .8-1h.1c.5.6 1 1.2 1.5 1.6.6.4 1.2.6 1.8.6l.6-.1 2.8-.5c.9-.2 1.6-.5 2.2-.9.9-.7 1.3-1.7 1.2-2.9l-.1-.7c-.2-.6-.6-1.2-1-1.8-.3-.3-1.7-1.7-2.6-1.8zm-9.5-1.9l-1 .1.4-3.1 3.4-.1zM-83.7 510l-2.9.3c-1.3.2-2.5.5-3.7.9s-2.2 1-3.1 1.7-1.2 1.5-1.1 2.6c.2 2.1 1.1 3.4 2.8 4.1s3.4 1 5 1a3.94 3.94 0 0 0 2.7-1c.7-.6 1.4-1.4 1.9-2.3a16 16 0 0 0 1.2-2.7l.6-2.4.1.1c-.3-1.1-2.1-2.3-3.5-2.3z"/><path d="M-41.7 514a2.36 2.36 0 0 0-.9-.8c-.5-.2-1.2-.4-2.1-.5s-2.2-.2-3.8-.2c-1.4 0-2.7.3-3.8 1s-1.9 1.5-2.7 2.4c-.7.9-1.3 1.8-1.7 2.7s-.8 1.5-1 1.9c.2.3 3.9 1.6 4.1 1.6h-.1l3.8-1.5 4-1.9c1.3-.6 2.3-1.3 3.2-1.9s1.3-1.2 1.2-1.8c0-.4-.1-.7-.2-1zm-49.8-17.7h-.3l1.6-4.2c.6-1.6.8-2.6.8-3.2 0-.2-.3-.5-.9-.7l-1.9-.7c-.7-.2-1.5-.4-2.3-.5l-2.1-.2c-.8 0-1.4.5-1.8 1.6s-.7 2.3-.9 3.6-.2 2.6-.2 3.8l.1 2.1c.6.9 6.2-.6 7.9-1.6zm-37-15.7c-.1-1.4-1-2.5-2.5-3.1-.7-.2-1.3-.4-2-.4-.9 0-1.7.2-2.5.5s-1.6.7-2.4 1.1c.4-.5.6-1 .8-1.5a3.21 3.21 0 0 0 .2-1.7c0-.4-.1-.7-.2-.8-.6-1.7-1.1-2.9-1.7-3.7s-1.5-1.2-2.6-1.2c-.6 0-1.1 0-1.4.1-1.3.3-2.1 1.1-2.6 2.3s-.8 2.6-.9 4c-.8-1.3-1.6-2.4-2.4-3.3s-1.8-1.4-2.9-1.4h-.5c-1.4.2-2.3.7-2.8 1.5s-.8 1.8-.9 2.8c.1.8.1 1.8.1 2.5 0 .5.1.8.2 1.1.3 1 .7 1.8 1.4 2.4s1.4 1.2 2.3 1.6c.8.4 1.7.8 2.6 1l2.5.6c-.9.1-1.9.2-3.1.5-1.2.2-2.3.6-3.3 1s-1.8.9-2.5 1.6c-.7.6-.9 1.4-.9 2.4.2 2.1 1.1 3.4 2.8 4.1s3.4 1 5 1 2.9-.7 3.8-2.2c.9-1.4 1.6-2.8 2-4.2l.8 2.4c.3.9.7 1.7 1.3 2.4.5.8 1.1 1.4 1.7 1.9s1.4.7 2.2.7h.5c1.7-.2 2.8-.8 3.2-2a6.93 6.93 0 0 0 .5-3.8l-.2-2.5c.2.2 2.6-.2 3.4-2.6.3-.9.4-1.9.6-2.8.6-.7.5-1.6.4-2.3zm-14.4 4.9l-1.2-.7.6-1.4 1.5 1.3zm-23.5-10.8c.6.2-1.5 1.6-2.6 2.5s-1.6 1.7-1.6 2.5c.2 2.1.7 3.6 1.6 4.7.9 1 1.8 1.6 2.6 1.6.7 0 1.3-.4 1.8-1.2s.9-1.7 1.2-2.8.5-2.1.7-3.2l.4-2.6c-1-.7-4.7-1.7-4.1-1.5zm45.9-15.5c.5-.2 1.1-.6 2.1-1.1l2.7-1.6 2.3-1.7c.7-.6 1-1 .9-1.4 0-.2-.3-.5-.7-1.1l-1.6-1.9c-.6-.6-1.2-1.2-1.9-1.7s-1.3-.8-1.9-.8-1.3.2-2 .7-1.3 1.1-2 1.8-1.3 1.5-1.8 2.2l-1.4 2c-.2-.3 5.7 5 5.3 4.6zm43.8-8l3.3.8c1.6.3 3 .5 4.4.5 1 0 1.9-.1 2.5-.4.7-.3.9-.9.9-1.7a9.11 9.11 0 0 0-.9-3.1c-.5-1-1.1-1.9-1.8-2.7s-1.4-1.4-2-1.9c-.7-.5-1.3-.7-1.9-.7-.9 0-1.9.5-3 1.6-1.1 1-3 3.4-3.1 3.6-.2.2.9 3.6 1.6 4z"/></g></g></svg>