<svg xmlns="http://www.w3.org/2000/svg" width="150" height="200" viewBox="0 0 39.7 52.9"><path d="M38.339 12.95c-.663 0-1.113-.027-1.404-.08-.398-.106-.609-.371-.609-.822V2.721c-.822.424-2.12.689-3.843.795v.848h1.563c.477 0 .716.185.716.583v7.102c0 .344-.08.583-.239.662-.239.159-.848.239-1.855.239v.874h5.645v-.874z" fill="#b32"/><path d="M1.16 10.3l.556.053c.609 0 1.06-.212 1.828-.822C6.061 7.411 6.22 7.305 6.3 6.854c.159-.901.239-1.564.239-2.041 0-.689-.133-.98-.689-1.537l.026-.08c.133-.132.212-.185.318-.185.715 0 2.12 1.087 2.12 1.617 0 .159-.106.53-.318 1.087a3.2 3.2 0 0 0-.159.61c.663.371.901.609.901.874 0 .212-.053.318-.61.795-.636.609-.848.98-.98 1.855.291.556.371.795.371 1.033 0 .053 0 .08-.026.133-.026.079-.053.132-.053.159v.053l.239-.133c.133-.053.345-.318.636-.795l.715-1.192.344-.716c.026-.053.08-.132.185-.291h.053v.132c0 .795-.901 2.968-1.563 3.816l-1.272 1.617c-.106.186-.159.451-.159.769 0 .583.212 2.358.398 3.153.106.53.159.98.159 1.272 0 .186-.133.318-.239.318-.053 0-.133-.053-.212-.106-.663-.609-1.034-1.643-1.034-2.756 0-.08.026-.742.106-1.987l-.821.689c-.769.636-.928.742-1.166.742-.265 0-.371-.318-.371-1.007 0-.795 0-.822.901-1.352.61-.371 1.298-1.192 1.51-1.828.053-.185.212-1.219.212-1.457 0-.027 0-.053-.053-.053-.106 0-.53.318-1.139.848-1.405 1.219-1.431 1.245-1.802 1.245-.291 0-.742-.265-1.378-.768-.424-.371-.477-.451-.53-1.007zm6.572 3.418c.053.027.106.027.133.027.053 0 .185-.053.318-.106.106-.053.45-.186 1.007-.371l.715-.265.556-1.987c.212-.875.424-1.458.61-1.67l.556-.689.636-.927c.08-.106.265-.291.53-.556-.954.265-1.245.397-1.669.662-.239.159-.45.265-.583.265-.053 0-.133-.053-.185-.106-.159-.132-.504-.715-.477-.822 0-.106.133-.292.318-.504.424-.477.715-.927.715-1.219 0-.079-.08-.212-.159-.238-.61-.239-.61-.239-.742-.371l-.053-.08c.026-.318.212-.556.424-.53l.477.079c.98.133.98.133 1.299.345.291.212.503.503.503.715 0 .132-.133.397-.265.556-.133.106-.133.133-.133.186l.239-.053c1.749-.769 1.749-.769 2.12-.769.609 0 1.564.61 1.564.981 0 .238-.239.344-1.272.583-1.325.318-3.206 1.749-3.206 2.491 0 .053.026.106.08.106.212 0 .715-.291 1.484-.848.318-.238.636-.371.874-.371s.795.291 1.246.609c.344.265.583.583.583.795 0 .053-.053.344-.133.768l-.053 1.272c1.14.08 1.537.238 2.173.768.503.424.662.61.662.822 0 .159-.133.265-.344.265-.133 0-.344-.027-.583-.08-.848-.238-1.087-.238-2.04-.291l-.159 2.093c.609.053.874.212 1.404.715.239.239.371.451.371.61s-.133.238-.398.238c-.239 0-.344-.026-.927-.212-.318-.106-.318-.132-.689-.212-.583 1.431-.928 2.04-1.563 2.677-.265.239-.504.398-.715.398s-.239-.027-.503-.557l-.345-.556-.477-1.352.053-.053c.556.318.848.424 1.113.424.53 0 .795-.345 1.193-1.378-.291-.053-.53-.053-.689-.053-.53 0-1.113.132-2.305.609-.61.239-.61.239-1.245.61a.92.92 0 0 1-.477.132.8.8 0 0 1-.424-.132c-.239-.265-.504-.901-.504-1.219 0-.159 0-.159.556-.822.08-.079.133-.159.133-.212s-.053-.079-.133-.079c-.053 0-.132.026-.238.053l-.398.106-1.325-.212c0-.027 0-.027.08-.133l.265-.424a2.19 2.19 0 0 1 .318-.397h.106zm3.684 1.219c.133-.212.583-1.087.583-1.219 0-.053-.053-.079-.133-.079-.185 0-.424.079-1.272.477l-.928 1.669c1.087-.292 1.458-.504 1.749-.848zm.212-5.088c-.08 1.272-.133 1.484-.504 2.809l1.166-.318c.132-.53.265-1.404.265-1.828 0-.132-.053-.265-.159-.318zm1.272 5.194c.345-.053.61-.053.795-.053.106 0 .291 0 .504.027l.239-1.855c-.954.053-1.166.079-1.272.238-.053.08-.504 1.431-.504 1.563 0 .053.053.106.133.106h.106zm1.617-3.869c0-1.458-.053-1.776-.239-1.776-.026 0-.026 0-.424.318-.424.398-.424.398-.424.451s.053.212.133.397c.053.186.106.345.106.451 0 .132-.026.291-.08.53-.053.106-.053.292-.133.53.556-.053.636-.053 1.113-.238z" fill="#339"/><path d="M25.089 21.96a.76.76 0 0 0-.424-.053c-.583.106-.848.451-.742 1.034.053.344.291.609.663.742.053.026.159.026.344 0l.451-.08c.345.08.822.265 1.431.61.265.212.424.291.477.291l-.026-.238c-.239-1.272-.954-2.041-2.173-2.306z" fill="#b27"/><path d="M14.41 46.605h.159c.053.186.079.345.079.477.371 1.034.822 1.563 1.325 1.563.212 0 .583-.238 1.086-.689l2.12-1.828c.159-.265.265-.424.345-.477s.212-.079.424-.132.371-.079.477-.079c.265-.053.927-.239 2.041-.53l.398-.212a10.92 10.92 0 0 0-1.563-.477c-.106 0-.265 0-.504.026s-.424.027-.583.027c-.318 0-.477-.08-.477-.265l.079-.265c-.265-.53-.901-.822-1.961-.822-.53.079-1.06.292-1.643.609l-.477.238c-.212.106-.345.186-.398.239-.477.636-.742.954-.795.954-.106.079-.212.159-.344.159a1.63 1.63 0 0 1-.345.026c-3.021.689-5.83 1.617-8.374 2.782-1.192.451-1.802.901-1.802 1.351 0 .53.345.822 1.007.822.371 0 .874-.212 1.563-.609 2.756-1.219 5.088-2.093 6.97-2.65.45-.133.822-.239 1.193-.239z" fill="#084"/><path d="M22.572 7.915c-.769-.212-1.007-.822-.716-1.829.424-.636.875-.874 1.325-.742.398.106.663.398.822.848.053.265.053.477 0 .636-.079.318-.291.583-.583.822s-.583.344-.848.265zm9.142 16.695c0 .53.292.822.901.901h.185c.45 0 .769-.08 1.007-.239.451-.212.663-.45.663-.768 0-.556-.424-.848-1.272-.848-.98.106-1.484.424-1.484.954zM6.91 44.273c.026.159.239.451.61.848.265.159 1.087.504 2.411 1.06.026 0 .159.027.318.106.185.079.318.133.398.106h.053c.133-.106.265-.477.345-1.113l-.106-.53a5.95 5.95 0 0 0-.424-1.193c-.424-.662-.822-1.007-1.245-1.087-.133-.053-.291-.106-.504-.106l-.503-.053-.291.053c-.689.292-1.007.928-1.06 1.908z" fill="#b27"/><path d="M34.735 47.135c.186-.132.292-.238.318-.291s.053-.159.053-.265c0-.292-.159-.53-.477-.768l-.848-.186c-.398-.079-.689-.186-.848-.292-.477-.238-.822-.45-1.007-.662-.133-.238-.212-.371-.265-.371s-.133 0-.212-.026-.133-.08-.186-.159c-.133-.026-.451-.345-1.007-.901l-.901-1.007.715-.292c.159-.159.265-.238.291-.238l.53-.133c.238-.026.424-.079.583-.132a.35.35 0 0 0 .265-.238l.053-.424c0-.212.133-.451.424-.715.133-.318.186-.53.186-.662 0-.027-.133-.212-.424-.477l-.239-.424c-.133-.08-.318-.133-.61-.133h-.424c-.239 0-.371-.026-.424-.079s-.133-.159-.238-.318c-.133-.159-.212-.292-.239-.371-.318-.371-.477-.61-.477-.716 0-.079.026-.159.053-.238s.053-.133.053-.186c0-.291-.079-.424-.239-.424-.133 0-.265.08-.451.239s-.265.424-.265.768c-.132.451-.185.742-.185.901 0 .239.053.53.185.848 0 .079.053.159.159.238s.159.185.212.292l.053.185c0 .053-.133.132-.424.292l-4.558 4.134-.663.715c-.079.053-.159.079-.238.132l-.186.132-1.564 1.511c-1.352 1.352-2.65 2.942-3.896 4.744.079-.053.186-.079.291-.132.053-.053.079-.079.106-.133l1.219-.053c.133 0 .821-.186 2.094-.53 1.086-.398 1.802-.609 2.173-.609.556 0 .848-.186.848-.53a.5.5 0 0 0-.053-.212c-.053-.053-.053-.106-.053-.159l.371-.662c.291-.609.53-1.034.768-1.325l.291-.662.186.186c.133.053.212.053.291.053.291.132 1.245.371 2.915.716 1.669.371 2.835.795 3.498 1.325.026.079.132.212.238.424.133.212.239.344.371.451a.65.65 0 0 0 .424.159c.318 0 .636-.132.954-.424s.477-.556.477-.848c0-.132-.053-.265-.185-.424s-.186-.265-.186-.318c.053-.053.133-.159.318-.292zm-4.24-1.59c-.079 0-.133-.026-.186-.053-.636 0-1.192-.053-1.616-.186-.239 0-.768.079-1.616.238h-.848c-.053 0-.079.027-.159.053-.053.053-.106.053-.159.053 0-.132.106-.291.291-.53.954-1.272 1.855-2.173 2.703-2.703v-.053c.079 0 .133.026.133.053.212.795.451 1.431.769 1.908l.662.715v.504zm1.007-22.472c.45-.424.715-.609.795-.583l.238.08c.424.132.583.371.477.715-.079.265-.291.477-.609.636-.715.451-1.643.663-2.782.61-.424-.133-.689-.186-.769-.159-.159.079-.291.344-.424.822-.159.265-.424.848-.821 1.749-.344.715-.689 1.033-1.086.927-.424-.132-.556-.424-.424-.874.079-.292.239-.61.477-.981.265-.583.477-1.033.689-1.325.636-1.299 1.219-2.12 1.776-2.465 0-.026.053-.053.133-.026l.106-.159c-.239-.212-.398-.398-.477-.477-.821-1.166-1.564-2.491-2.252-3.922-1.881-3.895-2.968-9.143-3.286-15.768.848 4.691 1.484 7.818 1.855 9.381l.053.238.159-.079c.61-.371 1.14-.504 1.59-.371.186.053.371.159.556.265.265.424.345.768.265 1.007l-.53.503c-.318.265-.662.424-1.033.53-.159-.053-.344 0-.61.133.133.238.212.424.212.53a17.11 17.11 0 0 0 1.564 3.895c.769 1.537 1.351 2.544 1.749 3.021.212.371.477.689.795.927.344.212.53.371.503.424.026.08 0 .186-.026.292s-.133.238-.318.371-.291.238-.344.238c-.265.159-.504.53-.742 1.087l.318-.212c.927-.159 1.669-.477 2.226-.98z" fill="#084"/><path d="M25.831 28.32c0-.954-.291-1.59-.901-1.855-.371-.159-.98-.239-1.855-.239l-.875.212c-.344.106-.583.159-.742.159-1.511.371-2.544 1.087-3.048 2.147l-.239.424c-.397-.291-.662-.424-.768-.424-.524-.159-1.069-.239-1.616-.239-1.087 0-1.961.212-2.65.61-.875.636-1.325 1.378-1.325 2.226 0 .212.053.53.185 1.007.291.689.768 1.245 1.431 1.669.159.133.239.212.239.239-.159 0-.291.053-.371.132-1.113.318-1.881.848-2.279 1.563-.318.795-.477 1.458-.477 1.987 0 .451.08.769.239 1.007l.424.424c.53.398.954.662 1.325.768.08 0 .742.08 1.988.239.133 0 .265 0 .424.026.123.019.247.028.371.026.371 0 .742-.079 1.14-.238.079 0 .159-.026.265-.079s.186-.08.265-.08c.026.371.291.689.769 1.007.715.716 1.669 1.087 2.889 1.087.291 0 .504-.027.663-.053 1.908-.398 3.445-1.272 4.558-2.65.451-.556.689-.928.768-1.087.159-.53.239-.848.239-1.007 0-.397-.133-.927-.424-1.617-.053-.132-.053-.212-.053-.238v-.133c.556.133 1.007.186 1.325.186.451 0 1.192-.106 2.226-.292.53-.132.98-.265 1.378-.424a6.06 6.06 0 0 0 1.272-1.325c.398-.689.609-1.352.609-1.987 0-.927-.45-1.749-1.325-2.465-.371-.318-.928-.556-1.749-.715-.132 0-.291 0-.503-.027s-.424-.026-.636-.026c-1.007 0-1.855.132-2.57.424-.239.239-.451.371-.61.371l.053-.371v-.371zm-8.109 7.606c-.079-.027-.133-.053-.186-.053-.398 0-.61.212-.61.609 0 .159.026.265.053.292 0 .079.026.132.133.132l.053.186-.186.291c-.053.238-.053.371-.053.424-.079.079-.133.212-.133.424-.053.079-.053.185-.053.292 0 .132-.053.185-.186.185-.053 0-.133-.026-.238-.132h-.53c-.212 0-.503.053-.874.132s-.663.132-.822.132H13.8c-.636 0-1.113-.106-1.378-.291a1.34 1.34 0 0 1-.662-1.193v-.239c0-.689.291-1.272.848-1.749.133-.08.398-.186.822-.318s.689-.239.822-.318c.026-.027.133-.053.291-.053h.185c0 .053-.026.132-.053.238.133.451.371.663.715.663.239 0 .424-.053.53-.186.026 0 .079-.079.133-.238.026-.159.079-.239.133-.239h.371c.159.053.265.053.291.053l.716.186h.291l-.291-.424a1.44 1.44 0 0 0-.716-.186c-.053 0-.133.027-.239.053-.133.053-.212.053-.239.053 0 .133-.053.186-.186.186l-.053-.133c-.079 0-.132-.026-.132-.079s0-.106-.026-.159c-.026-.027-.026-.106-.026-.186.026 0 .053.053.053.133l.186.053c.238 0 .424-.133.53-.424.026-.08.053-.133.053-.186 0-.026.026-.053.079-.053s.133.027.212.053c.079.053.186.106.291.212.133.106.212.159.239.159.133.053.265.133.424.239.159.132.291.185.371.185.133.053.212.053.239.053l.186-.053-.424-.53c-.239-.159-.609-.291-1.139-.424-.212 0-.318-.026-.398-.079-.053-.053-.106-.133-.159-.212l-.133-.186c-.133-.132-.265-.185-.424-.185-.398 0-.61.212-.61.662 0 .239.053.424.185.53-.159-.212-.503-.424-1.007-.662-.53-.239-.848-.477-1.007-.716-.53-.53-.769-.954-.769-1.325s.265-.795.769-1.325c.689-.318 1.431-.477 2.226-.477a5.88 5.88 0 0 1 .901.053c.636.212 1.246.53 1.802.954l.61.477c.026 0 .106-.027.186-.053h.186c0-.08.026-.133.053-.133.133-.026.186-.132.186-.291 0-.133-.106-.292-.291-.504-.212-.212-.291-.424-.291-.636 0-.318.133-.609.424-.901.927-.928 2.094-1.378 3.551-1.378.079 0 .186 0 .318-.027s.265-.026.398-.026c.026 0 .133 0 .239.026.133.027.212.027.239.027.398.291.61.609.61.954v.238c0 .557-.133.954-.371 1.192-.053.133-.159.239-.371.398-.212.132-.318.238-.371.265a3.2 3.2 0 0 0-.768 2.093c0 .53.133.901.424 1.139v.053h-.239c-2.067.398-3.789 1.113-5.088 2.173-.132.159-.238.238-.371.238zm6.837 2.888c-.451.477-1.06.848-1.855 1.139-.928.451-1.669.662-2.279.662-1.192 0-1.961-.424-2.279-1.272-.133-.371-.186-.609-.186-.768 0-.715.291-1.352.848-1.908.291-.371.875-.795 1.802-1.325.875-.45 1.59-.689 2.173-.715h.186l.371.185c.133.053.291.08.504.159.212.053.398.106.504.159.61.292.98.53 1.139.768.133.318.186.716.186 1.193-.053.663-.424 1.246-1.113 1.722zm3.392-9.116c1.457 0 2.385.212 2.782.61s.61.795.61 1.192c0 .636-.318 1.192-.954 1.669-.212.159-.954.371-2.279.663-.291.053-.769.053-1.431.053-.609 0-1.007-.027-1.272-.133l-.371-.185c-.053-.08-.212-.186-.477-.318-.291-.133-.451-.292-.53-.451-.053-.026-.053-.185-.053-.424 0-.556.212-1.06.663-1.51.742-.768 1.855-1.166 3.313-1.166zm-12.879 6.599c0 .397.212.609.662.609.398 0 .61-.212.61-.662 0-.239-.133-.424-.424-.53h-.239c-.424-.027-.609.185-.609.583zm3.312-4.081l.186-.053.133-.132c.133 0 .291.238.477.715.079.318.159.53.239.663.133.291.291.424.477.424l.133-.371-.133-.133c-.053-.132-.053-.212-.053-.291l-.371-.371c-.159-.159-.265-.292-.291-.371l-.371-.292.053-.238v-.238c0-.398-.159-.61-.477-.61-.397 0-.609.212-.609.663 0 .424.212.636.609.636zm.901 1.855c.079-.026.133-.132.133-.238l-.133-.186c-.053-.212-.451-.53-1.272-1.007l-.477-.291v-.292c0-.318-.212-.477-.61-.477h-.133c-.318.053-.477.239-.477.61v.053c0 .477.212.715.609.715.159 0 .291-.053.424-.185l.186-.371c.212.159.477.45.874.848.371.397.663.662.822.768zm-2.173 1.166l-.477.132c-.106.027-.186.106-.238.239s-.106.212-.186.238c.106-.026.265-.053.477-.053s.318-.026.371-.026c.265-.08.398-.159.371-.292-.026-.079-.133-.159-.318-.238zm3.498-3.869c.036-.002.071.011.096.036s.039.06.036.096v.424c0 .053 0 .132-.026.265s-.026.238-.026.265c0 .371.079.53.239.53l.133.185c.079 0 .133-.132.133-.424v-.715c-.079-.212-.133-.371-.133-.53v-.133c0-.026.026-.053.133-.053h.186l.133-.292.053-.238-.186-.424c-.212-.133-.371-.186-.477-.186-.079.08-.159.133-.239.133-.133 0-.186.026-.186.053-.133.238-.186.424-.186.53 0 .159.053.291.186.424zm.848 1.617c0 .132.053.238.185.371v.053c.026 0 .079-.08.133-.239l.186-.238c0-.08.026-.292.079-.663s.106-.583.159-.662h.291c.079-.027.159-.08.239-.132a.58.58 0 0 0 .186-.451c0-.185-.053-.318-.186-.424s-.291-.159-.53-.159a.8.8 0 0 0-.424.133c-.053.079-.053.238-.053.45s.026.371.053.45h.133c.026 0 .053.027.053.053l-.239.477c-.185.557-.265.875-.265.981zm1.166-.716l-.451.53c0 .159.053.239.186.239.079 0 .212-.08.371-.239.026-.132.106-.291.212-.503s.159-.398.212-.503c-.079 0-.239.159-.53.477zm2.544-14.575c-.318.291-.768.344-1.299.185a1.92 1.92 0 0 1-1.139-.822c-.265-.398-.344-.795-.212-1.193.159-.53.477-.901 1.007-1.087.398-.053.689-.053.875 0 1.299.371 1.881.927 1.749 1.696-.053.185-.239.397-.556.662-.212.318-.344.503-.424.556zM19.816 32.03c.026.477.185.848.424 1.139l.186.239c.026-.027.053-.133.053-.239 0-.397-.212-.927-.662-1.617 0-.027-.079-.159-.239-.371 0 .08.026.239.053.451.053.238.106.371.186.397zm8.136-20.061c.159.61-.663 1.935-1.484 1.643-.795-.265-.954.53-1.272-.768-.344-1.484.106-1.298 1.007-1.855.768-.45 1.59.371 1.749.98z" fill="#b27"/></svg>