<svg xmlns="http://www.w3.org/2000/svg" width="150" height="200" viewBox="0 0 39.7 52.9"><path d="M3.045 6.86l.133.026.239.133c.08.053.159.053.239.053.239 0 1.166-.292 2.279-.716-.133-1.06-.133-1.087-.689-1.59-.159-.186-.239-.292-.239-.477l.053-.08.318-.053c.45 0 1.06.159 1.325.345s.424.397.424.53l-.026.636c0 .08.026.186.053.398l.61-.133.874-.159c1.007-.132 1.219-.185 1.352-.318.159-.185.318-.795.318-1.192 0-.132-.053-.344-.133-.556-.185-.504-.185-.53-.185-.742l.026-.053c.053-.027.106-.027.106-.027.133 0 1.087.318 1.325.451.424.212.636.424.636.636a.61.61 0 0 1-.08.238l-.424.98c1.245-.238 1.696-.318 2.305-.318.795 0 1.431.345 1.431.795 0 .239-.212.345-.874.451l-3.339.318-.318.45c-.318.504-.398.557-.848.98l.875.265c.159-.053.291-.106.318-.132l.424-.292c.318-.212 1.563-.53 2.04-.53.716 0 1.696.742 1.696 1.298 0 .079-.053.238-.106.477-.133.424-.239 1.06-.239 1.802s.026.768.212 4.213l.185 2.835c0 1.511-.53 3.18-1.007 3.18-.133 0-.265-.106-.53-.424-.424-.477-.53-.609-.848-.874l-1.166-1.087.026-.079.689.132c.345.08.663.133.848.133.477 0 .609-.424.609-1.828l-.212-5.353c-1.14.292-1.193.292-2.12.318-.663.053-.795.08-.901.318.371.239.53.398.53.477 0 .106-.133.212-.318.265-.053.027-.053.027-.53.08-.212.026-.318.053-.636.185v.398l1.564-.318c.53 0 1.272.424 1.272.715 0 .132 0 .132-.291.609l-.583 1.352c-.053.053-.185.159-.239.159l-.795-.053c-.026 0-.133.026-.239.053a3.6 3.6 0 0 1-.663.185c-.053.424-.053.822-.053.98-.026 1.352-.053 1.67-.318 2.12-.08.133-.133.212-.212.212-.106 0-.159-.079-.424-.424-.159-.212-.53-.609-1.007-1.166l.053-.053a2.96 2.96 0 0 0 .61.08c.291 0 .291 0 .344-1.457-.609.132-.662.132-1.219.45-.133.053-.239.106-.291.106-.185 0-.45-.238-.556-.45-.239-.53-.45-1.511-.45-1.882 0-.159.053-.265.185-.424h.053c.133.239.185.292.318.477.795-.583.848-.609 2.014-1.033v-.397c-.424.132-.53.132-.874.318-.159.053-.265.106-.345.106-.159 0-.318-.106-.742-.477l-.026-.053.239-.186 1.034-.371a5.24 5.24 0 0 0 .689-.265c-.133-.318-.159-.318-.424-.53a.68.68 0 0 0-.345.212c-.08.398-.159.451-.61.451l-.98.795c-.239.159-.424.265-.583.265s-.45-.239-.663-.504c-.106-.132-.185-.238-.238-.238s-.106.159-.106.371c.026.212 0 .609-.053 1.219-.053.477-.053.875-.053 1.166v2.862c0 .848-.133 1.378-.318 1.378-.371 0-.795-1.272-.795-2.385 0-.318.026-.715.08-1.219l.239-3.525-.053-1.272-.053-.822c0-.451.106-.689.477-1.007l.053-.026c.026.053.053.106.053.132.026.132.053.159.133.159.053 0 .106-.053.159-.132.345-.53.345-.53 1.033-.822 1.219-.53 1.405-.583 1.749-.583.556 0 1.06.371 1.06.795 0 .212 0 .212-.239.848-.08.212-.133.556-.133 1.166l.053.053c.239-.133.45-.292.53-.345l.371-.265c.026 0 .053-.026.133-.053-.053.318-.053.345-.424.848-.053.08-.106.133-.106.159 0 .106.026.106.583.265.239.053.345.159.556.451h.424c-.265-.583-.371-.954-.371-1.325V9.351c0-.768-.239-1.219-.663-1.219-.133 0-.239.053-.398.106-.239.08-.424.133-.53.133-.026 0-.053 0-.133-.027l-.026-.106c1.086-.822 1.272-1.06 1.484-1.828-.477-.106-.583-.106-.769-.106-.239 0-.398.053-.821.318l-.954.583c-.133.901-.239 1.087-.45 1.087-.159 0-.318-.159-.556-.662-.53.132-.556.132-1.775.715-.265.133-.53.212-.663.212-.371 0-.848-.768-.848-1.352 0-.053.026-.159.053-.292zm4.108 4.452l-.901.53c-.424.292-.477.292-.954.398l-.026-.106c.398-.318.53-.504.53-.663 0-.132-.106-.291-.265-.424l-.504-.371.026-.053c.239-.132.61-.212 1.219-.212.371 0 .53.053.848.371l.053-.53c0-.556-.053-.715-.265-.715-.106 0-.371.079-.742.265-.159.053-.291.106-.318.132l-.61.053c-.239.027-.371.318-.371.716 0 .106 0 .106.08 1.007l.08.901c.08.133.212.212.371.212.53 0 .901-.159 1.749-.768zm-.689 5.91c.318.45.45.609.53.609s.53-.212.742-.318l.026.106c-.053.106-.08.159-.106.186l-.398.715c-.291.583-.318.609-.424.609-.026 0-.026 0-.371-.344-.239-.238-.291-.397-.291-.715 0-.239.053-.424.185-.742zm1.67-2.305c-.133.053-.291.079-.477.132-.345.053-.504.212-.504.53 0 .45.185.874.398.874a5.4 5.4 0 0 0 1.033-.265c.239-.106.291-.212.291-.503-.239.133-.424.186-.53.186-.132 0-.212-.053-.556-.212-.133-.053-.133-.053-.159-.159l.026-.08a10.68 10.68 0 0 0 1.245-.424v-.265c-.133.027-.239.027-.239.053zm1.722.901l.636-.132c.318-.053.45-.132.53-.291a2.94 2.94 0 0 0 .291-.901c0-.159-.159-.318-.345-.318-.106 0-.265.026-.45.079-.133.053-.371.106-.689.159l.053.318c.08-.026.185-.026.239-.053.133-.053.239-.053.265-.053.239 0 .424.212.424.424 0 .133-.053.212-.133.239-.053.026-.053.026-.424.026-.133 0-.185.027-.424.08zm.61.769h.265c.212 0 .742.132 1.14.265s.636.53.636.954c0 .238-.159.45-.371.45-.238 0-.424-.132-.927-.689l-.265-.318-.583-.636zm3.259-6.493c0-.079-.026-.106-.053-.106-.053 0-.106.027-.159.053-.159.053-1.405.212-1.67.212-.159 0-.397-.026-.742-.053-.053.424-.053.504-.053 1.007.636-.026.636-.026 1.457-.159.239-.053.398-.053.53-.053.053 0 .291.027.742.053l-.053-.662c-.026-.08-.026-.186 0-.292zm-2.597-.609l.769-.106a5.1 5.1 0 0 1 1.007-.133c.185 0 .424.053.795.239v-.61c0-.424-.133-.609-.45-.609a2.75 2.75 0 0 0-.61.08c-.318.079-.53.132-.689.132h-.45c-.106 0-.185.027-.318.08v.106l-.053.716z" fill="#339"/><path d="M35.852 26.735c-2.041-2.597-4.425-3.895-7.155-3.895-1.881 0-3.339.927-4.399 2.756-.954-4.081-2.465-6.122-4.532-6.148-2.067.027-3.604 2.067-4.532 6.148-1.06-1.855-2.517-2.756-4.399-2.756-2.73 0-5.115 1.298-7.155 3.895C1.773 29.147.819 31.744.819 34.5c0 2.358.821 4.717 2.438 7.023 1.802 2.57 3.869 3.843 6.175 3.843 1.405 0 2.491-.715 3.206-2.173l1.855-4.001c.874-1.829 1.643-2.73 2.305-2.73.477 0 .716.344.689 1.033.106.822.265 1.192.609 1.352.159.079.133.345.186.53.186-.133.424-.212.716-.212h.026c-.026-.371-.159-1.113-.398-2.226-.265-1.113-.875-1.669-1.829-1.669-1.192 0-2.173.768-2.941 2.305l-1.749 4.002c-.715 1.298-1.643 1.961-2.73 1.961-1.881 0-3.525-1.06-4.902-3.18-1.245-1.934-1.855-3.922-1.855-5.962 0-2.305.795-4.425 2.385-6.386 1.643-2.041 3.578-3.047 5.83-3.047 1.378 0 2.411.53 3.127 1.563.689.98 1.352 2.2 2.041 3.63.822 1.722 1.59 2.942 2.332 3.657.345.318.663.451.901.371.265-.079.318-.291.186-.609l-1.723-3.657c-.768-1.563-1.139-2.623-1.139-3.18 0-.636.212-1.431.636-2.332.424-.927.874-1.643 1.351-2.173s.901-.795 1.272-.795.795.265 1.272.795.928 1.246 1.352 2.173.636 1.696.636 2.332c0 .556-.371 1.617-1.139 3.18l-1.723 3.657c-.133.318-.079.53.186.609s.556-.053.901-.371c.742-.715 1.511-1.934 2.332-3.657.689-1.431 1.351-2.65 2.041-3.63.689-1.06 1.749-1.563 3.127-1.563 2.226 0 4.161 1.007 5.83 3.047 1.59 1.935 2.385 4.055 2.385 6.386 0 2.04-.609 4.028-1.855 5.962-1.378 2.12-3.021 3.18-4.903 3.18-1.113 0-2.014-.662-2.729-1.961l-1.749-4.002c-.769-1.537-1.749-2.305-2.942-2.305-.954 0-1.564.556-1.829 1.669l-.397 2.226a1.3 1.3 0 0 1 .795.265s.026-.398.133-.451c.186-.079.477-.901.61-1.484-.026-.689.212-1.033.689-1.033.663 0 1.431.901 2.306 2.73l1.855 4.001c.716 1.458 1.776 2.173 3.206 2.173 2.305 0 4.372-1.272 6.174-3.843 1.643-2.305 2.438-4.638 2.438-7.023-.106-2.782-1.06-5.38-2.968-7.764zM34.156 9.59l-.53.424c-1.776 1.352-2.809 2.703-3.154 4.055v.662h7.394l.344-3.207h-.874c-.212 1.325-.716 1.987-1.511 1.987h-4.001c.318-1.033 1.14-1.934 2.412-2.677l.636-.344c1.113-.61 1.881-1.14 2.305-1.564.53-.53.795-1.245.795-2.093 0-1.113-.503-1.987-1.484-2.57a4.89 4.89 0 0 0-2.2-.503c-1.113 0-2.041.318-2.703.954-.556.556-.848 1.166-.848 1.882 0 .848.371 1.272 1.139 1.272.662 0 .981-.318.981-.928 0-.583-.265-.901-.769-.954.318-.822 1.007-1.219 2.093-1.219 1.404 0 2.094.662 2.094 1.961.053.822-.663 1.776-2.12 2.862z" fill="#b32"/><path d="M24.51 46.345c-.583 1.299-1.139 1.961-1.669 1.961-.318 0-.477-.159-.477-.477 0-.397.345-.901 1.007-1.431.689-.556 1.007-1.192 1.007-1.935 0-.371-.133-.742-.371-1.139s-.663-.715-1.246-.954c.371.027.716-.079 1.06-.265.398-.265.609-.556.609-.928 0-.477-.291-1.166-.874-2.12s-.556-1.484.079-1.59c-.106-.186-.291-.345-.556-.504-.45-.212-.821-.026-1.113.53 0-.026-.106.106-.159.186.026-.053.053-.08.106-.133-.106.133-.159.292-.265.424-.239.53-.609 1.007-1.192 1.113v.079h-1.457v-.053c-.053 0-.133-.026-.186-.026-.265-.053-.477-.212-.663-.398-.159-.132-.318-.318-.398-.53-.053-.106-.079-.212-.106-.292l-.079-.159c-.053-.079-.079-.132-.106-.212-.291-.556-.663-.715-1.087-.503a1.74 1.74 0 0 0-.556.503c.636.106.662.663.079 1.59-.583.954-.875 1.669-.875 2.12 0 .371.212.689.61.928.318.185.689.291 1.06.265-.583.238-1.007.556-1.245.954s-.371.768-.371 1.139c0 .742.345 1.378 1.007 1.934.689.556 1.007 1.034 1.007 1.431 0 .318-.159.477-.477.477-.53 0-1.086-.662-1.669-1.961-.477-1.087-.874-2.544-1.193-4.373l-.503 2.73c0 1.298.265 2.491.795 3.604.689 1.458 1.643 2.173 2.889 2.173.874 0 1.802-.371 2.756-1.113.981.742 1.881 1.113 2.756 1.113 1.245 0 2.199-.715 2.889-2.173.53-1.113.795-2.305.795-3.604 0-.477-.159-1.378-.504-2.73-.239 1.802-.636 3.26-1.113 4.346zm-2.57-5.459c.079-.477.026-1.166-.106-2.04.477.848.716 1.59.716 2.2.344-.053.477-.318.344-.822l-.265-.901-.239-.636c-.079-.238-.079-.424.026-.61.795 1.643 1.192 2.623 1.166 2.995-.026.318-.212.53-.556.689-.318.132-.795.159-1.404.053.129-.301.236-.611.318-.928zm-5.459.901a.87.87 0 0 1-.556-.689c-.026-.371.371-1.378 1.166-2.994.106.185.106.371.026.609-.053.106-.133.318-.239.636-.106.292-.212.609-.265.901-.106.477 0 .769.345.822.026-.609.265-1.352.715-2.2-.159.875-.185 1.564-.106 2.041.026.238.133.556.318.954-.609.079-1.06.079-1.404-.08zm5.91 7.923c-.901.026-1.776-.53-2.65-1.669-.874 1.113-1.749 1.669-2.65 1.669-.875-.026-1.537-.53-1.988-1.458.504.53 1.007.795 1.537.795.901 0 1.378-.318 1.378-.981 0-.609-.318-1.246-.954-1.908s-.954-1.219-.954-1.669c0-.477.318-.954.928-1.431a3.34 3.34 0 0 1 2.094-.715c-.371-.212-.636-.53-.795-.981-.212-.662-.186-1.139.053-1.431.265 1.643.663 2.438 1.166 2.385-.265-.742-.424-1.563-.503-2.491h1.351c-.053.928-.212 1.775-.504 2.491.504.053.901-.742 1.166-2.385.265.292.265.768.053 1.431-.159.451-.424.768-.795.981a3.69 3.69 0 0 1 2.094.715c.609.477.927.954.927 1.431 0 .45-.318 1.007-.954 1.669s-.954 1.298-.954 1.908c0 .662.451.981 1.378.981.53 0 1.034-.265 1.537-.795-.424.928-1.087 1.404-1.961 1.458z" fill="#084"/></svg>