<svg xmlns="http://www.w3.org/2000/svg" width="150" height="200" viewBox="0 0 39.7 52.9"><path d="M2.88 6.16l.133.026.239.133c.08.053.159.053.239.053.239 0 1.166-.292 2.279-.716-.133-1.06-.133-1.087-.689-1.59-.159-.186-.239-.292-.239-.477l.053-.08.318-.053c.45 0 1.06.159 1.325.345s.424.397.424.53l-.026.636c0 .08.026.186.053.398l.61-.133.874-.159c1.007-.132 1.219-.185 1.352-.318.159-.185.318-.795.318-1.192 0-.132-.053-.344-.133-.556-.185-.504-.185-.53-.185-.742l.026-.053c.053-.027.106-.027.106-.027.133 0 1.087.318 1.325.451.424.212.636.424.636.636a.61.61 0 0 1-.08.238l-.424.98c1.245-.238 1.696-.318 2.305-.318.795 0 1.431.345 1.431.795 0 .239-.212.345-.874.451l-3.339.318-.318.45c-.318.504-.398.557-.848.98l.875.265c.159-.053.291-.106.318-.132l.424-.292c.318-.212 1.563-.53 2.04-.53.715 0 1.696.742 1.696 1.298 0 .079-.053.238-.106.477-.133.424-.239 1.06-.239 1.802s.026.768.212 4.213l.186 2.835c0 1.511-.53 3.18-1.007 3.18-.133 0-.265-.106-.53-.424-.424-.477-.53-.609-.848-.874l-1.166-1.087.026-.079.689.132c.345.08.663.133.848.133.477 0 .609-.424.609-1.828l-.212-5.353c-1.14.292-1.193.292-2.12.318-.663.053-.795.08-.901.318.371.239.53.398.53.477 0 .106-.133.212-.318.265-.053.027-.053.027-.53.08-.212.026-.318.053-.636.185v.398l1.564-.318c.53 0 1.272.424 1.272.715 0 .132 0 .132-.291.609l-.583 1.352c-.053.053-.185.159-.239.159l-.795-.053c-.026 0-.133.026-.239.053a3.6 3.6 0 0 1-.663.185c-.053.424-.053.822-.053.98-.026 1.352-.053 1.67-.318 2.12-.08.133-.133.212-.212.212-.106 0-.159-.079-.424-.424-.159-.212-.53-.609-1.007-1.166l.053-.053a2.96 2.96 0 0 0 .61.08c.291 0 .291 0 .344-1.457-.609.132-.662.132-1.219.45-.133.053-.239.106-.291.106-.185 0-.45-.238-.556-.45-.239-.53-.45-1.511-.45-1.882 0-.159.053-.265.185-.424h.053c.133.239.185.292.318.477.795-.583.848-.609 2.014-1.033v-.397c-.424.132-.53.132-.874.318-.159.053-.265.106-.345.106-.159 0-.318-.106-.742-.477l-.026-.053.239-.186 1.034-.371a5.24 5.24 0 0 0 .689-.265c-.133-.318-.159-.318-.424-.53a.68.68 0 0 0-.345.212c-.08.398-.159.451-.61.451l-.98.795c-.239.159-.424.265-.583.265s-.45-.239-.663-.504c-.106-.132-.185-.238-.238-.238s-.106.159-.106.371c.026.212 0 .609-.053 1.219-.053.477-.053.875-.053 1.166v2.862c0 .848-.133 1.378-.318 1.378-.371 0-.795-1.272-.795-2.385 0-.318.026-.715.08-1.219l.239-3.525-.053-1.272-.053-.822c0-.451.106-.689.477-1.007l.053-.026c.026.053.053.106.053.132.026.132.053.159.133.159.053 0 .106-.053.159-.132.345-.53.345-.53 1.033-.822 1.219-.53 1.405-.583 1.749-.583.556 0 1.06.371 1.06.795 0 .212 0 .212-.239.848-.08.212-.133.556-.133 1.166l.053.053c.239-.133.45-.292.53-.345l.371-.265c.026 0 .053-.026.133-.053-.053.318-.053.345-.424.848-.053.08-.106.133-.106.159 0 .106.026.106.583.265.239.053.345.159.556.451h.424c-.265-.583-.371-.954-.371-1.325V8.651c0-.768-.239-1.219-.663-1.219-.133 0-.239.053-.398.106-.239.08-.424.133-.53.133-.026 0-.053 0-.133-.027l-.026-.106c1.086-.822 1.272-1.06 1.484-1.828-.477-.106-.583-.106-.769-.106-.239 0-.398.053-.821.318l-.954.583c-.133.901-.239 1.087-.45 1.087-.159 0-.318-.159-.556-.662-.53.132-.556.132-1.775.715-.265.133-.53.212-.663.212-.371 0-.848-.768-.848-1.352 0-.053.026-.159.053-.292zm4.108 4.452l-.901.53c-.424.292-.477.292-.954.398l-.026-.106c.398-.318.53-.504.53-.663 0-.132-.106-.291-.265-.424l-.503-.371.026-.053c.238-.132.609-.212 1.219-.212.371 0 .53.053.848.371l.053-.53c0-.556-.053-.715-.265-.715-.106 0-.371.079-.742.265-.159.053-.291.106-.318.132l-.61.053c-.239.027-.371.318-.371.716 0 .106 0 .106.08 1.007l.08.901c.08.133.212.212.371.212.53 0 .901-.159 1.749-.768zm-.689 5.91c.318.45.45.609.53.609s.53-.212.742-.318l.026.106c-.053.106-.08.159-.106.186l-.398.715c-.291.583-.318.609-.424.609-.026 0-.026 0-.371-.344-.239-.238-.291-.397-.291-.715 0-.239.053-.424.185-.742zm1.67-2.305c-.133.053-.291.079-.477.132-.345.053-.504.212-.504.53 0 .45.185.874.398.874a5.4 5.4 0 0 0 1.034-.265c.238-.106.291-.212.291-.503-.239.133-.424.186-.53.186-.133 0-.212-.053-.556-.212-.133-.053-.133-.053-.159-.159l.026-.08a10.68 10.68 0 0 0 1.245-.424v-.265c-.133.027-.239.027-.239.053zm1.722.901l.636-.132c.318-.053.45-.132.53-.291a2.94 2.94 0 0 0 .291-.901c0-.159-.159-.318-.345-.318-.106 0-.265.026-.45.079-.133.053-.371.106-.689.159l.053.318c.08-.026.185-.026.239-.053.133-.053.239-.053.265-.053.239 0 .424.212.424.424 0 .133-.053.212-.133.239-.053.026-.053.026-.424.026-.133 0-.185.027-.424.08zm.61.769h.265c.212 0 .742.132 1.14.265s.636.53.636.954c0 .238-.159.45-.371.45-.239 0-.424-.132-.928-.689l-.265-.318-.583-.636zm3.26-6.493c0-.079-.026-.106-.053-.106-.053 0-.106.027-.159.053-.159.053-1.405.212-1.669.212-.159 0-.398-.026-.742-.053-.053.424-.053.504-.053 1.007.636-.026.636-.026 1.457-.159.239-.053.398-.053.53-.053.053 0 .291.027.742.053l-.053-.662c-.026-.08-.026-.186 0-.292zm-2.597-.609l.769-.106a5.1 5.1 0 0 1 1.007-.133c.185 0 .424.053.795.239v-.61c0-.424-.133-.609-.45-.609a2.75 2.75 0 0 0-.61.08c-.318.079-.53.132-.689.132h-.45c-.106 0-.185.027-.318.08v.106l-.053.716z" fill="#339"/><path d="M34.256 8.81l-.53.424c-1.776 1.352-2.809 2.703-3.154 4.055v.663h7.393l.345-3.207h-.874c-.212 1.325-.715 1.987-1.511 1.987h-4.002c.318-1.033 1.14-1.934 2.412-2.677l.636-.345c1.113-.609 1.881-1.139 2.306-1.563.53-.53.795-1.245.795-2.093 0-1.113-.503-1.987-1.484-2.57a4.89 4.89 0 0 0-2.2-.504c-1.113 0-2.04.318-2.703.954-.556.557-.848 1.166-.848 1.882 0 .848.371 1.272 1.139 1.272.662 0 .981-.318.981-.927 0-.583-.265-.901-.769-.954.318-.822 1.007-1.219 2.093-1.219 1.405 0 2.093.663 2.093 1.961.053.822-.662 1.775-2.12 2.862z" fill="#b32"/><path d="M35.952 38.49l-2.332-1.14-2.809-1.272.583-1.643.45-1.404.398-1.325.027.027c-.212-.292-.292-.689-.239-1.06a1.15 1.15 0 0 1-.742.344l.053.053-.344 1.404-.451 1.484-.583 1.802-2.252-.848-2.226-.689.556-3.365.318-2.358.239-3.895.053-3.498-.026-1.961a4.1 4.1 0 0 0-1.033-2.597c-.133-.079-.212-.212-.291-.318-.133.159-.291.318-.504.398l.026.026.053.186c.026.053.026.132.053.212a4.35 4.35 0 0 1 .079.291l.265 1.511c.106.636.186 1.431.239 2.358l.106 3.18-.159 3.975c-.053.822-.159 1.696-.318 2.65l-.477 3.021c-.133-.053-.291-.08-.53-.133l-.663-.132-.609-.08c-.186-.026-.344-.026-.451-.026-.186-.345-.424-.663-.663-.981s-.503-.636-.795-.927l-.344-2.147-.318-1.828-.318-1.723c-.235-.132-.421-.337-.53-.583a1.13 1.13 0 0 1-.53.371l.053.027.318 1.431.345 1.59.371 1.961c-.795-.715-1.669-1.352-2.597-1.987l-2.968-1.696-3.127-1.431-3.048-1.14c-2.279-.795-4.637-1.431-7.049-1.961.477.716 1.033 1.378 1.643 2.041a20.8 20.8 0 0 0 1.882 1.749c.715.61 1.537 1.14 2.438 1.564.398.185.928.371 1.59.556l4.611 1.245c.874.239 1.723.53 2.571.848a18.17 18.17 0 0 1 2.411 1.113c.768.424 1.457.927 2.041 1.51 0 .08 0 .159.026.239s.026.132.026.212c-1.139.185-1.988.636-2.544 1.404s-.927 1.696-1.113 2.756-.212 2.226-.053 3.471l.556 3.578 1.034 3.843.822 2.305h-.371l-1.034-1.192-1.564-1.908-1.669-2.147c-.556-.715-.98-1.378-1.298-1.961-.371-.636-.742-1.378-1.113-2.2a27.01 27.01 0 0 1-.927-2.358l-.875-2.624-.822-.291.875 2.623.928 2.412 1.113 2.411c.318.636.742 1.325 1.246 2.041l1.537 2.093 1.458 1.829 1.06 1.219h4.796l1.378-2.067 1.59-2.491 1.564-2.517 1.299-2.252.822-1.67.795-1.961.61.292c.186.079.345.159.503.185.716.265 1.484.451 2.279.609l2.253.345 2.411.185c-.556-.424-1.272-.821-2.041-1.192zM20.82 41.326l-.212 3.869-.239 3.445-.186 2.279-.769-2.173c-.344-1.034-.662-2.252-.954-3.604l-.371-1.961-.239-2.173c-.053-.742-.026-1.458.026-2.147s.186-1.325.398-1.881a3.88 3.88 0 0 1 .901-1.405c.397-.371.901-.609 1.511-.689l.133 1.431.053 1.378-.053 3.63zm3.63-5.751l-.318 1.67-.344 1.669c0-.503-.053-1.007-.106-1.51-.053-.477-.133-.981-.239-1.431-.026-.133-.053-.265-.106-.397s-.079-.265-.133-.398l1.246.398zm-1.722 5.645c-.026.821-.106 1.669-.212 2.491l-.318 2.358-.371 1.511-.344 1.351.133-2.677.106-2.994.053-2.942-.026-2.57-.079-1.378-.159-1.537.345.026c.265.504.477 1.033.583 1.563a15.12 15.12 0 0 1 .318 2.305zm5.777-1.723l-.874 1.723-1.06 1.722-1.219 1.828-1.272 1.855-1.219 1.722c.026-.212.079-.504.186-.848l.265-1.113.239-1.139.212-.98.398-2.147 1.14-6.254 2.094.874 1.908.875c-.239.662-.504 1.272-.795 1.881z" fill="#084"/><path d="M33.355 25.505l-.503 1.139a7.26 7.26 0 0 0-.398 1.06l-.318.98-.318 1.034c-.159-.186-.344-.371-.557-.583l-.662-.53-.901-.609c-.265-.159-.556-.292-.874-.424l-.954-.345-1.06-.291 4.584 4.187c-.053.212.875.768.901.662l5.538 3.127c-.212-.424-.45-.848-.715-1.245l-.795-1.113c-.291-.371-.609-.716-.98-1.007-.344-.238-.636-.424-.928-.556s-.53-.239-.768-.292l-.556-.132c-.133-.027-.239-.027-.265-.027h-.027a6.53 6.53 0 0 0 .769-.901c.212-.265.424-.609.609-.98s.345-.795.477-1.219c.053-.185.106-.53.106-1.033l.027-1.564-.027-2.014-.768 1.404zm-7.632-7.552c.265-.08.239-.318.239-.318l8.931.185-2.093-.98-1.802-.716c-.61-.212-1.14-.318-1.563-.344a7.34 7.34 0 0 0-1.749.132l-1.166.292-.265.079.715-1.272.53-1.219a3.9 3.9 0 0 0 .318-1.272 5 5 0 0 0-.079-1.537 9.25 9.25 0 0 0-.398-1.431 11.45 11.45 0 0 0-.636-1.404L25.91 9.95l-.583 1.537c-.186.53-.291.954-.318 1.298a6.85 6.85 0 0 0-.026 1.272l.079 1.139.186 1.139-1.192-.556-1.245-.477c-.477-.159-.954-.292-1.458-.371s-1.007-.132-1.511-.106c-.503 0-.954.053-1.351.106a7.41 7.41 0 0 0-1.325.291l8.109 2.783c.053-.027.345-.027.451-.053zm-5.645 8.109l4.903.371a4.45 4.45 0 0 0-.715-.901c-.239-.238-.504-.45-.848-.689-.318-.212-.689-.398-1.086-.504a7.26 7.26 0 0 0-1.537-.185c-.186 0-.344 0-.451.026-.133 0-.239.027-.344.053s-.186.053-.265.053l.133-1.431.026-1.404c0-.503-.026-1.007-.106-1.51-.106-.477-.239-.928-.371-1.298l-.397-1.034a9.3 9.3 0 0 0-.477-.901l-.345 1.484c-.082.447-.135.898-.159 1.352a5.31 5.31 0 0 0 0 1.298l.186 1.192.212 1.06.186.795c.026.106.053.212.106.318-.344-.159-.716-.292-1.06-.424-.291-.106-.61-.212-.954-.292l-.901-.185c-.159-.027-.318-.027-.477-.027h-.477l-.981.027-.768.106-.663.132 6.625 2.305c.053.027 1.034.345 1.007.212zM9.743 37.006l-6.201 1.166c.106-.318.954-1.192 1.166-1.484.159-.238.848-.795 1.139-.98.371-.212.769-.318 1.166-.424.583-.133 1.06-.185 1.484-.185.185 0 .344 0 .477.026.133 0 .239.027.345.053s.185.053.265.053L9.081 33.8l-.398-1.404a10.12 10.12 0 0 1-.291-1.51 10.37 10.37 0 0 1 .026-1.299l.133-1.033a4.05 4.05 0 0 1 .238-.901l.715 1.484.53 1.352c.159.477.291.901.345 1.299l.133 1.192.053 1.06.026.795c0 .106 0 .212-.026.318l.954-.424a6.76 6.76 0 0 1 .874-.292c.318-.079.583-.159.848-.185.159-.027.318-.027.477-.027h.477l.98.027.795.106.689.132-6.015 2.305c.026.027-.875.345-.901.212z" fill="#b32"/></svg>