<svg xmlns="http://www.w3.org/2000/svg" width="150" height="200" viewBox="0 0 39.7 52.9"><path d="M3.545 6.16l.133.026.239.133c.08.053.159.053.239.053.239 0 1.166-.292 2.279-.716-.133-1.06-.133-1.087-.689-1.59-.159-.186-.239-.292-.239-.477l.053-.08.318-.053c.45 0 1.06.159 1.325.345s.424.397.424.53l-.026.636c0 .08.026.186.053.398l.61-.133.874-.159c1.007-.132 1.219-.185 1.352-.318.159-.185.318-.795.318-1.192 0-.132-.053-.344-.133-.556-.185-.504-.185-.53-.185-.742l.026-.053c.053-.027.106-.027.106-.027.133 0 1.087.318 1.325.451.424.212.636.424.636.636a.61.61 0 0 1-.08.238l-.424.98c1.245-.238 1.696-.318 2.305-.318.795 0 1.431.345 1.431.795 0 .239-.212.345-.874.451l-3.339.318-.318.45c-.318.504-.398.557-.848.98l.875.265c.159-.053.291-.106.318-.132l.424-.292c.318-.212 1.563-.53 2.04-.53.716 0 1.696.742 1.696 1.298 0 .079-.053.238-.106.477-.133.424-.239 1.06-.239 1.802s.026.768.212 4.213l.185 2.835c0 1.511-.53 3.18-1.007 3.18-.133 0-.265-.106-.53-.424-.424-.477-.53-.609-.848-.874l-1.166-1.087.026-.079.689.132c.345.08.663.133.848.133.477 0 .609-.424.609-1.828l-.212-5.353c-1.14.292-1.193.292-2.12.318-.663.053-.795.08-.901.318.371.239.53.398.53.477 0 .106-.133.212-.318.265-.053.027-.053.027-.53.08-.212.026-.318.053-.636.185v.398l1.564-.318c.53 0 1.272.424 1.272.715 0 .132 0 .132-.291.609l-.583 1.352c-.053.053-.185.159-.239.159l-.795-.053c-.026 0-.133.026-.239.053a3.6 3.6 0 0 1-.663.185c-.053.424-.053.822-.053.98-.026 1.352-.053 1.67-.318 2.12-.08.133-.133.212-.212.212-.106 0-.159-.079-.424-.424-.159-.212-.53-.609-1.007-1.166l.053-.053a2.96 2.96 0 0 0 .61.08c.291 0 .291 0 .344-1.457-.609.132-.662.132-1.219.45-.133.053-.239.106-.291.106-.185 0-.45-.238-.556-.45-.239-.53-.45-1.511-.45-1.882 0-.159.053-.265.185-.424h.053c.133.239.185.292.318.477.795-.583.848-.609 2.014-1.033v-.397c-.424.132-.53.132-.874.318-.159.053-.265.106-.345.106-.159 0-.318-.106-.742-.477l-.026-.053.239-.186 1.034-.371a5.24 5.24 0 0 0 .689-.265c-.133-.318-.159-.318-.424-.53a.68.68 0 0 0-.345.212c-.08.398-.159.451-.61.451l-.98.795c-.239.159-.424.265-.583.265s-.45-.239-.663-.504c-.106-.132-.185-.238-.238-.238s-.106.159-.106.371c.026.212 0 .609-.053 1.219-.053.477-.053.875-.053 1.166v2.862c0 .848-.133 1.378-.318 1.378-.371 0-.795-1.272-.795-2.385 0-.318.026-.715.08-1.219l.239-3.525-.053-1.272-.053-.822c0-.451.106-.689.477-1.007l.053-.026c.026.053.053.106.053.132.026.132.053.159.133.159.053 0 .106-.053.159-.132.345-.53.345-.53 1.033-.822 1.219-.53 1.405-.583 1.749-.583.556 0 1.06.371 1.06.795 0 .212 0 .212-.239.848-.08.212-.133.556-.133 1.166l.053.053c.239-.133.45-.292.53-.345l.371-.265c.026 0 .053-.026.133-.053-.053.318-.053.345-.424.848-.053.08-.106.133-.106.159 0 .106.026.106.583.265.239.053.345.159.556.451h.424c-.265-.583-.371-.954-.371-1.325V8.651c0-.768-.239-1.219-.663-1.219-.133 0-.239.053-.398.106-.239.08-.424.133-.53.133-.026 0-.053 0-.133-.027l-.026-.106c1.086-.822 1.272-1.06 1.484-1.828-.477-.106-.583-.106-.769-.106-.239 0-.398.053-.821.318l-.954.583c-.133.901-.239 1.087-.45 1.087-.159 0-.318-.159-.556-.662-.53.132-.556.132-1.775.715-.265.133-.53.212-.663.212-.371 0-.848-.768-.848-1.352 0-.053.026-.159.053-.292zm4.108 4.452l-.901.53c-.424.292-.477.292-.954.398l-.026-.106c.398-.318.53-.504.53-.663 0-.132-.106-.291-.265-.424l-.504-.371.026-.053c.239-.132.61-.212 1.219-.212.371 0 .53.053.848.371l.053-.53c0-.556-.053-.715-.265-.715-.106 0-.371.079-.742.265-.159.053-.291.106-.318.132l-.61.053c-.239.027-.371.318-.371.716 0 .106 0 .106.08 1.007l.08.901c.08.133.212.212.371.212.53 0 .901-.159 1.749-.768zm-.689 5.91c.318.45.45.609.53.609s.53-.212.742-.318l.026.106c-.053.106-.08.159-.106.186l-.398.715c-.291.583-.318.609-.424.609-.026 0-.026 0-.371-.344-.239-.238-.291-.397-.291-.715 0-.239.053-.424.185-.742zm1.67-2.305c-.133.053-.291.079-.477.132-.345.053-.504.212-.504.53 0 .45.185.874.398.874a5.4 5.4 0 0 0 1.033-.265c.239-.106.291-.212.291-.503-.239.133-.424.186-.53.186-.132 0-.212-.053-.556-.212-.133-.053-.133-.053-.159-.159l.026-.08a10.68 10.68 0 0 0 1.245-.424v-.265c-.133.027-.239.027-.239.053zm1.722.901l.636-.132c.318-.053.45-.132.53-.291a2.94 2.94 0 0 0 .291-.901c0-.159-.159-.318-.345-.318-.106 0-.265.026-.45.079-.133.053-.371.106-.689.159l.053.318c.08-.026.185-.026.239-.053.133-.053.239-.053.265-.053.239 0 .424.212.424.424 0 .133-.053.212-.133.239-.053.026-.053.026-.424.026-.133 0-.185.027-.424.08zm.61.769h.265c.212 0 .742.132 1.14.265s.636.53.636.954c0 .238-.159.45-.371.45-.238 0-.424-.132-.927-.689l-.265-.318-.583-.636zm3.259-6.493c0-.079-.026-.106-.053-.106-.053 0-.106.027-.159.053-.159.053-1.405.212-1.67.212-.159 0-.397-.026-.742-.053-.053.424-.053.504-.053 1.007.636-.026.636-.026 1.457-.159.239-.053.398-.053.53-.053.053 0 .291.027.742.053l-.053-.662c-.026-.08-.026-.186 0-.292zm-2.597-.609l.769-.106a5.1 5.1 0 0 1 1.007-.133c.185 0 .424.053.795.239v-.61c0-.424-.133-.609-.45-.609a2.75 2.75 0 0 0-.61.08c-.318.079-.53.132-.689.132H12c-.106 0-.185.027-.318.08v.106l-.053.716z" fill="#339"/><path d="M34.656 8.81l-.53.424c-1.776 1.352-2.809 2.703-3.154 4.055v.663h7.394l.344-3.207h-.874c-.212 1.325-.716 1.987-1.511 1.987h-4.001c.318-1.033 1.139-1.934 2.411-2.677l.636-.345c1.113-.609 1.881-1.139 2.305-1.563.53-.53.795-1.245.795-2.093 0-1.113-.503-1.987-1.484-2.57a4.89 4.89 0 0 0-2.2-.504c-1.113 0-2.041.318-2.703.954-.557.557-.848 1.166-.848 1.882 0 .848.371 1.272 1.14 1.272.662 0 .98-.318.98-.927 0-.583-.265-.901-.769-.954.318-.822 1.007-1.219 2.093-1.219 1.404 0 2.094.663 2.094 1.961.053.822-.663 1.775-2.12 2.862z" fill="#b32"/><path d="M35.424 41.14c-.689.689-1.776 1.458-3.26 2.305l-.106.159c.133 0 .291-.053.477-.159 2.173-.397 3.79-1.219 4.823-2.411.53-.556.901-1.087 1.113-1.59l.133-.504.08-.398v-.265c0-.079-.026-.212-.08-.398l-.079-.318v-.557c0-.291-.08-.556-.265-.768-.742-.928-1.696-1.537-2.836-1.882-.583-.106-1.033-.159-1.404-.159-.795 0-1.617.132-2.517.397-1.564.583-3.392 1.802-5.459 3.683-1.961 1.935-3.18 3.843-3.631 5.724l-1.139 3.896c-.398 1.802-.344 2.252-.133 3.418l2.12-5.538c.901-2.014 1.458-3.26 2.173-4.134l1.564-1.59c1.166-1.113 2.412-2.014 3.684-2.756 1.166-.636 2.146-.928 2.889-.928h.212c.795 0 1.404.292 1.828.875.079.026.133.159.212.318l.159.397c.239.398.371.636.371.716v.397c.026.716-.292 1.405-.928 2.067z" fill="#084"/><path d="M8.58 45.38c.053-.026.159-.026.291-.026h.265c.106 0 .239-.027.345-.106l.239-.053c.371-.265.583-.556.583-.875 0-.238-.133-.477-.398-.742-.185-.265-.45-.53-.795-.795l-.185-.053c-.106-.026-.185-.106-.185-.185 0-.026.026-.079.106-.132l.291-.212.239-.185.742-.398c0-.079-.106-.106-.345-.106-.026 0-.159 0-.345-.026s-.345-.026-.424-.026c-.106 0-.212.026-.371.053h-.291c-.689.238-1.034.636-1.034 1.219 0 .398.291.768.848 1.113.133.106.185.159.185.185-.026.08-.133.133-.291.133-.159.026-.265.026-.345.026-.424.238-.636.662-.636 1.272 0 .079.026.185.08.344s.08.292.08.398c0 .026-.053.106-.185.238-.029.028-.066.046-.106.053a1.55 1.55 0 0 1-.344-.053l-.239-.106c-.424-.238-.689-.53-.795-.874-.106-.08-.185-.345-.185-.795v-.238c.159-.504.556-1.139 1.219-1.908.159-.106.291-.318.398-.636l1.034-1.087c0-.08-.185-.106-.583-.106-.742 0-1.219.185-1.484.583-.239.238-.345.53-.345.874s.133.53.398.583l.106.053H5.93c-.026.106-.185.238-.397.345-.371.371-.663.583-.795.583-.08 0-.185-.026-.291-.053s-.185-.053-.239-.053c-.424 0-.689-.026-.795-.053.265-.265.398-.451.398-.583.08-.185.106-.318.106-.398 0-.185-.106-.45-.291-.795-.318-.345-.583-.583-.875-.689l-.106-.053.53-.291.398-.239a1.35 1.35 0 0 1 .689.186c.026 0 .106 0 .239.026a1.29 1.29 0 0 0 .318.026c.106 0 .239 0 .45-.026s.424-.026.609-.026l.689-.053c0-.08-.026-.106-.053-.106-1.616-.345-2.623-.795-3.047-1.325-.265-.265-.398-.53-.398-.795 0-.106.026-.318.106-.609a2.55 2.55 0 0 0 .106-.663v-.186l-.053-.291h.053c.106 0 .318.026.636.106l.53.106c.769.265 1.351.583 1.722.927l.239.292v-.185c-.424-1.113-1.139-1.882-2.2-2.306-.53-.238-.98-.344-1.299-.344s-.556.212-.663.636c.001.119.028.237.08.345a.61.61 0 0 1 .08.238c0 .186-.106.477-.344.875-.239.371-.345.716-.345.98 0 .345.08.689.239 1.034.026.079.133.185.265.318l.318.318h-.106c-.106.026-.212.079-.318.079-.106.026-.159.026-.212.026-.61.265-.928.583-.98.928v.106c.159.371.291.583.398.636.026.079.185.185.398.291l.291.106c-.318.769-.45 1.325-.45 1.67 0 .159.053.397.185.742.159.185.503.371 1.033.53.159 0 .424-.079.822-.238s.636-.238.715-.238v.344l-.053.106v.185c0 .742.318 1.352.98 1.908.185.238.344.371.45.398.345.265.822.397 1.405.397s.98-.238 1.193-.689c.185-.238.291-.609.291-1.139l-.106-.238v-.292c.026-.132.053-.212.106-.238z" fill="#b27"/><path d="M30.204 43.26a9.82 9.82 0 0 0-1.086-.053c-.795 0-1.431.106-1.908.292-2.306 1.087-3.736 3.524-4.319 7.261 1.564-2.411 3.445-4.399 5.591-5.962.875-.61 1.669-1.007 2.359-1.246h.053l-.106-.053a1.84 1.84 0 0 1-.344-.132c-.133-.079-.212-.106-.239-.106zM20.187 12.785c-.371 0-.927.106-1.669.344l-.662.133-.61.079-.344.186h.106c1.034.238 1.881.662 2.544 1.272 1.113.848 1.696 1.749 1.776 2.703.079.159.106.371.106.636 0 .609-.371 1.537-1.087 2.756-.503.795-.795 1.59-.927 2.358-.265.848-.398 1.935-.398 3.286 0 .875.106 1.802.291 2.756.504-2.147 1.086-4.028 1.776-5.645l.795-1.669c.079-.08.212-.212.424-.371.212-.186.345-.318.371-.424 1.219-1.113 1.855-2.305 1.855-3.578 0-1.563-.53-2.835-1.616-3.79-.875-.689-1.723-1.033-2.544-1.033zm6.281 10.097a18.77 18.77 0 0 1-2.809 3.578c-.927 1.087-1.723 2.412-2.411 3.975-.954 2.12-1.988 4.77-2.783 8.957-.106.239-.424 3.684-.424 3.869.106 0 .503-1.458.954-2.782 1.166-3.657 2.2-5.538 4.055-9.461.795-1.484 1.245-2.252 1.325-2.305.186-.265.504-.583.927-.98.424-.371.716-.663.875-.795 2.305-2.252 3.684-4.425 4.134-6.493.239-.662.345-1.643.345-2.995-.186-1.908-.848-3.683-1.961-5.3-1.033-1.352-2.305-2.412-3.79-3.233-1.802-.927-3.551-1.59-5.247-2.014l1.829 1.431c.424.265 1.034.742 1.828 1.431l1.564 1.617c1.351 1.113 2.226 2.358 2.65 3.737.079.238.186 1.139.291 2.756v.398c-.026 1.537-.451 3.074-1.351 4.611zM22.97 39.074c.795-1.219 1.564-2.067 2.252-2.544.186-.106.477-.318.822-.583.371-.265.636-.45.821-.53l1.616-1.219c3.578-2.597 6.095-4.876 7.605-6.784.689-.928 1.06-1.484 1.087-1.67.583-1.192.928-2.517 1.034-3.975v-.53c0-2.093-.742-4.213-2.252-6.387.53 1.378.822 2.809.822 4.293a20.71 20.71 0 0 1-.053 1.484c-.265 2.04-.874 3.71-1.776 5.008-.742 1.087-1.855 2.253-3.339 3.498-.768.742-3.366 2.677-7.764 5.883-.53.424-1.086 1.007-1.669 1.722-1.802 2.2-2.835 4.558-3.101 7.075-.106.848-.186 1.431-.186 1.776 0 1.272.239 2.729.742 4.373.026-4.187 1.139-7.844 3.339-10.892z" fill="#084"/><path d="M13.88 30.01l-.371.451-.053.238c0 .08.026.106.053.106.106 0 .239-.053.345-.185.026 0 .185-.053.398-.186a1.52 1.52 0 0 0 .689-1.325c0-.213-.018-.426-.053-.636-.265-.53-.53-.875-.795-1.034-.026 0-.106-.026-.212-.053s-.159-.079-.212-.106c-.106-.106-.212-.318-.318-.609s-.185-.477-.265-.61c-.08.345-.106.583-.106.742 0 .345.185.716.583 1.087.371.371.583.795.583 1.272 0 .239-.026.371-.053.451-.026.132-.08.238-.212.397z" fill="#b27"/><path d="M11.23 48.56c.345.292.795.53 1.325.742.875.424 1.855.742 2.942.981 1.086.212 2.067.292 2.941.265l-1.749-.689-2.12-.874-1.749-.848-1.855-1.034a13.99 13.99 0 0 1-1.537-1.113l-.133-.133c-.212-.212-.345-.318-.371-.318-.159.292-.08.663.239 1.139l.08.106c.45.662 1.113 1.246 1.988 1.776zm4.796-11.263l-.106-1.299-.106.027c-.477.715-.795 1.298-.901 1.749-.186.795-.133 2.093.212 3.843.398 2.093 1.219 4.081 2.491 6.016.106.132.186.212.239.265.026.026.026.053.026.079-.398-1.139-.769-2.597-1.087-4.373l-.689-4.796-.079-1.511zm-4.452 1.616l-.053.027c-.318 1.06-.159 2.385.424 3.948l.159.371c.689 1.696 1.564 3.074 2.571 4.054.239.292 1.166.954 2.783 1.988l-3.207-4.664c-.265-.477-1.166-2.385-2.676-5.724z" fill="#084"/><path d="M19.71 32.13c.079-.186.106-.371.106-.53 0-.795-.239-1.352-.742-1.617a1.04 1.04 0 0 0-.344-.053c-.026 0-.106 0-.212.026s-.159.027-.212.027h-.185c-.265 0-.504-.053-.689-.186h-.795c-1.484.106-2.888.875-4.213 2.305 1.14-.689 2.465-1.033 3.975-1.033.026 0 .159.027.371.053l.477.053c.583 0 .928.08 1.086.239 0 .265-.026.45-.053.53-.159.345-.291.557-.398.636-.583.689-1.087 1.14-1.484 1.378-.53.265-1.299.398-2.253.398-.583 0-1.219-.053-1.961-.186l.238.186c.159.026.239.106.239.185h-.239c-.026.027.026.212.185.53l.291.53c.08.026.106.132.106.291l.053.239-.053.185c-.08.027-.106.106-.106.186s-.08.106-.239.106h-.689a1.13 1.13 0 0 0-.98.53c-.026.026-.106.106-.185.238-.08.159-.159.239-.239.239h-.239c-.106-.027-.185-.053-.239-.053l-.636.026c-.265.027-.53.027-.742.027l-.291-.053c.609-.424.98-.769 1.086-1.034l.185-.185c.265.185.477.291.636.291.265 0 .504-.318.689-.927.08-.106.185-.318.291-.583l.053-.106.239-.344-.398-.186c-.45 0-.875.239-1.272.742l-.239.45c-.026 0-.106-.106-.239-.344-.159 0-.239-.079-.239-.238a.75.75 0 0 0 .53-.239h.106c.106-.026.185-.053.239-.053l.239-.106c0-.026-.026-.053-.053-.053l-1.67-.45-1.616-.742c-.53-.345-.795-1.033-.795-2.067 0-.344.026-.636.106-.874 0-.451.026-.689.106-.689.239.106.371.185.398.238l.636.239v.344c0 .186.026.318.106.345l.291.689c.53.768 1.696 1.563 3.498 2.358 0-.027 0-.053-.026-.053s-.026-.027-.026-.106c-1.299-.954-2.12-1.882-2.465-2.756-.123-.275-.186-.573-.185-.874 0-1.192.609-2.147 1.828-2.888.159-.106.477-.265.954-.477s.821-.398 1.007-.557c.371-.185.583-.397.583-.636-.159-.027-.239-.106-.239-.186-.318-.106-.583-.185-.874-.185h-.345c-.371.079-.928.318-1.67.689-1.113.662-1.855 1.431-2.252 2.358 0 .265-.026.424-.106.45-.08.08-.265.106-.583.106l-.45.238c-.08 0-.159.053-.265.133a.42.42 0 0 1-.318.132c-.265 0-.556.186-.874.53-.239.345-.345.769-.345 1.272 0 .318.053.663.185 1.087a2.67 2.67 0 0 0 .185.98l.398.344c.265.345.742.663 1.431.928.185 0 .371.026.53.053-.318.159-.45.424-.45.795 0 .318.133.53.398.689.265 0 .398.027.398.106l-.106.053c-.663.424-.98.875-.98 1.325v.106c0 .027.026.133.053.291l.053.345c.371.371.715.583.98.583.159 0 .398-.026.742-.053l.795-.053h.106c.026.079.106.106.185.106l.583.026c.176.02.353.028.53.027.371 0 .715-.186 1.033-.583l.185-.239c.08-.159.185-.238.291-.238h.345c.424 0 .689-.026.769-.079.106-.053.159-.159.212-.292.026-.132.08-.212.106-.265.106-.106.185-.185.239-.185.159-.159.239-.318.239-.451 0-.079-.026-.212-.053-.397v-.053l.053-.185c.106-.106.185-.239.185-.345l-.185-.45c.159 0 .398.026.715.106s.636.106.954.106c.768-.106 1.537-.53 2.305-1.219.901-.663 1.431-1.352 1.616-2.067z" fill="#b27"/></svg>