<svg xmlns="http://www.w3.org/2000/svg" width="150" height="200" viewBox="0 0 39.7 52.9"><path d="M20.435 33.59a1.3 1.3 0 0 0-.954.397c-.265.265-.397.583-.397.981 0 .344.133.662.397.954a1.23 1.23 0 0 0 .954.424c.371 0 .689-.132.954-.371.265-.265.398-.583.398-.981a1.3 1.3 0 0 0-.398-.954c-.239-.318-.556-.45-.954-.45zm17.517-21.889c0-1.325-.822-2.2-2.438-2.65v-.079c1.431-.504 2.146-1.352 2.146-2.57 0-1.007-.503-1.775-1.51-2.279-.636-.291-1.378-.424-2.253-.424-1.06 0-1.908.265-2.597.795-.556.45-.848.98-.848 1.563 0 .769.371 1.14 1.087 1.14.689 0 1.007-.318 1.007-.928 0-.45-.239-.742-.689-.901.477-.53 1.139-.795 2.014-.795 1.457 0 2.173.609 2.173 1.828 0 1.484-.795 2.252-2.385 2.252h-1.06v.901h1.06c1.776 0 2.65.689 2.65 2.093 0 1.431-.874 2.147-2.65 2.147-1.06 0-1.749-.265-2.067-.822.477-.106.715-.398.715-.875 0-.609-.318-.927-.954-.927-.795 0-1.192.397-1.192 1.192 0 .716.371 1.325 1.139 1.802.689.397 1.484.609 2.438.609 1.113 0 2.041-.212 2.756-.636.98-.557 1.457-1.378 1.457-2.438z" fill="#b32"/><path d="M34.533 38.095c1.139-.742 1.723-1.775 1.723-3.153 0-1.272-.53-2.305-1.59-3.074-.954-.689-2.093-1.06-3.445-1.06-.212 0-.556.026-1.007.079 1.669-1.404 2.491-2.888 2.491-4.452 0-1.06-.371-1.961-1.113-2.703s-1.643-1.113-2.703-1.113c-1.564 0-3.047.822-4.452 2.491.026-.265.026-.503.026-.768 0-1.431-.291-2.623-.901-3.578-.742-1.14-1.802-1.723-3.18-1.723-1.272 0-2.306.53-3.074 1.59-.689.954-1.007 2.093-1.007 3.445 0 .212.026.556.053 1.007-1.404-1.67-2.862-2.491-4.426-2.491-1.06 0-1.987.371-2.73 1.113s-1.113 1.643-1.113 2.703c0 1.564.848 3.047 2.544 4.452-.265-.027-.504-.027-.769-.027-1.431 0-2.623.292-3.578.901-1.14.742-1.722 1.802-1.722 3.18a3.66 3.66 0 0 0 1.563 3.074c.98.689 2.12 1.007 3.445 1.007.239 0 .583-.026 1.06-.053-1.696 1.405-2.544 2.862-2.544 4.426 0 1.06.371 1.988 1.113 2.73s1.643 1.113 2.73 1.113c1.564 0 3.048-.848 4.426-2.544v.768c0 1.431.291 2.623.901 3.577.742 1.139 1.776 1.722 3.154 1.722a3.66 3.66 0 0 0 3.074-1.563c.689-.981 1.06-2.12 1.06-3.445a10.45 10.45 0 0 0-.079-1.06c1.405 1.696 2.889 2.544 4.452 2.544 1.06 0 1.961-.371 2.703-1.113s1.113-1.643 1.113-2.73c0-1.564-.822-3.048-2.491-4.425h.768c1.378.053 2.57-.265 3.524-.848zM24.702 27.31c1.193-1.802 2.465-2.703 3.79-2.703a2.16 2.16 0 0 1 1.59.662 2.18 2.18 0 0 1 .663 1.59c0 1.987-2.359 3.975-7.076 5.989-.316-.442-.723-.813-1.192-1.087.874-2.041 1.616-3.525 2.226-4.452zm-1.749 7.632c0 .663-.265 1.192-.795 1.617s-1.113.636-1.776.636-1.245-.212-1.749-.636-.769-.954-.769-1.617.265-1.192.769-1.643c.488-.414 1.109-.64 1.749-.636.662 0 1.245.212 1.776.636.53.451.795.981.795 1.643zm-4.478-12.588c.477-.742 1.113-1.113 1.935-1.113s1.457.371 1.961 1.113c.397.636.583 1.378.583 2.253 0 1.404-.583 3.657-1.776 6.757-.318-.053-.583-.079-.768-.079s-.424.026-.769.079c-1.166-2.968-1.749-5.221-1.749-6.757 0-.848.186-1.59.583-2.253zm-8.4 4.505c0-.61.212-1.14.636-1.59a2.18 2.18 0 0 1 1.59-.662c1.325 0 2.57.901 3.789 2.703.583.901 1.325 2.385 2.253 4.452-.477.265-.901.636-1.219 1.087-4.691-2.014-7.049-4.028-7.049-5.989zm0 10.573c-.848 0-1.59-.186-2.252-.583-.742-.477-1.113-1.113-1.113-1.934s.371-1.458 1.113-1.961c.636-.398 1.378-.583 2.252-.583 1.59 0 3.736.556 6.466 1.696-.053.265-.079.556-.079.848 0 .238.026.503.106.848-2.729 1.14-4.902 1.67-6.492 1.67zm6.042 5.114c-1.192 1.802-2.464 2.703-3.79 2.703-.636 0-1.166-.212-1.59-.636s-.636-.954-.636-1.59c0-1.987 2.358-3.975 7.076-5.989.316.442.723.813 1.192 1.087l-2.253 4.426zm6.228 4.929c-.477.742-1.14 1.113-1.961 1.113s-1.457-.371-1.934-1.113c-.398-.636-.583-1.378-.583-2.252 0-1.405.583-3.657 1.776-6.757a3.26 3.26 0 0 0 .716.106 3.63 3.63 0 0 0 .795-.106c1.166 2.994 1.749 5.247 1.749 6.757.026.874-.186 1.617-.556 2.252zm8.374-4.478c0 .636-.212 1.166-.662 1.59-.424.424-.954.636-1.59.636-1.325 0-2.57-.901-3.79-2.703-.609-.901-1.351-2.385-2.252-4.452.477-.265.901-.636 1.219-1.087 4.743 2.067 7.076 4.055 7.076 6.015zm-6.466-7.208c.053-.291.079-.583.079-.848 0-.238-.026-.53-.106-.874 2.729-1.113 4.903-1.67 6.493-1.67.848 0 1.59.186 2.253.583.742.477 1.113 1.14 1.113 1.961s-.371 1.457-1.113 1.935c-.636.398-1.378.583-2.253.583-1.616-.026-3.763-.556-6.466-1.669z" fill="#d71"/><path d="M1.62 16.895c.026-.132.106-.132.133-.159.08-.053.795-.159 1.007-.238.053 0 .715-.292.928-.371 2.2-1.033 2.517-1.139 3.286-1.325L7 13.795c0-1.06-.106-1.457-.424-1.643-.291.133-.504.239-.636.345-.371.238-.45.238-.61.238-.291 0-.477-.45-.477-1.139 0-.238.106-.371.53-.662.795-.557 1.405-1.537 1.405-2.306 0-.212-.106-.397-.291-.53l-.318-.265c-.026-.027-.053-.106-.053-.212l.053-.053.08-.027c-.106-.053-.345-.318-.371-.424-.345.08-.769.239-.875.318-1.272.477-1.59.822-1.775.822-.212 0-.45-.186-.663-.504-.291-.424-.477-.715-.477-.822 0-.053-.026-.027 0-.133l.053-.079.689.132c.371 0 1.829-.371 2.782-.742-.053-.954-.159-1.272-.663-1.828-.239-.238-.239-.238-.265-.53l.053-.106c.133-.053.239-.053.265-.053.345 0 1.245.265 1.564.477s.45.504.45 1.087L7 5.739c.556-.132.98-.344 1.537-.371a9.77 9.77 0 0 0 1.723-.186c.185-.768.239-1.033.239-1.352a1.11 1.11 0 0 0-.106-.424l-.371-.557.053-.106c.106-.106.159-.132.318-.132.371 0 .98.159 1.404.424.398.238.556.477.556.795 0 .185-.026.265-.133.503l-.345.716.636-.053c.159-.027.795-.027.874-.027.636 0 1.378.45 1.378.848 0 .45-1.51.715-3.206.715h-.477c-.583.901-.875 1.272-1.166 1.564-.291.238-.504.344-.663.344-.053 0-.106 0-.212-.053l-.053-.053c.424-.662.61-1.139.875-1.934a7.19 7.19 0 0 1-1.272-.424c-.133-.053-.239-.08-.318-.08-.159 0-.821.318-1.219.716-.159.662 0 .662-.159.901.133.053.318.106.371.106l.61.132c.424.106.821.503.821.822 0 .186-.239.663-.636 1.193-.026.053-.053.079-.053.106s.026.026.053.026.106-.026.238-.053c1.166-.344 2.968-.609 3.578-.609 1.087 0 2.597 1.325 2.597 2.2a3.23 3.23 0 0 1-.053.397l-.291.981c-.053.238-.106.954-.133 2.147-.053 2.968-.371 4.611-1.14 5.777-.239.318-.398.504-.504.504s-.212-.08-.424-.398c-.053-.053-.212-.238-.424-.53-.556-.715-1.351-1.139-1.696-1.882l.053-.053c.133.053.239.053.239.079l1.14.212a1.46 1.46 0 0 0 .424.08c.239 0 .424-.159.53-.503.159-.583.45-3.683.45-5.115 0-2.332-.159-2.677-1.325-2.677s-3.048.397-3.684.901c.53.292.689.504.689.875a11.36 11.36 0 0 1-.053.715c-.053.212-.053.477-.053.61 0 .159.053.265.106.265.159 0 1.007-1.272 1.007-1.537 0-.133-.133-.292-.371-.504v-.079c.133-.212.291-.318.53-.318.556 0 1.272.715 1.272 1.245 0 .106-.106.292-.239.424-.106.106-.239.239-.45.398-.185.132-.45.371-.795.689.239-.053.928-.053 1.06-.053.715 0 1.643.556 1.643.98 0 .212-.185.344-.424.344-.053 0-.159-.026-.318-.053a13.71 13.71 0 0 0-1.352-.106c-.398 0-.769.079-1.59.291v.45c.265-.026 1.298.239 1.51.239.239 0 .504.106.769.185.61.186.742.61.742 1.272 0 .292-.133.504-.318.504-.239 0-1.537-.795-2.73-1.617-.026.265-.026 1.087-.026 1.166L8.19 19.41c-.026.954-.133 1.511-.345 1.511-.133 0-.398-.318-.901-1.166-.477-.769-.556-.954-.583-1.298l.053-.027c.106.053.185.053.265.053.239 0 .371-1.484.371-2.173l-.026-.318a6.96 6.96 0 0 0-1.935.875l.265.291c.053.106.133.133.159.133.053 0 .133-.027.265-.08l.583-.318.08.027c0 .079-.026.159-.053.185 0 0-.026.053-.08.133-.026.053-.08.159-.133.318-.026.026-.08.159-.185.371-.133.291-.556.715-.636 1.06-.185.583-.742.928-.954.928-.291 0-.663-.716-.663-1.246 0-.053.371-.556.477-.689.345-.451.371-.928.318-.928s-.848.424-1.087.53c-.345.186-.583.239-.715.239-.291 0-.636-.292-1.06-.901v-.027zm2.756-4.452c.345.053.609.424.609.901-.026.212 0 .238.08.238.133 0 .61-.159 1.405-.503l.026.053c-.133.238-.265.397-.318.45l-.53.557c-.053.053-.185.238-.318.424-.424.609-.609.822-.795.822-.318 0-.795-.636-.795-1.007 0-.106 0-.106.265-.742a3.39 3.39 0 0 0 .291-1.139z" fill="#339"/></svg>