<svg xmlns="http://www.w3.org/2000/svg" width="150" height="200" viewBox="0 0 39.7 52.9"><path d="M37.799 11.195c0-1.325-.822-2.2-2.438-2.65v-.079c1.431-.503 2.147-1.352 2.147-2.57 0-1.007-.504-1.775-1.511-2.279-.636-.291-1.378-.424-2.252-.424-1.06 0-1.908.265-2.597.795-.556.45-.848.98-.848 1.563 0 .769.371 1.14 1.087 1.14.689 0 1.007-.318 1.007-.928 0-.45-.239-.742-.689-.901.477-.53 1.139-.795 2.014-.795 1.457 0 2.173.609 2.173 1.828 0 1.484-.795 2.252-2.385 2.252h-1.06v.901h1.06c1.776 0 2.65.689 2.65 2.093 0 1.431-.874 2.147-2.65 2.147-1.06 0-1.749-.265-2.067-.822.477-.106.715-.398.715-.875 0-.609-.318-.927-.954-.927-.795 0-1.192.397-1.192 1.192 0 .716.371 1.325 1.139 1.802.689.398 1.484.609 2.438.609 1.113 0 2.041-.212 2.756-.636.98-.557 1.458-1.378 1.458-2.438z" fill="#b32"/><path d="M1.52 16.495c.026-.132.106-.132.133-.159.08-.053.795-.159 1.007-.238.053 0 .715-.292.928-.371 2.2-1.033 2.517-1.139 3.286-1.325l.026-1.007c0-1.06-.106-1.457-.424-1.643-.291.133-.504.239-.636.345-.371.238-.45.238-.61.238-.291 0-.477-.45-.477-1.139 0-.238.106-.371.53-.662.795-.557 1.405-1.537 1.405-2.306 0-.212-.106-.397-.291-.53l-.318-.265c-.026-.027-.053-.106-.053-.212l.053-.053.08-.027c-.106-.053-.345-.318-.371-.424-.345.08-.769.239-.875.318-1.272.477-1.59.822-1.775.822-.212 0-.45-.186-.663-.504-.291-.424-.477-.715-.477-.822 0-.053-.026-.027 0-.133l.053-.079.689.132c.371 0 1.829-.371 2.782-.742-.053-.954-.159-1.272-.663-1.828-.239-.238-.239-.238-.265-.53l.053-.106c.133-.053.239-.053.265-.053.345 0 1.245.265 1.564.477s.45.504.45 1.087l-.026.583c.556-.132.98-.344 1.537-.371a9.77 9.77 0 0 0 1.723-.186c.185-.768.239-1.033.239-1.352a1.11 1.11 0 0 0-.106-.424L9.92 2.45l.053-.106c.106-.106.159-.132.318-.132.371 0 .98.159 1.404.424.398.238.556.477.556.795 0 .185-.026.265-.133.503l-.345.716.636-.053c.159-.027.795-.027.874-.027.636 0 1.378.45 1.378.848 0 .45-1.51.715-3.206.715h-.477c-.583.901-.875 1.272-1.166 1.564-.291.238-.504.344-.663.344-.053 0-.106 0-.212-.053l-.053-.053c.424-.662.61-1.139.875-1.934-.61-.159-.689-.186-1.272-.424-.133-.053-.239-.08-.318-.08-.159 0-.821.318-1.219.716-.159.662 0 .662-.159.901.133.053.318.106.371.106l.61.132c.424.106.821.503.821.822 0 .186-.239.663-.636 1.193-.026.053-.053.079-.053.106s.026.026.053.026.106-.026.238-.053c1.166-.344 2.968-.609 3.578-.609 1.087 0 2.597 1.325 2.597 2.2 0 .079-.026.238-.053.397l-.291.981c-.053.238-.106.954-.133 2.147-.053 2.968-.371 4.611-1.14 5.777-.239.318-.398.504-.504.504s-.212-.08-.424-.398c-.053-.053-.212-.238-.424-.53-.556-.715-1.351-1.139-1.696-1.882l.053-.053c.133.053.239.053.239.079l1.14.212c.159.053.318.08.424.08.239 0 .424-.159.53-.503.159-.583.45-3.683.45-5.115 0-2.332-.159-2.677-1.325-2.677s-3.048.397-3.684.901c.53.292.689.504.689.875a11.36 11.36 0 0 1-.053.715c-.053.212-.053.477-.053.61 0 .159.053.265.106.265.159 0 1.007-1.272 1.007-1.537 0-.133-.133-.292-.371-.504v-.079c.133-.212.291-.318.53-.318.556 0 1.272.715 1.272 1.245 0 .106-.106.292-.239.424-.106.106-.239.239-.45.398-.185.132-.45.371-.795.689.239-.053.928-.053 1.06-.053.715 0 1.643.556 1.643.98 0 .212-.185.344-.424.344-.053 0-.159-.026-.318-.053a13.71 13.71 0 0 0-1.352-.106c-.398 0-.769.079-1.59.291v.45c.265-.026 1.298.239 1.51.239.239 0 .504.106.769.185.61.186.742.61.742 1.272 0 .292-.133.504-.318.504-.239 0-1.537-.795-2.73-1.617-.026.265-.026 1.087-.026 1.166-.026.318-.053 1.59-.053 1.669-.026.954-.133 1.511-.345 1.511-.133 0-.398-.318-.901-1.166-.477-.769-.556-.954-.583-1.298l.053-.027c.106.053.185.053.265.053.239 0 .371-1.484.371-2.173l-.026-.318c-.901.292-1.034.345-1.935.875l.265.291c.053.106.133.133.159.133.053 0 .133-.027.265-.08l.583-.318.08.027c0 .079-.026.159-.053.185 0 0-.026.053-.08.133-.026.053-.08.159-.133.318-.026.026-.08.159-.185.371-.133.291-.556.715-.636 1.06-.185.583-.742.928-.954.928-.291 0-.663-.716-.663-1.246 0-.053.371-.556.477-.689.345-.451.371-.928.318-.928s-.848.424-1.087.53c-.345.186-.583.239-.715.239-.291 0-.636-.292-1.06-.901v-.027zm2.756-4.452c.345.053.609.424.609.901-.026.212 0 .238.08.238.133 0 .61-.159 1.405-.503l.026.053c-.133.238-.265.397-.318.45l-.53.557c-.053.053-.185.238-.318.424-.424.609-.609.822-.795.822-.318 0-.795-.636-.795-1.007 0-.106 0-.106.265-.742.159-.371.239-.636.291-1.139z" fill="#339"/><path d="M15.035 43.525c0 .238.133.45.371.662s.503.318.768.318h.239c.504-.238.848-.689 1.034-1.378.159-.318.238-.583.238-.875 0-.265-.026-.45-.106-.53-.079-.265-.318-.583-.689-.98-.451-.53-1.086-.875-1.908-1.034a1.55 1.55 0 0 0-.344-.053h-.106l.053-.053c.371-.345 1.007-.768 1.829-1.272.026-.08.106-.133.186-.186.079-.026.159-.079.239-.132s.106-.132.106-.212l-.053-.053a.78.78 0 0 0-.583.238l-3.79 2.597c-.026 0-.106.053-.185.132-.08.106-.185.159-.291.212l-.185.186a.78.78 0 0 1-.239-.583 4.37 4.37 0 0 0-1.14-.875c-.371-.106-.636-.238-.742-.345-.026-.026-.08-.159-.133-.371l-.08-.371c-.345-.689-1.06-1.033-2.12-1.033-.45 0-.769.053-.928.186-.265.159-.53.371-.795.689l-.583.875c0 .026.026.106.106.212s.106.186.106.265 0 .159-.026.238-.026.132-.026.185v.106l.398.53-.345.106-.345.053c-.106 0-.238.106-.397.318s-.291.318-.398.318c-.21.035-.423.053-.636.053-.504.159-1.087.583-1.723 1.272-.08.079-.133.185-.133.344-.026.159-.026.239-.026.292-.159.159-.291.424-.397.795.318.689.795 1.033 1.484 1.033h.398c.106-.079.185-.106.239-.106.026 0 .133.079.318.265s.265.265.318.265c.239 0 .556-.212.98-.636-.185.159-.318.398-.397.742l-.106.106.106.053c-.106.106-.318.185-.583.185-.318.265-.53.583-.689.928-.159.186-.239.371-.239.53 0 .079.026.238.106.451.159 0 .239.079.239.239l-.239.344c-.026.079-.053.238-.053.451 0 .609.398 1.087 1.219 1.431.185.079.424.106.689.106.53-.079.795-.424.795-1.033v-.292c-.08-.026-.106-.079-.106-.132s.106-.132.345-.212c0-.026.08-.106.265-.212s.318-.212.424-.318c.08-.159.159-.451.239-.874.583-1.272.98-2.041 1.219-2.306l.795-.795c0-.027.026-.106.106-.239l.185-.238c.239-.265.371-.398.398-.398.106.106.185.504.185 1.193 0 .662-.185 1.325-.53 1.987-.026.026-.133.212-.291.477-.159.291-.239.53-.239.715s.133.424.398.716.53.424.742.424.556-.106.98-.292c.026-.079.265-.371.689-.874.239-.424.345-.689.345-.795 0-.159-.053-.292-.185-.398 0-.026-.053-.106-.133-.212-.106-.106-.132-.159-.132-.212 0-.026.053-.106.132-.186.106-.079.159-.185.212-.291l.106-.186v-.106c0-.079-.106-.53-.345-1.378-.08-.238-.238-.477-.53-.742l-.636-.636c0-.159.185-.318.53-.451.345-.318.53-.45.583-.45.026 0 .185.079.424.238s.371.238.371.292c.345.265.53.689.53 1.272l-.106.371v.663c0 .318-.026.583-.106.768 0 .079-.026.186-.106.318s-.106.265-.106.371v.053c0 .371.239.663.689.795.079 0 .159-.026.265-.106s.185-.106.239-.106.106 0 .106.026c.026.026.079.026.133.026l.291-.291.185-.239c.424-.53.636-1.007.636-1.431 0-.689-.45-1.484-1.325-2.358-.371-.371-.768-.662-1.139-.875l-.291-.238.45-.53 1.087-.742c.265-.265.45-.398.53-.398.159 0 .371.292.636.875.026.106.053.344.053.689v.185l-.053.186.053.053c0 .106.106.238.291.371s.291.292.291.477c0 .079-.079.212-.265.371-.239.106-.318.265-.318.424zm-6.466.132c-.504.451-.954.689-1.378.689-.026 0-.08 0-.133-.026s-.133-.026-.212-.026h-.291c-.477 0-.928.212-1.405.609 0-.026.026-.053.026-.079.026-.026.08-.132.08-.292.026-.159.053-.292.106-.398s.212-.212.477-.291.45-.133.556-.212c.106-.053.185-.132.291-.238s.159-.132.212-.132c.159-.08.53-.106 1.087-.106H9.02c.026.159-.133.344-.45.503zm2.544-2.279c-.08.026-.106.053-.106.106s.026.079.08.079.08.026.08.053c-.026.106-.185.238-.45.397s-.398.292-.398.398c-.026 0-.106-.079-.212-.212s-.159-.212-.212-.212c-.318 0-.53.026-.689.106-.106 0-.291 0-.477.026-.212.027-.345.027-.371.027h-.185c-.08 0-.132-.08-.185-.239l-.053-.185c-.159-.265-.318-.45-.53-.583-.026-.026-.133-.079-.318-.132s-.291-.079-.371-.079l-.133-.132c-.053-.053-.106-.08-.133-.08h-.398c.159-.106.239-.185.239-.238.45-.185 1.14-.292 2.067-.292h.344c1.113 0 1.882.292 2.306.875.106.079.185.106.239.106-.026.132-.053.185-.133.212z" fill="#084"/><path d="M17.95 32.395c0-.715-.159-1.219-.451-1.484l-1.325-.397c-.504.079-.874.477-1.086 1.219 0 .026-.053.212-.186.477-.106.292-.185.477-.185.61v.185c0 .318.239.663.689 1.034.609.45 1.139.715 1.616.742h1.034c.106.106.186.185.239.185l.451-.238c.106-.159.212-.239.265-.239s.106.027.132.053c.106.106.186.186.239.186.424.265.901.397 1.431.397.265 0 .636-.185 1.086-.583l.451-.45c.689-.53 1.113-.822 1.272-.875a2.32 2.32 0 0 1 .53-.053c.344-.185.53-.318.53-.397l-.291-.345c-.106 0-.291.053-.53.186l-1.325.265c-.026.079-.133.159-.318.265s-.291.132-.371.132c-.106.08-.318.106-.583.106-.371 0-.583-.132-.583-.397 0-.106.053-.265.185-.451.106-.185.186-.371.186-.53a.51.51 0 0 0-.397-.53l-.451-.345c-.079 0-.265.159-.583.451l-.451.53c-.318.424-.45.875-.45 1.378 0 .345.026.557.106.636l-.291-.291c-.026 0-.106-.027-.239-.053-.106-.027-.186-.08-.239-.106-.159-.106-.239-.239-.239-.398a1.44 1.44 0 0 1 .106-.53v-.344z" fill="#d71"/><path d="M30.591 27.36c-.159-.133-.265-.212-.318-.212s-.133.053-.239.185c-.106.106-.159.186-.212.186l-.106-.106c-.026 0-.106.053-.239.185-.106.106-.186.186-.186.239-.026.079-.079.185-.106.344l-.106.238c-.026.106-.106.212-.239.318-.106.106-.239.186-.344.265s-.212.133-.291.186l1.908-.345c.106-.079.238-.238.398-.53.265-.238.397-.371.397-.45-.079-.027-.106-.08-.106-.132.027-.133-.053-.239-.212-.371zm5.009 5.061c.45 0 .848-.079 1.139-.238.424-.424.662-.715.742-.874 0-.027-.133-.186-.398-.451-.371-.583-.715-.874-.98-.874-.185 0-.398.079-.609.265s-.371.291-.477.371c-.026.026-.106.053-.238.053s-.239-.053-.398-.133c-.159-.106-.239-.132-.292-.132-.159 0-.371.079-.636.265s-.398.318-.398.424c0 .026.133.185.398.45s.424.397.451.397l.053-.053h.185l.398.397c.239.079.609.132 1.06.132zM22.932 7.724v-.053c-.053-.318.079-.715.345-1.219.159-.159.239-.265.239-.344.053 0 .079-.133.106-.371.053-.08.106-.186.186-.318.079-.106.133-.212.133-.292.106-.344.186-.53.239-.583.318-.451.689-.742 1.139-.848h.556c.053.026.133.026.238 0 .239-.053.451.053.663.291.265.212.398.371.424.451.026.159-.079.53-.318 1.087-.053.159-.079.344-.053.477-.239.53-.477.848-.689.98-.053 0-.106 0-.159-.053s-.106-.053-.159-.053c-.079.027-.239.159-.477.451l-.371.742c-.026.053-.106.079-.239.106l-.291.053c-.874.291-1.166.954-1.378 1.457-.079.053-.133.185-.212.397-.053.212-.106.345-.133.398-.636 1.775-1.007 3.472-1.113 5.088l.053 2.2.053.345c.053.344.186.874.398 1.59 1.034 3.578 2.358 6.175 3.975 7.844.238.265.106.159.106.186l-.026.132-.106.133c-.026.132-.079.185-.106.212-.026 0-.133-.08-.265-.265s-.212-.292-.265-.265c-1.139-1.246-2.014-2.597-2.624-4.055-.053-.345-.159-.636-.344-.822h-.026c-.159.027-.239.08-.291.186-.556.106-1.06.106-1.511-.053-.026 0-.106-.027-.212-.106s-.212-.106-.291-.08c-.026 0-.106.053-.212.106s-.186.106-.239.106c-.239-.106-.477-.185-.715-.265-.265-.185-.981-.689-1.087-1.51l-.053-.344.026-.133-.026-.238c-.344-.292-.556-.636-.609-1.06l-.053-.636c.079-.662.265-1.166.609-1.563.424-.424.636-.133.742-.159.186-.027.53.238 1.06.795.636.795.981 1.51 1.087 2.173 0 .027.026.159.026.371l.053.504c.026.185.053.344.106.45.106.424.397.715.821.901l.716.265-.265-.716c-.424-1.298-.742-2.57-.901-3.763l-.079-.636v-.238l-.053-.477c-.742-.159-1.325-.451-1.723-.901-.636-.503-1.086-1.192-1.325-2.04l-.053-.318c-.026-.133-.053-.212-.079-.239-.053-.026-.133-.132-.265-.265-.132-.159-.212-.238-.265-.265l-.239-.556c-.026-.185 0-.53.106-.98 0-.027.026-.159.106-.345s.159-.344.212-.424c0-.132.053-.371.132-.715s.159-.583.265-.689c.026-.08.079-.159.212-.265l.318-.212c.291-.053.61.106.98.503.371.61.583 1.14.636 1.59l.053.583c0 .027-.026.159-.079.345s-.079.318-.079.344l.026.185.079.106-.053.133v.053c.026.159.026.265 0 .344l-.106.133c-.026.159-.026.318-.026.424 0 .079.026.132.053.159s.026.106.053.159c0 .159-.053.344-.133.53s-.133.344-.106.477l.079.583c.186.53.583 1.007 1.219 1.484l.053-.238c-.026-.186-.026-.292 0-.292-.026-1.749.318-3.604 1.007-5.591l.159-.265c0-.08-.079-.106-.239-.08-.079-.026-.133-.026-.159-.026-.291-.106-.583-.345-.848-.716a3.09 3.09 0 0 1-.556-1.192c-.079-.662-.079-1.245 0-1.802.159-.583.318-.954.477-1.113.182-.157.401-.267.636-.318l.186-.053c.159.079.265.132.291.106h.026c.079-.026.159-.053.212-.132.079-.079.133-.106.186-.132l.079-.027c.185-.027.344.159.503.556.026.106-.079.424-.318.901-.053.053-.185.239-.45.557s-.424.583-.504.822-.106.583-.106 1.007c.026.265.159.636.398 1.113.026.238.106.344.239.318.106-.345.318-.822.583-1.431l.186-.45a.55.55 0 0 0-.053-.159c-.106-.08-.133-.159-.133-.239z" fill="#084"/><path d="M26.589 36.105c.026-.238.026-.424.026-.583 0-.106 0-.291-.026-.53s-.026-.398-.026-.53c0-.318-.053-.583-.186-.795-.026-.106-.133-.239-.265-.345s-.239-.185-.291-.185-.079.026-.079.053c-.451.424-.742 1.113-.875 2.067 0 .45-.159 1.007-.451 1.617-.106.185-.291.424-.477.662-.212.238-.344.424-.371.477-.186.185-.291.504-.291.928a1.04 1.04 0 0 0-.053.344c.106.504.398.795.875.928.106 0 .397-.159.874-.451.689-.424 1.113-.848 1.272-1.272.106-.159.239-.795.345-1.908-.026-.079 0-.238 0-.477z" fill="#d71"/><path d="M30.246 43.26c0-.079-.079-.185-.238-.345-.265-.265-.61-.397-1.033-.397-.159 0-.318.053-.53.185-.079 0-.186.079-.344.238l-.239.185c-.424-.583-.874-.874-1.325-.874h-.106c-.186.026-.398.132-.61.291a3.57 3.57 0 0 1-.556.345c-.106.026-.318.053-.583.053a3.17 3.17 0 0 0-.371.079c-.212.053-.344.106-.424.133-.079.079-.212.238-.424.477s-.318.424-.318.556a1.55 1.55 0 0 0 .053.345v.106c-.026.106-.053.212-.053.291l.053.106c.159.424.371.636.689.636.079 0 .186.026.291.106a1.35 1.35 0 0 0 .689-.186c.345-.238.61-.451.795-.689 0-.079 0-.159.026-.238a1.29 1.29 0 0 1 .079-.185c.239-.238.504-.345.795-.345.663-.106 1.086-.265 1.272-.45l.186-.239c.159.027.291.106.398.186.424.238.715.344.927.344a.53.53 0 0 0 .239-.053c.451-.185.663-.397.663-.662zm-1.484 6.599v.186c0 .53.265.874.795 1.033h.398c.689-.371 1.06-.848 1.087-1.378.026-.079.053-.238.053-.451 0-.106-.053-.212-.133-.318a.42.42 0 0 1-.133-.318l.053-.186.106-.106v-.344c0-.265-.186-.662-.53-1.219l-.292-.292-.185-.238-.239-.106c-.159-.026-.265-.079-.318-.132s-.133-.159-.238-.318-.212-.292-.318-.398l-.186-.053c-.106-.026-.186-.106-.239-.185l-.053-.106c-.106-.186-.212-.292-.265-.292s-.159.106-.318.292l.053.238c0 .026.053.132.133.265.106.133.133.212.133.265.079.424.106.795.106 1.087l-.239.583c-.106.318-.186.583-.186.795v.053c.079.079.106.132.106.185.026.027.186.159.424.371s.371.397.371.556a1.55 1.55 0 0 1-.053.344c.133.079.106.159.106.186z" fill="#084"/><path d="M34.062 37.96a.61.61 0 0 1 .239-.08c.53-.265.795-.636.795-1.087 0-.159-.106-.344-.291-.583s-.318-.397-.345-.53c-.054-.226-.09-.457-.106-.689s-.052-.463-.106-.689c-.159-.239-.371-.345-.689-.345h-.292l.106-.106c.265-.265.398-.424.398-.45 0-.265-.106-.557-.344-.875-.159-.265-.371-.397-.636-.397-.026 0-.106.026-.238.053l-.451.583v.053c.026 0 .053.026.053.106l-.398.397c-.027 0-.133.027-.265.053s-.265.106-.371.186c.106-.08.186-.212.186-.398 0-.583-.186-.874-.583-.874-.079 0-.186.026-.292.106s-.186.106-.238.106c-.451.185-1.086.291-1.855.291-.026-.026-.186-.053-.451-.053l.186.053c-.079 0-.133-.026-.186-.053l-.239-.053c1.034-.106 1.696-.371 1.961-.795.265-.371.398-.874.398-1.484-.106-.504-.424-.742-.927-.742h-.106c-.344.238-.583.477-.689.742-.026.026-.079.132-.106.291l-.053.344c-.106.265-.477.557-1.086.875-.451.185-.689.371-.689.556s.106.265.291.265h.875v.053l-.186.186c0 .026.026.053.106.053.026.079.053.132.053.185.795.583 1.643.875 2.464.875.026 0 .133 0 .265-.027s.212-.027.265-.027c.159 0 .265.027.345.106 0 .08.026.106.079.106l.662.027.795.026h.185l.186-.053v.106c-.318.186-.451.451-.451.795a1.9 1.9 0 0 0 .027.345 2.29 2.29 0 0 1 .026.397c-.026 0-.106.08-.186.239l-.053.238c-.106.027-.451.053-.98.053-.265 0-.557-.079-.875-.238-.027 0-.079-.053-.133-.133-.053-.106-.106-.185-.133-.265l-1.033-1.139c-.265-.265-.556-.398-.875-.398-.159.159-.239.239-.239.292 0 .371.106.583.291.583l.239.636.53 1.325c.239.504.53.848.927 1.033.159.027.451.106.875.239.795.318 1.378.45 1.723.45.239 0 .424-.026.583-.106a1.74 1.74 0 0 0 .451-.318c.159-.132.291-.212.397-.265 0-.079.08-.106.212-.159z" fill="#d71"/><path d="M31.545 45.91c.053.026.106.079.133.212.026.106.106.186.186.238.265.424.583.636.927.636.663 0 .98-.371.98-1.087 0-.159-.053-.344-.185-.583l-.239-.238-.344-.238c-.185-.318-.345-.504-.45-.583a.78.78 0 0 0-.583-.239c-.026 0-.106.027-.238.106l-.106.053h-.106c-.026-.026-.106-.053-.185-.053l-.053.053h-.397c-.265 0-.557-.053-.875-.185-.318-.106-.53-.185-.636-.185-.424.185-.636.371-.636.53 0 .079.079.132.239.212.159.053.265.106.318.186.053.053.106.185.186.397.053.212.106.345.133.371l.345.344a1.29 1.29 0 0 0 .398.053c.079 0 .212 0 .424-.026s.345-.027.424-.027c.185.027.291.027.344.053zm-4.134-.212c.212-.159.344-.292.424-.398.026-.026.053-.132.053-.291 0-.371-.212-.583-.636-.583h-.053c-.159 0-.451.159-.875.45l-.583.583c-.026.026-.079.159-.133.344s-.133.318-.212.344c0 .079-.053.106-.186.106h-.291l-.186.106c-.026.079-.079.132-.106.186-.159.159-.318.556-.451 1.219-.106.186-.185.318-.185.398.028.029.046.066.053.106 0 .424.186.715.583.874a1.4 1.4 0 0 0 .689.186c.318-.106.53-.344.636-.689a1.29 1.29 0 0 0 .053-.397v-.398h.106l.053.053c.53-.159.795-.398.795-.742 0-.079-.026-.159-.106-.265a.51.51 0 0 1-.106-.318c0-.159.079-.318.239-.451.079-.132.212-.265.424-.424zm9.461-20.008c-.159-.026-.344-.053-.583-.053a1.32 1.32 0 0 0-1.087.53c0 .08-.08.186-.212.345s-.212.238-.212.291v.106c0 .027-.053.106-.186.186l-.106.053c-.371.53-.583.795-.636.795.345-.504.53-.822.53-.981 0-.185-.106-.424-.345-.715s-.45-.424-.689-.424h-.106c-.239 0-.45.106-.636.291-.239 0-.344.106-.344.345l.106.053v.185c-.371.848-.874 1.484-1.431 1.908-.504.344-.928.556-1.272.636.026.026.133.053.291.053.106 0 .239 0 .398-.027s.291-.026.398-.026.212.053.318.132c.106.106.186.133.265.133.504.371 1.352.583 2.544.583h.636c.08-.08.212-.186.371-.318l.371-.265c.079 0 .159-.027.238-.053.239-.106.398-.186.53-.186.715-.106 1.166-.238 1.325-.344.45-.318.742-.874.874-1.722-.185-.716-.636-1.219-1.352-1.511zM9.576 34.303c0-.106-.212-.371-.636-.795-.026-.027-.159-.106-.371-.212s-.345-.186-.371-.265a7.88 7.88 0 0 1-.556-.636c-.212-.265-.424-.477-.636-.636a1.07 1.07 0 0 0-.663-.238H6.29c-.08 0-.133.026-.185.053-.026.026-.106.053-.185.053-.45.238-.689.45-.689.689v.053c0 .079-.026.159-.053.238l-.106.185v.186l-.053.185c0 .239.238.583.689 1.087l.583.53c.159.079.583.185 1.272.344.026 0 .159 0 .371.027.158.019.318.028.477.026h.238l.185-.053c.504-.265.742-.556.742-.822zm4.956.583c.318-.159.45-.371.45-.636 0-.239-.238-.53-.742-.875l-.053-.106c-.106-.026-.186-.079-.239-.106-.159-.159-.239-.689-.239-1.617 0-.106 0-.265.026-.424.026-.185.026-.318.026-.424 0-.159-.053-.371-.186-.689-.344-1.192-1.219-1.775-2.597-1.775h-.291c-.795.106-1.352.238-1.67.397l-.583.583c-.53.53-.795 1.007-.795 1.431 0 .318.318.822.98 1.563.345.346.707.673 1.087.981.079.026.159.079.265.132s.239.106.424.133.318.106.345.185l.689.451 1.908.636c.424.106.742.186.981.186h.212zm11.104 5.353h-.186c-.079 0-.159.026-.239.079s-.159.079-.239.079h-.053c-.106.027-.265.159-.424.371-.186.212-.265.371-.265.477 0 .318.186.53.53.636.026.026.106.053.239.053.079 0 .159-.027.239-.053s.133-.079.186-.132c.026-.053.106-.133.212-.212s.159-.159.212-.238c.424-.185.636-.345.636-.451-.291-.398-.556-.609-.848-.609z" fill="#084"/><path d="M29.849 31.335c0 .239.079.345.239.345.106.079.371.106.742.106.451 0 .848-.079 1.139-.238.371-.344.583-.556.583-.636 0-.106-.133-.291-.398-.53-.344-.265-.583-.397-.689-.397-.503 0-.795.185-.875.53 0 .079-.026.159-.053.265s-.079.185-.106.238-.106.106-.212.106l-.265.08c-.053.079-.106.106-.106.132zm-11.103 6.969a4.01 4.01 0 0 0 .689.053c.875 0 1.802-.424 2.756-1.272.848-.61 1.484-1.272 1.908-2.014.45-.503.689-.927.689-1.272 0-.238-.106-.344-.291-.344v.053c-.45.371-1.245.927-2.358 1.617-1.272.609-2.253.927-2.942.927h-.344c-.026-.026-.053-.079-.053-.132s-.026-.106-.053-.133c-.159-.265-.398-.397-.742-.397-.159 0-.318.053-.53.185-.424.159-.636.424-.636.795v.053c0 .027.026.106.079.186s.106.132.133.212a.5.5 0 0 1 .053.212v.106l.397.636c.265.238.663.424 1.246.53zm1.299-9.832c-.239-.185-.477-.291-.663-.291-.503.159-.821.371-.98.636-.026.026-.079.132-.079.318-.026.185-.026.291-.026.318-.106.238-.186.45-.186.636 0 .424.186.768.53 1.033l.636.291c.239 0 .345-.106.345-.291l-.106-.238-.053-.239c0-.106.053-.291.186-.53.026-.159.186-.344.424-.556s.371-.345.371-.424v-.106c-.026-.186-.159-.371-.398-.557zm7.553 6.678c-.186 0-.371.159-.53.451-.079.238-.106.583-.106 1.033l.026 1.034.026 1.086.291 1.325c.106.185.318.451.636.742l.742.689c.265.159.556.238.874.238.345 0 .795-.159 1.325-.451.689-.53 1.034-1.06 1.034-1.563 0-.663-.212-.981-.636-.981-.159 0-.292.079-.424.212s-.265.212-.371.212h-.106c-.503 0-.875-.185-1.14-.583-.344-.504-.636-1.219-.874-2.12a1.29 1.29 0 0 1-.053-.397v-.345c-.239-.397-.477-.583-.716-.583z" fill="#d71"/><path d="M10.795 38.755h.239c.159 0 .424-.026.768-.079l.769-.08a2.9 2.9 0 0 1 .583.053c.026.08.133.186.291.345s.265.238.344.238c.186 0 .345-.053.451-.185.106-.026.265-.159.477-.371s.318-.371.318-.477-.159-.398-.45-.875c-.265-.424-.53-.662-.742-.689-.026-.079-.159-.106-.371-.106s-.345-.026-.398-.053-.106-.106-.106-.238c-.026-.106-.08-.186-.133-.239-.345-.371-.715-.583-1.087-.583-.583 0-1.007.212-1.325.636-.08.027-.106.08-.106.133s-.106.212-.345.477c-.424.424-.636.715-.636.874.026.08.133.265.291.583.239.371.636.583 1.166.636zm13.383-25.36c-.239-.265-.371-.371-.398-.371-.186.027-.398.106-.61.239a3.45 3.45 0 0 0-.61.477c-.053.026-.106.159-.132.371-.079.132-.133.212-.159.212l-.079.053.053-.345c.026-1.643.477-2.73 1.378-3.26l.239-.132c1.034-.53 1.776-.557 2.226-.159.212.185.371.344.45.45.186.424.212.822.106 1.192-.106.424-.239.822-.424 1.193-.159.265-.265.397-.291.397-.106.053-.212.106-.318.106.451.027.821.133 1.113.371.212.185.371.397.451.636.026.053.026.159 0 .291s-.026.212-.026.265l.133.345c.291.662.133 1.352-.424 2.04-.186.212-.344.371-.504.477-.397.238-.954.318-1.616.265-.079 0-.212 0-.424-.027s-.371-.026-.451-.026-.265.053-.504.212c-.344.212-.689.609-1.033 1.192.026-.106.026-.636-.026-1.669-.053-.848.053-1.51.345-1.987.318-.795.901-1.431 1.776-1.935.344-.185.715-.344 1.086-.397-.106.027-.212 0-.318-.027-.239-.053-.609-.212-1.007-.45z" fill="#084"/><path d="M24.893 29.745c.106-.106.186-.238.239-.344 0-.027.079-.133.212-.292s.212-.265.212-.344c-.106-.265-.318-.477-.636-.636h-.636l-.053.106-.795.742c-.106.344-.186.689-.186 1.033 0 .53.053.954.186 1.272.424.424.768.636 1.034.636.186-.08.291-.186.291-.292 0-.079-.026-.212-.106-.424s-.106-.344-.106-.424c0-.345.079-.61.239-.795-.053-.027 0-.106.106-.239z" fill="#d71"/><path d="M29.928 20.47l.212.291c.026.106-.026.318-.159.61l-.159.371-.239.265v.053c.026.08.079.186.186.318a.97.97 0 0 1 .186.371c0 .027-.026.133-.079.265v.239c-.159.344-.265.53-.344.609-.132.159-.291.292-.477.345-.451.159-.822.159-1.113 0-.079-.027-.159-.08-.291-.186s-.212-.159-.239-.159l-.371.133c-.556-.186-.928-.504-1.113-.901 0-.133 0-.239-.026-.345l-.265-.026c-.61-.053-1.034-.027-1.299.053l-.238.079c-.026 0-.079.106-.106.265-.053.159-.106.239-.159.265-.159-.132-.265-.291-.318-.477-.159-.636.186-1.087.98-1.378l.451-.159c.265-.106.477-.265.583-.45.345-.291.874-.583 1.643-.848l.265-.106c.397-.159.742-.212 1.06-.159.742.239 1.192.477 1.431.663z" fill="#084"/><path d="M21.501 27.095c-.079.106-.106.344-.106.689 0 .424.106.662.345.742h.053l.345-.345c.424-.424.795-.636 1.139-.636h.398c.345-.318.53-.477.53-.53 0-.106-.106-.291-.344-.53-.424-.318-.716-.45-.875-.45a1.53 1.53 0 0 0-1.484 1.06zm6.334 2.517v-.239c-.238-.503-.477-.742-.742-.742-.504.106-.928.451-1.325 1.034-.265.53-.398.954-.398 1.272a1.04 1.04 0 0 0 .053.344c.186.424.371.636.583.636.106 0 .265-.106.45-.344.928-.716 1.378-1.378 1.378-1.961zm-6.439 1.563c.424.53.875.822 1.378.874h.398c.026 0 .106.027.239.106l.053.053.345-.291c-.079 0-.212-.106-.398-.345-.265-.185-.451-.424-.583-.689a1.39 1.39 0 0 1-.291-.875v-.185l.053-.186v-.291c0-.106-.053-.239-.133-.345-.106-.106-.212-.185-.318-.185h-.106c-.079.079-.159.106-.239.106-.265.159-.504.424-.689.795-.026.079-.053.238-.053.45 0 .265.026.451.053.53z" fill="#d71"/><path d="M28.126 32.66l.451.185c-.079-.053-.212-.106-.451-.185z"/></svg>