<svg xmlns="http://www.w3.org/2000/svg" width="150" height="200" viewBox="0 0 39.7 52.9"><path d="M24.298 33.62v-1.431c-.451-.159-1.034-.292-1.723-.397-.133-1.14-.981-2.597-2.544-4.399-1.378-1.563-3.021-2.782-4.902-3.63l3.763 3.71h-.079c-.265-.239-.556-.424-.848-.61-.424-.265-.848-.371-1.272-.371-.079 0-.318.027-.715.106l-.636.106c-.159 0-.556-.185-1.166-.583.371-.159.689-.424.954-.822.265-.371.08-.768-.556-1.219-.689-.477-1.696-.344-3.021.424l-2.12 1.139c-.026 0-.185-.026-.45-.106a2.24 2.24 0 0 0-.636-.106c-.477 0-1.033.212-1.643.636-1.087.795-1.881 1.484-2.358 2.041l-3.66 4.505c1.643-.186 3.339-1.245 5.115-3.207 1.06-1.193 2.041-2.147 2.995-2.862l-6.757 8.03c1.961-.53 4.823-2.597 8.586-6.201 1.378-1.245 2.226-1.855 2.597-1.855.212 0 .504.185.874.53-4.743 2.067-8.082 5.406-9.99 10.017 2.014-2.173 4.214-3.816 6.625-4.929l1.431-.61 5.539-2.279c.239-.106.45-.239.609-.424.106-.133.265-.159.477-.08s.345.133.451.133c.133 0 .265-.08.397-.239.795.424 1.431 1.405 1.935 2.968-.689-.133-1.564-.212-2.65-.212-1.245 0-2.65.132-4.24.424s-3.922 1.431-6.996 3.472c-2.915 1.987-4.69 3.259-5.3 3.763-.61.53-.848.901-.715 1.139.106.345.556.186 1.404-.503l1.272-.981a14.74 14.74 0 0 0-3.127 7.606c2.465-.557 4.637-3.339 6.519-8.374l-.477 1.59c-1.06 3.869-1.325 7.393-.742 10.573 1.272-1.034 2.093-2.173 2.438-3.418.53-1.855.742-4.187.663-7.023-.053-1.722-.345-2.676-.901-2.862.026-.583-.133-.954-.424-1.139 3.18-1.934 5.432-2.888 6.704-2.888h.61c-.133.583 0 1.166.371 1.749.53.768 1.537 1.882 3.047 3.286 1.351 1.298 2.252 3.418 2.703 6.36.769-.318 1.113-1.67 1.034-4.055-.106-1.775-.663-3.418-1.723-4.956-.716-1.087-1.855-1.934-3.392-2.491 2.597-.027 4.796.291 6.651.954zm6.439 4.293c-.928.662-1.669 1.696-2.279 3.153l.079 2.147c.477.159.981.053 1.484-.318.663-.477 1.643-1.458 2.915-2.915 1.139-1.272 2.994-2.093 5.512-2.464-.239-.769-1.378-1.166-3.445-1.14-1.484.027-2.915.53-4.266 1.537zM11.392 35.66c-.424 1.033-.663 2.2-.742 3.551-.159 3.737-.424 7.049-.769 9.99 3.047-2.067 4.744-7.261 5.115-15.582a4.15 4.15 0 0 1-1.272.927c.291-.477.477-.98.609-1.457-1.352.238-2.332 1.113-2.941 2.57zm24.062-11.263c-1.404-2.862-2.571-4.452-3.498-4.797-.344-.132-.742-.212-1.245-.238l-1.325.106c1.511-.53 3.021-.954 4.558-1.193 2.438-.397 3.657-.636 3.684-.768s-.424-.132-1.352-.053c-3.18.318-5.963.795-8.321 1.457l.026.981.742-.212c-.026.238.026.397.159.477.252.142.434.382.504.662.503 1.908 1.908 4.16 4.187 6.784 1.139 1.272 2.942 2.067 5.406 2.385-.98-.848-2.173-2.73-3.524-5.592zm-7.5 11.554c0-5.565-.106-10.335-.291-14.257l-3.392.265c.186 3.763.291 8.533.318 14.257zm.345 14.946c0-5.565-.106-10.415-.291-14.549l-3.392.291c.186 3.948.291 8.692.291 14.257z" fill="#084"/><path d="M35.004 2.88l-5.618 6.917v1.166h5.353v1.06c0 .371-.053.61-.185.716-.159.185-.636.265-1.431.291v.822h4.531v-.822l-1.192-.106c-.291-.106-.424-.397-.424-.901v-1.06h2.014V9.876h-2.014V2.854h-1.033zm-.291 7.023h-4.081l4.081-5.141z" fill="#b32"/><path d="M27.637 21.43c0-5.565-.106-10.335-.291-14.257l-3.392.265c.186 3.763.291 8.533.318 14.257zM23.874 2.377l.026 4.664 3.366-.265-.026-4.399z" fill="#084"/><path d="M4.635 5.265c.106-.053.185-.053.212-.053.689 0 2.014 1.113 2.014 1.696 0 .265 0 .265-.583.901l-.689.848c0 .053.053.08.133.08.185 0 1.166-.371 1.908-.769.239-.106.424-.159.53-.159.424 0 .98.742.98 1.272 0 .345-.239.477-.98.504-1.511.318-2.332.609-3.048 1.087 1.087.901 1.272 1.113 1.272 1.669 0 .265 0 .265-.185 1.988l-.583 2.332c-.053.053-.133.08-.159.08-.265 0-1.192-1.405-1.192-1.802 0-.133.133-.53.318-1.139a4.69 4.69 0 0 0 .239-1.484c0-.848-.133-1.034-.689-1.113a6.34 6.34 0 0 0-1.458.662c-.265.159-.53.292-.689.292-.291 0-.503-.742-.503-1.749 0-.318.106-.424.45-.53.769-.238.848-.291 1.564-1.087.875-.954 1.352-1.828 1.352-2.412 0-.239-.053-.504-.318-1.06zm5.432-1.033c.026-.504.424-.928.901-.928.504 0 .821.239 1.272.848.371.53.556.98.556 1.352 0 .398-.185.822-.795 1.776-.371.583-.609 1.033-.609 1.113 0 .027.026.053.053.053s.053-.026.133-.053c.053-.026.238-.079.556-.185l1.537-.477 1.882-.318c.821 0 1.829.848 1.829 1.563 0 .212-.239.371-.504.371-.159 0-.424-.026-.716-.053-.265-.053-.53-.053-.795-.053-.583 0-1.06.053-2.12.318.504.424.715.769.715 1.087 0 .132-.053.371-.133.715-.106.238-.159.98-.185 1.775-.08 3.895-.212 4.638-.901 5.91-.291.556-.61.98-.742.98-.106 0-.185-.185-.185-.424 0-.132.053-.318.053-.556.265-1.643.424-4.267.424-6.917 0-1.325-.053-1.457-.795-1.563l-.371.106-.345.212-.795.45c-.212.133-.318.186-.398.186-.239 0-.424-.371-.424-.795 0-.768.026-.822.61-1.484.424-.53.53-.715.954-2.12.398-1.325.504-1.829.504-2.332 0-.292-.212-.557-.424-.557-.053 0-.239.053-.61.106z" fill="#339"/></svg>