<svg xmlns="http://www.w3.org/2000/svg" width="150" height="200" viewBox="0 0 39.7 52.9"><g transform="matrix(.265 0 0 .265 47.5 -90.4)"><path d="M-44.4 352l-21.2 26.1v4.4h20.2v4c0 1.4-.2 2.3-.7 2.7-.6.7-2.4 1-5.4 1.1v3.1h17.1v-3.1l-4.5-.4c-1.1-.4-1.6-1.5-1.6-3.4v-4h7.6v-4.1h-7.6v-26.5h-3.9zm-1.1 26.5h-15.4l15.4-19.4z" fill="#b32"/><path d="M-161 361c.4-.2.7-.2.8-.2 2.6 0 7.6 4.2 7.6 6.4 0 1 0 1-2.2 3.4l-2.6 3.2c0 .2.2.3.5.3.7 0 4.4-1.4 7.2-2.9.9-.4 1.6-.6 2-.6 1.6 0 3.7 2.8 3.7 4.8 0 1.3-.9 1.8-3.7 1.9-5.7 1.2-8.8 2.3-11.5 4.1 4.1 3.4 4.8 4.2 4.8 6.3 0 1 0 1-.7 7.5-1.7 8.3-1.7 8.3-2.2 8.8-.2.2-.5.3-.6.3-1 0-4.5-5.3-4.5-6.8 0-.5.5-2 1.2-4.3a17.7 17.7 0 0 0 .9-5.6c0-3.2-.5-3.9-2.6-4.2-2.7.9-3.8 1.5-5.5 2.5-1 .6-2 1.1-2.6 1.1-1.1 0-1.9-2.8-1.9-6.6 0-1.2.4-1.6 1.7-2 2.9-.9 3.2-1.1 5.9-4.1 3.3-3.6 5.1-6.9 5.1-9.1 0-.9-.2-1.9-1.2-4zm20.5-3.9c.1-1.9 1.6-3.5 3.4-3.5 1.9 0 3.1.9 4.8 3.2 1.4 2 2.1 3.7 2.1 5.1 0 1.5-.7 3.1-3 6.7-1.4 2.2-2.3 3.9-2.3 4.2 0 .1.1.2.2.2s.2-.1.5-.2c.2-.1.9-.3 2.1-.7l5.8-1.8 7.1-1.2c3.1 0 6.9 3.2 6.9 5.9 0 .8-.9 1.4-1.9 1.4-.6 0-1.6-.1-2.7-.2-1-.2-2-.2-3-.2-2.2 0-4 .2-8 1.2 1.9 1.6 2.7 2.9 2.7 4.1 0 .5-.2 1.4-.5 2.7-.4.9-.6 3.7-.7 6.7-.3 14.7-.8 17.5-3.4 22.3-1.1 2.1-2.3 3.7-2.8 3.7-.4 0-.7-.7-.7-1.6 0-.5.2-1.2.2-2.1 1-6.2 1.6-16.1 1.6-26.1 0-5-.2-5.5-3-5.9-.6.2-1.2.3-1.4.4l-1.3.8c-1 .6-1.9 1.2-3 1.7-.8.5-1.2.7-1.5.7-.9 0-1.6-1.4-1.6-3 0-2.9.1-3.1 2.3-5.6 1.6-2 2-2.7 3.6-8 1.5-5 1.9-6.9 1.9-8.8 0-1.1-.8-2.1-1.6-2.1-.2 0-.9.2-2.3.4z" fill="#339"/><g fill="#084"><path d="M-103 436l9.1-1.8-20.8-36.9-6.1 3.3zm6.6-3.1l-5.6.9-16.1-32.7 2.5-1.3zm22.4 17.8l12.2 7.6-5.2-53.4-9.7-3.6zm5-44.5l4 47.2-6.8-4.4-3.2-45.4zm11.1 129l-.2-5.2 1.7 5.1c2.3.1 14.6-.6 14.5-.5L-59 502l-3-41.6-12.1-7.2 1.1 21.9-19.9-38.4-9.1 1.7 22.6 45.3-22-19.1.1-1.3c.6-6.2-.7-12.5-3.9-17.9l-7.5-12.9 1.3 14.8a23.4 23.4 0 0 0 3.5 10.5l2.6 4.2-14.4-11.3-.7-5c-.8-5.3-3-10.3-6.5-14.4l-6-7 1.2 8.4c.8 5.3 3 10.3 6.5 14.3l1.3 1.5-14.6-5.3-.3-.3c-4.3-4.8-10.3-7.9-16.7-8.6l-20.6-2.3 14.5 9.5c6.3 4.2 14 5.9 21.5 4.8l1.7-.2 15.5 5.5 17.4 14.8-13-1.4c-5.1-.5-10.2.3-14.8 2.4l-21.6 10 26.5 2.6a25.8 25.8 0 0 0 23.1-9.9l1.8-2.3 17.2 15.7-12.5 1.5c-7.3.9-14.1 4.2-19.4 9.3l-21.3 20.7 42.7-14.7c4.8-1.6 8.8-4.9 11.5-9.1l2.9-4.6 7.1 6.2 2 3.8 10-2.4-7.3-14-1.1-22.2 7.2 4.3 2.1 33.9-10 2 .5 1.1.9 36.1c.1-.1 11.4.2 13.1-.2zm-8.8-42.7l-5.8.6-27-53.5 5.2-1zm3.4 5.7l17.5 34c-1.3.7-3 1.1-5 1.1h-2.6l-15.9-33.9zm-5.2 8.3l7.7 17.4.5 9.4h-7.1zm-3.3-157c-.1 0-1.2 0-1.6.1l3.6 50.9-4.8-2.2-2.5-48.5c-.8 0-1.6.1-2.4 0l2.8 50.2 9.5 3.6z"/><path d="m-79.3 348h7.6v1.7h-7.6z"/></g></g></svg>