<svg xmlns="http://www.w3.org/2000/svg" width="150" height="200" viewBox="0 0 39.7 52.9"><g transform="matrix(.265 0 0 .265 47 -90.3)"><path d="M-46.4 352l-21.2 26.1v4.4h20.2v4c0 1.4-.2 2.3-.7 2.7-.6.7-2.4 1-5.4 1.1v3.1h17.1v-3.1l-4.5-.4c-1.1-.4-1.6-1.5-1.6-3.4v-4h7.6v-4.1h-7.6v-26.5h-3.9zm-1.1 26.5h-15.4l15.4-19.4z" fill="#b32"/><path d="M-161 361c.4-.2.7-.2.8-.2 2.6 0 7.6 4.2 7.6 6.4 0 1 0 1-2.2 3.4l-2.6 3.2c0 .2.2.3.5.3.7 0 4.4-1.4 7.2-2.9.9-.4 1.6-.6 2-.6 1.6 0 3.7 2.8 3.7 4.8 0 1.3-.9 1.8-3.7 1.9-5.7 1.2-8.8 2.3-11.5 4.1 4.1 3.4 4.8 4.2 4.8 6.3 0 1 0 1-.7 7.5-1.7 8.3-1.7 8.3-2.2 8.8-.2.2-.5.3-.6.3-1 0-4.5-5.3-4.5-6.8 0-.5.5-2 1.2-4.3a17.7 17.7 0 0 0 .9-5.6c0-3.2-.5-3.9-2.6-4.2-2.7.9-3.8 1.5-5.5 2.5-1 .6-2 1.1-2.6 1.1-1.1 0-1.9-2.8-1.9-6.6 0-1.2.4-1.6 1.7-2 2.9-.9 3.2-1.1 5.9-4.1 3.3-3.6 5.1-6.9 5.1-9.1 0-.9-.2-1.9-1.2-4zm20.5-3.9c.1-1.9 1.6-3.5 3.4-3.5 1.9 0 3.1.9 4.8 3.2 1.4 2 2.1 3.7 2.1 5.1 0 1.5-.7 3.1-3 6.7-1.4 2.2-2.3 3.9-2.3 4.2 0 .1.1.2.2.2s.2-.1.5-.2c.2-.1.9-.3 2.1-.7l5.8-1.8 7.1-1.2c3.1 0 6.9 3.2 6.9 5.9 0 .8-.9 1.4-1.9 1.4-.6 0-1.6-.1-2.7-.2-1-.2-2-.2-3-.2-2.2 0-4 .2-8 1.2 1.9 1.6 2.7 2.9 2.7 4.1 0 .5-.2 1.4-.5 2.7-.4.9-.6 3.7-.7 6.7-.3 14.7-.8 17.5-3.4 22.3-1.1 2.1-2.3 3.7-2.8 3.7-.4 0-.7-.7-.7-1.6 0-.5.2-1.2.2-2.1 1-6.2 1.6-16.1 1.6-26.1 0-5-.2-5.5-3-5.9-.6.2-1.2.3-1.4.4l-1.3.8c-1 .6-1.9 1.2-3 1.7-.8.5-1.2.7-1.5.7-.9 0-1.6-1.4-1.6-3 0-2.9.1-3.1 2.3-5.6 1.6-2 2-2.7 3.6-8 1.5-5 1.9-6.9 1.9-8.8 0-1.1-.8-2.1-1.6-2.1-.2 0-.9.2-2.3.4z" fill="#339"/><g fill="#084"><path d="M-88.1 496l1.1-1.9c-.1-.6-.9-.8-2.6-.6l-3.6 1.7c-.4.2-1.6 1.4-3.4 3.7-1.1 1.9-2.7 5.8-4.7 11.7l9.5-11.3c1.9-1.4 3.2-2.5 3.7-3.3zm13-5.2c.1.6.7.8 1.9.7 1.5-.2 2.1-1.2 1.9-3.1-.1-.9-.4-2.3-1-4.3l-1-4.7-.1-.6v-1.2c0-.7 0-1.1-.1-1.4.1-1.3 0-3.7-.3-7.2s-.4-5.9-.1-7.4c0-.1.1-.5.3-1s.3-1 .3-1.5v-.2c-.2-.3-.3-.5-.3-.6-1.3-2-3.9-2.9-7.7-2.4-5.8.6-8.6 2-8.3 4 0 .3.5.8 1.3 1.5s1.4 1.3 1.6 1.7a32.9 32.9 0 0 1 .7 3.6l.5 4.1c.1.4.1 1.2.1 2.2a14.4 14.4 0 0 0 .2 2.4l.1.9.2 1.3c.2.3.3.9.5 1.9.1.6.1 1.4.2 2.4l.1 2.2.4 3.5.3 2.4.1 1.1c0 .1-.1.4-.2.9s-.2.9-.2 1.2c0 .4.4 1.1.9 2.2l.2 1.3.3 2.4.6-.5 5-5.6c.9-1.5 1.5-2.2 1.6-2.2z"/><path d="M-89.4 529c.6-3.4 1.6-7.3 2.9-11.7 1.6-5.4 3.1-9.1 4.4-11 .1-.3.5-.9 1.1-1.8.7-.9 1.2-1.6 1.6-2 1.4-1.8 2.1-2.9 2.1-3.5-.1-.4-.7-.9-2-1.4s-2.3-.7-3-.7c-2.8.5-4.9 1.9-6.3 4.2-2.9 4.4-3.9 10.9-2.9 19.3.4 3.3 1.1 6.1 2.1 8.6zm20.7-91.1c.6.5 1 1 1.2 1.4 2.2 2.4 4 3.5 5.4 3.3 1.6-.2 2.8-1.3 3.5-3.2.1-.4.1-1 0-1.5-.2-1.3-1.7-2.6-4.5-3.9l-3.4-1.6c-1.2-.2-3.2-.1-6.1.2l.2.2 2.5 3.9c.2.3.6.7 1.2 1.2zM-88.6 448c-.5.6-.7 1.3-.7 2 .1.6.4 1.1.8 1.4.9 1.4 2 2 3.4 1.8a6.14 6.14 0 0 0 2.8.4c1.5-.2 2.7-.7 3.7-1.5.1 0 .9-.5 2.3-1.6 1.1-.8 1.6-1.6 1.6-2.1l-.3-.4-.5-.6-.5-4.3c-.5-4.3-.7-8.3-.5-12-.1-.4 0-.9.1-1.3s.1-.8.1-1.1c-.1-.4-.3-.6-.7-.6h-.2a284 284 0 0 0-8 7c-1.5 1.3-2.4 2.2-2.6 2.5-.1 1.6-.1 3.2.1 4.8-.2.6-.3 1.4-.2 2.4 0 .1.1.6.2 1.3s.1 1.2-.1 1.3zm14.5 48.2l-.2.5c-.3.3-.4.8-.3 1.3.2 2 1.4 3.3 3.4 3.8.3.4 1 .8 2.1 1.3l2.3 1.3c.3.1 1 .4 2.1.7 1.1.4 1.9.8 2.4 1.2 1.2 1 2.3 2.7 3.3 4.9 1.6 2 2.8 3.8 3.6 5.3l5.8 11.2h.4l-.5-4.5c-1.6-14-6.1-23.4-13.3-28.5-.5-.1-1.1-.3-2-.8-.9-.4-1.5-.7-1.8-.8-1.7-.3-2.8-.3-3.4-.3-3.3.4-4.8 1-4.7 2.1l.7.1c.2.4.3.7.3.9s-.1.3-.2.3zm34.3 6.5l4.5 2.9c1.3 1.2 2.2 1.7 2.7 1.7-.1-.7-.7-1.7-1.9-2.8-2.8-4.9-6-9-9.6-12.3-.4-.5-2-1.9-4.8-4.1-2.7-2.5-4.7-3.6-6.1-3.5-.3 0-.9.1-1.8.3s-1.4.3-1.5.3l-.7-.1c-.3 0-.6.1-.8.1s-.6.1-1.2.2-1 .2-1.3.3c-1.6.9-2.2 2.5-1.9 4.8.3 2.2 1.5 3.1 3.7 2.9.3 0 .6-.1 1-.2s.7-.2.9-.2 1 .2 2.2.6c2.2.6 6.6 3 13.3 7.1.4-.1 1.5.6 3.3 2zm-53-63.7c-6.3 7-11.1 13.7-14.6 20.2-3.5 6.1-6.9 12.6-10.3 19.7-1.1 2.4-1.5 4.2-1.4 5.4.1.7.2 1.2.4 1.5 0 .3.5.7 1.3 1.2s1.3.7 1.4.7c1.1-1.3 1.6-2.1 1.5-2.4l-.1-.4c-.2-.4-.3-.8-.3-1.1-.1-1.1-.2-2-.1-2.6.4-1.6 1.2-3.6 2.5-5.7.9-2.4 3.5-8.1 7.7-17 3.4-6.9 8.1-13.5 14.2-19.7 11.3-11.6 25.4-21.2 42.4-28.9-17.3 6.1-32.2 15.8-44.6 29.1zm3.5-14l.1 2.7c0 .3.1.9.1 1.7 0 .9.1 1.5.1 2 .1.7.2 1.2.4 1.5.3 0 .7-.2 1.1-.6l.4-.3 7.4-6.1 1.2-1 1.7-1.3c.1-.4 0-2-.3-4.8l.3-5.3c.1-2 0-3.4 0-4.1-.1-.6-.1-1.4-.2-2.4 0-1 0-1.8.3-2.4l.7-1.8c-.2-2-.9-3-1.9-2.8-.4 0-1.5.3-3.1.8l-3.1.3c-2.2.2-3.5.6-3.9 1.1-.1.3-.3 1.9-.6 4.7.1 4.7-.1 9.8-.5 15.4-.2.5-.2 1.5-.2 2.7zm-.1-38.5c.1.4.1 1.3.2 2.5l.2 2.7c-.3 1.6-.3 3-.2 4.2 0 .3.1.5.3.6s.3.3.3.6a11.7 11.7 0 0 0 2.7 1.5c1.2.3 2.2.4 3 .3 4.6-.5 7-1.9 7.2-4.1L-77 393c0-.1-.1-.6-.3-1.3s-.3-1.2-.3-1.6-.2-1-.3-1.9c-.2-.9-.3-1.5-.3-1.8-.5-4.6-.6-13.3-.1-26-.1-.4 0-.9 0-1.5.1-.6.1-1.1.2-1.5v-.9c0-.1.2-.5.8-1.1.5-.6.9-1.2 1.1-1.8-.1-.7-.7-1.8-2-3.3-.1 0-.5 0-1-.1s-1-.3-1.3-.5c-2.6.7-4.7 1.6-6.3 2.5-1.5 1-2.2 2.3-2 4 0 .3.2.6.4.9.3.3.4.6.4.9l.1.6c-.1.2-.2.3-.2.5-.3 1.6-.4 4.5-.3 8.6-.7 8.2-1.1 14.5-1 18.8z"/><path d="M-145 485c1.1-.8 2.1-1.8 2.8-2.7 1.7-1.2 2.5-2.2 2.4-2.9-.2-.6-.9-.8-2.1-.6-.7.1-1.6.2-2.4.5l-1.6.4c-.2 0-.6 0-1.1-.1s-.9-.1-1-.1c-1.2.4-2.1 1.1-2.9 2.1-1.9 1.7-3.5 4.5-4.9 8.4-.1.2-.2.5-.1.9s-.1.7-.3.9c0 .1-.4 1-1.3 2.5l-3.5 8.9c5-7.1 10.4-13.1 16-18.2zm-8.9-54.1c-.3-.1-.7-.5-1-1.1-.4-.6-.6-1-.8-1.1-3.4-3.4-8.4-7.1-14.8-11 .8.8 1.9 2.1 3 3.8l2.8 4.1c3.5 4 5.5 6.5 6.1 7.4l1.5 3.1c0 .1.4.6 1.1 1.4s1.1 1.3 1.1 1.6l.1.4c0 .1-.1.4-.3.9s-.4.8-.3 1.1c.1 1 .7 1.7 1.8 2 .5.4 1.1.5 1.9.5 1-.1 2.5-.6 4.4-1.4 1.7-1.1 2.4-2.7 2.1-5-.1-.7-.4-1.6-1-2.7-.2-.1-1.4-.7-3.8-1.8-1.8-.4-3-1.1-3.9-2.2zm-15.4 65.3l4-3.5 6.6-5.5c1.3-1.6 2-2.6 2.1-2.9l.1-1.3.3-1.3-2.6-.1c-.2 0-.5.1-.9.3l-1.3.7c-.5.3-.9.4-1.2.5l-5.7 7.4c-.6.9-1.4 2.4-2.3 4.3l-1.9 3.6v.2c.1-.3 1-1.1 2.8-2.4zm34.1-8.4c-.3-2.2-1-3.8-2.2-5-1.5.5-2.2.8-2.2.9-1 .5-1.6 1.9-1.8 3.9-.5 2.2-.5 4.9-.2 8.1l1.1 6.7 1.1 6.4.2 1.7c1.2-3.9 2.4-9.5 3.7-16.8 0-.1 0-1 .2-2.5.2-1.6.2-2.7.1-3.4zm93.9-57.1l-5.4-3.8c-5-2.9-9.3-4.9-12.9-5.8-2.1-.1-3.7 0-4.7.1-1.2.1-2.4.4-3.5.8-1.5 1.2-2.2 2.4-2 3.7v.2c.1.6 1 1.2 2.7 1.9 1.3.4 3.1.9 5.6 1.2 2.5.4 3.8.7 4.2 1 1.9.4 9.1 2.1 21.6 5.1-.5-.2-1.3-.9-2.6-2zm-57.6-.2c-.8-.6-1.5-1-2.2-1.1-.6-.4-1.7-.5-3.2-.3-5.7.6-11 2.7-16 6.4 1.5 0 4.2-.2 8-.4 3.8-.3 6.6-.4 8.4-.3a10.1 10.1 0 0 0 3.9.2c1.8-.2 2.6-1 2.4-2.5 0-.7-.5-1.4-1.3-2zm-16.2 22.2c3.5-3.2 6.3-5.5 8.4-6.9 3-2.4 4.7-4 5.1-4.9l-.1-.9c-.1-.7-.4-1.3-.9-1.7-.7-.9-2.4-1.3-5.1-1l-3.4 1.7c-4 2.8-7.8 9.4-11.2 19.8 1.3-.8 3.7-2.9 7.2-6.1zm-10.1 32.1c-1.8.3-2.4 2.6-1.9 6.8.2 1.9.6 3.6 1.3 5.1.6 1.5 1.7 3.2 3.1 4.9s2.2 2.9 2.4 3.4c4.3 6.8 6.8 13.9 7.7 21.2l.4 3c.1 1.1.4 1.8.7 1.9.2.8 1.4 1.2 3.5.9 3.7-.4 6.8-2.1 9.1-4.9.9-1.1 1.4-2 1.5-2.6 0-.3-.9-1.5-2.7-3.6-3.7-5.9-7.5-14.8-11.5-26.7-1.2-3.9-2.4-6.4-3.6-7.3-3-1.8-6.3-2.5-10-2.1zm1.9-10.7c-1.7-1.4-4-4.5-7-9.3-4.2-6.4-6.7-11.2-7.4-14.5-.1-.4-.2-.9-.4-1.3s-.3-.7-.3-.8l.4-.3c0-.3-.1-.5-.1-.6l-.3-2.2-.1-.9c-.4-1.1-1.5-1.6-3.3-1.4-4.3.5-7.2 1-8.6 1.6-2 1.1-2.9 2.3-2.7 3.6 0 .1.8 1.4 2.5 3.7 7.8 10.9 11.8 16.9 12.3 17.9 3.3 6.5 5 10.1 5.1 10.8s0 1.2-.3 1.6l.1.6c.2 1.4 1.7 2 4.7 1.7l1.1-.1c2.4-.3 3.8-.7 4.4-1.4 1.7-1.1 2.4-3 2-5.7 0-.5-.7-1.5-2.1-3zm44.8 52.7c-.4 1-.5 2-.3 3 .1.8.5 1.5 1 2 1 1.9 2.1.7 3.2.3.7.4 1.6.5 2.5.3 1.3-.4 4.7.6 5.8-1 .8-1.3 1.2-2.4 1-3.2l-.3-.6-.5-.8-2.1-10.2c-1.1-6.2-1.8-12-2.2-17.3-.1-.6-.2-1.3-.1-1.9 0-.7 0-1.2-.1-1.6-.1-.6-.4-.9-.7-.8l-.2.1c-2.4 4.2-4.3 7.8-5.9 10.9-1.1 2.1-1.8 3.3-1.9 3.8.1 2.4.4 4.7.8 7-.1.9 0 2.1.2 3.5 0 .2.1.8.3 1.9.2 1 .2 3.7.1 3.9z"/></g></g></svg>