<svg xmlns="http://www.w3.org/2000/svg" width="150" height="200" viewBox="0 0 39.7 52.9"><path d="M21.401 17.19c2.094-1.643 3.233-2.968 4.77-5.512.61-.98.928-1.563.928-1.749 0-.053-.053-.106-.212-.132l.026-.133c.477-.344.715-.477.874-.477s.318.08.583.239l.133-.318c.053-.186.106-.292.133-.292l.291-.079c.715-.424.715-.424.715-.504 0-.053-.159-.132-.424-.238-.318-.133-.53-.397-.769-.874v-.08l1.881-.954c.079-.556.079-.636.106-1.219-.822-.212-1.087-.318-1.404-.795V3.94l.45-.238.716-.61c.291-.238.716-.397 1.192-.397.715 0 1.352.424 1.352.901 0 .238-.053.265-.663.715a.61.61 0 0 0-.318.53l-.106.822h.106c.45 0 .662.08.927.424.133.159.265.398.265.53 0 .212-.212.371-1.007.822-.318.212-.424.344-.503.609.106-.053.159-.08.186-.08l.45-.053.583-.106c.371 0 1.166.795 1.166 1.166 0 .186-.318.504-.53.504l-1.749-.106c-.053 0-.265.053-.583.185-1.564.557-1.776.61-2.2.61-.318 0-.344.026-.477.265.795.079 1.113.159 1.723.45.238.132 1.06.689 2.385 1.617.715.477 1.352.822 1.881 1.007l2.332.875c.715.265 1.352.715 1.352.901 0 .212-.133.292-.663.345l-2.093.212c-.61 0-.981-.133-1.564-.53-1.087-.768-1.298-.98-2.597-2.385-1.06-1.166-1.934-1.617-3.074-1.617h-.239l-1.086 1.563c.451-.053.716-.132 1.299-.424.318-.132.583-.238.769-.238.504 0 1.245.662 1.245 1.087 0 .239 0 .239-1.351.716l-.927.318-1.113.504c-.053.053-.318.132-.609.265l-.079-.08.477-.397.663-.61c.133-.106.186-.185.186-.238s-.053-.159-.159-.238l-.583-.504c-1.987 2.597-3.789 4.081-5.009 4.187h-.079zm1.988-8.957c.451-.397.689-.556 1.272-.927.822-.53 1.034-.715 1.034-.954 0-.185 0-.185-.795-.503-.265-.106-.53-.345-.901-.848l.026-.133c.848-.265.927-.318 1.802-1.166.239-.212.424-.345.583-.345.133 0 .769.318 1.007.53.318.265.45.477.45.742 0 .212-.053.318-.503.901-.318.424-.451.715-.636 1.352l.318.345c.079.106.159.159.212.159.133 0 .53-.742.927-1.723l.106.027c-.291 1.749-.53 2.358-1.749 4.028-1.139 1.59-1.988 2.412-2.411 2.412-.291 0-.503-.424-.503-1.007 0-.53.026-.53.424-.822.61-.477.981-.954 1.087-1.325-.901-.053-1.245-.159-1.802-.609zm1.881 7.341c.212.132.318.185.477.185.106 0 .265-.053.503-.185 1.193-.557 3.471-1.272 4.081-1.272.557 0 1.458.715 1.458 1.192 0 .106-.053.133-.53.61-.053.053-.133.238-.239.53-.424 1.139-.795 1.935-1.404 2.862-.291.477-.477.636-.715.636-.265 0-.716-.662-.716-1.06 0-.132.106-.318.239-.53.636-.822.821-1.166 1.166-2.147l.186-.609c0-.08-.079-.133-.239-.133-.662 0-1.351.318-2.915 1.352-.239.159-.451.238-.636.238-.424 0-.901-.583-.901-1.087 0-.159.053-.345.106-.61z" fill="#b32"/><path d="M8.31 12.95c-.662 0-1.113-.027-1.404-.08-.398-.106-.61-.371-.61-.822V2.721c-.822.424-2.12.689-3.843.795v.848h1.564c.477 0 .715.185.715.583v7.102c0 .344-.08.583-.239.662-.238.159-.848.239-1.855.239v.874h5.645v-.874z" fill="#084"/><path d="M12.55 25.935c1.325-.822 2.571-.212 3.843 1.51.636.848 1.245 1.192 2.146.874l9.54-3.392c.318-.106.636-.318.954-.477 3.471-1.669 3.445-1.643 6.36.98l2.358 2.041a1.13 1.13 0 0 1-.132 1.828l-2.756 1.696-3.578 2.014c-.398.239-.822.636-1.007 1.06l-1.802 4.452c-.398 1.166-.769 1.087-1.299.132l-1.14-2.146c-.133.053-.344.265-.477.318.238 1.166.689 2.12.927 3.313l-.398.185c-.609-.715-1.166-2.385-1.643-2.915-1.272.477-.821 1.987-1.007 2.623-.186.663-.344 1.775-.716 1.882-.768.212-1.988.159-2.464-.345-1.166-1.192-2.014-1.007-3.259-.185-1.855 1.192-3.763 2.544-6.174 2.226-.636-.079-1.378-.398-1.802-.848-1.961-2.12-4.664-7.049-4.32-8.559.265-1.113.928-1.458.928-1.458-.53-3.63-.159-4.717.53-4.982 1.299-.503 1.484-1.272 1.431-2.438-.026-.556.185-1.113.291-1.643l.556.079.45 6.996 2.624-.768c-1.192-2.014-.08-3.922.106-5.857.026-.185.424-.318.663-.477.159.265.477.503.477.768.026.451-.106.954-.212 1.511zm.742 16.059l23.532-13.621c-.583-1.299-1.325-1.007-2.041-.663l-20.061 8.983c-1.404.636-2.597-.026-3.392-2.093-.53-1.404.795-1.404 1.537-1.696l18.55-7.34c.424-.159.795-.424 1.192-.636-.079-.159-.133-.318-.212-.503l-1.219.397-8.745 3.79c-1.299.53-2.756 1.192-4.054 1.033-1.776-.185-3.286.318-4.823.848l-5.83 2.252zm20.935-15.449l-.238-.609-21.147 8.427c.371.98.663 1.431 1.696.954l16.483-7.367zm-28.09 7.341c-.504.291-.636.954-.398 1.457l.239.45 3.763 6.334c.08.132.504.689.689.742.742.212 1.484-.477 1.192-1.192-.026-.026-.318-.556-.318-.583l-3.763-6.227c-.424-.822-.875-1.298-1.405-.98zm1.749-2.65l-.424-1.855c-.212-.848-1.007-1.404-1.272-.477-.239.795.053 2.253.106 3.339.901-.477 1.034-.715 1.59-1.007zm4.16-2.623c0 .397.08.689.185.822L15.2 28.4l.079-.503c-.557-.265-1.59-1.537-1.908-1.352-.689.398-1.139.557-1.325 2.067zm8.268 10.945l-.239.556c.53.292 1.219.954 1.511.795.954-.477.663-1.352.265-2.226l-1.537.874zm6.227-3.604c-.026.159.239.292.212.451.291.397.901 1.643 1.007 1.511.424-.477.583-2.2.875-2.783l-.477-.185z" fill="#b27"/><path d="M13.875 18.515l-6.413.503-.159.451 2.332 1.749c.239.185.371.53.53.822-.345.132-.848.477-1.007.344-1.192-.901-2.465-1.775-3.365-2.915-.663-.822.318-1.908 1.67-1.987l3.763-.239c.848-.106 1.696-.397 3.021-.715l-2.412-3.63c-.715-.98-1.563-1.882-2.358-2.809l.556-.53c.928.742 1.961 1.405 2.782 2.279 3.419 3.71 3.259 5.83 1.378 10.547-.106.292-.663.424-1.007.636-.106-.424-.398-.901-.318-1.272.212-1.034.609-2.014 1.007-3.233zm12.19 22.445l.875 2.465 6.201-.901v-.636c-1.086-.238-2.226-.397-3.286-.742-.451-.132-.768-.662-1.139-1.034.477-.026.954-.132 1.404-.053 1.087.159 2.226.292 3.233.689.663.265 1.537.98 1.537 1.51 0 .556-.848 1.431-1.457 1.59-1.855.451-3.79.609-5.671.875-.239.026-.503.053-1.033.079 1.272 3.101 4.849 2.279 6.784 4.187-5.035 1.537-8.957-2.438-8.029-7.844.212-.053.397-.132.583-.185zM2.771 35.343c.106.583.371 1.166.265 1.696-.848 4.478.212 6.493 4.214 8.904 1.802 1.087 3.604 1.961 5.83 1.855 1.484-.079 2.703 1.219 2.889 2.703-.344-.053-.795 0-.927-.186-.821-1.034-1.908-1.219-3.18-1.431-3.021-.53-5.777-1.855-8.082-3.948-2.465-2.226-3.047-6.493-1.458-9.54.133 0 .291-.027.45-.053z" fill="#339"/><path d="M15.73 38.39a.98.98 0 1 1-1.961 0 .96.96 0 0 1 .98-.981.96.96 0 0 1 .98.981zm2.915-1.325a.98.98 0 1 1-1.961 0 .96.96 0 0 1 .98-.98c.53.026.981.45.981.98zm2.809-1.298a.98.98 0 1 1-1.961 0 .96.96 0 0 1 .981-.98c.538.009.972.443.98.98z" fill="#b27"/></svg>