<svg xmlns="http://www.w3.org/2000/svg" width="150" height="200" viewBox="0 0 39.7 52.9"><style><![CDATA[.G{stroke-miterlimit:10}.H{stroke-width:1.5}.I{fill:none}.J{stroke:#b27}.K{stroke-linecap:round}.L{fill:#b27}]]></style><g transform="matrix(.265 0 0 .265 59.1 11.7)"><path d="M-142 20.4c7.9-6.2 12.2-11.2 18-20.8 2.3-3.7 3.5-5.9 3.5-6.6 0-.2-.2-.4-.8-.5l.1-.5c1.8-1.3 2.7-1.8 3.3-1.8s1.2.3 2.2.9l.5-1.2c.2-.7.4-1.1.5-1.1l1.1-.3c2.7-1.6 2.7-1.6 2.7-1.9 0-.2-.6-.5-1.6-.9-1.2-.5-2-1.5-2.9-3.3v-.4c3.2-1.5 3.7-1.7 7.1-3.6.3-2.1.3-2.4.4-4.6-3.1-.8-4.1-1.2-5.3-3v-.5a42.8 42.8 0 0 1 1.7-.9c.9-.8 1.7-1.6 2.7-2.3 1.1-.9 2.7-1.5 4.5-1.5 2.7 0 5.1 1.6 5.1 3.4 0 .9-.2 1-2.5 2.7-.9.6-1.1 1.1-1.2 2-.2 1.5-.2 1.9-.4 3.1h.4c1.7 0 2.5.3 3.5 1.6.5.6 1 1.5 1 2 0 .8-.8 1.4-3.8 3.1-1.2.8-1.6 1.3-1.9 2.3.4-.2.6-.3.7-.3l1.7-.2 2.2-.4c1.4 0 4.4 3 4.4 4.4 0 .7-1.2 1.9-2 1.9l-6.6-.4c-.2 0-1 .2-2.2.7-5.9 2.1-6.7 2.3-8.3 2.3-1.2 0-1.3.1-1.8 1 3 .3 4.2.6 6.5 1.7.9.5 4 2.6 9 6.1 2.7 1.8 5.1 3.1 7.1 3.8 3 1.4 6 2.5 8.9 3.6 2.7 1 5.1 2.7 5.1 3.4 0 .8-.5 1.1-2.5 1.3-3 .4-6.8.8-7.9.8-2.3 0-3.7-.5-5.9-2-4.1-2.9-4.9-3.7-9.8-9-4-4.4-7.3-6.1-11.6-6.1h-.9l-4.1 5.9c1.7-.2 2.7-.5 4.9-1.6 1.2-.5 2.2-.9 2.9-.9 1.9 0 4.7 2.5 4.7 4.1 0 .9 0 .9-5.1 2.7l-3.5 1.2c-1.4.7-2.8 1.3-4.2 1.9-.2.2-1.2.5-2.3 1l-.3-.3c.8-.6 1.6-1.2 1.8-1.5l2.5-2.3c.5-.4.7-.7.7-.9s-.2-.6-.6-.9c-1.5-1.2-1.5-1.2-2.2-1.9-7.5 9.8-14.3 15.4-18.9 15.8h-.3zm7.5-33.8c1.7-1.5 2.6-2.1 4.8-3.5 3.1-2 3.9-2.7 3.9-3.6 0-.7 0-.7-3-1.9-1-.4-2-1.3-3.4-3.2l.1-.5c3.2-1 3.5-1.2 6.8-4.4.9-.8 1.6-1.3 2.2-1.3.5 0 2.9 1.2 3.8 2 1.2 1 1.7 1.8 1.7 2.8 0 .8-.2 1.2-1.9 3.4-1.2 1.6-1.7 2.7-2.4 5.1.5.5 1.1 1.1 1.2 1.3.3.4.6.6.8.6.5 0 2-2.8 3.5-6.5l.4.1c-1.1 6.6-2 8.9-6.6 15.2-4.3 6-7.5 9.1-9.1 9.1-1.1 0-1.9-1.6-1.9-3.8 0-2 .1-2 1.6-3.1 2.3-1.8 3.7-3.6 4.1-5-3.4-.2-4.7-.6-6.8-2.3zm7.1 27.7c.8.5 1.2.7 1.8.7.4 0 1-.2 1.9-.7 4.5-2.1 13.1-4.8 15.4-4.8 2.1 0 5.5 2.7 5.5 4.5 0 .4-.2.5-2 2.3-.2.2-.5.9-.9 2-1.6 4.3-3 7.3-5.3 10.8-1.1 1.8-1.8 2.4-2.7 2.4-1 0-2.7-2.5-2.7-4 0-.5.4-1.2.9-2 2.4-3.1 3.1-4.4 4.4-8.1.5-1.5.7-2 .7-2.3s-.3-.5-.9-.5c-2.5 0-5.1 1.2-11 5.1-.9.6-1.7.9-2.4.9-1.6 0-3.4-2.2-3.4-4.1 0-.6.2-1.3.4-2.3z" fill="#b32"/><path d="M-191 4.6c-2.5 0-4.2-.1-5.3-.3-1.5-.4-2.3-1.4-2.3-3.1V-34c-3.1 1.6-8 2.6-14.5 3v3.2h5.9c1.8 0 2.7.7 2.7 2.2V1.1c0 1.3-.3 2.2-.9 2.5-.9.6-3.2.9-7 .9v3.3h21.3V4.6z" fill="#084"/><g class="G H"><path d="M-81.4 108l1.2 1.3c2.1 2.5 1.3 5.9-2.1 8.7l-29.6 24.2c-1.2 1-2.5 2-3.9 2.6-3.1 1.5-5.6 1.2-7.4-.7l-49.2-53.3-38.8-43.4-5.2-5.5c-2.3-2.6-1.5-5.9 2.1-9l29.9-24.8c4.7-3.9 8.1-4.1 11.2-.8l36.1 39.5c3.3 3.9 40.4 44.6 55.7 61.2zm-45.5 19c.7-1.8 1.3-3.8 2.3-5.7 2.2-3.9 5.8-6.9 9.6-9.6 4.8-3.5 7.7-7.8 8.9-12.6.7-2.8 1.2-5.5 1.8-8.2.5-2.5.6-3.9 0-4.6L-142 45.1l-20.8-22.8c-.8-.9-1.5-1.1-3-.2-4.9 2.8-9.8 5.8-14.2 9.5-6.1 5.3-10.7 11.5-15.4 17.7-1 1.3-1.1 2.1-.2 3l8.8 9.6 50.8 55.6c2.9 3.3 6 6.4 9.1 9.5zm30.1-31.7l-.9 5.4c-.7 4.2-2.9 8.1-6.8 11.5-2.4 2.1-4.9 4.1-7.4 6.2-2.6 2.2-5 4.6-5.9 7.5-1.6 5.3-4 7.5-.2 11.8.4.4.7.8 1.1 1.2 1.8 1.9 4.3 1.7 7.1-.5l25.7-20.9c3.2-2.6 3.6-4.8 1.6-7l-8.5-9.3c-2.4-2.7-3.1-3.2-5.8-5.9zm-104-49.3c.5-.7.9-1.2 1.3-1.7 4.3-5.1 8.4-10.4 13-15.3 4.4-4.6 10-7.9 15.5-11.2 2.7-1.6 2.8-1.6 1.3-3.3l-5.4-5.9c-2-2.2-4.3-2.1-7.4.5l-25.9 21.3c-2.6 2.2-3.1 4.3-1.4 6.2 1.1 1.2 2.1 2.4 3.2 3.5 1.9 2 3.7 3.9 5.8 5.9zm85.8 96.6c-1.4-1.1-3-2.1-4.3-3.3-1.8-1.8-3.4-3.7-5.1-5.5l-89-97.7c-2.2 1.4-2.6 2.4-1.4 3.9l23.1 25.9 60.3 66.4 10.3 10.9c1.7 1.4 4.3 1.2 6.1-.6zm-82.7-93c.8-1 1.5-1.8 2.1-2.7 7.4-10.6 16.7-19.6 28.8-25.9 1-.5 1.6-1.1 1.1-1.9-.5-.7-.8-1.7-2.4-.8-5.8 3.2-11.3 6.7-16.3 11-5.5 4.8-9.5 10.4-13.6 16-2 2.6-2 2.6.3 4.3zm76.2 83c.1-.9.2-1.5.3-2.1.5-3.3 1-6.7 3.8-9.8 2.5-2.7 5.3-5.3 8.3-7.7 5-3.9 8.5-8.2 9.2-13.6.3-2.4.7-4.9.9-7.3 0-.5-2.4-2.7-2.6-3.1-.7 2.5-.9 5.5-1.4 7.9-1 5.4-3.5 10.3-9 14.5-1.9 1.5-3.7 3.2-5.6 4.8-4.2 3.4-6.4 7.3-7 11.7-.2 1.5 1.4 3.8 3.1 4.7z" fill="#339" stroke="#339"/><path d="m-197 46.6 74.4 79.9" class="I J K"/></g><g class="L"><circle cx="-197" cy="46.6" r="1.7"/><circle cx="-123" cy="126" r="1.7"/></g><path d="m-193 41.5 73.4 79.1" class="G H I J K"/><g class="L"><circle cx="-193" cy="41.5" r="1.7"/><circle cx="-120" cy="121" r="1.7"/></g><path d="m-189 36.7 73.8 79.5" class="G H I J K"/><g class="L"><circle cx="-189" cy="36.7" r="1.7"/><circle cx="-116" cy="116" r="1.7"/></g><path d="m-180 27.9 74.1 80" class="G H I J K"/><g class="L"><circle cx="-180" cy="27.9" r="1.7"/><circle cx="-106" cy="108" r="1.7"/></g><path d="m-175 24.2 72.1 77.6" class="G H I J K"/><g class="L"><circle cx="-175" cy="24.2" r="1.7"/><circle cx="-103" cy="102" r="1.7"/></g><path d="m-170 21 67.7 74.1" class="G H I J K"/><g class="L"><circle cx="-170" cy="21" r="1.7"/><circle cx="-102" cy="95.1" r="1.7"/></g><path d="m-185 32.2 74.4 79.8" class="G H I J K"/><g class="L"><circle cx="-185" cy="32.2" r="1.7"/><circle cx="-111" cy="112" r="1.7"/></g></g></svg>