<svg xmlns="http://www.w3.org/2000/svg" width="150" height="200" viewBox="0 0 39.7 52.9"><path d="M20.235 9.24c.265.053.451.053.609.053.689 0 .689 0 4.267-2.279l.186-1.802c0-.61-.133-.901-.716-1.59v-.079c.186-.08.345-.133.424-.133.795 0 2.041 1.087 2.041 1.802 0 .053-.026.159-.053.291l-.106.371c-.026 0-.026.133-.053.292.715.318 1.219.742 1.219 1.139 0 .053-.053.159-.133.239-.133.079-.291.212-.53.318-.239.133-.61.398-1.087.742l.053.822c0 .291 0 .344-.239 1.245-.133.503-.133.503-.133 1.087l.61-.424 1.166-.98c.106-.053.265-.212.53-.424l.053.08c-1.139 1.775-1.404 2.12-2.438 3.233l-.079 2.332.079 2.491.053 1.431c0 .345-.079.53-.239.53-.424 0-1.033-1.192-1.033-1.961 0-.185.026-.371.053-.689.133-.981.159-1.299.212-2.995l-.901.981c-.609.662-.901.901-1.166.901-.318 0-.663-.61-.663-1.272 0-.477.026-.504.504-.742.875-.768 1.961-3.286 2.146-4.929l-1.299.874c-.981.795-1.087.848-1.378.848s-.556-.159-1.166-.61c-.715-.609-.795-.689-.874-1.113zm6.36 5.989l1.086-.291 1.087-.318 1.086-.344-.079-1.988v-2.067l-.053-1.325c-.159.026-.291.026-.371.026-.795 0-1.166-.132-1.59-.609v-.159l.716-.292 1.351-.636c-.026-.795-.053-.981-.318-1.908l.026-.106c.079-.08.133-.133.212-.133.133 0 .477.212.768.504.345.318.477.556.609 1.166l2.041-.795c.053-.53.053-.769.053-1.14 0-1.298-.08-1.484-.822-1.643l-.053-.08c.239-.344.424-.477.663-.477.398 0 .874.239 1.166.61.265.291.344.53.344 1.033l-.026.822.026.557c.901.318 1.378.609 1.378.874 0 .08-.053.212-.159.239-.106.053-.53.132-1.272.291l-.08 2.623v.848l-.053 2.703c.477-.053.928-.053 1.272-.053 1.245 0 2.305.609 2.305 1.325 0 .239-.159.398-.397.398-.212 0-.53-.053-.874-.159-.742-.212-1.272-.292-2.014-.292l-.53.027-.133.424c-.106.397-.212.583-.318.583-.239 0-.583-.451-.769-1.087l-.98.212c-.239.053-.742.265-1.484.583-1.325.557-2.809 1.034-3.207 1.034-.424 0-.768-.265-.768-.61 0-.053.026-.132.053-.238zm2.385.954l.053.371c.053.398.133.557.371.557s.265 0 1.06-.451l.98-.45v.132l-.848 1.06-.477.848c-.318.53-.663.927-.874.927-.398 0-1.087-.901-1.087-1.431 0-.424.318-1.113.689-1.537h.133zm1.881-4.505l.98-.397c.186-.08.318-.133.398-.133.185 0 .345.08.874.398l.027-1.829c-.795.239-.901.265-2.2.848zm.901.795c-.133.053-.503.132-.874.291-.027.239-.027.371-.027.53 0 .186.027.345.053.663l2.146-.477.053-1.034v-.503c-.504.265-.53.265-1.034.424zm-.768-3.233l.768-.291c.265-.133.477-.186.583-.186.159 0 .424.08.715.265l.053-1.802-2.014.874c-.079.371-.106.556-.106.795zm1.749 8.454c.185-.053.318-.053.371-.053l.689-.053c.398-.027.636-.212.636-.504 0-.397-.212-.689-.848-1.166l.026-.079c.185-.053.318-.08.424-.08.901 0 2.226 1.166 2.226 1.935 0 .53-.477 1.457-.742 1.457-.08 0-.08 0-.53-.345-.318-.265-.742-.45-2.279-1.007z" fill="#b32"/><path d="M5.395 8.71l-.53.424c-1.775 1.352-2.809 2.703-3.154 4.055v.663h7.394l.345-3.207h-.875c-.212 1.325-.715 1.987-1.51 1.987H3.063c.318-1.033 1.14-1.934 2.411-2.677l.636-.345c1.113-.609 1.882-1.139 2.305-1.563.53-.53.795-1.245.795-2.093 0-1.113-.504-1.987-1.484-2.57a4.89 4.89 0 0 0-2.2-.504c-1.113 0-2.04.318-2.703.954-.556.557-.848 1.166-.848 1.882 0 .848.371 1.272 1.14 1.272.663 0 .98-.318.98-.927 0-.583-.265-.901-.769-.954.318-.822 1.007-1.219 2.093-1.219 1.405 0 2.094.663 2.094 1.961.026.848-.689 1.775-2.12 2.862z" fill="#084"/><path d="M37.063 20.9L7.118 32.878l-.08.397 22.472 8.692c.822-2.305.663-2.624-1.299-2.995-.053.159-.106.371-.186.53l-.768 1.113c-.212-.397-.663-.821-.61-1.166.239-1.775-1.166-2.014-2.465-2.438l-.768 2.067-.53.132c-.398-1.855-.186-4.213-3.366-4.002-.026.265 0 .583-.133.822-.212.424-.53.822-.795 1.219-.186-.477-.477-.928-.556-1.405-.079-.424.079-.901.159-1.404l-2.889-1.669 3.154-1.59 15.688-6.837c.477-.212 1.139-.026 1.722-.026-.344.371-.609.927-1.06 1.113L20.102 32.03l-1.961.927 17.172 7.553-.212.636-3.577-.875-.556 2.2 3.498 1.352c1.007.398 1.722 3.154.927 3.79-.291.212-1.033.132-1.484-.026l-11.316-4.32-11.077-4.425c-2.597-1.034-2.73-1.007-4.664.901L5.13 41.411c-.212-.742-.45-1.219-.45-1.696l-.053-5.618c-.08-1.166.45-1.723 1.537-2.147l21.942-8.692 7.129-2.782c.45-.159 1.033-.106 1.537-.159l.185.583zM5.792 39.291c.636-.504 1.14-.795 1.484-1.219.848-1.087 1.749-1.272 3.127-.716l16.669 6.545 7.075 2.703c.477-.981.398-1.59-.742-2.014l-21.014-8.189-6.599-2.412z" fill="#b27"/><path d="M17.055 15.07l-4.108 1.829c2.65 1.51 2.226 3.843 2.146 6.015-.053 1.537.371 2.73 1.643 3.737.053.027.079.08.133.133.291.477-.186 1.033-.742.927-.133-.026-.265-.079-.398-.132-.503-.265-.874-.742-1.378-1.166-.636.477-1.166.954-1.776 1.272-.133.079-.318.053-.504.026-.398-.053-.663-.477-.504-.848.026-.079.08-.132.133-.159 2.836-1.882 1.643-4.611 1.617-6.996 0-.662-1.219-1.431-2.014-1.987-1.219-.848-1.272-1.192.08-1.882l4.479-2.252c1.484-.822 1.669-1.643.53-2.835-.901-.954-2.12-1.617-3.047-2.544-.901-.901-1.643-1.934-2.332-2.968-.212-.344-.026-.874-.026-1.325l.477-.133 2.226 2.465 5.141 5.3c.371.397.45 1.166.344 1.722l-1.484 6.492c-.397 1.617-.159 2.968 1.458 4.002a.32.32 0 0 1 .132.133c.318.45-.106 1.06-.662.98a1.6 1.6 0 0 1-.504-.159c-2.623-1.484-2.385-3.737-1.881-6.042zm.821 30.74c-1.166-1.617-1.616-3.392-1.299-3.551 1.166-.345 1.219 2.517 2.359 3.418.609.662 1.378-.768 2.332-1.537.371-.292.928-.159 1.139.238l1.378 2.411c.954 1.696 1.457.874 2.04.079.265-.371.954-1.113 1.299-1.166.345.079.715.318.345.901-.61.928-1.484 2.014-2.465 2.358-1.219.451-1.404-.795-3.286-3.79l-4.346 4.055a6.44 6.44 0 0 1-1.934 1.139c-2.094.742-3.207.185-3.79-1.802l-.583-2.041c-.424-1.855-1.511-2.2-3.206-.954l-4.558 3.498c-.026.027-.053.053-.106.053-.556.292-1.14-.477-.663-.928l3.419-2.862c2.014-1.749 3.816-2.014 6.28-.98l4.823 1.881c.768.186 1.776.477.821-.424zm-5.804-.424c-.053.053-.053.053-.08.106.636 1.166.689 3.418 1.696 3.895 1.457.663 2.57-.901 3.948-2.093z" fill="#339"/><path d="M26.834 34.15l6.227 1.775c.212.053.477.053.636.159.344.238.636.556.954.848-.424.053-.875.265-1.272.185l-9.222-2.358-2.067-.556c-.265-.08-.424-.398-.636-.61.265-.212.53-.583.822-.609l11.766-.212c.318 0 .636.397.928.609-.345.186-.689.504-1.034.53l-7.102.027c.026.053.026.132 0 .212zm8.453-3.127c-.371.133-.768.345-1.139.345l-7.102.159c-.424 0-.875-.398-1.299-.61.424-.212.848-.583 1.272-.583l6.599-.079c.556 0 1.113.159 1.643.265.026.159.026.318.026.503z" fill="#b27"/><path d="M22.62 25.14c-.291.45-1.007.185-.954-.344.159-1.458 1.034-2.703 2.12-2.862 1.192-.159 2.014.424 2.65 1.325.291.424-.159 1.007-.636.768-.026-.026-.079-.026-.106-.053-1.511-1.139-1.829-1.06-2.756.61-.079.185-.212.371-.318.556z" fill="#339"/><path d="M30.543 29.91c-.291-.238-.662-.397-.768-.662-.079-.186.159-.663.371-.716l4.823-1.457c.186-.053.663.159.663.239 0 .265-.106.662-.291.742l-4.796 1.855z" fill="#b27"/></svg>