<svg xmlns="http://www.w3.org/2000/svg" xmlns:xlink="http://www.w3.org/1999/xlink" width="150" height="200" viewBox="0 0 39.7 52.9"><defs><path id="A" d="M-138 104c-1.9 3.9-7.7 7.1-12.9 7.1s-7.8-3.2-5.8-7.1c1.9-3.9 7.7-7.1 12.9-7.1 5.1-.1 7.7 3.1 5.8 7.1z"/><path id="B" d="m-196 81.6c-1.9 3.9-7.7 7.1-12.9 7.1s-7.8-3.2-5.8-7.1c1.9-3.9 7.7-7.1 12.9-7.1 5.1 0 7.7 3.2 5.8 7.1z"/><path id="C" d="M-178 65.3c-1.9 3.9-7.7 7.1-12.9 7.1s-7.8-3.2-5.8-7.1c1.9-3.9 7.7-7.1 12.9-7.1 5.1-.1 7.8 3.1 5.8 7.1z"/><path id="D" d="m-152 63.1c-1.9 3.9-7.7 7.1-12.9 7.1s-7.8-3.2-5.8-7.1c1.9-3.9 7.7-7.1 12.9-7.1s7.8 3.2 5.8 7.1z"/></defs><g transform="matrix(.265 0 0 .265 58.8 12.1)"><path d="M-147-11.1c1 .2 1.7.2 2.3.2 2.6 0 2.6 0 16.1-8.6.5-4.1.7-5.5.7-6.8 0-2.3-.5-3.4-2.7-6v-.3c.7-.3 1.3-.5 1.6-.5 3 0 7.7 4.1 7.7 6.8 0 .2-.1.6-.2 1.1-.2.8-.4 1.2-.4 1.4-.1 0-.1.5-.2 1.1 2.7 1.2 4.6 2.8 4.6 4.3 0 .2-.2.6-.5.9-.5.3-1.1.8-2 1.2-.9.5-2.3 1.5-4.1 2.8.2 1.9.2 2.5.2 3.1 0 1.1 0 1.3-.9 4.7-.5 1.9-.5 1.9-.5 4.1 1.2-.9 2-1.4 2.3-1.6 1.5-1.2 3-2.4 4.4-3.7.4-.2 1-.8 2-1.6l.2.3c-4.3 6.7-5.3 8-9.2 12.2l-.3 8.8c0 1.6.2 5.1.3 9.4.1 1.9.2 4.9.2 5.4 0 1.3-.3 2-.9 2-1.6 0-3.9-4.5-3.9-7.4 0-.7.1-1.4.2-2.6.5-3.7.6-4.9.8-11.3l-3.4 3.7c-2.3 2.5-3.4 3.4-4.4 3.4-1.2 0-2.5-2.3-2.5-4.8 0-1.8.1-1.9 1.9-2.8 3.3-2.9 7.4-12.4 8.1-18.6-2.3 1.4-4.3 2.8-4.9 3.3-3.7 3-4.1 3.2-5.2 3.2s-2.1-.6-4.4-2.3c-2.7-2.3-3-2.6-3.3-4.2zm24 22.7c2-.5 2.3-.5 4.1-1.1l4.1-1.2 4.1-1.3c-.2-2.8-.2-4.9-.3-7.5v-7.8c0-.6-.1-2.4-.2-5a8.17 8.17 0 0 1-1.4.1c-3 0-4.4-.5-6-2.3v-.6l2.7-1.1c2.8-1.2 3-1.3 5.1-2.4-.1-3-.2-3.7-1.2-7.2l.1-.4c.3-.3.5-.5.8-.5.5 0 1.8.8 2.9 1.9 1.3 1.2 1.8 2.1 2.3 4.4 3.4-1.2 4-1.5 7.7-3 .2-2 .2-2.9.2-4.3 0-4.9-.3-5.6-3.1-6.2l-.2-.3c.9-1.3 1.6-1.8 2.5-1.8 1.5 0 3.3.9 4.4 2.3 1 1.1 1.3 2 1.3 3.9l-.1 3.1c0 .4 0 1 .1 2.1 3.4 1.2 5.2 2.3 5.2 3.3 0 .3-.2.8-.6.9-.4.2-2 .5-4.8 1.1-.3 5-.3 5.1-.3 9.9v3.2c0 1.5-.1 5.6-.2 10.2 1.8-.2 3.5-.2 4.8-.2 4.7 0 8.7 2.3 8.7 5 0 .9-.6 1.5-1.5 1.5-.8 0-2-.2-3.3-.6-2.8-.8-4.8-1.1-7.6-1.1l-2 .1c-.2.7-.4 1.4-.5 1.6-.4 1.5-.8 2.2-1.2 2.2-.9 0-2.2-1.7-2.9-4.1-1.7.3-3.6.7-3.7.8-.9.2-2.8 1-5.6 2.2-5 2.1-10.6 3.9-12.1 3.9-1.6 0-2.9-1-2.9-2.3 0-.2.1-.5.2-.9zm9 3.5c.1.6.2 1.2.2 1.4.2 1.5.5 2.1 1.4 2.1s1 0 4-1.7c1.8-.9 1.8-.9 3.7-1.7v.5l-3.2 4-1.8 3.2c-1.2 2-2.5 3.5-3.3 3.5-1.5 0-4.1-3.4-4.1-5.4 0-1.6 1.2-4.2 2.6-5.8h.5zm7.1-17c2.9-1.1 3-1.1 3.7-1.5.7-.3 1.2-.5 1.5-.5.7 0 1.3.3 3.3 1.5l.1-6.9c-3 .9-3.4 1-8.3 3.2zm3.4 3c-.5.2-1.9.5-3.3 1.1-.1.9-.1 1.4-.1 2 0 .7.1 1.3.2 2.5 3.7-.7 4.2-.9 8.1-1.8.1-1.9.2-2.7.2-3.9V-.9c-1.9 1-2 1-3.9 1.6zm-2.9-12.2l2.9-1.1c1-.5 1.8-.7 2.2-.7.6 0 1.6.3 2.7 1l.2-6.8-7.6 3.3c-.3 1.4-.4 2.1-.4 3zm6.6 31.9c.7-.2 1.2-.2 1.4-.2l2.6-.2c1.5-.1 2.4-.8 2.4-1.9 0-1.5-.8-2.6-3.2-4.4l.1-.3c.7-.2 1.2-.3 1.6-.3 3.4 0 8.4 4.4 8.4 7.3 0 2-1.8 5.5-2.8 5.5-.3 0-.3 0-2-1.3-1.2-1-2.8-1.7-8.6-3.8z" fill="#b32"/><path d="M-202-11.9l-2 1.6C-210.7-5.2-214.6-.1-215.9 5v2.5h27.9l1.3-12.1h-3.3c-.8 5-2.7 7.5-5.7 7.5h-15.1c1.2-3.9 4.3-7.3 9.1-10.1l2.4-1.3c4.2-2.3 7.1-4.3 8.7-5.9 2-2 3-4.7 3-7.9 0-4.2-1.9-7.5-5.6-9.7-2.4-1.2-5.2-1.9-8.3-1.9-4.2 0-7.7 1.2-10.2 3.6-2.1 2.1-3.2 4.4-3.2 7.1 0 3.2 1.4 4.8 4.3 4.8 2.5 0 3.7-1.2 3.7-3.5 0-2.2-1-3.4-2.9-3.6 1.2-3.1 3.8-4.6 7.9-4.6 5.3 0 7.9 2.5 7.9 7.4.1 3.1-2.6 6.7-8 10.8zm111 156l-19.2.1c-17.7 0-35.5-.1-53.2-.1-15.3 0-30.7-.1-46-.1-2.4 0-4.6-1-6.5-2.9-1.2-1.2-1.7-2.7-1.7-4.5v-8.7c0-2.3.6-4.3 1.6-6.2a22.3 22.3 0 0 1 6.5-7.4l24.2-16.8 108-74.9v10.8c-.2.1-.4.2-.6.4l-114 75.4-17.1 11.5c-1.3.9-2.4 2.3-2.8 4.2-.2 1.1.3 2.4 1.3 2.6 1.1.2 2.3.4 3.4.4h130v5.6c-17.1 0-102-.2-128-.3-2.4 0-4.8-.1-7.2-.8v3.2c0 1 .6 2.4 1.5 2.6 1.1.2 2.2.4 3.3.4h130c-.1 2.3-3.4 5.5-14.2 5.5zm14.1-22.4h-125c.3-.2.4-.3.6-.4l124-80.9c.2-.1.3-.2.5-.3v2.1c-.1 0-.1 0-.2.1L-90.3 51c-.1.1-.2.1-.5.3h14v2.1h-16.7c-.4 0-.8.1-1.1.3l-12.7 8.3c-.2.1-.3.2-.6.5h21.5c.3 0 .6-.1.9-.3l8-5.2.6-.3v2.1l-3.4 2.1-2.2 1.5v.1h5.6v2.1h-8.5c-.4 0-.8.1-1.1.3l-15.1 9.9c-.2.1-.3.2-.5.4h21.6c.3 0 .5-.1.8-.2l2.9-1.8v4.2c-.8 0-1.6-.1-2.4 0-.5 0-1 .2-1.5.5l-16.9 11c-.2.1-.3.2-.7.5h21.5v4.2l-15.2 10c-.1 0-.1.1-.2.2h15.4v2.1h-18.3a1.93 1.93 0 0 0-1 .3l-19.5 12.7c-.1.1-.3.2-.6.4h19.5c1.7 0 3.2-.4 4.7-1.5 5-3.4 10-6.6 15.1-9.9v2.3c-.1.1-.2.1-.3.2l-13 8.5c-.1.1-.2.1-.4.3h13.8zM-99.2 106h-24.1c-.2 0-.5.1-.7.2l-19.7 12.9-.4.4h.8l22.9-.1c.4 0 .9-.2 1.3-.4l19.2-12.6c.2-.1.4-.2.7-.4zm-21-2.3v.1h23.9c.3 0 .6-.1.9-.3L-77.7 92c.2-.1.3-.2.5-.4h-24c-.3 0-.6.1-.9.3l-17.6 11.5c-.2 0-.3.2-.5.3zm-32.3 2.2H-174c-.3 0-.6.1-.9.3l-19.7 12.9c-.2.1-.3.2-.6.4h.9l20.4-.1c.5 0 1-.2 1.4-.4l17.7-11.5c.7-.5 1.4-.9 2.3-1.6zm25.4 0h-21.5c-.3 0-.6.1-.9.3L-169 119c-.2.1-.3.2-.6.5h.5l20.9-.1a1.93 1.93 0 0 0 1-.3l19.5-12.7c.1-.1.3-.3.6-.5zm-3.4-14.4H-152c-.3 0-.6.1-.8.3l-17.7 11.6c-.2.1-.3.2-.6.4h21.3a1.92 1.92 0 0 0 1.2-.4l17.5-11.4c.2-.1.4-.3.6-.5zm25.4 0h-21.6c-.3 0-.6.1-.8.3l-17.7 11.6c-.2.1-.3.2-.6.4h21.3a1.92 1.92 0 0 0 1.2-.4l17.5-11.4c.2-.1.4-.2.7-.5zm-3.8-14c-.2 0-.3-.1-.4-.1h-21.2c-.3 0-.6.1-.8.3L-148.5 89c-.2.1-.3.2-.5.4h21.5c.3 0 .7-.1.9-.3l14.6-9.6c1-.6 2-1.3 3.1-2zm25.4-.1h-21.6c-.3 0-.6.1-.8.3L-123.1 89c-.2.1-.3.2-.5.4h21.6c.3 0 .6-.1.8-.3l10.4-6.8c2.3-1.6 4.8-3.2 7.3-4.9zm-44.1-2.1h21.6c.3 0 .6-.1.8-.3l15.2-9.9c.2-.1.3-.2.5-.4h-21.6c-.3 0-.6.1-.9.3l-11 7.2c-1.4 1-2.9 2-4.6 3.1z" fill="#084"/><g fill="#339"><use xlink:href="#A"/><use xlink:href="#B"/><use x="5.5" y="-29.7" xlink:href="#B"/><use xlink:href="#C"/><use x="27" xlink:href="#A"/><use x="100" y="-2.5" xlink:href="#C"/></g><g fill="#d71"><path d="m-118 89.6c-1.9 3.9-7.7 7.1-12.9 7.1s-7.8-3.2-5.8-7.1c1.9-3.9 7.7-7.1 12.9-7.1 5.1 0 7.8 3.2 5.8 7.1z"/><use xlink:href="#D"/><use x="-23" y="-69" xlink:href="#A"/><use x="33" y="-21" xlink:href="#C"/><use x="54.5" y="12.9" xlink:href="#D"/><use x="59" y="26.5" xlink:href="#D"/></g></g></svg>