<svg xmlns="http://www.w3.org/2000/svg" width="150" height="200" viewBox="0 0 39.7 52.9"><path d="M29.374 6.53l-.636.238-1.299.477-.424.159c-.133.053-.239.106-.344.106-.291 0-.954-.795-1.033-1.219l.026-.053a2.7 2.7 0 0 0 .424.027c.53 0 1.113-.133 3.259-.795.026-.185.026-.238.026-.397 0-1.087-.079-1.299-.504-1.299-.133 0-.344.053-.583.08l-.053-.106c.053-.398.477-.61 1.113-.61.477 0 1.06.212 1.245.477s.238.557.238 1.564l1.272-.159c.503 0 .848.132 1.749.742.556.345.689.504.795.981a.74.74 0 0 0 .291.053 1.54 1.54 0 0 0 .504-.106c.45-.133.901-.239 1.06-.239.609 0 1.351.61 1.351 1.14 0 .238-.212.397-.503.397l-1.537-.053c-.609 0-1.828.133-2.809.318-.875.133-1.352.318-2.306.822v.318l2.465-.557c.424 0 1.086.609 1.086 1.033 0 .186-.132.239-.53.239h-.61c-.609 0-1.722.318-2.411.715l-.053.716c1.669-.265 1.775-.318 1.775-.636 0-.133.053-.186.133-.186.053 0 .133.027.239.053.026.027.318.08.715.186 1.14.265 1.59.503 1.59.795 0 .185-.159.318-.345.318-.053 0-.132 0-.212-.027-.133-.027-.212-.027-.318-.027-.318 0-.318 0-1.828.159l-1.802.212-.053 1.034 3.127-.53.901-.186c.239-.053.424-.079.503-.079.557 0 1.272.556 1.272.98 0 .265-.239.424-.636.424-.053 0-.238 0-.398-.026-.503-.053-.822-.053-1.033-.053-.954 0-3.631.477-4.664.848-.053 0-.715.318-1.987.901l-.053-.106.795-.795c-1.033.238-1.643.45-2.438.848-.318.133-.583.239-.769.239-.398 0-1.219-.795-1.272-1.219 0-.026 0-.053.026-.079l.079-.053.318.053.61.079c.265 0 2.491-.503 4.293-.98v-.954c-1.087.185-1.113.185-2.809.715l-.371.106c-.318 0-.901-.609-.901-.927a.82.82 0 0 1 .053-.212l.106-.053a3.08 3.08 0 0 0 .61.053c.53 0 1.378-.239 2.199-.583.53-.212.716-.345 1.087-.742l.053-.503-2.677.901c-.344.133-.609.212-.821.212-.477 0-.981-.371-1.219-.901l.053-.106c.663-.027 1.034-.053 1.352-.133 1.934-.583 2.941-.98 3.259-1.272l.053-.503c-2.809.477-5.406 1.139-6.625 1.696-.451.212-.795.318-1.007.318-.291 0-.795-.265-1.086-.583-.291-.292-.398-.53-.451-.981l.133-.079.239.079.556.106c.132 0 .132 0 2.199-.397l3.684-.769c.106-.026 1.325-.265 2.491-.477zm-3.259 10.52c.371.053.397.079.901.715l.239.318c.371-.132.424-.132.901-.238 1.484-.371 1.696-.451 2.624-.848a.98.98 0 0 1 .398-.106c.398 0 1.087.53 1.087.848 0 .185-.133.238-.636.291-1.378.239-1.749.371-2.2.716-.318.238-.371.238-.61.291l-.026-.053a.71.71 0 0 0 .159-.45c0-.08-.053-.133-.186-.133l-.742.053-.504-.053c-.053 0-.079 0-.159.027l.742 1.457c1.193-.424 2.677-.768 3.154-.768.186 0 .238.026.53.238a.85.85 0 0 0 .371.212c.53-.715 1.272-2.438 1.272-2.968 0-.424-.371-.662-1.033-.662-1.113 0-2.491.345-4.293 1.087-.132.053-.238.08-.344.08-.239 0-.371-.133-.504-.477l.053-.106c1.776-1.033 3.524-1.563 5.168-1.563 1.51 0 2.968.848 2.968 1.749 0 .238-.026.238-.398.715-.053.053-.106.185-.212.424-.45 1.166-1.352 2.809-1.749 3.127-.133.106-.239.159-.318.159-.106 0-.133-.026-.504-.45-.186-.212-.503-.318-.874-.318-1.113 0-2.385.212-2.889.451-.159.079-.186.106-.636.53-.053.053-.133.08-.159.08-.133 0-.344-.238-.716-.715-.689-1.034-1.086-2.094-1.086-3.047a1.17 1.17 0 0 1 .133-.583h.079zm4.611-9.567c.742-.133 1.087-.265 1.378-.53.265-.239.477-.583.477-.822 0-.159-.133-.291-.318-.291-.133 0-.609.106-1.457.291z" fill="#b32"/><path d="M9.87 11.83c0-1.325-.822-2.2-2.438-2.65V9.1c1.431-.503 2.146-1.352 2.146-2.57 0-1.007-.504-1.775-1.51-2.279-.636-.291-1.378-.424-2.253-.424-1.06 0-1.908.265-2.597.795-.556.451-.848.98-.848 1.563 0 .769.371 1.14 1.087 1.14.689 0 1.007-.318 1.007-.928 0-.45-.239-.742-.689-.901.477-.53 1.14-.795 2.014-.795 1.458 0 2.173.609 2.173 1.828 0 1.484-.795 2.252-2.385 2.252h-1.06v.901h1.06c1.776 0 2.65.689 2.65 2.093 0 1.431-.875 2.147-2.65 2.147-1.06 0-1.749-.265-2.067-.822.477-.106.715-.398.715-.875 0-.609-.318-.927-.954-.927-.795 0-1.193.397-1.193 1.192 0 .716.371 1.325 1.14 1.802.689.398 1.484.61 2.438.61 1.113 0 2.041-.212 2.756-.636.98-.557 1.457-1.352 1.457-2.438z" fill="#084"/><path d="M13.05 44.69c.345-.238.583-.451.874-.556.318-.106.689-.053 1.06-.079-.079.397 0 .901-.239 1.166-1.113 1.245-2.73.954-3.365-.583-.106-.239-.185-.504-.371-.981-.875.981-1.537 1.935-2.412 2.703-.503.451-1.457.927-1.934.742S6 45.909 5.788 45.22c-.291-.848-.477-1.749-.715-2.597l-.556-1.51c-1.484.318-1.564 1.961-1.537 3.604 0 .636.291 1.325.159 1.882-.159.583-.583 1.166-1.087 1.537-.265.186-.874-.106-1.325-.159.212-.318.477-.609.663-.954.185-.318.424-.662.424-.981.026-.848-.106-1.722-.08-2.597.106-3.737 2.995-4.637 5.83-3.948.61.133 1.166.398 1.828.451-.742-.875-2.73-.875-2.067-2.57.371-.98 1.325-1.722 2.067-2.65l1.484 1.352-2.518 1.51c1.06.954 1.723 1.272 2.624.583.636-.477 1.378-.503 1.59.318-1.457 3.074-3.949 3.021-6.757 2.067l1.643 4.956 5.3-6.174c.159.026.291.079.45.106 0 .424.159.954-.026 1.298-.848 1.511-.928 2.067-.133 3.948zm17.623-14.867c.159.106.318.265.503.344.768.345 1.749.742 1.246 1.723-.477.927-1.405 1.669-2.173 2.438-.079.08-.662-.106-.768-.318-.106-.185 0-.636.159-.822.397-.451.901-.848 1.378-1.272-.716-1.033-1.457-.874-2.332-.477-.715.345-1.564.848-1.829-.609.663-.636 1.272-1.431 2.094-1.882.663-.371 1.564-.477 2.358-.477.662 0 1.325.291 1.988.45 1.669.45 3.127-.398 3.339-2.147.133-1.166.027-2.358-.053-3.525-.08-1.193.609-1.643 1.616-1.775.239-.027.636.159.769.371.079.133-.159.504-.291.742-.212.53-.556 1.007-.636 1.564-.106.662.027 1.352.027 2.04-.08 3.207-2.783 5.008-5.803 3.895l-1.484-.583c0 .106-.053.212-.106.318zm-4.425.265c.079-.451.053-1.007.291-1.352.716-1.06.822-2.094.212-3.472-.239.106-.477.291-.715.291-.477-.027-.954-.132-1.405-.238.239-.424.371-1.06.742-1.272 1.776-1.087 2.465-.742 3.578 1.802.715-.874 1.299-1.749 2.041-2.385.609-.504 1.431-.769 2.147-1.113l1.007 2.226c.318.874.556 1.802.742 2.73.079.424-.053.874-.106 1.325-.398-.212-1.007-.292-1.139-.61-.503-1.139-.848-2.358-1.298-3.63l-5.486 5.91-.609-.212z" fill="#339"/><path d="M7.75 28.525v-3.498c-.08-1.722.795-2.65 2.305-3.207l8.719-3.498c1.113-.504 1.669-.106 2.2.662l2.146 3.551 6.228 11.952c.477.954.636 2.093.689 3.18.106 2.12.079 4.213-.026 6.334-.026.477-.398 1.219-.795 1.404-3.445 1.511-6.969 2.889-10.441 4.346-.769.318-1.139.212-1.59-.557-2.915-5.114-6.015-10.123-8.745-15.317-.795-1.51-.556-3.551-.795-5.353.026.026.053.026.106 0zm1.987-4.69c.424.768.689 1.298 1.007 1.802l4.584 7.685c1.007 1.723 1.855 3.551 2.915 5.247.265.45 1.166.954 1.511.822 2.809-1.113 5.539-2.412 8.48-3.71l-3.206-5.803c-.662.291-1.113.477-1.537.715-2.094 1.087-2.173 1.087-3.312-.954l-3.896-6.97c-.238-.424-1.086-.874-1.484-.742-1.617.477-3.18 1.166-5.062 1.908zm12.27 5.724c2.253-1.166 2.279-1.192 1.325-3.047-.848-1.617-1.749-3.207-2.65-4.797-1.06-1.882-1.06-1.882-3.206-.636zm-2.782 13.25l8.348-3.286c.927-.371 1.325-.927.689-2.147l-8.453 3.763c-.265.132-.291.822-.583 1.669zm-5.406-2.888c1.299-3.339.874-5.512-1.484-7.685-.874 2.782-.901 5.38 1.484 7.685zm2.517-1.166c-1.776 1.882-1.325 5.22 1.14 7.685.159-2.73 1.378-5.486-1.14-7.685zm12.402 5.353c-.106-.239-.186-.451-.291-.689l-9.036 3.418c-.265.106-.344.662-.504 1.007l.318.318c3.127-1.458 6.652-2.041 9.513-4.055zm-9.46.291l.239.663 9.116-3.365c-.106-.265-.212-.53-.291-.795zM10.082 27.81c-.212 0-.424.027-.636.027l.265 4.691c.159 0 .345 0 .504-.027.345-1.563 1.087-3.153-.133-4.69zm5.751-2.517c0 .82-.664 1.484-1.484 1.484s-1.484-.664-1.484-1.484.664-1.484 1.484-1.484 1.484.664 1.484 1.484zm1.935 3.498c0 .82-.664 1.484-1.484 1.484s-1.484-.664-1.484-1.484a1.48 1.48 0 0 1 1.484-1.484 1.5 1.5 0 0 1 1.484 1.484zm1.908 3.578c0 .82-.664 1.484-1.484 1.484s-1.484-.664-1.484-1.484a1.48 1.48 0 0 1 1.484-1.484 1.5 1.5 0 0 1 1.484 1.484z" fill="#b27"/></svg>