<svg xmlns="http://www.w3.org/2000/svg" width="150" height="200" viewBox="0 0 39.7 52.9"><path d="M29.485 5.699l-.636.238-1.299.477-.424.159c-.133.053-.239.106-.344.106-.291 0-.954-.795-1.034-1.219l.026-.053c.186.027.318.027.424.027.53 0 1.113-.132 3.259-.795.026-.185.026-.238.026-.397 0-1.086-.079-1.298-.504-1.298-.132 0-.344.053-.583.079l-.053-.106c.053-.398.477-.61 1.113-.61.477 0 1.06.212 1.245.477s.239.556.239 1.563l1.272-.159c.504 0 .848.133 1.749.742.556.345.689.503.795.981a.74.74 0 0 0 .291.053 1.54 1.54 0 0 0 .504-.106c.451-.132.901-.238 1.06-.238.609 0 1.352.609 1.352 1.14 0 .239-.212.397-.504.397l-1.537-.053c-.609 0-1.828.133-2.809.318-.874.132-1.351.318-2.305.821v.318l2.465-.556c.424 0 1.086.61 1.086 1.034 0 .186-.133.239-.53.239h-.61c-.61 0-1.723.318-2.411.716l-.053.716c1.669-.265 1.776-.318 1.776-.636 0-.133.053-.185.133-.185.053 0 .133.027.239.053.026.027.318.08.715.186 1.139.265 1.59.503 1.59.795 0 .185-.159.318-.344.318-.053 0-.133 0-.212-.027-.133-.027-.212-.027-.318-.027-.318 0-.318 0-1.829.159l-1.802.212-.053 1.034 3.127-.53.901-.186c.239-.053.424-.079.504-.079.556 0 1.272.556 1.272.981 0 .265-.239.424-.636.424-.053 0-.239 0-.397-.027-.504-.053-.822-.053-1.034-.053-.954 0-3.631.477-4.664.848-.053 0-.716.318-1.988.901l-.053-.106.795-.795c-1.034.239-1.643.45-2.438.848-.318.133-.583.239-.769.239-.398 0-1.219-.795-1.272-1.219 0-.027 0-.053.026-.079l.08-.053.318.053.609.079c.265 0 2.491-.504 4.293-.981V11.9c-1.086.185-1.113.185-2.809.715l-.371.106c-.318 0-.901-.609-.901-.927 0-.053.026-.133.053-.212l.106-.053c.265.053.504.053.61.053.53 0 1.378-.239 2.199-.583.53-.212.715-.344 1.086-.742l.053-.504-2.677.901c-.344.132-.609.212-.821.212-.477 0-.98-.371-1.219-.901l.053-.106c.663-.026 1.034-.053 1.352-.133 1.934-.583 2.941-.98 3.259-1.272l.053-.504c-2.809.477-5.406 1.14-6.625 1.696-.45.212-.795.318-1.007.318-.291 0-.795-.265-1.087-.583-.291-.291-.398-.53-.45-.98l.133-.079.239.079.556.106c.133 0 .133 0 2.2-.397l3.684-.769c.106-.027 1.325-.265 2.491-.477zM26.225 16.22c.371.053.398.079.901.715l.239.318c.371-.133.424-.133.901-.238 1.484-.371 1.696-.451 2.624-.848a.98.98 0 0 1 .397-.106c.398 0 1.087.53 1.087.848 0 .185-.133.238-.636.291-1.378.238-1.749.371-2.2.715-.318.239-.371.239-.609.291l-.026-.053c.133-.186.159-.318.159-.451 0-.079-.053-.132-.186-.132l-.742.053-.504-.053c-.053 0-.079 0-.159.026l.742 1.457c1.192-.424 2.677-.768 3.154-.768.186 0 .239.026.53.239a.85.85 0 0 0 .371.212c.53-.715 1.272-2.438 1.272-2.968 0-.424-.371-.662-1.034-.662-1.113 0-2.491.345-4.293 1.087-.133.053-.239.079-.344.079-.239 0-.371-.133-.503-.477l.053-.106c1.776-1.033 3.524-1.563 5.168-1.563 1.511 0 2.968.848 2.968 1.749 0 .238-.026.238-.397.715-.053.053-.106.186-.212.424-.451 1.166-1.352 2.809-1.749 3.127-.133.106-.239.159-.318.159-.106 0-.133-.027-.503-.451-.186-.212-.504-.318-.875-.318-1.113 0-2.385.212-2.889.451-.159.079-.186.106-.636.53-.053.053-.133.08-.159.08-.133 0-.344-.239-.715-.716-.689-1.033-1.087-2.094-1.087-3.047a1.17 1.17 0 0 1 .133-.583h.08zm4.611-9.567c.742-.132 1.086-.265 1.378-.53.265-.239.477-.583.477-.822 0-.159-.132-.292-.318-.292-.132 0-.609.106-1.457.292z" fill="#b32"/><path d="M9.345 10.999c0-1.325-.822-2.2-2.438-2.65V8.27c1.431-.504 2.147-1.352 2.147-2.57 0-1.007-.504-1.775-1.511-2.279-.636-.292-1.378-.424-2.252-.424-1.06 0-1.908.265-2.597.795-.556.45-.848.98-.848 1.563 0 .769.371 1.14 1.087 1.14.689 0 1.007-.318 1.007-.928 0-.45-.239-.742-.689-.901.477-.53 1.14-.795 2.014-.795 1.457 0 2.173.61 2.173 1.829 0 1.484-.795 2.253-2.385 2.253h-1.06v.901h1.06c1.775 0 2.65.689 2.65 2.094 0 1.431-.875 2.146-2.65 2.146-1.06 0-1.749-.265-2.067-.822.477-.106.715-.398.715-.874 0-.61-.318-.928-.954-.928-.795 0-1.193.397-1.193 1.192 0 .716.371 1.325 1.14 1.802.689.398 1.484.61 2.438.61 1.113 0 2.04-.212 2.756-.636.98-.53 1.458-1.351 1.458-2.438z" fill="#084"/><path d="M12.79 24.196c0 .53-.283 1.02-.742 1.285s-1.025.265-1.484 0-.742-.755-.742-1.285.283-1.02.742-1.285 1.025-.265 1.484 0 .742.755.742 1.285zm3.047 3.763c0 .53-.283 1.02-.742 1.285s-1.025.265-1.484 0-.742-.755-.742-1.285.283-1.02.742-1.285 1.025-.265 1.484 0 .742.755.742 1.285zm2.862 3.657c0 .53-.283 1.02-.742 1.285s-1.025.265-1.484 0-.742-.755-.742-1.285.283-1.02.742-1.285 1.025-.265 1.484 0 .742.755.742 1.285z" fill="#b32"/><path d="M21.8 50.59l-1.67-.159-1.457-1.405-8.745-9.54c-.636-.689-1.166-1.457-1.775-2.146l-4.16-4.638a.81.81 0 0 1-.212-.424l-.053-.265v-.133l-.371-7.473c-.106-1.087.291-1.749 1.352-2.306l12.402-6.731c1.537-.848 1.537-.822 2.544.45l5.591 6.969 8.56 10.521c.185.239.398.504.424.769l1.139 8.082c.079.556-.212.954-.795 1.272l-7.076 3.843L21.8 50.59zm-.795-11.236c.026 0 .08-.026.106-.026l1.935-.715 7.871-4.028c.98-.504 1.113-.875.583-1.723-.186-.291-.398-.556-.636-.848l-3.445-4.108c-.662-.795-1.484-.928-2.438-.318l-1.511 1.087c-1.007.715-1.245.715-2.067-.133l-7.765-8.427c-.556-.636-1.166-.689-1.855-.318l-4.532 2.412c-1.219.636-1.113 1.431-.45 2.279s1.431 1.643 2.147 2.465l10.044 11.66c.53.583 1.086.954 2.014.742zm-6.334-20.511a.71.71 0 0 0 .133.398c.265.398.477.822.795 1.166l5.962 6.413c.265.291.61.583 1.007.715.636.212 2.332-.477 2.517-1.139.159-.504-.079-1.193-.371-1.669-.424-.742-1.087-1.378-1.643-2.041l-4.055-4.876c-.928-1.06-2.226-1.087-3.471-.186-.45.291-.901.61-.875 1.219zm-.98 21.942c.45.08.875-.291.901-.769.053-.503.239-.98.291-1.457.239-1.59.345-2.517-1.352-4.319-.636-.689-1.643-2.067-2.438-2.756-.424-.371-.875.583-1.087 1.087-.291.609-.53 1.193-.636 1.776-.185.954-.159 1.961.556 2.782l3.021 3.26c.239.239.477.371.742.398zm7.818.398c-.133.556.398 1.087.954.98.345-.053.663-.133.954-.265.98-.398 1.908-.901 2.862-1.378l5.83-2.968c.822-.424 1.139-1.272.795-2.041-.079-.159-.344-.424-.477-.398-.556.079-.981.159-1.484.371-.477.185-1.033.556-1.484.822l-7.181 4.001c-.424.239-.663.53-.769.875zm.504 2.968a.98.98 0 0 0 .185.663c.159.186.318.398.53.398.398.026.874-.133 1.272-.291l5.168-2.597 3.551-1.961c.662-.398.927-1.245.53-1.696-.424-.504-1.06-.265-1.59-.026l-4.505 2.252-4.001 2.067c-.689.239-1.06.583-1.14 1.192zm1.087 3.684c.185.053.503-.08.662-.159l.875-.424 3.101-1.484 5.565-2.809c.583-.318.689-1.007.371-1.643-.291-.583-.61-.371-1.086-.212-.636.239-1.537.742-2.12 1.06l-7.446 4.028c-.636.345-.769.769-.504 1.219.08.159.291.344.583.424zm-3.339-3.763l-.106-.663c-.291-2.305 0-2.491-1.908-4.346-1.616-1.563-1.537-.053-1.855.795-.212.583-.345 1.193-.45 1.802-.212 1.06.133 1.961.954 2.729.609.583 1.113 1.219 1.696 1.855.212.239.398.583.689.689.345.133.795.133 1.166.053.106-.026.212-.477.185-.742zM5.185 31.775c0 .106.026.212.08.318.318.636.742.901 1.113 1.272.159.159.927.874 1.272.874.265 0 .53-.874.556-1.06.265-1.033.556-2.067.61-3.1.08-1.298-.477-1.855-1.802-3.127-.239-.212-1.431-1.669-1.828-1.616-.133.027-.185.61-.212.795l.212 5.645z" fill="#339"/><path d="M17.825 18.843c-.133.371-.239.716-.291.98-.106.477-.185.716-.239.742-.026 0-.026 0-.053-.026-.239-.239-.318-.398-.239-.504.133-.185.106-.318-.026-.45-.026-.027-.053-.053-.053-.08.026-.053.106-.079.239-.053.08.026.133 0 .185-.08.185-.45.345-.715.504-.822.08-.053.159-.079.239-.079.185-.026.318 0 .345.053s.026.212-.053.477c-.106.318-.159.53-.159.61.08-.026.185-.053.239-.053.159 0 .265.027.345.079l.106-.106c.239-.133.45-.159.663-.053.106.053.08.106-.026.186a1.71 1.71 0 0 0-.424.291c.212.238.371.451.504.663a1.73 1.73 0 0 1 .212.981c0 .053 0 .079-.026.106-.026 0-.053.027-.106.027-.133 0-.265.027-.45.053-.477.106-.875.053-1.245-.133-.159.053-.265.079-.345.053-.053-.026-.053-.053-.053-.106.026-.186.106-.398.239-.61.265-.503.477-.822.636-1.007-.106 0-.239.053-.345.186l-.08.079c-.026 0-.053 0-.08-.053-.106-.106-.185-.186-.212-.265-.026-.053-.026-.08 0-.106.026-.053.106-.079.239-.133v-.927c0-.079-.026-.106-.053-.106-.053.053-.08.106-.133.185zm1.617 2.412c0-.053 0-.106-.053-.186-.133-.344-.239-.556-.345-.662l-.185-.186a2.11 2.11 0 0 0-.398.451c-.239.344-.398.636-.45.901 0 .027 0 .079.053.079.398.133.769.079 1.113-.106.159-.106.239-.186.265-.291zm1.484 3.578c.265.344.477.609.689.795l.08.053c.08 0 .133-.053.212-.185.08-.159.265-.371.504-.636.133-.159.212-.238.239-.238.106-.027.212-.053.318-.027l-.026-.106-.106-.265c-.239-.61-.45-.954-.636-1.033-.052-.031-.12-.02-.159.027a6.66 6.66 0 0 0-.636.662c-.053.08-.106.106-.185.159-.185.079-.318.238-.424.424l-.026.053v-.026a.99.99 0 0 1 .053-.318 1.42 1.42 0 0 1 .344-.583 2.68 2.68 0 0 1 .689-.663l.053-.026c.291-.159.53-.212.663-.159.053.026.08.053.106.133l.159.344c.291.504.477.901.556 1.139.053.186.026.371-.026.61 0 .026-.026.053-.026.079l-.212-.026c-.133-.027-.212-.053-.291-.079-.345.291-.61.583-.795.927-.08.106-.159.186-.291.212h-.026c-.133-.027-.291-.079-.398-.212-.583-.609-.928-.874-.98-.848-.026.026-.053.026-.053.026v-.106c0-.053.053-.079.106-.106a.43.43 0 0 1 .239-.08c.185.027.265.027.291.08zm.398.133c-.08-.026-.08-.053-.053-.106l.212-.265a4.7 4.7 0 0 1 .424-.583l.08-.106a.49.49 0 0 1 .185-.053c.106 0 .185.026.239.079.026.027-.026.106-.106.239-.159.212-.291.53-.424.954l-.026.026c-.026 0-.026-.133.053-.371.026-.106.026-.159 0-.159 0-.026-.106.08-.291.292-.026.027-.053.053-.106.053-.026.026-.106.026-.185 0z" fill="#084"/></svg>