<svg xmlns="http://www.w3.org/2000/svg" width="150" height="200" viewBox="0 0 39.7 52.9"><g transform="matrix(.265 0 0 .265 58.8 12.4)"><path d="M-111-23.4l-2.4.9-4.9 1.8-1.6.6c-.5.2-.9.4-1.3.4-1.1 0-3.6-3-3.9-4.6l.1-.2c.7.1 1.2.1 1.6.1 2 0 4.2-.5 12.3-3 .1-.7.1-.9.1-1.5 0-4.1-.3-4.9-1.9-4.9-.5 0-1.3.2-2.2.3l-.2-.4c.2-1.5 1.8-2.3 4.2-2.3 1.8 0 4 .8 4.7 1.8s.9 2.1.9 5.9c3.5-.5 3.9-.6 4.8-.6 1.9 0 3.2.5 6.6 2.8 2.1 1.3 2.6 1.9 3 3.7.5.2.9.2 1.1.2.4 0 1.1-.1 1.9-.4 1.7-.5 3.4-.9 4-.9 2.3 0 5.1 2.3 5.1 4.3 0 .9-.8 1.5-1.9 1.5l-5.8-.2c-2.3 0-6.9.5-10.6 1.2-3.3.5-5.1 1.2-8.7 3.1v1.2c5.9-1.6 8.2-2.1 9.3-2.1 1.6 0 4.1 2.3 4.1 3.9 0 .7-.5.9-2 .9h-2.3c-2.3 0-6.5 1.2-9.1 2.7l-.2 2.7c6.3-1 6.7-1.2 6.7-2.4 0-.5.2-.7.5-.7.2 0 .5.1.9.2.1.1 1.2.3 2.7.7 4.3 1 6 1.9 6 3 0 .7-.6 1.2-1.3 1.2-.2 0-.5 0-.8-.1-.5-.1-.8-.1-1.2-.1-1.2 0-1.2 0-6.9.6-3.6.5-3.6.5-6.8.8l-.2 3.9 11.8-2c1.6-.3 3.2-.5 3.4-.7.9-.2 1.6-.3 1.9-.3 2.1 0 4.8 2.1 4.8 3.7 0 1-.9 1.6-2.4 1.6-.2 0-.9 0-1.5-.1-1.9-.2-3.1-.2-3.9-.2-3.6 0-13.7 1.8-17.6 3.2-.2 0-2.7 1.2-7.5 3.4l-.2-.4c1.2-1.2 1.4-1.5 3-3-3.9.9-6.2 1.7-9.2 3.2-1.2.5-2.2.9-2.9.9-1.5 0-4.6-3-4.8-4.6 0-.1 0-.2.1-.3l.3-.2c.5.1 1.1.2 1.2.2 1.1.2 1.9.3 2.3.3 1 0 9.4-1.9 16.2-3.7V0c-4.1.7-4.2.7-10.6 2.7-.6.2-1.2.4-1.4.4-1.2 0-3.4-2.3-3.4-3.5 0-.2.1-.5.2-.8l.4-.2c1 .2 1.9.2 2.3.2 2 0 5.2-.9 8.3-2.2 2-.8 2.7-1.3 4.1-2.8l.2-1.9c-3.7 1.1-5.9 1.8-10.1 3.4-1.3.5-2.3.8-3.1.8-1.8 0-3.7-1.4-4.6-3.4l.2-.4c2.5-.1 3.9-.2 5.1-.5 7.3-2.2 11.1-3.7 12.3-4.8l.2-1.9c-10.6 1.8-20.4 4.3-25 6.4-1.7.8-3 1.2-3.8 1.2-1.1 0-3-1-4.1-2.2-1.1-1.1-1.5-2-1.7-3.7l.5-.3.9.3c1 .2 1.8.4 2.1.4.5 0 .5 0 8.3-1.5l13.9-2.9c.4-.1 5-1 9.4-1.8zm-12.3 39.7c1.4.2 1.5.3 3.4 2.7l.9 1.2c1.4-.5 1.6-.5 3.4-.9 5.6-1.4 6.4-1.7 9.9-3.2.6-.3 1.2-.4 1.5-.4 1.5 0 4.1 2 4.1 3.2 0 .7-.5.9-2.4 1.1-5.2.9-6.6 1.4-8.3 2.7-1.2.9-1.4.9-2.3 1.1l-.1-.2c.5-.7.6-1.2.6-1.7 0-.3-.2-.5-.7-.5l-2.8.2-1.9-.2c-.2 0-.3 0-.6.1 1.3 2.4 1.6 2.8 2.8 5.5 4.5-1.6 10.1-2.9 11.9-2.9.7 0 .9.1 2 .9.6.5.6.5 1.4.8 2-2.7 4.8-9.2 4.8-11.2 0-1.6-1.4-2.5-3.9-2.5-4.2 0-9.4 1.3-16.2 4.1-.5.2-.9.3-1.3.3-.9 0-1.4-.5-1.9-1.8l.2-.4c6.7-3.9 13.3-5.9 19.5-5.9 5.7 0 11.2 3.2 11.2 6.6 0 .9-.1.9-1.5 2.7-.2.2-.4.7-.8 1.6-1.7 4.4-5.1 10.6-6.6 11.8-.5.4-.9.6-1.2.6-.4 0-.5-.1-1.9-1.7-.7-.8-1.9-1.2-3.3-1.2-4.2 0-9 .8-10.9 1.7-.6.3-.7.4-2.4 2-.2.2-.5.3-.6.3-.5 0-1.3-.9-2.7-2.7-2.6-3.9-4.1-7.9-4.1-11.5 0-.9.1-1.3.5-2.2h.3zm17.4-36.1c2.8-.5 4.1-1 5.2-2 1-.9 1.8-2.2 1.8-3.1 0-.6-.5-1.1-1.2-1.1-.5 0-2.3.4-5.5 1.1z" fill="#b32"/><g fill="#084"><path d="M-187-3.4c0-5-3.1-8.3-9.2-10v-.3c5.4-1.9 8.1-5.1 8.1-9.7 0-3.8-1.9-6.7-5.7-8.6-2.4-1.1-5.2-1.6-8.5-1.6-4 0-7.2 1-9.8 3-2.1 1.7-3.2 3.7-3.2 5.9 0 2.9 1.4 4.3 4.1 4.3 2.6 0 3.8-1.2 3.8-3.5 0-1.7-.9-2.8-2.6-3.4 1.8-2 4.3-3 7.6-3 5.5 0 8.2 2.3 8.2 6.9 0 5.6-3 8.5-9 8.5h-4v3.4h4c6.7 0 10 2.6 10 7.9 0 5.4-3.3 8.1-10 8.1-4 0-6.6-1-7.8-3.1 1.8-.4 2.7-1.5 2.7-3.3 0-2.3-1.2-3.5-3.6-3.5-3 0-4.5 1.5-4.5 4.5 0 2.7 1.4 5 4.3 6.8 2.6 1.5 5.6 2.3 9.2 2.3 4.2 0 7.7-.8 10.4-2.4 3.7-2 5.5-5.1 5.5-9.2z"/><path d="M-78.3 101c-.4 7.8-.9 14.4-2.3 20.5-2.1 9-5.2 14.6-9.9 15.6-3.8.9-7.4-.3-11.1-1.6-3.3-1.1-6.6-1.3-10-.3-6 1.8-12 3.8-18 5.7-5.7 1.7-11.1.2-16.5-3.8-3.1-2.3-6-4.8-8.5-9.5-3.5-6.5-5.8-14.7-6.4-24.8-.5-8 .5-15.8 1.9-23.2 1.1-5.8 2.9-10.4 5.4-13.6 2.2-2.9 4.6-3.6 7-2.6 1.9.7 3.5.1 5.1-2.5 5.7-9.1 12-14.9 19-16.5 5.1-1.2 10.1.1 14.8 4 4.6 3.7 9.1 7.8 13.6 12.1 2.8 2.6 5.6 5.3 8.1 8.7 4.3 5.8 6.9 14.4 7.5 25.9.3 2.4.3 4.7.3 5.9zm-62.5 31.4c3-.2 6 .1 8.9-.7 5-1.2 10-3.3 15-4.6 3.9-1 7.9-1.5 11.9-1.8 3.3-.2 6.6.1 9.8.3 3.7.2 7.3-1.7 10.6-6 3.2-4 5.1-10.1 5.3-18 .4-13.5-2.1-24-7.2-31-2.3-3.1-4.8-5.4-7.3-7.7-4.7-4.3-9.4-8.7-14.2-12.5-4.9-3.9-10-5.2-15.2-4-6.7 1.6-12.8 6.9-18.2 16-1.8 3-3.5 3.7-5.7 2.9-2-.8-4.1-.3-6 2-4.4 5.5-6.3 14.6-6.9 24.9-.6 11.1 1.6 20 5.3 27 4.1 7.6 8.6 12.2 13.9 13.2zm60.8-19.8c-.1.2-.2.3-.2.4-2.3 6.9-5.5 10.3-9 12.6-3.2 2-6.5 1.5-9.7 1.6-3.5.1-7-.4-10.5.1-4.5.6-9 1.6-13.5 3.1-5.6 1.9-11.2 4.3-16.8 3.2-2.2-.4-4.4-1-6.5-2.3-3.3-2-6.2-5.7-8.7-10.7-1.6-3.3-4.2-10.2-4.1-9.7 1.5 8.9 4.2 15.5 7.9 19.8 6.4 7.5 13.2 10.7 20.5 8.9 5.4-1.3 10.8-3.3 16.2-5.1 4.2-1.4 8.5-1.9 12.7-.6 3.5 1 6.9 2.6 10.5 1.9 2.6-.5 5-1.9 7.1-6.1 2.2-4.8 3.4-10.6 4.1-17.1zm-24.4 2.2l-10.1-1.2c-3.6-.5-7.2.2-10.8 1.7-2.9 1.3-5.9 2.7-8.8 3.7-5 1.6-9.8.9-13.7-6.9-2.2-4.3-3.9-9.5-4.1-16.3-.3-7.8 1.9-15.4 5.4-18 1.8-1.3 3.8-1.5 5.7-2.3a9.63 9.63 0 0 0 2.5-1.6c.8-.7 1.2-2 1.5-4.1.2-1.8.9-3.6 1.6-4.7 3.2-5.1 6.7-7.9 10.6-7.9 2.1 0 4 1.3 5.8 3.2 2.7 2.7 5.5 4.2 8.5 5 4.2 1.1 8.5 2.2 12.6 4 4.2 1.8 8.1 4.9 11.4 11.4 2.7 5.4 3.7 14.1 2.4 21-.9 4.7-2.7 7.3-4.7 9.5-2.5 2.8-5.2 3.7-7.9 4-2.6.2-7.9-.3-7.9-.5zm-5.2-1.8c4.2.2 8.3.6 12.5.6 2.6 0 5.2-.7 7.6-3.2.6-.7 1.3-2.2 1.6-3.7.7-4.6.6-9.2-.7-13-1.4-4.1-3.1-7.4-5.1-10.2-3.3-4.6-6.9-6.8-10.9-7.1-3.1-.2-6.2-1.3-9.2-3.8-3.5-3-7.1-5.5-10.9-4.9-2 .3-4 .9-5.8 3.4-2.1 2.9-4 6.2-5.8 10.1-2 4.5-4.5 5.9-7.3 5.9s-5.4 1.1-7 7.1c-.2.9-.3 2.2-.3 3.2a34.6 34.6 0 0 0 2.4 10.4c3.1 8.1 7.2 11 12 10.3 2.6-.4 5.2-1.6 7.9-2.6 3.2-1.1 6.8-2.5 10.1-3.1 3.4 0 5.4.3 8.9.6zm22.5-5.5c1.3-1.5 2.3-3.9 2.8-6.8 1-6.1.3-11.6-1.4-16.3-2.7-7.4-6.6-10.9-10.7-12.7-4.7-2.1-9.5-3.2-14.2-4.6-2.6-.8-5.1-1.7-7.6-3.7-1.8-1.4-3.6-2.9-5.5-3.4-4-1-7.7 2-11.1 6.7-.8 1.1-1.2 2.4-1.4 4.3-.2 1.2-.5 2.4-1 3.3-1.3 2.5-2.8 3-4.4 3.3-1.8.3-3.7.7-5.4 2.7-2.2 2.6-3.4 6.8-4 12 1.5-4.4 3.5-5.9 5.8-6.2 1.4-.2 2.7-.2 4.1-.6 2.5-.6 4.1-4.4 5.8-8 2.2-4.7 4.6-9.1 7.7-10.3 3.7-1.6 7.4-1 10.9 1.9 4.1 3.5 8.4 6 12.9 6.2 1.9.1 3.9.9 5.8 2.1 3.7 2.5 6.9 7.5 9.4 13.9.7 1.8 1.3 4.3 1.5 6.7.1 3-.1 6.3 0 9.5z" stroke="#084" stroke-miterlimit="10"/></g><g fill="#339"><path d="M-116 104c-1.4-1.9-3.5-1.9-5-.1-1.2 1.5-2.6 2.4-4.2 3-1.9.7-4.3-1.4-4.1-6.6v-1.9c-.1-2.1-.2-2.4-1.2-2.2s-2 .6-3 .7c-.6 0-1.3-.2-1.9-.8-1.1-1-1.4-2.4-.8-4 .9-2.6 2.5-3.2 4.1-3.6l5.2-1.4c.5-.2.9-.8 1.2-1.4l2.1-4.2c1.8-3.5 4.1-4.1 6.7-.6 2.3 3.3 4.3 3 6.4 2.3 1.1-.4 2.3-.7 3.5-.5 2.5.3 4.3 5 3.7 9.5-.5 3.9-1.4 4.7-3.7 3.3-.6-.4-1.3-.7-1.9-.8-1-.2-1.4.6-1.2 2.5.2 3.9-1.1 7.6-3 8.1-1.2.2-2.1-.3-2.9-1.3z" stroke="#339" stroke-miterlimit="10"/><path d="M-197 130c3-.3 5.8-1.9 8.6-3-1 1.3-4.3 3.5-5.8 4.1-.8.6-1.6 1.2-2.2 2 5.1-.1 14.1-.6 18.5-3 2.3-1.3 4.3-3.3 7-4.2 3.7-1.2 6.4 1.7 8.3 4.6.7 1.1 1.9 2 1.7 3.4-1.3 0-2.7-.2-4 .1-3.8.4-7.6 1.5-11.3 2.2-7.2 1.4-14.5 2.2-21.5 3.9-1.9.5-5.5 1.9-7.4 1.4-1.2-.3-6.5-3.4-7.5-4.2-5.1-9.7 11.8-5.1 15.6-7.3z"/></g><path d="M-166-20c-.3-2.9-1.1-5.6-.6-8.3.4-1.9 2.1-3.9 4-5.6 1.1-.9 4.1-1.7 5.7-1.4s3.3 1.9 3.7 3.1c1.2 3-.6 5.9-2.8 8.6-.9 1.1-2.1 2.2-3.3 3.5 6.8 2 4.9 6 5.3 9.5.1 1.4.6 2.9-2.2 3.8-.6.2-.7 1.1-.8 1.7l-5 29.8-6.3 36.7c-.1.9.5 1.8.7 2.8.2.7.4 1.4.2 2.1-1.9 6.2-3.6 12.4-5.9 18.5-.8 2 .8 3.2 2.2 4.4 5.7 5.1 6.3 10.6 4.5 16.5-2.5 8.3-9.2 15-19.1 20.6-3.1 1.7-5.8 3.8-10.4 4.5 0-.3-.1-.7.1-.9 5-6.1 4.8-12.4 1.9-18.8-3.6-7.8-4.7-15.8 2.9-23.1 2.8-2.7 3.2-5.3 3.4-8.2.4-5.3 1-10.6 1.6-15.9 0-.5.2-1.2.7-1.3 2.6-.8 2.4-2.3 2.6-3.8l8.2-45.8 3.5-18.7c.1-.5.3-1.3-.2-1.6-2.3-1.1-1.2-2.5-.9-3.8.3-1.4.9-2.8 1.1-4.2.6-2.2 1.9-4.1 5.2-4.7zm-5 82c.1-.4.3-.8.3-1.3.4-2.5.7-5.1 1.2-7.6l4.8-27.6 5.3-31.5c.2-1.5-1.1-2.4-3.9-2.6-3.2-.2-4.8.4-5 2l-4.8 26.9-6.5 35.2c-.4 2-.6 3.9-.9 5.7zm-15.9 24.9c-.6.5-1.2.8-1.6 1.2-3.9 4.2-6.2 8.7-5.3 13.5 1.1 6.1 3.2 12.2 4.8 18.3.4-2.3.7-4.6.4-6.8-.6-3.9-1.6-7.8-2.3-11.7-.2-1.2.4-2.5.6-3.8h1.4c-.5 8.5 5.2 16.8 1.1 25.5 1.9-2 3.4-3.9 4.4-6 2.6-5.6 1.9-11.4 1.4-17.1-.1-1.4-.1-2.8 2.3-4.1.5 9.6 1.9 19-6 27.7 7.3-5 11-10.9 12.3-17.4l1.2-5.4c.5 0 1.1.1 1.6.1-.4 2.5-.6 5.1-1.4 7.6s-2.2 5-3.3 7.4c4-4.3 6.3-8.9 6.9-13.8.6-4.5-1.6-8.5-4.9-12.3-.6-.7-2.4-1.8-3-1.6-3.9 1-7-.2-10.6-1.3zm4.6-23.7c-.3.5-1.2 1.3-1.3 2.1-.7 6-1.2 11.9-1.7 17.9-.2 2.5 1.4 3.6 5.5 3.8 2.2.1 3.8-.3 4.1-1.9.2-1.2.6-2.4 1-3.6l4.6-15.1c.2-.6-.1-1.5-.7-2-1.7-1.3-8-2.1-11.5-1.2zM-157-8.5l.9-.3c-.5-2.7-.6-5.4-1.6-8-.3-.8-3.1-1.7-4.7-1.7-1.8 0-4.7.8-5.2 1.6-1.3 2.4-1.6 5.1-2.5 8 4.9-1.8 9.1-1.3 13.1.4zm-5.2-11.7c1-.9 2-1.8 2.9-2.7 2.5-2.6 4.2-5.4 3.6-8.5-.1-.8-1-1.8-2-2.1-.8-.2-2.6.3-3.5.8-4 2.5-4.6 9.5-1 12.5z" fill="#b27"/></g></svg>