<svg xmlns="http://www.w3.org/2000/svg" width="150" height="200" viewBox="0 0 39.7 52.9"><path d="M29.985 5.599l-.636.238-1.299.477-.424.159c-.133.053-.239.106-.344.106-.291 0-.954-.795-1.034-1.219l.026-.053a2.7 2.7 0 0 0 .424.027c.53 0 1.113-.132 3.259-.795.026-.185.026-.238.026-.397 0-1.086-.079-1.298-.504-1.298-.132 0-.344.053-.583.079l-.053-.106c.053-.398.477-.61 1.113-.61.477 0 1.06.212 1.245.477s.239.556.239 1.563l1.272-.159c.504 0 .848.133 1.749.742.556.345.689.503.795.981a.74.74 0 0 0 .291.053 1.54 1.54 0 0 0 .504-.106c.451-.132.901-.238 1.06-.238.609 0 1.352.609 1.352 1.14 0 .239-.212.397-.504.397l-1.537-.053c-.609 0-1.828.133-2.809.318-.874.132-1.351.318-2.305.821v.318l2.465-.556c.424 0 1.086.61 1.086 1.034 0 .185-.133.239-.53.239h-.61c-.61 0-1.723.318-2.411.716l-.053.716c1.669-.265 1.776-.318 1.776-.636 0-.133.053-.185.133-.185.053 0 .133.026.239.053.026.027.318.08.715.186 1.139.265 1.59.503 1.59.795 0 .185-.159.318-.344.318-.053 0-.133 0-.212-.027-.133-.026-.212-.026-.318-.026-.318 0-.318 0-1.829.159l-1.802.212-.053 1.034 3.127-.53.901-.186c.239-.053.424-.079.504-.079.556 0 1.272.556 1.272.981 0 .265-.239.424-.636.424-.053 0-.239 0-.397-.027-.504-.053-.822-.053-1.034-.053-.954 0-3.631.477-4.664.848-.053 0-.716.318-1.988.901l-.053-.106.795-.795c-1.034.239-1.643.45-2.438.848-.318.133-.583.239-.769.239-.398 0-1.219-.795-1.272-1.219 0-.027 0-.053.026-.08l.08-.053.318.053.609.08c.265 0 2.491-.504 4.293-.981V11.8c-1.086.185-1.113.185-2.809.715l-.371.106c-.318 0-.901-.609-.901-.927 0-.053.026-.133.053-.212l.106-.053a3.08 3.08 0 0 0 .61.053c.53 0 1.378-.239 2.199-.583.53-.212.715-.344 1.086-.742l.053-.504-2.677.901c-.344.133-.609.212-.821.212-.477 0-.98-.371-1.219-.901l.053-.106c.663-.027 1.034-.053 1.352-.133 1.934-.583 2.941-.981 3.259-1.272l.053-.503c-2.809.477-5.406 1.14-6.625 1.696-.45.212-.795.318-1.007.318-.291 0-.795-.265-1.087-.583-.291-.292-.398-.53-.45-.981l.133-.079.239.079.556.106c.133 0 .133 0 2.2-.397l3.684-.769c.106-.027 1.325-.265 2.491-.477zm-3.26 10.521c.371.053.398.079.901.715l.239.318c.371-.133.424-.133.901-.238 1.484-.371 1.696-.451 2.624-.848a.98.98 0 0 1 .397-.106c.397 0 1.087.53 1.087.848 0 .186-.133.239-.636.291-1.378.239-1.749.371-2.199.716-.318.238-.371.238-.609.291l-.026-.053a.71.71 0 0 0 .159-.45c0-.079-.053-.133-.186-.133l-.742.053-.504-.053c-.053 0-.079 0-.159.026l.742 1.458c1.192-.424 2.677-.769 3.154-.769.186 0 .239.027.53.239a.85.85 0 0 0 .371.212c.53-.715 1.272-2.438 1.272-2.968 0-.424-.371-.662-1.034-.662-1.113 0-2.491.345-4.293 1.086-.133.053-.239.079-.344.079-.239 0-.371-.133-.503-.477l.053-.106c1.776-1.033 3.524-1.563 5.168-1.563 1.511 0 2.968.848 2.968 1.749 0 .239-.026.239-.397.716-.053.053-.106.185-.212.424-.451 1.166-1.352 2.809-1.749 3.127-.133.106-.239.159-.318.159-.106 0-.133-.026-.503-.451-.186-.212-.504-.318-.875-.318-1.113 0-2.385.212-2.889.451-.159.079-.186.106-.636.53-.053.053-.133.079-.159.079-.133 0-.344-.239-.715-.715-.689-1.033-1.087-2.094-1.087-3.047a1.17 1.17 0 0 1 .133-.583h.08zm4.611-9.567c.742-.132 1.086-.265 1.378-.53.265-.239.477-.583.477-.822 0-.159-.132-.292-.318-.292-.132 0-.609.106-1.457.292z" fill="#b32"/><path d="M9.845 10.899c0-1.325-.822-2.2-2.438-2.65v-.08c1.431-.503 2.147-1.351 2.147-2.57 0-1.007-.504-1.775-1.511-2.279-.636-.292-1.378-.424-2.252-.424-1.06 0-1.908.265-2.597.795-.556.45-.848.98-.848 1.563 0 .769.371 1.14 1.087 1.14.689 0 1.007-.318 1.007-.928 0-.45-.239-.742-.689-.901.477-.53 1.14-.795 2.014-.795 1.457 0 2.173.61 2.173 1.829 0 1.484-.795 2.253-2.385 2.253h-1.06v.901h1.06c1.775 0 2.65.689 2.65 2.094 0 1.431-.875 2.146-2.65 2.146-1.06 0-1.749-.265-2.067-.822.477-.106.715-.398.715-.874 0-.61-.318-.928-.954-.928-.795 0-1.193.397-1.193 1.192 0 .716.371 1.325 1.14 1.802.689.397 1.484.609 2.438.609 1.113 0 2.04-.212 2.756-.636.98-.53 1.458-1.351 1.458-2.438z" fill="#084"/><path d="M38.094 45.72c-.026-.053 0-.106 0-.159V30.138c-.026-1.563.079-3.127-.583-4.744-.609-1.537-1.431-2.465-2.677-2.544-1.272-.08-2.358.503-3.365.874l-.132 1.723c-.026.451-.106.768-.451 1.06-.875.716-1.829 1.166-2.994.981-.716-.106-1.431-.451-2.146-.716-.477-.185-.928-.556-1.378-.636-1.749-.344-3.498-.662-5.194-.53-.477.026-1.007.185-1.325.503-.291.292-.583.53-.901.769.026.133.026.291.026.424.132-.106.265-.212.371-.371.53-.768 1.325-.98 2.173-1.06 1.616-.132 3.233.133 4.849.583.61.159 1.193.53 1.776.795.981.397 1.961.742 2.942.556.742-.133 1.431-.477 2.067-1.06-.106.822-.106 1.564-.318 2.226-.106.345-.477.556-.795.742-1.299.769-2.73.795-4.16-.079-1.511-.901-3.021-1.06-4.532-1.219-.769-.079-1.537-.106-2.305-.106-.636 0-1.166.239-1.617.689-.344.345-.715.636-1.086.901 0 .133 0 .265-.053.398l.291-.159c.212-.106.398-.265.556-.45.503-.769 1.272-1.007 2.093-1.087 1.643-.159 3.339.106 5.008.583.848.239 1.669.715 2.518 1.06 1.404.556 2.65.398 3.763-.371a.43.43 0 0 1 .186-.106h.079l-.239 3.498.239 9.54c.026.503.186 1.007.291 1.51a.66.66 0 0 1 .026.212c-.159.795.079 1.564.53 2.359-.769 0-1.458-.133-2.173-.371L22.91 44.21c-1.882-.663-3.71-.742-5.433-.186l-4.293 1.564c-.98.318-2.041.53-3.047.769h-.133c-.053-.424-.133-.822-.133-1.219 0-.212.133-.397.159-.609l.504-4.001.927-8.586c0-.133.026-.239.053-.451.715.398 1.325.371 1.935.186-.026-.133-.053-.265-.026-.397l-.663.186c-.371.079-.795-.026-1.245-.026l.159-2.624c.106.026.185.026.265.053.504.186.98.239 1.431.133-.026-.133-.026-.265-.026-.398-.398.133-.875.079-1.325.079-.212 0-.345-.159-.318-.451l.053-1.325a3.61 3.61 0 0 0-1.06-2.782c-1.06-1.087-2.279-1.563-3.525-1.458-.742.053-1.405.318-1.564 1.325-.106.663-.291 1.298-.424 1.935l-1.722 7.526-1.723 7.632c-.08.371-.106.795-.291 1.113-.398.689-.45 1.404.026 2.2l1.961 3.18c.477.795 1.139 1.352 1.881 1.59l3.471 1.06c.663.212 1.325.185 1.935-.026l6.201-2.226a6.85 6.85 0 0 1 4.982-.132l2.889.901c.504.159 1.007.371 1.511.61 1.776.848 3.578 1.404 5.433 1.325 2.041-.08 3.816-.795 5.406-2.041.769-.662 1.325-1.51.954-2.915zm-6.704-.291c-.159-1.272.556-2.464 1.484-2.835l-.344 1.722c-.106.53.079 1.007.318 1.457.08.159.344.318.53.318.212 0 .424-.026.477-.397.026-.424.185-.822.265-1.246l-.106-.106c-.106.106-.239.185-.291.344-.079.212-.106.477-.185.689-.053.133-.185.291-.265.265-.133-.026-.291-.186-.344-.344-.133-.344-.053-.662.185-.822.477-.318 1.034-.53 1.643-.451.424.053.716.345.848.848.265 1.06.239 1.352-.556 1.802-.53.318-1.113.556-1.722.662-1.034.212-1.802-.742-1.934-1.908zm1.564-1.378l.318-1.669c.848-.45 1.987-.212 2.782.636l-.265 1.404c-.504-.954-1.139-.875-1.776-.742l-1.06.371zM5.923 24.202c.08-.344.239-.477.477-.636 1.245-.716 2.411-.159 3.604.795 1.007.795 1.378 1.829 1.272 3.074l-.556 7.712-1.113 9.566c-.954-1.59-2.014-2.862-3.498-3.577-1.537-.742-2.835-.291-4.028.371zM4.624 43.68l.848-2.438c.954.239 1.775.848 2.491 1.564l-.477 1.643c-.875-.769-1.802-1.352-2.862-.769zm2.73 1.192c-.053.133-.185.212-.291.318-.026-.026-.053-.079-.106-.106l.212-.636c.106.212.212.371.185.424zm-2.2-1.007c.636-.106 1.166.026 1.775.45l-.53.981c-.133.239 0 .291.185.344.424.079 1.007-.291 1.14-.742l.239-.927.239-.954c.795.901 1.299 1.855 1.431 2.995.026.185-.106.45-.239.504-.822.397-1.723.556-2.676.45-1.219-.132-1.723-.715-2.041-2.252-.133-.689-.08-.742.477-.848zm31.27 4.611c-.742.663-1.643.981-2.517 1.325-2.041.822-4.161.424-6.36-.424l-5.406-1.908c-1.776-.583-3.498-.636-5.141-.106l-4.319 1.59c-1.431.53-2.915 1.007-4.558.61l-3.1-.901c-.928-.265-1.511-1.086-2.04-1.934L1.63 44.342c-.477-.874-.398-1.696.239-2.252.928-.795 2.014-1.139 3.26-.98l-.769 2.04c-.08.239-.371.504.053.822v.106c-.212 2.385 1.564 3.604 3.021 3.392.504-.079 1.007-.159 1.431-.397.504-.291 1.034-.371 1.616-.398 1.511-.053 2.836-.609 4.214-1.113l3.445-1.272c1.299-.477 2.676-.212 4.081.239l3.1.981c.769.265 1.537.663 2.306.981 1.351.556 2.703.874 4.054.848.106 0 .239.026.344.106.61.397 1.193.45 1.723.185a13.43 13.43 0 0 0 1.723-.927c.344-.239.556-.662.45-1.219v-.212l.318-1.802c.901 1.14 1.616 3.71.185 5.009zm1.166-3.975c0 .106 0 .186-.026.371-.927-1.404-1.669-2.941-3.259-3.021-1.404-.079-2.518.477-3.259 1.855l-.106-1.537-.239-7.685c.053-2.518.371-4.982.556-7.473l.238-2.465c.026-.344.159-.53.424-.636.98-.398 1.988-.795 3.127-.53.98.212 1.802.901 2.146 2.226.45 1.643.398 3.233.398 4.823z" fill="#d71" stroke="#d71" stroke-miterlimit="10" stroke-width=".265"/><path d="M20.445 33.663c.026 0 .106-.026.106.026.663.504 1.643.61 2.253 1.219.265.265 1.245.98 1.59.742-.106-.185-.08-.424-.053-.636.133-1.404-.106-2.782-.026-4.16.185-.079.08-.318.398-.239.265.053 1.935 1.696 2.094 1.961.106.106.212.159.344.212l.026.265-.265-.053c-.265-.159-1.087-.424-1.351-.159-.159.186 0 1.749.053 2.067-.345.848.742.556.98 1.034-.026.212-.185.318-.239.477-.212.186-.504.265-.768.398l-.08.053c.053.556.08 1.139-.026 1.669.026.239-.026.477-.026.715h.212c.583-.424 1.086-.928 1.696-1.299.689.133 1.139.477 1.299 1.219.212.927-.609 1.537-1.192 2.094-.212.053-.636.344-.742.53a2.82 2.82 0 0 0-.901.954c.079.371.848.583.848 1.06-.742.026-1.828.106-2.465-.345-.291-.212-.556-.239-.636-.636-.185-.901.239-.715.662-.822l.08.026c.212-.053.689-.212.875-.344.556-.451 1.007-.318 1.617-.556.239-.106.45-.239.742-.291.318-.291.716-.583.689-1.06-.212-.344-.689-.344-1.034-.318-.159.106-.371.133-.477.291-.398.265-.769.159-.795.795-.371.026-.45.239-.848.133-.371-.371-1.06-.398-1.033-1.086 0-.371.795-1.669.503-2.491-.371.212-1.298 1.219-1.457 1.59-.239.239-.663.795-.239 1.06.106.504-.583.424-.822.212-.239-.159-.398-.795-.53-1.087.345-.954 1.431-1.457 1.961-2.306.053-.08-.318-.212-.345-.212l-.61-.291c-.954-.504-2.676-.874-3.79-1.113l.026-.053c-.318-.185-.53-.53-.477-.874.715-.133 1.245-.318 2.173-.371zm7.659-.265c.345-.106.451-.901.901-.556.424.106.159.954.159 1.272-.398.212-.477.636-.769.928-.026.053-.133.185-.026.212.716-.265 2.544.822 1.484 1.087-.477-.026-.927.133-1.325.424-.159.239-.609.291-.795.715-.239-.053-.477-.106-.716-.106-1.352-.795-.133-1.564-.212-1.988.53-.583.954-1.219 1.298-1.988zM13.45 42.196c.424-.133.768-.424 1.139-.663a2.62 2.62 0 0 1-.689.742c-.08.106-.185.212-.238.344.715-.159 1.987-.477 2.544-.954.291-.238.504-.583.848-.768.503-.265.98.053 1.351.397.133.133.345.212.371.424-.185.053-.398.053-.556.133-.53.159-1.034.424-1.537.636l-2.968 1.139c-.265.106-.715.424-1.007.398-.185 0-1.06-.291-1.245-.371-1.06-1.193 1.537-1.033 1.988-1.458z" fill="#339"/><path d="M15.41 6.845c-.133-.663-.371-1.272-.345-1.908.026-.45.371-.98.769-1.431.212-.265.875-.557 1.245-.557s.769.318.901.583c.318.663 0 1.378-.424 2.094l-.636.927c1.564.212 1.219 1.219 1.378 2.014.053.318.212.663-.398.981-.133.053-.133.292-.133.424l-.424 7.102-.556 8.745c0 .212.159.397.238.61.053.159.133.318.106.477l-.874 4.505c-.133.504.265.689.583.928 1.378.954 1.643 2.226 1.378 3.657-.371 2.014-1.696 3.816-3.763 5.486-.636.53-1.192 1.113-2.2 1.431 0-.079-.026-.159 0-.212.954-1.616.769-3.047-.026-4.426-.98-1.696-1.405-3.498.106-5.459.556-.742.583-1.352.583-2.041l-.026-3.737c0-.106.026-.265.133-.318.556-.291.477-.636.503-.98l.769-10.945.345-4.478c0-.133.026-.318-.08-.344-.53-.186-.318-.53-.291-.848l.159-1.007c.026-.53.265-1.007.98-1.272zm.795 19.213c0-.08.053-.212.053-.318l.08-1.802.424-6.572.45-7.5c.026-.344-.291-.504-.901-.45-.715.08-1.034.265-1.06.663l-.424 6.413-.61 8.4-.08 1.352 2.067-.186zm-2.941 6.36l-.345.344c-.769 1.113-1.166 2.252-.875 3.339.398 1.378.98 2.703 1.484 4.081.053-.53.053-1.087-.08-1.59l-.768-2.623c-.08-.265.026-.583.053-.901.106-.026.212-.026.318-.053.106 1.987 1.537 3.684.821 5.883.371-.53.663-1.034.822-1.563.45-1.404.159-2.703-.08-4.002-.053-.318-.08-.636.424-1.033.318 2.226.848 4.319-.689 6.651 1.484-1.431 2.2-2.941 2.332-4.505l.159-1.299c.106 0 .239-.026.345-.026-.026.61 0 1.219-.133 1.802-.106.609-.371 1.219-.556 1.855.795-1.139 1.192-2.279 1.219-3.445.026-1.06-.53-1.908-1.351-2.676-.159-.133-.556-.318-.689-.265-.875.318-1.59.133-2.412.026zm.477-5.671c-.053.106-.238.344-.238.53l.026 4.213c0 .61.397.795 1.298.689.504-.053.822-.212.848-.583.026-.291.08-.583.133-.874l.663-3.683c.026-.159-.053-.345-.185-.424-.398-.265-1.802-.212-2.544.133zm3.922-17.569c.08-.026.133-.079.212-.106-.159-.609-.239-1.219-.53-1.802-.08-.186-.715-.265-1.086-.212-.398.08-1.034.345-1.113.556-.239.609-.239 1.246-.371 1.935 1.034-.583 1.961-.61 2.889-.371zm-1.404-2.517c.212-.238.424-.477.583-.742.503-.689.795-1.405.609-2.094-.053-.159-.265-.371-.503-.397-.185-.027-.556.159-.742.318-.848.715-.822 2.332.053 2.915z" fill="#b27"/></svg>