<svg xmlns="http://www.w3.org/2000/svg" width="150" height="200" viewBox="0 0 39.7 52.9"><path d="M22.688 7.75c.159-.053.345-.08.345-.08.079 0 .291-.026.61-.053.318-.053.609-.053.742-.106l1.325-.265 2.835-.556.98-.239.026-.609c0-.239-.079-.318-.239-.318a1.04 1.04 0 0 0-.371.079c-.291.133-.504.186-.61.186s-.742-.239-1.007-.371a1.7 1.7 0 0 1-.451-.345l-.026-.079 1.935-.424c.556-.132.715-.238.715-.424 0-.212-.106-.556-.238-.689l-.53-.636.026-.106c.133-.079.239-.132.265-.132l.344.053c.901.185.901.185 1.166.45.239.212.371.477.371.742v.239l.477-.053.53-.106c.133-.053.265-.053.398-.053.795 0 1.722.609 1.722 1.087 0 .132-.053.318-.212.503-.053.106-.133.186-.133.212-.026.027-.053.133-.08.239l.875-.08.901-.079.61-.08c.424 0 1.245.345 1.643.716.132.132.238.318.238.503 0 .212-.238.371-.477.371-.053 0-.053 0-2.041-.371-.53-.106-1.113-.132-1.696-.132a1.04 1.04 0 0 0-.61.132c-.185.345-.212.424-.238.715.583.265.822.504.822.716 0 .185-.212.291-.61.318-.397 0-.424.026-1.086.132-.238.053-.53.08-.795.133-.503.053-.609.238-.609.848v.132l.901-.238c.238-.053.424-.106.556-.106.398 0 .928.318.928.556 0 .08-.106.159-.239.212-.186.053-.186.053-.954.186l-1.139.238-.053.344v.159l.609-.053 1.166-.133c.106-.026.345-.053.742-.132.239-.053.398-.053.556-.053.61 0 1.431.503 1.431.927 0 .132-.212.265-.477.265-.08 0-.504-.053-1.06-.08l-.583-.053c-1.643 0-3.975.53-6.811 1.458a1.84 1.84 0 0 1-.689.132c-.133 0-.239-.053-.239-.159 0-.212.265-.636.583-.954.238-.265.238-.265 1.245-.344.345-.053 1.086-.265 2.279-.583l.026-.583-1.325.371a1.47 1.47 0 0 1-.583.132c-.344 0-.742-.291-.981-.715l.026-.079.504.026c.318 0 .345-.026.874-.132.795-.239.795-.239 1.511-.345.053-.344.053-.397.053-.768l-.583.106-.424.106a2.75 2.75 0 0 1-.61.079c-.318 0-.609-.053-.98-.238-.239-.106-.291-.133-.318-.398l.053-.053.636-.132.795-.106 1.404-.451c.079-.106.106-.238.106-.53 0-.053 0-.239-.026-.371-.795.106-1.086.159-3.763.98-.53.159-.981.265-1.219.265-.715 0-1.378-.318-1.749-.848V7.75zm1.829 10.997l.424-.079 1.272-.053c.106 0 .477-.053 1.034-.186 1.086-.212 5.698-.636 6.917-.636.98 0 1.935.715 1.935 1.431 0 .186-.053.265-.239.265-.371 0-.371 0-2.358-.397-.556-.106-1.06-.159-1.537-.159-1.484 0-4.187.344-5.062.636-.477.159-.795.238-.98.238-.239 0-.769-.238-1.034-.477-.159-.132-.239-.238-.371-.503zm2.306-4.929c.053.398.212.689.318.689.053 0 .133-.053.265-.238.53-.663.98-.901 2.438-1.193 1.59-.344 2.306-.45 2.915-.45.689 0 1.166.212 1.537.662.185.239.318.557.318.716 0 .132 0 .132-.371.556l-.238.318-.874 1.828c-.186.398-.689.795-.98.795-.106 0-.265-.079-.477-.185-.238-.133-.318-.133-.636-.133-.583 0-1.245.053-1.855.212-.504.106-.504.133-1.06.451-.053.053-.133.053-.186.053-.609 0-1.59-2.041-1.59-3.339 0-.424.079-.583.398-.822zm2.862.716c0-.239-.106-.398-.291-.398-.053 0-.212 0-.344.053-.053 0-.344.053-.795.106-.477.053-.795.344-.795.795 0 .424.239 1.298.45 1.59.053.106.239.185.345.185.053 0 .504-.132 1.299-.344.053-.133.053-.318.053-.345.026-.079.026-.132.026-.159.026-.053.026-.132.026-.132 0-.053-.053-.133-.133-.133-.053 0-.053 0-.477.133-.053.026-.133.026-.239.026-.477 0-.716-.106-.981-.371l.053-.079.848-.239c.133-.053.424-.132.954-.318zm.928 1.828c.159-.027.345-.027.451-.027a1.83 1.83 0 0 1 .662.133c.051.018.105.027.159.026.106 0 .186-.106.345-.503.344-.901.583-1.749.583-2.173 0-.238-.159-.344-.609-.344-.371 0-1.087.079-1.405.185-.159.053-.238.106-.238.212 0 .08.053.186.212.371l.186.212.53.185c.239.08.477.292.477.424 0 .159-.239.292-.663.318-.53.053-.715.239-.715.742v.239zm.636-9.407c-.133 0-.318.053-.61.132l-.053.503c0 .212.079.318.239.318.318 0 .61-.424.636-.954zm.636-.795c.424-.848.424-.901.424-1.113s-.133-.318-.424-.318c-.371 0-.901.132-1.06.291-.053.053-.106.133-.106.265v.424l-.026.53z" fill="#b32"/><path d="M6.92 2.98L1.302 9.897v1.166h5.353v1.06c0 .371-.053.61-.185.716-.159.185-.636.265-1.431.291v.822H9.57v-.822l-1.193-.106c-.291-.106-.424-.397-.424-.901v-1.06h2.014V9.976H7.954V2.954H6.92zm-.291 7.023H2.547l4.081-5.141z" fill="#084"/><path d="M31.539 49.62a7.29 7.29 0 0 1-.715-1.219c-.186-.371-.265-1.033-.079-1.351 1.537-2.624 1.034-5.433-.636-8.003L20.753 24.18c-1.14-1.802-2.385-3.578-3.869-5.088-.742-.769-2.199-1.457-3.154-1.298-2.199.397-2.756.132-3.683-1.537-.133-.239-.318-.53-.556-.663a1.29 1.29 0 0 0-.185-.079c-.45-.159-.927.185-.875.662a.37.37 0 0 0 .053.159c.504.848.689.875 1.14 1.749.212.397.239 1.113.026 1.484-1.378 2.412-1.405 4.823-.08 7.208l3.71 6.095 8.454 12.534c1.564 2.412 3.71 3.233 6.413 3.233.53 0 1.193.344 1.59.715.504.504.504.53.928 1.113a.46.46 0 0 0 .61.106l.133-.079c.424-.212.371-.556.133-.874zm-6.201-14.655l.504-.132 3.445 4.664-.398.663-3.312-.848c-.212-.053-.477-.398-.451-.609l.212-3.737zM17.176 21.98s-.026.026 0 0l-6.174-1.352c1.59-2.147 4.876-1.405 6.174 1.352zm-6.943.848c.424-.106.875-.371 1.272-.292l6.121 1.431c.53.133 1.007.371 1.511.583-.053.159-.079.318-.133.503l-1.193-.079-6.598-1.245c-.371-.106-.663-.583-.98-.901zm.504 3.1l.318-.504 9.752 1.749.106.663c-2.941 1.643-5.803-.345-8.692-.583-.53-.053-.98-.875-1.484-1.325zm4.426 6.757c-.689-.954-1.219-1.987-2.041-3.392l3.339.477c-.212.397-.344.583-.398.768-.079.318-.106.663-.159 1.007.398.027.848.238 1.14.079l4.054-2.04c.265-.132.556-.159.848-.238l.186.344-5.671 3.604c-.212.212-1.033-.239-1.299-.61zm2.411 3.392c-.132-.133-.45-.292-.503-.504a.75.75 0 0 1 .265-.689l5.512-3.525c.159-.106.53.026.716.159.106.079.079.53-.026.609l-5.565 3.922c-.079 0-.186 0-.398.027zm5.883 8.321s-.026 0 0 0l-.61.185-3.18-4.107.504-.822c1.06.292 2.676.292 3.021.954.556 1.007.212 2.491.265 3.79zm.636-7.659s.239 2.014-.159 2.385c-.424.398-2.465-.556-2.465-.556-.821-.185-1.749-.795-2.65-1.007l4.929-3.445zm6.281 8.983c-.159 1.087-1.086 1.934-2.359 1.855-.874-.053-1.802-.186-2.597-.53-.424-.186-.822-.875-.848-1.378-.053-1.087.106-2.173.186-3.26.133-1.643.186-1.669 1.829-1.272.345.08.689.212 1.034.318l1.855.477c.238.026.53.053.556.106.159 1.245.53 2.491.345 3.683z" fill="#b27"/><path d="M26.451 29.48l1.802.689c1.564.557 2.12 2.862.928 4.028-.265.265-.795.238-1.219.344-.079-.397-.344-.901-.186-1.139.822-1.219.106-1.563-.901-1.855-1.404-.424-1.855-1.431-2.279-2.835-.371-1.192-.715-2.332-.768-3.578 0-.185-.742-.556-.954-.45-1.166.53-1.404-.265-1.696-1.007 2.173-1.617 3.233-1.246 4.77 1.722l2.358-2.305c.371-.371.636-.848.981-1.219 1.086-1.113 2.332-.874 2.862.556.185.477.344 1.007.371 1.537.053 1.537 1.166 2.04 2.305 2.332.98.265 1.59-.345 1.696-1.404l.556-3.816c.08-.45.318-.954.663-1.219.027-.026.053-.026.08-.053.556-.318 1.219.212 1.06.848 0 .027 0 .053-.027.08l-.768 2.412c-.159.689-.106 1.431-.212 2.12-.45 2.995-2.465 4.531-5.432 4.107-1.139-.159-2.226-.556-3.366-.636-.848-.08-1.749.132-2.624.238.026.132 0 .318 0 .503zm4.267-6.598l-3.604 3.922 6.943 1.272c.106-.159.185-.318.291-.503-2.677-.318-3.207-2.332-3.63-4.69zM13.81 40.875l-3.233 2.968c-.61.477-1.59 1.113-2.147.901-.583-.212-1.033-1.272-1.192-2.041-.45-2.067-.901-2.73-2.385-2.888-.928-.106-1.537.132-1.696 1.219-.159 1.113-.477 2.226-.795 3.339-.133.45-.318.98-.636 1.245 0 0-.026 0-.026.027-.503.371-1.192-.133-1.007-.742L1.7 41.511l.98-2.942c.98-2.252 3.763-2.412 5.406-1.908l3.551 1.033c.53.106 1.113-.132 1.696-.424-1.325-1.113-3.312-1.484-3.047-3.63.08-.715.636-1.378.98-2.067l.662.053.239 1.882c.08.371.239.822.504 1.06.371.318 1.06.371 1.325.742.504.742 1.219 2.226 1.086 2.332-1.086.769-2.305 1.563-3.577 1.749-.98.159-2.094-.53-3.127-.795a5.35 5.35 0 0 0-1.881-.186c1.828 1.087 2.014 2.915 2.173 4.744l6.386-4.77.477.212c.053.662.159 1.325.133 1.987-.026 1.484.185 1.643 1.59 1.352.318-.053.689.238 1.034.371-.159.371-.212.928-.504 1.113-1.404.875-3.021.292-3.604-1.245-.053-.292-.159-.609-.371-1.298z" fill="#339"/><path d="M23.96 36.9c0 .82-.664 1.484-1.484 1.484s-1.484-.664-1.484-1.484.664-1.484 1.484-1.484 1.484.664 1.484 1.484zm6.015 6.36a1.19 1.19 0 0 1-1.192 1.192c-.658 0-1.192-.534-1.192-1.192s.534-1.192 1.192-1.192 1.192.534 1.192 1.192zm-2.65 1.855a1.19 1.19 0 1 1-2.385 0c0-.658.534-1.193 1.192-1.193s1.193.534 1.193 1.193z" fill="#b27"/></svg>