<svg xmlns="http://www.w3.org/2000/svg" width="150" height="200" viewBox="0 0 39.7 52.9"><path d="M22.63 7.719c.159-.053.345-.08.345-.08.08 0 .291-.026.61-.053.318-.053.609-.053.742-.106l1.325-.265 2.835-.557.981-.238.026-.61c0-.238-.079-.318-.239-.318a1.04 1.04 0 0 0-.371.08c-.291.132-.504.185-.61.185s-.742-.238-1.007-.371a1.7 1.7 0 0 1-.451-.344l-.026-.08 1.935-.424c.556-.133.716-.238.716-.424 0-.212-.106-.557-.239-.689l-.53-.636.026-.106c.133-.079.239-.133.265-.133l.345.053c.901.186.901.186 1.166.45.239.212.371.477.371.742v.238l.477-.053.53-.106c.133-.053.265-.053.398-.053.795 0 1.722.609 1.722 1.086 0 .133-.053.318-.212.503-.053.106-.132.186-.132.212-.026.027-.053.132-.08.238l.875-.08.901-.08.609-.08c.424 0 1.246.345 1.643.716.133.132.239.318.239.503 0 .212-.239.371-.477.371-.053 0-.053 0-2.041-.371-.53-.106-1.113-.133-1.696-.133a1.04 1.04 0 0 0-.609.133c-.186.345-.212.424-.239.715.583.265.821.503.821.715 0 .186-.212.292-.609.318-.398 0-.424.026-1.087.133-.239.053-.53.079-.795.133-.504.053-.61.238-.61.848v.133l.901-.239c.238-.053.424-.106.556-.106.397 0 .927.318.927.556 0 .079-.106.159-.239.212-.185.053-.185.053-.954.186l-1.139.238-.053.345v.159l.61-.053 1.166-.133c.106-.027.344-.053.742-.133.238-.053.397-.053.556-.053.61 0 1.431.504 1.431.928 0 .133-.212.265-.477.265-.079 0-.504-.053-1.06-.079a4.24 4.24 0 0 0-.583-.053c-1.643 0-3.975.53-6.81 1.457a1.84 1.84 0 0 1-.689.133c-.133 0-.239-.053-.239-.159 0-.212.265-.636.583-.954.239-.265.239-.265 1.246-.344.344-.053 1.086-.265 2.279-.583l.026-.583-1.325.371a1.47 1.47 0 0 1-.583.133c-.344 0-.742-.292-.98-.716l.026-.08.504.027c.318 0 .344-.027.874-.133.795-.239.795-.239 1.511-.344.053-.344.053-.397.053-.768l-.583.106-.424.106a2.75 2.75 0 0 1-.609.08c-.318 0-.609-.053-.98-.239-.239-.106-.291-.133-.318-.398l.053-.053.636-.133.795-.106 1.404-.45c.079-.106.106-.239.106-.53 0-.053 0-.239-.026-.371-.795.106-1.087.159-3.763.981-.53.159-.98.265-1.219.265-.715 0-1.378-.318-1.749-.848v-.026zm1.828 10.971l.424-.079 1.272-.053c.106 0 .477-.053 1.034-.186 1.086-.212 5.698-.636 6.916-.636.981 0 1.935.716 1.935 1.431 0 .186-.053.265-.239.265-.371 0-.371 0-2.358-.398-.556-.106-1.06-.159-1.537-.159-1.484 0-4.187.345-5.061.636-.477.159-.795.238-.981.238-.239 0-.768-.238-1.033-.477-.159-.132-.239-.238-.371-.503zm2.306-4.929c.053.397.212.689.318.689.053 0 .133-.053.265-.238.53-.663.98-.901 2.438-1.193 1.59-.344 2.306-.45 2.915-.45.689 0 1.166.212 1.537.662.185.239.318.556.318.716 0 .133 0 .133-.371.556l-.239.318-.875 1.829c-.185.398-.689.795-.98.795-.106 0-.265-.079-.477-.186-.239-.133-.318-.133-.636-.133-.583 0-1.246.053-1.855.212-.504.106-.504.133-1.06.451-.053.053-.133.053-.186.053-.609 0-1.59-2.04-1.59-3.339 0-.424.08-.583.398-.822zm2.862.715c0-.239-.106-.397-.291-.397-.053 0-.212 0-.344.053-.053 0-.344.053-.795.106-.477.053-.795.345-.795.795 0 .424.239 1.298.451 1.59.053.106.238.185.344.185.053 0 .504-.133 1.299-.344.053-.133.053-.318.053-.344.026-.079.026-.133.026-.159.026-.053.026-.133.026-.133 0-.053-.053-.133-.133-.133-.053 0-.053 0-.477.133-.053.026-.133.026-.239.026-.477 0-.716-.106-.98-.371l.053-.079.848-.239c.133-.053.424-.133.954-.318zm.928 1.829c.159-.026.345-.026.451-.026a1.83 1.83 0 0 1 .662.133c.051.018.105.027.159.026.106 0 .186-.106.345-.503.344-.901.583-1.749.583-2.173 0-.239-.159-.344-.609-.344-.371 0-1.086.079-1.404.185-.159.053-.239.106-.239.212 0 .08.053.186.212.371l.186.212.53.185c.239.08.477.292.477.424 0 .159-.239.291-.663.318-.53.053-.715.239-.715.742v.238zm.636-9.407c-.133 0-.318.053-.61.132l-.053.503c0 .212.079.318.239.318.318 0 .609-.424.636-.954zm.636-.795c.424-.848.424-.901.424-1.113s-.133-.318-.424-.318c-.371 0-.901.133-1.06.292-.053.053-.106.133-.106.265v.424l-.026.53z" fill="#b32"/><path d="M6.995 2.896L1.377 9.813v1.193H6.73v1.06c0 .371-.053.609-.185.715-.159.186-.636.265-1.431.292v.822h4.532v-.822l-1.193-.106c-.291-.106-.424-.398-.424-.901v-1.06h2.014V9.919H8.029V2.896zm-.291 7.023H2.623l4.081-5.141z" fill="#084"/><path d="M35.801 31.437c.874.504 1.935.928 2.624 1.881.662.954.397 2.067-.477 3.419-.901 1.431-2.2 2.279-3.418 3.233-2.809 2.2-5.698 4.293-8.533 6.44l-3.63 2.756c-.053.026-.106.053-.133.106-.901 1.113-1.908 1.219-2.889 1.034-1.882-.371-3.471-1.245-4.69-2.65-1.113-1.272-1.696-2.888-2.04-4.664a18.7 18.7 0 0 0-.371-1.431c-.291-.875-.636-1.723-.928-2.597-.53-1.617-1.537-2.703-2.968-3.471-1.802-.98-2.676-1.563-4.425-2.597-.53-.318-1.166-.662-1.404-1.272l-1.166-3.101c-.239-.689-.769-2.093-.424-2.915l1.405-3.286c.371-.822.954-1.193 1.722-1.325.345-.053.689-.291 1.034-.45l7.023-3.312 6.678-3.207c1.193-.504 1.987-.556 2.624.397.556.848.663 1.299 1.034 2.915.159 1.034 0 1.564-.398 1.935-.689.477-.371.265-1.087.742-.239.159-.291.344-.159.503.265.318.504.689.822.927 1.352.875 2.782 1.564 4.505 1.696.45.027.874.345 1.166.636 1.086 1.139 1.829 2.571 2.544 4.028.185.397.159.927.291 1.378.186.662.318 1.378.636 1.961.504.927 1.405 1.378 2.491 1.564.424.079.742-.053 1.087-.318.45-.318.901-.61 1.457-.954zm-17.516-9.646c-.185.106-.291.159-.398.212l-7.314 4.479-3.445 2.04c-.185.106-.397.133-.556.238-.291.239-.583.53-.875.822 0 0 .026.053.08.106.769.583 1.537 1.219 2.358 1.723 1.193.742 2.491 1.378 3.684 2.12 1.431.901 2.411 2.279 2.968 4.002l1.908 6.042c.212.663.503 1.246.954 1.776.371-.795.822-1.431 1.564-1.802.053-.026.106-.079.159-.132.345-.371.636-.822 1.033-1.113l7.394-5.857c.927-.715 1.908-1.272 2.889-1.908 0-.026-.026-.053-.053-.053a.49.49 0 0 0-.186-.053c-1.245-.344-2.094-1.139-2.464-2.464-.212-.795-.318-1.669-.61-2.438-.583-1.484-1.325-2.836-2.411-3.922-.53-.53-1.166-.927-2.04-.848-.239.027-.477-.026-.663-.106a57.69 57.69 0 0 1-2.252-.981c-.848-.371-1.617-.768-1.723-1.881zm-13.224-.742c1.193.451 2.305 1.113 2.597 2.65.265 1.484-.133 3.021-.848 4.637.371-.239.689-.424 1.007-.61l7.182-4.293c2.597-1.643 3.843-2.491 6.413-4.213 1.034-.689.822-1.404.636-2.623-.239-1.404-.822-2.279-1.458-2.756-.238-.159-1.245.159-1.563.292zm17.596 27.56l.318-.212 11.156-8.374c1.246-.954 2.544-1.881 3.578-3.18.848-1.034.928-2.014.53-2.862-.45-.981-1.325-1.431-2.2-1.908-.239-.133-.477-.106-.742.079-.689.451-1.404.848-2.093 1.299-2.067 1.325-4.214 2.57-6.227 4.054-2.041 1.458-3.949 3.154-5.91 4.744-.398.318-.769.662-1.166 1.007 1.484-.265 2.57.212 3.313 1.246.821 1.166.026 2.624-.556 4.108zM7.075 23.169c-.583-.98-1.484-1.563-2.65-1.749-.769-.133-1.484.291-1.908 1.166-.398.795-.769 1.59-1.113 2.385-.371.901-.159 2.624.159 3.445l1.06 2.756c.636 1.431 1.298 1.351 2.544 2.067s2.517 1.378 3.736 2.12c1.351.848 2.305 2.12 2.862 3.736.556 1.643 1.113 3.313 1.59 5.008.583 2.067 1.484 3.843 3.286 4.797.795.424 1.563.874 2.491 1.007 1.855.265 3.471-1.776 3.843-3.127l-1.59.848c-.053.026-.106.079-.159.132-.398.398-.848.504-1.219.398-.61-.186-1.166-.424-1.723-.689-.504-.238-.822-.689-.848-1.351a.49.49 0 0 0-.133-.318c-.795-.954-1.325-2.12-1.643-3.419-.185-.742-.318-1.51-.53-2.226-.291-.954-.663-1.882-1.007-2.809-.45-1.245-1.033-2.412-2.146-3.047-.98-.583-1.987-1.139-2.995-1.696-1.193-.663-2.385-1.299-3.286-2.332-.345-.398-.742-.715-1.245-.927-.424-.159-.795-.477-1.139-.795-.98-.901-1.06-2.915.954-4.187.026-.027.106-.053.106-.08 0-.477.398-.424.61-.53.715-.159 1.405-.344 2.094-.583zm26.156 9.964c-.822-.133-1.484-.398-2.014-.848-.689-.61-.981-1.511-1.246-2.438-.159-.583-.186-1.219-.397-1.749-.583-1.431-1.299-2.756-2.332-3.816-.53-.556-1.166-1.007-2.093-.928a1.38 1.38 0 0 1-.742-.133l-2.703-1.219c-.583-.265-.954-.715-1.14-1.378-.026-.079-.053-.133-.106-.238l-2.173 1.431c.239.344.398.715.689.927 1.325.981 2.782 1.749 4.585 1.908.636.053 1.113.291 1.484.742.424.556.874 1.087 1.219 1.696.715 1.192 1.457 2.385 1.616 3.975.159 1.537.98 2.57 2.332 3.021.318.106.716.239 1.06.106.662-.212 1.272-.636 1.961-1.06zm-27.56-6.81c0-.689-.212-1.166-.636-1.537-.398-.345-.477-.345-.928.159-1.06 1.139-1.219 1.855-.61 2.809.477.742 1.113 1.299 1.882 1.643.133.053.398-.026.53-.133.821-.768 1.298-1.723 1.537-2.809-.345.159-.61.265-.875.398-.291.133-.583.265-.874.371-.424.186-1.06 0-1.245-.371-.08-.159-.08-.291.159-.318.345-.053.689-.133 1.06-.212zM21.81 43.786c-.822-.45-2.173-.239-3.1.636-.848.795-1.166 1.908-.424 2.544.424.371.98.636 1.511.848.795.291 1.06.159 1.749-.689.318-.398.398-.769.185-1.113-.291-.504-.769-.769-1.299-.901-.265-.079-.583.053-.768.345-.08.132-.106.344-.053.45.026.08.239.053.345.026.212-.079.424-.212.662-.291.133-.053.291 0 .424 0 0 .053 0 .106-.026.133-.371.185-.769.318-1.139.53-.318.185-.477.053-.583-.106a.59.59 0 0 1-.053-.556c.212-.45.504-.874.98-1.113.556-.212 1.086-.504 1.59-.742zM7.287 23.46l-2.411.848c1.06.424 1.14 1.431 1.034 2.518l1.563-.636c.185-.98.185-1.908-.185-2.73zm13.409 21.253c.318.212.636.344.875.556.477.371.901.768.424 1.696l1.272-.636c.212-1.06-.239-2.014-1.087-2.359-.504.265-.98.477-1.484.742zM5.087 26.799c0 .053-.026.079-.026.133.133 0 .265.053.424 0 .053-.027.133-.186.239-.371a3.96 3.96 0 0 1-.636.238z" fill="#339" stroke="#339" stroke-miterlimit="10" stroke-width=".265"/><path d="M19.185 31.808a1.5 1.5 0 0 1 .053.769c-.053.265-.133.504-.265.742s-.265.451-.45.636a2.19 2.19 0 0 1-.477.424l.398.106c.106 0 .212-.026.345-.053a2.46 2.46 0 0 0 .345-.106 1.59 1.59 0 0 0 .371-.186 2.66 2.66 0 0 0 .398-.318c.107-.106.185-.265.239-.424s.08-.345.053-.583c0-.212-.053-.477-.133-.795l.397.45.424.398a3.79 3.79 0 0 0 .53.371l.795.424.636.265c.185.08.345.185.504.291s.291.265.424.477c.159.239.265.477.318.769.053.265.106.53.106.769l-.026.848.345.186.583-1.564.795.795h.212a5.64 5.64 0 0 0-.212-.716 3.11 3.11 0 0 0-.239-.636c-.08-.212-.186-.398-.265-.53l-.291-.398-.265-.318-.265-.291.742.186.583.265a1.23 1.23 0 0 1 .477.424 2.98 2.98 0 0 1 .318.556l.212.504.159.477.239-.212a3.79 3.79 0 0 0-.079-.769c-.027-.212-.106-.477-.186-.742-.106-.291-.239-.556-.398-.822-.212-.291-.477-.504-.795-.663a5.67 5.67 0 0 0-1.007-.345c-.345-.079-.795-.106-1.351-.132a2.59 2.59 0 0 0 .583-.239c.212-.133.345-.239.45-.371.106-.106.159-.291.185-.556l.45-.079.344-.079a.98.98 0 0 0 .291-.133c.08-.053.133-.133.186-.291a2.24 2.24 0 0 0 .133-.451l.106-.583-.186-.186c-.079.079-.185.133-.265.212-.079.053-.159.133-.239.186-.079.079-.159.133-.238.186s-.185.079-.318.133l-.424.106a9.48 9.48 0 0 1-.556.079c.053-.106.08-.212.106-.291s.026-.159.026-.239-.026-.132-.053-.185-.106-.106-.212-.159l-.345-.159-.424-.159.954-.503.026-.239-1.272-.133.239-.424-.689-.133.53-1.139-.185-.133c-.08.026-.185.053-.265.106-.185.053-.318.133-.45.212a.87.87 0 0 0-.212.159c-.08.08-.159.133-.212.212a2.39 2.39 0 0 0-.239.265c.026-.106.053-.186.106-.318a.99.99 0 0 0 .053-.318c.026-.106.026-.239.026-.344s-.026-.238-.026-.344c-.026-.106-.026-.238-.053-.318-.026-.106-.08-.239-.106-.345l-.477.504-.689.079.689-1.06h-.371c-.106 0-.185.026-.291.026-.106.026-.185.026-.239.079-.106.079-.212.132-.318.212s-.185.133-.265.212c-.106.08-.185.133-.265.212l-.159-.663-.45.398-.239-.928-.345-.026c0 .106 0 .212-.026.344-.026.106-.026.239-.053.371l-.08.45-.08.53-.053.636-.053.742-.159-.159a2.61 2.61 0 0 1-.318-.398c-.053-.08-.106-.212-.159-.398l-.159-.556c-.053-.186-.08-.371-.106-.504l-.053-.265-.159.08a2.46 2.46 0 0 0-.212.715 3.22 3.22 0 0 0 0 .715c.026.265.133.504.318.769l.556.768.53.715.583.715-1.087.239-.053.265.345.133.477.239a5.99 5.99 0 0 1 .53.344c.186.133.345.239.477.371h-.026c.053.053.08.106.106.159l.026-.026.106.159.08.159s-.026 0-.026.026c-.026-.026 0 .053.026.079zm6.069 2.941l.159.265c.053.106.106.186.133.291l.159.477c.026.106.053.186.053.291l-.609-.663-.08-.928c.08.079.133.186.185.265zm-.822-.927a1.47 1.47 0 0 1 .212.159 1.63 1.63 0 0 1 .291.848c0 .291-.026.583-.08.848-.053.318-.185.636-.318.927a3.29 3.29 0 0 0-.08-.715c-.026-.212-.08-.424-.159-.663s-.159-.451-.291-.636a3.41 3.41 0 0 0-.503-.556c-.186-.159-.371-.265-.556-.371l-.636-.291 1.06.106.424.079c.133.026.265.053.398.106.053.053.159.106.239.159zm-1.139-1.352c.318 0 .636.026.954.08s.61.106.901.212c.291.08.53.212.742.344a2.1 2.1 0 0 1 .504.451 3.39 3.39 0 0 1 .292.53c.079.186.132.371.185.53.053.185.106.371.132.583a1.84 1.84 0 0 1-.132-.344l-.159-.318c-.053-.106-.106-.212-.186-.291-.212-.291-.556-.53-1.034-.716-.477-.159-1.087-.239-1.828-.239-.583 0-1.06-.053-1.484-.186s-.769-.265-1.06-.424-.504-.318-.663-.504l-.344-.398-.106-.159c-.028-.029-.046-.066-.053-.106.08 0 .159 0 .212.026h.238c.286.185.587.344.901.477.265.133.583.239.928.318.318.08.689.133 1.06.133zm1.033-1.166a.87.87 0 0 1-.159.212 2.22 2.22 0 0 1-.345.265c-.239.159-.477.239-.715.291-.239.026-.477.053-.663.026-.239-.026-.477-.053-.689-.133l.53-.239c.133-.079.291-.133.45-.212l.424-.159.398-.106.397-.079.45-.053c-.026.079-.026.132-.08.185zm.159-.98c.185-.026.345-.079.504-.133s.265-.079.344-.133c.053-.026.106-.079.186-.133.053-.053.106-.106.159-.133.053-.053.106-.106.185-.159 0 .133-.026.265-.026.398l-.079.291c-.026.106-.08.186-.159.239s-.239.106-.477.159l-.715.159-.954.159.397-.556zm-1.113.265c0 .106-.053.186-.106.291s-.185.212-.345.318c-.291.185-.556.291-.822.344s-.504.079-.715.053c-.239-.026-.477-.053-.689-.133l.556-.106c.159-.026.318-.079.477-.133.136-.044.269-.097.398-.159a3.05 3.05 0 0 0 .45-.371 1.98 1.98 0 0 0 .318-.371c.106-.133.185-.239.239-.371.053.053.08.106.106.133.026.053.08.106.106.212s.053.186.026.291zm-.424-1.378l.318.079c.106.053.212.079.291.159.08.053.159.106.185.159.026.026.026.106.026.186s-.026.186-.053.265c-.026.106-.08.212-.106.318l-.159-.318a.56.56 0 0 0-.08-.133c-.053-.079-.106-.133-.185-.133-.053-.026-.159.026-.239.079-.053.026-.106.079-.159.186-.053.079-.133.186-.185.291-.08.106-.159.212-.265.318s-.212.212-.371.318-.371.185-.636.238a3.29 3.29 0 0 1-.715.079h-.583l-.239-.026.053-.079c.026-.026.026-.053.053-.079l.636-.239c.159-.079.345-.133.53-.212a2.31 2.31 0 0 0 .45-.239c.106-.08.212-.159.318-.265l.291-.318a2.9 2.9 0 0 1 .265-.291.86.86 0 0 1 .239-.212c.106-.133.212-.133.318-.133zm-.053-.795c.106-.026.212-.026.345-.026s.239.026.371.053c-.08.026-.133.053-.212.106l-.239.133c-.106.053-.185.133-.318.186a1.66 1.66 0 0 0-.504.451l-.291.344a3.84 3.84 0 0 1 .159-.503c.053-.133.106-.265.185-.371a.79.79 0 0 1 .239-.265.41.41 0 0 1 .265-.106zm-.291-.53l-.345.716-.133-.371-.424.265.45-.716zm-.371-1.139c.026-.027.053-.027.106-.053-.08.159-.133.318-.185.477l-.159.397c-.053.133-.106.265-.159.345l-.212.318-.239.371c-.08.132-.185.265-.291.397l.053-.451c0-.053.026-.106.026-.159s.026-.106.026-.133c0-.053.026-.079.026-.133l-.556.371c.026-.106.106-.238.185-.371l.345-.477.398-.451c.133-.133.265-.238.398-.344zm-1.67 2.915c-.106.186-.212.345-.371.451l-.398.345c-.106.106-.212.186-.291.239l-.239.212-.185-.318c.053-.159.133-.291.185-.424l.185-.344c.08-.106.133-.212.212-.291.053-.079.159-.159.291-.265l.424-.318c.159-.133.345-.265.556-.398a2.39 2.39 0 0 1-.159.583c-.026.186-.106.345-.212.53zm.583-3.445c0 .133 0 .291-.026.477a2.75 2.75 0 0 1-.159.583c-.079.212-.212.424-.345.662l-.45.636-.53.662c.026-.291.08-.557.133-.822l.159-.716c.053-.239.133-.45.239-.636a3.13 3.13 0 0 1 .291-.503c.106-.159.212-.291.318-.424l.345-.398c0 .159.026.318.026.477zm-1.351 0c.133-.053.265-.08.371-.106.133-.026.238-.026.371-.026-.159.185-.291.344-.397.53l-.291.477c-.08.159-.133.318-.159.477a7.24 7.24 0 0 1-.159.901l-.239.927-.318 1.034c-.159-.239-.291-.556-.398-.928-.08-.371-.133-.742-.106-1.139s.106-.742.265-1.087c.133-.344.371-.609.663-.822.133-.133.265-.185.398-.238zm.053-.981l.239-.106.238-.08c-.053.106-.132.212-.185.292l-.212.292a2.64 2.64 0 0 1-.265.291c-.106.079-.185.159-.291.265l-.291.265c-.106.079-.212.185-.318.265.026-.079.026-.159.053-.265s.08-.212.133-.345a2.42 2.42 0 0 1 .212-.344c.08-.106.212-.212.345-.318zm-1.034.477l-.159.318-.185-.556.212-.212zm-1.378 2.677l-.265-.344c-.08-.106-.159-.238-.239-.318l-.185-.265-.133-.186a1.27 1.27 0 0 1-.239-.556l-.053-.477a1.5 1.5 0 0 1 .08-.477 1.2 1.2 0 0 0 .08.424c.026.132.079.265.132.397s.106.265.212.398l.239.292.238.238c.08.079.159.133.239.212l.08.291.08.239.08.212c.026.053.053.133.08.212.053.079.08.186.133.265l.159.318a6.92 6.92 0 0 1-.715-.875zm.61.318l-.239-.848c-.08-.318-.106-.61-.08-.927 0-.239.026-.477.053-.742s.053-.477.106-.689a5.72 5.72 0 0 1 .133-.716l.239.61.159.556a1.8 1.8 0 0 1 .08.503c0 .345-.026.689-.106.98-.08.318-.133.636-.133.928a1.75 1.75 0 0 0 .026.371c.026.133.053.265.053.371l.106.424c-.165-.257-.298-.533-.397-.821zm.715 2.147c-.106-.053-.212-.133-.318-.212s-.185-.133-.265-.159a1.75 1.75 0 0 1-.291-.186c-.106-.053-.185-.106-.265-.159-.106-.053-.185-.106-.265-.133.185-.106.345-.186.477-.212a.58.58 0 0 1 .371.053 1.25 1.25 0 0 1 .318.239c.106.106.185.239.291.398.08.133.185.345.291.61zm1.59-.53l.265-.424.265-.344.318-.318c.133-.133.265-.239.371-.371l.45-.424c.026.106.026.212 0 .397-.026.159-.08.345-.133.53a3.02 3.02 0 0 1-.265.503 1.37 1.37 0 0 1-.318.345c-.133.079-.265.159-.398.212s-.265.133-.398.186l-.45.186zm-.98.742l.318.344c.133.345.212.689.239 1.007a3.11 3.11 0 0 1-.053.848c-.08.291-.239.53-.504.689-.159.106-.424.186-.795.265l.45-.53c.106-.159.185-.344.291-.53a2.69 2.69 0 0 0 .159-.662c.026-.477-.026-.954-.106-1.431z" fill="#d71"/><path d="M15.21 33.928l-.769.663-.636.662a.48.48 0 0 1 .133.186l1.405-1.352c.026-.053.08-.106.133-.159zm.875-.398a5.08 5.08 0 0 1 .477-.344l.636-.371.742-.398.715-.371.477-.239-.08-.159c-.08.026-.212.106-.398.212l-.742.371-.822.424c-.265.159-.503.265-.662.397l-.45.318-.45.345v.212c.08-.053.159-.079.265-.106a1.52 1.52 0 0 1 .292-.291z" fill="#084"/><path d="M21.57 38.565c-.08-.159-.133-.318-.212-.504-.08-.159-.159-.318-.265-.45-.45-.663-.875-1.193-1.272-1.564-.398-.398-.715-.609-.954-.636h-.424c-.159.026-.318.026-.504.026h-.477c-.133 0-.265-.026-.318-.08l-.291-.212-.291-.318-.345-.397.371-.159.026-.159-1.007-.239.053-.053c-.106.026-.185.079-.265.106v.053h-.053a.72.72 0 0 0-.133.159l.026-.026-.133 2.279-.583.344c.026.133.08.186.106.265l.504-.318-.08 1.617.185.583.185-3.312.318-.212c.053.08.106.186.185.265.053.08.08.159.133.265a.51.51 0 0 1 .08.239c.026.08 0 .159-.026.291s-.08.265-.133.424a3.08 3.08 0 0 0-.106.477 1.31 1.31 0 0 0 0 .451c.026.133.08.291.133.477l.159.53a4.19 4.19 0 0 1 .106.504c.026.159.026.265-.026.344-.053.133-.106.239-.185.318a1.73 1.73 0 0 1-.345.424l.106.345a11.14 11.14 0 0 0 .45-.504c.106-.159.185-.291.238-.424.026-.079.026-.212-.026-.397-.026-.186-.08-.371-.132-.583a5.34 5.34 0 0 0-.185-.61c-.053-.185-.08-.344-.08-.45 0-.133.026-.265.053-.451.026-.159.053-.344.106-.504l.133-.609.265.239.239.239c.08.079.185.185.239.318.08.159.159.344.185.583l.053.663-.026.795.265.08c.053.239.08.45.159.689l.185.609c.08.212.159.398.265.53s.212.239.345.291a.43.43 0 0 0 .424-.079c.185-.133.318-.265.398-.451a1.23 1.23 0 0 0 .106-.504 1.98 1.98 0 0 0-.08-.556l.397-.265-.053-.159c-.026-.106-.08-.239-.133-.371l-.159-.45c-.053-.159-.106-.265-.159-.318a1.53 1.53 0 0 0-.212-.265l-.265-.344c-.106-.106-.185-.212-.239-.318-.08-.079-.133-.159-.133-.185-.026-.026-.053-.08-.08-.133s-.053-.106-.106-.186c-.026-.079-.08-.159-.106-.212.185.053.371.106.53.212a6.98 6.98 0 0 0 .45.239c.159.08.265.212.345.318.106.133.185.291.291.477l.265.504c.08.186.185.344.265.53h.398l.742.504.291-.079c0-.186-.08-.371-.159-.556zm-5.856-3.736l.291-.265.901.901-.609-.318zm3.498 5.644c-.053.186-.133.318-.291.398-.106.079-.212.106-.291.053s-.159-.106-.212-.212a1.98 1.98 0 0 1-.212-.53c-.053-.212-.08-.424-.106-.636l-.053-.769h-.398l-.026-.742-.08-.61c-.026-.212-.106-.397-.185-.53s-.212-.291-.371-.477l-.45-.53c-.185-.186-.345-.398-.53-.61l.769.663.662.636a4.61 4.61 0 0 1 .583.716c.106.159.239.344.345.556l.371.662a4.24 4.24 0 0 1 .318.716c.08.239.159.477.185.689s.026.398-.026.556zm1.537-1.987l-.239-.026-.318-.583a4.61 4.61 0 0 0-.291-.477l-.265-.397c-.08-.106-.212-.212-.398-.318s-.398-.185-.583-.265l-.742-.239c0 .079.026.159.053.265.026.08.053.185.106.291a2.09 2.09 0 0 0 .238.371l.477.636a2.27 2.27 0 0 1 .371.477c.053.079.106.186.159.318s.08.265.133.371l.106.424-.185.133-.345-.742-.371-.742-.504-.795-.53-.689-.477-.504-.477-.397 1.325.291.504.159.477.186c.159.053.291.133.398.186.106.079.185.132.239.238l.345.504.345.53c.133.185.239.371.344.556l.159.026c-.159-.238-.291-.477-.424-.715l-.345-.583a4.53 4.53 0 0 0-.291-.45.96.96 0 0 0-.398-.291c-.185-.106-.398-.186-.583-.265l-.769-.265h.61c.106 0 .212 0 .291.026.106.026.212.079.398.212l.53.477a6.82 6.82 0 0 1 .556.636l.53.689.239.398c.08.133.133.291.185.398.053.159.133.291.159.451z" fill="#d71"/><path d="M15.21 33.477c.265-.212.556-.398.848-.583l.662-.398 1.537-.874.477-.265c-.026-.053-.08-.106-.106-.159-.133.053-.291.159-.504.265l-.742.398a7.11 7.11 0 0 0-.768.451l-.663.397c-.106.08-.212.133-.291.212-.053.053-.133.079-.185.132-.106.08-.185.159-.318.212.026.079.053.133.053.212z" fill="#084"/><path d="M14.68 33.636v-.026c.026-.106.026-.239.026-.345s0-.212-.026-.318-.053-.185-.106-.265a1.35 1.35 0 0 0-.345-.318l-.45-.291c-.185-.079-.371-.186-.556-.291-.026-.079-.053-.133-.053-.186v-.159c0-.053.026-.079.053-.106s.08-.026.159-.026.133.026.212.026a.51.51 0 0 1 .265.08l.159.265h-.556l.504.212a1.58 1.58 0 0 1 .398.238 1.13 1.13 0 0 1 .318.291c.106.133.185.318.265.53.053.106.08.212.106.291.106-.079.212-.133.318-.212-.026.026-.08.053-.106.079.106-.133.265-.265.424-.45.159-.159.318-.344.45-.504.159-.159.291-.318.398-.451l.238-.318c.053-.106.08-.212.053-.318 0-.106-.026-.212-.08-.318a1.01 1.01 0 0 0-.159-.344l-.371-.212-.61.398.583-1.139c.132-.291.238-.556.318-.822s.08-.451.026-.53c-.08-.106-.159-.212-.291-.291a2.42 2.42 0 0 0-.344-.212c-.133-.079-.265-.132-.424-.212l-.239.212-.742-.636-.239.186.133 2.915-.265-.795-.265-.663c-.106-.238-.185-.424-.291-.556-.106-.159-.212-.265-.318-.371s-.239-.186-.345-.265l-.371-.212-.265.212-.98-.424-.133-.027c-.053-.027-.98.451-1.06.451.026.026.185.079.212.106 0 0-.901.291-1.086.662.318-.053.477.026.636.026.185 0 .345.027.53.027l.504.053.371.079c.133.026.265.106.398.238.133.106.265.239.398.371.159.159.291.318.424.504l-.742-.186-.61-.053c-.212 0-.371.026-.477.106s-.239.159-.371.239l-.424.318-.424.291c-.132.106-.238.159-.291.239 0 0-.345.954-.08.822l.185-.689 1.272-.769c.026-.026.053-.079.08-.106a2.13 2.13 0 0 1 .239-.212c.053-.026.185-.026.371 0l.663.106.901.186.159-.106-.636-.769-.556-.556c-.185-.159-.345-.265-.477-.265-.106 0-.239-.027-.398-.027s-.318-.026-.477-.026-.291 0-.424-.027l-.53.027.769-.344c.053 0 .345-.133.477-.133s.265.027.424.053.318.079.477.132.345.133.504.239l.61.477.662.556.715.662.371 1.669-.212.133-.08-.159c-.026-.053-.053-.106-.106-.159s-.08-.133-.133-.212c-.08-.106-.159-.239-.265-.344a3.85 3.85 0 0 0-.318-.344 1.7 1.7 0 0 0-.345-.265.64.64 0 0 0-.344-.106l-1.087.026a2.47 2.47 0 0 0-.795.186c-.08.026-.212.106-.345.159-.133.079-.715.556-.822.583-.239.079-.53.159-.556.318.026.053.503-.133.556-.106l.45.53c.106 0-.318-.609-.239-.689.106-.079.239-.159.371-.239.106-.079.212-.133.318-.212.106-.053.212-.133.345-.186.125-.064.259-.109.398-.133l.424-.079c.159-.026.318-.026.477-.026-.053.053-.133.106-.185.159l-.185.186c-.08.053-.133.133-.185.212a1.34 1.34 0 0 0-.185.239c-.052.08-.133.159-.185.239l-.185.265-1.113.079.106.159 1.113.026a3.75 3.75 0 0 1 .371-.609c.106-.159.239-.318.398-.504a2.11 2.11 0 0 1 .45-.398c.133-.079.291-.106.424-.053s.291.133.424.265a1.8 1.8 0 0 1 .371.398l.239.318-.265-.079h-.239c-.08 0-.159.026-.239.079s-.132.133-.159.212-.026.159-.026.265.026.212.053.318l.689.239c.185.053.371.132.53.239.185.106.291.185.371.291.106.132.133.318.08.53l-.159.53-.08.08c.08.159.185.026.318-.053zm1.537-3.127l.265.106a.94.94 0 0 1 .106.239c.026.08.053.133.053.212s0 .133-.053.212c-.026.053-.133.159-.291.344a5.19 5.19 0 0 0-.477.556l-.636.716.742-1.537-.901 1.139c-.106-.159-.239-.291-.398-.424s-.291-.212-.398-.265zm-2.995-1.696l-.583-.503-.477-.371a2.51 2.51 0 0 0-.45-.239l-.45-.159-.371-.079c-.106-.027-.424-.027-.477-.027l.742-.318 1.219.556.291-.159c.08.053.185.132.265.212s.159.133.239.238c.08.079.159.186.239.292s.132.238.212.371c.053.133.133.265.185.398.053.159.133.291.185.451zm2.597-1.007c.08.053.159.106.239.185a2.39 2.39 0 0 1 .239.265c.026.053.026.106.026.212-.026.079-.026.186-.08.318-.026.133-.08.239-.133.371s-.133.265-.185.398l-.556 1.034-.265-2.465.45-.451c.106.027.185.08.265.133zm-1.14 3.419l-.159-3.869.583.477-.239.238.318 2.836z" fill="#d71"/><path d="M14.415 33.928l-.98.928c.053.053.08.106.106.159.318-.344.715-.689 1.166-1.086l.08-.265c-.133.053-.239.185-.371.265z" fill="#084"/></svg>