<svg xmlns="http://www.w3.org/2000/svg" width="150" height="200" viewBox="0 0 39.7 52.9"><path d="M35.726 32.33c.556-.371.98-.768 1.272-1.166.954-1.457 1.298-2.862 1.087-4.187-.186-.981-.795-1.802-1.802-2.544-.874-.583-2.014-.822-3.419-.715l-.662.079-.106-.477c-.212-.609-.583-1.087-1.14-1.484-.503-.344-1.14-.397-1.934-.106-.318.106-.689.477-1.166 1.087a3.89 3.89 0 0 0-.662 1.007c-.186.371-.371.848-.61 1.457-.424 1.272-.662 2.305-.689 3.127-.079-.027-.265-.053-.583-.053-.398 0-.742.079-.981.238-.397-.318-.609-.636-.689-.954-.212-.822-.133-1.563.239-2.2.291-.503.53-.768.768-.768.186 0 .371.079.583.265.318.344.318.689.053 1.007-.159.186-.291.265-.371.212-.186-.079-.186-.212-.026-.371.265-.291.239-.477-.053-.583-.265-.08-.503.026-.715.344-.291.45-.159.848.371 1.192.318.186.663.212 1.06.027s.61-.424.636-.715c.079-1.325-.371-2.041-1.352-2.173-.556-.053-1.086.265-1.564.927-.451.689-.609 1.59-.503 2.65a2.06 2.06 0 0 0 .98 1.563c-.689-.106-1.192-.265-1.511-.477-.769-.45-1.245-1.033-1.457-1.749-.159-.556-.159-.901-.026-1.087.106-.159.318-.212.583-.212.345.027.583.238.689.636.079.212.026.344-.133.397-.106.027-.159-.053-.133-.291 0-.371-.159-.477-.477-.292-.265.159-.318.398-.238.769.106.371.397.53.821.503.398-.053.636-.238.716-.556.186-.663.053-1.166-.371-1.537-.636-.53-1.272-.557-1.881-.053-.477.344-.61.954-.398 1.775.186.795.716 1.537 1.537 2.173.477.371 1.113.556 1.935.556-.106.159-.186.477-.186.928a2.06 2.06 0 0 0 .636 1.51 2.08 2.08 0 0 0 1.537.636 2.55 2.55 0 0 0 .53-.053c.318.397.689.795 1.113 1.192a28.55 28.55 0 0 0 2.491 2.067c.662.477 1.192.636 1.59.503.159-.053.318-.026.477.106.132.133.371.265.689.345 1.245.318 2.12.079 2.624-.716a2.16 2.16 0 0 0 .238-.662c.186-1.113-.106-1.961-.848-2.544.291 0 .795-.159 1.431-.556zm-8.612-5.724c.318-1.193.715-2.12 1.139-2.73.345-.557.663-.901.928-1.113.45-.318.848-.345 1.192-.106.265.159.477.371.663.662.185.265.291.504.291.769-.079.053-.265.159-.583.318-.848.397-1.669 1.06-2.465 1.935-.265.291-.609.795-1.06 1.484-.265.424-.424.768-.556 1.007-.026-.265.106-1.007.451-2.226zm-1.802 5.22a1.3 1.3 0 0 1-.954-.397 1.3 1.3 0 0 1-.398-.954 1.3 1.3 0 0 1 .398-.954 1.3 1.3 0 0 1 .954-.397c.398 0 .716.132.98.397a1.3 1.3 0 0 1 .398.954 1.3 1.3 0 0 1-.398.954 1.36 1.36 0 0 1-.98.397zm5.38 3.63c-.053.08-.212.027-.504-.185l-1.219-.901-2.385-2.12c.186-.106.371-.291.53-.556l.556.397c.874.61 1.722 1.431 2.57 2.438.371.503.53.795.451.927zm2.253-2.517c.185.106.291.212.371.265.398.292.663.636.716 1.007.106.53.106.954-.053 1.298-.133.292-.398.451-.768.504-.61.079-1.166-.106-1.643-.583 0-.133-.106-.371-.291-.715s-.424-.689-.716-1.06c-.822-1.087-1.723-1.935-2.677-2.491l-.424-.238c.026-.106.026-.239.026-.424 0-.345-.053-.636-.133-.848l.106-.371a4.61 4.61 0 0 1 .556-.98l.424-.663c.822-1.219 1.961-2.147 3.366-2.782.556-.238 1.219-.318 1.961-.238.822.106 1.431.291 1.855.609.901.662 1.404 1.352 1.537 2.093.106.61.026 1.272-.292 2.014-.212.53-.424.927-.609 1.192-.636.981-1.669 1.511-3.047 1.643-.398.027-.609.106-.636.265-.053.079.079.265.371.503z" fill="#339"/><path d="M14.075 50.615l.901-1.113V26.765h-.901z" fill="#084"/><path d="M16.46 23.85c0-1.431-.424-2.888-1.272-4.346s-1.881-2.544-3.127-3.286c-.609-.344-1.06-.53-1.404-.53-.026 0-.08 0-.185.027.212.556.318 1.06.318 1.563 0 .583-.159 1.431-.504 2.544s-.504 1.935-.504 2.491c0 .716.318 1.484.98 2.306s1.351 1.325 2.04 1.51c.318.106.715.132 1.219.132 1.643.053 2.438-.768 2.438-2.412z" fill="#d71"/><path d="M31.83 33.39c-.079.053-.133.159-.159.318-.026.318.027.662.186.954.133.291.318.477.583.583.106.026.185.053.265.053.159 0 .291-.027.424-.106.08-.08.133-.159.212-.265a1.01 1.01 0 0 0 .079-.424c0-.186-.106-.398-.344-.636a1.85 1.85 0 0 0-.874-.504c-.159-.026-.265-.026-.371.027zm4.055-4.425c.079-1.033-.08-1.855-.477-2.465-.397-.663-1.06-1.007-1.961-1.007s-1.776.291-2.623.901-1.457 1.378-1.776 2.279-.291 1.67.106 2.306c.397.662 1.06 1.007 1.935 1.007s1.749-.185 2.623-.556c1.404-.609 2.12-1.431 2.173-2.465zm-4.425 1.908c-.61 0-1.034-.212-1.246-.557-.265-.45-.291-.98-.079-1.563.212-.609.636-1.113 1.245-1.537.583-.424 1.166-.636 1.749-.636s1.007.212 1.272.636.371.981.318 1.643-.557 1.219-1.458 1.643c-.583.265-1.193.397-1.802.371z" fill="#084"/><path d="M18.58 16.43c-.265 0-.795.212-1.669.663-.795.424-1.325.742-1.564.954 1.511 1.537 2.279 3.445 2.279 5.777 0 .477-.106 1.033-.318 1.696.609-.265 1.113-.795 1.537-1.59.424-.822.636-1.564.636-2.252 0-.398-.133-.928-.397-1.59s-.398-1.193-.398-1.59c0-.742.133-1.431.424-2.067z" fill="#d71"/><path d="M18.845 43.46c.477.238 1.086.345 1.829.345.662 0 1.219-.079 1.696-.238.715-.212 1.564-1.166 2.544-2.888.981-1.696 1.908-2.73 2.836-3.048-.981-.583-2.226-.874-3.79-.874a10.16 10.16 0 0 0-2.332.265c-.954.238-1.934.715-2.968 1.458-1.192.874-1.802 1.696-1.802 2.491 0 .398.239.875.689 1.405.424.53.874.874 1.299 1.087z" fill="#b32"/><path d="M17.785 43.195l-.609-.61c-1.06.318-1.643 2.491-1.749 6.519l.901-1.139c.159-2.835.636-4.425 1.457-4.77z" fill="#084"/><path d="M13.81 16.43l1.007 1.113.981-.689-.821-1.352z" fill="#d71"/><path d="M25.179 34.715c-.61.159-1.139.265-1.537.318.026.265.106.636.186 1.166h1.378v-1.484z" fill="#b32"/><path d="M13.545 50.88c0-9.01-.875-14.787-2.597-17.331l-.769.874c1.643 2.438 2.465 7.553 2.465 15.397z" fill="#084"/><path d="M11.425 31.27c.185-.53.291-1.007.291-1.404 0-1.59-.53-2.782-1.59-3.604L8.35 24.99c-.397-.371-.742-1.06-1.06-2.04-.795.822-1.458 2.067-2.014 3.737 1.14.027 2.359.53 3.657 1.511 1.299.954 2.12 1.987 2.491 3.074z" fill="#339"/><path d="M16.195 39.22c0 .186.053.424.186.769.291-1.007 1.219-1.935 2.756-2.73 1.431-.795 2.703-1.166 3.789-1.113v-.503c0-.742-.477-1.855-1.457-3.365-.53 1.245-1.272 2.067-2.252 2.465-2.014.822-3.021 2.305-3.021 4.478z" fill="#b32"/><path d="M4.8 25.44c-.106-.027-.344-.106-.662-.238s-.53-.212-.61-.212h-.265l-.239 1.431c.185 0 .689.053 1.458.133zm-2.279 4.77l1.458 3.18c.715.98 1.855 1.457 3.445 1.457.821 0 1.59-.238 2.332-.715.848-.504 1.272-1.14 1.272-1.935 0-.265-.185-.715-.556-1.298-.663-1.06-1.749-1.961-3.286-2.65-1.431-.689-2.809-1.06-4.134-1.06-.663 0-1.484.185-2.438.583.663.132 1.298.954 1.908 2.438zm6.148-16.801c-.662 0-1.113-.027-1.404-.08-.398-.106-.61-.371-.61-.822V3.18c-.822.424-2.12.689-3.843.795v.848h1.564c.477 0 .715.185.715.583v7.102c0 .344-.08.583-.239.662-.239.159-.848.239-1.855.239v.874h5.645v-.874z" fill="#339"/><path d="M20.17 18.815c2.014-1.033 3.71-2.888 5.38-6.042l.106-.212c-.159.079-.504.265-.556.318-.451.291-.451.291-.636.291-.583 0-1.245-.53-1.245-.954 0-.079.026-.185.053-.318l.053-.079c.133.026.239.026.291.026.424 0 1.139-.238 1.749-.556l1.696-.901c.133-.238.133-.238.212-.477v-.079c-.186.053-.424.132-.477.185-.451.159-.61.212-.742.212-.583 0-1.086-.371-1.086-.848 0-.424.053-.477.556-.53.954-.318 1.351-.477 1.881-.822l.053-.185c-.133.053-.239.053-.318.053-.424 0-.981-.239-1.351-.53-.424-.371-.556-.557-.689-.822l.026-.132c.186.026.318.026.424.026.742 0 1.457-.238 2.676-.901.212-.636.451-1.563.451-1.855 0-.08-.053-.159-.106-.159a1.11 1.11 0 0 0-.556.238h-.133c-.053-.132-.053-.238-.053-.318 0-.424.504-.795 1.113-.795.715 0 1.166.318 1.166.822 0 .185 0-.08-.265.53l-.239.927c.053.026.106.053.133.053.053 0 .133-.027.212-.08.318-.159.398-.212.503-.212.212 0 1.06.318 1.272.504.239.185.398.397.398.556 0 .318-.265.477-1.484.954-.795.318-.981.398-1.59.769l-.079.503.45-.159.716-.318a.61.61 0 0 1 .238-.079 2.94 2.94 0 0 1 .954.344c.185.159.265.318.265.53 0 .238-.159.397-.715.636-.318.132-.716.424-1.458.901l.318-.053c.133-.027.239-.027.291-.027l.689-.053.265-.026.345-.027c.159-.026 1.802-.026 1.829-.026.45 0 .954.424.954.795 0 .265-.238.424-.609.424l-2.517-.026-1.378.053c.848.45 1.272.795 2.782 2.147 1.299 1.272 3.472 2.623 5.592 3.525.583.239 1.007.662 1.007.954 0 .265-.344.344-1.484.344-.53 0-1.669-.185-2.253-.371-.371-.106-.371-.106-.954-.822l-1.033-1.087c-.106-.106-.53-.61-.954-1.166-.344-.45-.451-.557-.769-.768l.133.715-.026.583.026 1.643c0 .344-.079 1.802-.133 2.067-.132.981-.636 1.882-1.033 1.882-.291 0-.291 0-1.007-1.723-.106-.238-.132-.238-.318-.238-.61 0-1.14.185-1.643.609-.053.053-.133.106-.186.106-.106 0-.371-.265-.636-.609l-.451-.557c-.053-.053-.053-.079-.053-.106l.053-.689-.053-.106c-.133-.292-.186-.61-.186-.928 0-.238.026-.477.053-.768l.053-.636c0-.212-.053-.318-.186-.318h-.053c-1.828 2.73-3.419 4.002-5.591 4.32zm10.627-5.857c-.238-.265-.768-.768-1.272-1.06-.662-.397-.874-.344-1.086-.344l-.583.053-.609.795c-.504.927-.875 1.325-1.087 1.696.318.238.901 1.007.981 1.352a.2.2 0 0 0 .106.026c.212 0 .477-.106 1.113-.397.133-.053.265-.106.345-.106.318 0 .795.424.795.715a.55.55 0 0 1-.133.318c-.159.133-.159.133-1.06.345l-.53.185c-.133.053-.239.08-.318.08-.053 0-.106-.027-.212-.053-.053.185-.106.609-.106.98 0 .106.106.212.186.212.053 0 .079-.026.133-.053.371-.159 1.086-.344 1.351-.344.186 0 .345.106.53.344.132.106.238.159.344.159.239 0 .371-.344.318-.954l.026-.822.053-1.219c0-.954-.133-1.219-.556-1.219-.238 0-.424.053-.742.265-.636.398-.981.557-1.139.557-.133 0-.318-.053-.636-.159-.133-.053-.159-.053-.265-.239l.053-.079c.265-.106.265-.106.53-.371.662-.636 1.511-1.14 1.988-1.14.318 0 .636 0 1.219.292z" fill="#b32"/></svg>