<svg xmlns="http://www.w3.org/2000/svg" width="150" height="200" viewBox="0 0 39.7 52.9"><path d="M7.91 12.85c-.662 0-1.113-.027-1.404-.08-.398-.106-.61-.371-.61-.822V2.621c-.822.424-2.12.689-3.843.795v.848h1.564c.477 0 .715.185.715.583v7.102c0 .344-.08.583-.239.662-.238.159-.848.239-1.855.239v.874h5.645v-.874z" fill="#339"/><path d="M19.57 18.415c2.014-1.033 3.71-2.888 5.38-6.042l.106-.212c-.159.079-.504.265-.556.318-.451.291-.451.291-.636.291-.583 0-1.245-.53-1.245-.954 0-.079.026-.185.053-.318l.053-.079c.133.026.239.026.291.026.424 0 1.139-.238 1.749-.556l1.696-.901c.133-.238.133-.238.212-.477v-.079c-.186.053-.424.132-.477.185-.451.159-.61.212-.742.212-.583 0-1.086-.371-1.086-.848 0-.424.053-.477.556-.53.954-.318 1.351-.477 1.881-.822l.053-.185c-.133.053-.239.053-.318.053-.424 0-.981-.239-1.351-.53-.424-.371-.556-.557-.689-.822l.026-.132a2.8 2.8 0 0 0 .424.026c.742 0 1.457-.238 2.676-.901.212-.636.451-1.563.451-1.855 0-.08-.053-.159-.106-.159a1.11 1.11 0 0 0-.556.238h-.133c-.053-.132-.053-.238-.053-.318 0-.424.504-.795 1.113-.795.715 0 1.166.318 1.166.822 0 .185 0-.08-.265.53l-.239.927c.053.026.106.053.133.053.053 0 .133-.027.212-.08.318-.159.398-.212.503-.212.212 0 1.06.318 1.272.504.239.185.398.397.398.556 0 .318-.265.477-1.484.954-.795.318-.981.398-1.59.769l-.079.503.45-.159.716-.318a.61.61 0 0 1 .238-.079 2.94 2.94 0 0 1 .954.344c.185.159.265.318.265.53 0 .238-.159.397-.715.636-.318.132-.716.424-1.458.901l.318-.053c.133-.027.239-.027.291-.027l.689-.053.265-.026.345-.027c.159-.026 1.802-.026 1.828-.026.451 0 .954.424.954.795 0 .265-.239.424-.61.424l-2.517-.026-1.378.053c.848.45 1.272.795 2.782 2.147 1.299 1.272 3.471 2.623 5.592 3.525.583.239 1.007.662 1.007.954 0 .265-.344.344-1.484.344-.53 0-1.669-.185-2.252-.371-.371-.106-.371-.106-.954-.822l-1.033-1.087a18.03 18.03 0 0 1-.954-1.166c-.344-.45-.451-.557-.769-.768l.133.715-.026.583.026 1.643c0 .344-.079 1.802-.133 2.067-.132.981-.636 1.882-1.033 1.882-.291 0-.291 0-1.007-1.723-.106-.238-.132-.238-.318-.238-.61 0-1.14.185-1.643.609-.053.053-.133.106-.186.106-.106 0-.371-.265-.636-.609l-.451-.557c-.053-.053-.053-.079-.053-.106l.053-.689-.053-.106c-.133-.292-.186-.61-.186-.928 0-.238.026-.477.053-.768l.053-.636c0-.212-.053-.318-.186-.318h-.053c-1.828 2.73-3.419 4.002-5.591 4.32zm10.627-5.857c-.238-.265-.768-.768-1.272-1.06-.662-.397-.874-.344-1.086-.344l-.583.053-.609.795c-.504.927-.875 1.325-1.087 1.696.318.238.901 1.007.981 1.352.053.026.079.026.106.026.212 0 .477-.106 1.113-.397.133-.053.265-.106.345-.106.318 0 .795.424.795.715a.55.55 0 0 1-.133.318c-.159.133-.159.133-1.06.345l-.53.185c-.133.053-.239.08-.318.08-.053 0-.106-.027-.212-.053-.053.185-.106.609-.106.98 0 .106.106.212.186.212.053 0 .079-.026.133-.053.371-.159 1.086-.344 1.351-.344.186 0 .345.106.53.344.132.106.238.159.344.159.239 0 .371-.344.318-.954l.026-.822.053-1.219c0-.954-.133-1.219-.556-1.219-.238 0-.424.053-.742.265-.636.398-.981.557-1.139.557-.133 0-.318-.053-.636-.159-.133-.053-.159-.053-.265-.239l.053-.079c.265-.106.265-.106.53-.371.662-.636 1.511-1.14 1.988-1.14.318 0 .636 0 1.219.292z" fill="#b32"/><path d="M15.86 50.48l.186-.663c-.053-1.298-.186-2.623-.451-3.922-.212-1.113-.556-2.332-1.06-3.657-.477-1.325-1.166-2.544-2.093-3.71-.45-.583-.954-1.113-1.51-1.563-.556-.477-1.14-.874-1.749-1.272a18.09 18.09 0 0 0-1.881-.98l-1.829-.768c-1.378-.504-2.809-.875-4.267-1.14v.583c.185.133.398.292.583.477.185.159.345.345.556.557.185.185.398.45.583.742.212.318.424.822.636 1.484l.768 2.279a27.03 27.03 0 0 0 1.139 2.623c.451.901 1.034 1.749 1.749 2.491.636.689 1.298 1.245 1.935 1.669a13.61 13.61 0 0 0 1.855 1.06l1.669.768c.503.212.98.477 1.351.768.265.212.504.424.716.663l.583.689a5.42 5.42 0 0 1 .53.822zm-.768-2.65c-.875-.344-1.723-.768-2.597-1.219l-2.332-1.378c-.822-.53-1.564-1.087-2.2-1.749-.318-.318-.636-.689-.901-1.113a9.86 9.86 0 0 1-.795-1.378 16.19 16.19 0 0 1-.715-1.537l-.583-1.537-1.086-3.63c.98.318 1.961.689 2.915 1.113.821.371 1.669.848 2.57 1.431a11.83 11.83 0 0 1 2.385 2.04c.689.795 1.245 1.696 1.696 2.703s.769 1.988 1.007 2.915l.636 3.339zm4.134 3.101l.795-1.325.954-1.802.927-2.067.769-2.093c.265-.795.477-1.617.689-2.518l.45-2.491.318-2.677h-2.464l-.291 2.862-.424 2.571c-.159.901-.398 1.696-.715 2.385l-.821 1.908-1.007 2.067-1.007 1.855-.768 1.325zm-.477-.451h-1.166c.186-.239.318-.477.61-1.007l.954-1.802 1.007-2.041a20.4 20.4 0 0 0 .822-1.881c.265-.61.477-1.352.636-2.173l.424-2.385.291-2.729h1.06l-.318 2.517-.424 2.332-.636 2.332c-.186.609-.45 1.298-.768 1.987l-.954 2.041-.927 1.776c-.265.53-.398.768-.61 1.034zM17 41.735l.026 3.657-.053 2.12-.133 1.881 2.306-3.948a4.1 4.1 0 0 0 .079-.874l.026-1.192-.079-3.021c-.053-1.086-.186-2.12-.371-3.153-.159-.795-.371-1.617-.636-2.517l-.795-2.438-.928-2.518-2.2 1.06 1.06 2.73.848 2.491c.265.874.451 1.67.556 2.359a26.88 26.88 0 0 1 .291 3.365zm-.212-5.883l-.769-2.305-.98-2.544.901-.398.928 2.358.715 2.252.556 2.332c.186.875.291 1.828.345 2.915l.079 2.915v1.113c0 .318-.026.583-.053.795l-.981 1.537.133-1.378.026-1.563-.053-2.995a22.61 22.61 0 0 0-.318-2.73c-.106-.742-.291-1.484-.53-2.305z" fill="#084"/><path d="M13.475 18.15c-.08-.45-.106-.874-.106-1.298l.026-.822.106-.662.133-.583-.477-.132-.98.662c-.265.212-.504.45-.769.742s-.45.609-.556.954c-.159.503-.265.927-.318 1.325l-.053.874v.291l-.106.027-.556-.504c-.185-.132-.371-.318-.636-.477-.239-.186-.556-.345-.901-.504a2 2 0 0 0-.768-.238c-.291-.053-.556-.053-.848-.053l-.636.026-.556.106c-.185.053-.371.08-.53.106l-.291.424c.45.239.875.557 1.299.901a6.2 6.2 0 0 1 1.087 1.113 6 6 0 0 1 .901 1.484 8.01 8.01 0 0 1 .45 1.537l.291 1.749.291 1.775c.106.583.265 1.087.45 1.564a8.15 8.15 0 0 0 .663 1.113c.265.371.583.689.98 1.007.371.292.795.53 1.272.716.45.185.954.265 1.458.265a4.01 4.01 0 0 0 1.669-.345c.981-.397 1.643-.954 2.041-1.669s.583-1.484.583-2.279a5.28 5.28 0 0 0-.106-1.113 5.6 5.6 0 0 0-.318-1.007c-.186-.451-.477-.928-.822-1.405l-2.173-2.862c-.345-.477-.636-.954-.822-1.405zm.45 3.021l1.06 1.404 1.06 1.431c.345.477.61.927.769 1.325.291.61.424 1.246.424 1.961 0 .662-.159 1.298-.45 1.908s-.822 1.06-1.59 1.352c-.451.159-.848.239-1.219.239a3.36 3.36 0 0 1-1.246-.239c-.398-.159-.768-.371-1.087-.662-.318-.265-.61-.583-.848-.901-.239-.345-.45-.663-.61-1.033a8.37 8.37 0 0 1-.424-1.484l-.318-1.749-.318-1.722c-.106-.557-.239-1.034-.424-1.458a5.59 5.59 0 0 0-.769-1.298 10.12 10.12 0 0 0-.821-.927c-.291-.265-.61-.504-.928-.716l.185-.371h.106c.053 0 .08 0 .106-.026.026 0 .08-.027.106-.027a3.91 3.91 0 0 1 .689.08c.291.053.583.159.927.318.291.132.61.397.928.742l.928 1.033c.345.424.689.874 1.007 1.378l.344-.159-.159-1.06a10.54 10.54 0 0 1-.106-1.007l-.053-1.087c0-.424.026-.742.106-1.007.159-.583.344-1.007.609-1.272.133-.132.265-.265.424-.344l.424.106c-.026.106-.053.238-.053.371-.026.132-.053.265-.053.45-.026.185-.026.371-.026.583a5.84 5.84 0 0 0 .106 1.139 4.52 4.52 0 0 0 .398 1.299c.185.53.45.954.795 1.431z" fill="#d71"/><path d="M26.381 26.895c-.133-.583-.212-1.113-.212-1.59 0-.609.079-1.166.265-1.696s.371-1.007.583-1.404a9.23 9.23 0 0 1 .795-1.325l-.424-.291c-.397.053-.768.132-1.166.238a9.87 9.87 0 0 0-1.007.397c-.344.159-.636.371-.875.663l-.609.822-.424.689-.291.663h-.106c-.053-.212-.159-.424-.291-.663-.212-.45-.556-.954-1.033-1.484-.239-.265-.53-.477-.875-.662a9.87 9.87 0 0 0-1.007-.397c-.398-.106-.769-.186-1.166-.239l-.424.292c.318.424.61.848.848 1.325.212.424.398.875.556 1.405a5.83 5.83 0 0 1 .239 1.696c0 .504-.053 1.034-.186 1.59l-.424 1.722-.45 1.723c-.133.583-.212 1.113-.212 1.59 0 .504.079 1.034.265 1.59a5.29 5.29 0 0 0 .795 1.537c.371.477.848.848 1.404 1.166.583.318 1.246.477 2.014.477s1.431-.159 2.014-.477c.556-.318 1.034-.689 1.378-1.166a4.48 4.48 0 0 0 .795-1.537c.185-.556.265-1.087.265-1.59s-.053-1.033-.185-1.59l-.424-1.723zm0 3.365c.133.556.186 1.06.186 1.537 0 .451-.079.928-.212 1.431s-.371.954-.663 1.378-.662.768-1.113 1.033-.98.398-1.59.398-1.139-.133-1.59-.398-.822-.609-1.139-1.033c-.291-.424-.53-.874-.663-1.378s-.212-.98-.212-1.431.053-.954.186-1.537l.795-3.445c.132-.556.185-1.06.185-1.484 0-.53-.053-1.033-.185-1.457-.106-.424-.265-.822-.398-1.139-.159-.371-.371-.716-.583-1.034l.318-.238c.186.053.345.132.556.212.185.079.344.185.53.318s.371.291.556.53c.212.238.398.556.583 1.007.185.424.318.848.424 1.272a13.94 13.94 0 0 1 .398 1.59h.398l.451-1.537a12.4 12.4 0 0 1 .477-1.272 9.1 9.1 0 0 1 .53-1.034c.186-.238.398-.45.583-.583a4 4 0 0 1 .53-.318c.186-.08.371-.133.53-.186l.318.238a9.56 9.56 0 0 0-.583 1.034 9.37 9.37 0 0 0-.424 1.139c-.132.424-.185.928-.185 1.457 0 .424.053.928.185 1.484l.398 1.723z" fill="#339"/><path d="M35.099 34.05c-.186.238-.398.45-.61.689a6.32 6.32 0 0 1-.768.662 7.3 7.3 0 0 1-1.431.742l-1.776.742a15.94 15.94 0 0 0-1.961 1.06c-.689.424-1.378.981-2.067 1.643a10.33 10.33 0 0 0-1.855 2.491l-1.245 2.597-.848 2.279c-.212.689-.477 1.59-.715 1.881l-.742.954-1.033.981a32.32 32.32 0 0 0 4.532-1.113l1.935-.742c.662-.265 1.325-.609 1.988-.954a17.78 17.78 0 0 0 1.881-1.246A10.01 10.01 0 0 0 32 45.153c.954-1.166 1.723-2.385 2.226-3.71.53-1.325.901-2.517 1.139-3.657.291-1.298.45-2.597.503-3.922l-.212-.662a3.36 3.36 0 0 1-.556.848zm-1.007 5.114a22.09 22.09 0 0 1-1.087 2.915 11.19 11.19 0 0 1-1.802 2.703c-.742.795-1.59 1.458-2.517 2.041a20.64 20.64 0 0 1-2.73 1.405c-1.007.424-2.041.795-3.074 1.087a36.4 36.4 0 0 1 1.192-3.631l.636-1.51.769-1.511a10.18 10.18 0 0 1 .874-1.378c.291-.424.61-.795.954-1.087a12.96 12.96 0 0 1 2.332-1.722l2.464-1.352 2.756-1.192-.768 3.233z" fill="#084"/></svg>