<svg xmlns="http://www.w3.org/2000/svg" width="150" height="200" viewBox="0 0 39.7 52.9"><g transform="matrix(.265 0 0 .265 46.8 -90.4)"><path d="M-147 390c-2.5 0-4.2-.1-5.3-.3-1.5-.4-2.3-1.4-2.3-3.1v-35.2c-3.1 1.6-8 2.6-14.5 3v3.2h5.9c1.8 0 2.7.7 2.7 2.2v26.8c0 1.3-.3 2.2-.9 2.5-.9.6-3.2.9-7 .9v3.3h21.3V390z" fill="#339"/><path d="M-102 411c7.6-3.9 14-10.9 20.3-22.8l.4-.8c-.6.3-1.9 1-2.1 1.2-1.7 1.1-1.7 1.1-2.4 1.1-2.2 0-4.7-2-4.7-3.6 0-.3.1-.7.2-1.2l.2-.3c.5.1.9.1 1.1.1 1.6 0 4.3-.9 6.6-2.1 4.1-2.4 4.1-2.4 6.4-3.4.5-.9.5-.9.8-1.8v-.3c-.7.2-1.6.5-1.8.7-1.7.6-2.3.8-2.8.8-2.2 0-4.1-1.4-4.1-3.2 0-1.6.2-1.8 2.1-2 3.6-1.2 5.1-1.8 7.1-3.1l.2-.7c-.5.2-.9.2-1.2.2-1.6 0-3.7-.9-5.1-2-1.6-1.4-2.1-2.1-2.6-3.1l.1-.5c.7.1 1.2.1 1.6.1 2.8 0 5.5-.9 10.1-3.4.8-2.4 1.7-5.9 1.7-7 0-.3-.2-.6-.4-.6-.5 0-1.5.4-2.1.9h-.5c-.2-.5-.2-.9-.2-1.2 0-1.6 1.9-3 4.2-3 2.7 0 4.4 1.2 4.4 3.1 0 .7 0-.3-1 2-.4 1.7-.5 2-.9 3.5.2.1.4.2.5.2.2 0 .5-.1.8-.3 1.2-.6 1.5-.8 1.9-.8.8 0 4 1.2 4.8 1.9.9.7 1.5 1.5 1.5 2.1 0 1.2-1 1.8-5.6 3.6-3 1.2-3.7 1.5-6 2.9l-.3 1.9c.9-.3 1.5-.5 1.7-.6l2.7-1.2c.4-.2.7-.3.9-.3.7 0 3.1.9 3.6 1.3.7.6 1 1.2 1 2 0 .9-.6 1.5-2.7 2.4-1.2.5-2.7 1.6-5.5 3.4l1.2-.2c.5-.1.9-.1 1.1-.1l2.6-.2 1-.1 1.3-.1c.6-.1 6.8-.1 6.9-.1 1.7 0 3.6 1.6 3.6 3 0 1-.9 1.6-2.3 1.6l-9.5-.1c-1 0-1.9.1-5.2.2 3.2 1.7 4.8 3 10.5 8.1 4.9 4.8 13.1 9.9 21.1 13.3 2.2.9 3.8 2.5 3.8 3.6 0 1-1.3 1.3-5.6 1.3-2 0-6.3-.7-8.5-1.4-1.4-.4-1.4-.4-3.6-3.1l-3.9-4.1c-.4-.4-2-2.3-3.6-4.4-1.3-1.7-1.7-2.1-2.9-2.9.3 1.3.5 2.3.5 2.7l-.1 2.2.1 6.2c0 1.3-.3 6.8-.5 7.8-.5 3.7-2.4 7.1-3.9 7.1-1.1 0-1.1 0-3.8-6.5-.4-.9-.5-.9-1.2-.9-2.3 0-4.3.7-6.2 2.3-.2.2-.5.4-.7.4-.4 0-1.4-1-2.4-2.3-.9-1.2-1.6-1.9-1.7-2.1-.2-.2-.2-.3-.2-.4l.2-2.6-.2-.4c-.5-1.1-.7-2.3-.7-3.5 0-.9.1-1.8.2-2.9.1-.9.2-1.7.2-2.4 0-.8-.2-1.2-.7-1.2h-.2c-6.9 10.3-12.9 15.1-21.1 16.3zm40.1-22.1c-.9-1-2.9-2.9-4.8-4-2.5-1.5-3.3-1.3-4.1-1.3a25.2 25.2 0 0 0-2.2.2c-.7.9-2.2 2.6-2.3 3-1.9 3.5-3.3 5-4.1 6.4 1.2.9 3.4 3.8 3.7 5.1.2.1.3.1.4.1.8 0 1.8-.4 4.2-1.5.5-.2 1-.4 1.3-.4 1.2 0 3 1.6 3 2.7a2.08 2.08 0 0 1-.5 1.2c-.6.5-.6.5-4 1.3l-2 .7c-.5.2-.9.3-1.2.3-.2 0-.4-.1-.8-.2-.2.7-.4 2.3-.4 3.7 0 .4.4.8.7.8.2 0 .3-.1.5-.2 1.4-.6 4.1-1.3 5.1-1.3.7 0 1.3.4 2 1.3.5.4.9.6 1.3.6.9 0 1.4-1.3 1.2-3.6 0 0 0-1.6.1-3.1.1-1.4.2-3.1.2-4.6 0-3.6-.5-4.6-2.1-4.6-.9 0-1.6.2-2.8 1-2.4 1.5-3.7 2.1-4.3 2.1-.5 0-1.2-.2-2.4-.6-.5-.2-.6-.2-1-.9l.2-.3c1-.4 1-.4 2-1.4 2.5-2.4 5.7-4.3 7.5-4.3 1.2 0 2.4 0 4.6 1.1z" fill="#b32"/><path d="M-151 412h-1.5c-1.2 0-2 .2-2.4.7-.4.4-.7 1.1-.8 2s-.2 1.4-.3 1.7c0 .1-.1.4-.3.9-.2.4-.3.7-.3.9v.7c0 2.2.8 3.8 2.4 5 .7 1 2.2 1.9 4.6 2.6 2 1 3.6 1.5 4.8 1.5.1 0 .4-.1.7-.4 0-.1-.1-.4-.3-.7s-.3-.6-.3-.9v-.2l-.2-.4c0-.1 0-.5.1-1s.1-.8.1-1c0-.4-.1-1-.4-1.7s-.4-1.2-.4-1.3c0-.6.1-1.3.4-2.2s.4-1.4.4-1.7c-.7-3-2.7-4.5-6.3-4.5zm30.2-18.6c.4-.3.9-.5 1.3-.5.4-.1.9-.2 1.3-.4s.7-.3.9-.3c.4-.1 1.1-.2 2-.2 1-1 1.5-1.8 1.5-2.4v-.7c-.3-.4-.4-.7-.4-.9v-1.1c-.6-.9-1.2-1.5-1.7-2-.1-.3-.4-.5-.9-.5-.4-.1-.8-.1-1-.1s-.5 0-.9-.1-.7-.1-.9-.1-.5.1-1 .2c-.4.1-.7.2-.9.2-.6.7-1.1 1.1-1.5 1.1-.4.3-.9 1.4-1.3 3.3-.6 1.6-.9 3.1-.9 4.6 0 1.2.2 2 .7 2.6l.9.9-.2-.9c0-.1.1-.4.2-.7 0-.2.9-.8 2.8-2z" fill="#084"/><path d="M-80.1 441c-2.3-3.6-5-6.4-8-8.5-.6-.1-1.4-.6-2.6-1.3-2-.3-3.3-.4-3.9-.4-4.1 0-7.1 1.2-9.1 3.5l-1.5 1.5-1.5 3c-.1.3-.3.6-.4.9s-.2.5-.2.7c0 1.3-.1 2-.4 2s-.7-.1-1.3-.4l-.9-.2c-1.3-.4-2.2-.7-2.8-.7-2.3-.4-4.1-.7-5.4-.7-3.8 0-7.3.8-10.6 2.4-1.6.9-2.8 1.7-3.5 2.6l-.4.2c-.6 1.2-.9 1.9-.9 2.2-.4 1.2-.7 2.2-.7 3 0 2.6.7 4.7 2 6.3 0 .1.2.4.7.9l.2.7h-1.3c-2.6.6-5.2 1.6-7.8 3-1.7.7-3.5 2.2-5.4 4.6-.4.7-.7 1.2-.7 1.5h-.2c-1 1.6-1.5 3.7-1.5 6.3s.6 4.9 1.7 7c3.3 5.2 10.1 7.8 20.4 7.8h.4c3.5-.1 6.9-.7 10.4-1.7 5.1-1.6 8.5-2.5 10.2-2.8 2.9 0 4.9.1 6.1.4 2.5 0 4.3.1 5.4.4 1.4.3 2.7.7 3.7 1.3s2.2 1.5 3.5 2.8 2.2 2.1 2.6 2.4c-.7-.7-1.4-1.6-2-2.7s-1.1-2-1.6-2.7-1.1-1.4-1.8-2c-1.9-1.4-4.1-2.3-6.7-2.6-.9-.3-2.6-.8-5.2-1.5l-8.7-.9c-.4 0-1.1 0-1.8.1-.8.1-1.4.1-1.8.1-.7 0-1.8.1-3.3.4-1.4.3-2.5.4-3 .4-.9 0-2.1 0-3.6.1s-2.6.3-3.4.5c-.3 0-.6 0-1 .1s-.7.1-1 .1c-1.6 0-3.2-.3-4.8-.9-5.1-2-7.6-4.9-7.6-8.7a6.31 6.31 0 0 1 1.3-3.9l1.3-2c.1 0 .2-.1.2-.2l.7-.7c.3-.1.8-.5 1.4-1 .7-.5 1.2-.9 1.6-1.2h.2c2-1 3.5-1.5 4.3-1.5.1 0 .6 0 1.3-.1s1.2-.1 1.5-.1c1.7 0 4 .2 6.7.7 5.8.6 10.2 2.7 13.2 6.3 1.6 2.2 2.4 4.6 2.4 7.2 0 .9.1 1.5.4 2 0 1 .6 1.5 1.7 1.5h.4l.9-2.4c.1 0 .2-.1.2-.4.6-.1 2-.2 4.3-.2 1 .1 2.3.7 3.9 1.7-1.6-2.7-3.6-4.3-6.1-4.6h-2.2c-.1 0-.2-.3-.2-.9V470l-.7-.9c-.4-.7-.7-1.2-.7-1.3h3.7c3.6.4 6.2 1.2 7.6 2.2-1.9-2.6-3.8-4.3-5.9-5-.6-.1-1.5-.3-2.8-.3-1.3-.1-2.2-.1-2.6-.1s-1.1-.1-1.8-.2c-.8-.1-1.3-.2-1.4-.2l-.9-.9c-.4-.4-.7-.7-.9-.7-2-1.3-4-2.2-5.9-2.6l-1.1-.7c0-.1.3-.6.9-1.3 1-1 2.5-1.9 4.6-2.6 3.6-1.2 6-1.9 7.2-2.2h1.3c2.3 0 3.9.3 4.8.9.6 1.4 1.4 2.2 2.4 2.2 1.6 0 2.4-.8 2.4-2.4 0-.6-.2-1.3-.7-2.2-1.6-2-4.2-3-7.8-3-2 0-5.2 1-9.6 3-2 .9-3.8 2.2-5.2 3.9v.7c-.4.4-.7.9-.9 1.3 0 .7-.1 1.2-.4 1.5v.2c-.1 0-.4-.1-.9-.2h-.7c-.3 0-1.2-.1-2.7-.2s-2.5-.3-2.9-.4c-3.2-.9-5.1-2.5-5.9-4.8-.1-.3-.2-1-.2-2.2 0-.4.1-.9.2-1.5v-.9c1.9-1.9 3-2.8 3.5-2.8 1.7-1.4 4.1-2.2 7-2.2h1.1c5.9 0 8.9 1.3 8.9 3.9v.4c0 .1-.1.4-.4.9v.7c0 .4.2.7.7.7.9 0 1.3-.2 1.3-.7.7-.4 1.4-1.1 2-2 .3-.3.4-.8.4-1.4 0-.7-.2-1.1-.7-1.4 0-.3-.1-.5-.2-.7-.3 0-.4-.1-.4-.3s.1-.5.4-1l.2-.9c.1 0 .2-.1.2-.2l.4-.4c0-.1.1-.4.2-.7l.4-.2 2-1.7c2-1.3 4.1-2 6.1-2 .6 0 1.7.2 3.5.7.7.4 1.6 1.2 2.6 2.2 1.2 1.2 3 3.4 5.4 6.7.3.3.6.8 1 1.4.4.7.7 1.1 1 1.4v3.7c.3.9.7 1.3 1.3 1.3.4 0 1.1-.4 2-1.3 0-.1.1-.5.3-1s.4-.9.5-1.2c0-1.6.1-2.5.2-2.6h.4c.4-.4 1.3-.7 2.6-.7 1.6 0 2.4.4 2.4 1.3 0 .1-.1.4-.2.9l-.2.2c-.3 0-.5.1-.7.4-.6.1-1.1.3-1.5.4-.4.4-.9.8-1.3 1.1l-.9.9c-1 2-1.5 3.3-1.5 3.9 0 .1.2.7.7 1.5.6 1.4 1.7 2.2 3.3 2.2.3 0 .8-.1 1.4-.3.7-.2 1.2-.3 1.6-.3.9 0 1.3.5 1.3 1.5 0 .1-.1.5-.2 1s-.2.8-.2 1c0 .9.4 1.3 1.3 1.3 1.9 0 2.9-.3 3-.9.4-.4.7-1.4.7-2.8 0-.1.1-.4.2-.9v-.7c0-1-.6-1.8-1.7-2.4-.3 0-.6-.1-.9-.2l-1.1-.4c0-.1.2-.3.7-.4l.7-.7c.1-.3.3-.8.4-1.4.1-.7.2-1.1.2-1.4.4-1.6.7-2.6.7-3 0-.1-.2-.7-.7-1.5-.3-1.2-.9-2-2-2.4-1.6-.7-3-1.1-4.3-1.1-.9 0-1.9.2-3 .7-.3 0-.7.1-1.1.4v-.9c0-.8-.7-2.1-1.9-3.7z" fill="#b27"/><g fill="#084"><path d="M-112 353c-7.2 2.3-12.4 8.3-15.4 18l-.9 2.8c0 .4-.1.7-.2.9v.7c-.1.1-.2.6-.2 1.3l-.4.2v.2c0 .4-.1.9-.2 1.3 0 .1-.1.4-.2.7s-.2.6-.2.9c-.7 3.2-1.1 7.1-1.1 11.6 0 3.8.4 8.5 1.1 14.2 0 1 .1 1.8.4 2.4.4 2 .8 3.7 1.1 5 .3 1 .7 2.6 1.3 4.7s1.1 3.7 1.5 4.7l1.7 4.6c.6 2.3.9 3.7.9 4.2 0 .4-.3 1-.9 1.5-.6.6-.9 1.2-.9 2a.76.76 0 0 0 .2.4c0 .9.4 1.6 1.1 2.2s1.5.9 2.4.9c.1 0 .7-.2 1.5-.7 1.7-1 2.6-2.7 2.6-5l-.2-1.3-.4-1.1c0-.3.4-.5 1.1-.7.6 0 .9-.1 1.1-.4.4-.1 1.1-.2 2-.2 2.3-.6 4.2-1.6 5.6-3.1 1.6-2 2.4-4.7 2.4-7.9 0-2-.3-3.8-.9-5.3-.9-2.2-1.8-3.5-2.8-3.9-1.3-1.2-3.7-1.8-7.2-1.8-2 0-3.4.2-4.1.7-.7 0-1.7.6-2.8 1.8 0 .1-.2.6-.7 1.3l-.2-.7c-.3-.6-.4-1-.4-1.3-1.7-8.3-2.6-15.6-2.6-21.7 0-4.2.1-7.2.2-8.8.3-.9.7-2 1.2-3.4s.8-2.5 1-3.4l2.8-6.4c2.9-6.6 6.4-10.7 10.4-12.3h-.7zm-8.3 62c.9-1 2-1.5 3.3-1.5h.9c1.4 0 2.2.1 2.4.2.6.7.9 1.7.9 2.8-.6 4.1-1.9 6.5-3.9 7.2-1.2.4-2 .8-2.4 1.1h-.2c-.4 0-.7-.5-.7-1.5-.1-.4-.3-.9-.5-1.3s-.4-.8-.5-1.2-.3-.7-.4-1c0-.1-.1-.4-.3-.9-.2-.4-.3-.7-.3-.9-.2-.8.4-1.9 1.7-3zm-42.6 21.7c-2.2 2-3.2 4.1-3.2 6.1 0 .4.2 1.2.5 2.4v3.9c.5 1.3 1.2 2 2.1 2.2.2 0 .8-.2 2.1-.7a4.67 4.67 0 0 0 1-.5c.4-.2.7-.3 1-.3l.7-.9v-.7l.2-.2c0-1.3.1-2.2.2-2.8.3-2.6 2.2-5.2 5.8-7.8 1.8-1.2 2.9-1.7 3.2-1.7.8-.3 1.9-.5 3.5-.5l3-.1h3.2c5 0 9.4.6 13.5 1.9-6.2-3.7-13.4-5.5-21.8-5.5h-1.4c-6.6.4-11.1 2.2-13.6 5.2zm49.6 81l.7.7.2.4h1.1c.6 0 1.2-.4 1.7-1.3.6-.9.9-1.6.9-2.2l-.2-.7c-.3-.3-.4-.6-.4-.9-.7-1-1.7-1.9-3-2.6-.3-.3-.7-.5-1.1-.5l-1.7-.4-1.5-.5c-.4 0-1.1-.1-2.1-.3-.9-.2-1.7-.4-2.3-.4-.6-.1-1.2-.1-1.7-.1-1.9 0-3.6.3-5.2.9l-.7.2c-.4.3-.7.4-.9.4h-.2c-.6-.7-1-1.1-1.3-1.1-.4-.1-.9-.2-1.5-.2h-1.5l-1.7-.9-.7-.4h-.7c-3-1-6.4-1.5-10.2-1.5-.4 0-1.1.1-2 .2s-1.5.2-2 .2h-.9c-1 0-2.4-.1-4-.3-1.7-.2-2.9-.3-3.6-.3h-1.3c-.4 0-1.1 0-1.8.1a52.8 52.8 0 0 0-2.1.3c-.6.1-1.2.3-1.7.4 5.6.6 10.3 2 13.9 4.3 1.2.6 2.6 1.6 4.3 2.9 1.7 1.4 2.9 2.3 3.5 2.7l2.8 2 1.1 1.7c.6.6 1.5.9 2.8.9a.76.76 0 0 0 .4-.2h.7c.4 0 .9-.2 1.5-.7.6-.4 1.1-.7 1.5-.7 2-1.2 3.3-2.4 3.9-3.7l.4-1.1c.1-.6.3-1 .4-1.3 1.3-.6 2.2-.9 2.6-.9.6-.1 1.7-.2 3.3-.2 2.6 0 4.8.3 6.7.9 1 .1 1.8.7 2.4 1.5.3.4.7 1 1.1 1.7 0 .3-.1.5-.2.7 0 .2.1.3.3.3zm-39.6 13c.4 1 1.2 1.5 2.4 1.5h.9c.3 0 .6.1.9.4.3 0 .4-.1.4-.4.6 0 1.1-.2 1.5-.7h.2c.9-.6 1.4-1.2 1.5-1.7.1-.6.2-1.4.2-2.6 0-.7.1-1.2.4-1.3 0-.9.2-1.7.7-2.4 0-.6.4-.9 1.1-.9 0-.3-.3-.5-.9-.7-.1-.3-.3-.4-.5-.4s-.3-.1-.3-.2h-2.2c-1 0-2.1.3-3.3.9-2.5 1-3.7 3-3.7 5.9a7.18 7.18 0 0 0 .2 1.7c.1.5.2.8.5.9zm18.3-106c.1-.5.2-.9.2-1.2v-.7l-.9-.9c-.7-.7-1.4-1.1-2-1.1-2 0-3.1.4-3.3 1.3h.2c.3 0 .4.1.4.2-.3.3-.4 1.4-.4 3.5.3.6 1.1 1.2 2.4 1.7l2.6 1.3c.3 0 .4-.1.4-.4.7 0 1.1-.3 1.1-.9l-.7-.7-.4-.7v-.4c.2-.1.2-.5.4-1zm6.3-65.7c0-.1-.1-.5-.3-1.1s-.5-1-.8-1.1c-.6-.6-1-1-1.3-1.1-1.4-.9-2.4-1.3-2.8-1.3s-1.2.2-2.4.6c-.4 0-.7.2-.7.6-.7.2-1.1 1.6-1.1 4 .1 0 .2.2.2.5s.1.6.2 1c.4 1.2 1.4 2.7 3 4.4 1.3 1.3 2.7 2.2 4.3 2.6 1.7 0 2.6-.2 2.6-.6-1.7-1.6-2.6-3.2-2.6-4.8 0-.4.3-.9.8-1.7.6-.9.9-1.5.9-2zm-19.4 161c.1 0 .3 0 .5.1s.4.1.7.1.4-.1.5-.2l-.7-2.2c-.4 0-.8-.1-1.1-.4-1-1-2.9-1.5-5.6-1.5-.3 0-.7.1-1.3.2l-1.3.2v.4l-.2.7-1.1 1.7c0 1.7.7 2.6 2.2 2.6.4 0 1-.2 1.7-.5.7-.4 1.2-.5 1.5-.5 1.8-.5 3.2-.7 4.2-.7zm99.9-.9v.9c0 .6-.1 1-.2 1.3l-.2.4v.4c-.4.4-.7.9-.7 1.5-.3.1-.4.5-.4 1.1 0 1.7.9 2.7 2.6 3 .1 0 .3.1.5.2s.4.2.5.2c2.3-.4 3.5-1.4 3.5-2.8 0-1-.2-1.9-.7-2.6 0-.9-.4-1.7-1.2-2.5s-1.8-1.2-3.1-1.2h-.6z"/><path d="M-158 428c-.2-.4-.4-.7-.5-.7l-3-1.5c-.1-.1-.3-.6-.5-1.3s-.5-1.2-1-1.5c-.4-.3-.9-.4-1.5-.4-4.1 0-6.7.8-7.8 2.4l-.7 1.3c0 1.2.1 1.7.2 1.7 0 .6.2.9.7 1.1.9 1.7 3.1 2.6 6.7 2.6 1.6 0 2.7-.1 3.3-.4.3 0 .5 0 .7-.1.1-.1.4-.1.7-.1l1.1-.7.7-.7.7-.2c.4-.3.8-.4 1.1-.4 0-.1.1-.2.4-.2v-.2h-.4c-.5 0-.7-.3-.9-.7zm19.3 18.6c.7 0 1.6-.5 2.6-1.5 0-.3.1-.5.4-.7 0-.1-.1-.5-.4-1s-.4-.9-.4-1.2c-.3-.1-.4-.4-.4-.9s-.1-.7-.2-.9c0-.4-.1-.7-.4-.9-.3-1-.7-1.5-1.3-1.5l-1.1.2c-.3.4-.5.8-.8 1-.2.2-.5.3-.8.3-.3.7-.4 1.7-.4 2.9s.1 2.1.4 2.5c.7 1.2 1.7 1.7 2.8 1.7zm33.9 58.6v-.7c0-2.5-.3-4-.9-4.6l-.9-.9c-.9-1-2.1-1.6-3.7-1.7l-3.7-1.1-2.2-.9c-3-1-7.4-1.5-13-1.5h-15.6c1.2 0 1.9.1 2.2.4a5.13 5.13 0 0 1 1 .1c.5.1.9.1 1.2.1 5.2.6 10.4 1.5 15.4 2.8 1.3 0 2.1.1 2.4.2v.2l-2.8 2.8c-1.2 0-2 .1-2.4.2-.4.4-.7 1.4-.7 3 1 1 2.3 1.5 3.9 1.5 1.9 0 3.1-.3 3.7-.9.9-.7 1.3-1.4 1.3-2.2l-.4-.4v-1.3l.4-.7v-.2c0-.3-.1-.5-.2-.7-.1-.1-.2-.4-.2-.7v-.2l.9.2 1.1.4c2.7 1 5.2 2.7 7.4 5 1.3 1.3 2 2.5 2.2 3.5.3.1.4.3.4.4-.4.9-.7 1.4-.7 1.5l1.5-.4c1.6-.8 2.4-2 2.4-3.2zm47.1 14.8c0 .4-.1 1-.4 1.8s-.4 1.4-.4 1.8a7.18 7.18 0 0 0-.2 1.7c.3 2 1.4 3 3.3 3 .7 0 2-.8 3.7-2.4l.2-.7v-.2c.1-.4.2-1.1.2-2 0-1.6-.6-3.4-1.7-5.4l-.5-.5c-.2-.2-.3-.4-.3-.5-1.6-1.3-3-2-4.3-2h-.2c.9 0 1.3 1.5 1.3 4.6a1.85 1.85 0 0 1-.7.8zm-10.6-4.1c-.1.6-.6 1.3-1.3 2.1s-1.3 1.6-1.7 2.3c-.1.3-.2.5-.2.8 0 .2-.1.3-.2.3-.4.7-.7 1.7-.7 3 0 .1.3.9.9 2.4.6.6 1.6.9 3 .9h.9c1.3 0 2.3-.4 3-1.3.1-.1.2-.3.2-.5s.1-.6.3-1.1.3-.8.3-1c.3-.3.6-.7 1-1.2l1-1.2c.3-1.3.4-2.2.4-2.8s-.1-1.4-.4-2.6c0-.7-.2-1.4-.7-2.2 0-.3-.2-.6-.7-.9 0-.3-.1-.5-.2-.7-1-1.6-2.5-2.7-4.6-3.3-.3 0-.4.1-.4.2h.4c.1.6.2 1.6.2 3s-.1 2.3-.2 2.6c.1.5 0 .9-.3 1.2zm-76.2-67.5c.6 1.5.8 2.6.6 3.5-.3.3-.9.6-1.7 1l-.6.3c-1.1.5-2.1.3-3.1-.5-.4-.2-.7-.3-.8-.6-.2-.2-.4-.5-.6-.9s-.4-.6-.4-.8c-.6-1.3-1-2.6-1.2-3.8-.2-3.1 1-5.3 3.7-6.8 1.2-.5 1.9-.7 2.1-.7l-.3.9c-.1 2.3.2 4.3 1 6.2.1.3.4.7.8 1.2.2.5.4.8.5 1zm37.3 68.3c.1.4.7.7 1.7.7l.7-.4h.7c1.7-.1 2.7-.9 3-2.2v-.7c0-.3.1-.6.2-.9l2.2-1.1c2.6-1.9 6.6-3.7 11.9-5.4 2.5-.9 4.3-1.4 5.4-1.5 2.9-.4 5.3-.7 7.2-.7a9.49 9.49 0 0 1 2 .2c3.6 0 6.7.4 9.1 1.3h.7l4.6 1.7.2.4c.6 0 1.1.2 1.5.7l1.7.9c2.7 1.6 4.5 3.6 5.2 6.1.1.3.2.6.2.9v.7c.3.1.4.4.4.9 0-.4 0-1 .1-1.7s.1-1.3.1-1.6c0-.4 0-.7-.1-1.1a12.6 12.6 0 0 0-.3-1c-.1-.3-.2-.5-.2-.7l-.2-.7v-.9l-.2-.2c-1.6-2.9-4.3-5.1-8.3-6.7-4.2-2.5-10.6-3.7-19.1-3.7-.1 0-.5.1-1.1.2s-1 .2-1.3.2h-.9c-3.2.3-6 .9-8.5 1.7-.1.1-.4.2-.9.2s-.7.1-.9.4c-1.9.6-4.4 1.7-7.6 3.3-.1 0-.4.2-.9.7l-.4.2c-.1 0-.5.2-1 .7-.5.4-.8.7-1 .7-1.3 0-2.2.2-2.6.7-.1 0-.4 0-.9.1-.4.1-.7.2-.9.3l-.7 1.1c-.1.6-.3.9-.4 1.1l-1.3 3.7c0 .4.1.7.2.9.3 0 .4.2.7.5z"/></g><path d="M-55.3 475l-.9-1.5c-2-2.6-5.6-4.4-10.6-5.4h-3.9c-2.2 0-4.9.8-8.3 2.4-.4.3-1.5 1-3.3 2.2l-2.8 2.6c-.7.4-1.2.8-1.5 1.1-1 .7-1.9 2.3-2.6 4.8l.2-.4v-.2l.7-.2c0-.3.1-.4.2-.4.3-.1.5-.2.7-.2.3-.1.5-.2.7-.2.1 0 .2-.1.2-.4 1.3-.4 2.2-.7 2.8-.7.9 0 1.4-.1 1.7-.2h1.3c.1 0 .4-.1.7-.4s.7-.5 1.1-.8c.4-.2.7-.3.9-.3l2-.9c2.2-.9 4.7-1.3 7.6-1.3 2.6 0 4.9.3 6.9.9.6 0 1.2.2 2 .7 0 .3.1.6.4.9l.7.7h-1.1c-.6.3-1.2.5-2 .7l-1.3.2-4.1 1.5c-3.8 1.3-6.3 2.3-7.6 3-.4.4-1 .9-1.7 1.5s-1.3 1-1.7 1.3c-1.6.7-4.2 1.3-7.8 1.7 2 .9 3.6 1.3 4.8 1.3 2.7 0 5.5-.9 8.3-2.8 1.4-.7 2.9-1.4 4.3-2.2 1.2-.3 2.7-.9 4.8-1.7l3.7-.9c.6 0 .9-.1 1.1-.4.3 0 .8 0 1.6-.1s1.3-.1 1.6-.1c0-.1.1-.2.4-.2.7-.3 1.1-1 1.1-2.2 0-.6-.1-1-.2-1.3-.2-.6-.5-1.2-1.1-2.1z" fill="#b27"/><path d="M-60.3 496c-.3.1-.5.1-.8.1-.2 0-.3.1-.3.4-.9.4-1.6.9-2.2 1.5-.1.1-.2.5-.2 1.1 0 .4.2.7.7.7.1 0 .5-.1 1-.3s.8-.3 1-.3h.7c.4 0 .7-.1.9-.2l.7-.7c.9-.4 1.3-.7 1.3-.9v-.2c0-.9-.7-1.3-2-1.3-.3 0-.5 0-.8.1zm.2-4h-3.7c-.9.1-2 .4-3.3.7l-2.2.2c-.3.3-.6.5-.9.5-.3.1-.5.1-.7.1-3.6.9-6.9 2.7-10 5.4.2-.1.5-.2.7-.2h.2l-.2.2c2-1.2 4.7-2.2 8-3.3 2.3-.6 5.8-.9 10.4-.9h5.6c4.1.9 6.4 1.5 7.2 2l.4.7.7.7.9 1.1v.4h-5c-1.2 0-2 .4-2.4 1.1-.6 1-.9 1.6-.9 1.8s.1.5.2.8l.4.2c.1.6.4.9.9.9.1 0 .7-.2 1.5-.7.1 0 .4 0 .9-.1.4-.1.7-.2.9-.3 1-.9 1.7-1.3 2.2-1.3l.7-.2c.3 0 .4 0 .4.1s.1.1.4.1l-.4.7c0 .1-.1.5-.4 1s-.3.8 0 1c0 .7.1 1.1.4 1.1l1.5-1.5c0-.4.2-1.3.7-2.5.4-1.2.7-2.1.7-2.5 0-1.2-.7-2.6-2.2-4.3-2.7-2.1-7.2-3-13.6-3zm-20.4 20.6c.4.6.7 1.3.8 2.1l.3 2.8.4 2.9c.9 4.2 2.3 7.1 4.3 8.7 1.2.9 3.3 1.9 6.5 3 2.5.6 5.3.9 8.5.9h17.4c.7.3 1.3.4 1.7.4.6 0 .9-.2.9-.7v-4.3c-2 1-5.2 1.5-9.6 1.5-.6 0-1.4 0-2.4-.1s-1.9-.1-2.6-.1c-9.6-.4-15.6-1.7-18-3.7-1.4-1.3-2.2-2.6-2.4-3.9-.3 0-.4-.2-.4-.7l-.2-.2v-.7c-.1-.6-.2-1.4-.2-2.5s-.1-1.9-.4-2.5c0-.4-.2-1.1-.7-2-.6-2.2-2-3.8-4.1-4.8-1.4-.6-3-.9-4.6-.9-2 0-4.8.5-8.3 1.5 3.5 0 5.9.2 7.4.7 2.8.5 4.7 1.3 5.7 2.6zM-92.3 491c-.1-.2-.1-.4-.1-.5s-.1-.4-.4-.9c0-.3-.1-.5-.2-.7 0-.4-.7-.7-2-.7-.1 0-.6.1-1.3.4s-1.2.4-1.3.4c-.1.4-.2 1.1-.2 2v1.7c0 2-.5 4.1-1.5 6.1l-.4.2v.7c-.1.4-.5.9-1.2 1.4a6.09 6.09 0 0 0-1.4 1.4c-.3.4-.5.8-.7 1.1.4 0 .9-.1 1.4-.4s.8-.4 1-.4h.9c.3-.1.7-.3 1.2-.4s.9-.3 1.2-.4l.7-.2h.2c1-.7 2-1.8 3-3.1 1-1.4 1.5-3 1.5-4.9 0-.6-.1-1.1-.2-1.5v-.2z" fill="#084"/><path d="M-87 465c-.3.4-.4 1-.4 1.7 0 1 .3 1.9.9 2.6.4.7 1.3 1.1 2.6 1.1.6 0 1.2-.4 2-1.1.3-.3.6-1.2.9-2.6.3 0 .4-.1.4-.2l.7-3c0-.7-.1-1.3-.4-1.7l-.7-.4c0-.1-.1-.2-.2-.2-1.2-1.2-2.2-1.7-3.3-1.7-.3 0-.6 0-1 .1s-.8.1-1.2.1H-88c-.1-.1-.4-.3-.7-.5s-.5-.4-.8-.7c-.2-.2-.4-.3-.5-.3-.6.4-.9 1.2-.9 2.2 0 .7.1 1.3.4 1.7.7.6 1.4.9 2 .9h.9c.4-.1.7-.2.9-.2.4 0 .7.1.7.2l-.9 2zm-32.4 6.9v.7c0 1 .6 1.9 1.7 2.6 1.9 1.4 4.1 2.2 6.7 2.2 1 0 1.7-.1 2-.2-.7-.4-3.8-2.7-9.3-7h-.2c-.6 0-.9.5-.9 1.7z" fill="#b27"/></g></svg>