<svg xmlns="http://www.w3.org/2000/svg" width="150" height="200" viewBox="0 0 39.7 52.9"><path d="M36.091 42.4c-1.193-.503-2.438-.583-3.71-.212-.689.212-1.272.503-1.749.874l3.021 2.888-4.558-.238c-.053.556.026 1.087.265 1.669.424 1.06 1.245 1.855 2.438 2.358 1.192.477 2.438.556 3.71.186s2.2-1.034 2.783-2.041a3.43 3.43 0 0 0 .238-3.127c-.424-1.087-1.245-1.882-2.438-2.358z" fill="#084"/><path d="M28.776 39.22c.98-.026 2.624-.689 4.956-1.961-.159-.265-.477-.583-.928-.901 2.146-.636 3.869-2.04 5.247-4.187-1.882-.822-4.108-1.245-6.678-1.245.901-1.06 1.511-2.438 1.882-4.134h-1.272c-1.829 0-3.18.159-4.108.477.106-1.696-.212-3.737-.954-6.174-1.802.768-3.392 1.855-4.77 3.313-.53-1.643-1.404-2.968-2.677-3.948-1.272.98-2.173 2.305-2.703 3.948-1.378-1.458-2.968-2.57-4.77-3.312-.742 2.438-1.06 4.478-.954 6.174-.901-.318-2.279-.477-4.108-.477H5.668c.371 1.696 1.007 3.074 1.882 4.134-2.57 0-4.797.424-6.678 1.245 1.351 2.147 3.1 3.551 5.247 4.187-.477.318-.769.636-.928.901 2.332 1.272 3.975 1.908 4.956 1.961-.53 1.113-.901 2.968-1.166 5.512 5.274-.08 8.772-1.67 10.521-4.797 1.696 3.127 5.194 4.717 10.494 4.797-.291-2.544-.689-4.373-1.219-5.512zm7.712-6.572c-2.067 1.935-3.631 2.942-4.744 3.021-1.352-.795-2.517-1.352-3.524-1.669.742-.53 1.564-1.272 2.438-2.147 2.491 0 4.426.265 5.83.795zm-10.203-9.99c.424 1.484.583 3.127.504 4.85-.821.238-2.12.901-3.869 2.014.026-1.404-.106-2.65-.371-3.657.795-1.404 2.067-2.465 3.736-3.207zm5.512 5.168c-1.378 2.835-3.021 4.77-4.956 5.803-1.351-.106-2.623-.106-3.816 0-.053-.636-.239-1.457-.556-2.465 3.074-2.2 6.174-3.286 9.328-3.339zm-8.639 6.545c.504-.026 1.192-.026 2.067.027 2.2.106 4.452.98 6.758 2.623-1.723.901-3.896 1.378-6.492 1.378-.769 0-2.067-.079-3.869-.212.954-.822 1.457-2.093 1.537-3.816zm-6.121-5.353c0-2.65.795-5.035 2.411-7.128 1.59 2.093 2.385 4.478 2.385 7.128v.901c-.398-.795-1.192-1.669-2.385-2.623-1.192.954-2.014 1.828-2.411 2.623zm-4.425-6.36c1.669.742 2.915 1.802 3.763 3.207-.265 1.033-.398 2.252-.371 3.657-1.749-1.113-3.048-1.775-3.869-2.014-.106-1.723.053-3.339.477-4.85zM7.1 27.826c3.154.053 6.28 1.166 9.328 3.313-.318 1.007-.504 1.828-.556 2.465-1.192-.106-2.464-.106-3.816 0-1.934-1.034-3.578-2.942-4.955-5.777zm-4.69 4.823c1.405-.53 3.365-.795 5.83-.795.901.901 1.696 1.617 2.438 2.147-1.007.318-2.173.875-3.525 1.669-1.113-.079-2.703-1.113-4.744-3.021zm4.505 4.373c2.279-1.643 4.532-2.491 6.758-2.623.874-.053 1.563-.08 2.067-.027.079 1.722.583 2.995 1.537 3.816-1.802.133-3.101.212-3.869.212-2.597-.026-4.77-.477-6.492-1.378zm7.897 5.3c-1.325.556-2.783.901-4.399.981.026-1.431.345-2.756.928-3.948h3.816c.901 0 2.014-.106 3.339-.318-.636 1.405-1.855 2.491-3.683 3.286zm2.094-8.082c0-1.988.848-3.843 2.57-5.538 1.696 1.696 2.544 3.525 2.544 5.538 0 2.438-.848 3.657-2.544 3.657-1.723.026-2.57-1.192-2.57-3.657zm7.182 8.082c-1.829-.768-3.047-1.882-3.71-3.286 1.351.212 2.464.318 3.339.318h3.816c.583 1.192.901 2.517.927 3.948-1.59-.106-3.047-.424-4.372-.981z" fill="#b32"/><path d="M3.575 22.79c.822.53 1.802.769 2.889.689 1.087-.053 2.014-.397 2.73-1.007s1.034-1.352.928-2.147a1.98 1.98 0 0 0-.477-1.192l-3.312 1.272 1.166-2.65c-.504-.132-1.06-.185-1.643-.185-1.086.053-1.987.397-2.676 1.007-.715.609-1.034 1.352-.954 2.147.08.848.53 1.537 1.352 2.067zm1.643 24.115l2.491-2.04c-.424-.265-.928-.424-1.484-.556a5.47 5.47 0 0 0-3.127.185c-1.007.371-1.696.927-2.04 1.669s-.265 1.458.265 2.12c.53.689 1.325 1.166 2.411 1.404s2.12.186 3.127-.185 1.669-.928 2.014-1.669c.185-.398.265-.768.185-1.166z" fill="#084"/><path d="M24.43 5.3a1.3 1.3 0 0 0 .291.026c.769 0 .769 0 3.578-.901l2.385-.636 2.677-.636a2.37 2.37 0 0 1 1.245.397c.265.186.424.398.424.689 0 .239-.238.504-.45.504l-1.139-.027c-.424 0-1.246.318-1.988.768l.636.239c1.007.424 1.352.768 1.352 1.352 0 .239-.027.53-.053.848l-.133.98-.026 2.677c0 .212-.133.689-.371 1.272.504.133.689.239.901.53.239.318.477.795.477 1.007 0 .186-.08.504-.265.875-.212.424-.318.689-.583 1.352 3.127 1.219 3.445 1.404 3.816 2.147.159.345.53 1.537.53 1.722 0 .08-.026.133-.079.133-.133 0-.504-.133-.901-.318-.715-.345-.715-.345-2.411-1.59-.424-.318-.901-.53-1.776-.848-.795.848-1.537 1.219-2.411 1.219-.239 0-.663-.053-1.113-.132l-.901-.186a1.72 1.72 0 0 1-.874-.318l-.026-.079c2.544-.027 3.153-.186 4.187-1.193-1.723-.53-1.855-.53-2.73-.609-.504.238-.822.583-1.829 1.775-.371.53-.53.689-.795.689-.318 0-.503-.318-.503-.795 0-.609.106-.768.954-1.457.212-.159 1.272-1.378 1.749-2.014.424-.556 1.166-1.696 1.166-1.775 0-.053-.053-.053-.132-.053-.239 0-.795.265-1.59.795-1.616 1.06-1.908 1.219-2.173 1.219-.133 0-.318-.212-.318-.318l.053-.61.026-.424.133-.238.106-.053c.795-.027 1.829-.477 2.305-1.007-.397-.927-.45-1.166-.45-1.855 0-1.378.212-2.173.821-3.047s1.166-1.457 2.279-2.279l-.265-.027c-.371 0-.636.106-1.564.61l-1.245.742c-.556.424-1.087.663-1.378.663-.186 0-.583-.186-.795-.371-.477-.424-.901-.98-.901-1.192l.026-.106zm4.161 6.228c.345-.053.398-.106.716-.398.212-.238.397-.424.583-.583.133-.132.212-.238.212-.318 0-.053-.053-.053-.079-.053-.053 0-.079 0-.133.027h-.503c-.239 0-.318-.08-.318-.239 0-.132.026-.265.053-.45.026-.08.026-.08.318-.318l.424-.318c.451-.424.451-.424.451-.503 0-.133-.159-.159-.663-.159a.88.88 0 0 1-.609-.239c-.398.742-.556 1.537-.556 2.597 0 .212 0 .397.053.556l.053.265zm2.942 1.696c-.265-.371-.398-.503-.53-.503-.318 0-.583.318-1.458 1.722l1.988-1.219zm0-1.987c.053 0 .106-.026.133-.053.133-.159.265-1.563.265-2.888 0-1.378-.344-1.855-1.484-2.04-.424.238-.504.318-.795.715.053.053.106.053.133.053h.318c.663 0 1.457.451 1.457.875 0 .291-.371.795-.795 1.06-.133.106-.239.186-.239.239s.079.079.265.159c.371.159.663.477.663.742 0 .185-.027.212-.503.344-.106.053-.133.053-.689.424-.636.477-.636.477-.636.53s.053.08.106.08a.49.49 0 0 0 .186-.053c.53-.265.663-.318 1.034-.318.212 0 .212 0 .53.132zm-.133 4.691c.106.053.371.132.663.238.53-.901.822-1.643.822-2.12 0-.159-.133-.318-.265-.318-.079 0-.159.053-.265.132l-2.491 1.617c.689.133.716.133 1.272.345z" fill="#b32"/><path d="M5.695 9.01l-.53.424c-1.775 1.352-2.809 2.703-3.154 4.055v.663h7.394l.345-3.207h-.875c-.212 1.325-.715 1.987-1.51 1.987H3.363c.318-1.033 1.14-1.934 2.411-2.677l.636-.345c1.113-.609 1.882-1.139 2.305-1.563.53-.53.795-1.245.795-2.093 0-1.113-.504-1.987-1.484-2.57a4.89 4.89 0 0 0-2.2-.504c-1.113 0-2.04.318-2.703.954-.556.557-.848 1.166-.848 1.882 0 .848.371 1.272 1.14 1.272.663 0 .98-.318.98-.927 0-.583-.265-.901-.769-.954.318-.822 1.007-1.219 2.093-1.219 1.405 0 2.094.663 2.094 1.961.026.848-.689 1.775-2.12 2.862z" fill="#339"/></svg>