<svg xmlns="http://www.w3.org/2000/svg" width="150" height="200" viewBox="0 0 39.7 52.9"><path d="M24.331 4.8a1.3 1.3 0 0 0 .291.026c.769 0 .769 0 3.578-.901l2.385-.636 2.677-.636a2.37 2.37 0 0 1 1.245.397c.265.186.424.398.424.689 0 .239-.238.504-.45.504l-1.139-.027c-.424 0-1.246.318-1.988.768l.636.239c1.007.424 1.352.768 1.352 1.352 0 .239-.027.53-.053.848l-.133.98-.026 2.677c0 .212-.133.689-.371 1.272.504.133.689.239.901.53.239.318.477.795.477 1.007 0 .186-.08.504-.265.875-.212.424-.318.689-.583 1.352 3.127 1.219 3.445 1.404 3.816 2.147.159.345.53 1.537.53 1.722 0 .08-.026.133-.079.133-.133 0-.504-.133-.901-.318-.715-.345-.715-.345-2.411-1.59-.424-.318-.901-.53-1.776-.848-.795.848-1.537 1.219-2.411 1.219-.239 0-.663-.053-1.113-.132l-.901-.186a1.72 1.72 0 0 1-.874-.318l-.026-.079c2.544-.027 3.153-.186 4.187-1.193-1.723-.53-1.855-.53-2.73-.609-.504.238-.822.583-1.829 1.775-.371.53-.53.689-.795.689-.318 0-.503-.318-.503-.795 0-.609.106-.768.954-1.457.212-.159 1.272-1.378 1.749-2.014.424-.556 1.166-1.696 1.166-1.775 0-.053-.053-.053-.132-.053-.239 0-.795.265-1.59.795-1.616 1.06-1.908 1.219-2.173 1.219-.133 0-.318-.212-.318-.318l.053-.61.026-.424.133-.238.106-.053c.795-.027 1.829-.477 2.305-1.007-.397-.927-.45-1.166-.45-1.855 0-1.378.212-2.173.821-3.047s1.166-1.457 2.279-2.279l-.265-.027c-.371 0-.636.106-1.564.61l-1.245.742c-.556.424-1.087.663-1.378.663-.186 0-.583-.186-.795-.371-.477-.424-.901-.98-.901-1.192l.026-.106zm4.161 6.228c.345-.053.398-.106.716-.398.212-.238.397-.424.583-.583.133-.132.212-.238.212-.318 0-.053-.053-.053-.079-.053-.053 0-.079 0-.133.027h-.503c-.239 0-.318-.08-.318-.239 0-.132.026-.265.053-.45.026-.08.026-.08.318-.318l.424-.318c.451-.424.451-.424.451-.503 0-.133-.159-.159-.663-.159a.88.88 0 0 1-.609-.239c-.398.742-.556 1.537-.556 2.597 0 .212 0 .397.053.556l.053.265zm2.942 1.696c-.265-.371-.398-.503-.53-.503-.318 0-.583.318-1.458 1.722l1.988-1.219zm0-1.987c.053 0 .106-.026.133-.053.133-.159.265-1.563.265-2.888 0-1.378-.344-1.855-1.484-2.04-.424.238-.504.318-.795.715.053.053.106.053.133.053h.318c.663 0 1.457.451 1.457.875 0 .291-.371.795-.795 1.06-.133.106-.239.186-.239.239s.079.079.265.159c.371.159.663.477.663.742 0 .185-.027.212-.503.344-.106.053-.133.053-.689.424-.636.477-.636.477-.636.53s.053.08.106.08a.49.49 0 0 0 .186-.053c.53-.265.663-.318 1.034-.318.212 0 .212 0 .53.132zm-.133 4.691c.106.053.371.132.663.238.53-.901.822-1.643.822-2.12 0-.159-.133-.318-.265-.318-.079 0-.159.053-.265.132l-2.491 1.617c.689.133.716.133 1.272.345z" fill="#b32"/><path d="M5.595 8.51l-.53.424c-1.775 1.352-2.809 2.703-3.154 4.055v.663h7.394l.345-3.207h-.875c-.212 1.325-.715 1.987-1.51 1.987H3.263c.318-1.033 1.14-1.934 2.411-2.677l.636-.345c1.113-.609 1.882-1.139 2.305-1.563.53-.53.795-1.245.795-2.093 0-1.113-.504-1.987-1.484-2.57a4.89 4.89 0 0 0-2.2-.504c-1.113 0-2.04.318-2.703.954-.556.557-.848 1.166-.848 1.882 0 .848.371 1.272 1.14 1.272.663 0 .98-.318.98-.927 0-.583-.265-.901-.769-.954.318-.822 1.007-1.219 2.093-1.219 1.405 0 2.094.663 2.094 1.961.026.848-.689 1.775-2.12 2.862z" fill="#339"/><path d="M27.855 32.095a7.89 7.89 0 0 0-.636-3.153c-.424-.98-1.007-1.828-1.723-2.57-.742-.742-1.59-1.298-2.571-1.722a7.8 7.8 0 0 0-3.154-.636 7.89 7.89 0 0 0-3.154.636 8.14 8.14 0 0 0-2.544 1.722c-.715.742-1.298 1.59-1.722 2.57s-.636 2.014-.636 3.153a7.89 7.89 0 0 0 .636 3.153c.424.98.98 1.828 1.723 2.544a8.14 8.14 0 0 0 2.544 1.722c.98.424 2.014.636 3.154.636a7.89 7.89 0 0 0 3.154-.636c.981-.424 1.829-.981 2.571-1.722.742-.716 1.299-1.564 1.723-2.544a7.98 7.98 0 0 0 .636-3.153zm-2.252 2.438c-.318.768-.769 1.431-1.351 1.987a6.22 6.22 0 0 1-1.988 1.325 6.25 6.25 0 0 1-2.438.477 6.25 6.25 0 0 1-2.438-.477c-.769-.318-1.431-.769-1.988-1.325-.583-.557-1.007-1.246-1.351-1.987a6.25 6.25 0 0 1-.477-2.438 6.25 6.25 0 0 1 .477-2.438c.318-.768.769-1.431 1.351-1.987.556-.556 1.245-1.007 1.988-1.325a6.25 6.25 0 0 1 2.438-.477 6.25 6.25 0 0 1 2.438.477c.768.318 1.431.769 1.988 1.325a7.32 7.32 0 0 1 1.351 1.987 6.25 6.25 0 0 1 .477 2.438c0 .848-.159 1.669-.477 2.438z" fill="#b32"/><path d="M26.875 26.265c.371 0 .742-.186 1.086-.53.186-.186.398-.504.716-.98l.901-1.511 1.087-2.014-2.014 1.087-1.511.901-.981.662c-.344.345-.53.716-.53 1.087 0 .345.133.636.371.901a1.13 1.13 0 0 0 .875.398zm-8.242-3.286c.371.265.742.398 1.139.398s.769-.133 1.139-.398.53-.636.53-1.087c0-.106-.026-.292-.079-.61l-.212-1.087-.291-1.352-.291-1.484-.822-3.869-.848 3.869-.556 2.835-.186 1.087-.079.61a1.24 1.24 0 0 0 .556 1.087zM10.63 33.208c.265-.371.398-.742.398-1.14s-.133-.768-.398-1.139-.636-.53-1.087-.53c-.133 0-.345.027-.636.08l-1.086.212-1.352.291-1.458.292-3.869.822 3.869.848 2.809.556 1.086.186c.291.053.504.079.636.079.477-.026.822-.185 1.087-.556zm.371-10.865l-2.014-1.087 1.087 2.014.901 1.51c.291.477.53.822.715.98.345.345.715.53 1.087.53.318 0 .609-.132.901-.397a1.26 1.26 0 0 0 .371-.901c0-.371-.185-.742-.53-1.087-.186-.159-.504-.371-.98-.663zm22.021 8.613l-1.352-.292-1.086-.212-.61-.079c-.477 0-.848.185-1.086.53-.265.371-.398.742-.398 1.139s.133.768.398 1.139.636.53 1.086.53c.106 0 .291-.026.61-.079l1.086-.186 2.836-.556 3.869-.848-3.869-.822c-.477-.053-.981-.159-1.484-.265zm-4.399 8.374c-.291-.477-.504-.821-.689-.98-.344-.345-.715-.53-1.086-.53-.318 0-.61.132-.901.397-.265.265-.398.557-.398.848 0 .344.186.715.53 1.113.185.185.503.397.98.689l1.511.875 2.014 1.087-1.086-2.014zm-15.9-1.484c-.371 0-.742.186-1.086.53-.185.185-.398.504-.715.981l-.848 1.511-1.087 2.014 2.014-1.087 1.51-.874c.477-.292.822-.504.98-.689.345-.398.53-.768.53-1.113 0-.292-.133-.583-.398-.848-.265-.292-.556-.424-.901-.424zm8.162 3.392c-.371-.265-.742-.398-1.14-.398s-.768.132-1.139.398-.53.636-.53 1.087c0 .132.026.344.079.636l.186 1.087.265 1.351.291 1.458.848 3.869.822-3.869.291-1.458.291-1.352.212-1.087c.053-.292.079-.504.079-.636 0-.45-.186-.821-.556-1.087z" fill="#d71"/></svg>