<svg xmlns="http://www.w3.org/2000/svg" width="150" height="200" viewBox="0 0 39.7 52.9"><path d="M23.831 5.2a1.3 1.3 0 0 0 .291.026c.769 0 .769 0 3.578-.901l2.385-.636 2.677-.636a2.37 2.37 0 0 1 1.245.397c.265.186.424.398.424.689 0 .239-.238.504-.45.504l-1.139-.027c-.424 0-1.246.318-1.988.768l.636.239c1.007.424 1.352.768 1.352 1.352 0 .239-.027.53-.053.848l-.133.98-.026 2.677c0 .212-.133.689-.371 1.272.504.133.689.239.901.53.239.318.477.795.477 1.007 0 .186-.08.504-.265.875-.212.424-.318.689-.583 1.352 3.127 1.219 3.445 1.404 3.816 2.147.159.345.53 1.537.53 1.722 0 .08-.026.133-.079.133-.133 0-.504-.133-.901-.318-.715-.345-.715-.345-2.411-1.59-.424-.318-.901-.53-1.776-.848-.795.848-1.537 1.219-2.411 1.219-.239 0-.663-.053-1.113-.132l-.901-.186a1.72 1.72 0 0 1-.874-.318l-.026-.079c2.544-.027 3.153-.186 4.187-1.193-1.723-.53-1.855-.53-2.73-.609-.504.238-.822.583-1.829 1.775-.371.53-.53.689-.795.689-.318 0-.503-.318-.503-.795 0-.609.106-.768.954-1.457.212-.159 1.272-1.378 1.749-2.014.424-.556 1.166-1.696 1.166-1.775 0-.053-.053-.053-.132-.053-.239 0-.795.265-1.59.795-1.616 1.06-1.908 1.219-2.173 1.219-.133 0-.318-.212-.318-.318l.053-.61.026-.424.133-.238.106-.053c.795-.027 1.829-.477 2.305-1.007-.397-.927-.45-1.166-.45-1.855 0-1.378.212-2.173.821-3.047s1.166-1.457 2.279-2.279l-.265-.027c-.371 0-.636.106-1.564.61l-1.245.742c-.556.424-1.087.663-1.378.663-.186 0-.583-.186-.795-.371-.477-.424-.901-.98-.901-1.192l.026-.106zm4.161 6.228c.345-.053.398-.106.716-.398.212-.238.397-.424.583-.583.133-.132.212-.238.212-.318 0-.053-.053-.053-.079-.053-.053 0-.079 0-.133.027h-.503c-.239 0-.318-.08-.318-.239 0-.132.026-.265.053-.45.026-.08.026-.08.318-.318l.424-.318c.451-.424.451-.424.451-.503 0-.133-.159-.159-.663-.159a.88.88 0 0 1-.609-.239c-.398.742-.556 1.537-.556 2.597 0 .212 0 .397.053.556l.053.265zm2.942 1.696c-.265-.371-.398-.503-.53-.503-.318 0-.583.318-1.458 1.722l1.988-1.219zm0-1.987c.053 0 .106-.026.133-.053.133-.159.265-1.563.265-2.888 0-1.378-.344-1.855-1.484-2.04-.424.238-.504.318-.795.715.053.053.106.053.133.053h.318c.663 0 1.457.451 1.457.875 0 .291-.371.795-.795 1.06-.133.106-.239.186-.239.239s.079.079.265.159c.371.159.663.477.663.742 0 .185-.027.212-.503.344-.106.053-.133.053-.689.424-.636.477-.636.477-.636.53s.053.08.106.08a.49.49 0 0 0 .186-.053c.53-.265.663-.318 1.034-.318.212 0 .212 0 .53.132zm-.133 4.691c.106.053.371.132.663.238.53-.901.822-1.643.822-2.12 0-.159-.133-.318-.265-.318-.079 0-.159.053-.265.132l-2.491 1.617c.689.133.716.133 1.272.345z" fill="#b32"/><path d="M5.095 8.91l-.53.424c-1.775 1.352-2.809 2.703-3.154 4.055v.663h7.394l.345-3.207h-.875c-.212 1.325-.715 1.987-1.51 1.987H2.763c.318-1.033 1.14-1.934 2.411-2.677l.636-.345c1.113-.609 1.882-1.139 2.305-1.563.53-.53.795-1.245.795-2.093 0-1.113-.504-1.987-1.484-2.57a4.89 4.89 0 0 0-2.2-.504c-1.113 0-2.04.318-2.703.954-.556.557-.848 1.166-.848 1.882 0 .848.371 1.272 1.14 1.272.663 0 .98-.318.98-.927 0-.583-.265-.901-.769-.954.318-.822 1.007-1.219 2.093-1.219 1.405 0 2.094.663 2.094 1.961.026.848-.689 1.775-2.12 2.862z" fill="#339"/><path d="M20.2 20.04l-.186-.186-.053.186c0 .159.026.291.106.397l.291 1.775c.026.318.132.689.265 1.14l.265 1.087.186 2.465c-.079.795-.318 1.484-.689 2.014-.265.371-.398.636-.398.742 0 .185.133.344.398.45.238 0 .371-.079.45-.238.026-.08.079-.159.106-.239l.106-.185c.451-.715 1.431-1.139 2.941-1.272a2.55 2.55 0 0 1 1.272.345l.053.106a.98.98 0 0 0 .133.291c.053.08.133.106.265.106l.106.185a2.55 2.55 0 0 0-.53.053c-1.193.159-2.491.239-3.922.239l2.994.636a1.36 1.36 0 0 1 .265.026 1.24 1.24 0 0 0 .265.027c.53 0 .98-.08 1.325-.239a1.55 1.55 0 0 0 .345-.053c.079-.106.186-.185.291-.185.026 0 .106.053.239.185l.186.053c.609.371 1.086.583 1.431.636l-.106-.45c-.159-.159-.239-.292-.239-.398-.079-.026-.159-.132-.239-.265s-.159-.238-.239-.344l-.186-.265c-.53-.662-1.351-1.113-2.464-1.378.45-.344.768-.768.927-1.272 0-.026.053-.159.133-.371.106-.212.133-.344.133-.371.159-.424.239-1.113.239-2.067.159-.08.424-.159.768-.265.371-.106.61-.133.716-.133-.53-.238-.874-.344-1.033-.344h-.291c-.848 0-1.643.106-2.359.344l-1.139.689c-.106.027-.239.133-.398.265l-.344.265c0 .159-.079.239-.239.239-.079 0-.106-.027-.106-.106v-.239c-.159-1.087-.848-2.465-2.04-4.081zm2.173 6.784v-.53l.451-.451c1.219-1.033 2.412-1.802 3.578-2.305-.079.106-.212.345-.398.663l-.45.821a.57.57 0 0 0-.106.186c-.027.079-.053.132-.053.185-.026.106-.133.265-.291.424l-.344.371c-.663.663-1.564 1.246-2.703 1.776a2.52 2.52 0 0 0 .185-.583 1.23 1.23 0 0 1 .132-.556z" fill="#b27"/><path d="M31.834 27.46c1.643-.371 2.756-1.14 3.339-2.305a1.19 1.19 0 0 0 .106-.451l-.053-.185c-.026-.106-.053-.186-.053-.239-.079-.159-.265-.238-.583-.238s-.556.106-.742.291c-.159.106-.371.292-.636.53l-.53.451c-.106.079-.318.159-.583.238s-.424.159-.451.238c-.027 0-.106.027-.186.106-.079.106-.159.186-.239.239-.45.424-1.219.927-2.252 1.484-.503.265-.742.424-.742.45h.451c.927-.053 1.961-.265 3.153-.609zm2.65 2.65c-.159.08-.344.159-.583.239-.185.079-.503.106-.928.106l-.874.238c0 .265.318.398.928.398l1.219.238c.371 0 .636-.212.742-.636 0-.397-.159-.583-.504-.583zm-1.404 6.97c.265-.239.477-.398.61-.451.185-.132.636-.371 1.378-.715l3.233-1.087c-.901-.053-1.776-.053-2.65.026s-1.511.186-1.882.318c-.45.159-1.087.424-1.882.822l-1.881.769c-.265.106-.61.291-1.06.609l-.848.53c-2.12 1.404-3.392 2.994-3.736 4.77-.159-1.457-.451-2.994-.874-4.584l-.079-.292-.026-.291c-.026-.159.159-.239.556-.292.026 0 .133-.079.265-.212l.212-.079c.026 0 .212.053.53.185.504.106 1.113.106 1.802.053.636-.053 1.113-.132 1.431-.212 1.776-.45 2.994-1.51 3.684-3.153l.185-.477c.079-.053.291-.079.689-.132.027 0 .133-.053.265-.106.159-.08.265-.133.318-.186.159-.053.344-.132.583-.238s.424-.186.53-.292c.424-.318.768-.662.98-1.087-.398.344-.928.556-1.617.636-.159.026-.848 0-2.093-.027L30.06 31.7c-.318-.053-.742-.186-1.325-.451-1.272-.397-2.253-.636-2.968-.689l-.742.079c-.106 0-.291 0-.504-.053s-.398-.106-.556-.106c-.583-.106-1.272-.106-2.04-.026-1.193.132-1.961.371-2.306.742l-.239.371-.186-.106c-.079-.026-.159-.053-.239-.026-.079-.106-.186-.159-.291-.133-.159-.026-.424-.026-.769 0l-.716.053c-.927.106-1.59.265-2.014.557-.424.424-.583 1.007-.53 1.722 0 .08.026.186.08.345.026 0 .106-.027.159-.08.026-.106.133-.265.345-.45l.344-.318c.398-.345.928-.557 1.616-.636.345-.027 1.193.053 2.518.265.026 0 .106.026.212.106s.212.132.344.185c.239.159.477.239.716.212.079 0 .133-.026.159-.079.026 0 .053-.053.053-.186a1.25 1.25 0 0 0-.371-.822l-.451-.371c.106-.08.371-.159.795-.186l.848-.079c.954-.106 2.067-.053 3.366.132.026 0 .159.027.318.053l.451.106c.026 0 .133.027.265.053.133.053.239.053.318.053s.106-.079.106-.185c-.053-.106-.079-.186-.079-.212a3.92 3.92 0 0 1 .689.185c.291.106.504.159.636.186l1.272.503c.291.133 1.007.239 2.173.371.451-.053.716-.053.742-.026a.95.95 0 0 1-.106.291c-.079.159-.159.239-.239.265a1.09 1.09 0 0 1-.371.265c-.186.106-.318.159-.451.212-.212.132-.927.477-2.12 1.007l-2.862 1.245c-.026 0-.186.053-.451.133l-.45.132h-.106c-.026-.185.053-.371.239-.556.026-.053.106-.106.185-.186s.159-.159.239-.185c.053-.159.079-.398.053-.716s-.079-.53-.106-.583l-.079-.159-.265-.212c-.239-.08-.451-.133-.583-.106-.026 0-.106.026-.159.079-.079.053-.159.08-.212.08-.079.079-.159.132-.265.132l-.927 1.139a1.99 1.99 0 0 1-1.113.53l-.875.08a.27.27 0 0 1-.265-.08c-.583.027-1.299-.185-2.199-.609s-1.617-.61-2.2-.557a4.38 4.38 0 0 0-.848.133c.345.053.663.159.954.371s.583.45.848.742l.663.662.133.106-.159.08a.6.6 0 0 1-.477-.133c-.053-.026-.106-.106-.159-.185-.079-.08-.133-.159-.239-.239 0-.026-.053-.053-.133-.053-.106 0-.185 0-.238-.026a.92.92 0 0 0-.344-.08c-.159.027-.212.292-.159.822.026.318.079.503.186.609.106.292.451.53 1.06.716.159-.027.239.026.239.159.026.185 0 .345-.079.477l-.026 2.041.026 1.908-.079.292c-.026 0-.053-.079-.079-.212l-.503-2.677c-.265-1.007-.556-1.881-.901-2.57-1.033-2.253-2.465-4.028-4.293-5.353-1.139-.901-2.491-1.643-4.055-2.252-.08-.026-.238-.106-.45-.212a3.05 3.05 0 0 0-.504-.212c-.504-.344-.848-.503-1.034-.53-.53.053-.848.239-.928.557-.026.106-.026.265-.026.397l.026.292-.159.238c-.133.292-.371.689-.715 1.219l-.715 1.166c-.345.742-.477 1.563-.398 2.465l.053.45.08.212c.026 0 .08-.159.133-.477.159-.371.61-1.007 1.378-1.934 1.166-1.431 1.988-2.173 2.438-2.226.185-.026.345 0 .477.08.026 0 .265.079.715.265 2.147.901 3.949 2.544 5.406 4.956.053.026.265.609.636 1.722.344.742.715 1.802 1.139 3.18l.053.504-.186-.212c-1.378-1.404-2.836-2.544-4.399-3.418-1.087-.556-2.12-.874-3.1-.954-.185-.026-.504 0-.928.027a6.23 6.23 0 0 0-2.465.768l.238-.026c2.253-.239 4.399.503 6.466 2.173 1.166.848 2.279 2.067 3.365 3.657.265.292.451.504.53.689.239.291.477.503.768.636 1.087.238 2.146.132 3.18-.212-.026 0-.026 0-.026-.026l.026-.238.689-.027h.053c.186-.026.291.027.291.133l.053-.133.239-.026c.424-.053.715-.026.927.026l1.961-.079c.61-.053.928-.053.981.026.079 0 .106.027.132.106l.079.159c.239.159.556.238.901.212l.159-.026.106-.079c.239-.185.371-.345.345-.504l-.026-.238c-.026-.318.106-.556.397-.742.345-.424 1.299-.954 2.862-1.564l.503-.185a6.01 6.01 0 0 1 .504-.186c.106-.079.291-.159.583-.238s.477-.132.583-.238c.026-.053.106-.106.238-.159l.238-.159c1.643-1.219 2.73-2.2 3.233-2.995l.053-.053c0-.08-.159-.027-.45.159-1.007.609-2.067 1.113-3.154 1.537-.212.106-.583.212-1.06.318l-.954.239c-.53.212-1.113.53-1.749.927.477-.556 2.094-1.722 4.797-3.498.106.027.318-.106.583-.344zm-15.45 7.075c-.026 0-.053 0-.053-.053l.026-.239c.053-.185.106-.291.133-.291s.079.159.106.503c-.026.053-.106.08-.212.08zm2.12-.265c0 .106 0 .185-.079.185-.053 0-.106-.026-.159-.106l-.398.159c-.026 0-.106-.026-.186-.106l.053-.583.451-.053c.159-.026.239.026.239.079zm-.053-2.067c0 .08 0 .265-.053.583l-.159.132-.344-.079c-.079 0-.133.053-.159.132h-.053l-.026-.344c.026-.159.026-.265.026-.292-.079-.875-.318-2.173-.689-3.922l.345-.027c.53-.053.927-.238 1.219-.583-.079.848-.106 2.306-.106 4.399zm1.908 2.067l-.106.079c-.079 0-.186 0-.344-.026l-.398.053c0-.079.026-.132.106-.185-.026-.318-.026-.451 0-.477l.689-.079zm-.053-6.201c-.053.159-.079.265-.079.292-.053.901-.053 2.12.026 3.71.026.344.026.556-.053.636l-.636-.053-.053-.053v-.53l-.133-1.272-.45-3.26 1.007.239a1.9 1.9 0 0 1 .345.026zm1.139 6.148l-.079-.159c-.026-.239 0-.345.079-.345l-.079-.106h.053l.583.053.106.556c-.398.026-.636.026-.663 0zm.053-6.042v.238l.079 2.597c0 .079.053.238.106.504l.133.636.053.503c-.265.027-.451.027-.53 0l-.053-.503.053-.636c-.026-.159-.026-.477-.079-.981l-.079-1.139-.212-1.431v-.106c.344-.026.53 0 .53.133z" fill="#084"/><path d="M15.695 45.215c.106.053.212.079.345.132-.98.106-1.775.053-2.332-.159-.556-.132-1.378-.159-2.438-.053-.662.053-1.457-.371-2.385-1.325.08.768.477 1.378 1.166 1.855.504.292.954.477 1.378.556l.504-.053a5.13 5.13 0 0 1 1.564.079c.185-.026.53 0 .98.053a5.45 5.45 0 0 0 1.113.026l2.412-.132 2.12-.159 1.166-.106c.504-.053.901-.079 1.192-.053.822 0 2.862.159 6.122.477l-6.89.53-2.253.106c-1.033.106-1.776.132-2.253.106-.503-.026-1.166-.159-2.014-.371-.795-.186-1.616-.239-2.491-.159-.663.053-1.272.212-1.855.424 1.51-.026 2.782.132 3.816.477l.954.371c.769.344 1.564.504 2.412.451 1.299.132 3.021.106 5.194-.132l3.206-.451 2.782-.398c1.299-.132 2.253-.159 2.836-.053.185.026.45.159.742.397.291.132.424.265.45.424v.053c0 .079-.026.132-.132.159l-.345.079c-.133.026-.238.053-.318.053l-4.055 1.06c-.344.079-.822.133-1.484.212-.424.053-.716.053-.928.027-.318-.133-.53-.186-.583-.159.106.026.371.132.715.318.079.026.212.026.398.026.874.292 1.802.424 2.756.345.159-.027.451-.027.875-.053s.742 0 .927.053l1.696.053.238-.026c.636-.053 1.298-.398 1.988-1.007.265-.053.45-.185.556-.344.132-.159.185-.397.159-.715-.027-.371-.292-.742-.742-1.113s-1.087-.583-1.855-.662c-1.06-.238-2.173-.292-3.312-.186l-.927.106c-.026 0-.159-.026-.371-.106l-.424-.159c-1.431-.504-2.941-.848-4.505-.981-.106-.026-.822-.026-2.094-.026-.239.026-.556.026-.954-.027l-1.007-.079c-.371.026-.583.053-.662.026-1.034.345-2.067.451-3.154.212z" fill="#339"/><path d="M18.345 28.785c-.265-.583-.398-1.378-.398-2.412 0-1.484 1.59-4.585 2.173-5.989-.186.08-1.378 1.563-1.934 2.279l-.795 1.219c-.159-.08-.477-.159-.715-.371-1.14-.822-2.597-1.246-4.373-1.246h-.875c.185.027.45.106.795.239.345.106.556.185.636.238l.239.053c.185.08.291.133.291.186-.265.609-.398 1.139-.398 1.563 0 .609.133 1.139.398 1.563-.08 0-.186-.026-.345-.053l-1.087-.106c-1.298 0-2.2.292-2.65.875-.08.079-1.14.106-1.14.106.928.185 1.988.45 2.703 1.325.583.769 1.007 1.246 1.325 1.431.583.371 1.537.663 2.889.875l1.034.238c.318 0 .53-.106.689-.291l.239-.186h.239c.159 0 .239-.079.239-.238s-.053-.292-.186-.398c-.026-.106-.106-.238-.212-.344l-.265-.292c-.344-.344-.662-.742-.98-1.219-.079-.079-.742-1.192-.795-1.272-.451-.769-.822-1.537-1.087-2.306l-.053-.45-.186-.583c0-.026.026-.053.106-.053 1.113.504 1.935.954 2.465 1.378l.689.689c0 .079-.053.265-.186.583a8.71 8.71 0 0 0-.053 1.087c0 .875.212 1.722.636 2.544.159.265.239.424.291.45.265.265.477.398.636.398.344 0 .53-.133.53-.398 0-.159-.106-.318-.291-.53a1.69 1.69 0 0 0-.238-.583zm-2.465.795c-.265-.106-.768-.212-1.537-.291-.742-.08-1.246-.239-1.537-.53-.159-.08-.318-.265-.53-.583-.53-.715-1.272-1.166-2.2-1.325h.53c2.57.027 4.319.928 5.273 2.73z" fill="#b27"/><path d="M19.14 21.1v-.583c-.026-.053-.026-.186-.026-.424l-.344-6.068.053-1.775c.212-3.551 2.756-8.188 3.922-9.407-.715.583-3.18 3.418-3.604 4.055-.318.503-.662 1.378-1.007 2.57-.291.848-.477 1.882-.53 3.1a47.99 47.99 0 0 0-.106 3.153c.026.106.053.265.053.477h-.053l-.053-.133a34.91 34.91 0 0 0-1.961-2.995c-.026-.053-.185-.291-.503-.662l-.663-.848c-.026-.027-.106-.132-.265-.318-.133-.185-.239-.318-.291-.45-.053-.027-.133-.106-.185-.239-.08-.132-.159-.238-.239-.344s-.133-.133-.186-.133c-.026 0-.106.027-.185.106-.106.053-.185.106-.291.106-.026 0-.106.027-.212.053s-.185.08-.239.133-.106.106-.159.185-.106.133-.133.159a20.67 20.67 0 0 0-.398.715c-.185.345-.291.583-.398.716-.113.186-.211.381-.291.583l-.291.716a2.99 2.99 0 0 1-.291.583c-.928 1.563-3.471 4.929-4.982 5.83 1.034-.424 4.24-2.358 5.406-3.948.609-.848 1.007-1.484 2.199-3.418l.291-.344c.08 0 .239.106.424.344.053.053.424.53.424.583.053.027.265.345.663.901 1.749 2.438 3.021 4.717 3.816 6.811-.026-.027-.053-.053-.106-.08.159.292.344.53.742.292z" fill="#084"/><path d="M3.77 49.455c.08.079.133.132.133.212.185.212.345.344.503.424.45.186 1.007.238 1.696.186.583-.053 1.06-.186 1.458-.371.159-.053.318-.159.556-.344.212-.186.398-.291.556-.344.371-.265 1.245-.53 2.703-.795l2.942-.53c-1.06-.212-1.882-.292-2.465-.265-.08-.026-.239-.026-.424-.026l-.477.053-.08-.159c-.08 0-.106 0-.132-.053-.715-.583-1.802-.927-3.233-1.007l-1.404-.079-1.352.424-.424.504c-.53.504-.768 1.087-.689 1.696 0 .079.026.159.08.212zm2.305-1.325c.345-.344.98-.556 1.908-.662 1.034-.106 1.882-.079 2.544.079-.159.027-.424.027-.769.053l-.822.053c-1.14.106-2.093.371-2.809.742l-.212.079h-.053c-.053 0 .026-.132.212-.344zm12.641 1.484c-.106 0-.291.053-.503.106l-.451.106-.61.079c-.239.053-.397.079-.477.079-.239-.079-.398-.132-.477-.132-.079-.026-.212-.053-.424-.079 1.378.556 2.73.768 4.108.636.689-.079 1.166-.159 1.484-.265.345-.106.874-.239 1.616-.398l1.564-.265-3.843-.185-1.988.318z" fill="#339"/><path d="M25.368 33.025c.159.026.318.132.53.265.186.132.318.212.345.265.106.106.291.185.53.185h.186c.239 0 .371-.053.45-.185l.106-.292c0-.079-.053-.212-.186-.397-.106-.186-.318-.345-.583-.451-.318-.106-.636-.185-.981-.185-.265 0-.45.026-.583.106-.504.238-.742.371-.742.45 0 .159.186.239.53.239zm9.805-4.32c.028-.029.046-.066.053-.106v-.106c.026-.079.053-.159.053-.238 0-.424-.239-.636-.689-.636-.159 0-.318.026-.45.079-.159.053-.318.133-.45.265l-.398.239-.742.397c-.61.239-.928.424-.928.609s.106.292.344.371c.106.08.371.106.795.106s.715-.026.928-.106c.424 0 .795-.132 1.139-.397.079-.027.106-.08.106-.133s.027-.106.053-.132c.053-.079.106-.132.185-.212z" fill="#084"/></svg>