<svg xmlns="http://www.w3.org/2000/svg" xmlns:xlink="http://www.w3.org/1999/xlink" width="150" height="200" viewBox="0 0 39.7 52.9"><defs><path id="A" d="M-165.8 418.1c0-1-.5-1.4-1.4-1.4-1 0-1.4.5-1.4 1.4 0 1 .5 1.4 1.4 1.4.9.1 1.4-.4 1.4-1.4z"/><path id="B" d="M-161.2 416.7c-1 0-1.4.5-1.4 1.4 0 1 .5 1.4 1.4 1.4 1 0 1.4-.5 1.4-1.4s-.4-1.4-1.4-1.4z"/><path id="C" d="M-164.8 415.6c1 0 1.4-.5 1.4-1.4 0-1-.5-1.4-1.4-1.4-1 0-1.4.5-1.4 1.4s.4 1.4 1.4 1.4z"/><path id="D" d="M-161.4 411.5c1 0 1.4-.5 1.4-1.4 0-1-.5-1.4-1.4-1.4-1 0-1.4.5-1.4 1.4 0 1 .4 1.4 1.4 1.4z"/><path id="E" d="M-161 424.4c-1 0-1.4.5-1.4 1.4 0 1 .5 1.4 1.4 1.4 1 0 1.4-.5 1.4-1.4.1-.9-.4-1.4-1.4-1.4z"/><path id="F" d="M-158 423.3c1 0 1.4-.5 1.4-1.4 0-1-.5-1.4-1.4-1.4-1 0-1.4.5-1.4 1.4s.5 1.4 1.4 1.4z"/><path id="G" d="M-70.1 514.9c-1 0-1.4.5-1.4 1.4 0 1 .5 1.4 1.4 1.4 1 0 1.4-.5 1.4-1.4s-.5-1.4-1.4-1.4z"/><path id="H" d="M-154.6 427.2c1 0 1.4-.5 1.4-1.4 0-1-.5-1.4-1.4-1.4-1 0-1.4.5-1.4 1.4 0 1 .5 1.4 1.4 1.4z"/><path id="I" d="M-36.5 481c-1 0-1.4.5-1.4 1.4 0 1 .5 1.4 1.4 1.4 1 0 1.4-.5 1.4-1.4 0-1-.4-1.4-1.4-1.4z"/><path id="J" d="M-163.4 421.9c0-1-.5-1.4-1.4-1.4-1 0-1.4.5-1.4 1.4 0 1 .5 1.4 1.4 1.4s1.4-.5 1.4-1.4z"/></defs><g transform="matrix(.265 0 0 .265 47.2 -90.4)"><g fill="#b32"><use xlink:href="#A"/><use xlink:href="#B"/><use xlink:href="#C"/><use xlink:href="#D"/><use xlink:href="#E"/><use xlink:href="#F"/></g><use x="84.5" y="91.2" fill="#d71" xlink:href="#E"/><use y="-7.7" fill="#b32" xlink:href="#F"/><use fill="#d71" xlink:href="#G"/><use fill="#b32" xlink:href="#H"/><g fill="#d71"><use xlink:href="#I"/><use x="91.5" y="91.3" xlink:href="#F"/><use x="124.7" y="59.5" xlink:href="#B"/><use x="-3.6" y="-2.6" xlink:href="#G"/></g><path d="M-165 426c0-1-.5-1.4-1.4-1.4-1 0-1.4.5-1.4 1.4 0 1 .5 1.4 1.4 1.4 1 0 1.4-.4 1.4-1.4z" fill="#b32"/><path d="M-37.9 473c0 1 .5 1.4 1.4 1.4 1 0 1.4-.5 1.4-1.4 0-1-.5-1.4-1.4-1.4-.9-.1-1.4.4-1.4 1.4z" fill="#d71"/><g fill="#b32"><path d="M-164 438c2.8 2 5.8 3 9.1 3 5.1 0 9.7-1.6 13.6-4.9 4-3.3 5.9-7.3 5.9-12 0-3.5-.3-5.9-.8-7.3.4-.7.7-1.8.9-3.1s.5-2.2 1-2.7c-.4-.1-1.1-.1-2.2-.1-3.4 0-5.6.1-6.7.4s-2.1.7-2.9 1.3c.4-.9.8-1.9 1-3s.7-2.8 1.4-5.1c-.2 0-.9 0-2.1-.1s-2.3 0-3.1.2c-.1-.5-.3-1.1-.4-1.8s-.6-1.8-1.4-3.2c-1.4 1.2-2.7 2.2-4 3s-2.4 1.6-3.2 2.3c-4.4 1-8 2.7-10.9 5.3s-4.3 6.1-4.3 10.6c0 3.2.8 6.4 2.5 9.5 1.5 3.1 3.8 5.7 6.6 7.7zm-2.3-26.9c3-2.9 6-4.3 9-4.3.5-.5 1.3-1.1 2.4-1.6 1.1-.6 2.2-1.5 3.5-2.7a21.5 21.5 0 0 1 .7 2.6c.1.5.1 1 .2 1.5l4.4-.2c-.4 1.1-.9 2.3-1.3 3.6s-.8 3.2-1 5.9c.9-.2 2-.6 3.2-1.3 1.3-.6 2.4-1.1 3.4-1.4s2.3-.4 3.9-.4c-.8 1.1-1.5 2.8-2 5.1-.5 2-1.1 3.5-1.8 4.7-.7 1.1-1.7 1.7-3.2 1.7.1.2.2.6.2 1.1 0 1-.3 2-1 3.1s-2 2.6-4 4.3c-1-1-2.3-1.8-4.2-2.6-1.7.3-3.8 1.7-6.4 4.3-2.9-1.6-5.1-3.5-6.6-5.7s-2.9-4.8-4.3-8c.3-3.6 1.8-6.8 4.9-9.7zm7.6 18.2c0 1 .5 1.4 1.4 1.4 1 0 1.4-.5 1.4-1.4 0-1-.5-1.4-1.4-1.4-.9-.1-1.4.4-1.4 1.4z"/><use x="-2.4" y="11.6" xlink:href="#B"/></g><path d="M-40.7 421c-.7-1.8-3.2-3-7.6-3.4-.1-2.8-1.6-4.2-4.4-4.2-2 0-3.1 1.4-3.4 4.3-5.3.8-8 1.9-7.9 3.4-6.3 5.1-9.4 9.3-9.4 12.9 0 7 2.7 10.4 8.2 10.1 2.4 2 4.9 2.9 7.4 2.7 1.6-.1 3.3-.4 5.2-1 1.8.7 4.1.9 6.8.7 3.7-.2 6.5-1.2 8.6-2.9 4.1-1.5 6.2-4.4 6.2-8.5-.1-4.4-3.3-9.1-9.7-14.1zm1.8 20.7c-.2.1-.4.2-.7.2-1.3.3-2.4 1.1-3.4 2-.7.6-1.7.9-3 1-2.7.1-5.8-1-6.6-1-.8.1-4.3 1-6.5 1-1.5 0-2.6-.5-3.3-1.3-.8-.9-1.8-1.3-2.9-1.6-.1 0-.1 0-.2-.1-3.4-.9-5.1-2.8-4.9-5.8.4-5.1 3-9.7 8-13.8 0 .1 4.1 1 10.7.9 5-.1 9.2-.7 9.1-.9 4.9 4.2 7.5 8.8 7.9 13.8.3 2.8-1.1 4.7-4.2 5.6z" fill="#084"/><g fill="#d71"><path d="M-33.4 467c-1.6-4.8-4.2-7.1-7.8-7.1-1.4-3.4-2.5-5.6-3.3-6.4l-3.7.4c-3.9 2.4-7 6-9.2 10.9-5.1-4.2-7.7-7.1-7.7-8.5-3.2-4.3-5.5-6.5-6.9-6.5-2.8-7.7-5.6-11.5-8.3-11.5h-8l-.4-.2c-2.4-5.8-4.2-8.7-5.3-8.8-5.1-1.8-8.2-2.6-9.1-2.6l-2.4.4c-4.4 2-7.3 4.9-8.8 8.9h-.4c-1.2-1.2-3-1.9-5.2-1.9s-3.7-1-4.4-3c-.9 0-3.6.7-8 2-2 5.2-4.3 8.8-6.9 10.7 0 .7.2 1.2.5 1.6.4.4.5.7.5.8-2.1-.8-4.7-1.6-7.8-2.3h-.9c-1.5 3.4-3.9 5.2-7 5.2-3.7-.2-6.9-.3-9.4-.3h-1.1c-1 0-2 .4-3.2 1.3-3.4 8.1-5.9 12.3-7.3 12.6l.4 3.2v2.5l-1.2 5.5c2.4 2.3 5.5 8.5 9.1 18.8 2.6 7.8 6.8 12.5 12.4 14.1.3 4.5 2.2 8.4 5.6 11.5 9 8.3 19.5 12.5 31.5 12.5h4.5c6.8 0 13.9-1.5 21.2-4.6 2.2-.9 4.5-2.5 7-4.7 3.8.5 6.4.8 7.7.8h2.6c4.4 0 9.5-1.4 15.3-4.2 3.7-3 7.7-6.1 11.8-9.2 6.2-5.2 9.3-9.5 9.3-12.9 4.5-4.5 6.7-10.4 6.7-17.9v-4.5c-1.1-4.4-1.9-6.6-2.4-6.6zm-31.6-5.1c5.5 3.6 8.2 10.5 8.2 20.9 0 8.9-3 17-9 24.1-.7-1.7-1-5.9-.9-12.5.7-6.8-.6-12.5-3.7-17.1-6-8.9-14.4-13.5-25.2-13.7 5.8-2.6 10.7-4 14.8-4h2.2c6.6-.1 11.1.7 13.6 2.3zm-25.6 24.5c-1.3-6.4-4.4-13.2-9.1-20.3l1.1-.2c8.1 0 14.9 2.3 20.4 6.9 5.9 4 8.8 10.8 8.8 20.4 0 4.2-.4 8.6-1.1 13.3-5.6.4-11.5 2.4-17.6 5.9l-1.8-4.3c.5-2.4.8-4.7.8-6.7-.1-5-.6-10-1.5-15zm-22.8-32.7c2.4 1.6 4.3 4.6 5.6 8.9-4.6-2-9.4-3-14.5-3-6.7 0-11.5.5-14.4 1.4 7-5.9 13.7-8.8 19.9-8.8 1.5.4 2.6.9 3.4 1.5zm-.6-3.8c2-1.6 5.2-2.4 9.3-2.4h1.4c4.5 0 7.7.7 9.4 2-4.6 3.6-7.8 8.3-9.6 14.3l-1.6-3.4c-3.3-6.6-6.3-10.1-8.9-10.5zm-10.8 12.5c2.9 0 6.6.4 10.9 1.3-1.4.3-3.1.8-5.3 1.5-8.9 3.9-16 10.2-21.4 19l-3.6-1.1h-1.9c-2.3 1.6-3.4 2.3-3.4 2.1-.1-.1-.2-.2-.2-.3v-3.7c0-5 2.8-9.4 8.5-13.3 3.1-3.6 8.6-5.5 16.4-5.5zm15.3 3.4h2.6v.1c-6.1 4.1-10.8 12-14.1 23.6-.4 0-3.2-2.2-8.6-6.7h-1c-1.5 0-3.7.4-6.5 1.2 8.8-12.1 18-18.2 27.6-18.2zm-4 11.2c3.4-5.7 6.8-9.2 10.4-10.3 1.6 1.6 3.7 4.9 6.4 10 2.9 6.6 4.5 13.4 4.7 20.3v3.6c0 2.9-.1 4.7-.4 5.4-2.5 0-7.2-3.2-14.1-9.6-3.3-4.5-5.2-6.8-5.7-6.9h-5.6c.5-3.1 2-7.3 4.3-12.5zm45.2-19.1c-3.7-.9-6.9-1.3-9.4-1.3-8.3.1-15.9 2.4-22.5 6.9 3.2-8.9 8-13.4 14.3-13.4 8.3 0 14.2 2.6 17.6 7.8zm-62.8-19.9c.7-2.2 2.3-3.3 5.1-3.3-.1 0 .3.6 1.1 1.9 4.5.4 8 1.6 10.7 3.4h.9c4.1-6.7 7.5-10.1 10.1-10.1h.7l7.1 2.1c1.8 4.6 3.5 7.9 5.1 9.9 2.5 0 5.7-.1 9.8-.3 2.5 2.1 3.7 4.2 3.7 6.4-3.7-.7-6.7-1-8.8-1-1.1 0-2.7.1-4.7.3-3.9-2.2-8.3-3.3-13.2-3.3-6.1 0-10.9 1.6-14.5 4.8-4.5 1.2-8.6 2.4-12.2 3.7l-1.9-2.6c-1.9-2-3.1-3.8-3.5-5.3 1.5-.6 3.1-2.8 4.5-6.6zm-40.2 26.3c1.4-1.2 3-3.7 4.7-7.5.9-3.2 1.9-4.8 3.1-4.8 2.9 0 5.9.1 9 .3 4.7 0 7.8-1.6 9.3-4.7 2.8.4 4.8.9 6 1.4 1.5.2 3.1 1.7 4.8 4.4l.4.7c-4.9 3.8-8 7.3-9.2 10.3-6.8 5.6-10.2 10.9-10.2 15.7-9.2-5.2-15.2-7.8-18.1-7.8 0-1 .1-2.7.3-5.3v-1.2zm16.4 37.9c-3.1-2.6-5.3-4.9-6.4-6.9-1.4-2.1-2.8-5.3-4.3-9.9-1.7-4.6-3.1-7.8-4.3-9.4 8.6 3.1 14 5.8 15.9 8.2.3 2 1 3.3 2.2 4-2.2 2.4-3.3 7.1-3.1 14zm61 21c-7.3 3-13.5 4.5-18.7 4.5-5.1-.1-9.2-.3-12.3-.7-5.9-.6-12.8-4.1-20.7-10.7-4-3.4-6-9.8-6-19 0-3.1 2.1-6.7 6.4-11 .7 0 2.4.4 5.3 1.1 1.4 0 4.4-.6 8.9-1.8 5.7 4.9 9.6 7.4 11.8 7.4l5.4-.7c.7.6 1.1.9 1.1 1 2.6 3.7 5.1 6.7 7.4 8.9 4.1 3.6 8.1 5.9 11.9 6.9.1 0 2 3.3 5.8 10-1 1.3-3 2.6-6.3 4.1zm17.9-4.1h-1c-5.1-.3-8.2-1.5-9.1-3.6v-.2c5.8-3.5 11.1-5.3 15.8-5.3h1.9c.5 0 3.4 1.4 8.6 4.3-4 3.1-9.4 4.7-16.2 4.8zm30.4-16.7c-2.1 2.2-5.9 5.4-11.4 9.6-2.6-.7-4.3-1.6-4.9-2.5.6-.4 2-2.2 4.2-5.4 2.1-3.4 3.7-10.5 4.6-21.3 0-5-.7-9.9-2.2-14.8 1.5-2.1 3-3.9 4.3-5.4 1.4-2 3-3.7 4.9-5.1.1 3.6 2.4 5.7 6.8 6.3 0 1-1.1 4.9-3.4 11.6v.9c0 3.6 1.2 8 3.7 13.3 0 4-2.2 8.3-6.6 12.8zm11.1-24.3c0 2.5-.5 5.7-1.6 9.6-2.1-4.9-3.1-8.1-3.1-9.6v-2l.3-2.1 1-3.1 1.4-3.4c0 .2.1.5.2.9 1.2 1.7 1.8 3.7 1.8 5.9z"/><path d="M-36.4 489v-.5h.1c0 .1 0 .2-.1.5z"/></g><g fill="#b32"><use x="12.4" y="-9" xlink:href="#H"/><use x="6.7" y="7.9" xlink:href="#F"/><use x="6.7" xlink:href="#F"/><use x="7.1" y="-7.7" xlink:href="#F"/><use y="-15.7" xlink:href="#H"/><use x="13.5" xlink:href="#F"/><use x="6.6" y="-7.7" xlink:href="#E"/><use xlink:href="#J"/><use x="-77.3" y="-90.5" xlink:href="#G"/><use x="10.3" y="-3.7" xlink:href="#F"/></g><g fill="#d71"><use x="21" y="83.7" xlink:href="#E"/><path d="M-100 514c1 0 1.4-.5 1.4-1.4 0-1-.5-1.4-1.4-1.4-1 0-1.4.5-1.4 1.4-.1 1 .4 1.4 1.4 1.4z"/><use x="-60.4" y="6.8" xlink:href="#G"/><use x="31.1" y="64" xlink:href="#E"/><use x="57.8" y="98.1" xlink:href="#D"/><use x="-66.8" y="34.4" xlink:href="#I"/><path d="M-135 513c0-1-.5-1.4-1.4-1.4-1 0-1.4.5-1.4 1.4 0 1 .5 1.4 1.4 1.4 1 0 1.4-.5 1.4-1.4z"/><use x="-66.2" y="4.5" xlink:href="#G"/><use x="51.3" y="82.4" xlink:href="#F"/><use x="24.7" y="72.1" xlink:href="#F"/><use x="27.8" y="91.4" xlink:href="#E"/><use x="59" y="99.1" xlink:href="#J"/><use x="-30.3" y="4.6" xlink:href="#G"/><use x="57.8" y="106.2" xlink:href="#B"/><use x="-61.4" y="34.4" xlink:href="#I"/><use x="65.8" y="94.9" xlink:href="#F"/><use x="-24.6" y="4.6" xlink:href="#G"/><use x="45.6" y="82.4" xlink:href="#H"/><use x="52.2" y="98.5" xlink:href="#E"/><use x="54.2" y="79.4" xlink:href="#J"/><use x="-100.3" y="15.5" xlink:href="#I"/><use x="55.5" y="102.4" xlink:href="#D"/><path d="M-164 480c0-1-.5-1.4-1.4-1.4-1 0-1.4.5-1.4 1.4 0 1 .5 1.4 1.4 1.4s1.4-.4 1.4-1.4z"/><use x="-119.2" y="7.7" xlink:href="#I"/><use x="27.8" y="75.7" xlink:href="#C"/><use x="21" y="75.7" xlink:href="#C"/><use x="24.4" y="79.8" xlink:href="#C"/><use x="-90.4" y="-26" xlink:href="#G"/><use x="-11.6" y="-1.1" xlink:href="#G"/><use x="2.1" y="63.7" xlink:href="#J"/><use x="-3.1" y="60.1" xlink:href="#H"/><path d="M-161 483c1 0 1.4-.5 1.4-1.4 0-1-.5-1.4-1.4-1.4-1 0-1.4.5-1.4 1.4-.1.9.4 1.4 1.4 1.4zm13.4 12.1c1 0 1.4-.5 1.4-1.4 0-1-.5-1.4-1.4-1.4-1 0-1.4.5-1.4 1.4-.1.9.4 1.4 1.4 1.4z"/><use x="3.3" y="76.9" xlink:href="#B"/><use x="26.8" y="83.5" xlink:href="#A"/><use x="-107.1" y="23.2" xlink:href="#I"/><use x="-107.1" y="15.5" xlink:href="#I"/><use x="-24.7" y="-3.8" xlink:href="#G"/><use x="21" y="91.4" xlink:href="#E"/><path d="M-149 504c-1 0-1.4.5-1.4 1.4 0 1 .5 1.4 1.4 1.4 1 0 1.4-.5 1.4-1.4 0-1-.5-1.4-1.4-1.4z"/><use x="17.6" y="95.1" xlink:href="#B"/><use x="15.2" y="76" xlink:href="#J"/><use x="-77.1" y="-14.7" xlink:href="#G"/><use x="21.2" y="91.4" xlink:href="#A"/></g><path d="M-102 382c1.2.5 2.3.7 2.9.7 1.5 0 3-.7 8-3.5 6.4-3.6 6.4-3.6 8.7-5.2-.1-3.1-.4-4.1-1.7-6.4-3.3.9-8.7 1.9-11.1 1.9l-1.3-.1-.3-.5c3.7-1.4 8.3-3.6 12.2-5.6 6.4-3.5 6.8-3.7 6.6-4.9.1-.6.2-.8.5-1.2l.5-.1c1.3.4 2 .8 2.7 1.7 1.6 1.8 2.8 4.1 2.8 5.5 0 1.1-.7 1.4-3.2 1.6-.7.1-2.4.4-5.2 1 2.3 1.4 3 2.3 3 4.5v.3c.5-.3.9-.5 1.1-.5 1.5 0 3.8 2.2 3.8 3.6 0 .7-.5 1.2-2.2 1.9-1.1.5-2 1-4.3 2.6 1 1.1 1.3 1.9 1.3 2.9s0 1-.9 4.4l-.5 1.2-.3 1c.9-.4 2-1.5 5.2-5.8l.4.5c-.5 2.5-2.9 6.3-6.7 10.5-.2 1.4-.2 2.5-.2 3.1 0 .8 0 .8.6 8.3.2 1.6.2 3 .2 4 0 2-1 4.4-1.9 4.4-.5 0-1.5-1.1-2.1-2.3s-.9-2.4-.9-4c0-1 .1-2.3.2-3.7.2-1.6.2-2.7.2-3.5l-.1-1.9-2.4 2c-1.4 1.1-2.3 1.9-2.5 2.1l-1.2 1.1c-.5.5-.9.7-1.2.7-.6 0-.7-.2-1.3-1.7-1.1-2.9-1.1-2.9-1.1-3.7a4.38 4.38 0 0 1 .6-2.3c.2-.4.5-.5 2-1.2 4.9-2.9 8.3-8.5 8.2-13.5-2.1 1.7-2.1 1.7-7.2 5.5-2.3 1.8-3.4 2.3-4.4 2.3-1.2 0-4.1-1.6-5.9-3.3-1.3-1.3-1.7-2.2-1.9-4.1zm23.7 21.7c6.8-1.3 10.4-5.1 12.8-13.2 1.4-4.7 2.2-8.9 2.8-15.2.5-4.6 1-11.6 1-13.3 0-2.3-.2-2.7-2.3-3.7l-.5-.4c.9-2.8 1.7-4 2.8-4 2.3 0 4.5 4.4 4.5 8.9 0 .9-.1 2.1-.2 3.5-.3 3-.4 4.2-.5 6.6 3.4.1 4.9.5 7 1.4 2.4 1.1 3.9 3.1 3.9 5.1 0 1.6-1.3 2.6-3.1 2.6-1.6 0-3.6-1.2-6-3.4-1.3-1.2-1.6-1.3-2.6-1.3-.5 4-.8 6.2-1.7 10.6l2.1 1.4c.3.2 1.5 1.2 3.3 2.7 5.2 4.2 12.6 8.9 17.8 11.2 3 1.3 4.4 2.7 4.4 4.3 0 .5 0 .5-4.3.9l-2.3-.1-4.2-.2c-3.2.3-8-4.1-14.2-13-1.6-2.2-1.7-2.4-3.3-3.6-1.3 5.1-2 6.8-3.4 8.7-2.1 2.9-6.2 4.9-10 4.9-1.2 0-2.1-.2-4-.8zm14-25c-.2.7-.4 1.2-.5 1.5s-.5 1.2-1.2 2.7c-.9 1.7-1.2 2.6-2.5 6.9-.7 2.3-1.5 3.4-2.3 3.4-.9 0-2.4-3.7-2.4-5.8 0-1 0-1 1.6-5 .2-.6.3-1.2.3-1.8 0-1-.2-1.9-1-3.7l.3-.5c1.7.1 2.7.5 3.6 1.9 1 1.6 1.1 1.6 1.7 1.6.2 0 .4 0 .5-.1 1.1-1.2 1.1-1.2 1.6-1.5z" fill="#b32"/><path d="M-142 382c0-5-3.1-8.3-9.2-10v-.3c5.4-1.9 8.1-5.1 8.1-9.7 0-3.8-1.9-6.7-5.7-8.6-2.4-1.1-5.2-1.6-8.5-1.6-4 0-7.2 1-9.8 3-2.1 1.7-3.2 3.7-3.2 5.9 0 2.9 1.4 4.3 4.1 4.3 2.6 0 3.8-1.2 3.8-3.5 0-1.7-.9-2.8-2.6-3.4 1.8-2 4.3-3 7.6-3 5.5 0 8.2 2.3 8.2 6.9 0 5.6-3 8.5-9 8.5h-4v3.4h4c6.7 0 10 2.6 10 7.9 0 5.4-3.3 8.1-10 8.1-4 0-6.6-1-7.8-3.1 1.8-.4 2.7-1.5 2.7-3.3 0-2.3-1.2-3.5-3.6-3.5-3 0-4.5 1.5-4.5 4.5 0 2.7 1.4 5 4.3 6.8 2.6 1.5 5.6 2.3 9.2 2.3 4.2 0 7.7-.8 10.4-2.4 3.7-2.1 5.5-5.1 5.5-9.2z" fill="#339"/></g></svg>