<svg xmlns="http://www.w3.org/2000/svg" width="150" height="200" viewBox="0 0 39.7 52.9"><path d="M20.37 9.835c.318.133.61.186.769.186.397 0 .795-.186 2.12-.928l2.306-1.378c-.026-.822-.106-1.087-.451-1.696-.874.238-2.305.503-2.941.503l-.344-.026-.079-.133c.981-.371 2.2-.954 3.233-1.484 1.696-.927 1.802-.98 1.749-1.298a.58.58 0 0 1 .133-.318l.133-.026c.345.106.53.212.716.45.424.477.742 1.087.742 1.457 0 .292-.186.371-.848.424l-1.378.265c.609.371.795.61.795 1.193v.079c.133-.079.239-.132.291-.132.398 0 1.007.583 1.007.954 0 .186-.133.318-.583.504-.291.132-.53.265-1.14.689.265.291.345.503.345.768s0 .265-.239 1.166l-.133.318-.079.265c.239-.106.53-.398 1.378-1.537l.106.133c-.132.662-.768 1.669-1.776 2.782-.053.371-.053.662-.053.822 0 .212 0 .212.159 2.2.053.424.053.795.053 1.06 0 .53-.265 1.166-.503 1.166-.133 0-.398-.292-.556-.61s-.239-.636-.239-1.06c0-.265.026-.61.053-.981.053-.424.053-.715.053-.927l-.026-.503-.636.53-.662.557-.318.291c-.133.133-.239.186-.318.186-.159 0-.186-.053-.344-.451-.291-.768-.291-.768-.291-.98a1.16 1.16 0 0 1 .159-.609c.053-.106.132-.133.53-.318 1.299-.769 2.2-2.252 2.173-3.578l-1.908 1.457c-.61.477-.901.609-1.166.609-.318 0-1.087-.424-1.564-.874a1.5 1.5 0 0 1-.504-1.087zm6.281 5.751c1.802-.345 2.756-1.352 3.392-3.498.371-1.245.583-2.358.742-4.028l.265-3.525c0-.609-.053-.715-.61-.98l-.133-.106c.238-.742.451-1.06.742-1.06.61 0 1.192 1.166 1.192 2.358 0 .238-.026.556-.053.927l-.132 1.749c.901.027 1.298.133 1.855.371.636.291 1.033.822 1.033 1.352 0 .424-.344.689-.822.689-.424 0-.954-.318-1.59-.901-.345-.318-.424-.344-.689-.344l-.451 2.809.556.371c.079.053.398.318.875.716 1.378 1.113 3.339 2.358 4.717 2.968.795.345 1.166.716 1.166 1.14 0 .132 0 .132-1.139.238l-.609-.026-1.113-.053c-.848.079-2.12-1.087-3.763-3.445-.424-.583-.451-.636-.875-.954-.344 1.352-.53 1.802-.901 2.305-.556.769-1.643 1.299-2.65 1.299-.318 0-.556-.053-1.06-.212zm3.71-6.625l-.133.397c-.026.08-.133.318-.318.716-.239.45-.318.689-.662 1.828-.186.609-.398.901-.61.901-.239 0-.636-.981-.636-1.537 0-.265 0-.265.424-1.325a1.5 1.5 0 0 0 .079-.477c0-.265-.053-.503-.265-.98l.079-.133c.451.027.716.133.954.504.265.424.291.424.45.424.053 0 .106 0 .133-.027.291-.318.291-.318.424-.397z" fill="#b32"/><path d="M9.77 10.63c0-1.325-.822-2.2-2.438-2.65v-.079c1.431-.503 2.146-1.352 2.146-2.57 0-1.007-.504-1.775-1.51-2.279-.636-.291-1.378-.424-2.253-.424-1.06 0-1.908.265-2.597.795-.556.451-.848.98-.848 1.563 0 .769.371 1.14 1.087 1.14.689 0 1.007-.318 1.007-.928 0-.45-.239-.742-.689-.901.477-.53 1.14-.795 2.014-.795 1.458 0 2.173.609 2.173 1.828 0 1.484-.795 2.252-2.385 2.252h-1.06v.901h1.06c1.776 0 2.65.689 2.65 2.093 0 1.431-.875 2.147-2.65 2.147-1.06 0-1.749-.265-2.067-.822.477-.106.715-.398.715-.875 0-.609-.318-.927-.954-.927-.795 0-1.193.397-1.193 1.192 0 .716.371 1.325 1.14 1.802.689.398 1.484.61 2.438.61 1.113 0 2.041-.212 2.756-.636.98-.557 1.457-1.352 1.457-2.438z" fill="#339"/><path d="M25.961 31.3l-.398-.106c-.504.292-1.007.557-1.564.795l-1.484.715-1.537.636a8.24 8.24 0 0 1-1.881.424l-2.253.239-2.12.159-1.59.185c-.398.08-.769.239-1.166.424s-.742.397-1.06.583c-.398.238-.742.503-1.087.768l-.053.583 1.166-.715 1.139-.53c.398-.159.822-.292 1.219-.345l1.564-.132 2.04-.159 2.253-.318c.768-.132 1.511-.318 2.199-.556a18.42 18.42 0 0 0 1.934-.795l1.564-.848 1.06-.689c.265-.186.398-.265.424-.265s0 0-.079-.027c-.079.053-.186.027-.291-.026z" fill="#084"/><path d="M37.701 25.205l-1.669 1.828c-.636.716-1.457 1.378-2.465 1.961-.291.185-.636.318-1.007.424s-.716.185-1.06.238l-1.193.106.159-.848.133-.98c.053-.371.053-.795.053-1.272 0-1.245-.265-2.358-.795-3.365a8.73 8.73 0 0 0-2.067-2.544c-.848-.689-1.776-1.246-2.783-1.59-1.007-.371-1.988-.557-2.941-.557l-.265.451.398 1.855-2.518-.689c-.795-.186-1.723-.318-2.782-.477-1.06-.133-2.226-.212-3.472-.212l-3.339.132-2.676.318-2.491.45-.053.53 1.59.795 1.405.928c.504.371.954.768 1.298 1.192l.769 1.06.583.927a10.36 10.36 0 0 1 .477.927l-1.51 1.192-1.272 1.087c-.424.371-.742.742-.98 1.034s-.477.636-.715.98l-.636.98c-.239.345-.45.689-.609 1.007l1.033.45a11.75 11.75 0 0 1-.398 1.14l-.477 1.166c-.186.424-.451.875-.742 1.299-.309.475-.674.911-1.086 1.299a11.94 11.94 0 0 1-1.272 1.113c-.477.397-.98.742-1.484 1.087l.636.185 1.563-.451 1.511-.318c.556-.106 1.086-.132 1.616-.132a10.31 10.31 0 0 1 1.352.079l1.034.132.874.238-.397 1.272 1.166.185 1.299.132c.504.053 1.033.053 1.616.053a11.29 11.29 0 0 0 1.669-.106c.53-.053 1.007-.132 1.405-.238.477-.079.901-.212 1.299-.345l.556 1.431.371 1.405c.106.504.186 1.007.186 1.511s-.079 1.007-.212 1.564a13.47 13.47 0 0 1-.477 1.564l-.689 1.669.477.451 2.915-.795 2.676-.928c.954-.344 1.855-.768 2.677-1.219.821-.424 1.537-.981 2.146-1.643s1.113-1.299 1.537-1.882a14.92 14.92 0 0 0 1.219-2.199l1.484 1.881.742-.318c.371-.371.689-.822.98-1.352.239-.45.451-1.007.689-1.643.212-.636.318-1.404.318-2.305 0-.954-.133-1.828-.398-2.65a10.97 10.97 0 0 0-.98-2.173c-.398-.636-.795-1.166-1.246-1.59s-.848-.716-1.192-.901c.292 0 .61-.027.927-.106l.928-.212c.345-.106.663-.239.954-.398.901-.45 1.617-.98 2.147-1.563l2.465-2.623zm-5.538 8.188c.53.636.981 1.378 1.352 2.252s.556 1.882.556 3.021c0 .822-.079 1.511-.265 2.067s-.344 1.033-.556 1.378c-.238.424-.503.795-.768 1.06l-1.643-2.014-1.616 2.518c-.504.689-1.087 1.378-1.749 2.093-.663.689-1.378 1.246-2.12 1.669s-1.526.79-2.332 1.086l-2.253.742-2.332.583-.133-.265c.159-.424.291-.874.398-1.325l.291-1.298c.079-.477.133-.928.133-1.378s-.053-.981-.186-1.564l-.371-1.696-.53-1.908c-.503.185-1.007.318-1.564.451l-1.537.318c-.583.106-1.113.132-1.67.132-.53 0-1.007 0-1.431-.026l-1.06-.106-.901-.132.398-1.325-1.14-.291-1.166-.186-1.352-.106a9.89 9.89 0 0 0-1.325.08l-1.033.185-.901.238v-.159c.291-.212.583-.451.875-.742l.795-.848.874-1.113c.265-.398.477-.822.663-1.272.185-.424.318-.822.424-1.193.133-.397.239-.822.291-1.219l-.769-.398c.08-.185.185-.397.318-.636l.398-.689c.159-.265.371-.53.61-.848.239-.291.583-.609 1.007-1.007l1.378-1.14 1.749-1.325a12.02 12.02 0 0 0-.477-1.06l-.583-.981-.715-1.06-1.06-1.139-.901-.848c-.291-.238-.583-.45-.874-.636l.026-.265 1.643-.265 2.041-.185 2.835-.08c1.166 0 2.306.08 3.419.265l3.021.61c1.034.238 2.014.53 2.941.848l-.556-2.385.265-.424c.61 0 1.299.186 2.094.557s1.537.874 2.226 1.563c.689.662 1.299 1.484 1.749 2.412.477.954.715 1.987.715 3.127 0 .424-.026.874-.106 1.325l-.239 1.219c-.081.43-.187.855-.318 1.272.344.185.795.503 1.351.901a8.49 8.49 0 0 1 1.696 1.563z" fill="#d71"/></svg>