<svg xmlns="http://www.w3.org/2000/svg" width="150" height="200" viewBox="0 0 39.7 52.9"><g transform="matrix(.265 0 0 .265 46.8 -90.6)"><path d="M-102 382c1.2.5 2.3.7 2.9.7 1.5 0 3-.7 8-3.5 6.4-3.6 6.4-3.6 8.7-5.2-.1-3.1-.4-4.1-1.7-6.4-3.3.9-8.7 1.9-11.1 1.9l-1.3-.1-.3-.5c3.7-1.4 8.3-3.6 12.2-5.6 6.4-3.5 6.8-3.7 6.6-4.9.1-.6.2-.8.5-1.2l.5-.1c1.3.4 2 .8 2.7 1.7 1.6 1.8 2.8 4.1 2.8 5.5 0 1.1-.7 1.4-3.2 1.6-.7.1-2.4.4-5.2 1 2.3 1.4 3 2.3 3 4.5v.3c.5-.3.9-.5 1.1-.5 1.5 0 3.8 2.2 3.8 3.6 0 .7-.5 1.2-2.2 1.9-1.1.5-2 1-4.3 2.6 1 1.1 1.3 1.9 1.3 2.9s0 1-.9 4.4l-.5 1.2-.3 1c.9-.4 2-1.5 5.2-5.8l.4.5c-.5 2.5-2.9 6.3-6.7 10.5-.2 1.4-.2 2.5-.2 3.1 0 .8 0 .8.6 8.3.2 1.6.2 3 .2 4 0 2-1 4.4-1.9 4.4-.5 0-1.5-1.1-2.1-2.3s-.9-2.4-.9-4c0-1 .1-2.3.2-3.7.2-1.6.2-2.7.2-3.5l-.1-1.9-2.4 2c-1.4 1.1-2.3 1.9-2.5 2.1l-1.2 1.1c-.5.5-.9.7-1.2.7-.6 0-.7-.2-1.3-1.7-1.1-2.9-1.1-2.9-1.1-3.7a4.38 4.38 0 0 1 .6-2.3c.2-.4.5-.5 2-1.2 4.9-2.9 8.3-8.5 8.2-13.5-2.1 1.7-2.1 1.7-7.2 5.5-2.3 1.8-3.4 2.3-4.4 2.3-1.2 0-4.1-1.6-5.9-3.3-1.3-1.3-1.7-2.2-1.9-4.1zm23.7 21.7c6.8-1.3 10.4-5.1 12.8-13.2 1.4-4.7 2.2-8.9 2.8-15.2.5-4.6 1-11.6 1-13.3 0-2.3-.2-2.7-2.3-3.7l-.5-.4c.9-2.8 1.7-4 2.8-4 2.3 0 4.5 4.4 4.5 8.9 0 .9-.1 2.1-.2 3.5-.3 3-.4 4.2-.5 6.6 3.4.1 4.9.5 7 1.4 2.4 1.1 3.9 3.1 3.9 5.1 0 1.6-1.3 2.6-3.1 2.6-1.6 0-3.6-1.2-6-3.4-1.3-1.2-1.6-1.3-2.6-1.3-.5 4-.8 6.2-1.7 10.6l2.1 1.4c.3.2 1.5 1.2 3.3 2.7 5.2 4.2 12.6 8.9 17.8 11.2 3 1.3 4.4 2.7 4.4 4.3 0 .5 0 .5-4.3.9l-2.3-.1-4.2-.2c-3.2.3-8-4.1-14.2-13-1.6-2.2-1.7-2.4-3.3-3.6-1.3 5.1-2 6.8-3.4 8.7-2.1 2.9-6.2 4.9-10 4.9-1.2 0-2.1-.2-4-.8zm14-25c-.2.7-.4 1.2-.5 1.5s-.5 1.2-1.2 2.7c-.9 1.7-1.2 2.6-2.5 6.9-.7 2.3-1.5 3.4-2.3 3.4-.9 0-2.4-3.7-2.4-5.8 0-1 0-1 1.6-5 .2-.6.3-1.2.3-1.8 0-1-.2-1.9-1-3.7l.3-.5c1.7.1 2.7.5 3.6 1.9 1 1.6 1.1 1.6 1.7 1.6.2 0 .4 0 .5-.1 1.1-1.2 1.1-1.2 1.6-1.5z" fill="#b32"/><path d="M-142 382c0-5-3.1-8.3-9.2-10v-.3c5.4-1.9 8.1-5.1 8.1-9.7 0-3.8-1.9-6.7-5.7-8.6-2.4-1.1-5.2-1.6-8.5-1.6-4 0-7.2 1-9.8 3-2.1 1.7-3.2 3.7-3.2 5.9 0 2.9 1.4 4.3 4.1 4.3 2.6 0 3.8-1.2 3.8-3.5 0-1.7-.9-2.8-2.6-3.4 1.8-2 4.3-3 7.6-3 5.5 0 8.2 2.3 8.2 6.9 0 5.6-3 8.5-9 8.5h-4v3.4h4c6.7 0 10 2.6 10 7.9 0 5.4-3.3 8.1-10 8.1-4 0-6.6-1-7.8-3.1 1.8-.4 2.7-1.5 2.7-3.3 0-2.3-1.2-3.5-3.6-3.5-3 0-4.5 1.5-4.5 4.5 0 2.7 1.4 5 4.3 6.8 2.6 1.5 5.6 2.3 9.2 2.3 4.2 0 7.7-.8 10.4-2.4 3.7-2.1 5.5-5.1 5.5-9.2z" fill="#339"/><g fill="#084"><path d="M-161 443c-.3.5-.9 1.1-1.7 1.8-.2.2-.5.4-.9.7-.5.3-.8.6-1 .9-2.7 2.4-4.5 6-5.4 10.6l-.1 1.1c-.4 4.5 1.1 7.6 4.5 9.3.8.3 1.5.5 2.1.5s.9-.1 1.1-.2.3-.4.5-.7.3-.8.3-1.4c.1-.6.2-1.1.4-1.6l1.9-11.1c.7-3.2 1.3-5.5 1.8-7 1.1-2.7 2.2-4.5 3.1-5.4 3.3-2.3 7.4-3.4 12.5-3.4 2 0 4.6.5 7.7 1.4h-1.3c-8 0-13.3 2.4-16.1 7.3-.5.8-1 1.8-1.6 3.2 0 .2-.1.6-.3 1.5-.2.8-.2 1.4-.3 1.7l-.1.9.6 2.9c.3 1.2.7 2.1 1.3 2.7 1.4.8 2.3 1.1 2.7 1.1h.2c2.2 0 3.6-.9 4.2-2.7.3-.5.6-1.3.7-2.5l.2-1.8c.6-1.4 1.4-2.8 2.4-4.3 2.1-3.8 4.6-6.6 7.6-8.6.1 0 .4-.1.9-.5.5-.3.8-.5.9-.5.4 0 1 .2 1.6.7s1 .7 1.1.7c5.4 3 9.9 6.9 13.6 11.6-2.3-5.7-5.4-9.9-9.2-12.5-.1-.3-.4-.6-.9-.9s-.8-.5-.9-.7l-.5-3.6.2-2c.1-.9 0-1.7-.2-2.3v-1.8c.3-3.3.4-5.7.2-7 0-.1-.1-.5-.2-1-.2-.5-.3-.9-.4-1.2l-.5-1.8c-.5-.6-1.4-.9-2.7-.9-1.7 0-3.2.5-4.3 1.6-.7 1.2-1.1 2.3-1.2 3.4l-.1.7c-.3 3.3.4 6 2 8.2.3.2.6.3 1 .6.4.2.7.5.9.7s.4.6.6 1 .2.8.2 1 .1.6.4 1.1.5.9.4 1v.5a1.04 1.04 0 0 1-1-.7c-3.4-1.2-6.1-1.8-8.1-1.8-.3 0-.7 0-1.3.1s-1 .1-1.2.1-.5-.1-.7-.2h-.4c-.1-.3-.4-.8-.7-1.4l-.4-.5c-.7-1.7-.9-3.9-.6-6.8.1-1.1.3-1.7.6-2 0-.5.3-1.2.9-2.3.5-1.1 1-2 1.4-2.7.2-1.8-.3-3.3-1.3-4.5-.8-.5-1.8-.7-3-.7-.1 0-.6.2-1.4.7-.4.2-1 .2-1.8.2-.8.5-1.5 1.3-2.2 2.5-.7 1.4-1.2 3.2-1.4 5.4-.1 1.2-.1 2.1 0 2.7l1.2 3.2c1.7 3 3.7 5.1 5.9 6.3-2.4.5-4.1 1-5.1 1.6l-.5.2c-.5.3-.8.5-.9.5l-.8-.7c-.4-.1-.8-.4-1-.7-.3 0-.6-.1-1.1-.3-.4-.2-.8-.4-1-.6-4.6-1.4-7-2-7.2-2-.4 0-.8 0-1.2.1s-.6.1-.8.1c-2.3 1.2-4.1 2.9-5.5 5.2v.2c.4 1.5 1.1 2.6 2.1 3.2.3.2.9.2 1.9.2 1.2 0 2-.1 2.6-.2.8-.3 1.9-.7 3.4-1.1 1.5-.5 2.5-.8 3.2-1.1.5-.3 1.1-.5 1.8-.5h.2c-.2.2-.3.2-.5.2-.3 0-1.6 1.7-4 5.1zm23.1 44.5c-1.4 1.1-2.2 2.6-2.4 4.5-.1.9 0 1.6.2 2 .8.8 1.9 1.1 3.4 1.1h.7c.4 0 1-.1 1.7-.5.7-.3 1.3-.5 1.9-.5.3 0 .8.2 1.6.6s1.2.6 1.4.6c1.2 0 2.2-.1 3.1-.5.8-.3 1.2-1 1.3-2 .1-.6-.2-1.4-.9-2.3-.3 0-.4-.2-.4-.7s0-.8-.1-.9c-.5-.6-1.1-1.1-1.8-1.6-1.5-.6-2.8-.9-3.8-.9h-1.3c-1.9.2-3.4.5-4.6 1.1z"/><path d="M-121 388c0-.3.1-.8.2-1.4s.3-1 .6-1.1c1.4-8.6 5.1-16.2 10.9-22.7 1.4-1.7 2.2-2.5 2.6-2.5s.7.2.9.7c.9.6 2.1.9 3.4.9.5 0 1.2-.1 2.1-.5.9-.3 1.5-.5 1.9-.5s1.1 0 2.2-.1 1.9-.3 2.4-.6c.5 0 1.2-.3 2.3-.9.9-.9 1.4-1.9 1.5-2.9l-.4-1.8c-.1-.3-.2-.6-.2-1v-.8c-.5 0-.9-.2-1.2-.7-1.1-.6-2.3-.9-3.8-.9h-2.8c-3.6.5-6.4 1.8-8.4 4.1l-1.6 1.8c-.5.6-1.4 1.5-2.5 2.7l-2.7 2.9c-5.2 6.8-8.6 14-10.1 21.8l-.4 2.5-1.2-.7c-1.5-.8-2.8-1.1-3.8-1.1-.2 0-.6 0-1.1.1s-.8.1-.9.1c-3.7.8-6.5 3.2-8.3 7.3l-.4.9c-.2.6-.3 1.1-.3 1.4-.2 2.3.7 3.9 2.5 4.8.3.3.9.5 1.6.5 1.2 0 2.7-.4 4.4-1.2l3.3-1.5c.5-.6 1.4-.9 2.6-.9l-.3 3.6c-.3 3.6-.2 6.7.3 9.3.2.5.4 1.1.7 1.9.2.8.4 1.3.5 1.5l9.1 22.9c2.5 5.3 4.7 9.1 6.6 11.3 3.5 4.5 6.7 7.3 9.6 8.4-2.2-1.8-5.3-6.4-9.3-13.8-2.5-5.3-4.3-9.4-5.4-12.2-.3-.5-.6-1.2-.9-2.2s-.5-1.7-.7-2.2c0-.1-.2-.6-.5-1.4-.4-.8-.7-1.3-.9-1.6-.8-1.7-1.7-3.9-2.6-6.6-.9-1.2-1.3-2.3-1.2-3.2 0-.3.3-.9 1-1.7.6-.8 1.1-1.5 1.4-2.2.1 0 .2-.2.2-.6s.1-.6.2-.8l.7.5.5.5h.6c.5 0 1.2-.2 2.1-.7.2 0 .6-.2 1-.6s.7-.6 1-.6l2-1.4c2.4-2.3 3.8-5.8 4.2-10.6l.1-1.8c.2-2-.4-3.6-1.8-5-1-.3-1.8-.5-2.5-.5h-.4c-1 0-1.8.4-2.5 1.1-.4.5-.6 1-.7 1.6 0 .2-.2.5-.6.9-.1.2-.2.3-.2.6 0 .2-.3 1.4-.7 3.4-.5 2-.9 3.4-1.4 4.2-.2.5-.6 1.1-1.4 1.9s-1.3 1.4-1.6 1.7c-.7.9-1.1 1.9-1.2 2.9 0 .2.1.3.2.6.2.2.2.4.2.6-.9 1.1-1.5 1.6-1.6 1.6l.1-1.4c-.3-2.4-.3-4.8-.2-7-.2-.1-.3-.7-.2-1.7s.2-1.5.5-1.5c0 .2.3.2.9.2.5 0 .8-.3.8-.9.1-.9-.1-2.1-.6-3.6 0-.6-.1-1.2-.6-1.8 0-.3.1-.7.2-1.2-.1-.4 0-.8 0-1.1zm-46.1 132l2.2-3.5c2.1-3.1 4.4-4.8 6.7-5.1h-1.3c-1.9 0-3.8.6-5.9 1.9-2.7 1.6-4.4 3.6-5.1 6l-.1.9c-.1 1.2-.1 2.7.1 4.6.8 3.8 2.9 5.6 6.2 5.6h.4c-2.6 0-3.9-2.1-3.8-6.2v-1.1c0-.6 0-1.2.1-1.7 0-.1.1-.4.2-.7.2-.3.3-.6.3-.7zm133-62.3c-.3-1-.5-1.7-.4-2.2-.3-.3-.4-.8-.3-1.4l.2-1.6c-.2-.9-.7-1.8-1.5-2.7-1.4-.9-2.3-1.4-2.9-1.4-1.7 0-3.2.6-4.5 1.8a5.77 5.77 0 0 1-.8 1c-.3.4-.6.6-.9.8-.7.8-1.2 1.5-1.5 2.3-1.1 2-1.8 5.4-2.3 10.4 0 .3-.3.8-.7 1.5s-.7 1.1-.9 1.2c-.3.5-.5 1.1-.6 1.8 0 .2.1.7.3 1.6l.1 1.1-1.2.7c-.6.5-1.1.8-1.4.9-2.2 1.3-6.3 4.1-12.4 8.6-5.6 4.4-7.8 6.4-13.6 11.1v.1l-4.3 4.3c-.3.3-1.8 2-4.4 5-3.3 3.9-5.7 7.8-7.2 11.6-.1 1.1-.2 1.6-.4 1.6-.6-.1-.9-.2-1.1-.2l-1.5-2c-.7-.3-1-.9-.9-1.8v-.2c.1-.6 1.1-2.4 3.1-5.4 1.2-1.7 2-3.4 2.5-5.2.1-1.5 0-2.3-.4-2.3-.1 0-.5.2-1.1.5l-.9.5-1.9 1.6c-.6.5-1.3 1.1-2 2s-1.3 1.4-1.6 1.6c-.7 0-1.5.5-2.3 1.6-.3 0-.4-.2-.4-.7l-.2-.5-.5-1.6c-2-4.5-7.1-6.9-15.4-7.3h-2c-5.2 0-9.8 1.7-13.8 5.2 4-2 7.8-2.9 11.6-2.9h2.6c2 0 5.3 1 9.9 2.9 3.3 1.4 5.5 2.4 6.4 3.2.8.6 1.2 1.2 1.1 1.8 0 .5-.2.7-.5.7-1.2 1.5-1.9 3.6-2.1 6.3l-.1.9c-.1 1.4.1 2.6.8 3.6.7 1.1 1 1.7 1 2 .1.3.1 1 0 2 0 .3-.1.8-.3 1.6-.1.8-.2 1.4-.3 1.8-.1.8-.1 1.4 0 1.8.3 2.4 1.9 4.1 4.7 5 .4.1 1.1.2 1.9.2 1.3 0 3-.6 5.2-1.8 1.5-.8 2.6-1.6 3.3-2.5 1-1.1 1.6-2.3 1.9-3.9l.1-.9c-.1-.5-.1-.8-.1-.9.1 0 .2.1.2.2l.8 2.5c.3.1 1 .6 2.3 1.4.7 0 1.1.1 1.3.5.3 0 .5 0 .6.1s.3.1.6.1c1.4 0 3-.8 4.8-2.5 1.8-2 2.8-4.1 3-6.3.1-1.1 0-1.7-.2-2-.7-2-1.7-3.1-3.1-3.4-.3 0-.9-.1-1.7-.3s-1.5-.3-1.9-.3a13.8 13.8 0 0 1-5.4-2.7c-1.6-1.1-2.4-1.7-2.4-1.9s.1-.4.3-.6c.5-.5.7-.8.7-.9 4.2-5.7 10.3-11.9 18.5-18.4.8-.8 6.3-4.9 16.4-12.5.3-.5.9-1 1.8-1.6s1.6-1.1 2.1-1.5 1.1-.7 1.7-.9 3.4-.6 8.4-1.2c1.8-.6 2.8-1 2.9-1.1l1.8-2.7.1-1.4c0-.1.2-.5.4-.9.3-.5.4-.8.4-1.1.4-.9.6-1.8.7-2.7.2-.9.1-1.7-.2-2.7zM-89.3 509c.5.6.7 1.4.6 2.3l-.3 2.9c-.2 2.4-.3 4.5-.2 6.1-.5-1.2-2.2-2.5-5.3-3.9v-.5l.6-1.8c1.2-2.4 2.3-4.5 3.2-6.1.5.1.9.4 1.4 1zm23-29.4c.3-.3 1.7-.2 2.9-1.1 1.1-1 1.9-1.9 2.2-2.8l.1-1.1c0-.1.3-.5.8-1.1s.8-1.1.8-1.4c.5-.5 1.1-1.3 2-2.5 1.1-.9 1.7-1.5 1.7-1.8-.3-1.2-.8-2-1.5-2.3-1.1-.5-2-.7-2.5-.7-1 0-2.1.2-3.3.7-.7 0-1.6.5-2.7 1.4-1.6 1.7-2.5 3.7-2.8 6.1l.5 3.6-.1 1.4c.2.5.5 1 .8 1.5z"/></g><path d="M-57.4 446c-.2-.5-1.7-1.4-4.5-2.9-3.7-2.4-6.1-4.7-7.2-6.8l-.9-2c-.2-.5-.6-1-1.1-1.6s-.8-1.2-.9-1.8c-.4-1.8-.6-3.2-.5-4.3 0-.1.1-.5.2-1s.2-.9.2-1.2c.1-.9-.2-1.8-.8-2.7 0-.1-.5-.5-1.4-.9-.7-.3-1.3-.5-1.7-.5-.9 0-1.9.3-3.1.9-1.9 1.2-4.2 3.6-7 7-1.2 1.5-2 2.3-2.6 2.3-.4 0-1-.5-1.8-1.4l-3.1-4.3c-.1-.3-.4-.8-.7-1.4-.1-.6-.3-1-.5-1.1-1.4-.8-2.5-1.1-3.4-1.1-1.4 0-2.2.4-2.3 1.1-.4.2-1 1.1-1.8 2.7-.4 1.1-.7 2.8-.9 5.2-.6 5.9.1 10.3 2 13.4 1 1.2 1.8 2 2.4 2.3v-.5h.4c.5 1.1.8 1.6.9 1.6-1.5-2.4-2-6.2-1.5-11.3.1-.8.2-1.7.4-2.9s.3-2.3.4-3.2c.2-1.8.4-2.7.7-2.7.2.6.8 1.4 1.7 2.5l2.1 2.5c.7 0 1 .5.9 1.6 0 .2-.2.2-.7.2l-.5.2-1.9 1.8c-.6.6-1 1.5-1.1 2.7-.1.8.1 2.3.6 4.8 1.7 2 2.5 3.1 2.5 3.4.4 1.4.6 3.2.3 5.7 0 .5-.2 1.3-.4 2.5l-.4 2.5c-.7 3.2-1.3 5.3-1.7 6.3-1.5 3-2.8 4.5-3.9 4.5l.2-1.8c0-3-1.4-5.4-4.1-7-.1-.1-.4-.3-.9-.6-.5-.2-.8-.3-.9-.3h-1.7c-.7 0-1.5 0-2.3.1s-1.7.3-2.6.6-1.5.5-1.8.5c-5.5 2-9.7 5.1-12.4 9.5-1.4 2.9-2.2 4.5-2.2 5-.4.8-.6 1.7-.7 2.9-.3 2.9 0 5.7.9 8.6 2.2 5.9 6.2 9.4 12 10.4 1 .2 2.5.2 4.5.2 3.5 0 6.2-.5 8.2-1.4.3 0 .7-.2 1.2-.7s.9-.7 1.2-.7c2.5-1.7 4-3.5 4.5-5.7l.1-1.1c.3 0 .4.2.4.5 2.1 3.5 5.5 5.6 10.2 6.3.4 0 .9 0 1.3.1s1.7-.1 1.7-.1c6.4-.7 9.6-3 11.6-7.3.8-1.7.6-4 .5-5.6l-.1-.6c-.7-2.3-1.8-4.3-2-4.5-1.5-2.7-4.9-4.3-10.2-4.8 2 .6 3.5 1.4 4.5 2.5 1.7 2.1 2.4 4.4 2.2 6.8-.2 2.3-1.1 3.6-2.5 3.9-1.2.6-2.6.9-4 .9-3.3 0-6.5-1.1-9.5-3.2l-2-1.4c-.7-.6-1-2.8-1.1-6.6l.2-2h-.2c-.3.3-.6.6-.8 1s-.4.7-.6 1-.5.5-.7.5h-.8l-.8-.2h-.7c-.4 0-.8.2-1.2.7v.2c-.1 1.1.3 1.6 1.1 1.6l.7-.5h1.1l-.4 3.6.3 1.1c-.9.2-1.4.2-1.5.2-1.8.8-2.8 1.7-2.9 2.9-.1.6.2 1.2.7 1.8l.8.9c0 .5-.4.7-1.2.7-.9.5-2 .7-3.3.7l-1.2.7c-.6.3-1.1.6-1.6.9-.2.2-.5.2-.9.2-.8.5-1.8.7-3.1.7l-.6-.5h-.9c-1.3 0-1.9-.3-1.9-.9l1.2-1.4 1.6 1.8c.1.2.4.2.8.2s1.1-.5 2.1-1.6l1.5-2.5v-.2c.1-1.2-.7-1.8-2.4-1.8-1.2 0-2.1.5-2.8 1.6-.9-1.1-1.9-1.6-2.9-1.6-1.3 0-2.2.1-2.6.2-.1 0-.4.2-.7.7s-.6.7-.7.7l-.2-.7c-.3-.1-.5-.5-.6-.9-.1-.5-.1-.8-.1-.9-.5-.6-.8-1.2-.7-1.8-.4-.5-.6-1-.5-1.6 0-.5.2-.8.5-.9s.7-.4 1.2-.7h.4c1.1-.9 1.7-1.7 1.7-2.3v-.7c.3.8 1 1.2 2.1 1.2.9 0 2-.7 3.5-2l1.8-.9a3.84 3.84 0 0 0 1.1-2.3c0-.3-.2-.7-.5-1.1-.5-1.2-1.1-1.8-2-1.8-2.3 0-4 .8-5 2.5-.6.6-1 1.5-1.1 2.7v1c-.2-.5-.5-1-1-1.4l-.8-.2.5-.7c.2-.3.3-.6.3-.9.2-.1.4-.5.9-1.1.4-.6.8-1.1 1.1-1.5a4.74 4.74 0 0 1 1-1c2-1.1 3.8-1.6 5.6-1.6h1.7c.7 0 1.4 0 2-.1s.9-.3.9-.8c0-.1-.8-.8-2.4-1.8h-1.3c0-.3.8-.5 2.2-.5h.9c2.5 0 4.6 1 6.4 2.9 1 1.2 1.5 2.3 1.4 3.2-.3.3-.9.6-1.6.9-.8.3-1.1.6-1.2.9 4.4-.6 7.5-2 9.3-4.3.7-.9 1.3-2.6 1.8-5 .7-1.4 1.3-3.2 1.8-5.4.6-6.3.7-10.4.3-12.2-.3-.1-.6-.5-1-1.1s-.7-1.1-.9-1.6l-.2-.7.1-1.1c0-.5.8-1.1 2.1-1.8.3 0 .6-.2 1-.7s.7-.7.8-.7c1.1-.6 3.6-2.8 7.6-6.6.1-.9.6-1.4 1.4-1.4h.2c.7 5 1.6 8.4 2.7 10.2 1.6 2.9 4.6 5.9 9.1 9.1 2.2 1.7 3.2 2.6 3.2 2.7 0 .5-.6 1.2-1.5 2.3-2.4 2.3-4.5 3.9-6.3 4.8l-1.8.9c-3.2 1.2-5 4.3-5.5 9.3-.1 1.1-.1 1.6.1 1.6l1.7-1.4c.8-.6 2.1-1.3 4-2.2 1.9-.8 3.3-1.4 4.2-1.7 3.7-1.8 6.1-3.4 7.4-4.8.4-.8.9-1.4 1.5-2 .3-.1.6-.5 1-1 .3-.5.6-.9.8-1 .6-1.4.9-2.4 1-3.2.5-1.6.3-3.3-.4-5z" fill="#b27"/><path d="M-157 507c-.2 2.6-.1 4.7.5 6.3.2.5.8 1.2 1.5 2.3.3.2 1.1.2 2.4.2h2.6c.1 0 .5 0 1-.1s1-.1 1.4-.1c.1 0 .3.2.6.5l.6.5c.9.9 1.4 1.6 1.5 2l.9 2c.8.9 1.5 1.6 2.2 2 .5.3 1.4.5 2.6.5 1.6 0 5.2-1.4 10.8-4.3 5.6-3 9.4-4.8 11.2-5.4.8-.5 2.6-1.1 5.6-1.8l.7-.2a.82.82 0 0 1-.8-.5c-2-.6-4.3-.9-6.9-.9-4.1 0-7.2.8-9.6 2.3l-1.4 1.1c-.3-.1-.4-.3-.4-.6a1.08 1.08 0 0 1 .3-.7c.2-.2.3-.4.3-.6.1-1.1-.3-2.4-1.3-4.1l-1.6-1.8c-.6-.3-1.4-.7-2.5-1.1h-1.5c-.6 0-.9-.1-1.1-.2-.1 0-.4-.1-.6-.3-.3-.2-.5-.5-.7-.7s-.4-.3-.6-.3-.5 0-.9-.1-.7-.1-1.1-.2-.7-.3-.9-.6c-.6 0-1.2-.4-1.8-1.1-.1-.3-.3-.8-.5-1.5s-.5-1.1-.7-1.2c-.2-1.2-.5-2.1-1-2.7-.7-.5-2.2-.7-4.5-.7-1.2.2-3.2.7-6 1.6-2.3.3-4 1-5 2-.3 0-.6.2-.9.6s-.6.7-.8 1l-1.8.9c-1.2.8-2.4 1.7-3.5 2.7l-1 1.8c.3-.1.5-.2.7-.2 2-1.7 5.1-2.5 9.1-2.5h1.5l1.6.9c.2.5.3.9.3 1.2 0 .4-.1.8-.2 1.1a1.93 1.93 0 0 0-.3 1zm37-59.3c-.8-.5-2.1-.7-3.8-.7-3.3 0-6.7 1.5-10.2 4.5-3.8 3.8-5.9 6.9-6.1 9.5-.1 1.2.1 2.1.6 2.7.1.6 1 1.4 2.6 2.3.7.3 1.3.5 1.9.5 1 0 1.9-.4 2.7-1.1.5-.5 1.6-1.9 3.2-4.3.3-.5.8-1 1.5-1.6.6-.6 1-1 1-1.1.4-1.2.7-2.4.8-3.6V452c.3-2.6 2.3-4 5.8-4.3z" fill="#084"/><path d="M-112 476c-.9.2-1.7.8-2.3 1.8l-.5 1.1c0 .2-.2.5-.5.9-.1.9.4 1.4 1.6 1.4s2.1-.3 2.7-.9c.3 0 .4-.1.5-.5l.3-.7.2-.2.5-.2.3-.7.1-.7c.1-.9-.7-1.4-2.3-1.4h-.6z" fill="#b27"/><path d="M-72.3 508c.9-.1 1.6-.7 2.1-1.6.8-1.8 1.1-2.9 1.2-3.2.1-.6-.4-1.4-1.3-2.5-.6-.9-1.4-1.4-2.3-1.4h-3.3l-6.5 1.6.4.2c1.5.5 2.5 1.5 2.9 3.2.1.2.4.7.7 1.6s.6 1.5.9 1.8c1.5.8 2.4 1.1 2.5 1.1.4 0 .9-.1 1.5-.5.7-.1 1.1-.3 1.2-.3z" fill="#084"/><path d="M-119 478c-1.8.2-2.7 1-2.8 2.5-.1.6 0 1 .3 1.1-.1.6.4.9 1.4.9 1.4 0 2.7-.5 3.6-1.6.3-.1.5-.5.5-1.1.1-1.2-.6-1.8-2.2-1.8z" fill="#b27"/><path d="M-44.2 484c1 .5 1.8.9 2.4 1 .3 0 .7.1 1.3.2.6.2 1.1.2 1.5.2 2.2 0 4-.5 5.6-1.4.3-.1.6-.6.8-1.2l.4-1.5.1-.9c.1-.6 0-1.1-.1-1.6-.4-2-1.2-3.3-2.4-4.1-.6 0-1.3-.2-2.1-.7-.1 0-.5-.1-.9-.5-.5-.3-.8-.5-.9-.5h-1.1c-1.4 0-2.5.1-3.1.2-1 .3-4.2 1.7-9.5 4.3-2.4 1.2-5.3 3-8.6 5.4.1 0 .7 0 1.5-.1.9-.1 1.5-.1 2-.1.7-.1 1.9-.2 3.5-.2 3.6 0 6.1.1 7.4.2.3.5 1.1.8 2.2 1.3zm-22.1 14.9c.8 1.1 1.5 1.7 2.1 2 1.1.9 2.8 1.4 5.3 1.4 1.2 0 2-.1 2.4-.2 1 0 1.9-.5 2.7-1.4.6-.6 1-1.6 1.2-2.9.1-.6 0-1.2 0-1.8-.9-1.7-1.9-2.5-3.2-2.5-.4 0-1 .1-1.8.2-.7.2-1.3.2-1.8.2-.6-.1-1.2-.4-1.8-.7s-1.2-.5-1.6-.5c-1-.1-2.7-.2-5-.2-.3.2-.8.2-1.5.2s-1.2.1-1.5.2l-2.5 1.4c0 .5.8.2.8.2 1.7.5 3.1 1.3 4.3 2.5.4.2 1 .8 1.9 1.9z" fill="#084"/><path d="M-106 480l-.7.2c-.8.9-1.3 2.3-1.5 4.3-.1 1.2.5 1.8 2 1.8.6 0 1-.1 1.3-.2.1-.6.4-.9 1-.9.2-.3.3-.6.3-.9l.1-.7c0-.1.2-.4.5-.7s.5-.6.5-.9l.1-.9c.1-.8-.1-1.4-.5-1.8-1.4 0-2.4.1-2.8.2-.2 0-.3.2-.3.5zm4.3-6.4c.1-1.4-.6-2-2.2-2-.1 0-.3.1-.6.2-.2.2-.4.2-.6.2-1.2.6-1.9 1.5-2 2.7s.5 1.8 1.8 1.8c2.2 0 3.3-.9 3.5-2.7z" fill="#b27"/></g></svg>