<svg xmlns="http://www.w3.org/2000/svg" width="150" height="200" viewBox="0 0 39.7 52.9"><path d="M26.1 34.415c.133-3.948-.318-8.931-1.404-14.973-.106 6.943-.397 12.694-.821 17.252-.504 5.009-1.511 9.778-3.021 14.283h2.862c1.484-5.671 2.279-11.209 2.385-16.562z" fill="#084"/><path d="M13.38 50.845h1.564c.477-10.043.954-16.377 1.457-19.001s.901-4.505 1.193-5.697c.265-1.192-.079-1.934-1.06-2.252 0-1.352-1.776-2.465-5.3-3.312-.185-.61-.371-1.193-.61-1.749-.583.265-1.087.556-1.511.927l-2.332-1.987c-.689.927-1.113 1.935-1.272 3.021-1.696.318-2.889.715-3.578 1.192.504 1.404 1.245 2.385 2.173 2.995-.61.927-.928 2.305-.928 4.108 1.378.026 2.517-.053 3.419-.212.477 1.033 1.431 1.935 2.889 2.73.212-.98.53-1.908.928-2.782.742.477 1.245.689 1.51.689-.026-.689-.08-1.378-.133-2.12.822-.212 1.882-.636 3.18-1.245.981-.822 1.246-.557.822.795-1.378 4.32-2.173 12.269-2.411 23.903zM9.935 27.578c-.424.901-.742 1.802-.928 2.677-.768-.371-1.404-1.113-1.987-2.2a12.33 12.33 0 0 1-2.915.344c0-1.404.398-2.57 1.166-3.498-1.404-1.06-2.093-1.908-2.093-2.571a9.54 9.54 0 0 1 2.995-.662c.318-1.087.61-1.908.875-2.465l2.067 1.855.928-.583c.159.344.239.98.239 1.855-.848-.318-1.643-.477-2.332-.477-1.087 0-1.643.848-1.643 2.491 0 1.828.663 2.73 1.988 2.73.556 0 1.351-.185 2.332-.583.106.371.212.875.291 1.537zm-.822-3.207c-.026 1.431-.318 2.147-.927 2.147-.689 0-1.06-.716-1.06-2.147 0-1.272.318-1.935.928-1.935.715 0 1.06.663 1.06 1.935zm2.465 2.04c0-.477-.159-1.272-.477-2.332.159-.927.239-1.669.239-2.2 2.491.609 3.736 1.272 3.736 1.987-.026.583-1.193 1.431-3.498 2.544zm-8.666 14.76l1.776-.636c.371.556.954 1.272 1.775 2.12.504.556 1.245.768 2.2.662.689.556 1.193 1.458 1.511 2.73.398 1.643.689 3.233.901 4.77h1.378c-.61-4.558-1.563-7.287-2.862-8.162.53-.768.769-2.173.689-4.187a11.8 11.8 0 0 0 1.351-.874 4.18 4.18 0 0 0-1.139-.927l1.139-2.279c-.954-.291-1.908-.371-2.862-.238-.663-1.193-1.272-2.014-1.828-2.438-1.06.715-1.723 1.51-2.014 2.385-.927-.265-2.146-.159-3.657.265.291 1.06.61 1.935.928 2.57-.769.609-1.298 1.563-1.643 2.862.874-.08 1.722-.08 2.57.026-.185.689-.265 1.139-.212 1.352zm5.538 1.007c-.503.132-1.484-.53-2.968-2.041.424-.132 1.06-.424 1.855-.901.822-.106 1.484-.238 1.935-.371.053 2.041-.212 3.154-.821 3.313zm-3.842-4.558c-.159-.53.371-.981 1.563-1.352 1.087-.318 1.696-.212 1.855.265.133.53-.318.954-1.405 1.246-1.193.344-1.881.292-2.014-.159zm-2.942 1.51c.133-.689.61-1.378 1.405-2.067-.424-.689-.742-1.404-.954-2.12 1.193-.344 2.253-.344 3.233.027.556-1.325 1.113-2.067 1.67-2.2.53.689.954 1.378 1.245 2.12.769-.001 1.538.017 2.305.053l-1.113 2.04.689.583c-.265.186-.769.397-1.511.636.053-.742 0-1.378-.133-1.882-.238-.822-1.06-1.06-2.465-.662-1.537.477-2.146 1.192-1.855 2.173.133.424.477.981 1.06 1.669-.291.159-.715.345-1.245.557l.212-.848c-.954-.132-1.776-.159-2.544-.079z" fill="#d71"/><path d="M21.039 46.34c1.245-4.85 2.04-9.248 2.385-13.197.345-5.459-.239-10.918-1.749-16.43.265 7.791.079 14.098-.609 18.868-.556 3.604-1.378 7.393-2.438 11.448.079-.424.239-1.59.477-3.498s.556-4.001.98-6.307.716-5.035.848-8.215c.265-5.114-.928-9.964-3.578-14.548 1.457 5.592 1.669 12.005.609 19.213-.715 4.16-1.351 9.937-1.881 17.252h3.896c.186-1.113.556-2.65 1.06-4.584z" fill="#084"/><path d="M39.085 33.355c-.291-1.563-.848-2.703-1.643-3.418.398-.769.769-1.775 1.139-3.021-1.643-.53-2.968-.636-4.001-.344-.265-1.034-.954-1.961-2.067-2.835-.662.503-1.378 1.484-2.12 2.915-1.033-.185-2.067-.079-3.127.265l1.139 2.703c-.477.265-.901.636-1.272 1.113.424.371.901.715 1.431 1.06-.186 2.385-.053 4.001.371 4.796-1.696 1.404-2.968 6.201-3.869 14.416h1.511c.239-3.154.822-6.572 1.749-10.256.424-1.617 1.007-2.677 1.776-3.233 1.06.106 1.855-.133 2.438-.795.927-1.007 1.616-1.855 2.04-2.544.636.292 1.272.557 1.855.769.106-.265.026-.769-.186-1.564.954-.106 1.882-.132 2.836-.026zm-8.665 2.809c-.636-.212-.875-1.537-.689-3.948.477.159 1.166.292 2.067.424.875.583 1.511.954 1.961 1.087-1.669 1.802-2.783 2.597-3.339 2.438zm2.173-5.22c-1.139-.371-1.643-.875-1.457-1.484.185-.583.874-.689 2.014-.318 1.325.397 1.881.954 1.669 1.59-.159.53-.901.583-2.226.212zm2.677 1.643l.133 1.007c-.556-.265-1.007-.477-1.299-.662.636-.795 1.06-1.457 1.219-1.987.371-1.193-.291-2.041-1.961-2.57-1.511-.477-2.411-.239-2.703.768-.212.636-.292 1.378-.265 2.252-.795-.265-1.351-.503-1.643-.715l.821-.689-1.113-2.412c.583-.053 1.404-.08 2.465-.08.344-.848.848-1.696 1.484-2.491.583.186 1.166 1.06 1.722 2.624 1.06-.451 2.226-.477 3.498-.053-.265.874-.663 1.722-1.166 2.57.848.822 1.352 1.617 1.458 2.412-.822-.106-1.723-.08-2.65.026z" fill="#d71"/><path d="M21.224 15.335c.159.239.291.318.477.318.451 0 1.272-.609 2.676-1.908.981-.928 1.458-1.458 3.498-4.16-.344-.186-.556-.239-1.272-.239-.344 0-.636.027-.901.106l-.398.053c-.106 0-.159-.053-.265-.132v-.08c.053-.212.133-.318.504-.503.715-.371 1.086-.504 1.457-.504.159 0 .424.027.795.08.159.027.424.053.795.053 1.245-1.59 1.828-2.597 1.828-2.968 0-.212-.398-.424-.795-.424-.291 0-.583.239-1.219.981-.344.424-.901.954-1.616 1.617-.61.557-.742.636-.98.636-.265 0-.61-.53-.61-.927 0-.159 0-.239.133-.742.053-.292.133-.345.689-.636.53-.292.556-.318 1.405-1.352.609-.795.662-.848.662-1.007 0-.053-.053-.159-.133-.318-.186-.318-.291-.61-.291-.848 0 0 0-.027.026-.08h.079l.451.159.742.239c.901.371 1.219.715 1.272 1.272 1.219.238 1.351.291 1.669.503.424.238.768.848.768 1.298 0 .318 0 .318-.848 1.087-.133.132-.424.477-.795.98-.133.132-.424.583-.795 1.033 2.093 1.458 4.16 2.597 5.777 3.18 1.961.609 2.199.795 2.862 1.935v.08c-.186.291-.186.318-.61.344l-1.563.053c-.874 0-1.537-.265-2.517-.98l-2.544-2.093c-1.113-.928-1.351-1.087-2.306-1.511l-4.929 5.062c-1.166.848-2.12 1.325-2.703 1.325-.318 0-.636-.424-.636-.822 0-.106.053-.159.133-.291h.026zm6.651-3.26c.265-.053.504-.053.636-.053 1.139 0 2.438.981 2.438 1.829 0 .265-.159.609-.344.768-.079.053-.133.079-.159.079l-1.457.08-.53.159-.398.026v-.079l.239-.291c.53-.61.583-.689.556-.769 0-.079-.079-.238-.239-.371-.398-.397-.583-.742-.769-1.272zm.212 3.816c.424.397.61.503 1.166.636 1.113.238 1.192.291 1.669.742.662.609 1.087 1.245 1.087 1.59 0 .239-.292.371-.795.371-.61 0-.61 0-2.173-.795-.53-.265-.769-.556-.954-1.139l-.265-1.087c0-.08.053-.186.133-.318z" fill="#b32"/><path d="M7.02 2.88L1.402 9.797v1.166h5.353v1.06c0 .371-.053.61-.185.716-.159.185-.636.265-1.431.291v.822H9.67v-.822l-1.193-.106c-.291-.106-.424-.397-.424-.901v-1.06h2.014V9.876H8.054V2.854H7.02zm-.291 7.023H2.647l4.081-5.141z" fill="#339"/><path d="M16.56 24.08v-.026h-.026c0 .026 0 .026-.026.053 0 .079-.026.159-.053.238 0 .08 0 .133-.026.212 0 .08-.026.132-.053.212a1.21 1.21 0 0 1-.345.742c-.079.132-.185.265-.318.371.318-.053.344.371.079 1.245-1.352 4.293-2.147 12.243-2.385 23.877h1.563c.477-10.043.954-16.377 1.457-19.001s.901-4.505 1.193-5.697c.265-1.166-.079-1.908-1.06-2.226zM9.643 42.868l-.08.08c-.185.291-.504.503-.954.53v.026h.08c.689.556 1.193 1.458 1.511 2.73a48.17 48.17 0 0 1 .901 4.77h1.378c-.583-4.532-1.537-7.261-2.835-8.136zm19.743-5.936a1.32 1.32 0 0 1-.398-.451c.026.053.026.08.053.133-1.696 1.404-2.968 6.201-3.869 14.416h1.511c.239-3.154.822-6.572 1.749-10.256.424-1.617 1.007-2.677 1.776-3.233-.068-.035-.13-.08-.186-.132a1.14 1.14 0 0 1-.636-.477z" fill="#084"/></svg>