<svg xmlns="http://www.w3.org/2000/svg" width="150" height="200" viewBox="0 0 39.7 52.9"><path d="M21.324 15.335c.159.239.291.318.477.318.451 0 1.272-.609 2.676-1.908.981-.928 1.458-1.458 3.498-4.16-.344-.186-.556-.239-1.272-.239-.344 0-.636.027-.901.106l-.398.053c-.106 0-.159-.053-.265-.132v-.08c.053-.212.133-.318.504-.503.715-.371 1.086-.504 1.457-.504.159 0 .424.027.795.08.159.027.424.053.795.053 1.245-1.59 1.828-2.597 1.828-2.968 0-.212-.398-.424-.795-.424-.291 0-.583.239-1.219.981-.344.424-.901.954-1.616 1.617-.61.557-.742.636-.98.636-.265 0-.61-.53-.61-.927 0-.159 0-.239.133-.742.053-.292.133-.345.689-.636.53-.292.556-.318 1.405-1.352.609-.795.662-.848.662-1.007 0-.053-.053-.159-.133-.318-.186-.318-.291-.61-.291-.848 0 0 0-.027.026-.08h.079l.451.159.742.239c.901.371 1.219.715 1.272 1.272 1.219.238 1.351.291 1.669.503.424.238.769.848.769 1.298 0 .318 0 .318-.848 1.087-.133.132-.424.477-.795.98-.133.132-.424.583-.795 1.033 2.093 1.458 4.16 2.597 5.777 3.18 1.961.609 2.2.795 2.862 1.935v.08c-.185.291-.185.318-.609.344l-1.563.053c-.875 0-1.537-.265-2.518-.98l-2.544-2.093c-1.113-.928-1.351-1.087-2.306-1.511l-4.929 5.062c-1.166.848-2.12 1.325-2.703 1.325-.318 0-.636-.424-.636-.822 0-.106.053-.159.133-.291h.026zm6.651-3.26c.265-.053.504-.053.636-.053 1.139 0 2.438.981 2.438 1.829 0 .265-.159.609-.344.768-.079.053-.133.079-.159.079l-1.457.08-.53.159-.398.026v-.079l.239-.291c.53-.61.583-.689.556-.769 0-.079-.079-.238-.239-.371-.398-.397-.583-.742-.769-1.272zm.212 3.816c.424.397.61.503 1.166.636 1.113.238 1.192.291 1.669.742.662.609 1.087 1.245 1.087 1.59 0 .239-.292.371-.795.371-.61 0-.61 0-2.173-.795-.53-.265-.769-.556-.954-1.139l-.265-1.087c0-.08.053-.186.133-.318z" fill="#b32"/><path d="M7.12 2.88L1.502 9.797v1.166h5.353v1.06c0 .371-.053.61-.185.716-.159.185-.636.265-1.431.291v.822H9.77v-.822l-1.193-.106c-.291-.106-.424-.397-.424-.901v-1.06h2.014V9.876H8.154V2.854H7.12zm-.291 7.023H2.747l4.081-5.141z" fill="#339"/><path d="M3.94 20.37c1.007 0 1.749-.822 1.749-1.802 0-1.007-.769-1.802-1.749-1.802-1.007 0-1.802.848-1.802 1.802 0 .98.822 1.802 1.802 1.802zm0-2.862c.583 0 1.007.53 1.007 1.033 0 .583-.424 1.034-1.007 1.034-.61 0-1.034-.477-1.034-1.034 0-.503.424-1.033 1.034-1.033zm10.176-5.38c.954 0 1.749-.822 1.749-1.802 0-1.034-.821-1.802-1.749-1.802-.954 0-1.749.768-1.749 1.802-.026 1.06.795 1.802 1.749 1.802zm0-2.756a.95.95 0 0 1 .954.954c0 .477-.424.954-.954.954-.477 0-.954-.371-.954-.954a.95.95 0 0 1 .954-.954zM37.012 22.33c0-1.033-.848-1.802-1.749-1.802-.954 0-1.802.822-1.802 1.802.001.995.807 1.801 1.802 1.802.928 0 1.749-.821 1.749-1.802zm-1.776.928c-.583 0-.954-.424-.954-.954 0-.583.477-.954.954-.954a.94.94 0 0 1 .901.954c0 .53-.424.954-.901.954zm1.882 16.218c.995-.001 1.801-.807 1.802-1.802 0-1.086-.848-1.855-1.802-1.855-.901 0-1.749.822-1.749 1.855 0 .927.795 1.802 1.749 1.802zm0-2.756c.53 0 .954.371.954.954 0 .53-.424.901-.954.901s-.954-.424-.954-.901c0-.53.398-.954.954-.954zM2.668 47.957c.848 0 1.564-.662 1.564-1.617 0-.901-.715-1.617-1.564-1.617s-1.616.662-1.616 1.617.768 1.617 1.616 1.617zm0-2.438c.477 0 .822.424.822.822 0 .371-.345.822-.822.822s-.848-.371-.848-.822a.87.87 0 0 1 .848-.822z" fill="#d71"/><path d="M15.335 30.44c1.617.822 2.597 1.298 3.525 1.298.239 0 .927 0 1.988-.371.318-.133 1.908-.875 2.279-.875.318 0 .504.133.504.424 0 .504-2.915 1.908-4.584 1.908-2.306 0-4.452-1.722-4.452-1.934a.52.52 0 0 1 .742-.451z" fill="#339"/><path d="M36.323 43.69c-.954 0-1.749.822-1.749 1.802 0 .954.769 1.802 1.749 1.802 1.033 0 1.802-.848 1.802-1.802 0-.981-.822-1.802-1.802-1.802zm0 2.756c-.477 0-.901-.424-.901-.954s.371-.954.901-.954c.583 0 .954.477.954.954a.97.97 0 0 1-.954.954z" fill="#d71"/><path d="M19.575 43.425c.981 0 1.802.795 1.802 1.855 0 1.007-.821 1.855-1.802 1.855a1.86 1.86 0 0 1-1.855-1.855c0-1.06.848-1.855 1.855-1.855z" fill="#b32"/><path d="M15.6 25.14c1.007 0 1.802.927 1.802 1.908s-.795 1.855-1.802 1.855a1.9 1.9 0 0 1-1.855-1.855c0-1.034.848-1.908 1.855-1.908zm5.75 1.908c0-1.007.822-1.908 1.802-1.908 1.007 0 1.855.822 1.855 1.908a1.86 1.86 0 0 1-1.855 1.855 1.87 1.87 0 0 1-1.802-1.855z" fill="#339"/><path d="M19.575 37.86c.981 0 1.802.795 1.802 1.855s-.821 1.855-1.802 1.855a1.86 1.86 0 0 1-1.855-1.855 1.88 1.88 0 0 1 1.855-1.855z" fill="#b32"/><path d="M3.94 28.585c0-.848-.715-1.669-1.617-1.669-.848 0-1.616.716-1.616 1.669s.769 1.617 1.616 1.617c.901 0 1.617-.769 1.617-1.617zm-1.617.848c-.583 0-.901-.424-.901-.848a.86.86 0 0 1 .901-.901c.477 0 .901.371.901.901 0 .477-.371.848-.901.848z" fill="#d71"/><path d="M5 42.365c0 6.069 4.744 8.533 7.95 8.533h12.402c5.989 0 8.109-4.691 8.109-8.56 0-2.677-.954-6.546-5.724-9.646 1.431-1.617 2.544-3.71 2.544-6.174 0-3.975-3.684-7.632-9.487-8.162l-3.074-4.16c-.239-.318-.53-.742-.636-.742s-.583-.185-1.378.318L9.187 17.8c-1.06.742-.98 1.06-.98 1.484 0 .186 0 .265.265.822l1.219 2.703c-.53.689-1.431 1.908-1.431 3.895 0 2.491 1.431 4.32 2.73 5.883C9.372 33.673 5 36.456 5 42.365zm14.973-23.426c-.609.822-1.166 1.431-2.041 2.04-1.669 1.113-3.895 1.908-5.724 1.908-.424 0-1.033-.053-1.404-.053l-1.219-2.677c-.08-.133-.159-.53-.239-.636-.106-.159 0-.61.45-.822l5.804-3.763c1.034-.689 1.245-.238 1.272-.238s.265.371.345.45zM6.06 42.471c0-3.577 1.961-6.81 4.532-8.294 1.696-.98 1.696-1.007 1.696-1.352 0-.318-.159-.504-1.351-1.908-.504-.609-1.776-2.465-1.776-4.134 0-1.166.45-2.279 1.219-3.021.556.053 1.087.08 1.616.08 2.2 0 4.002-.822 4.691-1.113 2.226-1.007 3.074-2.04 4.161-3.339 5.221.504 8.56 3.975 8.56 6.89 0 1.935-.822 4.134-2.226 5.433-.689.636-.769.742-.769 1.007 0 .371.079.424.954.927 4.002 2.305 5.141 6.625 5.141 8.851 0 3.047-2.093 7.261-7.181 7.261H12.923c-2.226.079-6.864-2.279-6.864-7.287z" fill="#084"/><path d="M33.779 32.825c.848 0 1.564-.716 1.564-1.617 0-.848-.663-1.617-1.564-1.617-.578 0-1.111.308-1.4.808s-.289 1.116 0 1.617.822.808 1.4.808zm0-2.438c.424 0 .822.371.822.822a.81.81 0 0 1-.822.822c-.424 0-.821-.371-.821-.822s.369-.819.822-.822zm-30.21 2.73c-.848 0-1.617.716-1.617 1.617s.715 1.669 1.617 1.669 1.563-.768 1.563-1.669a1.56 1.56 0 0 0-1.563-1.617zm0 2.465c-.583 0-.848-.424-.848-.848a.83.83 0 0 1 .848-.822c.424 0 .822.371.822.822s-.345.848-.822.848z" fill="#d71"/></svg>