<svg xmlns="http://www.w3.org/2000/svg" width="150" height="200" viewBox="0 0 39.7 52.9"><g transform="matrix(.265 0 0 .265 47 -90.4)"><path d="M-98.4 399c.6.9 1.1 1.2 1.8 1.2 1.7 0 4.8-2.3 10.1-7.2 3.7-3.5 5.5-5.5 13.2-15.7-1.3-.7-2.1-.9-4.8-.9-1.3 0-2.4.1-3.4.4-.6.1-1.2.2-1.5.2-.4 0-.6-.2-1-.5v-.3c.2-.8.5-1.2 1.9-1.9 2.7-1.4 4.1-1.9 5.5-1.9.6 0 1.6.1 3 .3.6.1 1.6.2 3 .2 4.7-6 6.9-9.8 6.9-11.2 0-.8-1.5-1.6-3-1.6-1.1 0-2.2.9-4.6 3.7-1.3 1.6-3.4 3.6-6.1 6.1-2.3 2.1-2.8 2.4-3.7 2.4-1 0-2.3-2-2.3-3.5 0-.6 0-.9.5-2.8.2-1.1.5-1.3 2.6-2.4 2-1.1 2.1-1.2 5.3-5.1 2.3-3 2.5-3.2 2.5-3.8 0-.2-.2-.6-.5-1.2-.7-1.2-1.1-2.3-1.1-3.2 0 0 0-.1.1-.3h.3c.9.3 1.4.5 1.7.6l2.8.9c3.4 1.4 4.6 2.7 4.8 4.8 4.6.9 5.1 1.1 6.3 1.9 1.6.9 2.9 3.2 2.9 4.9 0 1.2 0 1.2-3.2 4.1-.5.5-1.6 1.8-3 3.7-.5.5-1.6 2.2-3 3.9 7.9 5.5 15.7 9.8 21.8 12 7.4 2.3 8.3 3 10.8 7.3v.3c-.7 1.1-.7 1.2-2.3 1.3l-5.9.2c-3.3 0-5.8-1-9.5-3.7-1.4-1.1-4.5-3.6-9.6-7.9-4.2-3.5-5.1-4.1-8.7-5.7-12.1 13.7-14.4 16.1-18.6 19.1-4.4 3.2-8 5-10.2 5-1.2 0-2.4-1.6-2.4-3.1 0-.4.2-.6.5-1.1h.1zm25.1-12.3c1-.2 1.9-.2 2.4-.2 4.3 0 9.2 3.7 9.2 6.9 0 1-.6 2.3-1.3 2.9-.3.2-.5.3-.6.3l-5.5.3-2 .6-1.5.1v-.3l.9-1.1c2-2.3 2.2-2.6 2.1-2.9 0-.3-.3-.9-.9-1.4-1.5-1.5-2.2-2.8-2.9-4.8zm.8 14.4c1.6 1.5 2.3 1.9 4.4 2.4 4.2.9 4.5 1.1 6.3 2.8 2.5 2.3 4.1 4.7 4.1 6 0 .9-1.1 1.4-3 1.4-2.3 0-2.3 0-8.2-3-2-1-2.9-2.1-3.6-4.3-.5-1.7-1-3.5-1-4.1 0-.3.2-.7.5-1.2z" fill="#b32"/><path d="M-152 352l-21.2 26.1v4.4h20.2v4c0 1.4-.2 2.3-.7 2.7-.6.7-2.4 1-5.4 1.1v3.1h17.1v-3.1l-4.5-.4c-1.1-.4-1.6-1.5-1.6-3.4v-4h7.6v-4.1h-7.6v-26.5h-3.9zm-1.1 26.5h-15.4l15.4-19.4z" fill="#339"/><path d="M-84.4 447a6.42 6.42 0 0 0-1.3 1c-.4.4-.6.7-.6 1 0 .6.2.9.7.9 1.2 0 2.2-.2 3-.7 1.8-.4 2.9-1 3.2-1.7.2 0 .5-.4.9-1.3.3-.7.5-1.6.5-2.6.3-.3.5-.7.5-1.1 0-3-2.5-5.1-7.6-6.1-.8-.3-1.9-.4-3.5-.4h-4.2c-.6.4-.9.8-.9 1.1 0 .6.7.9 2.1.9 1.2.3 2.6.7 4.2 1.3l3.9 1.5c.8.7 1.2 1.4 1.2 2 0 .1-.1.4-.2.9v.2c.2.1.2.3.2.4 0 .7-.4 1.4-1.2 2.2-.1 0-.4.2-.9.5z" fill="#b27"/><path d="M-56.5 525c-.5 0-1.8-.5-3.9-1.5-2.3-.6-3.9-.9-4.8-.9h-.2c-.8.6-1.2 1-1.2 1.3 0 .4.5.9 1.4 1.3.9.7 2.6 1.7 5.1 3 3.4 1.6 6.2 2.4 8.5 2.4h.7c2.2 0 3.8-1.1 4.8-3.3.5-.7.7-1.3.7-1.7 0-.9-1-2.2-3-3.9-.5-.6-1.3-1.2-2.5-2-1.8-.9-4.1-1.5-6.7-2-2.6-.4-5.9-.7-9.8-.8l-8.2-.3c4.6 1 9.4 2.4 14.3 4.1.6.1 1.4.5 2.3 1s1.5.8 1.8 1c.3 0 .7 0 1.2.1s.9.1 1.3.2.6.2.6.3c-.1 1.2-.9 1.7-2.4 1.7zm-.6-91.9l-1.4 1.1c0 .1-.2.5-.6 1.2s-.8 1.2-1.2 1.5c-.4.4-.9.8-1.6 1.4s-1.2.9-1.5 1.1c-.2.4-.2.9-.2 1.3 0 1.4.7 2.2 2.1 2.2.8 0 1.5-.1 2.1-.4 3.8-.9 6.9-2.1 9.2-3.7 2.3-2 3.5-4.6 3.5-7.8v-1.5c-.5-2.2-1.4-3.6-2.8-4.3-2.2-.9-3.9-1.3-5.3-1.3-2 0-4 .6-6 1.7-1.7 1-3.2 2.2-4.6 3.7-5.4 4.3-8.6 9.6-9.7 15.9.9-2.2 2.8-4.7 5.8-7.6 4-4.3 7.6-6.5 10.8-6.5 1.4 0 2.3.3 2.8.9-.2.1-.7.6-1.4 1.1zm-26.3-11.9c-4.3 3.8-6.6 8.5-6.9 14.3 2.3-4.2 6.2-8.2 11.8-11.9-.5.6-.8 1.4-1.2 2.4-.3 1-.6 1.8-.9 2.4-.2.3-.6.8-1.4 1.4-.8.7-1.2 1.1-1.4 1.4-.5.7-.7 1.4-.7 2 0 1 .4 1.5 1.2 1.5.2 0 1.6-.6 4.4-1.7 2.2-1.3 4.5-3.3 7.2-6.1.3-.3.6-.7.9-1.1s.6-.8.9-1.1c.5-1.2.7-2.7.7-4.6-.3-1-.8-1.7-1.6-2.2-.6-.4-1.8-.7-3.5-.7-2.8.1-6 1.4-9.5 4zm39.8 80.2c0-.1 0-.4.1-.9.1-.4.1-.8.1-1.1 0-.7-.2-1.6-.7-2.6-.3-.3-1.2-.9-2.5-1.7-1.5-1.4-3.3-2.2-5.4-2.2s-4.3.7-6.6 2.2l-.9.9c-.5.4-1.2.9-2.1 1.4l-2.7 1.6-2.2 1.5c-.2.1-.5.4-1.2.9l-.7.9c-.5-.3-.8-.5-.9-.7-1.8-1.2-4.5-1.7-7.8-1.7-2.5 0-4.6.2-6.5.7 4.5 1.4 6.8 2.5 7.1 3l.7 1.1v.2l-.2.2 1.6 1.5c2 2.3 3.6 3.8 4.8 4.6 2.5 1.7 6 2.6 10.6 2.6 1.4 0 2.5-.1 3.2-.2 1.2-.1 3-.9 5.3-2.4 2.8-1.4 4.5-2.7 5.3-3.9 1.1-1.5 1.6-3.5 1.6-5.9zm-16.4 3.2c-2 0-3.5-.3-4.6-.9 2-.7 5.5-1.2 10.6-1.5-.6 1.6-2.6 2.4-6 2.4zm-90.7 16.7l1.7-.7c4.9-2.2 9-3.3 12.2-3.5-2.5-1.6-5.7-2.4-9.7-2.4-2.5 0-4.5.3-6.2.9-.6.1-1.9.7-3.9 1.5-1.8.7-3.2 1.4-3.9 2-.2.1-.4.3-.7.4s-.5.4-.7.7c-.2 0-.4 0-.7.1s-.5.2-.7.3c-.6.3-1.2 1.2-1.8 2.6-.5 1.2-.7 2.2-.7 3v.4l.2.7.9 1.5c0 .6.3 1.1.9 1.5.2.1.5.3.9.4.5.1.8.2.9.2 1.2.3 1.9.4 2.1.4.5 0 .9-.1 1.4-.2a5.44 5.44 0 0 0 2.7-.7c.8-.4 1.7-1 2.7-1.7.9-.7 1.6-1.2 2.1-1.3 1.1-.7 2.9-1.6 5.4-2.6s4.3-1.7 5.2-2.2c-.3 0-.8 0-1.5-.1s-1.2-.1-1.5-.1c-.6 0-2.9.2-6.9.7a6.64 6.64 0 0 1-3 .7c-.6 0-.9-.1-.9-.4l1.6-1.5c.4-.1 1-.3 1.9-.6zm20.4-20.6h.2c-.2 0-.2-.1-.2-.2-.8-5.6-6.2-8.5-16.4-8.5-3.2 0-6.2.7-8.8 2-.3.1-.8.3-1.4.4l-1.2.7c-.9.9-1.6 1.8-2.1 2.8-.6 1.6-.9 2.7-.9 3.3l.2.4c.2.4.2.7.2.9.6 1 1.2 1.7 1.8 2.2 1.1.6 3.5.9 7.1.9 1.4 0 3.3-.1 5.9-.4 2.5-.3 4.3-.4 5.4-.4 1.5 0 2.7.1 3.5.4-.2-.1-.3-.5-.5-1.1s-.3-.9-.5-1.1c-1.5-1.7-3.8-2.7-6.7-3h-6c2.3-1.2 5.3-1.7 9-1.7 5.2-.2 8.9.7 11.4 2.4z" fill="#084"/><g fill="#b27"><path d="M-156 464c.6.4 1.1 1 1.4 1.7 1.1.9 3.2 1.5 6.5 2 .2 0 .7 0 1.7.1s1.7.1 2.2.1c4 0 6-.5 6-1.5 0-1.3-1.6-2-4.8-2-3.4-.9-6-1.8-7.8-2.8-.9-.4-1.4-1-1.4-1.7l.2-.4.2-.7c.3-.1.5-.5.7-1s.2-.8.2-1c1.4-2.5 4-4.3 7.8-5.4 1.8-.3 3.1-.4 3.9-.4 4 0 7.8 1.2 11.5 3.7-.3 0-.8 0-1.5-.1s-1.2-.1-1.5-.1c-2.8 0-6.1.5-9.9 1.5 6.8.3 11.4 1 13.8 2.2 1.7.7 2.6 1.5 2.8 2.4v.4c0 1.4 1.1 2.2 3.2 2.2.9 0 1.5-.3 1.8-.9.6.6 1.4.9 2.3.9 1.1 0 1.6-.4 1.6-1.3 0-.4-.3-.9-.9-1.4s-.9-1-.9-1.6c0-.3.1-.5.2-.7.3-.9 1-1.3 2.1-1.3.5-.3 1.3-.5 2.4-.5 1.2-.1 1.9-.1 2.2-.1-.2.6-.2 1.3-.2 2.2 0 1 .2 1.7.7 2.2.5-1.2.8-1.8.9-2 1.4-1.6 4.3-2.4 8.8-2.4h.9c.6 0 1.3.6 2.1 1.7l-.7.4v.2c.2.1.2.4.2.7l-1.4 1.3c-1.7.4-2.5.9-2.5 1.3 0 .9.9 1.3 2.8 1.3.5 0 2.5-.7 6-2 5.7-1.9 11.1-2.9 16.1-3-2.5-.6-5.4-.9-8.8-.9-3.1 0-5.2.2-6.5.7-.2-.3-.2-.7-.2-1.1v-1.1c-.6-1.4-1.5-2.5-2.5-3-1.2-.3-2.3-.4-3.2-.4-3.4-.7-6.5-1.1-9.2-1.1-.5 0-1 0-1.7.1s-1.2.1-1.5.1c.3-2.3.9-4.1 1.8-5.2.2-.1.4-.3.7-.5s.6-.4.8-.5a3.04 3.04 0 0 0 .7-.5c.2-.2.3-.4.3-.5 0-.7-.5-1.1-1.5-1.1s-2 .3-3.1.9c-.9.6-1.8 1.5-2.5 2.8-.8 1.3-1.2 2.3-1.2 3v2.4c-2.9.3-5.1 1.3-6.5 3-3.7-4.9-9.2-7.9-16.6-8.9-.3 0-.8 0-1.6-.1s-1.4-.1-1.8-.1c-6.9 0-11.8 1.9-14.5 5.6-1.1 1.4-1.8 3.3-2.3 5.6 0 .4.2 1 .5 1.6.3.7.5 1.1.5 1.4l-.9 1.5c-.1.7.3 1.4 1.1 2.1z"/><path d="M-76.6 452c2.3-.7 4.4-1.1 6.2-1.1 2.2 0 4.2.4 6 1.3 1.7 1.6 2.5 2.7 2.5 3.3 0 .3-.3.8-1 1.6s-1 1.6-1 2.5c.2 1.6 1.2 2.5 3.2 2.8h.7c2.6 0 4.5-.7 5.8-2.2 0-.1.1-.5.2-1.1.2-.6.2-.9.2-1.1 0-.1 0-.4.1-.8s.1-.8.1-1.2c0-1.2-.4-2.5-1.2-3.9-.2 0-.5-.4-1-1.1s-.9-1.2-1.2-1.3c-.2-.1-.4-.2-.6-.2-.3-.1-.5-.2-.7-.2l-.9-.9c-2.6-1.2-6.1-1.7-10.4-1.7-3.5 0-6.2.3-7.8.9-1.1.4-2.3 1.2-3.7 2.4s-2.4 1.9-3 2.2c-1.1.9-3.5 2-7.4 3.5h.7c3.4 0 8-1.3 14.2-3.7zm-42.3 16.6c-1 .9-1.5 2.1-1.5 3.4h2.1c2.3-.4 4-1.5 5.1-3.3l.5-.7v-.7c0-.4-.8-.7-2.5-.7-1.5.4-2.7 1.1-3.7 2z"/></g><path d="M-128 531c.2.1.7.4 1.6.8s1.5.6 1.6.8c1.5 0 2.7.1 3.5.2h3.2c2.3 0 4.6-.3 7-.9l7.4-2.2 5.9-2 10.6-2.2c.3 0 1.5-.1 3.6-.4s3.7-.4 4.7-.4c.2 0 .6 0 1.3.1a9.89 9.89 0 0 0 1.5.1c-4.8-2.3-10.1-3.5-16.1-3.5h-3.2c-3.4 0-6.8.4-10.1 1.3-1.2.1-2.9.5-5 1.2s-3.5 1-4.3 1.2c-.8.1-1.9.2-3.5.2-1.1 0-1.8-.1-2.3-.2-.3 0-1.2-.4-2.7-1.2s-2.8-1.2-4-1.2c-3.7 0-5.5 1.2-5.5 3.5 0 .7.2 1.3.7 1.7 1.7 2 3.1 3 4.1 3.1zm-38.7-58.4c-2.5 1.2-4.1 2.6-4.8 4.3 0 .1 0 .5-.1 1.2s-.2 1.1-.3 1.2v1.1c.3 2.5 1.2 4.2 2.8 5.2.5.1 1 .3 1.6.5l1.5.5c.4.1.7.5.9 1.2s.5 1.1.8 1.2l1.6.9 1.8.4c.8.1 2.1.2 3.9.2l3.9-.1 4.2-.1c4.9 0 8.7.4 11.3 1.3-3.4-4.1-8.5-6.4-15.5-7-3.8 0-6-.4-6.5-1.1-.2-.1-.2-.4-.2-.9 0-1.3.2-2 .7-2.2.6-.4 1.9-.7 3.9-.7 3.8 0 8.4 1.2 13.6 3.7 3.4 1.4 7.2 3.7 11.5 6.7-2.6-4.5-6.1-8.3-10.4-11.3-5.7-3.9-10.7-6.3-15-7.2-.9-.3-2.2-.4-3.9-.4-3.2.3-5.6.7-7.3 1.4zm134 4.1v-.7c-.3-3.3-1.2-5.5-2.8-6.5-2.3-1.2-4.5-1.7-6.7-1.7h-1.4c-4.6.1-9.3 1-14.1 2.6-2.5.7-6.2 2.6-11.3 5.6-8.3 4.6-13.8 10.2-16.6 16.7 8-7.1 16.3-12.2 24.9-15.4 4-1.7 7.5-2.7 10.6-3 3.1 0 4.6.3 4.6.9 0 1-.7 1.7-2.1 2.2-4.5 2.5-10.1 4.6-17.1 6.3-3.7 1.2-6.5 1.8-8.3 2 7.1.7 13.1 1.1 18.2 1.1h3c.8 0 1.9 0 3.5-.1 1.5-.1 2.7-.3 3.5-.5 1.7-.4 3.5-1.1 5.3-2 3.8-2 6-4.4 6.8-7.5zm-71.3 31.5c-12.1 0-21.4 1.7-27.9 5.2 18.3-.3 29.6-.8 33.9-1.5l14.3-2.2c-8.2-1-14.9-1.5-20.3-1.5zm-22.4-16.3c0 .9.2 1.8.6 2.9s1.2 1.7 2.4 1.8c.2.3.6.4 1.4.4 1.7 0 2.5-.9 2.5-2.8v-1.5c-.2-.9-.2-2.6-.2-5.3 0-2.5-.2-4.1-.6-4.9l-4.3-.6c-1.2 6-1.8 9.3-1.8 10zm34.6-11.3c0 1-.2 2.9-.5 5.5l-.5 5.8v1.1c0 1.6.5 2.5 1.4 2.6a10.6 10.6 0 0 1-2.1-.2c-1.5 0-2.3-.1-2.3-.2l.2-.4.2-.7c.2-.1.2-.5.2-1.1 0-.3.1-.9.2-1.7.2-.9.2-1.6.2-2.2 0-1.7-.2-3.5-.7-5.4-.2-.3-.4-.8-.7-1.4-.2-.5-.4-.8-.4-1-1.1.2-2.2.5-3.3.8 0 .2-.1.4-.2.8-.2.4-.2.9-.2 1.3-.2.9-.2 2.5-.2 5 0 1.7.1 3 .2 3.7.8 1.3 1.3 2 1.6 2.2h-5.1c.5-.9.7-2.7.7-5.4a62.7 62.7 0 0 0-.5-7.4c-1.3.3-2.7.5-4.1.6-.4 1.9-.6 4.5-.6 6.4v2.6c0 1.6.2 2.6.7 3-1.4 0-2.5.1-3.2.2.2-.9.2-2.2.2-4.1 0-2-.2-4.5-.5-7.4h.1l-6.3-.5 2 .3c-.9 2.2-1.4 4.7-1.4 7.6 0 2.2.3 3.7.9 4.6-3.8 1.2-7.1 2.6-9.7 4.3-.2.1-.5.4-1.2.9-.6.4-1.1.7-1.4.9l-3.5 1.7c3.4-1.3 7.4-2.2 12.1-2.6s11-.7 19-.9c8-.1 12.9-.4 14.8-.7.2 0 .4 0 .8-.1s.8-.1 1.3-.1h.1c-2-1.4-3.9-2.3-5.8-2.6.9-.4 1.5-2.3 1.8-5.6v-1.1c0-2.7-.8-5.8-2.3-9.2-1.3 0-2.6.2-3.9.4.8-.2 1.4-.3 1.9-.3z" fill="#084"/><path d="M-60.2 464c-.6-.9-1.5-1.3-2.5-1.3h-1.2c-.8 0-2.4.4-4.8 1.3-2.2.9-5.8 1.5-10.8 2-.6 0-1.3 0-2.2.1-.8.1-1.4.1-1.7.1s-.7-.1-1.2-.4-.8-.4-.9-.4c-1.1-.3-1.9-.4-2.5-.4-4.9.3-8.5 1.1-10.6 2.4-1.4-1.3-2.6-2-3.7-2h-.2l-.7.2c-.8.7-1.2 1.5-1.2 2.4v.7c0 .7.4 1.4 1.2 2.2.8.3 2.2.4 4.4.4.9 0 1.4-.3 1.4-.9 0-.3-.1-.7-.3-1.2s-.3-.9-.3-1.2v-.2c2.3.1 4.4.5 6.2 1.1 3.4 1 5.1 1.8 5.1 2.4-.2 0-.6.4-1.4 1.1s-1.2 1.1-1.4 1.1c-1.7.9-4.8 1.7-9.5 2.6-4.6.9-7.8 1.7-9.5 2.6-.2 0-.5.2-1.2.7-.6.4-1 .7-1.2.7s-1.4-.2-3.7-.7c-.9-.4-1.9-1-3-1.6-1.1-.7-1.8-1.1-2.3-1.4-2.5-1.6-5.5-2.8-9-3.7-1.7 0-2.7-.4-3-1.1 0-.1.2-.4.5-.7l.7-.7c1.2-1.7 2.3-2.7 3.2-3 .8-.3 2.3-.4 4.6-.4.9 0 2.3 0 4.3-.1 1.9-.1 3.4-.1 4.5-.1 2.6 0 4.5.1 5.5.2l-1.6.9c-.9.9-1.4 2.1-1.4 3.7 0 .6.2 1 .5 1.3l.5.2h.9c.5.3.8.4 1.2.4.8 0 1.5-.9 2.3-2.8.3-.6.5-1.2.5-1.7v-.7c-.2-.6-1.1-1.1-2.8-1.5-.8-.1-2.1-.6-3.9-1.3-4.5-1-8.7-1.5-12.7-1.5h-2.1c-5.4.3-8.9 2-10.6 5-1.4 2.2-2.1 3.9-2.1 5.2v.7c0 1.2.4 2.1 1.2 2.8.3.1.6.3.9.4s.6.2.9.2c5.2 1.7 9.2 3 12 3.7v.2l4.3.6c0-.1-.1-.1-.1-.2a82.6 82.6 0 0 1 3.5.6c2.1.2 4.3.4 6.3.5l3.4-.6s3.9-.4 3.9-.7c1.5-.3 2.8-.4 3.7-.4v.3c1.1-.3 2.2-.5 3.3-.8v-.2c.6-.1 1.4-.3 2.3-.3h.5c1.3-.2 2.6-.3 3.9-.4l-.3-.6c6.8-.3 10.1-2.7 10.1-7.4 0-.6-.2-1.5-.5-2.8 3.4.3 6.4.4 9 .4 1.8 0 3.2-.1 4.2-.2 1.7 0 3.4-.6 5.1-1.7 2-1.3 3-2.2 3-2.6-.2-.3-.5-.7-.9-1.5z" fill="#b27"/><path d="M-98.7 504c-.6 0-1.6-.1-3-.2l-3.2-.2c-.8 0-1.8.1-3.1.2l-2.9.2c-7.7.4-13.8 2.5-18.5 6.3 4.6-.7 11.9-1.4 21.9-2.2l21.9-1.7c-2.8-1.3-7.1-2.1-13.1-2.4z" fill="#084"/><path d="M-115 442c7.7-2.5 14.8-4.5 21.4-6.1-1.7-.1-4.2-.2-7.6-.2-7.5 0-13.6.9-18.2 2.6.1-.1-2.2 1-2.8 1.3-2.5 1.4-4 2.8-4.6 4.1-.5.7-.7 1.5-.7 2.4 0 .7.4 1.5 1.3 2.4.8.9 1.7 1.4 2.4 1.7.8.1 1.9.2 3.5.2l-1.2-1.1c-.8-.3-1.2-.8-1.2-1.5 0-.9.5-1.7 1.4-2.6.4-.2 2.4-1.3 6.3-3.2z" fill="#b27"/><path d="M-118 436c0-.1.2-.4.6-.8s.6-.6.6-.8c.2-.3.3-.9.6-1.8.2-.9.4-1.6.6-2.1a18.4 18.4 0 0 1 .9-1.2c.5-.5.8-.9 1-1.3s.4-1 .6-1.8c.2-.9.3-1.4.5-1.7 0-.7-.2-1.7-.5-2.8-.2-1.2-.8-2.9-2-5.1l-2-3.6c-.7-1.2-1.1-3-1.3-5.3l.1.3c0 .1 0 .4.1.8s.2.6.3.8c.6.9 2.1 1.3 4.4 1.3 2 0 3.3-.9 3.9-2.8l1.2-4.3c.3-.7 1.1-1.9 2.4-3.6s2.2-3.2 2.7-4.7c.2-.3.2-.7.2-1.3.3-1 .5-2.7.5-5.2 0-6.1-1.2-11-3.7-14.8-1.4-1.9-3.4-2.8-6-2.8-5.8.9-10.2 5-13.1 12.4-1.4 3-2.4 7.6-3 13.7 0 1.4-.1 2.2-.2 2.2l-1.2-.7c-.9-.3-1.6-.4-2.1-.4-2 0-4.1.9-6.2 2.8-2.6 2.9-4.4 5.7-5.3 8.5-1.1 3.2-1.6 7.5-1.6 13 .2 2.3 1.1 4.9 2.8 7.8.5.3 1 1 1.6 2.2s1.2 1.9 1.6 2.2l1.6 1.1c.2.3.5.5 1 .7.5.1 1 .2 1.3.2.3.1.7.5 1.2 1.2s.8 1.1.9 1.2c1.7 1.3 3.2 2 4.6 2 .9 0 1.6-.1 2.1-.4 0-.1-.3-.4-.8-.9-.5-.4-.9-.7-1-.9-.3-.4-.7-1.1-1.2-2s-.8-1.4-1.2-1.7c-.3-.6-.7-1.2-1.3-2-.5-.7-1-1.3-1.3-1.7-.6-1.4-1.2-3.4-1.8-5.9-1.1-3.8-1.6-5.8-1.6-6.1v-.7c0-1.2.3-2.8.9-5 1.1-2.5 2.2-3.7 3.5-3.7 1.1 0 1.6.4 1.6 1.1v.2c.3.3.5.6.5.9l-1.2 4.1c-.2.4-.4.8-.7 1.1s-.6.6-.8 1-.3.8-.3 1.4c0 1.6.8 2.5 2.3 2.8.6 0 1.5-.2 2.5-.7.5-.4 1.2-2.1 2.1-5 .3.9 1 2 2.2 3.4s1.9 2.6 2.2 3.8c.6 1.2 1.1 3.2 1.4 6.1 0 .7.2 1.7.7 3v2.8c0 .3-.2.7-.7 1 .6-.1 1.1-.3 1.5-.6.4-.4.6-.7.8-.9zm.2-42.2c.8-7.1 2.1-12 3.9-14.8l.5-.7c.3-.4.5-.7.7-.7.6 0 1.1.5 1.4 1.5.8 4.6 1.2 8.8 1.2 12.4 0 3-.2 5.6-.7 7.8-.5.7-.7 1.2-.7 1.3s-.1.6-.2 1.3c-.2.7-.3 1.2-.5 1.5-.5 1.3-1 2-1.6 2-.2 0-.5-.3-1-1s-.8-1-.8-1.2l.5-1.1c-2 .5-3 1.9-3.2 4v-1.6c-.2-.7 0-4.3.5-10.7zm26.8 19.7c0-.2-.2-.7-.6-1.5s-.7-1.3-1-1.5c-.9-.4-2.1-.6-3.4-.6-.7 0-1.8.3-3.4.9-.1 0-.3.1-.6.4-.1.2-.3.3-.4.4-2.7 2.9-4.4 5.4-5 7.2-.4 1.5-.6 3-.6 4.7l.2 5.8v1.3c0 1.1-.1 1.7-.4 1.9 0 .1-.1.2-.4.4s-.4.4-.4.6c2.1-.2 3.4-.5 3.8-1 1.5-1.1 2.2-2.8 2.2-5.2 0-.4 0-1-.1-1.8s-.1-1.4-.1-1.8v-.6c.4-1.1 1.1-2.3 2-3.5l2-.6c.1 0 .3-.1.4-.4.1-.2.3-.4.6-.4-.7 3.4-1.5 5.7-2.6 6.8-.9.7-1.4 1.2-1.4 1.6l.2.1c0 .3.3.4 1 .4 1.6 0 2.7-.2 3.4-.7.4-.1.8-.4 1.3-.8s.9-.8 1.3-1l3.4-2.4c.8-1 1.2-2.7 1.2-5a9.45 9.45 0 0 0-1.3-2.4zm-7.9 102l-8.9-.5-2.1.1c-.9.1-1.7.1-2.3.1-6.6.7-12.5 2.8-17.5 6.3.5 0 1.3 0 2.7-.1 1.3-.1 2.2-.1 2.7-.1 14.9-.7 24.8-1.9 29.8-3.5.3-.1 1-.4 2.2-.9s1.9-.7 2.2-.7h1.2l-1.4-.2h-1.6c-1 0-3.3-.2-7-.5zm-65.8-88.7c-.2 0-.8.3-1.8.8s-1.6 1-1.8 1.3c-.4 1.1-.5 2.4-.4 4 .1.8.5 2 1.3 3.8 0 .2.2.4.6.7.2.1.4.3.6.4 3.7 2.8 6.8 4.5 9.1 5.1 1.8.3 3.7.4 5.7.3.7-.1 1.8-.2 3.4-.4l3.4-.4 1.6-.1c1.3-.1 2.1 0 2.3.3.1 0 .3.1.6.4s.5.4.7.4c-.4-2.4-.9-3.9-1.5-4.3-1.4-1.6-3.5-2.3-6.4-2.1-.5 0-1.2.1-2.1.3-.9.1-1.6.2-2.1.3l-.7.1c-1.3-.4-2.8-1-4.4-2l-.9-2.2c0-.2-.2-.3-.5-.4s-.5-.3-.5-.7c4.2.5 6.9 1.3 8.3 2.4.9 1 1.6 1.5 2.1 1.5l.2-.2c.4 0 .5-.4.4-1.2-.1-1.8-.5-3.1-1.2-3.8-.1-.5-.5-.9-1.1-1.4s-1-1-1.3-1.4l-3.1-3.7c-1.2-.8-3.3-1.2-6.1-.9-.9.4-1.9.9-2.8 1.7-.8.5-1.4 1-1.6 1.4z" fill="#084"/></g></svg>