<svg xmlns="http://www.w3.org/2000/svg" viewBox="0 0 63.5 50.271" height="190" width="240"><defs><linearGradient y2="10.583" x2="60.854" y1="2.646" x1="52.917" id="A" gradientUnits="userSpaceOnUse"><stop offset="0" stop-color="#b8b"/><stop offset="1" stop-color="#969"/></linearGradient><linearGradient y2="18.521" x2="52.917" y1="10.583" x1="44.979" id="B" gradientUnits="userSpaceOnUse"><stop offset="0" stop-color="#ddd"/><stop offset="1" stop-color="#bbb"/></linearGradient></defs><path d="M14.552 0c-1.303 0-2.452.624-3.175 1.589v-.001L9.26 3.704V41.01l50.8-.265 1.852-1.852h-.001c.964-.723 1.589-1.872 1.589-3.175V3.969A3.96 3.96 0 0 0 59.531 0z" fill="url(#A)"/><path d="M11.906 2.646c-1.303 0-2.452.625-3.175 1.589v-.002l-7.408 7.408v37.306h50.535l7.412-7.412a3.95 3.95 0 0 0 1.584-3.171V6.614a3.96 3.96 0 0 0-3.969-3.969z" fill="url(#B)"/><rect transform="rotate(90)" ry="3.969" width="39.688" height="52.917" x="10.583" y="-52.917" fill="#eee"/></svg>