<svg xmlns="http://www.w3.org/2000/svg" width="240" height="190" viewBox="0 0 63.5 50.3"><defs><linearGradient id="A" x1="45.49" x2="53.49" y1="10.06" y2="18.01" gradientUnits="userSpaceOnUse"><stop stop-color="#e8b" offset="0"/><stop stop-color="#c69" offset="1"/></linearGradient><linearGradient id="B" x1="47.64" x2="55.54" y1="7.96" y2="15.86" gradientUnits="userSpaceOnUse"><stop stop-color="#ddd" offset="0"/><stop stop-color="#bbb" offset="1"/></linearGradient></defs><path d="M14.5.004c-1.3 0-2.45.625-3.18 1.59v-.002l-7.41 7.41v37.3h50.5l7.41-7.41c.962-.723 1.58-1.87 1.58-3.17v-31.8a3.96 3.96 0 0 0-3.97-3.97z" fill="url(#B)"/><path d="M7.14 7.41c-1.3 0-2.45.624-3.18 1.59v-.001l-2.12 2.12v37.3l50.8-.265 1.85-1.85h-.001c.964-.723 1.59-1.87 1.59-3.18v-31.7a3.96 3.96 0 0 0-3.97-3.97z" fill="url(#A)"/><rect transform="rotate(90)" x="10.6" y="-52.9" width="39.7" height="52.9" ry="3.97" fill="#f9c"/></svg>