<svg xmlns="http://www.w3.org/2000/svg" width="150" height="200" viewBox="0 0 39.7 52.9"><g transform="matrix(1.32 0 0 1.32 47.4 -90.2)"><g stroke="#b32"><g fill="none"><path d="M-8.4 88.5c0 6.9-5.6 12.5-12.5 12.5s-12.5-5.6-12.5-12.5S-27.8 76-20.9 76-8.4 81.6-8.4 88.5z" stroke-width="1.38"/><path d="m-10.3 88.5c0 5.8-4.7 10.6-10.6 10.6a10.5 10.5 0 0 1-10.6-10.6c0-5.8 4.7-10.6 10.6-10.6s10.6 4.8 10.6 10.6z" stroke-width="1.63"/><path d="m-20.9 78v3.6m-10.5 6.9h3.6m6.9 10.5v-3.6m10.5-6.9h-3.6m-14.3-7.4 2.5 2.5m-2.5 12.4 2.5-2.5m12.3 2.5-2.5-2.5m2.5-12.4-2.5 2.5m-8.9-4.8 1.4 3.3m-7.1 10.5 3.3-1.4m10.4 7-1.4-3.3m7.1-10.4-3.3 1.4m-16.1-1.4 3.3 1.4m2.4 12.3 1.4-3.3m12.3-2.3-3.3-1.4m-2.4-12.4-1.4 3.3" stroke-width="1.5"/></g><path d="m-13.5 88.5c0 4.1-3.3 7.4-7.4 7.4s-7.4-3.3-7.4-7.4 3.3-7.4 7.4-7.4 7.4 3.4 7.4 7.4z" fill="#b32" stroke-width="1.5"/></g><path d="M-21.2 88.8s-.141 1.7-1.34 2.9c-1.13 1.13-2.9 1.34-2.9 1.34s.141-1.7 1.34-2.9c1.13-1.13 2.9-1.34 2.9-1.34zm.495-.495s.141-1.7 1.34-2.9c1.13-1.13 2.9-1.34 2.9-1.34s-.141 1.7-1.34 2.9c-1.13 1.13-2.9 1.34-2.9 1.34zm0 .566s1.7.141 2.9 1.34 1.34 2.9 1.34 2.9-1.7-.141-2.9-1.34-1.34-2.9-1.34-2.9zm-.566-.566s-1.7-.141-2.9-1.34-1.34-2.9-1.34-2.9 1.7.141 2.9 1.34 1.34 2.9 1.34 2.9z" fill="#eee"/></g></svg>