<svg xmlns="http://www.w3.org/2000/svg" xmlns:xlink="http://www.w3.org/1999/xlink" width="150" height="200" viewBox="0 0 39.7 52.9"><defs><path id="A" d="m-70.4 402c0 18.4-14.9 33.3-33.4 33.3s-33.4-14.9-33.4-33.3 14.9-33.3 33.4-33.3 33.4 14.9 33.4 33.3z"/><path id="B" d="M-105 404s-.704 7.74-5.98 13-13 5.98-13 5.98.704-7.74 5.98-13 13-5.98 13-5.98zm2.46-2.46s.704-7.74 5.98-13 13-5.98 13-5.98-.704 7.74-5.98 13-13 5.98-13 5.98zm0 2.11s7.74.703 13 5.98 5.98 13 5.98 13-7.74-.703-13-5.98-5.98-13-5.98-13zm-2.46-2.46s-7.74-.703-13-5.98-5.98-13-5.98-13 7.74.703 13 5.98 5.98 13 5.98 13z"/></defs><g transform="matrix(.265 0 0 .265 47.3 -90.2)"><use fill="#339" xlink:href="#A"/><use fill="#eee" xlink:href="#B"/><use y="77.566" fill="#084" xlink:href="#A"/><use y="77.566" fill="#eee" xlink:href="#B"/></g></svg>