<svg xmlns="http://www.w3.org/2000/svg" xmlns:xlink="http://www.w3.org/1999/xlink" width="150" height="200" viewBox="0 0 39.7 52.9"><defs><path id="A" d="m-21.1 98.5a6.7 6.7 0 1 1-6.7-6.7c3.7 0 6.7 2.9 6.7 6.7z"/><path id="B" d="m-63.6 46.1s-1.2 1-2.7 1-2.7-1-2.7-1 1.2-1 2.7-1 2.7 1 2.7 1z"/><path id="C" d="m-62.9 46.1s1.2-1 2.7-1 2.7 1 2.7 1-1.2 1-2.7 1-2.7-1-2.7-1z"/><path id="D" d="m-63.3 46.5s1 1.2 1 2.7-1 2.7-1 2.7-1-1.2-1-2.7 1-2.7 1-2.7z"/><path id="E" d="m-63.3 45.8s-1-1.2-1-2.7 1-2.7 1-2.7 1 1.2 1 2.7c0 1.4-1 2.7-1 2.7z"/></defs><g transform="matrix(.263 0 0 .265 46.8 -89.9)"><g transform="matrix(4.25 0 0 4.26 13.1 21.4)"><use fill="#b32" xlink:href="#A"/><g transform="rotate(315 17.6 29.5)" fill="#eee"><use xlink:href="#B"/><use xlink:href="#C"/><use xlink:href="#D"/><use xlink:href="#E"/></g></g><g transform="matrix(4.25 0 0 4.26 -22 -31.9)"><use fill="#b32" xlink:href="#A"/><g transform="rotate(315 17.6 29.5)" fill="#eee"><use xlink:href="#B"/><use xlink:href="#C"/><use xlink:href="#D"/><use xlink:href="#E"/></g></g><g transform="matrix(4.25 0 0 4.26 52.8 71.2)"><use fill="#b32" xlink:href="#A"/><g transform="rotate(315 17.6 29.5)" fill="#eee"><use xlink:href="#B"/><use xlink:href="#C"/><use xlink:href="#D"/><use xlink:href="#E"/></g></g></g></svg>