<svg xmlns="http://www.w3.org/2000/svg" xmlns:xlink="http://www.w3.org/1999/xlink" width="150" height="200" viewBox="0 0 39.7 52.9"><defs><path id="A" d="m-27.6 109a6.7 6.7 0 1 1-13.4 0 6.7 6.7 0 1 1 13.4 0z"/><path id="B" d="m-75.5 48.8s-1.2 1-2.7 1-2.7-1-2.7-1 1.2-1 2.7-1 2.7 1 2.7 1z"/><path id="C" d="m-74.8 48.8s1.2-1 2.7-1 2.7 1 2.7 1-1.2 1-2.7 1-2.7-1-2.7-1z"/><path id="D" d="m-75.2 49.2s1 1.2 1 2.7-1 2.7-1 2.7-1-1.2-1-2.7 1-2.7 1-2.7z"/><path id="E" d="m-75.2 48.5s-1-1.2-1-2.7 1-2.7 1-2.7 1 1.2 1 2.7-1 2.7-1 2.7z"/></defs><g transform="matrix(1.31 0 0 1.32 105 -94.5)"><g transform="matrix(.744 0 0 .744 -33.5 1.8)"><use fill="#339" xlink:href="#A"/><g transform="rotate(315 17.6 29.5)" fill="#eee"><use xlink:href="#B"/><use xlink:href="#C"/><use xlink:href="#D"/><use xlink:href="#E"/></g></g><g transform="matrix(.744 0 0 .744 -45.5 1.8)"><use fill="#084" xlink:href="#A"/><g transform="rotate(315 17.6 29.5)" fill="#eee"><use xlink:href="#B"/><use xlink:href="#C"/><use xlink:href="#D"/><use xlink:href="#E"/></g></g><g transform="matrix(.744 0 0 .744 -45.5 19.8)"><use fill="#339" xlink:href="#A"/><g transform="rotate(315 17.6 29.5)" fill="#eee"><use xlink:href="#B"/><use xlink:href="#C"/><use xlink:href="#D"/><use xlink:href="#E"/></g></g><g transform="matrix(.744 0 0 .744 -33.5 19.8)"><use fill="#084" xlink:href="#A"/><g transform="rotate(315 17.6 29.5)" fill="#eee"><use xlink:href="#B"/><use xlink:href="#C"/><use xlink:href="#D"/><use xlink:href="#E"/></g></g></g></svg>