<svg xmlns="http://www.w3.org/2000/svg" xmlns:xlink="http://www.w3.org/1999/xlink" width="150" height="200" viewBox="0 0 39.7 52.9"><defs><path id="A" d="m-27.5 110a6.7 6.7 0 1 1-13.4 0 6.7 6.7 0 1 1 13.4 0z"/><path id="B" d="m-76.3 49.8s-1.2 1-2.7 1-2.7-1-2.7-1 1.2-1 2.7-1 2.7 1 2.7 1z"/><path id="C" d="m-75.6 49.8s1.2-1 2.7-1 2.7 1 2.7 1-1.2 1-2.7 1-2.7-1-2.7-1z"/><path id="D" d="m-75.9 50.2s1 1.2 1 2.7-1 2.7-1 2.7-1-1.2-1-2.7 1-2.7 1-2.7z"/><path id="E" d="m-75.9 49.5s-1-1.2-1-2.7 1-2.7 1-2.7 1 1.2 1 2.7-1 2.7-1 2.7z"/></defs><g transform="matrix(1.32 0 0 1.32 103 -91.7)"><g transform="matrix(.744 0 0 .744 -31.9 8.74)"><use fill="#b32" xlink:href="#A"/><g transform="rotate(315 17.6 29.5)" fill="#eee"><use xlink:href="#B"/><use xlink:href="#C"/><use xlink:href="#D"/><use xlink:href="#E"/></g></g><g transform="matrix(.744 0 0 .744 -43.4 8.74)"><use fill="#b32" xlink:href="#A"/><g transform="rotate(315 17.6 29.5)" fill="#eee"><use xlink:href="#B"/><use xlink:href="#C"/><use xlink:href="#D"/><use xlink:href="#E"/></g></g><g transform="matrix(.744 0 0 .744 -31.9 19.5)"><use fill="#b32" xlink:href="#A"/><g transform="rotate(315 17.6 29.5)" fill="#eee"><use xlink:href="#B"/><use xlink:href="#C"/><use xlink:href="#D"/><use xlink:href="#E"/></g></g><g transform="matrix(.744 0 0 .744 -43.4 19.5)"><use fill="#b32" xlink:href="#A"/><g transform="rotate(315 17.6 29.5)" fill="#eee"><use xlink:href="#B"/><use xlink:href="#C"/><use xlink:href="#D"/><use xlink:href="#E"/></g></g><g transform="matrix(.744 0 0 .744 -31.9 -2.06)"><use y="-2.1" fill="#084" xlink:href="#A"/><g transform="rotate(315 17.6 29.5)" fill="#eee"><use x="1.5" y="-1.5" xlink:href="#B"/><use x="1.5" y="-1.5" xlink:href="#C"/><use x="1.5" y="-1.6" xlink:href="#D"/><use x="1.5" y="-1.6" xlink:href="#E"/></g></g><g transform="matrix(.744 0 0 .744 -43.4 -2.06)"><path d="M-27.5 108a6.7 6.7 0 1 1-6.7-6.7c3.7-.1 6.7 3 6.7 6.7z" fill="#084"/><g transform="rotate(315 17.6 29.5)" fill="#eee"><use x="1.5" y="-1.5" xlink:href="#B"/><use x="1.5" y="-1.5" xlink:href="#C"/><use x="1.5" y="-1.6" xlink:href="#D"/><use x="1.5" y="-1.6" xlink:href="#E"/></g></g></g></svg>