<svg xmlns="http://www.w3.org/2000/svg" xmlns:xlink="http://www.w3.org/1999/xlink" width="150" height="200" viewBox="0 0 39.7 52.9"><defs><path id="A" d="m-68.6 82.8c0 2.2-1.8 4-4 4s-4-1.8-4-4 1.8-4 4-4 4 1.8 4 4z"/><path id="B" d="m-98.6 53.7s-1.2 1-2.7 1-2.7-1-2.7-1 1.2-1 2.7-1 2.7 1 2.7 1z"/><path id="C" d="m-97.9 53.7s1.2-1 2.7-1 2.7 1 2.7 1-1.2 1-2.7 1c-1.4 0-2.7-1-2.7-1z"/><path id="D" d="m-98.2 54.1s1 1.2 1 2.7-1 2.7-1 2.7-1-1.2-1-2.7 1-2.7 1-2.7z"/><path id="E" d="m-98.2 53.4s-1-1.2-1-2.7 1-2.7 1-2.7 1 1.2 1 2.7-1 2.7-1 2.7z"/><path id="F" d="M-40.4 129a6.7 6.7 0 1 1-6.7-6.7c3.7-.1 6.7 3 6.7 6.7z"/></defs><g transform="matrix(1.32 0 0 1.32 122 -89)"><use fill="#339" xlink:href="#A"/><g transform="matrix(.421 -.421 .421 .421 -53.9 18.9)" fill="#eee"><use xlink:href="#B"/><use xlink:href="#C"/><use xlink:href="#D"/><use xlink:href="#E"/></g><g transform="matrix(.595 0 0 .595 -54.5 6.33)"><use fill="#339" xlink:href="#F"/><g transform="rotate(315 17.6 29.5)" fill="#eee"><use xlink:href="#B"/><use xlink:href="#C"/><use xlink:href="#D"/><use xlink:href="#E"/></g></g><use y="-9.4" fill="#339" xlink:href="#A"/><g transform="matrix(.421 -.421 .421 .421 -53.9 9.5)" fill="#eee"><use xlink:href="#B"/><use xlink:href="#C"/><use xlink:href="#D"/><use xlink:href="#E"/></g><g transform="matrix(.595 0 0 .595 -54.5 -3.07)"><use fill="#339" xlink:href="#F"/><g transform="rotate(315 17.6 29.5)" fill="#eee"><use xlink:href="#B"/><use xlink:href="#C"/><use xlink:href="#D"/><use xlink:href="#E"/></g></g><use y="9.4" fill="#339" xlink:href="#A"/><g transform="matrix(.421 -.421 .421 .421 -53.9 28.3)" fill="#eee"><use xlink:href="#B"/><use xlink:href="#C"/><use xlink:href="#D"/><use xlink:href="#E"/></g><g transform="matrix(.595 0 0 .595 -54.5 15.7)"><use fill="#339" xlink:href="#F"/><g transform="rotate(315 17.6 29.5)" fill="#eee"><use xlink:href="#B"/><use xlink:href="#C"/><use xlink:href="#D"/><use xlink:href="#E"/></g></g><use y="18.8" fill="#339" xlink:href="#A"/><g transform="matrix(.421 -.421 .421 .421 -53.9 37.7)" fill="#eee"><use xlink:href="#B"/><use xlink:href="#C"/><use xlink:href="#D"/><use xlink:href="#E"/></g><g transform="matrix(.595 0 0 .595 -54.5 25.1)"><use fill="#339" xlink:href="#F"/><g transform="rotate(315 17.6 29.5)" fill="#eee"><use xlink:href="#B"/><use xlink:href="#C"/><use xlink:href="#D"/><use xlink:href="#E"/></g></g></g></svg>