<svg xmlns="http://www.w3.org/2000/svg" xmlns:xlink="http://www.w3.org/1999/xlink" width="150" height="200" viewBox="0 0 39.7 52.9"><defs><path id="A" d="m-40.4 129a6.7 6.7 0 1 1-13.4 0 6.7 6.7 0 1 1 13.4 0z"/><path id="B" d="m-98.6 53.7s-1.2 1-2.7 1-2.7-1-2.7-1 1.2-1 2.7-1 2.7 1 2.7 1z"/><path id="C" d="m-97.9 53.7s1.2-1 2.7-1 2.7 1 2.7 1-1.2 1-2.7 1c-1.4 0-2.7-1-2.7-1z"/><path id="D" d="m-98.2 54.1s1 1.2 1 2.7-1 2.7-1 2.7-1-1.2-1-2.7 1-2.7 1-2.7z"/><path id="E" d="m-98.2 53.4s-1-1.2-1-2.7 1-2.7 1-2.7 1 1.2 1 2.7-1 2.7-1 2.7z"/><path id="F" d="M-40.4 129a6.7 6.7 0 1 1-6.7-6.7c3.7-.1 6.7 3 6.7 6.7z"/></defs><g transform="matrix(1.32 0 0 1.32 98.9 -87.1)"><g transform="matrix(.595 0 0 .595 -32 9.51)"><use fill="#b32" xlink:href="#A"/><g transform="rotate(315 17.6 29.5)" fill="#eee"><use xlink:href="#B"/><use xlink:href="#C"/><use xlink:href="#D"/><use xlink:href="#E"/></g></g><g transform="matrix(.595 0 0 .595 -23 9.51)"><use fill="#b32" xlink:href="#A"/><g transform="rotate(315 17.6 29.5)" fill="#eee"><use xlink:href="#B"/><use xlink:href="#C"/><use xlink:href="#D"/><use xlink:href="#E"/></g></g><g transform="matrix(.595 0 0 .595 -41 9.51)"><use fill="#b32" xlink:href="#F"/><g transform="rotate(315 17.6 29.5)" fill="#eee"><use xlink:href="#B"/><use xlink:href="#C"/><use xlink:href="#D"/><use xlink:href="#E"/></g></g><g transform="matrix(.595 0 0 .595 -32 -1.99)"><use fill="#339" xlink:href="#A"/><g transform="rotate(315 17.6 29.5)" fill="#eee"><use xlink:href="#B"/><use xlink:href="#C"/><use xlink:href="#D"/><use xlink:href="#E"/></g></g><g transform="matrix(.595 0 0 .595 -23 -1.99)"><use fill="#339" xlink:href="#A"/><g transform="rotate(315 17.6 29.5)" fill="#eee"><use xlink:href="#B"/><use xlink:href="#C"/><use xlink:href="#D"/><use xlink:href="#E"/></g></g><g transform="matrix(.595 0 0 .595 -41 -1.99)"><use fill="#339" xlink:href="#F"/><g transform="rotate(315 17.6 29.5)" fill="#eee"><use xlink:href="#B"/><use xlink:href="#C"/><use xlink:href="#D"/><use xlink:href="#E"/></g></g><g transform="matrix(.595 0 0 .595 -32 21)"><use fill="#084" xlink:href="#A"/><g transform="rotate(315 17.6 29.5)" fill="#eee"><use xlink:href="#B"/><use xlink:href="#C"/><use xlink:href="#D"/><use xlink:href="#E"/></g></g><g transform="matrix(.595 0 0 .595 -23 21)"><use fill="#084" xlink:href="#A"/><g transform="rotate(315 17.6 29.5)" fill="#eee"><use xlink:href="#B"/><use xlink:href="#C"/><use xlink:href="#D"/><use xlink:href="#E"/></g></g><g transform="matrix(.595 0 0 .595 -41 21)"><use fill="#084" xlink:href="#F"/><g transform="rotate(315 17.6 29.5)" fill="#eee"><use xlink:href="#B"/><use xlink:href="#C"/><use xlink:href="#D"/><use xlink:href="#E"/></g></g></g></svg>