<svg xmlns="http://www.w3.org/2000/svg" width="150" height="200" viewBox="0 0 39.7 52.9"><path d="M2.215 8.015c.053.609.08.662.928 1.537.45.477.689.928.689 1.352s-.053.556-.61 1.696l-.715 1.484-.106.027v-.239l.106-2.12c0-.08-.053-.265-.398-.981-.345-.848-.504-1.352-.504-1.828 0-.45.133-.689.504-.98zm.239 7.817c.133.079.133.132.239.344.106.239.239.371.345.371.239 0 .265-.053 1.272-2.888l.689-1.775.185-.609h.133c-.026.636-.08 1.166-.345 2.597-.265 1.404-.609 3.922-.609 4.585l.026.477c0 .583-.133.901-.424.901-.636 0-1.749-2.067-1.749-3.312 0-.186.026-.318.106-.61zm.477-8.507c.159-.159.265-.239.291-.292l.795-.715c.159-.133.265-.318.265-.398 0-.132-.08-.291-.212-.477-.477-.715-.715-1.219-.795-1.617l.053-.106.318-.053c.371 0 .874.239 1.828.848.715.45 1.034.954 1.034 1.59a.84.84 0 0 1-.239.583c-.265.238-.265.238-1.458.291-.477.053-.874.133-1.775.398zm2.968 8.877c-.026.159-.026.318-.026.424 0 .291.133.424.318.424.239 0 .53-.08.848-.239.689-.318.875-.424 1.192-.424.159 0 .318.053.504.08l.45.106c.133 0 .371-.08.715-.239.424-.212.769-.291 1.166-.291h.238c.371.053.61.053.61.053.106 0 .398-.08.769-.186.795-.238 1.669-.424 2.226-.424.981 0 2.359 1.272 2.359 2.173 0 .186-.106.398-.291.477-.239.132-.239.132-1.457.159l-.954.106c-.106.026-.477.053-.848.053l-.026-.133c.981-.662 1.749-1.352 1.749-1.669 0-.238-.424-.477-.795-.477-.556 0-1.113.318-1.855 1.034-.212.212-.398.318-.53.318-.212 0-.477-.159-.901-.557-.239-.212-.477-.318-.636-.318-.133-.026-.398.133-.61.371-.61.636-.742.742-1.007.742-.133 0-.371-.106-.556-.265-.345-.318-.583-.477-.715-.477s-.345.106-.53.239c-.345.291-.345.291-.98 1.325-.106.159-.239.265-.371.265-.477 0-.875-.689-.875-1.563 0-.715.212-1.087.689-1.245zm1.458-6.572c-.053.132-.053.212-.053.265s.026.185.08.318c.424-.716 1.166-1.378 1.961-1.829.928-.503.954-.503 1.431-1.219.715-1.06 1.033-1.643 1.033-1.935 0-.132-.159-.238-.45-.238-.371 0-.371 0-1.219.98-.742.901-1.696 1.564-2.173 1.564-.08 0-.212-.053-.239-.133-.08-.132-.185-.822-.185-1.139 0-.265.08-.345.715-.689.424-.212.636-.451.874-.901.212-.371.318-.795.318-1.007s-.08-.397-.318-.768l.053-.106c.106-.027.185-.027.265-.027.239 0 .477.08.742.212.53.265.742.451 1.06 1.007.821.053 1.06.133 1.457.503.556.504.822.901.822 1.272 0 .239-.053.318-.583.689l-.583.557c-.636.53-.636.53-.636.662 0 .053.106.159.159.159l1.086-.106c.053 0 .663.239.928.371.795.424 1.484 1.272 1.484 1.855 0 .238-.026.238-.556.822-.291.398-.398.61-1.299 2.809-.344.901-.848 1.431-1.325 1.431-.239 0-.345-.133-.45-.371l-2.067.556-2.703.53-.026-.133c.795-.424 1.219-.715 1.193-.927 0-.053-.053-.159-.133-.265-.875-.98-.901-1.087-.98-2.412l-.239-.901c-.088-.265-.132-.542-.133-.822 0-.424.239-.795.504-.795.053 0 .106.026.185.053zm2.597.822c0-.689-.106-.768-.928-.768-.715 0-1.298.424-1.298.954 0 .212.053.53.133.874.212.768.291 1.272.424 2.385.715-.08 1.643-.901 1.749-1.564-.239.053-.424.053-.556.053-.291 0-.371-.053-.875-.45-.371-.291-.424-.318-.53-.583l.026-.053 1.882-.689v-.159zm1.14 2.995c.424.027.504.027.98.133.53-1.193.769-1.829.98-2.623l.424-1.749c0-.318-.291-.689-.53-.689-.106 0-.239.053-.424.106 0 .026-.45.185-.901.318-.239.079-.344.212-.318.318l.026.424.026.583a.39.39 0 0 0 .132.159c.026 0 .133.053.345.132.265.133.477.424.477.715 0 .265-.133.424-.53.795a2.04 2.04 0 0 0-.689 1.378z" fill="#084"/><path d="M37.274 13.05c-.663 0-1.113-.027-1.404-.08-.398-.106-.609-.371-.609-.822V2.821c-.822.424-2.12.689-3.843.795v.848h1.563c.477 0 .716.185.716.583v7.102c0 .344-.08.583-.239.662-.239.159-.848.239-1.855.239v.874h5.645v-.874z" fill="#b32"/><path d="M15.2 33.72c-.344-.742-.53-1.537-1.007-2.093-.556-.663-.424-1.113 0-1.696 1.935-2.623 5.035-3.418 7.977-2.014l3.684 1.987c.238.159.397.689.344 1.034-.106.636-.371 1.272-.583 1.908l4.346.928c2.862.874 3.551 2.915 1.776 5.3l-5.909 7.579c-2.2 2.358-6.307 2.491-8.666.292-2.491-2.305-4.797-4.876-6.943-7.526-1.352-1.643-.795-3.392 1.14-4.346 1.166-.503 2.438-.822 3.842-1.352zm7.42 13.859c-.186-.53-.186-.663-.265-.769l-8.878-10.494c-.636-.742-1.166-.795-1.723.053.053.106.08.239.159.345l8.878 10.176c.345.371 1.06.398 1.829.689zm-6.731-14.416c.159.583.716.954 1.299.901 2.04-.212 3.948-.45 5.909-.583 1.351-.079 1.669-.768 1.59-1.855h-9.195c.132.583.265 1.06.397 1.537zm8.48-2.756c-2.385-2.623-7.605-2.995-9.275.477zm-7.658 4.478c-.079.159-.159.291-.239.45l8.851 10.52.821-1.033-8.241-9.434c-.239-.265-.768-.318-1.192-.503zm-2.332.185c-.106.132-.185.291-.291.424l9.328 11.051c.159.212.663.132 1.007.186-2.889-3.843-5.883-7.42-8.904-10.945-.291-.318-.769-.477-1.14-.715zm-3.445 2.067c-.345 2.279 5.83 9.222 8.745 10.176zm8.347-2.544c-.079.159-.133.318-.212.477l7.632 8.904c.133-.053.265-.079.424-.132-.079-.398-.079-.848-.291-1.139-1.908-2.465-3.843-4.929-5.857-7.314-.344-.424-1.113-.53-1.696-.795zM28 42.305c.981-.556.742-1.087.239-1.643l-4.929-5.591c-.239-.265-.663-.371-1.007-.53-.079.106-.159.239-.239.345zm-3.154-7.977c-.079.106-.186.212-.265.318l4.32 5.141c.159.159.503.159.742.238-.053-.291 0-.662-.159-.848l-3.869-4.425c-.186-.185-.504-.291-.769-.424zm5.777 4.319l.503-.503c-1.299-1.246-2.2-2.888-3.763-3.895-.106.106-.212.212-.344.318zm.954-1.245c0-1.802-.874-2.73-2.465-2.809z" fill="#b27"/><path d="M5.13 26.3c.159-.424.769-.424.901 0 .08.238-.026.503 0 .768.212 2.517 1.06 3.1 3.604 1.961.98-.451 1.723-1.404 2.517-2.147 2.279-2.12 4.505-2.809 7.791-2.305l.689-2.65.689-2.73-1.325-.689c-.928-.61-1.749-1.352-1.643-2.57.106-1.325 1.166-1.802 2.226-2.252.159-.053.344-.053.503-.106 1.802-.398 2.146-.742 2.173-2.57 0-.318-.344-.742-.663-.928-1.802-1.033-2.173-2.782-.212-4.187.848-.583 1.537-1.352 2.358-1.987.265-.212.822-.424.954-.318.265.238.503.742.424 1.06-.239 1.378-.503 2.809-.954 4.134-.344.954.026 1.166.768 1.484.61.265 1.272.715 1.59 1.272.715 1.245.159 2.544-1.246 2.517-2.491-.027-2.862 1.457-3.18 3.365-.159.954-.026 1.139.848 1.51 1.484.583 2.915 1.404 4.187 2.385 1.166.901 1.219 2.252.477 3.737-.636 1.298-2.014 2.2-3.259 2.067l-3.312-.477c-.636-.106-1.246-.424-1.643.424-.053.106-.451.186-.636.106s-.424-.371-.398-.503c.345-1.06-.477-.981-1.007-.954-2.12.079-4.028.715-5.512 2.385-1.299 1.457-2.756 2.703-4.929 2.57-2.226-.133-3.525-2.226-2.783-4.373zm16.033-.954c1.616.159 3.047.503 4.452.344.689-.079 1.431-1.033 1.776-1.775.212-.424-.106-1.457-.53-1.775-1.245-.954-2.624-1.669-4.134-2.57zm1.14-10.547c-.716.186-1.219.239-1.564.451-.371.238-.954.874-.874.98.345.557.874.981 1.325 1.458.239-.424.556-.822.716-1.246.159-.397.212-.874.398-1.643zm1.828-8.135c-.079-.053-.159-.132-.238-.185-.477.53-1.113.98-1.378 1.59-.106.239.689.848 1.219 1.458l.397-2.862zm.053 6.493l2.173-.663.079-.397-1.696-1.192-.556 2.252z" fill="#339"/><path d="M38.017 44.585c-.318.185-.504.318-.715.371-1.882.53-2.518 1.988-2.862 3.737-.08.371-.451.716-.689 1.06-.345-.265-.848-.451-1.034-.795-.636-1.219-1.113-2.544-2.756-2.782-.133-.026-.371-.689-.291-.768.239-.212.716-.477.928-.371.689.318 1.272.822 2.12 1.404.239-1.034.318-2.041.689-2.942.583-1.325 1.352-2.623 2.173-3.843.185-.265.954-.159 1.431-.212-.159.398-.212.928-.503 1.192-1.193 1.087-1.908 2.332-1.882 4.108 1.113-.398 1.987-1.564 3.392-.159zM4.096 39.1c.371.53.98 1.007 1.113 1.59.318 1.457.45 2.941.636 4.426l.265 2.544c1.272-.848 2.279-2.093 3.975-.874-1.723.636-3.604 1.007-4.055 3.074-.795.132-1.378 0-1.405-.874-.026-1.749-.848-2.994-2.252-3.948-.106-.079-.133-.292 0-.715l2.465 1.325c-.08-1.007-.053-2.094-.239-3.127-.185-1.06-.609-2.094-.901-3.127a3.6 3.6 0 0 0 .398-.292z" fill="#084"/><path d="M15.73 46.175c.106.345.318.716.291 1.06a23.95 23.95 0 0 1-.477 2.756c-.053.212-.344.398-.53.583-.133-.265-.398-.557-.371-.822.053-.583.265-1.166.398-1.749l.318-1.749.371-.079z" fill="#339"/></svg>