<svg xmlns="http://www.w3.org/2000/svg" width="150" height="200" viewBox="0 0 39.7 52.9"><g transform="matrix(.265 0 0 .265 58.9 11.7)"><path d="M-214-14.6c.2 2.3.3 2.5 3.5 5.8 1.7 1.8 2.6 3.5 2.6 5.1s-.2 2.1-2.3 6.4l-2.7 5.6-.4.1v-.8l.4-8c0-.3-.2-1-1.5-3.7-1.3-3.2-1.9-5.1-1.9-6.9 0-1.7.5-2.6 1.9-3.7zm.9 29.5c.5.3.5.5.9 1.3.4.9.9 1.4 1.3 1.4.9 0 1-.2 4.8-10.9l2.6-6.7c.1-.3.3-1.1.7-2.3h.5c-.1 2.4-.3 4.4-1.3 9.8-1 5.3-2.3 14.8-2.3 17.3l.1 1.8c0 2.2-.5 3.4-1.6 3.4-2.4 0-6.6-7.8-6.6-12.5 0-.7.1-1.2.4-2.3zm1.8-32.1c.6-.6 1-.9 1.1-1.1 1-.9 2-1.7 3-2.7.6-.5 1-1.2 1-1.5 0-.5-.3-1.1-.8-1.8-1.8-2.7-2.7-4.6-3-6.1l.2-.4c.5-.1 1-.2 1.2-.2 1.4 0 3.3.9 6.9 3.2 2.7 1.7 3.9 3.6 3.9 6 0 .9-.4 1.7-.9 2.2-1 .9-1 .9-5.5 1.1-1.8.2-3.3.5-6.7 1.5zm11.2 33.5c-.1.6-.1 1.2-.1 1.6 0 1.1.5 1.6 1.2 1.6.9 0 2-.3 3.2-.9 2.6-1.2 3.3-1.6 4.5-1.6.6 0 1.2.2 1.9.3.9.2 1.5.4 1.7.4.5 0 1.4-.3 2.7-.9 1.6-.8 2.9-1.1 4.4-1.1h.9c1.4.2 2.3.2 2.3.2.4 0 1.5-.3 2.9-.7 3-.9 6.3-1.6 8.4-1.6 3.7 0 8.9 4.8 8.9 8.2 0 .7-.4 1.5-1.1 1.8-.9.5-.9.5-5.5.6l-3.6.4c-.4.1-1.8.2-3.2.2l-.1-.5c3.7-2.5 6.6-5.1 6.6-6.3 0-.9-1.6-1.8-3-1.8-2.1 0-4.2 1.2-7 3.9-.8.8-1.5 1.2-2 1.2-.8 0-1.8-.6-3.4-2.1-.9-.8-1.8-1.2-2.4-1.2-.5-.1-1.5.5-2.3 1.4-2.3 2.4-2.8 2.8-3.8 2.8-.5 0-1.4-.4-2.1-1-1.3-1.2-2.2-1.8-2.7-1.8s-1.3.4-2 .9c-1.3 1.1-1.3 1.1-3.7 5-.4.6-.9 1-1.4 1-1.8 0-3.3-2.6-3.3-5.9 0-2.7.8-4.1 2.6-4.7zm5.5-24.8c-.2.5-.2.8-.2 1s.1.7.3 1.2c1.6-2.7 4.4-5.2 7.4-6.9 3.5-1.9 3.6-1.9 5.4-4.6 2.7-4 3.9-6.2 3.9-7.3 0-.5-.6-.9-1.7-.9-1.4 0-1.4 0-4.6 3.7-2.8 3.4-6.4 5.9-8.2 5.9-.3 0-.8-.2-.9-.5-.3-.5-.7-3.1-.7-4.3 0-1 .3-1.3 2.7-2.6 1.6-.8 2.4-1.7 3.3-3.4.8-1.4 1.2-3 1.2-3.8s-.3-1.5-1.2-2.9l.2-.4c.4-.1.7-.1 1-.1.9 0 1.8.3 2.8.8 2 1 2.8 1.7 4 3.8 3.1.2 4 .5 5.5 1.9 2.1 1.9 3.1 3.4 3.1 4.8 0 .9-.2 1.2-2.2 2.6l-2.2 2.1c-2.4 2-2.4 2-2.4 2.5 0 .2.4.6.6.6l4.1-.4c.2 0 2.5.9 3.5 1.4 3 1.6 5.6 4.8 5.6 7 0 .9-.1.9-2.1 3.1-1.1 1.5-1.5 2.3-4.9 10.6-1.3 3.4-3.2 5.4-5 5.4-.9 0-1.3-.5-1.7-1.4l-7.8 2.1-10.2 2-.1-.5c3-1.6 4.6-2.7 4.5-3.5 0-.2-.2-.6-.5-1-3.3-3.7-3.4-4.1-3.7-9.1l-.9-3.4a9.87 9.87 0 0 1-.5-3.1c0-1.6.9-3 1.9-3 .2 0 .4.1.7.2zm9.8 3.1c0-2.6-.4-2.9-3.5-2.9-2.7 0-4.9 1.6-4.9 3.6 0 .8.2 2 .5 3.3.8 2.9 1.1 4.8 1.6 9 2.7-.3 6.2-3.4 6.6-5.9-.9.2-1.6.2-2.1.2-1.1 0-1.4-.2-3.3-1.7-1.4-1.1-1.6-1.2-2-2.2l.1-.2c3-1.2 3.5-1.3 7.1-2.6v-.6zm4.3 11.3c1.6.1 1.9.1 3.7.5 2-4.5 2.9-6.9 3.7-9.9 1.6-5.9 1.6-5.9 1.6-6.6 0-1.2-1.1-2.6-2-2.6-.4 0-.9.2-1.6.4 0 .1-1.7.7-3.4 1.2-.9.3-1.3.8-1.2 1.2l.1 1.6.1 2.2c.1.2.3.5.5.6.1 0 .5.2 1.3.5 1 .5 1.8 1.6 1.8 2.7 0 1-.5 1.6-2 3-1.5 1.3-2.5 3.4-2.6 5.2z" fill="#084"/><path d="M-81.7 4.6c-2.5 0-4.2-.1-5.3-.3-1.5-.4-2.3-1.4-2.3-3.1V-34c-3.1 1.6-8 2.6-14.5 3v3.2h5.9c1.8 0 2.7.7 2.7 2.2V1.1c0 1.3-.3 2.2-.9 2.5-.9.6-3.2.9-7 .9v3.3h21.3V4.6z" fill="#b32"/><path d="M-158 125c-2 5.6-3.8 11.3-5.6 17-.4 1.3-.8 2.8.8 3.6 1.7.9 2.8-.1 3.6-1.5l6.6-11.8 2-3.4c-2.6-2-4.8-4.3-7.4-6.3.3.8.3 1.5 0 2.4z" fill="#339"/><path d="M-79.6 78.5c-.2-4.1-2.4-7-6-8.9-4.6-2.3-9.5-2.5-14.5-2.6-3.5-.1-7.1 0-11.1 0 .6-1.4 1-2.4 1.5-3.4 1.8-4 3.6-7.9 4.1-12.3.3-2.4-.3-4.3-2.2-5.6-3.7-2.7-6.8-3.3-11.4-4.5-.8-.2-6.9-2-10-2.7l-3.6-.9c-.7-.2-1-.6-1-1.1-1.4-.3-2.7-.3-4.1-.3-.4.4-1 .6-1.7.7-8 1.8-15.9 3.9-22.7 8.8-3.4 2.5-4.5 4.8-3.1 8.8 1.3 3.7 2.8 7.3 4.2 10.9.5 1.4 1.1 2.8 1.7 4.3l-7.4.9c-7 1-13.2 3.6-18.4 8.5-1.7 1.6-2.4 3.4-2.3 5.7.2 3 1.7 5.4 3.4 7.6 7.6 10.3 16.4 19.5 25.5 28.6.5.5.8.9 1 1.4 2.6 2 4.8 4.4 7.4 6.3 0-.1.1-.2.1-.2 2.5 1.1 4.6 2.3 6.8 2.9 6.5 2 12.9.6 19.4-.3 5.4-.7 10-2.7 13.8-6.4.8-.7 1.6-1.4 2.3-2.2l13.1-15.5c4.6-5.8 9.8-11.1 12.9-17.9 1-2.2 2.5-7.1 2.3-10.6zm-63.9-38.6c7.6-2 11.2-.1 18.3 1.7 3.4.8 7.3 2.3 9.5 3 1 .3 2.9 1.5 3.7 2.1 1.8 1.4 1.6 2.5-.5 3.4-13.9 5.7-28 6.6-42.5 2-1.8-.6-5.6-1.3-7.4-2.3 3-3.5 12.6-8.2 18.9-9.9zM-161.3 56c.2-.3-1.5-3.6-1.3-3.8 16.5 6 35.1 7.5 51.8.5-.5 1.4-.7 2.1-.9 2.8-.9 2.6-2 5.1-2.9 7.7-1.4 4.1-1.3 4.2-5.7 4.5l-30.4 2c-4.6.3-4.7.2-6.4-3.9-1.3-3.7-2.8-6-4.2-9.8zm76.2 30.5c-1.9 3.8-4.3 7.4-6.9 10.8-5.2 6.7-10.7 13.3-16.2 19.8-1.3 1.6-2.8 3.1-4.2 4.6-3.9 4-9 5.6-14.4 6.2-3.9.4-7.9.8-11.8.6-5.9-.3-10.5-3.8-14.5-7.5-10-9.3-19.3-19.3-27.4-30.2-1-1.4-1.8-2.8-2.7-4.3-1.1-1.9-.7-3.6.9-4.9 3.7-3 7.7-5.2 12.4-6.5 7.5-2 15.2-1.7 22.9-2.2l37.6-2.3c2.2-.1 4.3 0 6.5 0 0-.1 7.3.2 10.8.8 9.7 1.8 10.5 7.9 7 15.1z" fill="#b27"/><path d="M-134 36.4c-.1-.7.3-1.5.5-2.5.4-2.1 9.5-39.8 14.2-59.2.3-1.1 1.5-2.9-.3-3.4-2.1-.6-2.1 1.6-2.4 2.9l-6.1 23.9-9 36.4c-.2.7-.5 1.2-.9 1.6 1.3 0 2.6.1 4 .3z" fill="#339"/><path d="M-202 70.1c14.8-3 20.2-10.8 23.7-21.2 2.3-7 5.8-10.3 14.5-12.5 12.1-3 18.3-2.3 27.2-.8 30.1 5.1 36.3 2.3 4.3-10.8-.1-.1-1.2-.5-1.4-.5-22.6-7.9-27.2-15.7 4.3-15 2.9.1 6.3.1 8.9.1 12.1.2 12.4-5.8-1.9-11.8-5.2-2.2-9.3-3.2-13.7-4.6-25.8-8.3-16.5-11.9 5.4-13.5 6.8-.5 11.5-4.2 11.5-7.7" fill="none" stroke="#339" stroke-linecap="round" stroke-miterlimit="10" stroke-width="1.5"/><path d="M-175 102c.8 1.3 2 2.4 3.3 3.4l-10.4-26.7-1.9 1.3 7.8 20.8c.5.2.9.6 1.2 1.2zm12.2 12.4l-14.9-38.6-.6.3a9.13 9.13 0 0 0-1.3.8l12.1 32.2zm8.7 8.5L-173 74.1l-2 .6 16.7 44.4c1.3 1.4 2.7 2.7 4.2 3.8zm7.5 5.6L-168 73.2l-2.1.3 19.6 52c1.4.9 2.7 1.8 3.9 3zm-18.2-55.7h-.2l21.2 56.2c1.1.6 2.1.8 3 .5l-22-56.9c-.6 0-1.3.1-2 .2zm5.1-.6l21.4 56.8c1.1.6 2.1.8 3 .5L-157.5 72zm7.3-.7c-.7 0-1.4.1-2.1.2l21.6 57.3c1.1.6 2.1.8 3 .5zm5.2-.6l-2.1.3 21.8 57.8c1.1.6 2.1.8 3 .5zm25.7 58.4l1.7-1.4-22.3-57.8-2.1.3 22 58.6c.3.1.5.2.7.3zm5.9-4.6l-21.1-54.5c-.5.2-1 .2-1.6.2h-.5l21 55.9c.8-.5 1.5-1 2.2-1.6zm4.1-3.3l-20.1-51.8h-.3c-.5.2-1.1.4-1.7.4l20 53.1zm4.1-3.6l-18.8-48.4c-.8-.2-1.4-.1-2 .5l18.7 49.8c.7-.7 1.4-1.3 2.1-1.9zm3.8-4.1l-17.2-44.3c-.8-.2-1.4-.1-2 .5l17.3 46c.6-.8 1.3-1.5 1.9-2.2zm3.8-4.2l-15.6-40.1c-.8-.2-1.4-.1-2 .5l15.7 41.8c.6-.8 1.3-1.5 1.9-2.2zm3.7-4.3L-110 69.4c-.8-.2-1.4-.1-2 .5l14 37.5zm3.8-4.2l-12.3-31.6c-.8-.2-1.4-.1-2 .5l12.4 33.2zm2.8-4.1c.2-.3.5-.6.7-.9l-10.4-26.7c-.8-.2-1.4-.1-2 .5l10.7 28.5zm3-3.7a9.13 9.13 0 0 1 .8-1.3c.2-.2.3-.4.5-.6l-8.6-22c-.8-.2-1.4-.1-2 .5l8.9 23.8a.78.78 0 0 0 .4-.4zm2.9-5.9c.2-1.1.7-2 1.3-2.5l-6-15.4c-.8-.2-1.4-.1-2 .5l6.6 17.8c0-.2.1-.3.1-.4z" fill="#b27"/><g fill="#d71"><g stroke="#d71" stroke-miterlimit="10" stroke-width=".5"><path d="M-186 102c-.1-.5-2-4.8-2.1-4.9-.1-.3-3.6-9.6-3.7-9.8-.1-.5-.3-.9-.6-1.2-.2-.2-1.3-2.4-1.7-3.1 0 0-1.2-1.9-1.5-2.3-.2-.3-.4-.6-.6-1-.3-.6-1.4-1.9-1.5-2-.2-.2-.5-.4-.7-.6-.4-.3-.7-.7-1.1-1-.7-.5-1.4-.9-2.1-1.3-.5-.3-2-.2-2.3-.2-1.1.1-.9 2.3-.9 2.9 0 .8-2.5.1-3.3-.1-.7-.2-.8-.1-1.1.6 0 .1-1.6 5.2-1.6 5.3-.3 1.1-.5 2.1-.8 3.2-.1.3-.2 3.1-.3 3.2-.1.4-.2.9-.2 1.3 0 .5-.4 4-.4 4.4 0 .3-.3 2-.4 2.2-.1.6-.3 1.3-.4 2-.1.6-.2 1.1-.2 1.7 0 .9.1 1.9.1 2.8 0 1.1 0 2.3.4 3.3.1.4.4 2.4.5 3 0 .3.8 3.6 1 4.3l1 4.8c.1.6.2 1.2.5 1.8.1.1 0 .3 0 .5-.1.7.1 1.4.2 2.1 0 .2.2.4.3.5.1.3.4.4.7.4s.4-.2.5-.5c0-.2-.1-.4-.2-.6-.1-.3-.2-.6-.2-.9v-.8c0-.1 0-.3.1-.4v-1.5c0-1-.3-1.9-.6-2.8-.1-.3-.2-.5-.3-.8-.5-.8-.7-2-.9-2.6-.1-.5-.4-1.6-.6-2.1-.2-.6-.4-1.8.2-1.9.8-.1 1.4-1 1.2-1.8-.1-.3-.1-.6-.1-1s.1-.8.1-1.2-.1-.8 0-1.2c.1-.3.1-.5-.2-.6-.1-.1-.3-.1-.4 0-.2.2-.3.4-.2.7.1.2.1.4.1.6l-.6 2.1c-.5-.1-1-.5-1-1.1 0-.1 0-.3-.1-.4-.3-.4-.2-.9-.2-1.4 0-.4.2-.7.6-.7.5 0 .9-.1 1.4-.1.4 0 .5-.2.6-.6.1-.5.2-1.1.1-1.6s0-1-.1-1.5c-.3-1-.6-1.5-1.5-2.1-.4-.3-.1-2.4.3-4.4.4-1.9.5-4.1.6-4.6.1-.3 2.9.1 8.7-.7.6-.1 2.6-1.1 3.1-1.4.7-.5 1.4-1.1 2.1-1.6.3-.2.7-.2 1 .1s1.2 1.1 1.3 1.2c.5.8 1 1.7 1.4 2.5 0 .1 1.4 4.6 1.4 5.1 0 .3 2.3 6.4 2.7 6.9.3.4.7.7.9 1.1.1.2.1.6 0 .9-.2.3-.6.2-.8 0-.3-.2-.7-.4-1-.7s-.6 0-.8.1-.3.4-.3.6.2.4.3.6c.4.7.9 1.3 1.4 2 .2.4.1.7-.2.9s-.6.3-.9.4c-.3 0-.6.1-.7.4-.2.4-.1.7.2 1 .5.5.9 1 1.4 1.5.2.3.5.5.8.3.2-.2.5-.5.6-.7 0-.8 1.3-3.6 1.4-3.7.5-.7.6-1.5.8-2.3 0-.3-.4-.9-.6-1.5zm-25.5-2.2c.3.3.5.6.7.9.1.1.1.3.1.3 0 .6-.2.9-.5 1s-.6-.2-.7-.7-.2-.9 0-1.4c0-.3.2-.3.4-.1zm14.9-15.4c-1 1.1-2.6 2-4.8 2.7-2.1.7-5.1.8-6.8.7-.4 0-1.7.2-1.6-.7.2-1.4.5-3.8 1.3-5.2.2-.4.5-1.5.6-1.6.2-.4.4-.8.5-1.2s.4-.5.8-.4.9.2 1.3.3c.5.1 1.3-.5 1.6-1.1.4-.9.3-2.2 1.3-2.3.4 0 1.4.9 1.6 1.1 1.3 1.2 2.4 2.9 2.6 3.2 1.2 1.6 1.3 3 1.4 3.2.1.1.4 1.2.2 1.3zm5.2 56.2c-.5-.8-1.1-1.5-1.2-2.5-.1-.7-1.8-5.9-2.1-6.3-.2-.1-.4-.3-.6 0-.1.3-.2.6-.2.9s.3.7.2 1c-.1 1.1.5 2 .8 3 .1.5.4 1.1.6 1.6l.6 1.4.3.9c.1.4-.1.7-.5.6-.3 0-.5-.2-.8-.3-.4-.1-.7-.3-1.1-.5l-.8-.3c-.8-.5-.8-1.4-.7-2.2 0-.3.1-.6.1-1v-2.6c0-.4-.1-.9-.1-1.3l-.2-1.7c0-.4-.2-.9-.1-1.3.3-.9.2-1.7-.1-2.5-.1-.2-.3-.3-.4-.3s-.4.1-.4.2c-.1.3-.2.6-.2.9-.1.4-.1.7-.2 1.1l.1 2.8c.1.3.1.6 0 .9l.2 4c0 .5-.7.5-.8.2h-.1c-.2 0-.3-.1-.3-.2-.2 0-.5-.1-.5-.4l.3-6.2v-.4c0-.9-.1-1.7-.3-2.6-.1-.1-.3-.1-.5-.1-.1 0-.2 0-.2.1-.6 2.3-.6 4.7-.6 7 .1.1.1.3 0 .5v1.1c0 .5-.8.5-.8 0v-1.5c0-1.4-.3-4.3-.3-4.4 0-1.2-.2-2.3-.4-3.5h-.5s-.1 0-.1.1c-.4.3-.5.9-.5 1.4 0 .4 0 .8.1 1.3 0 .7.1 1.4.2 2.1 0 .5.1 1.1.2 1.6.1.6.1 1.2.2 1.8 0 .3.1.6.1.8 0 .5-.4.8-.8.7-.4 0-.6-.3-.6-.8 0-.2.1-.5.1-.7 0-.5-.4-3-.4-3.1 0-.6.2-3 .2-3.4h-.1v-.7c0-.4-.3-.6-.7-.7-.2 0-.5.1-.5.3-.1.2-.1.5 0 .7.3.8.3 1.5.2 2.3-.1.6-.1 1.2-.2 1.8v1.1l.2 2.5c0 .3 0 .6-.1.9-.1.5-.3.9-.5 1.4-.1.1-.4.2-.5.2-.4-.2-.6-.4-.6-.9v-1.8c0-.1.1-.2.1-.3.1-.3.2-.6.2-.8 0-.5-.1-1-.1-1.5 0-.6-.1-.9-.7-1.1-.4.8-.5 1.7-.7 2.6.2.3-.1 1.3-.1 1.5l-.1 3c0 .7-.4 1.1-1.1 1.2-.3 0-.5.1-.8.2-.3-.1-.5-.1-.8-.2-.1 0-.2-.2-.2-.4s0-.4.1-.6c.3-.7.5-1.5 1-2.1.1-.1.2-.4.2-.6v-.3c.3-.5.5-1 .8-1.6.2-1.2.4-2.4.9-3.4 0-.2 0-.4.2-.5.1-.2.2-.5.2-.7.1-.6.2-1.2.2-1.8l-.1-2.3c0-.1-.3-.3-.4-.4-.1.2-.3.3-.3.5-.1.6-.1 1.2-.2 1.8 0 .5-.1.9-.2 1.4 0 .6-.1 1.3-.5 1.8-.1.2-.2.4-.2.6 0 .8-.4 1.6-.7 2.3-.3.6-.7 1.1-.8 1.8-.1.3-.2.7-.4 1l-.3.6-.9 3c-.2 1 .5 2.1 1.5 2.3.2 0 1.1-.1 1.2-.2.3-.3 2.4-.9 4.9-2.5 2.7-1.7 4.2-1.2 5.7-.3.4.2 2.8 2 3 2.1s.4.1.6.2l2.6 1.4c.7.3-.1 0 .6.2s1.2.1 1.4-.6c.1-.3.2-.5.3-.7.3-.7.2-1.1-.2-1.6zM-193 124c.1.3-.2 3.7-.5 4.5-.2.6-.5 1.2-.8 1.8-.2.3-.5.2-.6.1-.2-.1-.3-.4-.3-.6 0-.3.9-8 2.3-9.5.3-.4 1.7-.4 2-.9.2-.3-.6-.8-.9-2-.3-.8-.8-1.8-.2-1.9s.8 0 .9.6c0 .3.2 1.5.5 1.5.3.9.6 1 1.1.6.2-.4.4-1.1.6-.9.2.3-.2 1.7-.5 2.1-.1.1-.1.3-.2.5s-.1.3-.2.5c-.3.7-.8.9-1.5.8-.1 0-.3.2-.4.2-1.2.5-1.1 1.6-1.3 2.6z"/><path d="M-188 112c-.1.7-.1 1.4-.1 2v.1c-.5.7-.2 1.4-.1 2.1.1.4-.9 2.9-1.2 3s.2-2.5.2-2.8c0-.6-.4-1.1-.7-1.6-.1-.2-.3-.4-.5-.5-.9-.6-1.3-1.4-1.1-2.5.1-.7.6-.7 1.1-.4.7.4 1 .4 1.5-.2.2-.3.6-1 .8-.7.1.2.1 1.3.1 1.5z"/></g><path d="M-200 81.5c0 1.1-.9 2-2 2s-2-.9-2-2 .9-2 2-2 2 .9 2 2z"/></g></g></svg>