<svg xmlns="http://www.w3.org/2000/svg" width="150" height="200" viewBox="0 0 39.7 52.9"><path d="M1.06 9.605h.45c1.06 0 1.881-.344 4.081-1.749L5.989 5.1c0-.45-.026-.53-.318-1.06-.185-.291-.185-.291-.291-.53v-.053c.132-.053.238-.053.291-.053.795 0 2.041 1.034 2.041 1.722 0 .106-.053.265-.106.451l-.212.715a6.47 6.47 0 0 0-.133.61c.265-.053.53-.053.715-.053.477 0 .795.238.795.583 0 .371-.424.742-2.014 1.696.212.901.239 1.087.239 1.458a3.02 3.02 0 0 1-.45 1.457c-.08.132-.133.238-.133.318l.026.053.345-.239.715-.53c.053-.026.318-.291.583-.53h.053c-.398.954-.795 1.643-1.458 2.358-.769.848-.822.98-.822 1.935 0 .901.026 1.219.133 2.465l.08 1.404c0 .53-.133 1.007-.291 1.007-.106 0-.239-.132-.398-.371-.424-.715-.636-1.352-.636-2.12l.053-1.935.026-.689c-1.511 1.431-1.829 1.696-2.067 1.696-.398 0-.504-.371-.504-1.722 0-.318.053-.398.345-.477 1.193-.609 2.385-2.65 2.73-4.664l-.662.424c-.053.053-.318.212-.689.477-.371.291-.769.45-1.007.45-.371 0-1.007-.371-1.643-.927-.318-.318-.398-.371-.424-.716zm7.447 7.42v.159c0 .239.133.371.371.371a1.55 1.55 0 0 0 .53-.132c.822-.318.822-.318 1.166-.318h.636l1.166-.027 1.034.053c.53 0 .53 0 2.252-.503a1.71 1.71 0 0 1 .53-.08c.477 0 1.086.239 1.59.636.291.239.371.424.371.742 0 .371-.186.609-.477.609-.186 0-.186 0-1.272-.424l-2.12-.503c-.291 0-.291 0-1.458.583-.159.079-.345.132-.53.132-.291 0-.291 0-1.14-.45a.99.99 0 0 0-.477-.132c-.239 0-.477.132-.901.477-.636.53-1.113.742-1.51.742-.45 0-.901-.503-.901-.98s.318-.795 1.14-1.06zm2.2-12.958c.239-.08.424-.133.53-.133.239 0 .795.239 1.007.424.159.159.265.477.265.795 0 .477-.133.822-.662 1.457L10.23 8.703c.371.61.477.954.477 1.537 0 .212-.026.451-.053.716l-.133 1.484.026 1.458c-.053 2.305-.053 2.385-.239 2.597a.22.22 0 0 1-.212.133c-.291 0-.822-1.193-.822-1.828 0-.133.08-.636.212-1.325a34.45 34.45 0 0 0 .239-3.233c0-.397-.08-.689-.212-.689-.08 0-.08 0-.53.61-.08.106-.212.159-.318.159-.133 0-.239-.106-.239-.239 0-.238.159-.901.371-1.404.106-.212.159-.318.53-.768.45-.53 1.643-2.677 1.643-2.942l-.291-.928zm4.054 8.374c.318 0 .53.239.53.583 0 .239-.133.451-.371.61-.822.609-.822.609-1.166.98.398-.132.609-.185.795-.185.53 0 1.404.689 1.404 1.087 0 .238-.239.318-.822.318-1.484.053-1.669.079-2.677.477a2.38 2.38 0 0 1-.901.185c-.371 0-.61-.159-.61-.424s.106-.53.318-.822c.106-.133.106-.133.636-.371.318-.132.901-.583.901-.715 0-.053-.053-.053-.133-.053s-.053 0-.504.185c-.133.053-.265.08-.397.08s-.265-.106-.265-.265a1.67 1.67 0 0 1 .345-.954c.106-.106.106-.106.689-.318.133-.053.424-.318.795-.769l-.715.133c-.398.132-.715.212-.795.212-.212 0-.345-.159-.345-.397 0-.583.239-.981.636-1.166.61-.239.689-.318 1.166-.716-1.431-.079-2.014-.318-2.305-.927l.053-.106c.901 0 1.325-.132 1.961-.768.504-.451.901-1.06.901-1.299 0-.053 0-.053-.371-.583-.133-.185-.345-.662-.345-.795 0-.053.026-.08.053-.159h.08c.239.132.371.159.742.238.636.106.875.159 1.06.318.239.185.424.556.424.795s-.212.477-.795.874c-.45.292-.663.477-.663.557 0 .026.026.026.053.026.106 0 .53-.132.874-.265.186-.079.344-.132.45-.132.318 0 .795.45.795.795 0 .212 0 .212-.954.768-.928.742-.928.742-.928.822 0 .106 0 .106.636.239.318.079.583.344.583.609 0 .239-.053.265-.822.769-.398.265-.609.45-.609.53l.318.026z" fill="#084"/><path d="M34.503 8.81l-.53.424c-1.775 1.352-2.809 2.703-3.153 4.055v.663h7.393l.345-3.207h-.874c-.212 1.325-.716 1.987-1.511 1.987h-4.001c.318-1.033 1.14-1.934 2.412-2.677l.636-.345c1.113-.609 1.881-1.139 2.305-1.563.53-.53.795-1.245.795-2.093 0-1.113-.504-1.987-1.484-2.57a4.89 4.89 0 0 0-2.2-.504c-1.113 0-2.041.318-2.703.954-.556.557-.848 1.166-.848 1.882 0 .848.371 1.272 1.139 1.272.663 0 .98-.318.98-.927 0-.583-.265-.901-.768-.954.318-.822 1.007-1.219 2.093-1.219 1.404 0 2.093.663 2.093 1.961.026.822-.689 1.775-2.12 2.862z" fill="#b32"/><path d="M21.624 37.43l3.578 6.201c.239.424.159 1.007.239 1.51-.451-.265-1.06-.45-1.325-.848l-3.339-5.406c-.212-.345-.663-.503-.981-.768l-.397.424 2.941 4.32c.53.822 1.007 1.696 1.378 2.597.133.318-.026.768-.053 1.166-.344-.239-.821-.398-1.033-.716l-4.638-6.599c.769 3.604 1.431 7.129 1.564 10.733-.186.053-.371.106-.53.185-.186-.424-.477-.821-.53-1.245-.451-4.876-1.908-9.434-4.24-13.701-2.411-4.425-5.989-7.605-10.626-9.62l-1.431-.662c0-.159.026-.345.026-.504.45 0 .928-.132 1.299.027a24.65 24.65 0 0 1 10.07 7.473c.318.371.609.768 1.193 1.51l1.537-1.908c-1.272-1.033-2.491-1.908-3.578-2.942-.954-.874-2.703-1.06-2.889-2.65.159-.159.291-.344.45-.503l7.049 4.956c.106-.08.186-.159.291-.212-.238-.398-.424-.875-.742-1.219l-4.267-4.505c-.291-.318-.345-.875-.504-1.325.424.159.901.238 1.245.53l5.141 4.611c-1.007-2.517-3.366-4.055-3.498-6.572.185-.106.398-.212.583-.345l5.247 7.129c.106-.053.186-.08.291-.133-.159-.424-.265-.848-.477-1.245-.954-1.775-1.934-3.525-2.836-5.353-.239-.477-.186-1.087-.239-1.643l.583-.159 2.491 3.683c.742-.477 1.484-.848 2.093-1.378.318-.265.53-.795.556-1.245.291-4.028.716-8.082-1.643-11.766-.133-.212.079-.663.133-1.007.345.159.848.238 1.007.503 1.59 2.358 2.12 5.035 2.094 7.844-.053 2.942-.106 5.91 0 8.851.133 3.63 2.094 6.519 4.134 9.302 1.034 1.404 2.279 2.703 3.551 3.895.636.583 1.643.795 2.411 1.272.345.212.61.609.901.928-.424.132-1.033.503-1.272.344-1.934-.556-3.472-1.749-5.088-3.63-.689-.795-1.325-1.696-2.04-2.517-.186-.212-.61-.212-.928-.318 0 .344-.159.768 0 1.007 1.007 1.511 2.12 2.968 3.127 4.479.371.583.583 1.298.848 1.934-.61-.397-1.378-.662-1.829-1.192-1.193-1.378-2.2-2.888-3.366-4.32-.265-.318-.795-.424-1.193-.609.079.424.079.901.265 1.245 1.14 2.067 2.385 4.081 3.524 6.148.186.345.053.848.053 1.298-.344-.238-.795-.397-1.007-.742l-3.843-5.963c-.265-.397-.636-.715-.98-1.06-.239.159-.398.292-.556.424zm3.286-7.128c-1.033-1.034-1.961-.689-2.809-.477-2.359.609-4.16 2.067-5.856 3.79-.742.768-.848 1.352.106 2.147zm.424 1.563l-7.897 4.903c-.239.159-.291.583-.424.901.291 0 .636.053.901-.053.636-.265 1.219-.636 1.829-.954l6.413-3.312zm-1.59-3.869l-.768-4.187c-.848.875-1.643 1.59-1.034 2.677.371.636.318 1.908 1.802 1.511z" fill="#b27"/><path d="M26.5 27.36c-.397-.371-.556-.689-.98-1.06.239-.265.504-.928.822-1.007 1.378-.371 2.04.477 2.438 2.04l2.173-2.226c.477-.397 1.219-1.007 1.616-.848.53.212.954.477 1.06 1.139.133.795.212 1.192.398 1.352.503.451 1.06.822 1.669 1.06.079.027.609-.715.742-1.166.186-.583.133-1.272.318-1.855.186-.557.556-1.113.954-1.564.132-.159.662-.106.901.027.133.079.159.556.106.822l-.928 3.207c-.477 2.65-2.093 3.79-4.664 3.26-.901-.185-1.245-1.033-2.73-.53-.133.053-.609.159-1.086.318-.159.053-.133.292.026.318.53.053 1.086.027 1.272.133.848.45 1.299 1.166 1.087 2.12-.106.504-.53.981-.875 1.405-.185.238-.556.159-.663-.106-.133-.477.291-1.378.239-2.12-.398-.212-1.457-.132-2.014-.53-.901-.662-.848-1.245.053-1.828 1.59-1.033 3.207-1.537 4.982-.424.106.08.609.345.742.345.079 0 1.378-.133 1.06-.53-1.458-.795-2.597-2.041-2.968-3.127-.822.609-1.988 1.935-3.048 2.623-1.696 1.139-1.908 1.007-2.041-1.033 0-.186-.079-.345-.133-.53l-.53.318zM8.798 42.147c1.617-1.908 2.995-3.312 5.221-3.551l.345 2.094.398.185 1.643.318c-.106.292-.212.795-.371.822-.848.079-1.749.212-2.544-.026-.398-.106-.636-.875-1.06-1.537L9.99 42.863c-1.193 1.087-2.093.875-2.517-.636-.345-1.272-.45-2.809-2.279-2.491-1.484.265-.848 1.775-1.166 2.703-.212.636-.398 1.298-.769 1.802-.239.318-.848.371-1.166.504l1.034-4.85c.875-2.835 2.411-3.525 5.3-2.835l3.419.636.159-.503-1.166-.557c-1.272-.583-1.696-1.775-.928-2.942.212-.318.715-.424 1.087-.636l.239 1.246c.026.159-.106.344-.185.609.636.318 1.325.503 1.775.927.398.371.742 1.007.795 1.537.026.318-.61.716-1.034.954-1.669 1.007-3.339.238-5.008-.027-.477-.079-.954-.132-1.59-.026 1.882.451 2.65 1.749 2.809 3.869z" fill="#339"/></svg>