<svg xmlns="http://www.w3.org/2000/svg" width="150" height="200" viewBox="0 0 39.7 52.9"><g transform="matrix(.265 0 0 .265 59.7 11.6)"><path d="M-221-9.1h1.7c4 0 7.1-1.3 15.4-6.6 1.2-6.4 1.5-8.3 1.5-10.4 0-1.7-.1-2-1.2-4-.7-1.1-.7-1.1-1.1-2v-.2c.5-.2.9-.2 1.1-.2 3 0 7.7 3.9 7.7 6.5 0 .4-.2 1-.4 1.7-.4 1.3-.6 2.3-.8 2.7-.1.3-.3 1.2-.5 2.3 1-.2 2-.2 2.7-.2 1.8 0 3 .9 3 2.2 0 1.4-1.6 2.8-7.6 6.4.8 3.4.9 4.1.9 5.5 0 1.6-.7 4-1.7 5.5-.3.5-.5.9-.5 1.2l.1.2 1.3-.9c.9-.7 1.8-1.3 2.7-2 .2-.1 1.2-1.1 2.2-2h.2c-1.5 3.6-3 6.2-5.5 8.9-2.9 3.2-3.1 3.7-3.1 7.3 0 3.4.1 4.6.5 9.3.2 1.9.3 3.8.3 5.3 0 2-.5 3.8-1.1 3.8-.4 0-.9-.5-1.5-1.4-1.6-2.7-2.4-5.1-2.4-8 0-1.1.1-3.7.2-7.3 0-.6 0-1.5.1-2.6-5.7 5.4-6.9 6.4-7.8 6.4-1.5 0-1.9-1.4-1.9-6.5 0-1.2.2-1.5 1.3-1.8 4.5-2.3 9-10 10.3-17.6-1.2.7-2.2 1.3-2.5 1.6-.2.2-1.2.8-2.6 1.8-1.4 1.1-2.9 1.7-3.8 1.7-1.4 0-3.8-1.4-6.2-3.5-1.2-1.2-1.5-1.4-1.6-2.7zm28.1 28v.6c0 .9.5 1.4 1.4 1.4.5 0 1.3-.2 2-.5 3.1-1.2 3.1-1.2 4.4-1.2h2.4l4.4-.1 3.9.2c2 0 2 0 8.5-1.9.6-.2 1.3-.3 2-.3 1.8 0 4.1.9 6 2.4 1.1.9 1.4 1.6 1.4 2.8 0 1.4-.7 2.3-1.8 2.3-.7 0-.7 0-4.8-1.6-7.2-1.9-7.2-1.9-8-1.9-1.1 0-1.1 0-5.5 2.2-.6.3-1.3.5-2 .5-1.1 0-1.1 0-4.3-1.7-.5-.3-1.2-.5-1.8-.5-.9 0-1.8.5-3.4 1.8-2.4 2-4.2 2.8-5.7 2.8-1.7 0-3.4-1.9-3.4-3.7s1.2-3 4.3-4zm8.3-48.9c.9-.3 1.6-.5 2-.5.9 0 3 .9 3.8 1.6.6.6 1 1.8 1 3 0 1.8-.5 3.1-2.5 5.5-2.9 3.6-3.6 4.4-6.1 7.9 1.4 2.3 1.8 3.6 1.8 5.8 0 .8-.1 1.7-.2 2.7l-.5 5.6.1 5.5c-.2 8.7-.2 9-.9 9.8a.82.82 0 0 1-.8.5c-1.1 0-3.1-4.5-3.1-6.9 0-.5.3-2.4.8-5 .3-1.6.9-9.5.9-12.2 0-1.5-.3-2.6-.8-2.6-.3 0-.3 0-2 2.3-.3.4-.8.6-1.2.6-.5 0-.9-.4-.9-.9 0-.9.6-3.4 1.4-5.3.4-.8.6-1.2 2-2.9 1.7-2 6.2-10.1 6.2-11.1 0 0-.4-1.2-1.1-3.5zm15.3 31.6c1.2 0 2 .9 2 2.2 0 .9-.5 1.7-1.4 2.3-3.1 2.3-3.1 2.3-4.4 3.7 1.5-.5 2.3-.7 3-.7 2 0 5.3 2.6 5.3 4.1 0 .9-.9 1.2-3.1 1.2-5.6.2-6.3.3-10.1 1.8-1.2.5-2.4.7-3.4.7-1.4 0-2.3-.6-2.3-1.6s.4-2 1.2-3.1c.4-.5.4-.5 2.4-1.4 1.2-.5 3.4-2.2 3.4-2.7 0-.2-.2-.2-.5-.2s-.2 0-1.9.7c-.5.2-1 .3-1.5.3s-1-.4-1-1c0-1.2.6-2.8 1.3-3.6.4-.4.4-.4 2.6-1.2.5-.2 1.6-1.2 3-2.9-1.2.2-2.3.4-2.7.5-1.5.5-2.7.8-3 .8-.8 0-1.3-.6-1.3-1.5 0-2.2.9-3.7 2.4-4.4 2.3-.9 2.6-1.2 4.4-2.7-5.4-.3-7.6-1.2-8.7-3.5l.2-.4c3.4 0 5-.5 7.4-2.9 1.9-1.7 3.4-4 3.4-4.9 0-.2 0-.2-1.4-2.2-.5-.7-1.3-2.5-1.3-3 0-.2.1-.3.2-.6h.3c.9.5 1.4.6 2.8.9 2.4.4 3.3.6 4 1.2.9.7 1.6 2.1 1.6 3s-.8 1.8-3 3.3c-1.7 1.1-2.5 1.8-2.5 2.1 0 .1.1.1.2.1.4 0 2-.5 3.3-1 .7-.3 1.3-.5 1.7-.5 1.2 0 3 1.7 3 3 0 .8 0 .8-3.6 2.9-3.5 2.8-3.5 2.8-3.5 3.1 0 .4 0 .4 2.4.9 1.2.3 2.2 1.3 2.2 2.3 0 .9-.2 1-3.1 2.9-1.5 1-2.3 1.7-2.3 2l1.2.1z" fill="#084"/><path d="M-94.8-12l-2 1.6c-6.7 5.1-10.6 10.2-11.9 15.3v2.5h27.9l1.3-12.1h-3.3c-.8 5-2.7 7.5-5.7 7.5h-15.1c1.2-3.9 4.3-7.3 9.1-10.1l2.4-1.3c4.2-2.3 7.1-4.3 8.7-5.9 2-2 3-4.7 3-7.9 0-4.2-1.9-7.5-5.6-9.7-2.4-1.2-5.2-1.9-8.3-1.9-4.2 0-7.7 1.2-10.2 3.6-2.1 2.1-3.2 4.4-3.2 7.1 0 3.2 1.4 4.8 4.3 4.8 2.5 0 3.7-1.2 3.7-3.5 0-2.2-1-3.4-2.9-3.6 1.2-3.1 3.8-4.6 7.9-4.6 5.3 0 7.9 2.5 7.9 7.4.1 3.1-2.6 6.7-8 10.8zm14.5 84.5v-.3l-2.8-9.2c-1.3-4.1-4.7-6.2-8.2-8.1-2.4-1.3-4.9-1.5-7.5-1.7-2.8-.3-5.7-.7-8.5-.5-3.9.3-7.9.7-11.6 1.8-2.4.6-8.8 5.5-10.4 7.5-.2.3-1.1 3.7-1.2 4.1-.5 3.5-.2 6.8.7 10.2.4 1.5.2 3.4-.2 5-.9 3.8-2 7.5-.9 11.5.5 1.9.3 3.9.3 5.9-1.5-.6-2.9-1.3-4.1-2.2l-.3.6c-.1.6-.3 1.2-.7 1.7 1.3 1 2.8 1.9 4.2 2.8 2 1.4 6.2 2.8 6.7 1.7.3-1.5-.4-2.7-2.5-3.6-1.2-.5-1.3-1.3-1.4-2.3-.1-1.8-.3-3.6-.5-5.4-.1-1-.4-2-.2-2.9.6-2.7 1.4-5.4 2-8 .2-.7 0-1.5 0-2.2 1 .7 2 1.3 2.7 2 .4.4.7 1.3.7 1.9-.2 3-.5 5.9-.8 8.9 0 .4.3.9.4 1.3h.7c.3-1.6.8-3.3 1-4.9.3-1.7.4-3.3.6-5 0-.2.4-.6.7-.6l3.9-.6c-.1.8-.3 1.8-.3 2.8V96c0 1-.4 2.1-.7 3.1-.2.8-.5 1.6.5 2.1.9.1 2.2-4 2.4-6.2.1-1.7-.4-3.4-.4-5.1s.2-3.4.4-5.1c.1-.5.4-1 .6-1.5l.3-.3c.6 2.2 1.9.8 2.8.9-.1 1.4-.2 2.8-.2 4.1-.1 2.5-.1 5-.5 7.5-.4 2.4-1.2 6.8.4 7.4.9.2.2-3 .5-4.3 1.1-4.5 1.5-9 1.7-13.6 0-.3-.1-.7.1-.9 1.3-1.2 1-2.7 1.1-4.2.1-.7.3-1.3.4-2.3 1.5 1.9 2.9 3.4 4.1 5.1.4.5.7 1.2.6 1.7-.3 2.7-1 5.3-1.2 7.9-.3 4.2-2.2 7.9-2.9 11.9-.5 2.9-.6 5.8-.6 8.7 0 1.5.4 2.9.5 4.4l.9 9.5 1.2 12.4a2.39 2.39 0 0 1-.2.9c-.9.9-1.9 1.8-2.8 2.6l-2.8-2.2c-.6-.5-1.2-.6-2.1-.2-.9.5-2 .6-3.1.6-1.3 0-2.5-.2-3.8-.5-1.4-.4-3.1.3-4.2-1.3.2-.3.5-.6.5-.9.3-2.2.6-4.5.7-6.7l.1-15c0-.9-.3-1.2-1.2-1.2-1.2 0-2.4-.2-3.8-.3 1.5-1 3-1.6 4.1-2.6s.7-3.3-.8-4.5c-1.2-1-1.8.4-2.5.9-1.1.9-2.2 2-3.7.7-.2-.2-.6-.1-.8-.2-1.5-1.2-3.6-2.1-4.2-3.7-.4-1.2-1-1.9-1.8-2.4-.1.6-.3 1.2-.6 1.6a.9.9 0 0 1 .5.1c.2 0 .4.3.4.5.3 2.3 2 3.4 3.6 4.6.9.8 1.4 1.5 1.2 2.9-.2 1.7-.1 3.4 0 5 .2 2.4-.5 4.6-1.4 6.8-.6 1.4-.8 3-.7 4.5.2 2.1-.1 5.3 2.7 7 .6.4 1.2.5 1.8.8.8.4 1.5 1.1 2.5.5.2-.1.8.3 1.1.6.3.4.4.9.6 1.4.8 2.3 2.6 3.7 5.2 3.9 1.1.1 2.2.1 3.2.2.5.1 1.1.3 1.4.6.8.8 1.6.8 2.5.3.1-.1.3-.1.4-.2 2.6-1.6 2.8-1.5 4.6 1 .9 1.2 2.8 1.1 3.6-.2.4-.6.7-1.1 1.1-1.6.6-.9 2.4-.8 3.1 0 .4.4.7.8 1.1 1.2 1.1 1.1 2.8 1.4 4.1.5.6-.4 1.3-.9 1.4-1.5.4-1.3.9-1.6 2.2-1.1.9.3 2 .4 2.9.2 1.3-.3 2.5-1.2 3.7-1.5.6-.2 1.3-1.2 1.5-1.9.6-2.2 1.2-4.4 2.9-6.1.2-.2.4-.8.3-1-1.3-3.2-1.4-6.6-1.3-10 0-.5.3-1.1.6-1.6 1.2-2.7 1.4-5.5 1.1-8.4-.2-1.7-.1-3.5.1-5.2.4-3.8-.9-7-2.3-10.3-.2-.5-.4-1.1-.4-1.7-.2-3.7-.5-7.5-.5-11.2 0-1.5.6-3 1.1-4.5 1-2.5 1.8-4.7 2.6-6.9zm-46.6 62.8c-.5-.6-.9-.9-.6-1.9.2-.6.1-1.6-.3-2.3-1.1-1.9-1-3.8-.6-5.8.3-1.3.5-2.7.6-4.1.1-1-.4-1.8-1.8-1.8-.3 1.7-.7 3.3-.8 4.9-.1 2-.4 4.1.6 6.1.5 1.1.5 2.5.7 3.8-1.9 0-3.8-1.3-4-2.8-.2-1.8-.3-3.7.9-5.4.3-.4.4-.8.4-1.3l.6-7.4c.1-1 .1-2.1.2-3.1.4.2.5.5.5.7-.1 1.6.7 2.6 2.1 3.2.6.2 1.3.5 1.9.6 1.1.1 1.4.9 1.6 1.8.1.7 0 1.5-.1 2.2-.2 2.1-.6 4.2-.7 6.3-.1 1.5.1 3 .3 4.5.1 1.4.4 2.8.6 4.2-.1 0-.2 0-.4-.1-.4-.7-1-1.5-1.7-2.3zm4.9-56.4c-2.1-.8-3.5-2.3-4.7-4.2-2.4-3.8-2.7-7.5-1-11.7.7-1.7 3.9-3.9 5.1-4.8 1.5-1 5.9-2.3 7.7-2.3 4.3-.1 8.5-.1 12.8-.1.7 0 1.5.2 2.2.3 1.6.4 3.2 1.1 4.9 1.3 4.5.5 7.6 3 10.3 6.2.4.5.5 1.3.5 2s-.2 1.4-.2 2c.1 3.7-1.4 6.5-4.7 8.1-1.7.9-3.6 1.5-5.5 2.1-.5.2-1.1.3-1.5.1-.3-.1-.4-1-.2-1.3s.9-.5 1.3-.5c1.9.2 3.3-.5 4.3-2.2.2-.4.6-.7.9-1 2.1-2 3-4.2 2.2-7.3-.8-2.9-3.5-4.9-6.6-5-.9 0-1.9-.2-2.8-.4-2-.5-4-1.5-6-1.5-5-.2-10.1-.6-15 1.1-1.2.4-2.4.6-3.5 1.2-3.4 1.7-4.2 4.6-3.8 8.1.1 1 .5 2.2 1.2 2.7 2.3 2 4.8 3.7 7.4 5.6-1.4 1.4-3.1 2.4-5.3 1.5zm12.1-3.3c-.2 1.2.2 2.7-1.2 3.5-1.5.9-2.3-.1-3.4-.9h1.3c.9.1 1.7-.1 2.4-.7.1-.1-.3-.8-.3-.9-.6-.6-.7-.7-1.5-.9-1.8-.7-3.8-.9-5.5-1.7s-3.1-2-4.7-3.1c-1.1-.8-1.6-1.9-1.1-3.1.4-1.1 1-2.2 1.8-3.1 1.8-1.9 4-3.2 6.5-3.8 1.8-.4 3.6-.8 5.5-.9 1.4 0 2.8.5 4.1.7 1.1.2 2.1.2 3.2.4.9.1 1.8.1 2.6.3 2.6.6 4.9 2.3 7.8 1.5 1.2-.3 3.7 1.1 3.9 2 .5 1.9.5 3.8-1 5.5-1.3 1.5-2.6 3-4.6 3.8-2.6 1.1-2.8 1.1-3.3-1.8 0-.2-.1-.4-.2-.9.3.1.5.1.6.2 1.1.5 2.4.4 3.2-.6 1.1-1.4 1.1-2.1.1-3.3-1.3-1.6-3-2.6-4.9-3.3-3.6-1.3-7.4-1.3-11.2-1.5h-2c-2.5.2-4.9.3-7.1 1.8-.9.6-1.2 1.7-.7 2.7 1.7 3.6 4.6 5.5 8.2 6.7.9 0 1.7.4 1.5 1.4zm-5.6-6.3l-.9-.7c-1.5-.8-1.6-3 .1-3.4 1.8-.4 3.8-.8 6.9-.8 1.9 0 3.7-.2 5.7.1 2.8.4 6.4 1.9 7.8 3.2.3.3.8 1.2.6 1.5-.7 1.4-2.8 1.4-3.7.2-.7-.9-1.3-1.8-2.6-.8-.1.1-.6-.2-.9-.3-3-1.5-4.2-1.4-7.9-1-1.7.4-1.5 1.5-1.1 1.6 1.2.4 2.7.9 3.8.5 1.7-.6 3.2-.2 4.7 0 .5.1 1.1.8 1.3 1.3.1.2-.6 1-1.1 1.1-1.1.3-2.2.5-3.3.4-3.4-.2-6.3-1.2-9.4-2.9zm8.9 5.6c1.3-.1 2.2-.2 3.1-.1.4.1.9.7 1 1.1.1.6-.2 1.2-.3 2.1-1.4-1.1-2.5-2-3.8-3.1zm8.1 65.9c-1.1-5.7-1.1-11.2-.7-16.9.4 1 .9 1.8 1 2.6.5 3 .8 6.1 1.3 9.1.4 2-.1 3.5-1.6 5.2zm6-9c-.6 2.2-.3 4.6-.4 6.9 0 .4-.1.8-.2 1.2-.1 0-.3.1-.4.1-.2-.5-.6-.9-.7-1.4-.2-1.9-.3-3.9-.5-5.9-.1-1.5-.1-3-.5-4.3-.9-2.8-2.1-5.5-3.2-8.2-.3-.7-.6-1.3-.9-2-.3-.8-.8-1.5-.9-2.3-.2-1-.3-2-.4-3-.1-1.2-.8-3.6-1.8-3.3-.6.3-.5 2.4-.5 2.9.2 3.9.7 6.6.9 10.5.1 2.1.2 4.3.4 6.4.2 3 .5 5.9.9 8.9.2 1.2.6 2.4.8 3.6-.4-.2-1.2-.6-2-.9-1-.5-1.4-1.1-1.4-2.3-.1-2.5-.5-5.1-.8-7.6l-.9-7.1-1-8.5c-.6-4.2-.6-8.3 1.2-12.1 2.3-4.9 2.6-10.1 3.3-15.2.5-3.8.3-7.6.5-11.4.1-1 .5-1.9.7-2.9.2 0 .3.1.5.1l1.4 7.1c.2 1 1.2 1.7 2.3 1.5v1.8c0 .2-.1.4-.1.6l-2.2 10.3c-1.2 5-2.2 9.9-.7 14.9.8 2.8 2.1 5.5 3.4 8.1.9 1.7 1.8 3.3 1.7 5.4-.1 1.2.3 2.3.8 3.3.5 1.5 1.2 2.8.7 4.8zm3.1 1.8c-.2 1.9-.5 3.8-.8 5.7-.4-.3-.7-.7-.6-1.1.2-1.8.5-3.5.7-5.2.4-3 .8-6-1.4-8.6-.4-.4-.5-1.2-.5-1.8-.2-2.1-.6-4-1.6-5.9-2.2-4.1-5-8-4-13.1.5-2.6.8-5.3 1.5-7.9.7-2.7 1.7-5.3 1.6-8.1 0-1.3.3-2.7.5-4.1.4-1.9 2.2-1.1 3.3-1.7h.4c-.1 1.5-.2 2.8-.4 4.2-.1 1-.4 2-.6 3-.8 3.5-1.9 6.9-2.3 10.4-.6 5.9-.7 11.9 2.4 17.4a28.6 28.6 0 0 1 2 4.8c.3.9-.3 2.1 0 3 .7 3.1.1 6-.2 9zm2.1 1.6c.1-1 0-2.1.2-3.1.6-2.4.8-4.7.2-7.1-.1-.6-.4-1.1-.4-1.7.2-2.5-.7-4.7-1.7-6.9-1.6-3.7-3.4-7.4-2.8-11.6.2-1.6.3-3.2.6-4.8.4-2.9.4-5.9 1.3-8.7.8-2.6 1.4-5 1.3-7.7v-.1c.1-2.7 1.5-4.5 3.9-5.9 0 .4.1.6 0 .7-1.5 2.9-1.9 6-1.7 9.3.4 5.8-.3 11.5-2.7 16.9-.2.4-.4 1-.3 1.4.3 1.3.9 2.5 1.3 3.8.5 1.4.7 3 1.3 4.3 1.8 3.4 1.2 7.1 1.6 10.7.1 1.5-.1 3 0 4.6.1 2.2-.2 4.2-2.1 5.9zm4.8-29.3c-.1 2.2.3 4.4.4 6.6.1 1 0 2.1 0 3.2h-.6c-1-2.2-2.1-4.4-3-6.6-.5-1.2-1.2-2.4-1.2-3.6s.9-2.4 1.4-3.6c.4-.8.8-1.7 1.3-2.7 1 2.3 1.8 4.3 1.7 6.7z" fill="#b32"/><g fill="#339" stroke="#339" stroke-miterlimit="10" stroke-width="1.5"><path d="M-201 92.4c-.1.5-.5.8-1.2 1.1l-4.5 1.7-4.4 1c-2.2.4-4.7-1.3-5.1-3.5-.1-.4.1-1.1.4-1.3 3.1-2.2 6.3-4.4 9.5-6.5.3-.2 1.1-.1 1.5.2V85c-.1-.2-1.3-1.8-1.4-2-2.3 1.4-4.6 2.7-6.7 4.2-1.3.9-2.6 1.9-3.7 3-1.6 1.5-1.5 3.3-.1 5 1.8 2.3 4 3 6.8 2.1l8.4-2.8c.6-.2 1.1-.2 1.4 0-.2-.2-.7-1.8-.9-2.1zm106-64.7c-.6-1.7-1.2-3.5-2.4-4.9-2.5-3.1-5.2-6-8-8.8-1.8-1.8-3.6-1.8-5.7-.4l-17.1 11.6-31.2 22.3c-6.4 4.6-12.6 9.4-18.9 14.1-.3.2-.6.4-1 .6.3.3.6.8.8 1.2.2.2.5.3.7.5-.1-.4.1-.8.7-1.2 3.1-2.2 6.1-4.6 9.1-6.9l23.3-17.3 25.8-18.5c3-2.1 6.2-4 8.8-5.6 2.5-.7 3.7.5 4.7 1.6 2.6 2.9 5.1 5.8 7.4 8.9 2.5 3.4 2.2 4.9-1.1 7-.1.1-.3.2-.4.3l-16.7 10.3-13.6 8.1-19.6 11-16.1 9c-.5.3-1.2.5-1.8.6.6.2 1.2.5 1.7.7.1 0 .2.1.3.1.2.1.6.1.8.2l-.2-.2c2.8-1.6 5.4-2.9 7.9-4.4l17.4-10.2c3.8-2.1 7.7-4 11.4-6.2 4.6-2.7 9-5.5 13.6-8.3l13.3-8.1c1.6-.9 3.1-1.9 4.6-3 1.6-.7 2.2-2.3 1.5-4.1z"/><path d="M-134 73.9c-.2-1.2-1-1.4-2.2-1.1-3.9 1-7.7 2.1-11.6 2.7-5.6.8-11-.4-16.2-2.3-.2-.1-4.6-2.2-4.7-2.2-3.6-1.5-6.6-3.8-9.3-6.5-.1-.1-2-2.4-2-2.3-3.2-3.2-6.1-6.6-7.9-10.6-.7-1.4-1.4-1.9-2.8-.9l-16.9 11.8c-2.2 1.6-4 3.6-6.1 5.4-1.3 1.1-1.1 2.3-.3 3.5l5.1 7.9c.7 1.1 1.4 2.4 2.1 3.6-.1 0 1.5 2.1 1.6 2.2 1.2 2 2.3 4 3.4 6.1.3.5 1.4 3.5 1.5 4 1.6 5.2 3.2 10.5 1.6 15.9-1.3 4.4-3.9 7.8-8.3 9.6-1.7.7-1.8 1-.5 2.3 2.6 2.7 6.1 3.9 9.6 5 11.7 3.7 23.2 2.5 34.3-2 7.1-2.8 13.2-7.2 18.2-13.2 5.5-6.5 9.2-13.9 11.4-22.1 1.3-5.5.9-11.1 0-16.8zm-65.3 19.6c-2.2-5-5.1-9.7-7.8-14.4-1.7-2.9-3.6-5.5-5.4-8.3-.6-.9-.6-1.6.3-2.5 4.4-4.3 9.1-8.1 14.2-11.5l7-4.5c1-.6 1.6-.5 2.1.6.5 1 .9 2.1 1.6 3l7.4 8.7c6.1 6.8 14 10.2 22.7 12 1.6.3 2 1 1.8 2.4-.6 6.4-3.9 11.5-8.1 16-4.9 5.2-10.9 8.7-18 10.9-3.4 1.3-7.1 1.7-11 1.5-3.3-.2-3.8-.9-4.4-4-.5-3.3-1-6.8-2.4-9.9zm64-4.8c-.8 3.8-2.3 7.6-3.8 11.2-4.4 10.3-11.7 17.9-21.6 23-3 1.5-6.1 3.1-9.4 3.8-4.2 1-8.5 1.3-12.8 1.6-6.8.5-13.2-.8-19.4-3.7-1.3-.6-2.5-1.5-4.1-2.4.7-.5.9-.7 1.2-.8 4.6-2.5 7.2-6.3 8.2-11.3.5-2.3.4-2.1 2.8-2 3.3.1 6.8.5 10-.2 8.1-1.8 15.4-5.4 21.2-11.6 4.5-4.9 8-10.3 8.7-17.2.1-1.6.9-2 2.4-2 2.5-.1 5.1-.2 7.6-.8 2.8-.6 5.6-1.6 8.5-2.5.3.8.5 1.1.6 1.4 1 4.6.8 9.1-.1 13.5z"/></g></g></svg>