<svg xmlns="http://www.w3.org/2000/svg" width="150" height="200" viewBox="0 0 39.7 52.9"><path d="M5.3 10.1l.265-.265-.609.053-.795.053c-.715 0-1.007-.238-1.007-.795 0-.424.08-.609.318-.636 1.007-.238 1.643-.53 2.385-1.113l-.504.026c-.927 0-1.457-.318-1.961-1.166l.08-.106a2.06 2.06 0 0 0 .345.027l.556.053c.424 0 1.166-.265 1.855-.636l.08-1.404c0-.345-.026-.53-.106-.61-.026 0-.185-.026-.504-.053l-.053-.159c.239-.318.715-.556 1.087-.556.504 0 .901.503.901 1.166 0 .238-.053.609-.08.98.133.053.212.053.239.079l.398.027c.291.026.715.662.715 1.087 0 .159-.133.265-.398.345-.742.159-.98.318-1.431.98l-.026.186h.159l.265-.053h.053c.291 0 .689.583.689.98 0 .132-.08.185-.45.318-.291.106-.477.238-.98.636l-.08.795c.133-.053.291-.133.345-.133.239-.106.239-.132.239-.318l.053-.106.583.053 1.007.106a.5.5 0 0 1 .239.424c0 .424-.133.53-.768.61-.291.026-.848.238-1.776.742.053.185.08.291.08.424l-.026.318-.08.636v.133l1.166-.769c.026-.291.053-.344.239-.609l.133.027c.398.238.504.291.609.291.053 0 .45-.132 1.193-.424l.212-2.65-.742-.477c-.345-.238-.477-.344-.53-.583l-.026-.133.636-.026c.424 0 .477-.027.795-.08v-.662c0-.212 0-.212-.08-.371-.239-.451-.371-.795-.45-.981l.026-.185h.106c.398 0 1.245.477 1.564.874.133.159.185.424.185.928.239-.053.291-.053.53-.186l1.166-.583.08-2.677c0-.609-.026-.742-.291-1.087v-.239a1 1 0 0 1 .689-.371c.371 0 1.034.901 1.034 1.405 0 .132-.053.344-.08.662-.026.08-.053.424-.079.795l-.106 1.033c.636.186.954.451.954.795 0 .265-.08.371-1.166 1.246l-.026 1.802 1.113-.106c.795 0 1.457.53 1.457 1.14 0 .212-.133.371-.318.371-.106 0-.318-.053-.583-.106-.159-.053-.371-.053-.609-.053-.371 0-.61.053-1.087.185l-.318 8.983c-.132.318-.291.53-.371.53-.424-.026-.663-1.961-.663-5.962l.106-3.445c-.848.292-1.537.663-2.093 1.139-.026 1.564-.08 1.935-.636 3.418-.133.371-.239.557-.318.557-.185 0-.504-.795-.504-1.272 0-.238 0-.238.239-.98.053-.159.133-.61.133-1.352-.398.133-.583.159-.822.159-.291 0-.583-.079-.715-.185-.291-.212-.291-.212-.424-.239a.8.8 0 0 0-.239.133l-.265.318-.954 1.033c-.053.053-.133.159-.291.371l-.053.371.133 2.703c0 .636-.053.954-.212.954-.053 0-.185-.133-.371-.398-.371-.477-.504-.927-.504-1.696l.026-1.166-.053-.053c-.424.291-.424.318-.901.715-.239.185-.424.291-.53.291-.291 0-.556-.503-.556-.98s.133-.742.424-.822c.769-.08 1.749-1.352 1.961-2.517l-.689.344-.928.53c-.769.45-.928.53-1.272.53-.636 0-1.378-.398-1.378-.716 0-.053.026-.159.053-.291l.212-.159c.424-.106.53-.132.927-.318l1.06-.583 1.325-.901zm6.493-1.272c-.026 0-.239.106-.477.186l-.133 1.987c.159 0 .239-.027.61-.185.291-.133.477-.212 1.457-.53V8.961c-.663.503-.769.609-1.457.98v-.185c.636-.583.715-.663 1.219-1.352l-.398.186z" fill="#084"/><path d="M38.346 10.895c0-1.325-.822-2.2-2.438-2.65v-.079c1.431-.503 2.147-1.352 2.147-2.57 0-1.007-.504-1.775-1.511-2.279-.636-.291-1.378-.424-2.252-.424-1.06 0-1.908.265-2.597.795-.556.45-.848.98-.848 1.563 0 .769.371 1.14 1.087 1.14.689 0 1.007-.318 1.007-.928 0-.45-.238-.742-.689-.901.477-.53 1.139-.795 2.014-.795 1.458 0 2.173.609 2.173 1.828 0 1.484-.795 2.252-2.385 2.252h-1.06v.901h1.06c1.776 0 2.65.689 2.65 2.093 0 1.431-.874 2.147-2.65 2.147-1.06 0-1.749-.265-2.067-.822.477-.106.716-.398.716-.875 0-.609-.318-.927-.954-.927-.795 0-1.193.397-1.193 1.192 0 .716.371 1.325 1.139 1.802.689.398 1.484.609 2.438.609 1.113 0 2.041-.212 2.756-.636.98-.557 1.458-1.378 1.458-2.438z" fill="#b32"/><path d="M28.382 42.43l-1.351 2.491c-.503.742-1.113 1.405-1.484 1.855l1.404 1.617c-.742.106-1.511.451-2.199.265-1.246-.318-1.458-1.431-.61-2.65.265-.398.583-.768.874-1.139s.583-.716.822-1.193c-2.438 1.431-5.009 1.245-7.738.875l-.397 5.273c-.053.477-.556.928-.848 1.378-.159-.477-.451-.954-.477-1.431-.053-.609.026-1.246.106-1.855.53-3.816.265-4.399-3.207-6.466l-3.922 3.207 3.975 4.293c.291.344.291.928.398 1.431-.477-.186-1.034-.265-1.405-.557l-4.399-3.948c-.185.159-.61.609-1.166.874-.345.159-.822 0-1.245 0 .133-.371.185-.795.398-1.087.239-.344.636-.556.769-.662l.212-1.431 1.405-.265.239.424 3.895-4.213c.61-.715 1.404-.689 2.014.132l1.723 2.173c.238-.185.344-.212.397-.292.371-.556.795-1.617 1.06-1.59 1.086.186.742 1.193.609 1.882-.212.981.291 1.298 1.06 1.458 2.411.503 4.532-.265 6.519-1.537.186-.106.239-.583.186-.848-.106-.397-.504-.768-.556-1.166 0-.106 0-.238.026-.344.106-.53.689-.848 1.166-.609.079.053.159.106.186.159.53 1.749 1.776 1.908 3.366 1.988 2.915.159 4.929 3.63 5.486 5.671.079.292-.291.689-.424 1.034-.344-.212-.795-.344-.98-.636l-1.563-2.73c-1.087-1.669-2.624-2.2-4.32-1.828zM21.915 7.98c-.662 1.511-.265 2.253 1.086 2.65.716.212 1.431.61 2.041 1.06.079.053.133.132.186.212.265.503-.053 1.139-.583 1.298-.159.053-.318.08-.451.027-.822-.292-1.59-.795-2.571-1.325l-.291 2.067c1.59.503 3.021.768 4.505-.053.079-.027.159-.053.239-.053.556.026.927.53.874 1.087-.026.185-.079.318-.159.344a22.99 22.99 0 0 1-3.524.928c-.53.106-1.113-.133-1.881-.239l-.371 8.215c0 1.007-.477 1.245-1.113 1.219-.291 0-.795-.768-.768-1.192l.715-14.231.291-5.167c.026-.371.186-.901.451-1.06 1.564-.875 3.259-1.193 4.956-.557.053.027.106.053.159.106.556.424.318 1.325-.371 1.484l-.424.08c-.795.053-1.59-.106-2.385-.027-.079 0-.133.027-.212.08-.451.291-.451.954-.026 1.272.026.027.079.053.133.08l2.756 1.219c.636.318 1.511.689.928 1.537-.212.292-1.166.292-1.723.133-.822-.265-1.616-.768-2.465-1.192z" fill="#339"/><path d="M35.51 29.445c-1.246-1.378-2.73-1.325-4.32-1.007l-3.471.769-.186-.345 6.625-5.618c.715-.636-.106-1.775-.98-1.378l-.159.08-7.208 5.512c-1.431-.715-2.491-1.484-3.71-1.828-2.756-.795-4.849.636-6.811 2.12-2.862 2.173-2.836 2.2-6.413 2.093h-.503c-1.723.026-3.578 1.404-3.895 2.888-.318 1.431.583 2.915 2.252 3.71 5.91 2.809 12.058 3.79 18.55 1.961 3.816-1.086 7.208-2.915 10.123-5.432 1.484-1.245 1.298-2.2.106-3.525zm-13.807-2.756c1.802.636 3.578 1.882 4.187 2.517.768.901.768 2.252.636 2.412-1.325-1.219-5.247-3.816-6.599-4.611.186-.186 1.458-.451 1.776-.318zm2.279 6.439l-6.969-4.611c.451-.265 1.431-1.272 2.518-.662.848.477 4.849 3.153 5.592 3.843.795.742-.715 1.192-1.139 1.431zm-7.924-3.922l6.493 4.213c-1.961.662-6.334-1.484-7.341-3.604.133-.132.636-.53.848-.609zm-1.776 1.51c.133.477 1.829 1.987 2.465 2.279 1.908.901 3.684 1.696-.291 1.033-.901-.159-1.696-.503-2.385-1.087-.53-.451-.901-.795-1.087-1.51-.159-.689 1.113-1.378 1.299-.716zm-3.074 1.775c.927.371 1.696 1.272 2.624 1.67 3.763 1.59 7.526 1.935 11.289-.027.742-.397 1.378-.98 2.094-1.404.477-.265.927-.636 1.325-1.007.716-.609 1.246-.689 1.351-.503 0 0 .053.159.079.185.133.212.079.503-.106.662-5.538 4.823-16.033 5.327-19.689 1.564-.53-.53.106-1.511 1.034-1.14zm22.525.239c-2.65 1.987-5.618 3.445-8.878 4.452-6.307 1.908-12.058.344-17.755-2.04-.954-.397-1.643-1.087-1.245-2.2.398-1.193 2.014-2.252 3.127-2.04.61.132 1.193.397 1.67.556l-.98.371c-.927.344-1.298 1.484-.769 2.305.212.345.477.636.795.822 6.334 3.763 14.39 3.1 20.114-.954 2.014-1.405 2.04-1.908.53-3.79.291-.318 1.617-.795 2.173-.875 1.166-.185 1.988.106 2.411 1.405.159.98-.609 1.537-1.192 1.987z" fill="#b27"/></svg>