<svg xmlns="http://www.w3.org/2000/svg" width="150" height="200" viewBox="0 0 39.7 52.9"><path d="M4.91 10.31l.265-.265-.61.053-.795.053c-.715 0-1.007-.239-1.007-.795 0-.424.08-.609.318-.636 1.007-.239 1.643-.53 2.385-1.113l-.504.027c-.928 0-1.458-.318-1.961-1.166l.08-.106a2.06 2.06 0 0 0 .344.027l.556.053c.424 0 1.166-.265 1.855-.636l.08-1.404c0-.344-.026-.53-.106-.61-.026 0-.185-.027-.504-.053l-.053-.159c.239-.318.715-.557 1.087-.557.503 0 .901.504.901 1.166 0 .239-.053.61-.08.981.133.053.212.053.239.08l.398.027c.291.027.715.662.715 1.087 0 .159-.133.265-.398.345-.742.159-.98.318-1.431.981l-.026.186h.159l.265-.053h.053c.291 0 .689.583.689.98 0 .133-.08.185-.45.318-.291.106-.477.239-.98.636l-.08.795c.133-.053.291-.133.345-.133.238-.106.238-.133.238-.318l.053-.106.583.053 1.007.106a.5.5 0 0 1 .239.424c0 .424-.133.53-.769.61-.291.027-.848.239-1.775.742.053.185.08.291.08.424l-.026.318-.08.636v.132l1.166-.768c.026-.291.053-.344.239-.609l.133.026c.398.239.504.292.61.292.053 0 .45-.133 1.193-.424l.212-2.65-.742-.477c-.345-.239-.477-.344-.53-.583l-.026-.133.636-.027c.424 0 .477-.026.795-.079v-.663c0-.212 0-.212-.08-.371-.239-.45-.371-.795-.45-.981l.026-.186h.106c.398 0 1.245.477 1.563.875.133.159.185.424.185.928.239-.053.291-.053.53-.185l1.166-.583.079-2.676c0-.61-.026-.742-.291-1.087v-.238c.133-.186.45-.371.689-.371.371 0 1.033.901 1.033 1.405 0 .133-.053.345-.08.662-.026.08-.053.424-.08.795l-.106 1.033c.636.186.954.45.954.795 0 .265-.08.371-1.166 1.245l-.026 1.802 1.113-.106c.795 0 1.458.53 1.458 1.14 0 .212-.133.371-.318.371-.106 0-.318-.053-.583-.106-.159-.053-.371-.053-.61-.053-.371 0-.61.053-1.087.186l-.318 8.984c-.133.318-.291.53-.371.53-.424-.027-.663-1.961-.663-5.962l.106-3.445c-.848.292-1.537.662-2.094 1.14-.026 1.564-.08 1.935-.636 3.419-.133.371-.239.556-.318.556-.185 0-.504-.795-.504-1.272 0-.239 0-.239.239-.981.053-.159.133-.609.133-1.351-.398.133-.583.159-.822.159-.291 0-.583-.079-.715-.186-.291-.212-.291-.212-.424-.239-.133.053-.212.106-.239.133l-.265.318-.954 1.034c-.053.053-.133.159-.291.371l-.053.371.265 2.677c0 .636-.053.954-.212.954-.053 0-.185-.133-.371-.398-.371-.477-.504-.927-.504-1.696l.026-1.166-.053-.053c-.424.291-.424.318-.901.715-.239.186-.424.292-.53.292-.291 0-.556-.503-.556-.981s.133-.742.424-.821c.768-.08 1.749-1.352 1.961-2.518l-.689.345-.927.53c-.769.45-.928.53-1.272.53-.636 0-1.378-.397-1.378-.716 0-.053.026-.159.053-.291l.212-.159c.424-.106.53-.132.928-.318l1.06-.583 1.325-.901zm6.493-1.272c-.026 0-.239.106-.477.185l-.133 1.988c.159 0 .239-.027.61-.186.291-.132.477-.212 1.458-.53V9.171c-.663.503-.769.61-1.458.98v-.185c.636-.583.715-.662 1.219-1.351l-.398.185z" fill="#084"/><path d="M38.221 11.185c0-1.325-.822-2.2-2.438-2.65v-.08c1.431-.503 2.147-1.352 2.147-2.57 0-1.007-.504-1.775-1.511-2.279-.636-.292-1.378-.424-2.252-.424-1.06 0-1.908.265-2.597.795-.556.45-.848.98-.848 1.563 0 .768.371 1.14 1.086 1.14.689 0 1.007-.318 1.007-.927 0-.45-.239-.742-.689-.901.477-.53 1.139-.795 2.014-.795 1.457 0 2.173.609 2.173 1.829 0 1.484-.795 2.252-2.385 2.252h-1.06v.901h1.06c1.776 0 2.65.689 2.65 2.093 0 1.431-.874 2.147-2.65 2.147-1.06 0-1.749-.265-2.067-.822.477-.106.715-.398.715-.875 0-.609-.318-.927-.954-.927-.795 0-1.192.397-1.192 1.192 0 .716.371 1.325 1.139 1.802.689.398 1.484.61 2.438.61 1.113 0 2.041-.212 2.756-.636.98-.557 1.458-1.378 1.458-2.438z" fill="#b32"/><path d="M23.195 15.213c.795.636 1.987 1.193 2.067 2.12.026.292.053 1.007-.053 1.405-.159.662-4.32-3.71-5.485-3.763-.504-.026-.636.61.185 1.378.663.61 5.3 3.763 5.326 4.585l.026 5.75c.583.397 1.484 1.855 1.988 2.199l.079-12.773c-.079-.768-.106-6.44-.185-6.678s-.106-.874-.901-1.59c-.822-.715-3.074-2.199-3.206-2.359s-1.484-.822-1.67-1.06c-.212-.159-1.06.424 0 1.352.928.822 2.676 1.829 3.578 2.677.212.239.212.503.239.795s.133 1.59-.106 1.749c-.636-.265-3.657-2.491-4.001-2.756-.345-.239-1.166-.398-1.007.503.212.768 1.881 1.723 2.782 2.332l2.014 1.378c.133.239.45.583.318 1.802-.026.265.106.742-.106.901-.795-.397-2.226-1.828-2.915-2.279s-.954-.689-1.802-1.086c-.662-.344-.954-.027-.689.583.53.822 2.279 1.961 3.525 2.835zm3.869 31.8l.133-8.877c-.239.053-.504.079-.769.079l-1.113.079.026 8.348c-.053.636.08 2.517.133 3.047.053.504.318.795.822.875a1.78 1.78 0 0 0 .795-1.617c-.053-.663-.053-1.325-.026-1.934z" fill="#339"/><path d="M24.52 38.268c-.265.053-.556.053-.821.053l-3.895.106-6.996 4.134c-1.855 1.113-3.471 2.729-4.108 1.855-.61-.874-1.352-2.491-1.961-2.12-1.087.609-.954.928-.636 1.457l.901 1.537c-.053.424-.821.61-1.378.954s-1.67.822-2.014 1.087c-.875.689-.239 1.935.901 1.616.424-.106 1.007-.45 1.511-.742 1.272-.689 2.438-.954 2.676-.371s.663 1.352 1.405 1.537c.477.239.98-.318.927-.875-.053-.53-.901-1.537-1.033-1.961.795-.663 2.941-1.749 3.71-2.067s6.334-3.365 8.268-4.425l2.65-1.749c-.08-.026-.08-.026-.106-.026zm12.296-10.573c-.874-.636-2.359.503-3.154 1.192-.318.265-2.12 1.537-4.293 3.047.079.053.133.106.212.186.662.53 1.378.954 2.067 1.457l2.889-1.987 2.332-1.987c.344-.345.636-1.299-.053-1.908z" fill="#b27"/><path d="M20.28 38.93l-12.376-.742c-1.828-.159-3.63-.715-5.432-1.113-.239-.053-.45-.345-.663-.53.212-.239.371-.609.61-.689l7.34-2.782c1.457-.504 2.624-1.245 3.551-2.491l5.697-7.42c.239-.318.504-.636.822-.848.61-.398 1.192-.398 1.722.185l5.353 6.175c2.253 2.889 5.035 4.902 8.427 6.174.928.345 1.776.822 2.65 1.246.186.106.318.318.477.503-.186.159-.344.398-.556.451-1.378.291-2.73.689-4.134.822zm16.563-2.146c.026-.106.026-.186.053-.291l-1.722-.795c-1.669-.821-3.498-1.404-4.929-2.517-1.59-1.219-2.889-2.889-4.24-4.425-1.537-1.723-2.941-3.525-4.479-5.274-.715-.822-1.325-.795-1.961.027l-6.386 8.48c-.212.265-.504.53-.822.663-1.564.689-3.154 1.352-4.744 1.961l-4.531 1.696c11.236 2.862 22.499 1.802 33.655.477zm-10.998-3.895l-.901-1.988-.928.265.08 1.458c-.08.026-.159.026-.265.053l-.504-1.325-1.564.265v1.405c-.08 0-.133.026-.212.026-.08-.186-.185-.371-.185-.556 0-.742-.371-.954-1.086-.875-.318.053-.636-.053-.98-.106 0-.079 0-.159-.026-.238l1.802-.212-.239-1.325h-1.457l-.291.901c-.556-.901.026-2.014-.954-2.65.424-.556.53-1.087-.185-1.537l.663-.874c.556.397 1.087.689 1.193-.318l1.378.689-.106-1.033c.504.265.901.477 1.299.663-.185 1.219-.133 1.272 1.113 1.431.185.026.45.159.504.318l2.093 5.194c.026.08-.053.186-.08.291 0 .053-.079.08-.159.08zm-4.505-3.154c.185.504.265 1.166.504 1.246.424.133.954-.106 1.511-.186-.185-.556-.291-.954-.424-1.351-.556.106-.98.159-1.59.291zm1.378-.795c-.398-1.404-.636-1.537-1.696-.822.318 1.245.318 1.245 1.696.822zm-3.445-.716l.08 1.113c.291-.026.504-.026.715-.053s.424-.053.689-.106l-.265-1.113-.821.079c-.133 0-.239.027-.398.08zm1.06-.662c-.185-1.272-.345-1.351-1.378-.874.106.318.185.61.291.98.371-.053.715-.079 1.087-.106zm1.696-.344c-.291-1.139-.345-1.166-1.431-.742l.345 1.06c.398-.133.742-.239 1.087-.318zm1.431 2.226l.345 1.245.503-.106a2.05 2.05 0 0 0 .424-.186c-.371-1.351-.398-1.378-1.272-.954zm.636-.822l-.609-1.272c-.265.133-.45.212-.742.345.477.318.133 1.457 1.351.928zm-10.335 4.531l-.874.689c.504.106.848.239 1.166.239s.663-.133 1.06-.053l-.45.504c.318.079.663.291.822.212.928-.477 1.299.344 2.014.715-.98.371-2.014-.556-2.809.504l1.219.318v.265c-.398 0-.769.026-1.166 0-.424-.026-.848-.106-1.272-.186-.026.08-.026.133-.053.212a12.19 12.19 0 0 1 .609.398v.212l-2.305.106c-.265-.663-.769-.769-1.908-.212.053-.265.106-.477.133-.662-.689-.742-1.272-.053-1.908.185.424-1.325 4.479-3.789 5.724-3.445zm-.556 1.325c-.769-.795-1.325-.265-1.935.106.769.636.769.636 1.935-.106zm-1.749.98c-.822-.689-.954-.689-1.722.159.61.424 1.192.477 1.722-.159zm1.431-.133c.715.583 1.298.345 1.881-.159-.689-.556-1.298-.45-1.881.159zm.159.954v-.239c-.556-.318-1.113-.504-1.723.239zm1.802-3.843c4.002 1.06 8.109.848 12.19.822-1.855 1.087-10.388.504-12.19-.822z" fill="#d71"/></svg>