<svg xmlns="http://www.w3.org/2000/svg" width="150" height="200" viewBox="0 0 39.7 52.9"><path d="M1.36 8.71c.795-.106 1.802-.424 3.286-1.034 1.855-.795 1.988-.822 2.491-.822.53 0 1.087.318 1.087.61 0 .185-.185.291-.583.345-.503 0-3.207.98-3.816 1.378-.768.45-.768.45-1.033.45-.239 0-.53-.106-.981-.371-.344-.185-.424-.265-.477-.53zm1.749 3.948c.609-.132.795-.212 1.563-.609 1.298-.742 1.643-.901 1.935-.901.318 0 .875.398.875.663 0 .212-.212.318-1.113.689-.583.239-1.564.769-1.749.954l-.583.53c-.053.026-.159.106-.318.239l-.079-.08c.053-.239.079-.291.238-.504.053-.106.106-.159.106-.185 0-.053-.053-.08-.159-.133-.397-.212-.689-.424-.715-.556zm.344 1.935c.186.132.292.212.345.212.106 0 .238-.08.397-.212 1.245-.98 1.961-1.404 2.412-1.404.61 0 1.51.715 1.51 1.192 0 .159-.106.318-.768 1.166-.079.132-.132.238-.132.265l.053.583c0 .132-.318.318-.795.503-1.087.371-1.405.557-1.405.795l.027.477c0 .132-.133.318-.212.318s-.238-.106-.424-.265c-.424-.424-.477-.557-.848-2.147-.026-.133-.106-.371-.212-.636-.053-.186-.106-.345-.106-.451 0-.053.027-.132.08-.318zM3.427 10.3c.53 0 1.192-.291 2.677-1.166.212-.159.238-.185.477-.185.477 0 .98.345.98.636 0 .212-.132.318-.795.583-.397.133-1.245.61-1.643.901l-.689.503c-.053.026-.132.08-.291.186l-.132-.026a2.65 2.65 0 0 0 .265-.371c.133-.132.186-.239.186-.318 0-.053-.053-.053-.133-.08-.583-.132-.848-.318-.954-.583zm.742-5.777c.477-.053.715-.053.98-.053.609 0 1.219.08 1.484.239.397.212.715.689.715 1.034 0 .318-.424.609-.795.609h-.106l-.609-.026c-.371 0-.716.053-1.59.159l-.027-.08c.53-.318.928-.609.928-.715 0-.053-.053-.106-.212-.212-.186-.133-.318-.318-.768-.875zm.185 10.785c0 .053.053.133.079.239.053.053.08.132.133.238.132.583.185.636.291.636.159 0 .716-.318.981-.583.238-.238.503-.822.503-1.166 0-.132-.106-.239-.265-.239-.265 0-.265 0-.715.344-.212.133-.265.159-.769.345-.159.053-.238.106-.238.185zM8.17 9.266c-.026.053-.026.053-.026.08 0 .08.053.159.212.345.715-.556 1.166-.795 1.775-1.033 1.828-.715 3.657-1.166 4.558-1.166.742 0 1.696.689 1.696 1.219 0 .212-.053.318-.53.901-.053.053-.318.477-.715 1.087-.186.318-.424.53-.557.53-.053 0-.291-.079-.609-.212a1.24 1.24 0 0 0-.45-.079c-1.06 0-1.988.239-3.233.795-.291.132-.53.185-.715.185-.053 0-.186-.026-.371-.053-.053.504-.133.716-.265.716-.424 0-1.14-1.696-1.14-2.597 0-.291.106-.53.318-.742zm.133 8.268c.662-.106.742-.132 1.325-.371a9.09 9.09 0 0 1-.318-2.517c0-1.431.291-2.385.715-2.385l.08.026.053.08c-.053.079-.053.159-.053.212a.24.24 0 0 0 .026.132c1.166-.927 2.093-1.378 2.782-1.378.716 0 1.775.636 1.775 1.087l-.053 1.193.106 3.233c0 .265-.132.663-.45 1.245.795.53 1.06.901 1.06 1.537 0 .424-.159.875-.318.875-.133 0-.98-.61-1.272-.901-.132-.133-.132-.133-1.113-1.458l-.371-.477c-.98 1.192-2.358 2.279-2.862 2.279-.106 0-.133-.053-.133-.185 0-.239.08-.345.424-.61.61-.503 1.113-1.139 1.352-1.643l-.901.424-1.06.53c-.106.053-.212.08-.265.08-.239 0-.557-.397-.557-.715 0-.053.027-.133.053-.239zm.265-11.687c.848-.159 1.139-.265 2.358-.821v-.901c0-.477-.053-.636-.265-.875-.185-.159-.291-.291-.318-.318 0-.026-.026-.053-.053-.133l.053-.08c.292-.133.424-.133.609-.133.795 0 1.537.424 1.537.901 0 .106-.026.318-.079.583-.027.133-.053.345-.08.61l.689-.185c.292-.08.53-.133.663-.133.53 0 1.272.424 1.272.715 0 .239-.106.239-.901.318-.292.053-.901.159-1.829.424-.026.318-.053.371-.106.663.557-.318.822-.398 1.193-.398.397 0 .901.318.901.556 0 .185-.186.291-.663.371-1.087.239-1.696.45-3.153 1.166-.132.053-.238.106-.291.106-.133 0-.61-.133-.901-.239-.133-.053-.239-.133-.318-.345l.026-.08c.689-.212.928-.318 1.829-.689.132-.318.132-.345.132-.715-.556.239-.795.291-1.007.291-.45 0-.954-.185-1.272-.53zM9.76 10.22c.027-.239-.185-.424-.424-.424-.424 0-.583.133-.583.504 0 .318.08.61.265.848a.47.47 0 0 1 .08.106c.344-.106.636-.556.662-1.033zm.424 4.823l.689-.053c.053-.026.292-.079.609-.212.212-.053.424-.106.583-.106.477 0 .875.239.875.504 0 .185-.159.291-.583.371-.133.026-.318.053-.504.132-.477.133-.822.212-1.033.212-.106 0-.238-.026-.636-.132l.053 1.192.583-.238 1.06-.451.265-.132c.079-.053.159-.106.238-.106a1.41 1.41 0 0 1 .504.238.28.28 0 0 1 .132.239c0 .159-.132.424-.503.901.318.053.397.079.848.238.079-.397.106-.715.106-1.537v-.53c-.027-3.021-.106-3.471-.583-3.471-.318 0-.318.026-1.166.53-.159.106-.344.185-.556.239l-.663.159c-.053.026-.132.08-.265.212-.026.133-.026.186-.026.318.715-.053.98-.079 1.404-.239.291-.132.53-.212.636-.212.318 0 .715.318.715.556 0 .185-.053.239-.53.371l-1.166.239c-.291 0-.556-.079-1.087-.344l-.053.239.053.822zm3.313-5.247c-.874 0-1.325-.185-1.484-.556-.132-.291-.159-.318-.265-.318-.053 0-.397.133-.98.398.08.212.132.291.132.371 0 .239-.238.689-.609 1.272 1.033-.398 2.491-.715 3.339-.715.424 0 .503-.053.636-.424zm1.404-1.404c0-.159-.159-.265-.371-.265-.265 0-.901.159-1.564.424.08.318.239.371.716.371a12.7 12.7 0 0 0 1.06-.08c.106-.212.159-.318.159-.45z" fill="#084"/><path d="M35.015 2.615l-5.618 6.916v1.166h5.353v1.06c0 .371-.053.609-.185.715-.159.186-.636.265-1.431.291v.822h4.532v-.822l-1.193-.106c-.291-.106-.424-.398-.424-.901v-1.06h2.014V9.611h-2.014V2.588zm-.291 7.022h-4.081l4.081-5.141z" fill="#b32"/><path d="M16.995 50.58l-1.484-4.399-4.425-16.059c-.954-3.578.768-5.538 4.982-5.83.159 0 .292-.027.451 0 1.696.212 3.074-.159 4.399-1.193 1.643-1.272 3.895-1.087 5.989-1.007.398.027.954.636 1.113 1.06l5.485 15.715 2.173 5.989c.08.238.106.503.106.556l-9.938.848c-3.365.53-6.254 1.961-8.851 4.32zm-.186-4.293c2.067-.795 3.922-1.749 5.936-2.2 1.537-.344 1.563-.874 1.246-1.961l-4.187-14.363c-.636-2.226-.901-2.438-3.551-2.359-.345 0-.689.053-1.034.08-2.517.265-3.816 2.014-3.18 4.187l3.843 13.33.927 3.286zm16.669-4.532c0-.026 0-.291-.08-.53L27.595 25.22c-.848-2.358-1.722-2.703-4.346-1.855-.557.186-1.06.451-1.564.716-.901.53-1.298 1.192-.927 2.226l1.643 5.327 2.862 10.441c.186.636.398 1.113 1.431.928l6.784-1.246zm1.034 3.021c-.212-1.352-.398-1.563-1.669-1.643-2.411-.159-4.664.106-6.837 1.775zm-10.255.371c-2.491-.239-6.943 1.987-6.758 3.339z" fill="#b27"/><path d="M26.005 12.95l-4.532.398-1.431 6.015c-.159.875.132 1.828.053 2.73-.053.477-.477.928-.716 1.378-.318-.318-.822-.609-.927-.98-.53-1.643-.504-3.233.238-4.823.716-1.511 1.484-3.127-.185-4.744-.53-.53-.212-1.139.662-1.166 1.034-.053 2.093-.026 3.1.079 1.908.212 2.942-.477 2.942-2.173l-.053-2.597a4.59 4.59 0 0 1 1.961-3.763c.345-.265 1.034-.159 1.537-.239-.159.371-.212.848-.504 1.113-1.272 1.087-2.359 4.134-1.352 5.432 2.252 2.862.371 4.664-1.617 6.466-1.404 1.245-2.544 2.57-2.995 4.346-.106.371-.822.61-1.272.901-.159-.477-.583-1.007-.477-1.431.53-2.04 1.855-3.657 3.683-5.008.689-.503 1.139-1.166 1.882-1.934zM13.974 42.63c-.106.291-.212 1.033-.344 1.033-.928 0-1.882-.159-3.1-.265-.08.212-.186.822-.53 1.299-.345.45-.928 1.007-1.458 1.033-.397.026-1.007-.61-1.352-1.033l-2.517-3.392c-.477.715-.715 1.166-1.06 1.537-.238.238-.636.371-.98.556-.106-.371-.398-.795-.292-1.113.901-2.465 3.1-3.71 6.122-3.578l1.775.053-1.166-1.404c-1.007-1.272-.53-2.57 1.113-2.968.398-.08.927.212 1.404.318-.238.318-.424.663-.715.954-.185.186-.45.292-.874.53l1.06.954c.397.424 1.139.954 1.06 1.272-.238.874-.795 1.669-2.147 1.617a41.03 41.03 0 0 0-3.127.053c-.318.027-.61.239-1.14.451l2.835 3.313.61-1.246c.583-1.166 1.298-2.252 2.835-2.597.291-.08.874.026.98.212.159.238.186.397.08.689-.159.344-1.829-.769-2.279 1.484.45.159 2.358 0 3.207.239zm21.492-9.169c2.517 1.59 2.782 3.18.795 4.32-.345.186-.954.053-1.431.053.106-.371.08-.848.318-1.113 1.007-1.113.98-1.245-.504-1.802-1.934-.715-1.934-.715-.769-2.12.239-.265.424-.583.61-.875.795-1.325.53-1.775-1.219-1.934-.239-.026-.556.027-.742-.053-.398-.212-.715-.503-1.06-.768.371-.239.715-.663 1.087-.663 1.351-.026 2.73.08 3.657 1.166.874 1.034.291 1.987-.212 2.915a8.49 8.49 0 0 0-.53.874z" fill="#339"/><path d="M18.32 29.645c.212.265.477.53.583.822l3.418 10.441c.08.265-.132.583-.212.901-.344-.238-.901-.424-1.033-.715l-2.544-7.261-.954-3.021c-.079-.345.159-.769.265-1.14.186-.026.318-.026.477-.026zm.557 12.905c-.265-.45-.583-.874-.742-1.352l-3.26-9.99c-.106-.344.212-.795.318-1.192.291.291.742.556.848.901l3.498 10.467c.106.345-.053.742-.106 1.14zm4.585-14.84c.45.662.715.927.822 1.245l3.498 10.838c.079.291-.212.636-.345.954-.318-.239-.822-.398-.927-.689L22.8 29.113c-.079-.292.345-.716.663-1.405zm2.623.106c.185.291.45.556.53.848l3.445 10.468c.133.371-.106.848-.159 1.272-.345-.291-.875-.53-1.007-.901-1.272-3.498-2.491-7.022-3.657-10.573-.106-.318.238-.768.371-1.139.185 0 .344 0 .477.027z" fill="#d71"/></svg>