<svg xmlns="http://www.w3.org/2000/svg" width="150" height="200" viewBox="0 0 39.7 52.9"><path d="M1.165 8.776c.795-.106 1.802-.424 3.286-1.033 1.855-.795 1.988-.822 2.491-.822.53 0 1.087.318 1.087.609 0 .186-.185.292-.583.345-.504 0-3.206.981-3.816 1.378-.768.45-.768.45-1.033.45-.239 0-.53-.106-.98-.371-.345-.186-.424-.265-.477-.53zm1.749 3.948c.609-.133.795-.212 1.563-.609 1.299-.742 1.643-.901 1.935-.901.318 0 .874.398.874.663 0 .212-.212.318-1.113.689-.583.239-1.564.768-1.749.954l-.583.503c-.053.027-.159.106-.318.239l-.08-.079a.99.99 0 0 1 .238-.504c.053-.106.106-.159.106-.185 0-.053-.053-.08-.159-.133-.398-.212-.689-.424-.715-.556zm.345 1.908c.185.133.291.212.344.212.106 0 .239-.079.398-.212 1.245-.981 1.961-1.405 2.412-1.405.609 0 1.51.716 1.51 1.193 0 .159-.106.318-.769 1.166-.08.132-.133.238-.133.265l.053.583c0 .133-.318.318-.795.503-1.087.371-1.405.556-1.405.795l.026.477c0 .133-.133.318-.212.318s-.239-.106-.424-.265c-.424-.424-.477-.557-.848-2.147-.026-.132-.106-.371-.212-.636-.053-.185-.106-.344-.106-.45 0-.053.026-.132.08-.318zm-.026-4.293c.503 0 1.192-.291 2.676-1.166.212-.159.239-.186.477-.186.477 0 .98.345.98.636 0 .212-.133.318-.795.583-.398.133-1.245.609-1.643.901l-.689.503a3.65 3.65 0 0 0-.291.186l-.133-.027a2.65 2.65 0 0 0 .265-.371c.133-.133.185-.239.185-.318 0-.053-.053-.053-.133-.08-.583-.132-.848-.318-.954-.583zm.742-5.777c.477-.053.715-.053.98-.053.61 0 1.219.08 1.484.239.397.212.715.689.715 1.033 0 .318-.424.61-.795.61h-.106l-.61-.027c-.371 0-.715.053-1.59.159l-.026-.08c.53-.318.928-.61.928-.716 0-.053-.053-.106-.212-.212-.185-.133-.318-.318-.769-.875zm.185 10.786c0 .053.053.133.08.239.053.053.08.133.133.239.133.583.185.636.291.636.159 0 .715-.318.98-.583.239-.239.53-.822.53-1.166 0-.133-.106-.238-.265-.238-.265 0-.265 0-.715.345-.212.133-.265.159-.769.345-.185.053-.265.106-.265.185zm3.816-6.042c-.026.053-.026.053-.026.079 0 .079.053.159.212.345.715-.556 1.166-.795 1.776-1.033 1.828-.716 3.657-1.166 4.558-1.166.742 0 1.696.689 1.696 1.219 0 .212-.053.318-.53.901-.053.053-.318.477-.715 1.086-.185.318-.424.53-.556.53-.053 0-.291-.079-.61-.212-.133-.053-.291-.079-.45-.079-1.06 0-1.988.239-3.233.795-.291.133-.53.186-.715.186-.053 0-.185-.027-.371-.053-.053.504-.133.716-.265.716-.424 0-1.14-1.696-1.14-2.597 0-.291.106-.53.318-.742zm.133 8.268c.663-.106.742-.133 1.325-.371a9.09 9.09 0 0 1-.318-2.517c0-1.431.291-2.385.715-2.385l.08.026.053.08c-.053.079-.053.159-.053.212-.004.046.005.092.026.133 1.166-.928 2.093-1.378 2.782-1.378.715 0 1.775.636 1.775 1.086l-.053 1.193.106 3.233c0 .265-.133.663-.45 1.245.795.503 1.06.901 1.06 1.537 0 .424-.159.875-.318.875-.133 0-.98-.61-1.272-.901-.133-.133-.133-.133-1.113-1.457l-.371-.477c-.98 1.192-2.358 2.279-2.862 2.279-.106 0-.133-.053-.133-.186 0-.238.08-.344.424-.609.61-.504 1.113-1.14 1.351-1.643l-1.961.927a.7.7 0 0 1-.265.079c-.239 0-.556-.398-.556-.715 0-.053.026-.133.053-.238zm.265-11.687c.848-.159 1.14-.265 2.358-.822v-.901c0-.477-.053-.636-.265-.874-.185-.159-.291-.292-.318-.318 0-.027-.026-.053-.053-.133l.053-.079c.291-.133.424-.133.609-.133.795 0 1.537.424 1.537.901 0 .106-.026.318-.08.583-.026.133-.053.345-.08.61l.689-.186c.291-.08.53-.132.663-.132.53 0 1.272.424 1.272.715 0 .238-.106.238-.901.318-.291.053-.901.159-1.828.424-.026.318-.053.371-.106.663.556-.318.822-.397 1.193-.397.398 0 .901.318.901.556 0 .186-.185.292-.662.371-1.087.239-1.696.45-3.154 1.166-.132.053-.238.106-.291.106-.133 0-.61-.133-.901-.239-.133-.053-.239-.133-.318-.344l.026-.08c.689-.212.928-.318 1.828-.689.133-.318.133-.345.133-.716-.556.239-.795.292-1.007.292-.45 0-.954-.186-1.272-.503zm1.193 4.373c.026-.239-.185-.424-.424-.424-.424 0-.583.132-.583.503 0 .318.08.61.265.848a.47.47 0 0 1 .08.106c.345-.079.636-.53.663-1.033zm.424 4.823l.689-.053c.053-.027.291-.079.61-.212.212-.053.424-.106.583-.106.477 0 .875.239.875.503 0 .186-.159.292-.583.371-.133.026-.318.053-.504.132-.477.133-.822.212-1.034.212-.106 0-.239-.027-.636-.133l.053 1.192.583-.238 1.06-.45.265-.133c.08-.053.159-.106.239-.106a1.73 1.73 0 0 1 .53.239c.08.053.133.132.133.238 0 .159-.133.424-.504.901.318.053.398.079.848.238.08-.398.106-.715.106-1.537v-.504c-.026-3.021-.106-3.472-.583-3.472-.318 0-.318.027-1.166.53-.159.106-.345.185-.556.238l-.663.159c-.053.027-.133.079-.265.212-.026.133-.026.186-.026.318.715-.053.98-.079 1.405-.238.291-.133.504-.212.636-.212.318 0 .715.318.715.557 0 .185-.053.238-.53.371l-1.166.239c-.291 0-.556-.079-1.086-.344l-.053.239.053.822v.027zm3.313-5.247c-.875 0-1.325-.185-1.484-.556-.133-.291-.159-.318-.265-.318-.053 0-.398.133-.98.398.08.212.133.291.133.371 0 .238-.239.689-.609 1.272 1.033-.397 2.491-.715 3.339-.715.424 0 .503-.053.636-.424zm1.404-1.404c0-.159-.159-.265-.371-.265-.265 0-.901.159-1.563.424.08.318.239.371.715.371a13.14 13.14 0 0 0 1.06-.08c.106-.212.159-.318.159-.45z" fill="#084"/><path d="M34.9 3.396l-5.618 6.917v1.193h5.353v1.06c0 .371-.053.609-.186.715-.159.186-.636.265-1.431.292v.822h4.531v-.822l-1.192-.106c-.291-.106-.424-.398-.424-.901v-1.06h2.014V10.42h-2.014V3.396zm-.291 7.023h-4.081l4.081-5.141z" fill="#b32"/><path d="M2.49 45.425l-.212-5.485-.45-8.851-.265-6.651c0-.424.08-.875.212-1.299.159-.53.398-.689.954-.609.318.053.45-.106.61-.344.212-.291.477-.583.795-.689a11.17 11.17 0 0 1 4.373-.636l2.889.106c1.749.185 3.498.556 5.141 1.272l2.252 1.007c.424.212.795.186 1.14-.106 1.113-.954 2.385-1.563 3.71-2.067l2.438-.98c.689-.239 1.378-.398 2.067-.583l2.491-.609c.901-.212 1.829-.318 2.756-.159.504.106.901.371 1.246.795a.69.69 0 0 0 .424.239c.53.079.954.318 1.166.848.132.291.291.451.609.504.185.026.45.185.53.371.185.424.397.901.424 1.378l.186 4.267.397 10.335.08 7.923c0 .451 0 .901-.106 1.352-.053.239-.239.477-.424.61-.663.424-1.404.609-2.173.662l-4.028.291-3.816.371c-.848.106-1.696.371-2.544.556l-1.431.318-1.404.424c-1.378.371-2.782.291-4.187.053l-4.69-.795c-.874-.106-1.775-.106-2.65-.106l-5.565.053c-.636 0-1.299-.265-1.935-.424-.53-.133-.689-.636-.742-1.087-.106-.742-.08-1.511-.106-2.252zm1.696-9.646l.398 10.07c0 .186.026.344.053.53.053.504.371.769.769.848a11.29 11.29 0 0 0 1.325.159l2.995.08c2.014.106 4.001.344 5.962.848l3.843 1.06c.477.133.61.053.715-.45.026-.159.026-.345.026-.53l-.291-8.904-.159-2.677-.185-5.909-.477-6.28c-.026-.291-.133-.477-.398-.583l-3.154-1.351c-.583-.239-1.193-.477-1.829-.61-.893-.184-1.795-.317-2.703-.398l-2.995-.132c-1.193-.027-2.332.133-3.445.556-.689.238-.98.477-.928 1.378l.08 2.199zm30.21-13.647l-.053-1.643c-.053-.795-.398-1.14-1.139-1.166h-.901c-1.404 0-2.756.398-4.108.822l-4.849 1.776c-.928.371-1.829.901-2.677 1.431-.477.292-.98.662-.821 1.457.106.53.133 1.06.159 1.59l.477 11.104.185 7.473.159 2.358c.026.477-.053.954-.026 1.431.026.583.185.663.636.345 1.431-.981 2.756-2.147 4.373-2.782l2.729-.981c.451-.159.901-.265 1.351-.318l2.624-.318c.689-.053 1.378 0 2.094 0 .371 0 .636-.106.583-.636-.053-.291-.026-.583-.026-.874l-.106-5.035-.185-4.982-.291-7.446-.186-3.604zM24.67 47.519c.026.026.026.079.053.106.106-.026.239 0 .345-.053l1.908-.636c1.616-.424 3.259-.742 4.956-.795l3.736-.344c.663-.08 1.007-.424 1.033-1.034a8.56 8.56 0 0 0 0-1.166l-.185-6.068-.503-12.481-.212-3.71a1.67 1.67 0 0 0-.265-.715c-.079-.133-.318-.186-.477-.265-.079.186-.185.345-.185.53l.133 4.002.344 7.712.106 2.703.026 3.604.159 5.432c.026.583-.291.928-.822.901l-2.226-.08c-.477 0-.954.133-1.457.212l-1.59.239c-1.511.291-2.889.901-4.293 1.537a5.21 5.21 0 0 1-.583.371zM14.6 48.738v-.08c-.185-.053-.371-.106-.583-.132l-2.57-.318-3.26-.159-2.438-.079a2.36 2.36 0 0 1-.954-.291c-.689-.45-.795-1.192-.822-1.987l-.159-4.452-.742-17.305c0-.159.026-.318-.053-.424-.106-.159-.239-.318-.398-.371-.106-.026-.291.133-.371.265-.08.159-.106.398-.106.583l.45 12.217.318 6.731.397 4.532c.026.424.239.742.583.821.636.159 1.272.291 1.935.318.927.053 1.881 0 2.809 0h4.479l1.484.133zm8.639.265c.026.053.026.132.053.185.265-.079.503-.212.768-.265l2.73-.636c1.776-.424 3.604-.504 5.433-.636l4.717-.503c.662-.106.98-.556.98-1.166l.026-3.948-.238-7.049-.291-6.81-.212-5.618a1.22 1.22 0 0 0-.212-.662.43.43 0 0 0-.424-.106c-.106.053-.133.291-.159.424 0 .212.079.398.079.609l.159 4.108.477 15.37.053 2.676c.026.769-.371 1.325-1.06 1.431l-3.498.397-4.134.504c-1.272.159-2.518.583-3.737 1.034z" fill="#339"/><path d="M13.355 30.426l.132 3.79.053 5.167-.026 4.982c0 .45-.053.901-.08 1.325a.51.51 0 0 1-.08.265c-.08.133-.212.239-.318.371-.053-.159-.159-.318-.159-.451l.026-1.51.053-6.864-.159-4.876-.424-4.664-.318-2.835c0-.106-.026-.212 0-.318.053-.133.133-.212.212-.344.106.079.265.159.291.265l.265 1.246z" fill="#b27"/><path d="M16.535 30.691l.159 3.949.026 2.65.026 3.074-.026 1.961-.106 3.657c0 .238-.133.477-.212.715-.026.053-.133.133-.185.106s-.106-.106-.133-.186a.77.77 0 0 1 0-.344l.106-5.327.026-3.419-.159-4.611-.265-3.631-.477-3.604c-.026-.239-.133-.583.212-.663.08-.026.318.345.345.556zm-6.89-5.035l.397 3.127.265 3.445.159 3.206.08 2.889-.053 5.3c0 .583-.08 1.166-.159 1.722-.026.159-.159.291-.265.451-.053-.159-.159-.344-.159-.504l.133-3.736-.026-4.558-.185-4.85-.424-4.637-.318-2.915c0-.079-.026-.159 0-.212.053-.133.133-.238.185-.371.08.106.212.212.239.344l.185 1.272c-.026.027-.053.027-.053.027z" fill="#d71"/><path d="M7.525 45.16c-.053-.239-.133-.477-.133-.689V38.19l-.185-4.134-.133-3.286-.503-5.618-.026-1.193c0-.106.106-.212.185-.318.08.106.185.185.212.291l.345 2.915.371 4.267.159 3.021.133 5.115-.053 5.115c0 .265-.106.53-.159.795z" fill="#b27"/><path d="M25.81 38.403l-.186-2.041-.106-2.703-.133-1.961-.053-4.001.185-3.18a1.32 1.32 0 0 1 .133-.557c.053-.106.185-.212.265-.185s.186.186.212.291c.026.292.026.556.026.848l-.212 4.982c-.026 1.113.08 2.226.133 3.339l.212 3.869.344 3.683.265 2.438c0 .106-.079.239-.106.345-.106-.08-.265-.106-.318-.212-.106-.212-.159-.451-.186-.663l-.239-1.802c0-.053-.159-1.669-.239-2.491z" fill="#d71"/><path d="M22.895 32.149l.133 3.101.212 3.339.424 4.213c.053.451.133.901.133 1.378 0 .159-.106.318-.133.504-.132-.132-.344-.265-.371-.424-.133-.663-.212-1.325-.291-1.988l-.212-2.517-.239-2.438-.212-3.233-.08-5.3c0-1.06.106-2.093.185-3.153.026-.212.053-.424.133-.61.026-.079.159-.186.239-.186s.185.133.185.239c.026.159 0 .318 0 .477l-.212 4.24.106 2.358z" fill="#b27"/><path d="M32.17 41.185c-.079-.212-.186-.424-.212-.636l-.477-5.777-.212-3.869-.026-4.664.053-3.366c0-.285.027-.568.079-.848.027-.133.133-.239.212-.371.053.133.186.265.186.398l-.026 1.988.026 3.18.079 4.32.106 1.829.159 3.339.344 3.683c.026.265-.026.53-.053.795z" fill="#d71"/><path d="M29.255 23.483l-.186 5.247c-.026 1.087.053 2.2.106 3.286l.106 2.385.133 1.988.159 2.226.424 3.26c0 .079.053.159.026.212l-.159.318c-.079-.08-.212-.133-.212-.212-.106-.504-.265-1.007-.318-1.511l-.556-5.936-.079-2.173-.106-3.869c0-1.193.133-2.385.186-3.551l.079-1.908c0-.106 0-.212.026-.318.053-.079.133-.159.212-.239.079.08.186.159.212.239.026.159.026.344.026.53-.053.026-.053.026-.079.026z" fill="#b27"/></svg>