<svg xmlns="http://www.w3.org/2000/svg" width="150" height="200" viewBox="0 0 39.7 52.9"><path d="M18.145 8.775c-.186.133-.239.159-.344.159s-.106.027.026.106c.212.159.239.159.61.239l.106.026-.238.159c-.133.08-.265.186-.291.212-.053.053-.239.345-.212.345l.159-.053c.291-.106.477-.08.768.106l.079.053-.133.159c-.079.079-.133.159-.133.159.079.053.291.053.504.026.079-.026.159-.026.159-.026.026 0 0 .106-.053.212-.053.185-.079.159.106.132.239-.053.345-.106.636-.397.186-.186.186-.159.106.159-.106.344-.159.477-.318.583-.133.106-.133.106.079.053.398-.106.636-.186.848-.345.265-.212.556-.238.742-.079.133.106.106.265-.106.53l-.079.106h.053c.053 0 .239-.027.504-.08.239-.053.291-.106.503-.371.133-.159.159-.185.159-.132-.026.106-.053.503-.053.503.053.053.239-.159.398-.503.053-.106.106-.186.106-.159.053.106.079.318.079.477.026.212 0 .212.212.053.239-.133.318-.239.477-.451l.132-.185c.053.026.159.291.159.397 0 .159.026.159.186 0 .133-.106.318-.424.318-.53 0-.026 0-.053.026-.053.053-.079.212.292.212.504v.159c.053 0 .265-.212.345-.318.133-.186.186-.159.186.053 0 .238.132.503.185.344.053-.132.291-.344.291-.238s.079.344.106.424c.053.079.212.238.212.238l.106-.159c.106-.185.079-.185.398.053.159.106.291.212.291.238.026.027.026.027.026-.026-.265-.636.318-1.828.742-1.59.026.027.133.08.186.106a4.36 4.36 0 0 0 .53.186c.026-.027-.053-.292-.133-.398l-.079-.132c0-.027.239 0 .345.026l.106.053v-.053c0-.053-.079-.238-.133-.291a.58.58 0 0 0-.133-.106l-.079-.08.186-.026c.106-.027.212-.027.239-.027.079 0 .079-.026-.026-.132-.265-.239-.61-.398-.769-.345l-.053.027.053.053c.106.106.133.212.053.318s-.265.265-.477.371c-.239.132-.583.45-.689.662-.239.477-.848.53-1.378.159-.291-.212-.477-.238-1.087-.238-.477 0-.45 0-1.378.265-.901.265-1.988.106-2.385-.318-.265-.292-.424-.742-.371-1.034.026-.132.026-.132-.133-.053-.451.212-1.034.159-1.511-.132-.079-.265-.106-.265-.265-.133m-6.837.822c-.026 0-.133.053-.212.106s-.185.132-.265.159l-.265.159a10.52 10.52 0 0 1-.769.371c-.08.026-.159.079-.159.079 0 .053.398.08.822.08h.424l-.132.132c-.53.477-.689.583-1.007.742-.45.185-.583.292-.663.45-.08.133-.08.133.026.106.133-.026.239-.026.45.053.239.08.239.053.106.292-.239.397-.371.583-.848 1.087l-.265.265.106.053c.106.053.159.053.371.053.345.027.424.106.185.239-.398.212-.504.318-.636.662l-.053.132.106-.026c.053-.027.133-.053.185-.08s.08-.026.106-.026l.212.159.212.132-.106.186c-.212.397-.239.477-.133.848.026.106.053.265.053.344v.159l.053-.079c.026-.027.08-.133.133-.186.08-.132.106-.159.318-.265.239-.106.212-.132.291.053.185.53.159.795-.106 1.087-.133.159-.159.132.106.212.583.159.689.159.874-.053.08-.08.08-.08.159-.08l.053.027v.344c0 .318 0 .345.053.477.053.159.291.636.291.636s.026-.053.026-.133c.053-.265.133-.344.291-.371s.291-.212.212-.345c-.053-.106-.026-.106.106 0 .133.08.133.08.212.371s.265.45.848.848c.159.106.159.106.186 0 0-.053.026-.159.053-.292l.053-.212h.079c.08 0 .08 0 .106.106.08.345.265.61.556.795l.053.053v-.318l.08-.079c.079-.08.318-.186.477-.212.053 0 .079 0 .133.053.477.53.609.609 1.325.609.345 0 .397 0 .371-.026-.212-.133-.265-.186-.318-.239-.079-.079-.079-.212-.026-.424l.026-.132h.079c.053 0 .133.026.212.026.662.053.821.133 1.351.557l.239.185.079-.079c.053-.053.079-.106.079-.159 0-.133 0-.318-.026-.451-.026-.185-.053-.159.212-.106.424.106.61.159.822.371.133.133.133.133.239-.238l.106-.318c0-.027.133.106.53.53l.186.185.239-.238c.265-.265.398-.318.583-.345.265-.026.318.186.106.371-.106.08-.106.08.291.186s.556.106.901.026l.265-.053c.026.027-.371.557-.451.61-.186.106-.424.106-.715 0-.159-.053.291.53.609.795.079.079.079.079.053.132-.026.08-.026.08-.53-.053-.239-.053-.424-.106-.451-.079.001.124.01.248.026.371s.025.247.027.371c0 0-.132-.079-.265-.185-.265-.212-.477-.371-.61-.424-.079-.053-.503-.159-.503-.132l.106.689-.53-.344-.53-.371s-.106.106-.186.212c-.212.238-.186.238-.318.027-.186-.265-.291-.371-.424-.424-.265-.08-.212-.08-.398.238l-.186.292s-.053-.053-.133-.106c-.424-.371-.61-.451-.927-.451-.291 0-.265-.026-.291.318s0 .318-.291.371c-.61.132-.716.079-.769-.238-.026-.133 0-.133-.133-.027-.212.185-.265.238-.318.397a3.26 3.26 0 0 0-.133.663c0 .026.08 0 .345-.133 1.166-.556 1.696-.662 2.782-.662.768 0 .795 0 1.988.238 1.935.371 2.358.292 2.862-.424.504-.742.636-1.431.371-1.749-.556-.636-1.696-.795-3.896-.557l-2.782.159c-2.253-.079-3.922-.742-5.327-2.147-.954-.954-1.325-2.067-1.166-3.312.133-.98.901-2.305 1.935-3.365.106-.106.212-.212.212-.238-.08-.027-.345-.08-.477-.053m1.034.424c-.822.874-1.299 1.51-1.484 1.987-.768 1.855-.556 3.074.769 4.24.928.822 1.59 1.113 3.392 1.51 1.034.239 2.067.265 3.657.133l.742-.053a7.1 7.1 0 0 0 .689-.053c.556-.053 1.193-.053 1.405 0 .344.053.371.079.556.132 1.272.477 1.802 1.564 1.299 2.756-.238.556-.874 1.139-1.378 1.272-.106.026-.106.053-.053.106s.053.053.133.026c1.669-.609 2.226-2.756.981-3.816-.875-.742-1.484-.822-4.452-.557-1.404.133-2.597.08-3.498-.106-2.12-.477-2.915-.901-3.896-2.067-.662-.769-.768-1.59-.424-2.809.159-.556.318-.927.53-1.219.053-.053.08-.132.106-.159a15.07 15.07 0 0 1 1.087-1.272l.053-.053-.053-.027c-.106-.053-.106-.053-.159.027m-8.48 1.272c0 .716.133 1.219.689 2.438.106.265.424.848.504.98a2.39 2.39 0 0 0 .185.292l.212.344c.345.53-.795-.291-1.299-.954l-.345-.477-.185-.238c-.026.027.265.689.397.927.239.477.795 1.087 1.829 2.014.212.186.371.345.345.345-.026.026-.212-.027-.291-.053-.026-.027-.212-.159-.398-.292-1.299-1.033-1.987-1.457-2.491-1.537h-.106l.053.027c.026.026.133.079.239.132.53.292.61.371 1.245 1.246.265.371.45.503 1.431 1.087.636.371.583.344.424.371-.185.026-.291 0-1.14-.318-.875-.318-.822-.292-1.431-.874s-.742-.663-1.06-.663c-.291 0-.291.027-.053.106.45.159.556.239.848.822.238.45.318.556.715.795l.53.318.875.477c1.166.583 1.087.53.98.557-.106.053-.265.026-.822-.106-.875-.239-1.352-.398-1.749-.636-.239-.133-.291-.186-.503-.424-.239-.265-.345-.345-.504-.345h-.106c0 .08.954 1.087 1.325 1.378.291.239 1.219.636 2.253.981l.185.053c.026.026-.106.079-.159.079-.265 0-1.935-.477-2.306-.662-.08-.027-.265-.133-.424-.239l-.477-.265-.398-.212c-.106-.053-.185-.106-.185-.106-.053 0 .345.583.477.689.371.318 1.166.689 2.252 1.06l.848.345c-.185.159-.769.079-1.855-.292-.689-.238-.795-.291-1.643-.742l-.106-.053.159.159c.398.398.769.689 1.086.822.504.238 2.385.954 2.518.954.053 0 .159-.609.239-1.192a14.36 14.36 0 0 0 0-1.51c-.133-1.033-.556-2.623-.795-3.1-.08-.159.159.026.318.238.371.504 1.033 1.749 1.166 2.173.133.477.291 1.722.291 2.385 0 .795-.318 2.014-.927 3.63l-.053.159.371.371.106-.133a3.58 3.58 0 0 1 .345-.397c1.325-1.458 1.564-1.855 1.749-2.915.08-.503.08-.503-.026-.132-.239.715-.398 1.007-.822 1.431-.159.133-.291.239-.291.159 0-.026.106-.318.265-.795.45-1.298.636-2.04.636-2.465v-.132l-.185.424c-.265.636-.291.689-.61 1.007l-.291.265c-.026 0 .08-.424.185-.822.08-.238.159-.556.291-.848.318-.874.424-1.484.291-1.749l-.053-.133v.159c-.026.318-.398 1.404-.556 1.669-.053.08-.185.159-.212.133l.08-.53c.185-1.325.185-1.908-.053-2.756-.053-.132-.053-.132-.08.265l-.08.742-.053.477c0 .08-.026.133-.053.133-.08.079-.08.079-.133-.504l-.106-1.272-.159-.848-.026-.106-.026.106c-.106.689-.212 1.007-.345 1.113l-.08.053v-.318c0-1.219-.133-1.828-.504-2.332-.212-.292-.504-.557-.371-.345.291.451.398.742.371 1.272-.026.557-.026.557-.133.318l-1.405-2.305c-.477-.61-.556-.716-.689-1.272l-.053-.238-.106.159m10.574.556c-1.272.874-1.643 1.749-1.113 2.517.239.345.848.795 1.193.901.45.132.874.185 1.616.212.874.027 1.272 0 3.047-.185 2.014-.212 3.471-.027 4.743.583.371.186.663.451 1.404 1.299.822.954 1.007 2.252.504 3.71-.053.133-.079.239-.079.239.041.039.085.075.133.106l.133.106.079-.239c.53-1.404.451-2.809-.212-3.763-.344-.504-1.219-1.405-1.564-1.643-.556-.345-1.484-.662-2.359-.795-.98-.132-1.669-.106-3.657.106-1.749.185-3.259.132-3.842-.159-.424-.212-.874-.662-.98-.98-.106-.345.185-1.007.636-1.352.159-.132.61-.45.795-.583.212-.132.212-.132.053-.185-.291-.053-.291-.053-.53.106M7.041 18.58c0 .026.026.212.026.397.185 1.643.053 2.57-.636 4.24a10.36 10.36 0 0 1-.61 1.325c-.822 1.643-.98 2.173-.954 3.763 0 1.643.239 2.968.769 4.32a11.88 11.88 0 0 0 .504 1.007c.689 1.192 1.404 2.04 2.12 2.517 1.696 1.166 3.286 1.431 4.797.848 1.139-.451 1.828-1.935 1.616-3.392-.079-.583-.239-.848-.875-1.51-.928-.954-1.352-1.987-1.511-3.498 0-.132-.026-.318-.053-.397-.053-.503-.053-1.245 0-1.669.026-.106.026-.239.053-.265.026-.133.212-.689.318-.954.556-1.192 1.06-1.855 1.935-2.438a6.04 6.04 0 0 1 1.829-.742 1.73 1.73 0 0 0 .291-.053 4.74 4.74 0 0 1 1.087-.053c.318.027.503.053 1.299.186.556.106.954.132 1.299.159h.318l.026-.08c.026-.026.026-.079.026-.079s-.159-.027-.344-.027c-.371 0-.636-.053-1.219-.132l-.742-.133c-1.086-.185-2.093-.053-3.233.398-.874.344-1.749 1.113-2.252 1.935-.769 1.272-1.034 2.358-.928 3.63.159 1.669.424 2.703.901 3.365.026.027.079.106.106.159a4.19 4.19 0 0 0 .609.742c.689.742.795.954.874 1.696a3.33 3.33 0 0 1-.874 2.57c-.318.344-1.087.609-2.041.689-.689.053-1.351-.106-2.226-.53l-.53-.265c-.61-.345-1.325-.954-1.67-1.431-.026-.027-.08-.079-.106-.159-.477-.609-1.034-1.563-1.299-2.2-.53-1.325-.795-2.862-.742-4.532.026-1.325.106-1.617.742-2.995l.477-1.06c.026-.079.08-.185.106-.238s.08-.159.08-.239c.026-.079.08-.185.106-.291.689-1.749.821-2.57.636-4.055.026-.186-.106-.663-.106-.53m-4.134 2.093c.291.371.769.795 1.086.927a3.69 3.69 0 0 1 .345.159c.239.106.556.212 1.193.398l.53.159.159.053.026-.053c.026-.08.212-.583.185-.61h-.133c-.159.027-.795-.106-1.749-.371-.901-.265-1.139-.344-1.696-.689l-.053-.027.106.053m22.154.45c-.344.133-.45.292-.344.504.265.45-.186 1.404-.689 1.404-.106 0-.133 0-.106.027s.079.026.212.026h.186l.212-.132c.371-.265.556-.477.583-.716.026-.159.026-.185.159-.238.265-.106.398 0 .398.318 0 .371-.133.609-.504.874-.291.212-.424.636-.238.901.079.106.265.318.265.265-.133-.53-.026-.795.451-1.033.239-.106.265-.133.318-.318.079-.212.159-.265.318-.265.239.026.371.106.371.318 0 .053.026.212.053.344l.053.265-.159.318c-.106.212.026.583.291.715.133.053.133.053.079 0-.265-.344-.238-.477.159-.901.159-.159.212-.239.212-.265 0-.08-.159-.398-.239-.477-.079-.106-.079-.186-.026-.398.106-.318-.053-.768-.344-.901-.186-.079-.504-.132-.583-.079-.079.079-.186 0-.265-.186-.079-.291-.556-.45-.822-.371m-11.898.583c-.106.212-.106.318 0 .61l.079.212h-.079c-.742-.106-1.193-.053-1.643.159l-.08.026.212.133c.371.238.424.344.477.662l.026.159h-.053c-.026 0-.291.027-.583.053-.61.053-.556.053-.477.186.345.556.504.848.477.874s-.133.08-.265.159c-.53.265-.768.451-.901.636-.106.159-.318.583-.291.583l.583-.08c.318-.026.583-.079.583-.079s-.08.106-.212.238c-.662.636-.954 1.06-1.007 1.352-.026.185-.053.185.159.132.291-.079.424-.053.742.159.265.186.265.159.053.318-.318.212-.795.715-.742.768.026 0 .503.08.874.133.159.026.185.026.159.053 0 .026-.159.291-.318.609l-.318.583.344.106.424.133c.08.026.106.026.08.053 0 .026-.053.132-.239.795-.026.106-.053.212-.08.238l-.026.079.053-.026c.159-.027.318-.053.424-.027s.61.265.636.292-.053.159-.239.53l-.265.503h.663c.663-.026.715 0 .636.053-.159.133-.61.901-.61 1.034h.398l.636.026h.239l-.345.212a9.73 9.73 0 0 1-.583.371l-.265.159c-.026.026.026.079.265.318l.318.318c0 .026-.079.026-.291 0-.53-.027-.583-.027-.901-.265-.212-.159-.212-.159-.265 0-.026.053-.08.159-.133.212-.133.159-.159.185-.159.397v.186c-.053 0-.504-.292-.61-.398s-.132-.185-.159-.583c0-.265-.026-.318-.026-.318-.026 0-.08.053-.159.106l-.371.239c-.133.079-.265.185-.291.212-.08.079-.106.053-.106-.053 0-.08-.106-.61-.159-.768-.053-.133-.345-.716-.371-.689l-.053.185c-.08.292-.159.345-.556.397l-.133.027-.026-.132-.239-.848-.212-.742s-.159.053-.318.132l-.318.159v-.556l-.026-.557c-.053 0-.504-.053-.53-.053-.053 0-.053-.026.026-.344l.159-.742c0-.027 0-.027-.133-.053-.291 0-.371-.079-.477-.344l-.053-.159.106-.345c.133-.397.159-.318-.106-.715l-.212-.345.133-.238c.185-.292.185-.265.026-.398-.106-.079-.133-.132-.185-.265-.106-.265-.133-.238.212-.477.159-.106.291-.212.291-.238s-.053-.132-.239-.397l-.106-.159.318-.318.291-.318c-.026 0-.08-.027-.106-.027-.159-.026-.212-.159-.212-.424v-.159l.159-.185.239-.292c.106-.132.106-.106-.053-.265-.106-.106-.133-.106-.133-.079L5.982 26c-.371.822-.371.928-.371 1.802.026 1.378.477 3.26 1.06 4.505.768 1.59 1.484 2.412 2.889 3.26 1.007.609 1.802.795 2.597.556.769-.212 1.299-.742 1.564-1.537l.053-.185v-.371c0-.503-.026-.53-.636-1.192-1.193-1.299-1.458-1.802-1.749-3.392-.345-1.828-.239-3.312.371-4.823.504-1.219 1.352-2.173 2.491-2.756.053-.026.106-.053.08-.079s-.291-.08-.477-.133c-.186-.026-.53-.132-.556-.159 0 .027-.053.08-.133.212m-9.831.159c.026.053.424.477.53.557.397.291 1.007.53 1.775.715l.239.053.08-.185a5.66 5.66 0 0 0 .265-.636s-.053 0-.106.026c-.185.08-.424.08-1.245-.026-.663-.08-.927-.159-1.404-.424-.053-.053-.133-.08-.133-.08m19.371.106c-.239.053-.265.053-.371.186-.133.185-.212.185-.477-.027-.318-.265-.821-.212-.954.106-.026.053-.026.08 0 .08.265-.106.371-.133.504-.133.212 0 .265.053.609.504.079.132.133.159.265.238.398.239.61.662.398.874-.186.159-.61.106-.848-.106-.212-.159-.212-.185-.424-.185-.344 0-.583.08-.769.265-.239.212-.371.238-.556.079l-.106-.106.026.079c.053.212.291.45.503.503.159.027.212.027.398-.185.345-.318.477-.318.61-.053.106.185.53.397 1.007.503l.212.053.053-.053c.212-.159.61.345.398.53l-.079.08h-.239c-.265 0-.239 0-.689.185-.503.239-.901.212-1.166-.079-.106-.133-.106-.053.026.132.186.265.451.451.689.451.133 0 .159 0 .663-.106l.291-.08.212.027c.186.026.265.053.451.132l.212.106h.265c.371 0 .504-.053.504-.212 0-.106-.079-.238-.822-1.298-.265-.371-.344-.61-.344-1.033 0-.451.053-.636.265-.848.159-.159.185-.212.159-.318-.079-.265-.424-.398-.874-.292m-1.511.345l-.159.053c.026.026.451-.08.424-.106 0-.027-.079 0-.265.053m-17.702.397c.239.451.556.742.901.901.291.133 1.06.345 1.113.318.026-.027.318-.53.318-.556 0 0-.106-.027-.265-.027-.769-.026-1.193-.185-1.828-.583l-.265-.159c-.026 0-.026.027.026.106m.45 1.007c0 .132.954.822 1.14.822.026 0 .08-.079.159-.159.159-.238.159-.238.08-.238-.291 0-.689-.106-1.06-.292-.185-.079-.318-.159-.318-.132m13.568.583c-.795.053-1.511.291-1.908.636-1.086.901-1.537 2.067-1.272 3.233a14.38 14.38 0 0 0 .398 1.511c.053.106.133.265.397.636.583.848.875 1.352 1.06 1.855l.133.318c.318.795.239 2.517-.159 3.657l-.053.159a.72.72 0 0 0 .291.132c.026-.027.186-.583.265-.927.133-.663.239-1.908.159-2.358-.159-.928-.53-1.723-1.351-2.915-.451-.636-.477-.768-.795-2.067-.186-.822-.026-1.643.45-2.305.159-.238.689-.715.901-.874.424-.292 1.564-.504 2.306-.424l1.086.185c.424.08.954.159 1.192.159h.212v-.053c0-.079.026-.079.079 0l.026.053h.371c.556-.026.927-.079 1.378-.238l.212-.08s-.053 0-.079.027c-.079.053-.291.026-.53-.053l-.133-.053-.239.026c-.609.106-1.404.053-2.385-.132-1.14-.133-1.404-.159-2.014-.106M3.941 33.287c.026.053.026.08.026.08l.159.106c.159.106.159.132.398.503l.848 1.219c1.723 2.014 3.525 3.312 5.088 3.683.715.159 1.537.185 2.464.026h.08v-.159c0-.186 0-.186-.212-.159-1.511.238-2.464.079-3.789-.662-1.299-.716-2.915-2.226-3.71-3.445-.53-.822-.742-1.033-1.087-1.192-.291-.08-.318-.08-.265 0m10.998 3.127c-.477.053-.795.212-.98.503-.239.397-.291.583-.212.795.159.398.185.53.079.769l-.106.318a.59.59 0 0 0 .026.556c.133.265.159.318.133.557v.212l.079-.106c.239-.265.239-.345.08-.609-.08-.106-.106-.159-.106-.265s-.026-.079.239-.53c.053-.106.053-.106.053-.265-.079-.822.106-1.193.583-1.193.371 0 .424.159.212.557l-.133.238.026.265c.053.424.026.53-.239.662-.239.132-.291.185-.239.345 0 .053 0 .053.106-.027.053-.026.159-.079.265-.106.583-.132.716-.265.636-.689-.053-.398.026-.662.291-.822.345-.185.715.185.477.477a2 2 0 0 0-.318.715l-.053.159.053.212c.079.371.053.451-.265.53-.291.053-.556.292-.53.504 0 .265.265.636.477.662h.079l-.053-.079c-.053-.106-.159-.424-.159-.504 0-.106.106-.185.636-.371.265-.106.265-.106.371-.477.079-.265.079-.318.079-.53 0-.477.159-.636.451-.504.186.079.212.132.265.345.026.079.053.159.053.212.053.159-.026.477-.159.822-.186.451-.159.636.106 1.034.186.265.424.371.265.106-.212-.318-.212-.583-.026-1.139.345-.981.345-1.431 0-2.094-.186-.371-.318-.477-.636-.503-.239-.027-.318-.08-.371-.292 0-.371-.583-.53-1.537-.45m-2.518 3.816c.053.185.477.53.663.53.291 0 .424.106.371.318-.026.106-.08.106-.345.079s-.291-.026-.371.185c-.079.186-.133.239-.344.239-.159 0-.159 0-.026.106.133.079.185.079.398-.053.239-.159.398-.186.689-.106.397.106.133.477-.345.45-.212-.026-.239 0-.371.133-.185.185-.265.185-.609 0-.133-.053-.212-.106-.212-.08 0 .053.185.186.371.265.265.106.239.106.53.026.318-.079.398-.053.822.212.344.212.53.132.742-.292.079-.159.079-.265 0-.53l-.053-.345c0-.106.026-.159.053-.265.079-.186.079-.292 0-.451s-.133-.185-.239-.053c-.133.132-.212.132-.371.026-.186-.106-.239-.132-.45-.106-.291.027-.61-.079-.795-.291-.106-.053-.106-.053-.106 0" fill="#d71"/><path d="M25.883 2.945c-.344.292-.477.451-.53.689-.053.133-.053.159.026.133.265-.106.53.053.53.265 0 .106 0 .106.053.106.398 0 .504.662.106.848-.026.027-.026.027 0 .08.186.291-.186.768-.583.768-.238 0-.424-.079-.477-.212-.026-.053-.053-.079-.053-.079-.026.053-.079.318-.106.556a1.29 1.29 0 0 1-.053.398c-.053.185-.053.185.106.106.133-.08.239-.212.318-.371.026-.053.053-.053.079-.053.079 0 .079.026.079.238a.32.32 0 0 0 .212.371c.133.08.106.08.106-.079 0-.106 0-.159.053-.318.079-.212.079-.212.186-.106.079.053.504.212.53.185v-.08a1.14 1.14 0 0 1 0-.424.87.87 0 0 0 .186.026c.239.027.345.027.503 0 .159-.053.159-.053.026-.132-.265-.159-.371-.345-.371-.742 0-.451.133-.663.689-.954l.133-.08c0-.053-.477-.079-.715-.053-.159.027-.159.027.053-.212l.185-.212h-.079c-.053 0-.291.053-.424.08-.079.027-.053-.397.053-.53l.053-.106c-.106 0-.477.212-.636.345-.079.079-.212.053-.159-.053l.159-.557c-.026 0-.133.08-.239.159m-9.619 1.272c.053.265.186.424.398.53.424.212.583.503.583 1.087 0 .239.026.239-.239.106l-.636-.344c-.663-.318-1.246-.424-1.776-.292-.292.08-.424.159-.848.477-.45.371-.609.451-.98.53-.053 0-.212.053-.318.053-.212.053-.848.053-1.14 0-.318-.053-.318-.053-.291-.026.318.424.424.503.795.583.212.026.239.079.08.159-.291.159-.583.106-1.298-.239-.556-.265-.663-.291-.901-.291-.185 0-.239.053-.106.053.212.026.345.132.583.503a2.41 2.41 0 0 0 1.192 1.007c.106.053.291.106.371.132.371.159.318.159.822.159.848.027 1.166-.053 1.776-.371.159-.079.371-.291.371-.344s-.265-.027-.583.026c-.716.133-.928.133-1.246-.026-.185-.106-.239-.212-.133-.371.106-.212.212-.212 1.352-.212 1.034 0 1.034 0 1.404-.132.477-.186.583-.212.848-.265.424-.08.583-.08 1.113-.08.822 0 1.511-.079 1.484-.132s0-.318.026-.424l.026-.08-.291-.265c-.398-.371-.503-.53-.53-.715-.026-.239-.344-.636-.556-.689-.106-.027-.424-.027-.636 0s-.424 0-.689-.106c-.053-.053-.053-.053-.026 0m4.372.715c-.186.08-.398.239-.451.345-.079.132-.106.132-.318.132-.344-.026-.716.292-.795.716-.053.291-.026.397.106.344.265-.106.556.239.504.583-.026.185-.026.212.053.212.106 0 .397.106.609.212.583.291.61.318.61.397 0 .133-.106.08-.371-.106-.954-.742-2.57-.45-2.968.504-.079.185-.079.185.053.132.212-.079.318-.053.556.212.132.159.291.239.636.345.398.106.556.079 1.113-.159.344-.159.424-.186.371-.053a.28.28 0 0 1-.133.079l-.106.027-.026.132c-.106.424.132.928.477 1.166.504.318 1.404.345 2.306.08.636-.186.848-.212 1.351-.212.583.026.689.053 1.007.291.504.345.981.292 1.219-.159a2.43 2.43 0 0 1 .715-.662c.212-.106.477-.318.477-.398s-.133-.212-.265-.238c-.053 0-.053 0-.053.079 0 .186-.159.345-.344.424-.265.08-.609.451-.715.716-.159.424-.556.397-1.219-.053-.556-.398-.61-.398-1.378-.451a4.49 4.49 0 0 1-.689-.053c-.133-.027-.318-.053-.398-.053-.451-.026-.636-.212-.636-.662 0-.424.291-.636 1.007-.716.398-.053 1.06-.318 1.723-.689.424-.239.662-.53.609-.689a.28.28 0 0 1-.053-.133l-.026-.079-.053.079c-.079.106-.185.186-.424.292s-.239.106-.186-.053c.026-.053.026-.106.026-.106s-.053.026-.079.026c-.053.027-.079.027-.159 0s-.106 0-.106.08c0 .132-.106.185-.265.185-.186-.026-.186-.026-.212.053-.053.212-.265.265-.477.053l-.106-.079-.026.079c-.106.292-.663.53-1.193.451h-.106l-.133.159c-.159.212-.159.212-.159 0 0-.239-.026-.239-.212-.08-.186.133-.451.106-.689-.079l-.106-.08h.212c.159 0 .212-.026.239-.053.079-.053.053-.079-.026-.053s-.265-.053-.291-.106c0 0 .079-.079.186-.132s.212-.159.265-.186l.079-.053-.053-.026c-.079-.027-.159-.027-.291 0l-.106.026.026-.053c.053-.185.186-.344.318-.371s-.106-.185-.318-.185c-.186-.027-.186-.027-.053-.106.212-.133.371-.212.477-.212.133 0 .345-.08.424-.159.106-.106.079-.106-.133-.08-.106.027-.186.027-.186.027-.026-.027.079-.186.186-.238.159-.106.159-.265 0-.239-.079 0-.291-.026-.318-.053l.106-.106c.159-.106.133-.132-.239-.132-.265-.133-.265-.133-.398-.053m.106.397c.212.133-.159.424-.583.477-.291.027-.371.08-.424.292s-.265.344-.265.185a1.42 1.42 0 0 1 .106-.424c.079-.159.371-.291.583-.291.159 0 .239-.027.398-.159.133-.106.159-.106.186-.08m3.71 1.802c0 .212-1.06.662-1.855.768-.424.053-.504.053-.583-.053-.079-.132-.053-.159.345-.159.583 0 1.192-.185 1.776-.53.186-.079.318-.106.318-.026m-10.149.106h0m2.146.265c-.053.026-.133.106-.212.132-.159.106-.318.186-.451.212-.106 0-.106.027-.186.106-.344.503-.927.874-1.908 1.192-.663.212-1.828.08-1.987-.212-.053-.106-.053-.106-.424 0-.398.106-.53.159-.848.424-.159.133-.159.133.08.106.424-.053.927.106 2.173.716.848.424 1.06.503 1.457.609.795.212 1.457.186 2.412-.079.186-.053.159-.027-.053.185-.504.477-.61.504-1.219.477-.556-.026-1.086.106-1.404.397-.106.08-.133.159-.079.133a5.81 5.81 0 0 1 .795-.106c.318 0 .795.212 1.245.53.504.371.689.397 1.484.159.371-.106.345-.106.345-.027 0 .106-.53.557-.663.557-.053 0-.159.026-.132.053.132.106.477.053 1.166-.239.159-.053.371-.185.715-.371.504-.291.742-.371 1.272-.371.239 0 .265 0 .079.106-.716.397-.954.689-.954 1.033v.132l.133-.132c.265-.318.61-.451 1.219-.53.663-.08 1.59-.848 1.643-1.325v-.106l-.106.106c-.159.159-.583.265-1.139.318l-.159.027.159-.159c.371-.371.424-.504.239-.583s-.318-.053-.53.106a2.36 2.36 0 0 1-1.325.397c-.212-.026-.212-.026 0-.132.318-.159.371-.212.477-.451.053-.159.053-.159-.106-.026s-.212.132-.451.212c-.318.079-.344.079-.291-.106a.55.55 0 0 0 .053-.159v-.053h-.212c-.185 0-.397-.053-.477-.106 0 0 .053-.08.133-.159.159-.186.159-.186-.026-.239s-.344-.026-.689.106c-.212.08-.212.106-.079-.185.133-.265.239-.398.424-.53.133-.08.133-.08.053-.106-.186-.027-.318-.133-.61-.398-.186-.159-.186-.159.079-.159s.239.027.504-.159l.106-.079-.079-.08c-.159-.185-.239-.185-.556-.026-.212.106-.212.106-.106-.133.159-.45.291-.662.556-.848.079-.053.079-.08.053-.08-.133 0-.398.212-.504.398-.212.344-.53.53-1.219.636-.265.053-.318.027-.398-.106-.106-.238 0-.45.291-.477.212-.027.53-.265.504-.398-.053-.185-.133-.212-.265-.132m3.578.344c.053.027.212.08.318.133l.212.106h.53c.026 0-.239.186-.398.239-.106.053-.185.079-.185.106 0 0-.026 0-.026.026-.026 0-.133.053-.265.106-.928.371-1.404.318-1.988-.238-.053-.053-.079-.106-.079-.106l.371.053.106.027.397-.185c.583-.318.716-.344 1.007-.265m3.021.609v.053-.053m0 .239v.026-.026m-1.749 0c.159.079.079.159-.186.159-.477.026-.689.291-.503.662.291.583.98.689 2.226.345.477-.133.61-.133.848-.053.159.053.398.159.318.132-.291-.079-.663-.026-1.246.133-1.06.318-1.855.185-2.252-.371-.212-.292-.212-.716 0-.901.212-.132.609-.212.795-.106m2.146.027v.026-.026m-.795.291v.027-.027m.106.212l-.079.08c0 .026.053-.027.079-.08l.106-.079c-.026 0-.053.026-.106.079m-11.21.848c-.662.662-1.245 1.484-1.59 2.226-.954 2.014-.185 4.001 2.093 5.406l.212.132a.36.36 0 0 1 .08.053.38.38 0 0 0 .08.053c.159.08.689.318.981.424 1.272.424 2.544.504 4.478.318l2.491-.185c.848 0 1.537.132 1.881.344.212.159.504.424.556.556.159.451-.238 1.484-.768 1.988-.477.477-.981.503-2.783.159-1.775-.345-2.782-.318-3.948.159-1.881.742-2.915 1.643-3.525 3.1l-.239.609c-.477 1.431-.503 2.782-.106 4.638.239 1.139.583 1.802 1.431 2.703.715.768.822.927.874 1.219.239 1.802-1.563 3.1-3.392 2.465-.45-.159-1.245-.61-1.67-.928-.053-.026-.185-.132-.318-.238-.742-.557-1.272-1.246-1.855-2.412-.663-1.299-1.14-3.18-1.219-4.77-.026-.583.053-1.087.265-1.563l.212-.477c.026-.079.106-.238.133-.318l.689-1.749.45-1.404c.133-.477.291-1.245.318-1.643.026-.583-.159-2.147-.318-2.597-.106-.318-.424-.901-.795-1.537-.026-.053-.08-.133-.106-.186-.08-.132-.159-.212-.133-.159a12.09 12.09 0 0 1 .556 2.306 1.79 1.79 0 0 0 .053.371c.053.318.026 1.113-.026 1.563-.185 1.484-.636 2.623-1.67 4.16-.609.901-1.219 2.014-1.431 2.544-.556 1.617-.556 4.293.026 5.698l.053.106.265.106c.477.185.662.397 1.139 1.087l.636.901c.556.636 1.564 1.617 2.094 2.014a1.94 1.94 0 0 0 .265.186c.318.238.822.556 1.06.662l.848.371c.769.265 1.669.318 2.597.159.265-.053.239-.026.239-.212.08-.556.265-.901.689-1.245.106-.106.185-.159.239-.238.212-.371.795-.557 1.723-.53h.318l.053-.133c.159-.477.265-.954.318-1.617.106-1.06.053-1.431-.239-2.252-.186-.503-.689-1.352-1.086-1.908-.371-.477-.477-.768-.742-1.961-.318-1.378.053-2.438 1.139-3.445.345-.291.504-.397.848-.53 1.034-.344 1.802-.371 3.047-.132.954.185 1.643.265 2.226.212.345-.027.424-.053.318-.08a.91.91 0 0 1-.424-.344c-.106-.186-.133-.186-.424.079-.212.212-.291.239-.451.239-.451-.053-.822-.61-.663-1.034.026-.053.026-.053.079.053.212.424.291.451.61.212.424-.344.98-.371 1.325-.079.265.238.795.238.769 0a.73.73 0 0 0-.398-.53.92.92 0 0 1-.371-.345c-.291-.424-.265-.397-.556-.344l-.265.053c-.026 0-.106.026-.212.079-.186.106-.186.106-.159.027v-.053h-.291a9.85 9.85 0 0 1-1.404-.185c-1.14-.186-1.59-.212-2.173-.133-2.199.345-3.604 1.537-4.372 3.737-.159.477-.212.715-.212 1.352-.026 1.113.159 2.412.477 3.233.239.636.556 1.087 1.193 1.775.53.557.689.848.795 1.404.212 1.299-.424 2.835-1.378 3.313-.822.424-2.12.53-3.021.265-1.219-.371-2.411-1.139-3.154-2.04-1.511-1.855-2.226-3.843-2.305-6.519-.053-1.669.106-2.358.874-3.895l.875-1.961c.556-1.537.663-2.438.424-4.134-.026-.265-.026-.291.026-.132.212.583.291 2.2.106 2.942-.185.822-.822 2.465-1.325 3.525-.689 1.404-.795 1.855-.795 3.313 0 2.623.636 4.611 2.04 6.439.769 1.007 1.616 1.643 2.941 2.147 1.219.477 2.941.239 3.631-.477.954-.981 1.166-2.73.477-3.657-.133-.185-.159-.212-.477-.53-.875-.901-1.272-1.749-1.484-3.127-.238-1.537-.212-2.491.106-3.392.769-2.147 2.2-3.365 4.373-3.737.742-.132 1.113-.106 2.465.106.609.106.874.133 1.245.133h.371l.079-.133c.159-.265.768-.371.98-.185.106.106.928-.398 1.193-.716.795-.98.689-2.279-.265-2.968-.716-.504-1.404-.61-3.339-.424-2.014.185-3.206.185-4.001.026l-.875-.185c-1.431-.371-1.934-.61-2.703-1.219-1.458-1.166-1.749-2.305-1.113-4.134.239-.689.61-1.246 1.51-2.2l.159-.159-.212-.106c-.132-.132-.106-.132-.318.08m.848.185c-.026.027-.185.212-.345.398-.848.954-1.06 1.298-1.298 2.04-.504 1.537-.318 2.385.715 3.418.848.848 1.431 1.139 3.127 1.563 1.325.345 2.226.371 4.346.186 2.517-.239 3.259-.106 4.081.636 1.007.901.769 2.703-.424 3.472-.079.053-.133.106-.133.106s.053 0 .133-.026c.212-.053.609-.027.742.026l.079.053.106-.079c.265-.185.477-.318.769-.424.106-.053.212-.079.212-.106.159-.238.61-.397.901-.291.159.053.133.079.239-.265a5.09 5.09 0 0 0 .239-1.723c-.079-.822-.291-1.298-.848-1.908-.053-.08-.186-.212-.291-.318-.636-.689-.715-.742-1.299-.981-.795-.318-1.484-.477-2.544-.53-.398-.026-1.405.027-2.306.133-1.086.132-1.564.159-2.279.159-1.564 0-2.305-.239-2.994-.954-.795-.848-.504-1.855.822-2.809.079-.053.133-.106.106-.106s-.663.133-.742.159c-.106.027-.106.027 0-.132.291-.477.875-.742 1.67-.715.239 0 .265 0 .371-.053a1.35 1.35 0 0 1 .291-.106s.026.026.026.053l.026.053.079-.053c.133-.08.291-.239.239-.212-1.192.291-2.094.159-3.418-.53-.398-.212-.345-.212-.398-.133m12.402.769c-.079.079-.159.159-.186.238-.079.159-.106.186-.53.159-.583 0-.822.106-.875.451-.053.238-.053.238-.212.371l-.106.106h.106c.265-.026.291-.053.504-.291.239-.239.212-.239.477-.292s.371-.053.583 0c.398.133.954.08 1.14-.132.026-.027.026-.053-.053-.133a.67.67 0 0 1-.159-.344c0-.053-.026-.106-.026-.106-.053 0-.106.106-.133.345-.026.106-.026.079-.133-.053-.106-.159-.212-.345-.212-.424 0-.027-.026-.027-.186.106m-9.964 1.192c-1.272.848-1.643 1.484-1.192 2.067.504.662 1.219.901 2.676.901.663 0 1.219-.026 2.359-.159 2.253-.238 3.524-.132 4.903.398.769.291 1.086.556 2.014 1.617.556.663.795 1.245.874 2.12a5.38 5.38 0 0 1-.45 2.412c-.026.079 0 .106.079.053a1.26 1.26 0 0 1 .45 0c.026 0 .026 0 .053-.053.769-1.828.477-3.604-.821-4.982-.848-.875-1.457-1.299-2.544-1.643-1.325-.45-2.544-.503-5.008-.265-1.802.185-2.968.106-3.657-.238-.45-.239-.556-.318-.609-.61-.08-.371 0-.477.556-.927l.371-.318c.106-.106.186-.186.451-.398l.079-.053-.133-.079c-.079-.027-.133-.08-.159-.08-.026.08-.159.159-.291.239m19.584 5.115c-.185.053-.291.371-.185.503.026.027.053.106.079.159.053.185.159.291.291.344.239.106.291.292.079.292-.185 0-.424-.159-.53-.371l-.08-.159-.053.08c-.026.053-.08.132-.08.159l-.026.079.133.133c.133.132.159.159.344.185.186.053.186.185 0 .185a.58.58 0 0 1-.45-.185c-.053-.053-.133-.106-.133-.106-.133.212.053.477.318.503.186.027.265.106.133.159s-.371 0-.504-.159l-.079-.079-.027.053c-.053.212-.106.344-.106.291-.053-.106-.185-.689-.212-.901-.08-.398-.08-.451-.026-.53.053-.133.026-.292-.133-.477l-.053-.053-.106.079c-.238.212-.609.159-.689-.132l-.027-.106-.079.026c-.239.106-.451.53-.265.53l.159.053c.239.106.291.106.477.053.265-.079.397-.026.265.133-.08.079-.265.159-.451.159-.133 0-.186-.027-.424-.106l-.079-.027.027.053c.053.239.185.318.503.345h.239l.133-.08c.212-.106.291-.106.238.027-.053.106-.291.238-.477.238-.133 0-.133 0-.053.106.079.132.318.159.503.027.133-.106.239-.08.212.026-.053.133-.265.238-.451.238-.106 0-.132 0-.106.027 0 .027.026.053.026.106 0 .079.026.079.133.079.371.027.609.265.795.716.159.397-.027.848-.371.954l-.371.106-.212.053c-.026 0-.053.053-.106.106l-.079.106.053.318.053-.053c.159-.133.556-.159.556-.027 0 .053-.106.08-.159.08-.238 0-.45.185-.45.397v.132l.08-.053c.133-.106.212-.132.371-.132.291-.027.318.159 0 .185-.132.027-.212.053-.371.212l-.159.239.027.106c0 .053.026.159.053.238l.053.133.026-.08c.133-.397.609-.689.795-.53.053.053-.053.212-.133.212-.133 0-.292.133-.398.371l-.079.186.106.053c.291.132.424.132.424.026 0-.265.292-.45.556-.371.159.053.159-.344 0-.822-.185-.557-.185-.61.186-.875.212-.159.265-.212.291-.371.053-.292.185-.345.556-.292.106.027.159.027.318-.026.291-.08.371-.08.503.079.08.08.08.08.185.08.08 0 .318-.08.318-.08l-.053-.106c-.132-.238-.026-.53.265-.583l.133-.026-.026-.106c-.026-.08-.053-.106-.053-.106-.026 0-.132.026-.238.053-.239.053-.291.106-.398.265-.159.238-.371.132-.212-.133.106-.159.212-.265.398-.318.159-.053.159-.053-.027-.159-.212-.132-.238-.132-.371.027s-.159.212-.159.344c0 .08-.053.239-.106.239-.133 0-.106-.371.026-.557.08-.106.08-.132.053-.106-.239.08-.318.133-.318.133l-.053.106c-.079.106-.079.159-.053.424 0 .159-.053.185-.159.053-.027-.053-.053-.106-.053-.212s-.026-.159-.026-.159-.053.053-.133.079l-.133.08-.106-.106.159-.212c.344-.398.583-.636.795-.742.371-.186.424-.265.318-.557l-.053-.159-.079.027c-.344.106-.689-.265-.504-.583l.053-.106-.053-.026a.87.87 0 0 0-.662-.106m-7.314 2.385c0 .504-.106 1.034-.291 1.59-.079.185-.133.371-.133.371 0 .026 0 .026.026.053.212.053.451.477.477.768v.106l.424.186.556.238c.344.133.477.212.662.371l.239.186c.265.053.927-.239 1.882-.901.742-.477.98-.742 1.484-1.431.027-.027.053-.08.08-.106a6.66 6.66 0 0 1 .768-.265c.053 0 .265-.397.265-.503 0-.159-.106-.398-.238-.61-.159-.212-.265-.265-.504-.265h-.106v.212c0 .424-.265.61-1.219.848-.689.159-.822.212-1.033.424-.186.185-.265.212-.53.212-.477 0-.636-.106-1.537-1.007-.291-.291-.424-.397-.715-.53l-.583-.238c.026.026.026.132.026.291m5.804.239c0 .026 0 .053.026.053.053 0 .053.053.026.159-.053.212-.398.45-.901.583l-.53.159c-.636.185-.689.212-.848.424-.291.397-.477.45-.927.371-.371-.071-.717-.235-1.007-.477-.345-.265-.318-.265-.239-.345s.133-.053.212.027c.291.424 1.245.768 1.564.583l.186-.185c.291-.371.238-.344 1.537-.742.503-.159.742-.318.795-.503 0-.159.106-.212.106-.106m-8.639 1.749c-.212.079-.556.291-.742.424l-.053.053.053.106c.106.186.079.292-.159.504-.159.159-.186.238-.239.583-.053.503.026.768.424 1.325l.689 1.007c.079.186.079.265-.026.371-.053.053-.106.08-.106.08-.026 0-.026.053.053.185.026.053.106.265.186.477.318.901.53 1.405.636 1.431.026 0 .212.027.398.027.636.026.901.132 1.723.742.265.186.291.212.318.292.159.397.186.424.61.609.371.186.848.08 1.166-.238s.291-.53-.133-.875c-.371-.291-.451-.371-.742-.689l-.265-.292-.265-.318c-.848-1.033-1.06-1.51-1.06-2.385 0-.238 0-.265-.079-.318-.265-.159-.397-.61-.265-.848.159-.265.159-.239.106-.583-.053-.371-.053-.398-.133-.451-.186-.106-.291-.079-.371.133-.079.185-.159.265-.398.397-.451.212-.53.504-.291 1.14l.053.185c-.053.053-.556-.477-.636-.636-.133-.291-.026-.742.238-.927.345-.265.371-.292.424-.424.159-.345.159-.663-.026-.663-.133 0-.186.053-.186.186-.026.265-.212.477-.583.742-.398.291-.742.265-1.06-.053l-.133-.133h.079a1.24 1.24 0 0 1 .212.053c.371.08.504 0 .769-.371a.93.93 0 0 0 .053-.874c-.079-.026-.106-.026-.239.027m-2.226.53l-.106.053.053.027c.079.053.079.053.133-.053.079-.106.079-.106-.079-.027m4.399 2.597c.053.053.053.053.026.239-.106 1.166.212 1.828 1.378 2.995.318.318.424.397.662.556.504.292.663.583.477.901-.106.185-.318.265-.398.132-.053-.079-.026-.079.133-.185.265-.186.186-.371-.344-.689-.291-.185-.715-.583-1.086-1.007-.742-.848-.954-1.272-1.007-2.12 0-.185-.026-.424-.053-.503-.053-.185-.026-.238 0-.291.026-.08.133-.08.212-.027m-9.09.08c-.927.132-1.299.265-1.749.689-.901.822-1.166 1.749-.901 2.942.265 1.113.318 1.245.556 1.563l.689 1.033c.583.954.901 1.908.901 2.756 0 .291-.053 1.192-.106 1.404a7.49 7.49 0 0 1-.291 1.219l-.079.238.079.053c.053.027.079.106.106.159.079.212.079.212.186.239.133.026.133.026.212-.239.186-.477.291-1.033.345-1.696l.079-.822c.079-.848.026-1.298-.318-2.147-.053-.106-.079-.238-.106-.292s-.053-.132-.079-.212c-.026-.053-.079-.212-.133-.344-.212-.53-.371-.795-.662-1.139-.344-.398-.53-.716-.795-1.484a3 3 0 0 1 0-2.04c.239-.557.345-.716.795-1.007.768-.53 1.537-.663 2.517-.451l1.245.239.477.079c.106 0 .265.027.345.027.186.026.186.026.106-.106-.053-.08-.079-.133-.079-.212v-.106l-.186-.027c-.398-.026-.689-.079-1.272-.185l-.424-.08a1.33 1.33 0 0 0-.318-.053 8.18 8.18 0 0 0-1.139 0m5.327.106a4.96 4.96 0 0 1-1.643.265H20.9l.106.08c.106.106.239.159.424.212.133.026.291-.027.636-.159.371-.186.451-.212.689-.186.265.027.345-.026.239-.185-.106-.132-.079-.132-.318-.027m8.136 2.279c-.159.027-.212.08-.186.133.026.026.026.079.026.132 0 .212.053.345.212.477.212.186.238.318.053.292-.265-.027-.45-.292-.503-.716-.026-.106-.053-.079-.106.027-.079.106-.106.344-.053.397.026.027.053.08.106.159.079.159.106.186.239.265.238.106.212.265 0 .186a.63.63 0 0 1-.344-.239l-.079-.106-.106.212.026.08c.053.132.133.212.212.238.212.053.265.212.053.186a.52.52 0 0 1-.398-.265l-.053-.08-.079.08c-.053.053-.159.132-.212.185l-.132.08.053.132c.106.291.079.45-.212.715-.451.424-.98.451-1.564.106-.079-.053-.159-.079-.186-.079 0 0 .026.026.106.079.159.08.291.265.291.371 0 .08-.079.106-.133.027l-.133-.133c-.079-.079-.106-.106-.239-.132l-.159-.027-.212.106.133.053c.186.08.345.265.318.398 0 .106-.079.079-.212-.053s-.212-.186-.398-.212l-.132-.027-.106.08a.78.78 0 0 0-.212.212h.239c.344 0 .636.159.662.371v.079h-.079c-.079 0-.106-.026-.159-.053-.186-.159-.291-.185-.53-.132-.079 0-.159.026-.159.026-.026.027.053.318.079.398l.026.079.079-.053c.212-.132.503 0 .583.239l.026.106.133-.027c.159-.053.345-.185.504-.344.477-.557.504-.557.954-.398.265.106.291.106.451.027.265-.106.398-.027.53.318.026.106.079.159.212.265.212.185.212.238.186.397-.053.159-.027.185.053.291.132.133.238.159.238.08 0-.027.159-.186.212-.212a.51.51 0 0 1 .477.106l.053.079.053-.053c.106-.106.106-.106-.053-.265-.212-.185-.239-.212-.424-.238-.238-.026-.344-.106-.265-.185.159-.159.503-.106.742.132l.106.106v-.212c0-.265 0-.318-.053-.291-.026 0-.079 0-.159-.027-.186-.053-.265-.053-.398.027-.186.079-.318.053-.238-.053.079-.133.397-.212.583-.159.106.026.106.026-.053-.106l-.159-.106h-.159c-.239.026-.292.026-.371.106-.133.132-.212.132-.212.026s.159-.265.318-.291l.106-.027-.159-.079c-.159-.053-.159-.08-.159-.106 0-.08.026-.08.292-.027.583.08.901.159 1.033.265.291.212.477.212.663 0 .133-.159.133-.132.026-.212-.238-.265-.026-.742.345-.689h.079v-.106c-.026-.318-.318-.609-.53-.556-.106.026-.291.132-.291.159s-.053.079-.106.159c-.185.212-.212.291-.185.477.026.238-.053.344-.159.238-.159-.159-.106-.583.106-.795l.053-.053H31.5c-.239 0-.265 0-.291.106 0 .053-.053.133-.053.212-.026.133-.026.133 0 .212.133.318-.026.424-.159.08-.053-.133-.053-.239 0-.398.053-.185.053-.159-.106-.132-.106.026-.106.026-.133.132-.079.265-.079.265-.026.398.079.185.053.291-.079.212-.053-.027-.079-.08-.132-.186l-.053-.159.053-.159c.026-.079.026-.159.026-.159l-.186.053c-.238.08-.238.053.079-.265.45-.45.715-.662.901-.689.106-.026.159-.053.238-.185.079-.106.159-.292.106-.265-.027.026-.186-.027-.292-.106a.37.37 0 0 1-.106-.556c.053-.08.053-.08.026-.106-.133-.08-.344-.106-.503-.08m-12.985 5.989a.96.96 0 0 1-.239.053l-.079.027.026.291c0 .265 0 .451-.079 1.272-.026.45-.106 1.033-.133 1.139l-.026.106.133.133c.239.212.583.344 1.378.53a8.72 8.72 0 0 1 1.06.291l.716.265 1.192.45c.53.292.689.61.742 1.405l.026.265.239.106c.689.318 1.166.371 2.915.398h.875l.106.132c.079.106.106.159.159.159.583.106 1.431-.371 1.405-.822v-.106l-.186-.079a1.1 1.1 0 0 0-.424-.079c-1.431-.053-1.564-.08-2.729-.768l-.239-.133v-.344c0-.186-.026-.398-.026-.477-.186-1.087-.53-1.564-1.219-1.829-.159-.053-.291-.106-.848-.238-.769-.212-.954-.265-1.908-.663-.689-.291-.795-.371-1.404-.901-.636-.53-.954-.662-1.431-.583m-13.913.477a1.17 1.17 0 0 0 .08.212c.053.106.133.345.212.504l.265.636c.371.768.583 1.113.954 1.537 1.06 1.246 2.04 2.04 3.127 2.517 1.537.689 2.809.901 4.107.636.371-.079.345-.053.318-.185-.026-.053-.053-.185-.08-.265-.026-.185-.026-.159-.239-.132-2.252.371-4.134-.397-6.413-2.597-.927-.901-1.298-1.352-1.908-2.332-.239-.424-.424-.636-.424-.53m15.529.716c.291.318.663.53 1.272.715.053.027.239.08.398.132a6.22 6.22 0 0 0 .874.239c1.113.265 1.616.477 1.855.795.345.477.504 1.14.424 1.59-.106.53-.026.609 1.166 1.113.61.238.875.318 1.299.292.344-.026.45 0 .477.079.079.265-1.007.159-1.802-.185-.079-.026-.265-.106-.397-.159-.901-.371-1.034-.556-.928-1.166.053-.318.026-.583-.133-.954-.291-.715-.503-.848-1.802-1.166-1.272-.318-2.146-.636-2.544-.954l-.291-.239c-.159-.106-.186-.185-.079-.265.053-.026.079 0 .212.133m-5.989 3.021c-.371.397-.477.742-.45 1.457.026.451.053.609.265.981.371.689.371.715.477.768s.133.053.212-.026c.185-.212.344-.159.477.132.053.159.053.238-.026.477s-.08.238.026.609c.079.318.053.477-.106.715-.185.265-.371.345-.583.292l-.106-.026-.106.212.079.212c.345.928.663 1.537.901 1.802a7.51 7.51 0 0 0 .583.504l.212.159v.477l.106.132c.186.265.795.344 1.246.212.238-.079.318-.159.503-.477.106-.212.106-.186-.053-.239-.079-.026-.212-.053-.344-.106-.106-.026-.291-.079-.424-.132-.291-.079-.265-.079-.318-.265-.239-1.007-.318-1.696-.265-2.332.053-.556.106-.742.53-1.351s.583-.981.609-1.325c0-.132.053-.318.159-.53.106-.265.186-.636.133-.742-.026-.026-.053-.106-.053-.185-.026-.133-.079-.186-.212-.239-.186-.079-.265.027-.265.424 0 .159 0 .265-.026.318a.63.63 0 0 0-.053.238.82.82 0 0 0-.053.212c-.106.238-.106.238-.53.397-.451.159-.451.186-.344.504.079.185.079.212.239.292l.106.079c-.398.132-.61.053-.875-.318-.291-.398-.026-.928.477-1.034.239-.053.265-.079.186-.371-.079-.318.053-.848.345-1.192.079-.106.079-.132.026-.185-.186-.212-.424-.159-.583.159-.079.132-.079.185-.026.397.106.504-.026.662-.556.822l-.291.079c-.106.027-.106.027-.159.132-.106.186-.238.027-.238-.265 0-.159.026-.212.265-.345s.265-.159.212-.477c-.053-.344-.026-.45.106-.662.159-.292.133-.371-.133-.371-.239 0-.345.079-.398.318-.079.265-.079.424-.053.609.053.292.053.371-.159.689-.159.265-.159.292.026.556s.106.477-.318.848c-.185.186-.185.186-.133-.053.053-.371.053-.503-.079-.768-.159-.318-.159-.397 0-.795.133-.345.159-.424.106-.53-.212-.53-.212-.556-.133-.742.026-.053.026-.106.026-.106-.08-.132-.133-.079-.186-.026m16.51.185c-.212.08-.451.265-.398.345 0 .026.026.106.053.185.026.239.079.345.212.451.186.132.212.292.053.292a.69.69 0 0 1-.424-.292c-.026-.079-.026-.079-.133.053l-.079.106.053.106c.053.132.133.212.239.265.185.08.265.212.106.212-.186 0-.398-.159-.477-.345-.053-.106-.053-.106-.159 0l-.106.106.053.106c.079.159.106.185.239.238.291.133.186.265-.106.159a.47.47 0 0 1-.291-.265c-.026-.079-.079-.132-.079-.132s-.053.026-.318.185c-.053.027-.053.053-.079.186-.026.424-.716.848-1.351.848h-.265l-.053-.053c-.026-.026-.079-.106-.106-.159l-.053-.08-.212.08c-.186.079-.239.132-.106.132.212 0 .556.398.424.477-.026.026-.159-.026-.186-.106-.079-.106-.133-.159-.318-.212-.106-.026-.186-.053-.212-.079-.053-.053-.344.238-.344.318 0 .026.026.026.053.026.371-.079.795.079.848.318.053.159-.079.159-.291 0l-.133-.106h-.477c-.026.027.026.292.053.345l.026.079.079-.053c.212-.132.61.08.61.318v.053l.106-.026c.239-.053.318-.133.636-.451.424-.424.45-.424.874-.238.265.106.291.106.451.053.265-.106.398-.027.504.318.053.132.079.159.212.318.186.212.212.238.133.424l-.053.132.053.079a.39.39 0 0 0 .133.159l.106.08.053-.08c.159-.238.451-.291.663-.079.106.106.106.106.186 0s.106-.159.053-.159c-.027 0-.106-.08-.212-.159-.212-.185-.212-.212-.424-.212-.398-.027-.371-.265.053-.238.212 0 .318.053.503.212l.106.106v-.106c0-.292-.026-.477-.106-.451-.027 0-.133 0-.239-.026l-.186-.026-.132.053c-.186.106-.318.079-.239-.026.079-.133.371-.239.583-.186.106.027.079 0-.079-.132a.52.52 0 0 0-.636.026c-.133.106-.212.133-.212.027s.159-.265.318-.318c.053-.026.053-.026-.053-.053-.106-.053-.106-.053-.106-.106.026-.079.026-.079.318-.026.53.106.901.212 1.034.345.265.238.451.212.663-.027l.079-.079-.053-.053c-.239-.265-.053-.715.291-.715h.106v-.026c0-.292-.212-.583-.424-.583-.106 0-.371.106-.451.185-.212.238-.238.318-.238.556 0 .212-.053.318-.133.265-.186-.106-.186-.504.027-.795l.053-.079h-.106c-.238 0-.265 0-.318.185-.079.185-.079.238-.026.398.079.185 0 .292-.106.185-.133-.132-.159-.371-.079-.556.027-.053.027-.132.027-.132l-.238.026a.73.73 0 0 0-.053.53c.053.106.053.212 0 .212-.079 0-.133-.079-.186-.185-.053-.159-.08-.212-.027-.371.027-.08.027-.133.027-.133l-.345.08-.053.026.053-.053c.318-.345 1.034-.875 1.219-.901.106-.027.212-.106.292-.265.079-.132.079-.132-.027-.159-.318-.08-.451-.451-.238-.689l.053-.079-.053-.053c-.027-.079-.265-.106-.477-.053m-13.409 2.809c.079.079.026.212-.186.477-.053.079-.133.159-.133.185-.026.027-.133.186-.239.371-.715 1.06-.795 1.404-.477 2.491l.186.848c0 .079.079.291.106.371.026.026.053.159.079.238.053.212.053.238-.106.238-.133 0-.133-.026-.212-.451a2.85 2.85 0 0 0-.159-.689c-.371-1.219-.371-1.961 0-2.57l.132-.212a4.5 4.5 0 0 0 .291-.424c.239-.344.345-.53.345-.636 0-.053.106-.238.159-.291.053 0 .159 0 .212.053m2.305 4.213c-.185.026-.212.053-.185.079v.212c-.026.239 0 .318.106.45.132.186.132.345-.026.292-.079-.026-.159-.106-.265-.265l-.079-.106v-.477c-.026 0-.106.159-.159.345l-.053.132.026.159c.026.132.053.159.159.265.133.132.186.212.106.238-.133.026-.398-.212-.424-.424l-.026-.053-.079.053c-.159.106-.079.371.106.504.159.106.159.212.026.212-.159 0-.344-.212-.398-.398l-.026-.132-.133.053c-.079.026-.159.079-.186.079s-.079.053-.079.106c-.239.53-.504.689-1.087.689-.556 0-.821-.106-.98-.397-.026-.053-.053-.079-.106-.053-.106.026-.106.053-.026.079.133.079.239.318.186.424-.026.106-.159.053-.186-.106-.026-.106-.106-.186-.291-.265-.159-.079-.186-.079-.397-.026l-.08.026.106.053c.212.106.318.292.318.451s-.133.106-.212-.106c-.053-.106-.133-.186-.318-.265-.053-.027-.106-.053-.133-.053-.08-.053-.345.159-.345.265 0 .026.026.026.106.053.345.026.504.132.636.344.186.265-.026.371-.212.106-.106-.132-.186-.185-.398-.212-.186-.026-.186-.026-.186.133s0 .159.106.132c.239-.053.451.132.504.398v.106h.186c.212 0 .344-.053.609-.239.451-.318.583-.318.927-.053.212.159.239.186.451.186.291 0 .345.053.398.397.026.186.026.212.133.371.133.212.133.318.053.451-.106.159-.079.265.053.424l.053.053.079-.053a.41.41 0 0 1 .662.079c.079.132.053.132.186.053l.106-.053-.053-.053c-.026-.026-.079-.106-.079-.132-.079-.159-.159-.238-.318-.292-.265-.079-.344-.212-.185-.265.212-.053.556.106.662.344.053.079.053.079.106-.106s.079-.265.026-.265c-.026 0-.106-.026-.186-.079l-.159-.053-.133.026c-.291.079-.344-.079-.079-.159.159-.053.239-.053.345 0 .186.079.186.053.079-.106-.079-.132-.079-.132-.398-.159-.106 0-.132 0-.238.053-.133.079-.212.079-.212 0-.026-.106.212-.265.424-.265h.133l-.079-.079a.99.99 0 0 1-.186-.159c-.106-.079-.106-.079-.079-.132l.026-.053.265.132c.53.238.769.397.928.583.212.292.371.318.636.132l.106-.079-.053-.053c-.185-.318.159-.742.504-.609l.079.026.026-.079c.053-.212-.026-.53-.186-.636-.265-.186-.901.159-.954.504-.026.186-.079.292-.159.292-.026 0-.106-.133-.106-.212a.71.71 0 0 1 .265-.583c.106-.079.106-.079-.026-.106-.239-.053-.239-.053-.291.053-.159.291-.159.318-.159.451.026.186-.053.292-.133.186-.106-.159-.079-.398.053-.583.079-.106.079-.132-.079-.132h-.106l-.079.132c-.079.132-.079.159-.079.371 0 .159-.026.212-.106.132-.106-.106-.133-.344-.026-.504.079-.132.079-.132-.132-.132l-.186-.026.291-.159c.663-.344.928-.451 1.14-.451.133 0 .239-.053.398-.212l.079-.079-.106-.053c-.291-.186-.318-.556-.053-.716l.079-.053-.053-.053c-.026-.212-.318-.318-.503-.265" fill="#b32"/><path d="M22.703 4.8c-.026.026 0 .053.106.079.61.08.874.424.504.689s-.583.292-.981.106c-.133-.053-.212-.079-.212-.026s.504.212.663.212c.265 0 .636-.265.742-.504.106-.212-.159-.477-.556-.53-.079 0-.186-.026-.212-.026 0-.027-.053 0-.053 0m-.106.318c-.026.053-.079.132-.106.185-.079.106-.079.106 0 .159.159.08.291.027.371-.159.026-.053-.053-.185-.106-.238-.106-.053-.106-.053-.159.053m-.424.848c0 .026.053.026.079.053.663.106.848.238.848.609 0 .451-.291.663-.954.663-.238 0-.344.026-.265.053.079.053.636 0 .821-.08.371-.132.583-.636.398-.954-.106-.159-.318-.265-.689-.344-.265-.053-.265-.053-.239 0m0 .424c0 .053-.053.159-.053.238-.053.159-.026.186.106.186a.24.24 0 0 0 .245-.173.24.24 0 0 0-.112-.278c-.106-.106-.159-.106-.185.027M19.63 7.768c-.053 0-.265.106-.504.212-.344.159-.424.212-.504.212h-.106l.106.08c.398.265.795.265 1.484 0 .609-.239.583-.239.45-.292-.053-.026-.159-.053-.212-.079-.265-.133-.53-.159-.715-.133m3.339.53c0 .292 0 .292-.053.424s-.212.318-.212.212c.053-.185.026-.45-.026-.556-.026-.053-.079-.159-.106-.186-.026-.053-.053-.079-.079-.079s-.026.079.079.212c.106.159.106.238.079.609-.026.212 0 .212.159.027.212-.239.239-.398.212-.795-.026-.292-.053-.186-.053.132m3.684-.053c0 .186.026.292.079.371s.079.106.026.106c-.318-.132-.769-.185-.795-.106-.186.318-.742.504-1.192.371l-.265-.053c-.079 0-.079 0-.106-.053-.053-.079-.265-.371-.291-.344a.7.7 0 0 0 .027.185c.053.292.053.292-.106.398-.133.079-.159.106-.159.026 0-.106-.186-.424-.344-.609-.053-.053-.053-.08-.053-.027 0 .027.026.186.026.371 0 .265.026.318.053.318s.026-.053.026-.265v-.265c.053 0 .265.424.265.53 0 .027.026.027.159.053.079 0 .186.027.212.027s.026 0 .026-.292v-.291c.053 0 .239.371.265.53.026.106.026.106.159.159l.583.371c.186.132.424.265.451.238 0 0-.026-.079-.053-.132-.106-.265-.133-.61-.079-.61s.318.292.424.477c.133.238.133.238.186.08.053-.212.583-.769.715-.769.026 0 .053-.026.106-.026l.079-.027-.053-.106c-.186-.291-.291-.609-.239-.662s.345.212.424.397l.053.106V8.59c0-.186-.106-.318-.424-.477-.079-.053-.133-.08-.159-.08-.026.08-.026.133-.026.212m6.334 8.083c-.53.132-.848.662-.61 1.033.159.265.689.212.742-.106 0-.027.026-.053.026-.053s.026-.08.026-.186c.026-.265.079-.318.53-.45.212-.079.212-.079.053-.132a1.16 1.16 0 0 0-.768-.106m.503.079c.186.027.186.053 0 .106-.318.106-.371.186-.397.503-.026.371-.265.53-.53.398-.344-.186-.186-.715.265-.927.239-.133.397-.133.662-.08m1.908.609c-.053 0-.079.027-.079.027s-.026.027-.053.027c-.106 0-.318.344-.292.477.08.371.53.477.848.159.026-.026.106-.079.132-.106l.08-.053.159.053.344.132c.212.106.239.106.106-.132-.079-.159-.106-.212-.238-.345-.212-.185-.716-.318-1.007-.238m.61.132c.185.08.318.186.45.371.106.159.106.159-.106.08-.318-.133-.371-.133-.61.079s-.318.212-.503.132c-.159-.079-.265-.265-.186-.397.159-.318.53-.424.954-.265m.291 2.623c-.238.133-.265.451-.026.689l.106.106c.53.027.583.053.715.583.053.185.053.185.133 0 .053-.133.053-.159.079-.477v-.344l-.079-.159c-.106-.212-.239-.318-.424-.424-.08-.027-.398 0-.504.026m.477.08c.371.159.557.636.451 1.087-.053.159-.053.159-.106-.027-.106-.291-.185-.371-.477-.397-.265-.027-.344-.079-.398-.212-.212-.371.106-.636.53-.45m-3.18 2.888c-.212.053-.344.265-.291.477.026.053.026.106.026.106-.026.053.159.238.291.318.239.159.689.159.98.026.053-.026.08-.053.08-.053l.026-.026a3.61 3.61 0 0 0 .371-.292c0-.026 0-.026-.026-.026-.106.053-.583.026-.662 0s-.186-.159-.186-.212c0-.159-.371-.371-.609-.318m.239.079c.079.027.159.08.212.186.026.026.079.132.106.185.106.185.159.212.45.238.265 0 .265 0 .133.106-.53.345-1.193.212-1.352-.291-.079-.292.159-.503.451-.424m-2.253 4.293c-.053 0-.133.053-.159.053-.026.027-.079.053-.106.106-.344.239 0 .822.398.689h.053l.159-.053c.265-.132.424-.079.742.239.133.132.159.079.053-.265a1.06 1.06 0 0 0-.371-.583c-.053-.027-.106-.08-.159-.106-.133-.08-.398-.133-.61-.08m.345.08c.318.079.556.291.662.609.08.186.08.212-.026.133-.291-.239-.424-.265-.715-.106-.212.106-.291.106-.424.053-.477-.265-.053-.822.503-.689m.503 2.438a.42.42 0 0 0-.133.583c.053.08.212.186.451.292.185.053.238.185.265.583.026.238.026.265.132.106.239-.318.291-.557.239-.901-.053-.292-.318-.636-.504-.636h-.185c-.159-.08-.212-.053-.265-.027m.424.08c.398.185.53.715.291 1.166l-.079.159-.026-.08c-.08-.397-.08-.397-.159-.477-.053-.053-.106-.079-.238-.106-.239-.053-.291-.106-.345-.212-.132-.371.186-.636.556-.45m-6.201 1.404c-.239.133-.318.265-.318.583v.265l.079.159c.106.212.371.451.477.451l.159.053c.265.106.371.106.239-.027-.133-.159-.291-.45-.291-.53 0-.026.053-.132.106-.238.159-.265.133-.53-.079-.689a.45.45 0 0 0-.371-.027m.344.08c.212.132.239.344.053.609-.159.265-.159.371.053.716l.053.079-.053-.027c-.636-.185-.927-.98-.503-1.352.106-.079.291-.106.397-.026m3.763.689c-.265.079-.371.424-.239.636.159.292.133.424-.238.769-.133.132-.106.159.053.132.45-.079.768-.265.901-.556.027-.027.027-.053.027-.053.027 0 .053-.133.079-.265.079-.424-.239-.768-.583-.662m.318.106c.451.318.079 1.193-.583 1.325-.079.027-.079 0 .027-.132.212-.239.212-.345.079-.61-.106-.238-.106-.291-.027-.424.159-.238.345-.291.504-.159m-.292 5.539c-.053 0-.079.026-.079.026s-.026.026-.079.053c-.504.292-.027.927.503.689.292-.132.424-.079.769.292.133.159.159.106.053-.265-.106-.557-.636-.928-1.166-.795m.53.132c.106.053.318.186.397.265a1.38 1.38 0 0 1 .212.53l-.106-.053c-.238-.238-.397-.265-.662-.159-.318.132-.397.132-.556-.026-.344-.371.212-.795.716-.556m.318 2.411c-.291.08-.371.557-.106.716a.58.58 0 0 0 .133.079l.159.079c.186.053.238.185.265.583.026.292 0 .292.159.053a.99.99 0 0 0 .212-.848c-.026-.265-.265-.61-.398-.61-.053 0-.026 0-.159-.026-.133-.053-.186-.053-.265-.026m.371.106c.398.185.503.742.265 1.192-.08.159-.106.159-.106.026 0-.318-.079-.45-.291-.556-.239-.106-.318-.132-.371-.212-.212-.371.106-.636.504-.451m-6.228 1.113c-.026 0-.106.053-.133.079s-.079.079-.106.079c-.106 0-.186.504-.133.689a.55.55 0 0 1 .053.159c.079.212.239.371.556.53.106.053.318.132.345.106 0 0-.053-.132-.079-.132-.026-.026-.186-.292-.212-.398-.053-.132 0-.238.106-.345l.053-.053s.026-.053.053-.079c.026-.053.053-.079.026-.106v-.079c.026-.292-.265-.53-.53-.451m.291.08c.079.053.186.212.186.318 0 .079 0 .106-.159.318-.159.239-.159.292-.026.53s.133.239-.053.159c-.424-.212-.663-.715-.477-1.113.106-.238.318-.318.53-.212m3.657.901a.67.67 0 0 0-.212.265c0 .053-.026.08-.053.08.002.045.011.09.026.132.133.371.133.371.106.477a2.16 2.16 0 0 1-.371.424c-.106.106-.106.106.186.053l.318-.079c.053-.027.133-.053.133-.053.026 0 .186-.133.212-.159 0-.026.026-.053.053-.053.318-.318.318-.875.026-1.087-.079-.026-.318-.053-.424 0m.371.079c.186.106.265.504.133.742-.133.265-.318.45-.636.53-.239.079-.239.079-.106-.08.238-.265.265-.318.133-.609-.106-.292-.106-.398.053-.53.133-.106.318-.132.424-.053M19.63 44.762c-.026.026-.053.026-.079.026-.186 0-.371.265-.318.477.079.239.318.345.636.292.186-.026.239-.026.318.053l.185.185s.026.053.079.106c.026.053.079.133.106.159l.053.053c.053 0 .026-.715-.053-.848-.106-.212-.344-.451-.477-.477-.026 0-.079-.027-.159-.053-.133 0-.239-.027-.291.026m.318.106c.371.106.609.504.636.927 0 .133-.026.133-.106 0-.212-.291-.291-.344-.609-.291-.239.026-.291.026-.398-.053-.398-.318-.053-.742.477-.583M13.72 47.2c-.053.026-.106.053-.133.053-.079 0-.265.318-.291.504a1.23 1.23 0 0 0 .186.689c.185.212.504.477.556.451l-.053-.212a1.04 1.04 0 0 1-.079-.371v-.159l.079-.079c.239-.186.291-.238.291-.292.08-.477-.185-.768-.556-.583m.345.053c.133.053.185.132.185.318v.132l-.265.265c-.159.132-.185.238-.106.53a.57.57 0 0 1 .026.159c-.026.027-.318-.291-.371-.371-.318-.477.08-1.246.53-1.034m5.698.159c-.265.132-.344.477-.133.662a.38.38 0 0 1 .053.079l.053.053c.106.053.212.159.239.238s.026.133-.079.53c-.053.186-.026.186.133.053.53-.398.636-1.007.291-1.458-.026-.053-.079-.079-.079-.079-.026 0-.079-.027-.133-.053-.159-.053-.239-.079-.344-.026m.291.079c.477.239.53.875.079 1.352-.106.106-.106.106-.079-.026.079-.344.026-.477-.239-.662-.159-.106-.212-.186-.239-.265-.053-.318.186-.53.477-.398m-2.597 1.59c-.212.079-.344.292-.318.477.053.238.026.371-.053.451s-.344.238-.45.292c-.159.053-.106.079.318.079h.371l.133-.053a1.25 1.25 0 0 0 .504-.477c.079-.159.106-.265.079-.345 0-.026-.026-.079-.053-.132-.106-.212-.318-.371-.53-.292m.265.079c.398.186.186.848-.344 1.087-.133.079-.583.106-.583.053 0 0 0-.026.026-.026.053 0 .344-.239.397-.318.026-.053.026-.106.026-.265-.026-.398-.026-.451.186-.556.106-.026.159-.026.291.026" fill="#339"/><path d="M25.353 3.74c-.159.08-.318.318-.318.477v.212h-.186c-.212.027-.265.027-.477.212-.371.291-.398.371-.424.636-.026.212 0 .291.133.424.212.212.026.265-.159.053-.106-.106-.159-.239-.159-.371v-.08l-.053.053c-.132.133-.079.451.079.583.133.106.133.212 0 .186-.159-.027-.291-.239-.318-.451-.026-.132-.079-.132-.106.053-.053.186 0 .318.159.504.159.159.079.265-.079.132-.186-.132-.265-.344-.212-.556l.026-.106-.133.079c-.239.106-.451.106-.795-.053l-.159-.079-.106.106.053.053c.026.026.079.079.079.106.026.053.053.053.212.079.556.08.795.239.822.583.026.292.397.53.45.292.053-.186.106-.212.291-.159.133.026.159 0 .186-.106.026-.133.079-.159.239-.159.265.026.345-.08.371-.557 0-.132.053-.318.079-.45.026-.106.079-.265.106-.345.053-.159.053-.159.079-.053.133.477.239.583.556.557.318-.053.583-.424.398-.61l-.053-.079-.079.053c-.106.053-.159.132-.079.212.053.053.079.053.079-.027-.026-.079.053-.106.106-.026.079.159-.106.238-.239.106s-.079-.239.186-.371c.371-.186.477-.424.239-.636l-.079-.08-.159.027c-.318.026-.477-.106-.344-.265.053-.053.079-.08.133-.027s.026.106-.026.106c-.079-.026-.079.08.026.106.106.053.186-.106.106-.238-.101-.146-.295-.192-.451-.106m.398.503c.133.027.133.08 0 .08-.239.026-.291.053-.371.265-.053.159-.106.185-.344.185-.239.027-.239.027-.424.159a.58.58 0 0 0-.212.769c.053.159 0 .291-.079.185-.106-.106-.159-.265-.159-.503v-.239l.079-.106c.186-.265.451-.424.716-.45.212-.027.212 0 .265-.159.079-.186.265-.265.53-.186m-10.573.186c-.079 0-.212.132-.212.185 0 .186.291.318.768.318.053 0 .106.027.186.053l.186.106c.053.026.133.08.212.106a1.24 1.24 0 0 1 .265.133c.079.053.186.132.265.159l.106.053c.026.053.186.132.212.106s.026-.08-.026-.133c-.026-.026-.053-.053-.053-.132-.079-.504-.265-.716-.636-.716-.04-.007-.077-.025-.106-.053-.053-.027-.079-.053-.106-.053s-.053 0-.079-.026c-.159-.08-.61-.159-.98-.106m6.784.026c-.106.027-.133.053-.239.159-.053.053-.133.133-.186.159l-.079.053h.079c.212 0 .239.265.079.424l-.053.053h.106c.159 0 .212.08.133.212-.079.106.026.133.212.027.742-.398.715-1.272-.053-1.087m.742.424h0m-4.266.212c-.053.027.477.583.53.557.026-.027.239-.265.239-.292s-.239-.159-.344-.159a.49.49 0 0 1-.185-.053c-.106-.079-.186-.106-.239-.053m2.968.663c-.079.026-.159.026-.212.053a.28.28 0 0 0-.159.053l-.079.053.079.026c.291.106.345.318.106.371-.053 0-.159.08-.159.133 0 0 .026.026.079.026.239 0 .371.186.212.292l-.344.238s.026 0 .053-.026c.133-.053.212 0 .212.106 0 .079-.159.238-.239.238s-.079.026 0 .053c.186 0 .265 0 .371-.106.186-.133.345-.106.345.053 0 .185.345-.636.398-.98.053-.451-.212-.716-.663-.583m-2.253.636c-.371.106-.662.132-1.537.159-1.007.026-1.299.053-1.829.265-.424.159-.477.185-.609.185a9.15 9.15 0 0 1-1.511.053c-.291-.027-.371-.027-.504 0-.265.053-.265.053-.291.106-.132.265.318.424.954.291.504-.106.928-.132.981-.053.133.133-.079.371-.53.61-.556.291-.769.344-1.617.344-.742 0-.848.027-.901.239-.08.291 1.06.477 1.723.291.901-.238 1.616-.662 1.961-1.139.133-.186.159-.212.318-.212.133 0 .239-.053.477-.239.212-.159.291-.185.424-.106.186.106.186.291.026.477a.77.77 0 0 1-.556.292c-.106.026-.159.132-.133.238s.053.106.345.08c.53-.08.848-.239 1.06-.557.239-.344.398-.45.795-.503a1.53 1.53 0 0 0 .371-.079c.291-.08.45-.106.742-.106h.265l.026-.186c.026-.212-.026-.318-.159-.424-.106-.053-.133-.053-.291-.026m3.922.265v.026-.026m-.901.159h.053c-.053-.027-.079-.027-.053 0m.901.106c-.159.291-.504.424-1.06.397-.186 0-.239 0-.079.027.53.053 1.034-.133 1.166-.451.053-.079.026-.079-.026.027m-.106 1.219v.027-.027m-.291.53v.053-.053m.848.106v.053c.026 0 .026-.026 0-.053.026-.026.026-.053.026-.053s-.026.027-.026.053m.026.292v.053-.053m.662.185v.027-.027m2.279.106l-.133.133.133-.133c.079-.053.133-.106.133-.132.026 0 0 .026-.133.132m-.98.133v.026-.026m10.706 7.764s.026.027.079.053l.08.053-.053-.053c-.079-.053-.106-.053-.106-.053m-1.192.239v.026-.026m.026.291c.026.027.106.08.106.08s-.026-.027-.08-.053c-.026-.053-.026-.053-.026-.027m1.404 1.961h.053c-.026 0-.079-.027-.053 0m-.212.053l-.053.053.053-.053c.106-.053.106-.053.08-.053-.026.026-.053.026-.08.053m-2.835 3.074c-.026.027-.053.08-.053.08h.026l.132-.133c-.053-.026-.079 0-.106.053m.265-.079h0m-.212.106l-.053.053.053-.053.079-.053c0-.027-.053.026-.079.053m-1.776 4.267h0m-.53.371v.026-.026m1.404 2.04h0m-5.803 1.51h0m.397.212c.026.053.053.079.053.079s-.053-.132-.079-.132c0-.027 0 0 .026.053m-.768.397v.027-.08c.026-.026 0 0 0 .053m4.24.265c-.053.053-.106.08-.106.106s0 0 .053-.026c.027-.053.106-.106.133-.106.027-.027.053-.027.027-.027 0-.026-.053 0-.106.053m.238-.026h.026c-.053-.027-.053 0-.027 0m.424.477v.053-.053m-.795 5.538v.026-.026m.106.344a.85.85 0 0 0 .133.08s-.027-.027-.079-.053c-.026-.027-.053-.027-.053-.027m.212.08h0m1.087.026c0 .026 0 .026-.027.026s-.026 0 0 0c.027.026.053.026.027-.026h0m-.53 2.2c0 .026 0 .053.026.079s.026.027 0 0c.026-.026 0-.053-.026-.079h0m1.033.345v.053-.053m-6.811.45l-.053.053.053-.053.079-.053c0-.026-.026 0-.079.053m.239-.053h.053c-.053-.026-.053 0-.053 0m6.307.08v.026-.026m-2.252.821h.053c-.053-.026-.079 0-.053 0m.371.159c.053.079.053.079.053.053l-.053-.053-.026-.053.026.053m-.821 1.192c-.053.053-.053.079-.026.079s.026 0 0-.026c.026 0 .026-.026.026-.053.053-.026.053-.053.053-.053l-.053.053m-10.07 1.775s.026.026.079.053l.079.053-.053-.053c-.079-.053-.106-.053-.106-.053m-.053.053s.026.026.079.053l.079.053-.053-.053c-.079-.053-.106-.079-.106-.053m.291.106h0m.954.238c0 .079 0 .106-.026.079-.026 0-.026 0 0 0 .026.079.026.053.026-.079v-.106.106m-.874 1.669c-.026.026-.079.053-.106.079-.026.053-.026.053.026 0 .026-.027.079-.079.132-.079.026-.026.053-.026.053-.026-.026 0-.053 0-.106.026m-5.379.159h0m5.75.954h0m-2.517.583h0m.398.212c.026.079.026.079.026.026 0-.026 0-.053-.026-.079v.053m-.742.132h0m.053.371v.026-.026" fill="#084"/><path d="M22.676 5.065c-.026.053-.026.053.026.079.133.053.212.239.133.345-.053.106-.265.159-.371.079-.079-.053-.186 0-.133.053.159.265.663.053.663-.265 0-.132-.133-.344-.239-.344h-.053s-.026.026-.026.053m-.477 1.272c0 .053 0 .079.079.079.291.08.265.53-.053.53-.053 0-.106 0-.133-.026s-.053 0-.053.026c-.026.08-.026.106.053.133.371.132.689-.318.477-.636-.106-.186-.371-.265-.371-.106m4.399 1.219c-.318.079-.636.291-1.06.689-.291.265-.318.291-.583.291s-.451-.053-.822-.291c-.398-.239-.504-.265-.848-.159l-.212.053v.318c0 .371-.026.477-.265.716-.159.159-.159.185-.133-.186.026-.291.026-.318-.026-.397-.079-.133-.159-.292-.159-.318-.026-.027-.239.106-.291.159-.212.212-.106.742.133.822a15.92 15.92 0 0 0 1.113.133h.079V9.28c0-.053 0-.239-.026-.371-.026-.159-.026-.265-.026-.291.026-.027.344.397.397.556.026.079.026.079.186-.027l.133-.106v-.106c0-.053-.026-.159-.026-.212v-.106l.053.026c.026.027.106.106.159.186.106.132.106.132.212.132.053 0 .212.027.345.053.424.106.768-.026 1.06-.397.398-.53.583-.663 1.06-.742.397-.08.583-.106.795-.08h.186l-.106-.079c-.371-.186-.927-.265-1.325-.159" fill="#b32"/></svg>