<svg xmlns="http://www.w3.org/2000/svg" width="150" height="200" viewBox="0 0 39.7 52.9"><g transform="matrix(.265 0 0 .265 46.5 -90.6)"><path d="M-107 375c-.7.5-.9.6-1.3.6s-.4.1.1.4c.8.6.9.6 2.3.9l.4.1-.9.6c-.5.3-1 .7-1.1.8-.2.2-.9 1.3-.8 1.3l.6-.2c1.1-.4 1.8-.3 2.9.4l.3.2-.5.6c-.3.3-.5.6-.5.6.3.2 1.1.2 1.9.1.3-.1.6-.1.6-.1.1 0 0 .4-.2.8-.2.7-.3.6.4.5.9-.2 1.3-.4 2.4-1.5.7-.7.7-.6.4.6-.4 1.3-.6 1.8-1.2 2.2-.5.4-.5.4.3.2 1.5-.4 2.4-.7 3.2-1.3 1-.8 2.1-.9 2.8-.3.5.4.4 1-.4 2l-.3.4h.2c.2 0 .9-.1 1.9-.3.9-.2 1.1-.4 1.9-1.4.5-.6.6-.7.6-.5-.1.4-.2 1.9-.2 1.9.2.2.9-.6 1.5-1.9.2-.4.4-.7.4-.6.2.4.3 1.2.3 1.8.1.8 0 .8.8.2.9-.5 1.2-.9 1.8-1.7l.5-.7c.2.1.6 1.1.6 1.5 0 .6.1.6.7 0 .5-.4 1.2-1.6 1.2-2 0-.1 0-.2.1-.2.2-.3.8 1.1.8 1.9v.6c.2 0 1-.8 1.3-1.2.5-.7.7-.6.7.2 0 .9.5 1.9.7 1.3.2-.5 1.1-1.3 1.1-.9s.3 1.3.4 1.6c.2.3.8.9.8.9l.4-.6c.4-.7.3-.7 1.5.2.6.4 1.1.8 1.1.9.1.1.1.1.1-.1-1-2.4 1.2-6.9 2.8-6 .1.1.5.3.7.4.4.2 1.9.7 2 .7.1-.1-.2-1.1-.5-1.5l-.3-.5c0-.1.9 0 1.3.1l.4.2v-.2c0-.2-.3-.9-.5-1.1-.1-.1-.3-.3-.5-.4l-.3-.3.7-.1c.4-.1.8-.1.9-.1.3 0 .3-.1-.1-.5-1-.9-2.3-1.5-2.9-1.3l-.2.1.2.2c.4.4.5.8.2 1.2s-1 1-1.8 1.4c-.9.5-2.2 1.7-2.6 2.5-.9 1.8-3.2 2-5.2.6-1.1-.8-1.8-.9-4.1-.9-1.8 0-1.7 0-5.2 1-3.4 1-7.5.4-9-1.2-1-1.1-1.6-2.8-1.4-3.9.1-.5.1-.5-.5-.2-1.7.8-3.9.6-5.7-.5-.3-1-.4-1-1-.5m-25.8 3.1c-.1 0-.5.2-.8.4s-.7.5-1 .6a13.1 13.1 0 0 0-1 .6c-.7.4-2 1-2.9 1.4-.3.1-.6.3-.6.3 0 .2 1.5.3 3.1.3h1.6l-.5.5c-2 1.8-2.6 2.2-3.8 2.8-1.7.7-2.2 1.1-2.5 1.7-.3.5-.3.5.1.4.5-.1.9-.1 1.7.2.9.3.9.2.4 1.1-.9 1.5-1.4 2.2-3.2 4.1l-1 1 .4.2c.4.2.6.2 1.4.2 1.3.1 1.6.4.7.9-1.5.8-1.9 1.2-2.4 2.5l-.2.5.4-.1c.2-.1.5-.2.7-.3s.3-.1.4-.1l.8.6.8.5-.4.7c-.8 1.5-.9 1.8-.5 3.2.1.4.2 1 .2 1.3v.6l.2-.3c.1-.1.3-.5.5-.7.3-.5.4-.6 1.2-1 .9-.4.8-.5 1.1.2.7 2 .6 3-.4 4.1-.5.6-.6.5.4.8 2.2.6 2.6.6 3.3-.2.3-.3.3-.3.6-.3l.2.1v1.3c0 1.2 0 1.3.2 1.8.2.6 1.1 2.4 1.1 2.4s.1-.2.1-.5c.2-1 .5-1.3 1.1-1.4s1.1-.8.8-1.3c-.2-.4-.1-.4.4 0 .5.3.5.3.8 1.4s1 1.7 3.2 3.2c.6.4.6.4.7 0 0-.2.1-.6.2-1.1l.2-.8h.3c.3 0 .3 0 .4.4.3 1.3 1 2.3 2.1 3l.2.2v-1.2l.3-.3c.3-.3 1.2-.7 1.8-.8.2 0 .3 0 .5.2 1.8 2 2.3 2.3 5 2.3 1.3 0 1.5 0 1.4-.1-.8-.5-1-.7-1.2-.9-.3-.3-.3-.8-.1-1.6l.1-.5h.3c.2 0 .5.1.8.1 2.5.2 3.1.5 5.1 2.1l.9.7.3-.3c.2-.2.3-.4.3-.6 0-.5 0-1.2-.1-1.7-.1-.7-.2-.6.8-.4 1.6.4 2.3.6 3.1 1.4.5.5.5.5.9-.9l.4-1.2c0-.1.5.4 2 2l.7.7.9-.9c1-1 1.5-1.2 2.2-1.3 1-.1 1.2.7.4 1.4-.4.3-.4.3 1.1.7s2.1.4 3.4.1l1-.2c.1.1-1.4 2.1-1.7 2.3-.7.4-1.6.4-2.7 0-.6-.2 1.1 2 2.3 3 .3.3.3.3.2.5-.1.3-.1.3-2-.2-.9-.2-1.6-.4-1.7-.3a11.3 11.3 0 0 0 .1 1.4 12.5 12.5 0 0 1 .1 1.4s-.5-.3-1-.7c-1-.8-1.8-1.4-2.3-1.6-.3-.2-1.9-.6-1.9-.5l.4 2.6-2-1.3-2-1.4s-.4.4-.7.8c-.8.9-.7.9-1.2.1-.7-1-1.1-1.4-1.6-1.6-1-.3-.8-.3-1.5.9l-.7 1.1s-.2-.2-.5-.4c-1.6-1.4-2.3-1.7-3.5-1.7-1.1 0-1-.1-1.1 1.2s0 1.2-1.1 1.4c-2.3.5-2.7.3-2.9-.9-.1-.5 0-.5-.5-.1-.8.7-1 .9-1.2 1.5-.2.5-.5 2.1-.5 2.5 0 .1.3 0 1.3-.5 4.4-2.1 6.4-2.5 10.5-2.5 2.9 0 3 0 7.5.9 7.3 1.4 8.9 1.1 10.8-1.6 1.9-2.8 2.4-5.4 1.4-6.6-2.1-2.4-6.4-3-14.7-2.1-4.7.5-8.3.7-10.5.6-8.5-.3-14.8-2.8-20.1-8.1-3.6-3.6-5-7.8-4.4-12.5.5-3.7 3.4-8.7 7.3-12.7.4-.4.8-.8.8-.9-.3-.1-1.3-.3-1.8-.2m3.9 1.6c-3.1 3.3-4.9 5.7-5.6 7.5-2.9 7-2.1 11.6 2.9 16 3.5 3.1 6 4.2 12.8 5.7 3.9.9 7.8 1 13.8.5.9-.1 2.2-.2 2.8-.2s1.8-.1 2.6-.2c2.1-.2 4.5-.2 5.3 0 1.3.2 1.4.3 2.1.5 4.8 1.8 6.8 5.9 4.9 10.4-.9 2.1-3.3 4.3-5.2 4.8-.4.1-.4.2-.2.4s.2.2.5.1c6.3-2.3 8.4-10.4 3.7-14.4-3.3-2.8-5.6-3.1-16.8-2.1-5.3.5-9.8.3-13.2-.4-8-1.8-11-3.4-14.7-7.8-2.5-2.9-2.9-6-1.6-10.6.6-2.1 1.2-3.5 2-4.6.2-.2.3-.5.4-.6.5-.7 2.7-3.4 4.1-4.8l.2-.2-.2-.1c-.4-.2-.4-.2-.6.1m-32 4.8c0 2.7.5 4.6 2.6 9.2.4 1 1.6 3.2 1.9 3.7.1.2.4.7.7 1.1l.8 1.3c1.3 2-3-1.1-4.9-3.6-.3-.4-.9-1.2-1.3-1.8l-.7-.9c-.1.1 1 2.6 1.5 3.5.9 1.8 3 4.1 6.9 7.6.8.7 1.4 1.3 1.3 1.3-.1.1-.8-.1-1.1-.2-.1-.1-.8-.6-1.5-1.1-4.9-3.9-7.5-5.5-9.4-5.8h-.4l.2.1c.1.1.5.3.9.5 2 1.1 2.3 1.4 4.7 4.7 1 1.4 1.7 1.9 5.4 4.1 2.4 1.4 2.2 1.3 1.6 1.4-.7.1-1.1 0-4.3-1.2-3.3-1.2-3.1-1.1-5.4-3.3s-2.8-2.5-4-2.5c-1.1 0-1.1.1-.2.4 1.7.6 2.1.9 3.2 3.1.9 1.7 1.2 2.1 2.7 3 .5.3 1.4.9 2 1.2s2 1.2 3.3 1.8c4.4 2.2 4.1 2 3.7 2.1-.4.2-1 .1-3.1-.4-3.3-.9-5.1-1.5-6.6-2.4-.9-.5-1.1-.7-1.9-1.6-.9-1-1.3-1.3-1.9-1.3h-.4c0 .3 3.6 4.1 5 5.2 1.1.9 4.6 2.4 8.5 3.7.4.1.7.2.7.2.1.1-.4.3-.6.3-1 0-7.3-1.8-8.7-2.5-.3-.1-1-.5-1.6-.9-.6-.3-1.4-.8-1.8-1s-1.1-.6-1.5-.8-.7-.4-.7-.4c-.2 0 1.3 2.2 1.8 2.6 1.4 1.2 4.4 2.6 8.5 4 3.1 1.1 3.3 1.2 3.2 1.3-.7.6-2.9.3-7-1.1-2.6-.9-3-1.1-6.2-2.8l-.4-.2.6.6c1.5 1.5 2.9 2.6 4.1 3.1 1.9.9 9 3.6 9.5 3.6.2 0 .6-2.3.9-4.5.1-1 .1-4.7 0-5.7-.5-3.9-2.1-9.9-3-11.7-.3-.6.6.1 1.2.9 1.4 1.9 3.9 6.6 4.4 8.2.5 1.8 1.1 6.5 1.1 9 0 3-1.2 7.6-3.5 13.7l-.2.6 1.4 1.4.4-.5c.2-.3.8-1 1.3-1.5 5-5.5 5.9-7 6.6-11 .3-1.9.3-1.9-.1-.5-.9 2.7-1.5 3.8-3.1 5.4-.6.5-1.1.9-1.1.6 0-.1.4-1.2 1-3 1.7-4.9 2.4-7.7 2.4-9.3v-.5l-.7 1.6c-1 2.4-1.1 2.6-2.3 3.8-.6.6-1.1 1-1.1 1-.1 0 .3-1.6.7-3.1.3-.9.6-2.1 1.1-3.2 1.2-3.3 1.6-5.6 1.1-6.6l-.2-.5v.6c-.1 1.2-1.5 5.3-2.1 6.3-.2.3-.7.6-.8.5 0 0 .1-.9.3-2 .7-5 .7-7.2-.2-10.4-.2-.5-.2-.5-.3 1-.1.7-.2 2-.3 2.8l-.2 1.8c0 .3-.1.5-.2.5-.3.3-.3.3-.5-1.9a68.7 68.7 0 0 0-.4-4.8l-.6-3.2-.1-.4-.1.4c-.4 2.6-.8 3.8-1.3 4.2l-.3.2v-1.2c0-4.6-.5-6.9-1.9-8.8-.8-1.1-1.9-2.1-1.4-1.3 1.1 1.7 1.5 2.8 1.4 4.8-.1 2.1-.1 2.1-.5 1.2-3.2-5.9-3.7-6.6-5.3-8.7-1.8-2.3-2.1-2.7-2.6-4.8l-.2-.9-.4.6m39.9 2.1c-4.8 3.3-6.2 6.6-4.2 9.5.9 1.3 3.2 3 4.5 3.4 1.7.5 3.3.7 6.1.8 3.3.1 4.8 0 11.5-.7 7.6-.8 13.1-.1 17.9 2.2 1.4.7 2.5 1.7 5.3 4.9 3.1 3.6 3.8 8.5 1.9 14-.2.5-.3.9-.3.9a3.61 3.61 0 0 0 .5.4l.5.4.3-.9c2-5.3 1.7-10.6-.8-14.2-1.3-1.9-4.6-5.3-5.9-6.2-2.1-1.3-5.6-2.5-8.9-3-3.7-.5-6.3-.4-13.8.4-6.6.7-12.3.5-14.5-.6-1.6-.8-3.3-2.5-3.7-3.7-.4-1.3.7-3.8 2.4-5.1.6-.5 2.3-1.7 3-2.2.8-.5.8-.5.2-.7-1.1-.2-1.1-.2-2 .4m-27.9 25.4c0 .1.1.8.1 1.5.7 6.2.2 9.7-2.4 16-1 2.5-1.2 2.9-2.3 5-3.1 6.2-3.7 8.2-3.6 14.2 0 6.2.9 11.2 2.9 16.3.3.7 1.4 3 1.9 3.8 2.6 4.5 5.3 7.7 8 9.5 6.4 4.4 12.4 5.4 18.1 3.2 4.3-1.7 6.9-7.3 6.1-12.8-.3-2.2-.9-3.2-3.3-5.7-3.5-3.6-5.1-7.5-5.7-13.2 0-.5-.1-1.2-.2-1.5-.2-1.9-.2-4.7 0-6.3.1-.4.1-.9.2-1 .1-.5.8-2.6 1.2-3.6 2.1-4.5 4-7 7.3-9.2 1.8-1.2 4.9-2.4 6.9-2.8.2 0 .7-.1 1.1-.2 1.1-.2 2.7-.3 4.1-.2 1.2.1 1.9.2 4.9.7 2.1.4 3.6.5 4.9.6h1.2l.1-.3c.1-.1.1-.3.1-.3s-.6-.1-1.3-.1c-1.4 0-2.4-.2-4.6-.5-.7-.1-2-.3-2.8-.5-4.1-.7-7.9-.2-12.2 1.5-3.3 1.3-6.6 4.2-8.5 7.3-2.9 4.8-3.9 8.9-3.5 13.7.6 6.3 1.6 10.2 3.4 12.7.1.1.3.4.4.6.6.9 1.1 1.6 2.3 2.8 2.6 2.8 3 3.6 3.3 6.4.3 3.6-.8 6.9-3.3 9.7-1.2 1.3-4.1 2.3-7.7 2.6-2.6.2-5.1-.4-8.4-2l-2-1c-2.3-1.3-5-3.6-6.3-5.4-.1-.1-.3-.3-.4-.6-1.8-2.3-3.9-5.9-4.9-8.3-2-5-3-10.8-2.8-17.1.1-5 .4-6.1 2.8-11.3.9-1.9 1.3-2.8 1.8-4 .1-.3.3-.7.4-.9s.3-.6.3-.9c.1-.3.3-.7.4-1.1 2.6-6.6 3.1-9.7 2.4-15.3.1-.7-.4-2.5-.4-2m-15.6 7.9c1.1 1.4 2.9 3 4.1 3.5.3.1.9.4 1.3.6.9.4 2.1.8 4.5 1.5.8.2 1.7.5 2 .6l.6.2.1-.2c.1-.3.8-2.2.7-2.3h-.5c-.6.1-3-.4-6.6-1.4-3.4-1-4.3-1.3-6.4-2.6l-.2-.1.4.2m83.6 1.7c-1.3.5-1.7 1.1-1.3 1.9 1 1.7-.7 5.3-2.6 5.3-.4 0-.5 0-.4.1s.3.1.8.1h.7l.8-.5c1.4-1 2.1-1.8 2.2-2.7.1-.6.1-.7.6-.9 1-.4 1.5 0 1.5 1.2 0 1.4-.5 2.3-1.9 3.3-1.1.8-1.6 2.4-.9 3.4.3.4 1 1.2 1 1-.5-2-.1-3 1.7-3.9.9-.4 1-.5 1.2-1.2.3-.8.6-1 1.2-1 .9.1 1.4.4 1.4 1.2 0 .2.1.8.2 1.3l.2 1-.6 1.2c-.4.8.1 2.2 1.1 2.7.5.2.5.2.3 0-1-1.3-.9-1.8.6-3.4.6-.6.8-.9.8-1 0-.3-.6-1.5-.9-1.8-.3-.4-.3-.7-.1-1.5.4-1.2-.2-2.9-1.3-3.4-.7-.3-1.9-.5-2.2-.3-.3.3-.7 0-1-.7-.3-1.1-2.1-1.7-3.1-1.4m-44.9 2.2c-.4.8-.4 1.2 0 2.3l.3.8h-.3c-2.8-.4-4.5-.2-6.2.6l-.3.1.8.5c1.4.9 1.6 1.3 1.8 2.5l.1.6h-.2c-.1 0-1.1.1-2.2.2-2.3.2-2.1.2-1.8.7 1.3 2.1 1.9 3.2 1.8 3.3s-.5.3-1 .6c-2 1-2.9 1.7-3.4 2.4-.4.6-1.2 2.2-1.1 2.2 0 0 1-.1 2.2-.3 1.2-.1 2.2-.3 2.2-.3s-.3.4-.8.9c-2.5 2.4-3.6 4-3.8 5.1-.1.7-.2.7.6.5 1.1-.3 1.6-.2 2.8.6 1 .7 1 .6.2 1.2-1.2.8-3 2.7-2.8 2.9.1 0 1.9.3 3.3.5.6.1.7.1.6.2 0 .1-.6 1.1-1.2 2.3-.7 1.2-1.2 2.2-1.2 2.2s.6.2 1.3.4 1.4.4 1.6.5c.3.1.4.1.3.2 0 .1-.2.5-.9 3-.1.4-.2.8-.3.9l-.1.3.2-.1c.6-.1 1.2-.2 1.6-.1s2.3 1 2.4 1.1-.2.6-.9 2c-.5 1-1 1.9-1 1.9h2.5c2.5-.1 2.7 0 2.4.2-.6.5-2.3 3.4-2.3 3.9h1.5c.8 0 1.9 0 2.4.1h.9l-1.3.8c-.7.5-1.7 1.1-2.2 1.4s-.9.6-1 .6c-.1.1.1.3 1 1.2l1.2 1.2c0 .1-.3.1-1.1 0-2-.1-2.2-.1-3.4-1-.8-.6-.8-.6-1 0-.1.2-.3.6-.5.8-.5.6-.6.7-.6 1.5v.7c-.2 0-1.9-1.1-2.3-1.5s-.5-.7-.6-2.2c0-1-.1-1.2-.1-1.2-.1 0-.3.2-.6.4s-.9.6-1.4.9-1 .7-1.1.8c-.3.3-.4.2-.4-.2 0-.3-.4-2.3-.6-2.9-.2-.5-1.3-2.7-1.4-2.6 0 0-.1.3-.2.7-.3 1.1-.6 1.3-2.1 1.5l-.5.1-.1-.5c-.1-.3-.5-1.7-.9-3.2s-.8-2.8-.8-2.8-.6.2-1.2.5l-1.2.6v-2.1c0-1.2 0-2.1-.1-2.1-.2 0-1.9-.2-2-.2-.2 0-.2-.1.1-1.3l.6-2.8c0-.1 0-.1-.5-.2-1.1 0-1.4-.3-1.8-1.3l-.2-.6.4-1.3c.5-1.5.6-1.2-.4-2.7l-.8-1.3.5-.9c.7-1.1.7-1 .1-1.5-.4-.3-.5-.5-.7-1-.4-1-.5-.9.8-1.8.6-.4 1.1-.8 1.1-.9s-.2-.5-.9-1.5l-.4-.6 1.2-1.2c.8-.8 1.2-1.2 1.1-1.2s-.3-.1-.4-.1c-.6-.1-.8-.6-.8-1.6v-.6l.6-.7c.3-.4.7-.9.9-1.1.4-.5.4-.4-.2-1-.4-.4-.5-.4-.5-.3a133 133 0 0 1-2.4 5.6c-1.4 3.1-1.4 3.5-1.4 6.8.1 5.2 1.8 12.3 4 17 2.9 6 5.6 9.1 10.9 12.3 3.8 2.3 6.8 3 9.8 2.1 2.9-.8 4.9-2.8 5.9-5.8l.2-.7v-1.4c0-1.9-.1-2-2.4-4.5-4.5-4.9-5.5-6.8-6.6-12.8-1.3-6.9-.9-12.5 1.4-18.2 1.9-4.6 5.1-8.2 9.4-10.4.2-.1.4-.2.3-.3s-1.1-.3-1.8-.5c-.7-.1-2-.5-2.1-.6 0 .1-.2.3-.5.8m-37.1.6c.1.2 1.6 1.8 2 2.1 1.5 1.1 3.8 2 6.7 2.7l.9.2.3-.7c.4-.8 1-2.3 1-2.4 0 0-.2 0-.4.1-.7.3-1.6.3-4.7-.1-2.5-.3-3.5-.6-5.3-1.6-.2-.2-.5-.3-.5-.3m73.1.4c-.9.2-1 .2-1.4.7-.5.7-.8.7-1.8-.1-1.2-1-3.1-.8-3.6.4-.1.2-.1.3 0 .3 1-.4 1.4-.5 1.9-.5.8 0 1 .2 2.3 1.9.3.5.5.6 1 .9 1.5.9 2.3 2.5 1.5 3.3-.7.6-2.3.4-3.2-.4-.8-.6-.8-.7-1.6-.7-1.3 0-2.2.3-2.9 1-.9.8-1.4.9-2.1.3l-.4-.4.1.3c.2.8 1.1 1.7 1.9 1.9.6.1.8.1 1.5-.7 1.3-1.2 1.8-1.2 2.3-.2.4.7 2 1.5 3.8 1.9l.8.2.2-.2c.8-.6 2.3 1.3 1.5 2l-.3.3h-.9c-1 0-.9 0-2.6.7-1.9.9-3.4.8-4.4-.3-.4-.5-.4-.2.1.5.7 1 1.7 1.7 2.6 1.7.5 0 .6 0 2.5-.4l1.1-.3.8.1c.7.1 1 .2 1.7.5l.8.4h1c1.4 0 1.9-.2 1.9-.8 0-.4-.3-.9-3.1-4.9-1-1.4-1.3-2.3-1.3-3.9 0-1.7.2-2.4 1-3.2.6-.6.7-.8.6-1.2-.3-1-1.6-1.5-3.3-1.1m-5.7 1.3l-.6.2c.1.1 1.7-.3 1.6-.4 0-.1-.3 0-1 .2m-66.8 1.5c.9 1.7 2.1 2.8 3.4 3.4 1.1.5 4 1.3 4.2 1.2.1-.1 1.2-2 1.2-2.1 0 0-.4-.1-1-.1-2.9-.1-4.5-.7-6.9-2.2-.5-.3-.9-.6-1-.6s-.1.1.1.4m1.7 3.8c0 .5 3.6 3.1 4.3 3.1.1 0 .3-.3.6-.6.6-.9.6-.9.3-.9-1.1 0-2.6-.4-4-1.1-.7-.3-1.2-.6-1.2-.5m51.2 2.2c-3 .2-5.7 1.1-7.2 2.4-4.1 3.4-5.8 7.8-4.8 12.2.5 2.4 1.1 4.5 1.5 5.7.2.4.5 1 1.5 2.4 2.2 3.2 3.3 5.1 4 7 .2.5.4 1.1.5 1.2 1.2 3 .9 9.5-.6 13.8l-.2.6c0 .1 1.1.6 1.1.5.1-.1.7-2.2 1-3.5.5-2.5.9-7.2.6-8.9-.6-3.5-2-6.5-5.1-11-1.7-2.4-1.8-2.9-3-7.8-.7-3.1-.1-6.2 1.7-8.7.6-.9 2.6-2.7 3.4-3.3 1.6-1.1 5.9-1.9 8.7-1.6.8.1 1.3.2 4.1.7 1.6.3 3.6.6 4.5.6h.8v-.2c0-.3.1-.3.3 0l.1.2h1.4c2.1-.1 3.5-.3 5.2-.9.5-.2.8-.3.8-.3s-.2 0-.3.1c-.3.2-1.1.1-2-.2l-.5-.2-.9.1c-2.3.4-5.3.2-9-.5-4.3-.5-5.3-.6-7.6-.4m-51.2 33.9c.1.2.1.3.1.3l.6.4c.6.4.6.5 1.5 1.9 1.2 1.9 2.5 3.9 3.2 4.6 6.5 7.6 13.3 12.5 19.2 13.9 2.7.6 5.8.7 9.3.1h.3v-.6c0-.7 0-.7-.8-.6-5.7.9-9.3.3-14.3-2.5-4.9-2.7-11-8.4-14-13-2-3.1-2.8-3.9-4.1-4.5-1.1-.3-1.2-.3-1 0m41.5 11.8c-1.8.2-3 .8-3.7 1.9-.9 1.5-1.1 2.2-.8 3 .6 1.5.7 2 .3 2.9l-.4 1.2c-.3.9-.3 1.2.1 2.1.5 1 .6 1.2.5 2.1v.8l.3-.4c.9-1 .9-1.3.3-2.3-.3-.4-.4-.6-.4-1s-.1-.3.9-2c.2-.4.2-.4.2-1-.3-3.1.4-4.5 2.2-4.5 1.4 0 1.6.6.8 2.1l-.5.9.1 1c.2 1.6.1 2-.9 2.5-.9.5-1.1.7-.9 1.3 0 .2 0 .2.4-.1.2-.1.6-.3 1-.4 2.2-.5 2.7-1 2.4-2.6-.2-1.5.1-2.5 1.1-3.1 1.3-.7 2.7.7 1.8 1.8-.4.5-1 1.7-1.2 2.7l-.2.6.2.8c.3 1.4.2 1.7-1 2-1.1.2-2.1 1.1-2 1.9 0 1 1 2.4 1.8 2.5h.3l-.2-.3c-.2-.4-.6-1.6-.6-1.9 0-.4.4-.7 2.4-1.4 1-.4 1-.4 1.4-1.8.3-1 .3-1.2.3-2 0-1.8.6-2.4 1.7-1.9.7.3.8.5 1 1.3.1.3.2.6.2.8.2.6-.1 1.8-.6 3.1-.7 1.7-.6 2.4.4 3.9.7 1 1.6 1.4 1 .4-.8-1.2-.8-2.2-.1-4.3 1.3-3.7 1.3-5.4 0-7.9-.7-1.4-1.2-1.8-2.4-1.9-.9-.1-1.2-.3-1.4-1.1 0-1.4-2.2-2-5.8-1.7m-9.5 14.4c.2.7 1.8 2 2.5 2 1.1 0 1.6.4 1.4 1.2-.1.4-.3.4-1.3.3s-1.1-.1-1.4.7c-.3.7-.5.9-1.3.9-.6 0-.6 0-.1.4.5.3.7.3 1.5-.2.9-.6 1.5-.7 2.6-.4 1.5.4.5 1.8-1.3 1.7-.8-.1-.9 0-1.4.5-.7.7-1 .7-2.3 0-.5-.2-.8-.4-.8-.3 0 .2.7.7 1.4 1 1 .4.9.4 2 .1 1.2-.3 1.5-.2 3.1.8 1.3.8 2 .5 2.8-1.1.3-.6.3-1 0-2-.1-.5-.2-1-.2-1.3 0-.4.1-.6.2-1 .3-.7.3-1.1 0-1.7s-.5-.7-.9-.2c-.5.5-.8.5-1.4.1-.7-.4-.9-.5-1.7-.4-1.1.1-2.3-.3-3-1.1-.4-.2-.4-.2-.4 0" fill="#d71"/><path d="M-77.8 353c-1.3 1.1-1.8 1.7-2 2.6-.2.5-.2.6.1.5 1-.4 2 .2 2 1 0 .4 0 .4.2.4 1.5 0 1.9 2.5.4 3.2-.1.1-.1.1 0 .3.7 1.1-.7 2.9-2.2 2.9-.9 0-1.6-.3-1.8-.8-.1-.2-.2-.3-.2-.3-.1.2-.3 1.2-.4 2.1 0 .7-.1 1.2-.2 1.5-.2.7-.2.7.4.4.5-.3.9-.8 1.2-1.4.1-.2.2-.2.3-.2.3 0 .3.1.3.9s.1 1 .8 1.4c.5.3.4.3.4-.3 0-.4 0-.6.2-1.2.3-.8.3-.8.7-.4.3.2 1.9.8 2 .7v-.3c-.1-.2-.1-1.5 0-1.6 0 0 .3 0 .7.1.9.1 1.3.1 1.9 0 .6-.2.6-.2.1-.5-1-.6-1.4-1.3-1.4-2.8 0-1.7.5-2.5 2.6-3.6l.5-.3c0-.2-1.8-.3-2.7-.2-.6.1-.6.1.2-.8l.7-.8h-.3c-.2 0-1.1.2-1.6.3-.3.1-.2-1.5.2-2l.2-.4c-.4 0-1.8.8-2.4 1.3-.3.3-.8.2-.6-.2l.6-2.1c-.1 0-.5.3-.9.6m-36.3 4.8c.2 1 .7 1.6 1.5 2 1.6.8 2.2 1.9 2.2 4.1 0 .9.1.9-.9.4l-2.4-1.3c-2.5-1.2-4.7-1.6-6.7-1.1-1.1.3-1.6.6-3.2 1.8-1.7 1.4-2.3 1.7-3.7 2-.2 0-.8.2-1.2.2-.8.2-3.2.2-4.3 0-1.2-.2-1.2-.2-1.1-.1 1.2 1.6 1.6 1.9 3 2.2.8.1.9.3.3.6-1.1.6-2.2.4-4.9-.9-2.1-1-2.5-1.1-3.4-1.1-.7 0-.9.2-.4.2.8.1 1.3.5 2.2 1.9 1.2 1.9 2.7 3.1 4.5 3.8.4.2 1.1.4 1.4.5 1.4.6 1.2.6 3.1.6 3.2.1 4.4-.2 6.7-1.4.6-.3 1.4-1.1 1.4-1.3s-1-.1-2.2.1c-2.7.5-3.5.5-4.7-.1-.7-.4-.9-.8-.5-1.4.4-.8.8-.8 5.1-.8 3.9 0 3.9 0 5.3-.5 1.8-.7 2.2-.8 3.2-1 1.6-.3 2.2-.3 4.2-.3 3.1 0 5.7-.3 5.6-.5s0-1.2.1-1.6l.1-.3-1.1-1c-1.5-1.4-1.9-2-2-2.7-.1-.9-1.3-2.4-2.1-2.6-.4-.1-1.6-.1-2.4 0s-1.6 0-2.6-.4c-.2-.2-.2-.2-.1 0m16.5 2.7c-.7.3-1.5.9-1.7 1.3-.3.5-.4.5-1.2.5-1.3-.1-2.7 1.1-3 2.7-.2 1.1-.1 1.5.4 1.3 1-.4 2.1.9 1.9 2.2-.1.7-.1.8.2.8.4 0 1.5.4 2.3.8 2.2 1.1 2.3 1.2 2.3 1.5 0 .5-.4.3-1.4-.4-3.6-2.8-9.7-1.7-11.2 1.9-.3.7-.3.7.2.5.8-.3 1.2-.2 2.1.8.5.6 1.1.9 2.4 1.3 1.5.4 2.1.3 4.2-.6 1.3-.6 1.6-.7 1.4-.2-.1.1-.2.2-.5.3l-.4.1-.1.5c-.4 1.6.5 3.5 1.8 4.4 1.9 1.2 5.3 1.3 8.7.3 2.4-.7 3.2-.8 5.1-.8 2.2.1 2.6.2 3.8 1.1 1.9 1.3 3.7 1.1 4.6-.6.5-.8 1.9-2.1 2.7-2.5s1.8-1.2 1.8-1.5-.5-.8-1-.9c-.2 0-.2 0-.2.3 0 .7-.6 1.3-1.3 1.6-1 .3-2.3 1.7-2.7 2.7-.6 1.6-2.1 1.5-4.6-.2-2.1-1.5-2.3-1.5-5.2-1.7-.9 0-2.1-.1-2.6-.2s-1.2-.2-1.5-.2c-1.7-.1-2.4-.8-2.4-2.5 0-1.6 1.1-2.4 3.8-2.7 1.5-.2 4-1.2 6.5-2.6 1.6-.9 2.5-2 2.3-2.6-.1-.1-.2-.4-.2-.5l-.1-.3-.2.3c-.3.4-.7.7-1.6 1.1s-.9.4-.7-.2c.1-.2.1-.4.1-.4s-.2.1-.3.1c-.2.1-.3.1-.6 0s-.4 0-.4.3c0 .5-.4.7-1 .7-.7-.1-.7-.1-.8.2-.2.8-1 1-1.8.2l-.4-.3-.1.3c-.4 1.1-2.5 2-4.5 1.7h-.4l-.5.6c-.6.8-.6.8-.6 0 0-.9-.1-.9-.8-.3-.7.5-1.7.4-2.6-.3l-.4-.3h.8c.6 0 .8-.1.9-.2.3-.2.2-.3-.1-.2s-1-.2-1.1-.4c0 0 .3-.3.7-.5s.8-.6 1-.7l.3-.2-.2-.1c-.3-.1-.6-.1-1.1 0l-.4.1.1-.2c.2-.7.7-1.3 1.2-1.4s-.4-.7-1.2-.7c-.7-.1-.7-.1-.2-.4.8-.5 1.4-.8 1.8-.8.5 0 1.3-.3 1.6-.6.4-.4.3-.4-.5-.3-.4.1-.7.1-.7.1-.1-.1.3-.7.7-.9.6-.4.6-1 0-.9-.3 0-1.1-.1-1.2-.2l.4-.4c.6-.4.5-.5-.9-.5-1-.5-1-.5-1.5-.2m.4 1.5c.8.5-.6 1.6-2.2 1.8-1.1.1-1.4.3-1.6 1.1s-1 1.3-1 .7c0-.3.2-1.2.4-1.6.3-.6 1.4-1.1 2.2-1.1.6 0 .9-.1 1.5-.6.5-.4.6-.4.7-.3m14 6.8c0 .8-4 2.5-7 2.9-1.6.2-1.9.2-2.2-.2-.3-.5-.2-.6 1.3-.6 2.2 0 4.5-.7 6.7-2 .7-.3 1.2-.4 1.2-.1m-38.3.4h0m8.1 1c-.2.1-.5.4-.8.5-.6.4-1.2.7-1.7.8-.4 0-.4.1-.7.4-1.3 1.9-3.5 3.3-7.2 4.5-2.5.8-6.9.3-7.5-.8-.2-.4-.2-.4-1.6 0-1.5.4-2 .6-3.2 1.6-.6.5-.6.5.3.4 1.6-.2 3.5.4 8.2 2.7 3.2 1.6 4 1.9 5.5 2.3 3 .8 5.5.7 9.1-.3.7-.2.6-.1-.2.7-1.9 1.8-2.3 1.9-4.6 1.8-2.1-.1-4.1.4-5.3 1.5-.4.3-.5.6-.3.5.3-.1 2.4-.4 3-.4 1.2 0 3 .8 4.7 2 1.9 1.4 2.6 1.5 5.6.6 1.4-.4 1.3-.4 1.3-.1 0 .4-2 2.1-2.5 2.1-.2 0-.6.1-.5.2.5.4 1.8.2 4.4-.9.6-.2 1.4-.7 2.7-1.4 1.9-1.1 2.8-1.4 4.8-1.4.9 0 1 0 .3.4-2.7 1.5-3.6 2.6-3.6 3.9v.5l.5-.5c1-1.2 2.3-1.7 4.6-2 2.5-.3 6-3.2 6.2-5v-.4l-.4.4c-.6.6-2.2 1-4.3 1.2l-.6.1.6-.6c1.4-1.4 1.6-1.9.9-2.2s-1.2-.2-2 .4c-1.2.9-3.5 1.6-5 1.5-.8-.1-.8-.1 0-.5 1.2-.6 1.4-.8 1.8-1.7.2-.6.2-.6-.4-.1s-.8.5-1.7.8c-1.2.3-1.3.3-1.1-.4.1-.2.2-.5.2-.6v-.2h-.8c-.7 0-1.5-.2-1.8-.4 0 0 .2-.3.5-.6.6-.7.6-.7-.1-.9s-1.3-.1-2.6.4c-.8.3-.8.4-.3-.7.5-1 .9-1.5 1.6-2 .5-.3.5-.3.2-.4-.7-.1-1.2-.5-2.3-1.5-.7-.6-.7-.6.3-.6s.9.1 1.9-.6l.4-.3-.3-.3c-.6-.7-.9-.7-2.1-.1-.8.4-.8.4-.4-.5.6-1.7 1.1-2.5 2.1-3.2.3-.2.3-.3.2-.3-.5 0-1.5.8-1.9 1.5-.8 1.3-2 2-4.6 2.4-1 .2-1.2.1-1.5-.4-.4-.9 0-1.7 1.1-1.8.8-.1 2-1 1.9-1.5-.2-.7-.5-.8-1-.5m13.5 1.3c.2.1.8.3 1.2.5l.8.4h2c.1 0-.9.7-1.5.9-.4.2-.7.3-.7.4 0 0-.1 0-.1.1-.1 0-.5.2-1 .4-3.5 1.4-5.3 1.2-7.5-.9-.2-.2-.3-.4-.3-.4a42.2 42.2 0 0 0 1.4.2l.4.1 1.5-.7c2.2-1.2 2.7-1.3 3.8-1m11.4 2.3v.2-.2m0 .9v.1-.1m-6.6 0c.6.3.3.6-.7.6-1.8.1-2.6 1.1-1.9 2.5 1.1 2.2 3.7 2.6 8.4 1.3 1.8-.5 2.3-.5 3.2-.2.6.2 1.5.6 1.2.5-1.1-.3-2.5-.1-4.7.5-4 1.2-7 .7-8.5-1.4-.8-1.1-.8-2.7 0-3.4.8-.5 2.3-.8 3-.4m8.1.1v.1-.1m-3 1.1v.1-.1m.4.8l-.3.3c0 .1.2-.1.3-.3.3-.2.4-.3.4-.3-.1 0-.2.1-.4.3m-42.3 3.2c-2.5 2.5-4.7 5.6-6 8.4-3.6 7.6-.7 15.1 7.9 20.4.3.2.7.4.8.5.2.1.3.2.3.2a1.44 1.44 0 0 0 .3.2c.6.3 2.6 1.2 3.7 1.6 4.8 1.6 9.6 1.9 16.9 1.2 6.5-.6 7.2-.7 9.4-.7 3.2 0 5.8.5 7.1 1.3.8.6 1.9 1.6 2.1 2.1.6 1.7-.9 5.6-2.9 7.5-1.8 1.8-3.7 1.9-10.5.6-6.7-1.3-10.5-1.2-14.9.6-7.1 2.8-11 6.2-13.3 11.7-.5 1.3-.6 1.4-.9 2.3-1.8 5.4-1.9 10.5-.4 17.5.9 4.3 2.2 6.8 5.4 10.2 2.7 2.9 3.1 3.5 3.3 4.6.9 6.8-5.9 11.7-12.8 9.3-1.7-.6-4.7-2.3-6.3-3.5-.2-.1-.7-.5-1.2-.9-2.8-2.1-4.8-4.7-7-9.1-2.5-4.9-4.3-12-4.6-18-.1-2.2.2-4.1 1-5.9.3-.6.6-1.4.8-1.8.1-.3.4-.9.5-1.2.8-1.8 1.9-4.5 2.6-6.6.7-2 1-2.9 1.7-5.3.5-1.8 1.1-4.7 1.2-6.2.1-2.2-.6-8.1-1.2-9.8-.4-1.2-1.6-3.4-3-5.8-.1-.2-.3-.5-.4-.7-.3-.5-.6-.8-.5-.6.8 2 1.9 6.7 2.1 8.7 0 .4.1 1 .2 1.4.2 1.2.1 4.2-.1 5.9-.7 5.6-2.4 9.9-6.3 15.7-2.3 3.4-4.6 7.6-5.4 9.6-2.1 6.1-2.1 16.2.1 21.5l.2.4 1 .4c1.8.7 2.5 1.5 4.3 4.1 1.5 2.3 1.8 2.6 2.4 3.4 2.1 2.4 5.9 6.1 7.9 7.6.1.1.5.4 1 .7 1.2.9 3.1 2.1 4 2.5 1.9.9 2.1 1 3.2 1.4 2.9 1 6.3 1.2 9.8.6 1-.2.9-.1.9-.8.3-2.1 1-3.4 2.6-4.7.4-.4.7-.6.9-.9.8-1.4 3-2.1 6.5-2h1.2l.2-.5c.6-1.8 1-3.6 1.2-6.1.4-4 .2-5.4-.9-8.5-.7-1.9-2.6-5.1-4.1-7.2-1.4-1.8-1.8-2.9-2.8-7.4-1.2-5.2.2-9.2 4.3-13 1.3-1.1 1.9-1.5 3.2-2 3.9-1.3 6.8-1.4 11.5-.5 3.6.7 6.2 1 8.4.8 1.3-.1 1.6-.2 1.2-.3a3.44 3.44 0 0 1-1.6-1.3c-.4-.7-.5-.7-1.6.3-.8.8-1.1.9-1.7.9-1.7-.2-3.1-2.3-2.5-3.9.1-.2.1-.2.3.2.8 1.6 1.1 1.7 2.3.8 1.6-1.3 3.7-1.4 5-.3 1 .9 3 .9 2.9 0-.1-.8-.7-1.6-1.5-2-.7-.4-.9-.6-1.4-1.3-1.1-1.6-1-1.5-2.1-1.3-.4.1-.9.2-1 .2s-.4.1-.8.3c-.7.4-.7.4-.6.1v-.2h-1.1c-1.5-.1-2.7-.2-5.3-.7-4.3-.7-6-.8-8.2-.5-8.3 1.3-13.6 5.8-16.5 14.1-.6 1.8-.8 2.7-.8 5.1-.1 4.2.6 9.1 1.8 12.2.9 2.4 2.1 4.1 4.5 6.7 2 2.1 2.6 3.2 3 5.3.8 4.9-1.6 10.7-5.2 12.5-3.1 1.6-8 2-11.4 1-4.6-1.4-9.1-4.3-11.9-7.7-5.7-7-8.4-14.5-8.7-24.6-.2-6.3.4-8.9 3.3-14.7 1.6-3.2 2.6-5.5 3.3-7.4 2.1-5.8 2.5-9.2 1.6-15.6-.1-1-.1-1.1.1-.5.8 2.2 1.1 8.3.4 11.1-.7 3.1-3.1 9.3-5 13.3-2.6 5.3-3 7-3 12.5 0 9.9 2.4 17.4 7.7 24.3 2.9 3.8 6.1 6.2 11.1 8.1 4.6 1.8 11.1.9 13.7-1.8 3.6-3.7 4.4-10.3 1.8-13.8-.5-.7-.6-.8-1.8-2-3.3-3.4-4.8-6.6-5.6-11.8-.9-5.8-.8-9.4.4-12.8 2.9-8.1 8.3-12.7 16.5-14.1 2.8-.5 4.2-.4 9.3.4 2.3.4 3.3.5 4.7.5h1.4l.3-.5c.6-1 2.9-1.4 3.7-.7.4.4 3.5-1.5 4.5-2.7 3-3.7 2.6-8.6-1-11.2-2.7-1.9-5.3-2.3-12.6-1.6-7.6.7-12.1.7-15.1.1-1.8-.4-2.1-.5-3.3-.7-5.4-1.4-7.3-2.3-10.2-4.6-5.5-4.4-6.6-8.7-4.2-15.6.9-2.6 2.3-4.7 5.7-8.3l.6-.6-.8-.4c-.5-.5-.4-.5-1.2.3m3.2.7c-.1.1-.7.8-1.3 1.5-3.2 3.6-4 4.9-4.9 7.7-1.9 5.8-1.2 9 2.7 12.9 3.2 3.2 5.4 4.3 11.8 5.9 5 1.3 8.4 1.4 16.4.7 9.5-.9 12.3-.4 15.4 2.4 3.8 3.4 2.9 10.2-1.6 13.1-.3.2-.5.4-.5.4s.2 0 .5-.1c.8-.2 2.3-.1 2.8.1l.3.2.4-.3c1-.7 1.8-1.2 2.9-1.6.4-.2.8-.3.8-.4.6-.9 2.3-1.5 3.4-1.1.6.2.5.3.9-1 .7-2.2 1-4.6.9-6.5-.3-3.1-1.1-4.9-3.2-7.2-.2-.3-.7-.8-1.1-1.2-2.4-2.6-2.7-2.8-4.9-3.7-3-1.2-5.6-1.8-9.6-2-1.5-.1-5.3.1-8.7.5-4.1.5-5.9.6-8.6.6-5.9 0-8.7-.9-11.3-3.6-3-3.2-1.9-7 3.1-10.6.3-.2.5-.4.4-.4s-2.5.5-2.8.6c-.4.1-.4.1 0-.5 1.1-1.8 3.3-2.8 6.3-2.7.9 0 1 0 1.4-.2s1-.4 1.1-.4c0 0 .1.1.1.2l.1.2.3-.2c.5-.3 1.1-.9.9-.8-4.5 1.1-7.9.6-12.9-2-1.5-.8-1.3-.8-1.5-.5m46.8 2.9c-.3.3-.6.6-.7.9-.3.6-.4.7-2 .6-2.2 0-3.1.4-3.3 1.7-.2.9-.2.9-.8 1.4l-.4.4h.4c1-.1 1.1-.2 1.9-1.1.9-.9.8-.9 1.8-1.1s1.4-.2 2.2 0c1.5.5 3.6.3 4.3-.5.1-.1.1-.2-.2-.5-.4-.5-.5-.8-.6-1.3 0-.2-.1-.4-.1-.4-.2 0-.4.4-.5 1.3-.1.4-.1.3-.5-.2-.4-.6-.8-1.3-.8-1.6 0-.1-.1-.1-.7.4m-37.6 4.5c-4.8 3.2-6.2 5.6-4.5 7.8 1.9 2.5 4.6 3.4 10.1 3.4 2.5 0 4.6-.1 8.9-.6 8.5-.9 13.3-.5 18.5 1.5 2.9 1.1 4.1 2.1 7.6 6.1 2.1 2.5 3 4.7 3.3 8 .2 2.8-.5 6.6-1.7 9.1-.1.3 0 .4.3.2.2-.1 1.4-.1 1.7 0 .1 0 .1 0 .2-.2 2.9-6.9 1.8-13.6-3.1-18.8-3.2-3.3-5.5-4.9-9.6-6.2-5-1.7-9.6-1.9-18.9-1-6.8.7-11.2.4-13.8-.9-1.7-.9-2.1-1.2-2.3-2.3-.3-1.4 0-1.8 2.1-3.5.5-.4 1.1-.9 1.4-1.2.4-.4.7-.7 1.7-1.5l.3-.2-.5-.3c-.3-.1-.5-.3-.6-.3-.1.3-.6.6-1.1.9m73.9 19.3c-.7.2-1.1 1.4-.7 1.9.1.1.2.4.3.6.2.7.6 1.1 1.1 1.3.9.4 1.1 1.1.3 1.1-.7 0-1.6-.6-2-1.4l-.3-.6-.2.3c-.1.2-.3.5-.3.6l-.1.3.5.5c.5.5.6.6 1.3.7.7.2.7.7 0 .7a2.19 2.19 0 0 1-1.7-.7c-.2-.2-.5-.4-.5-.4-.5.8.2 1.8 1.2 1.9.7.1 1 .4.5.6s-1.4 0-1.9-.6l-.3-.3-.1.2c-.2.8-.4 1.3-.4 1.1-.2-.4-.7-2.6-.8-3.4-.3-1.5-.3-1.7-.1-2 .2-.5.1-1.1-.5-1.8l-.2-.2-.4.3c-.9.8-2.3.6-2.6-.5l-.1-.4-.3.1c-.9.4-1.7 2-1 2l.6.2c.9.4 1.1.4 1.8.2 1-.3 1.5-.1 1 .5-.3.3-1 .6-1.7.6-.5 0-.7-.1-1.6-.4l-.3-.1.1.2c.2.9.7 1.2 1.9 1.3h.9l.5-.3c.8-.4 1.1-.4.9.1-.2.4-1.1.9-1.8.9-.5 0-.5 0-.2.4.3.5 1.2.6 1.9.1.5-.4.9-.3.8.1-.2.5-1 .9-1.7.9-.4 0-.5 0-.4.1 0 .1.1.2.1.4 0 .3.1.3.5.3 1.4.1 2.3 1 3 2.7.6 1.5-.1 3.2-1.4 3.6-.4.1-1 .3-1.4.4s-.7.2-.8.2-.2.2-.4.4l-.3.4.2 1.2.2-.2c.6-.5 2.1-.6 2.1-.1 0 .2-.4.3-.6.3-.9 0-1.7.7-1.7 1.5v.5l.3-.2c.5-.4.8-.5 1.4-.5 1.1-.1 1.2.6 0 .7-.5.1-.8.2-1.4.8l-.6.9.1.4c0 .2.1.6.2.9l.2.5.1-.3c.5-1.5 2.3-2.6 3-2 .2.2-.2.8-.5.8-.5 0-1.1.5-1.5 1.4l-.3.7.4.2c1.1.5 1.6.5 1.6.1 0-1 1.1-1.7 2.1-1.4.6.2.6-1.3 0-3.1-.7-2.1-.7-2.3.7-3.3.8-.6 1-.8 1.1-1.4.2-1.1.7-1.3 2.1-1.1.4.1.6.1 1.2-.1 1.1-.3 1.4-.3 1.9.3.3.3.3.3.7.3.3 0 1.2-.3 1.2-.3l-.2-.4c-.5-.9-.1-2 1-2.2l.5-.1-.1-.4c-.1-.3-.2-.4-.2-.4-.1 0-.5.1-.9.2-.9.2-1.1.4-1.5 1-.6.9-1.4.5-.8-.5.4-.6.8-1 1.5-1.2.6-.2.6-.2-.1-.6-.8-.5-.9-.5-1.4.1s-.6.8-.6 1.3c0 .3-.2.9-.4.9-.5 0-.4-1.4.1-2.1.3-.4.3-.5.2-.4-.9.3-1.2.5-1.2.5l-.2.4c-.3.4-.3.6-.2 1.6 0 .6-.2.7-.6.2-.1-.2-.2-.4-.2-.8s-.1-.6-.1-.6-.2.2-.5.3l-.5.3-.4-.4.6-.8c1.3-1.5 2.2-2.4 3-2.8 1.4-.7 1.6-1 1.2-2.1l-.2-.6-.3.1c-1.3.4-2.6-1-1.9-2.2l.2-.4-.2-.1c-.7-.5-1.9-.6-2.5-.4m-27.6 9c0 1.9-.4 3.9-1.1 6-.3.7-.5 1.4-.5 1.4 0 .1 0 .1.1.2.8.2 1.7 1.8 1.8 2.9v.4l1.6.7 2.1.9c1.3.5 1.8.8 2.5 1.4.4.3.8.6.9.7 1 .2 3.5-.9 7.1-3.4 2.8-1.8 3.7-2.8 5.6-5.4.1-.1.2-.3.3-.4s2.7-1 2.9-1 1-1.5 1-1.9c0-.6-.4-1.5-.9-2.3-.6-.8-1-1-1.9-1h-.4v.8c0 1.6-1 2.3-4.6 3.2-2.6.6-3.1.8-3.9 1.6-.7.7-1 .8-2 .8-1.8 0-2.4-.4-5.8-3.8-1.1-1.1-1.6-1.5-2.7-2-.7-.3-2.1-.9-2.2-.9.1.1.1.5.1 1.1m21.9.9c0 .1 0 .2.1.2.2 0 .2.2.1.6-.2.8-1.5 1.7-3.4 2.2-.6.2-1.5.5-2 .6-2.4.7-2.6.8-3.2 1.6-1.1 1.5-1.8 1.7-3.5 1.4A8.39 8.39 0 0 1-67 422c-1.3-1-1.2-1-.9-1.3s.5-.2.8.1c1.1 1.6 4.7 2.9 5.9 2.2l.7-.7c1.1-1.4.9-1.3 5.8-2.8 1.9-.6 2.8-1.2 3-1.9 0-.6.4-.8.4-.4m-32.6 6.6c-.8.3-2.1 1.1-2.8 1.6l-.2.2.2.4c.4.7.3 1.1-.6 1.9-.6.6-.7.9-.9 2.2-.2 1.9.1 2.9 1.6 5 1.8 2.5 2.3 3.2 2.6 3.8.3.7.3 1-.1 1.4-.2.2-.4.3-.4.3-.1 0-.1.2.2.7.1.2.4 1 .7 1.8 1.2 3.4 2 5.3 2.4 5.4.1 0 .8.1 1.5.1 2.4.1 3.4.5 6.5 2.8 1 .7 1.1.8 1.2 1.1.6 1.5.7 1.6 2.3 2.3 1.4.7 3.2.3 4.4-.9s1.1-2-.5-3.3c-1.4-1.1-1.7-1.4-2.8-2.6-.5-.6-1-1.1-1-1.1l-1-1.2c-3.2-3.9-4-5.7-4-9 0-.9 0-1-.3-1.2-1-.6-1.5-2.3-1-3.2.6-1 .6-.9.4-2.2-.2-1.4-.2-1.5-.5-1.7-.7-.4-1.1-.3-1.4.5-.3.7-.6 1-1.5 1.5-1.7.8-2 1.9-1.1 4.3.1.3.2.6.2.7-.2.2-2.1-1.8-2.4-2.4-.5-1.1-.1-2.8.9-3.5 1.3-1 1.4-1.1 1.6-1.6.6-1.3.6-2.5-.1-2.5-.5 0-.7.2-.7.7-.1 1-.8 1.8-2.2 2.8-1.5 1.1-2.8 1-4-.2l-.5-.5h.3c.1 0 .5.1.8.2 1.4.3 1.9 0 2.9-1.4.6-.9.7-2.3.2-3.3-.3-.1-.4-.1-.9.1m-8.4 2l-.4.2.2.1c.3.2.3.2.5-.2.3-.4.3-.4-.3-.1m16.6 9.8c.2.2.2.2.1.9-.4 4.4.8 6.9 5.2 11.3 1.2 1.2 1.6 1.5 2.5 2.1 1.9 1.1 2.5 2.2 1.8 3.4-.4.7-1.2 1-1.5.5-.2-.3-.1-.3.5-.7 1-.7.7-1.4-1.3-2.6-1.1-.7-2.7-2.2-4.1-3.8-2.8-3.2-3.6-4.8-3.8-8 0-.7-.1-1.6-.2-1.9-.2-.7-.1-.9 0-1.1.1-.3.5-.3.8-.1m-34.3.3c-3.5.5-4.9 1-6.6 2.6-3.4 3.1-4.4 6.6-3.4 11.1 1 4.2 1.2 4.7 2.1 5.9l2.6 3.9c2.2 3.6 3.4 7.2 3.4 10.4 0 1.1-.2 4.5-.4 5.3-.3 1.9-.6 3-1.1 4.6l-.3.9.3.2c.2.1.3.4.4.6.3.8.3.8.7.9.5.1.5.1.8-.9.7-1.8 1.1-3.9 1.3-6.4.1-.8.2-2.2.3-3.1.3-3.2.1-4.9-1.2-8.1-.2-.4-.3-.9-.4-1.1s-.2-.5-.3-.8c-.1-.2-.3-.8-.5-1.3-.8-2-1.4-3-2.5-4.3-1.3-1.5-2-2.7-3-5.6-.9-2.3-.9-5.4 0-7.7.9-2.1 1.3-2.7 3-3.8 2.9-2 5.8-2.5 9.5-1.7.7.1 2.1.4 4.7.9.6.1 1.4.2 1.8.3.4 0 1 .1 1.3.1.7.1.7.1.4-.4-.2-.3-.3-.5-.3-.8v-.4l-.7-.1c-1.5-.1-2.6-.3-4.8-.7-.6-.1-1.3-.2-1.6-.3a5.02 5.02 0 0 0-1.2-.2c-1-.1-3.3-.1-4.3 0m20.1.4c-1.7.6-3.8 1-6.2 1h-.5l.4.3c.4.4.9.6 1.6.8.5.1 1.1-.1 2.4-.6 1.4-.7 1.7-.8 2.6-.7 1 .1 1.3-.1.9-.7-.4-.5-.3-.5-1.2-.1m30.7 8.6c-.6.1-.8.3-.7.5.1.1.1.3.1.5 0 .8.2 1.3.8 1.8.8.7.9 1.2.2 1.1-1-.1-1.7-1.1-1.9-2.7-.1-.4-.2-.3-.4.1-.3.4-.4 1.3-.2 1.5.1.1.2.3.4.6.3.6.4.7.9 1 .9.4.8 1 0 .7-.5-.1-1-.5-1.3-.9l-.3-.4-.4.8.1.3c.2.5.5.8.8.9.8.2 1 .8.2.7-.7-.1-1.1-.4-1.5-1l-.2-.3-.3.3c-.2.2-.6.5-.8.7l-.5.3.2.5c.4 1.1.3 1.7-.8 2.7-1.7 1.6-3.7 1.7-5.9.4-.3-.2-.6-.3-.7-.3 0 0 .1.1.4.3.6.3 1.1 1 1.1 1.4 0 .3-.3.4-.5.1l-.5-.5c-.3-.3-.4-.4-.9-.5l-.6-.1-.8.4.5.2c.7.3 1.3 1 1.2 1.5 0 .4-.3.3-.8-.2s-.8-.7-1.5-.8l-.5-.1-.4.3c-.3.2-.8.7-.8.8h.9c1.3 0 2.4.6 2.5 1.4v.3h-.3c-.3 0-.4-.1-.6-.2-.7-.6-1.1-.7-2-.5-.3 0-.6.1-.6.1-.1.1.2 1.2.3 1.5l.1.3.3-.2c.8-.5 1.9 0 2.2.9l.1.4.5-.1c.6-.2 1.3-.7 1.9-1.3 1.8-2.1 1.9-2.1 3.6-1.5 1 .4 1.1.4 1.7.1 1-.4 1.5-.1 2 1.2.1.4.3.6.8 1 .8.7.8.9.7 1.5-.2.6-.1.7.2 1.1.5.5.9.6.9.3 0-.1.6-.7.8-.8.6-.2 1.4 0 1.8.4l.2.3.2-.2c.4-.4.4-.4-.2-1-.8-.7-.9-.8-1.6-.9-.9-.1-1.3-.4-1-.7.6-.6 1.9-.4 2.8.5l.4.4v-.8c0-1 0-1.2-.2-1.1-.1 0-.3 0-.6-.1-.7-.2-1-.2-1.5.1-.7.3-1.2.2-.9-.2.3-.5 1.5-.8 2.2-.6.4.1.4.1-.2-.4l-.6-.4h-.6c-.9.1-1.1.1-1.4.4-.5.5-.8.5-.8.1s.6-1 1.2-1.1l.4-.1-.6-.3c-.6-.2-.6-.3-.6-.4 0-.3.1-.3 1.1-.1 2.2.3 3.4.6 3.9 1 1.1.8 1.8.8 2.5 0 .5-.6.5-.5.1-.8-.9-1-.1-2.8 1.3-2.6h.3v-.4c-.1-1.2-1.2-2.3-2-2.1-.4.1-1.1.5-1.1.6s-.2.3-.4.6c-.7.8-.8 1.1-.7 1.8.1.9-.2 1.3-.6.9-.6-.6-.4-2.2.4-3l.2-.2h-.5c-.9 0-1 0-1.1.4 0 .2-.2.5-.2.8-.1.5-.1.5 0 .8.5 1.2-.1 1.6-.6.3-.2-.5-.2-.9 0-1.5.2-.7.2-.6-.4-.5-.4.1-.4.1-.5.5-.3 1-.3 1-.1 1.5.3.7.2 1.1-.3.8-.2-.1-.3-.3-.5-.7l-.2-.6.2-.6c.1-.3.1-.6.1-.6s-.3.1-.7.2c-.9.3-.9.2.3-1 1.7-1.7 2.7-2.5 3.4-2.6.4-.1.6-.2.9-.7.3-.4.6-1.1.4-1-.1.1-.7-.1-1.1-.4-.8-.5-.9-1.4-.4-2.1.2-.3.2-.3.1-.4-.5-.3-1.3-.4-1.9-.3m-49 22.6c-.3.1-.7.2-.9.2l-.3.1.1 1.1c0 1 0 1.7-.3 4.8-.1 1.7-.4 3.9-.5 4.3l-.1.4.5.5c.9.8 2.2 1.3 5.2 2a32.9 32.9 0 0 1 4 1.1c.5.2 1.7.6 2.7 1 2.8.9 3.5 1.2 4.5 1.7 2 1.1 2.6 2.3 2.8 5.3l.1 1 .9.4c2.6 1.2 4.4 1.4 11 1.5h3.3l.4.5c.3.4.4.6.6.6 2.2.4 5.4-1.4 5.3-3.1v-.4l-.7-.3c-.6-.2-.9-.3-1.6-.3-5.4-.2-5.9-.3-10.3-2.9l-.9-.5v-1.3c0-.7-.1-1.5-.1-1.8-.7-4.1-2-5.9-4.6-6.9-.6-.2-1.1-.4-3.2-.9-2.9-.8-3.6-1-7.2-2.5-2.6-1.1-3-1.4-5.3-3.4-2.4-2-3.6-2.5-5.4-2.2m-52.5 1.8a4.42 4.42 0 0 0 .3.8c.2.4.5 1.3.8 1.9.5 1.2.8 2.1 1 2.4 1.4 2.9 2.2 4.2 3.6 5.8 4 4.7 7.7 7.7 11.8 9.5 5.8 2.6 10.6 3.4 15.5 2.4 1.4-.3 1.3-.2 1.2-.7-.1-.2-.2-.7-.3-1-.1-.7-.1-.6-.9-.5-8.5 1.4-15.6-1.5-24.2-9.8-3.5-3.4-4.9-5.1-7.2-8.8-.9-1.6-1.6-2.4-1.6-2m58.6 2.7c1.1 1.2 2.5 2 4.8 2.7.2.1.9.3 1.5.5 1.1.4 2.3.7 3.3.9 4.2 1 6.1 1.8 7 3 1.3 1.8 1.9 4.3 1.6 6-.4 2-.1 2.3 4.4 4.2 2.3.9 3.3 1.2 4.9 1.1 1.3-.1 1.7 0 1.8.3.3 1-3.8.6-6.8-.7-.3-.1-1-.4-1.5-.6-3.4-1.4-3.9-2.1-3.5-4.4.2-1.2.1-2.2-.5-3.6-1.1-2.7-1.9-3.2-6.8-4.4-4.8-1.2-8.1-2.4-9.6-3.6-.4-.3-.9-.7-1.1-.9-.6-.4-.7-.7-.3-1 .2-.1.3 0 .8.5m-22.6 11.4c-1.4 1.5-1.8 2.8-1.7 5.5.1 1.7.2 2.3 1 3.7 1.4 2.6 1.4 2.7 1.8 2.9s.5.2.8-.1c.7-.8 1.3-.6 1.8.5.2.6.2.9-.1 1.8s-.3.9.1 2.3c.3 1.2.2 1.8-.4 2.7-.7 1-1.4 1.3-2.2 1.1l-.4-.1-.4.8.3.8c1.3 3.5 2.5 5.8 3.4 6.8.4.4 1.3 1.2 2.2 1.9l.8.6v1.8l.4.5c.7 1 3 1.3 4.7.8.9-.3 1.2-.6 1.9-1.8.4-.8.4-.7-.2-.9-.3-.1-.8-.2-1.3-.4-.4-.1-1.1-.3-1.6-.5-1.1-.3-1-.3-1.2-1-.9-3.8-1.2-6.4-1-8.8.2-2.1.4-2.8 2-5.1s2.2-3.7 2.3-5c0-.5.2-1.2.6-2 .4-1 .7-2.4.5-2.8-.1-.1-.2-.4-.2-.7-.1-.5-.3-.7-.8-.9-.7-.3-1 .1-1 1.6 0 .6 0 1-.1 1.2a2.39 2.39 0 0 0-.2.9c-.1.3-.2.6-.2.8-.4.9-.4.9-2 1.5-1.7.6-1.7.7-1.3 1.9.3.7.3.8.9 1.1.3.2.4.3.4.3-1.5.5-2.3.2-3.3-1.2-1.1-1.5-.1-3.5 1.8-3.9.9-.2 1-.3.7-1.4-.3-1.2.2-3.2 1.3-4.5.3-.4.3-.5.1-.7-.7-.8-1.6-.6-2.2.6-.3.5-.3.7-.1 1.5.4 1.9-.1 2.5-2.1 3.1-.4.1-.9.2-1.1.3-.4.1-.4.1-.6.5-.4.7-.9.1-.9-1 0-.6.1-.8 1-1.3s1-.6.8-1.8c-.2-1.3-.1-1.7.4-2.5.6-1.1.5-1.4-.5-1.4-.9 0-1.3.3-1.5 1.2-.3 1-.3 1.6-.2 2.3.2 1.1.2 1.4-.6 2.6-.6 1-.6 1.1.1 2.1s.4 1.8-1.2 3.2c-.7.7-.7.7-.5-.2.2-1.4.2-1.9-.3-2.9-.6-1.2-.6-1.5 0-3 .5-1.3.6-1.6.4-2-.8-2-.8-2.1-.5-2.8.1-.2.1-.4.1-.4-.3-.5-.5-.3-.7-.1m62.3.7c-.8.3-1.7 1-1.5 1.3 0 .1.1.4.2.7.1.9.3 1.3.8 1.7.7.5.8 1.1.2 1.1-.5 0-1.4-.7-1.6-1.1-.1-.3-.1-.3-.5.2l-.3.4.2.4c.2.5.5.8.9 1 .7.3 1 .8.4.8-.7 0-1.5-.6-1.8-1.3-.2-.4-.2-.4-.6 0l-.4.4.2.4c.3.6.4.7.9.9 1.1.5.7 1-.4.6-.5-.2-.8-.4-1.1-1-.1-.3-.3-.5-.3-.5s-.2.1-1.2.7c-.2.1-.2.2-.3.7-.1 1.6-2.7 3.2-5.1 3.2h-1l-.2-.2c-.1-.1-.3-.4-.4-.6l-.2-.3-.8.3c-.7.3-.9.5-.4.5.8 0 2.1 1.5 1.6 1.8-.1.1-.6-.1-.7-.4-.3-.4-.5-.6-1.2-.8-.4-.1-.7-.2-.8-.3-.2-.2-1.3.9-1.3 1.2 0 .1.1.1.2.1 1.4-.3 3 .3 3.2 1.2.2.6-.3.6-1.1 0l-.5-.4h-1.8c-.1.1.1 1.1.2 1.3l.1.3.3-.2c.8-.5 2.3.3 2.3 1.2v.2l.4-.1c.9-.2 1.2-.5 2.4-1.7 1.6-1.6 1.7-1.6 3.3-.9 1 .4 1.1.4 1.7.2 1-.4 1.5-.1 1.9 1.2.2.5.3.6.8 1.2.7.8.8.9.5 1.6l-.2.5.2.3c.1.2.3.5.5.6l.4.3.2-.3c.6-.9 1.7-1.1 2.5-.3.4.4.4.4.7 0s.4-.6.2-.6c-.1 0-.4-.3-.8-.6-.8-.7-.8-.8-1.6-.8-1.5-.1-1.4-1 .2-.9.8 0 1.2.2 1.9.8l.4.4v-.4c0-1.1-.1-1.8-.4-1.7-.1 0-.5 0-.9-.1l-.7-.1-.5.2c-.7.4-1.2.3-.9-.1.3-.5 1.4-.9 2.2-.7.4.1.3 0-.3-.5-.7-.5-1.6-.5-2.4.1-.5.4-.8.5-.8.1s.6-1 1.2-1.2c.2-.1.2-.1-.2-.2-.4-.2-.4-.2-.4-.4.1-.3.1-.3 1.2-.1 2 .4 3.4.8 3.9 1.3 1 .9 1.7.8 2.5-.1l.3-.3-.2-.2c-.9-1-.2-2.7 1.1-2.7h.4v-.1c0-1.1-.8-2.2-1.6-2.2-.4 0-1.4.4-1.7.7-.8.9-.9 1.2-.9 2.1 0 .8-.2 1.2-.5 1-.7-.4-.7-1.9.1-3l.2-.3h-.4c-.9 0-1 0-1.2.7-.3.7-.3.9-.1 1.5.3.7 0 1.1-.4.7-.5-.5-.6-1.4-.3-2.1.1-.2.1-.5.1-.5l-.9.1c-.3.4-.4 1.5-.2 2 .2.4.2.8 0 .8-.3 0-.5-.3-.7-.7-.2-.6-.3-.8-.1-1.4.1-.3.1-.5.1-.5s-1.1.2-1.3.3l-.2.1.2-.2c1.2-1.3 3.9-3.3 4.6-3.4.4-.1.8-.4 1.1-1 .3-.5.3-.5-.1-.6-1.2-.3-1.7-1.7-.9-2.6l.2-.3-.2-.2c-.1-.3-1-.4-1.8-.2m-50.6 10.6c.3.3.1.8-.7 1.8-.2.3-.5.6-.5.7-.1.1-.5.7-.9 1.4-2.7 4-3 5.3-1.8 9.4.4 1.5.7 2.9.7 3.2s.3 1.1.4 1.4c.1.1.2.6.3.9.2.8.2.9-.4.9-.5 0-.5-.1-.8-1.7-.1-1-.3-1.7-.6-2.6-1.4-4.6-1.4-7.4 0-9.7.2-.3.4-.6.5-.8.1-.1.6-.8 1.1-1.6.9-1.3 1.3-2 1.3-2.4 0-.2.4-.9.6-1.1.2 0 .6 0 .8.2m8.7 15.9c-.7.1-.8.2-.7.3v.8c-.1.9 0 1.2.4 1.7.5.7.5 1.3-.1 1.1-.3-.1-.6-.4-1-1l-.3-.4v-1.8c-.1 0-.4.6-.6 1.3l-.2.5.1.6c.1.5.2.6.6 1 .5.5.7.8.4.9-.5.1-1.5-.8-1.6-1.6l-.1-.2-.3.2c-.6.4-.3 1.4.4 1.9.6.4.6.8.1.8-.6 0-1.3-.8-1.5-1.5l-.1-.5-.5.2c-.3.1-.6.3-.7.3s-.3.2-.3.4c-.9 2-1.9 2.6-4.1 2.6-2.1 0-3.1-.4-3.7-1.5-.1-.2-.2-.3-.4-.2-.4.1-.4.2-.1.3.5.3.9 1.2.7 1.6-.1.4-.6.2-.7-.4-.1-.4-.4-.7-1.1-1-.6-.3-.7-.3-1.5-.1l-.3.1.4.2c.8.4 1.2 1.1 1.2 1.7s-.5.4-.8-.4c-.2-.4-.5-.7-1.2-1-.2-.1-.4-.2-.5-.2-.3-.2-1.3.6-1.3 1 0 .1.1.1.4.2 1.3.1 1.9.5 2.4 1.3.7 1-.1 1.4-.8.4-.4-.5-.7-.7-1.5-.8-.7-.1-.7-.1-.7.5s0 .6.4.5c.9-.2 1.7.5 1.9 1.5v.4h.7c.8 0 1.3-.2 2.3-.9 1.7-1.2 2.2-1.2 3.5-.2.8.6.9.7 1.7.7 1.1 0 1.3.2 1.5 1.5.1.7.1.8.5 1.4.5.8.5 1.2.2 1.7-.4.6-.3 1 .2 1.6l.2.2.3-.2c.8-.8 2-.6 2.5.3.3.5.2.5.7.2l.4-.2-.2-.2c-.1-.1-.3-.4-.3-.5-.3-.6-.6-.9-1.2-1.1-1-.3-1.3-.8-.7-1 .8-.2 2.1.4 2.5 1.3.2.3.2.3.4-.4s.3-1 .1-1c-.1 0-.4-.1-.7-.3l-.6-.2-.5.1c-1.1.3-1.3-.3-.3-.6.6-.2.9-.2 1.3 0 .7.3.7.2.3-.4-.3-.5-.3-.5-1.5-.6-.4 0-.5 0-.9.2-.5.3-.8.3-.8 0-.1-.4.8-1 1.6-1h.5l-.3-.3c-.2-.1-.5-.4-.7-.6-.4-.3-.4-.3-.3-.5l.1-.2 1 .5c2 .9 2.9 1.5 3.5 2.2.8 1.1 1.4 1.2 2.4.5l.4-.3-.2-.2c-.7-1.2.6-2.8 1.9-2.3l.3.1.1-.3c.2-.8-.1-2-.7-2.4-1-.7-3.4.6-3.6 1.9-.1.7-.3 1.1-.6 1.1-.1 0-.4-.5-.4-.8 0-.9.3-1.6 1-2.2.4-.3.4-.3-.1-.4-.9-.2-.9-.2-1.1.2-.6 1.1-.6 1.2-.6 1.7.1.7-.2 1.1-.5.7-.4-.6-.3-1.5.2-2.2.3-.4.3-.5-.3-.5h-.4l-.3.5c-.3.5-.3.6-.3 1.4 0 .6-.1.8-.4.5-.4-.4-.5-1.3-.1-1.9.3-.5.3-.5-.5-.5l-.7-.1 1.1-.6c2.5-1.3 3.5-1.7 4.3-1.7.5 0 .9-.2 1.5-.8l.3-.3-.4-.2c-1.1-.7-1.2-2.1-.2-2.7l.3-.2-.2-.2c-.1-.8-1.2-1.2-1.9-1" fill="#084"/><path d="M-89.8 360c-.1.1 0 .2.4.3 2.3.3 3.3 1.6 1.9 2.6s-2.2 1.1-3.7.4c-.5-.2-.8-.3-.8-.1s1.9.8 2.5.8c1 0 2.4-1 2.8-1.9.4-.8-.6-1.8-2.1-2-.3 0-.7-.1-.8-.1 0-.1-.2 0-.2 0m-.4 1.2c-.1.2-.3.5-.4.7-.3.4-.3.4 0 .6.6.3 1.1.1 1.4-.6.1-.2-.2-.7-.4-.9-.4-.2-.4-.2-.6.2m-1.6 3.2c0 .1.2.1.3.2 2.5.4 3.2.9 3.2 2.3 0 1.7-1.1 2.5-3.6 2.5-.9 0-1.3.1-1 .2.3.2 2.4 0 3.1-.3 1.4-.5 2.2-2.4 1.5-3.6-.4-.6-1.2-1-2.6-1.3-1-.2-1-.2-.9 0m0 1.6c0 .2-.2.6-.2.9-.2.6-.1.7.4.7a.91.91 0 0 0 .5-1.7c-.4-.4-.6-.4-.7.1m-9.6 5.2c-.2 0-1 .4-1.9.8-1.3.6-1.6.8-1.9.8h-.4l.4.3c1.5 1 3 1 5.6 0 2.3-.9 2.2-.9 1.7-1.1-.2-.1-.6-.2-.8-.3-1-.5-2-.6-2.7-.5m12.6 2c0 1.1 0 1.1-.2 1.6s-.8 1.2-.8.8c.2-.7.1-1.7-.1-2.1-.1-.2-.3-.6-.4-.7-.1-.2-.2-.3-.3-.3s-.1.3.3.8c.4.6.4.9.3 2.3-.1.8 0 .8.6.1.8-.9.9-1.5.8-3-.1-1.1-.2-.7-.2.5m13.9-.2c0 .7.1 1.1.3 1.4s.3.4.1.4c-1.2-.5-2.9-.7-3-.4-.7 1.2-2.8 1.9-4.5 1.4l-1-.2c-.3 0-.3 0-.4-.2-.2-.3-1-1.4-1.1-1.3a2.64 2.64 0 0 0 .1.7c.2 1.1.2 1.1-.4 1.5-.5.3-.6.4-.6.1 0-.4-.7-1.6-1.3-2.3-.2-.2-.2-.3-.2-.1 0 .1.1.7.1 1.4 0 1 .1 1.2.2 1.2s.1-.2.1-1v-1c.2 0 1 1.6 1 2 0 .1.1.1.6.2.3 0 .7.1.8.1s.1 0 .1-1.1v-1.1c.2 0 .9 1.4 1 2 .1.4.1.4.6.6l2.2 1.4c.7.5 1.6 1 1.7.9 0 0-.1-.3-.2-.5-.4-1-.5-2.3-.3-2.3s1.2 1.1 1.6 1.8c.5.9.5.9.7.3.2-.8 2.2-2.9 2.7-2.9.1 0 .2-.1.4-.1l.3-.1-.2-.4c-.7-1.1-1.1-2.3-.9-2.5s1.3.8 1.6 1.5l.2.4v-.5c0-.7-.4-1.2-1.6-1.8-.3-.2-.5-.3-.6-.3-.1.3-.1.5-.1.8m23.9 30.5c-2 .5-3.2 2.5-2.3 3.9.6 1 2.6.8 2.8-.4 0-.1.1-.2.1-.2s.1-.3.1-.7c.1-1 .3-1.2 2-1.7.8-.3.8-.3.2-.5-.9-.5-2.2-.6-2.9-.4m1.9.3c.7.1.7.2 0 .4-1.2.4-1.4.7-1.5 1.9-.1 1.4-1 2-2 1.5-1.3-.7-.7-2.7 1-3.5.9-.5 1.5-.5 2.5-.3m7.2 2.3c-.2 0-.3.1-.3.1s-.1.1-.2.1c-.4 0-1.2 1.3-1.1 1.8.3 1.4 2 1.8 3.2.6.1-.1.4-.3.5-.4l.3-.2.6.2 1.3.5c.8.4.9.4.4-.5-.3-.6-.4-.8-.9-1.3-.8-.7-2.7-1.2-3.8-.9m2.3.5c.7.3 1.2.7 1.7 1.4.4.6.4.6-.4.3-1.2-.5-1.4-.5-2.3.3s-1.2.8-1.9.5c-.6-.3-1-1-.7-1.5.6-1.2 2-1.6 3.6-1m1.1 9.9c-.9.5-1 1.7-.1 2.6l.4.4c2 .1 2.2.2 2.7 2.2.2.7.2.7.5 0 .2-.5.2-.6.3-1.8v-1.3l-.3-.6c-.4-.8-.9-1.2-1.6-1.6-.3-.1-1.5 0-1.9.1m1.8.3c1.4.6 2.1 2.4 1.7 4.1-.2.6-.2.6-.4-.1-.4-1.1-.7-1.4-1.8-1.5-1-.1-1.3-.3-1.5-.8-.8-1.4.4-2.4 2-1.7m-12 10.9c-.8.2-1.3 1-1.1 1.8.1.2.1.4.1.4-.1.2.6.9 1.1 1.2.9.6 2.6.6 3.7.1.2-.1.3-.2.3-.2l.1-.1c.1 0 1.3-1 1.4-1.1 0-.1 0-.1-.1-.1-.4.2-2.2.1-2.5 0s-.7-.6-.7-.8c0-.6-1.4-1.4-2.3-1.2m.9.3c.3.1.6.3.8.7.1.1.3.5.4.7.4.7.6.8 1.7.9 1 0 1 0 .5.4-2 1.3-4.5.8-5.1-1.1-.3-1.1.6-1.9 1.7-1.6m-8.5 16.2c-.2 0-.5.2-.6.2-.1.1-.3.2-.4.4-1.3.9 0 3.1 1.5 2.6h.2l.6-.2c1-.5 1.6-.3 2.8.9.5.5.6.3.2-1-.3-1.1-.8-1.7-1.4-2.2-.2-.1-.4-.3-.6-.4-.5-.3-1.5-.5-2.3-.3m1.3.3c1.2.3 2.1 1.1 2.5 2.3.3.7.3.8-.1.5-1.1-.9-1.6-1-2.7-.4-.8.4-1.1.4-1.6.2-1.8-1-.2-3.1 1.9-2.6m1.9 9.2c-.7.4-1 1.4-.5 2.2.2.3.8.7 1.7 1.1.7.2.9.7 1 2.2.1.9.1 1 .5.4.9-1.2 1.1-2.1.9-3.4-.2-1.1-1.2-2.4-1.9-2.4h-.7c-.6-.3-.8-.2-1-.1m1.6.3c1.5.7 2 2.7 1.1 4.4l-.3.6-.1-.3c-.3-1.5-.3-1.5-.6-1.8-.2-.2-.4-.3-.9-.4-.9-.2-1.1-.4-1.3-.8-.5-1.4.7-2.4 2.1-1.7m-23.4 5.3c-.9.5-1.2 1-1.2 2.2v1l.3.6c.4.8 1.4 1.7 1.8 1.7l.6.2c1 .4 1.4.4.9-.1-.5-.6-1.1-1.7-1.1-2 0-.1.2-.5.4-.9.6-1 .5-2-.3-2.6-.2-.2-1.1-.3-1.4-.1m1.3.3c.8.5.9 1.3.2 2.3-.6 1-.6 1.4.2 2.7l.2.3-.2-.1c-2.4-.7-3.5-3.7-1.9-5.1.4-.3 1.1-.4 1.5-.1m14.2 2.6c-1 .3-1.4 1.6-.9 2.4.6 1.1.5 1.6-.9 2.9-.5.5-.4.6.2.5 1.7-.3 2.9-1 3.4-2.1.1-.1.1-.2.1-.2.1 0 .2-.5.3-1 .3-1.6-.9-2.9-2.2-2.5m1.2.4c1.7 1.2.3 4.5-2.2 5-.3.1-.3 0 .1-.5.8-.9.8-1.3.3-2.3-.4-.9-.4-1.1-.1-1.6.6-.9 1.3-1.1 1.9-.6m-1.1 20.9c-.2 0-.3.1-.3.1s-.1.1-.3.2c-1.9 1.1-.1 3.5 1.9 2.6 1.1-.5 1.6-.3 2.9 1.1.5.6.6.4.2-1-.4-2.1-2.4-3.5-4.4-3m2 .5c.4.2 1.2.7 1.5 1s.9 1.9.8 2l-.4-.2c-.9-.9-1.5-1-2.5-.6-1.2.5-1.5.5-2.1-.1-1.3-1.4.8-3 2.7-2.1m1.2 9.1c-1.1.3-1.4 2.1-.4 2.7.1.1.3.2.5.3l.6.3c.7.2.9.7 1 2.2.1 1.1 0 1.1.6.2.8-1.1 1-1.9.8-3.2-.1-1-1-2.3-1.5-2.3-.2 0-.1 0-.6-.1-.5-.2-.7-.2-1-.1m1.4.4c1.5.7 1.9 2.8 1 4.5-.3.6-.4.6-.4.1 0-1.2-.3-1.7-1.1-2.1-.9-.4-1.2-.5-1.4-.8-.8-1.4.4-2.4 1.9-1.7m-23.5 4.2c-.1 0-.4.2-.5.3s-.3.3-.4.3c-.4 0-.7 1.9-.5 2.6.1.2.2.5.2.6.3.8.9 1.4 2.1 2 .4.2 1.2.5 1.3.4 0 0-.2-.5-.3-.5-.1-.1-.7-1.1-.8-1.5-.2-.5 0-.9.4-1.3l.2-.2s.1-.2.2-.3c.1-.2.2-.3.1-.4v-.3c.1-1.1-1-2-2-1.7m1.1.3c.3.2.7.8.7 1.2 0 .3 0 .4-.6 1.2-.6.9-.6 1.1-.1 2s.5.9-.2.6c-1.6-.8-2.5-2.7-1.8-4.2.4-.9 1.2-1.2 2-.8m13.8 3.4c-.3.2-.7.7-.8 1 0 .2-.1.3-.2.3a1.75 1.75 0 0 0 .1.5c.5 1.4.5 1.4.4 1.8-.1.2-.8 1.1-1.4 1.6-.4.4-.4.4.7.2l1.2-.3c.2-.1.5-.2.5-.2.1 0 .7-.5.8-.6 0-.1.1-.2.2-.2 1.2-1.2 1.2-3.3.1-4.1-.3-.1-1.2-.2-1.6 0m1.4.3c.7.4 1 1.9.5 2.8-.5 1-1.2 1.7-2.4 2-.9.3-.9.3-.4-.3.9-1 1-1.2.5-2.3-.4-1.1-.4-1.5.2-2 .5-.4 1.2-.5 1.6-.2m-39.5 9.1c-.1.1-.2.1-.3.1-.7 0-1.4 1-1.2 1.8.3.9 1.2 1.3 2.4 1.1.7-.1.9-.1 1.2.2l.7.7s.1.2.3.4c.1.2.3.5.4.6l.2.2c.2 0 .1-2.7-.2-3.2-.4-.8-1.3-1.7-1.8-1.8-.1 0-.3-.1-.6-.2-.5 0-.9-.1-1.1.1m1.2.4c1.4.4 2.3 1.9 2.4 3.5 0 .5-.1.5-.4 0-.8-1.1-1.1-1.3-2.3-1.1-.9.1-1.1.1-1.5-.2-1.5-1.2-.2-2.8 1.8-2.2m-23.5 8.8c-.2.1-.4.2-.5.2-.3 0-1 1.2-1.1 1.9s.3 2.1.7 2.6c.7.8 1.9 1.8 2.1 1.7l-.2-.8c-.2-.6-.3-.9-.3-1.4v-.6l.3-.3c.9-.7 1.1-.9 1.1-1.1.3-1.8-.7-2.9-2.1-2.2m1.3.2c.5.2.7.5.7 1.2v.5l-1 1c-.6.5-.7.9-.4 2 .1.3.1.6.1.6-.1.1-1.2-1.1-1.4-1.4-1.2-1.8.3-4.7 2-3.9m21.5.6c-1 .5-1.3 1.8-.5 2.5a1.44 1.44 0 0 1 .2.3l.2.2c.4.2.8.6.9.9s.1.5-.3 2c-.2.7-.1.7.5.2 2-1.5 2.4-3.8 1.1-5.5-.1-.2-.3-.3-.3-.3-.1 0-.3-.1-.5-.2-.6-.2-.9-.3-1.3-.1m1.1.3c1.8.9 2 3.3.3 5.1-.4.4-.4.4-.3-.1.3-1.3.1-1.8-.9-2.5-.6-.4-.8-.7-.9-1-.2-1.2.7-2 1.8-1.5m-9.8 6c-.8.3-1.3 1.1-1.2 1.8.2.9.1 1.4-.2 1.7s-1.3.9-1.7 1.1c-.6.2-.4.3 1.2.3h1.4l.5-.2c.8-.4 1.5-1.1 1.9-1.8.3-.6.4-1 .3-1.3 0-.1-.1-.3-.2-.5-.4-.8-1.2-1.4-2-1.1m1 .3c1.5.7.7 3.2-1.3 4.1-.5.3-2.2.4-2.2.2 0 0 0-.1.1-.1.2 0 1.3-.9 1.5-1.2.1-.2.1-.4.1-1-.1-1.5-.1-1.7.7-2.1.4-.1.6-.1 1.1.1" fill="#339"/><g fill="#b32"><path d="M-79.8 356c-.6.3-1.2 1.2-1.2 1.8v.8h-.7c-.8.1-1 .1-1.8.8-1.4 1.1-1.5 1.4-1.6 2.4-.1.8 0 1.1.5 1.6.8.8.1 1-.6.2-.4-.4-.6-.9-.6-1.4v-.3l-.2.2c-.5.5-.3 1.7.3 2.2.5.4.5.8 0 .7-.6-.1-1.1-.9-1.2-1.7-.1-.5-.3-.5-.4.2-.2.7 0 1.2.6 1.9.6.6.3 1-.3.5-.7-.5-1-1.3-.8-2.1l.1-.4-.5.3c-.9.4-1.7.4-3-.2l-.6-.3-.4.4.2.2c.1.1.3.3.3.4.1.2.2.2.8.3 2.1.3 3 .9 3.1 2.2.1 1.1 1.5 2 1.7 1.1.2-.7.4-.8 1.1-.6.5.1.6 0 .7-.4.1-.5.3-.6.9-.6 1 .1 1.3-.3 1.4-2.1 0-.5.2-1.2.3-1.7.1-.4.3-1 .4-1.3.2-.6.2-.6.3-.2.5 1.8.9 2.2 2.1 2.1 1.2-.2 2.2-1.6 1.5-2.3l-.2-.3-.3.2c-.4.2-.6.5-.3.8.2.2.3.2.3-.1-.1-.3.2-.4.4-.1.3.6-.4.9-.9.4s-.3-.9.7-1.4c1.4-.7 1.8-1.6.9-2.4l-.3-.3-.6.1c-1.2.1-1.8-.4-1.3-1 .2-.2.3-.3.5-.1s.1.4-.1.4c-.3-.1-.3.3.1.4.4.2.7-.4.4-.9a1.3 1.3 0 0 0-1.7-.4m1.5 1.9c.5.1.5.3 0 .3-.9.1-1.1.2-1.4 1-.2.6-.4.7-1.3.7-.9.1-.9.1-1.6.6-1 .8-1.3 1.6-.8 2.9.2.6 0 1.1-.3.7-.4-.4-.6-1-.6-1.9v-.9l.3-.4c.7-1 1.7-1.6 2.7-1.7.8-.1.8 0 1-.6.3-.7 1-1 2-.7m-39.9.7c-.3 0-.8.5-.8.7 0 .7 1.1 1.2 2.9 1.2.2 0 .4.1.7.2.2.1.5.3.7.4s.5.3.8.4a4.67 4.67 0 0 1 1 .5c.3.2.7.5 1 .6l.4.2c.1.2.7.5.8.4s.1-.3-.1-.5c-.1-.1-.2-.2-.2-.5-.3-1.9-1-2.7-2.4-2.7a.76.76 0 0 1-.4-.2c-.2-.1-.3-.2-.4-.2s-.2 0-.3-.1c-.6-.3-2.3-.6-3.7-.4m25.6.1c-.4.1-.5.2-.9.6-.2.2-.5.5-.7.6l-.3.2h.3c.8 0 .9 1 .3 1.6l-.2.2h.4c.6 0 .8.3.5.8-.3.4.1.5.8.1 2.8-1.5 2.7-4.8-.2-4.1m2.8 1.6h0m-16.1.8c-.2.1 1.8 2.2 2 2.1.1-.1.9-1 .9-1.1s-.9-.6-1.3-.6c-.2 0-.5-.1-.7-.2-.4-.3-.7-.4-.9-.2m11.2 2.5c-.3.1-.6.1-.8.2-.2 0-.5.1-.6.2l-.3.2.3.1c1.1.4 1.3 1.2.4 1.4-.2 0-.6.3-.6.5 0 0 .1.1.3.1.9 0 1.4.7.8 1.1l-1.3.9s.1 0 .2-.1c.5-.2.8 0 .8.4 0 .3-.6.9-.9.9s-.3.1 0 .2c.7 0 1 0 1.4-.4.7-.5 1.3-.4 1.3.2 0 .7 1.3-2.4 1.5-3.7.2-1.7-.8-2.7-2.5-2.2m-8.5 2.4c-1.4.4-2.5.5-5.8.6-3.8.1-4.9.2-6.9 1-1.6.6-1.8.7-2.3.7-1 .2-4.3.3-5.7.2-1.1-.1-1.4-.1-1.9 0-1 .2-1 .2-1.1.4-.5 1 1.2 1.6 3.6 1.1 1.9-.4 3.5-.5 3.7-.2.5.5-.3 1.4-2 2.3-2.1 1.1-2.9 1.3-6.1 1.3-2.8 0-3.2.1-3.4.9-.3 1.1 4 1.8 6.5 1.1 3.4-.9 6.1-2.5 7.4-4.3.5-.7.6-.8 1.2-.8.5 0 .9-.2 1.8-.9.8-.6 1.1-.7 1.6-.4.7.4.7 1.1.1 1.8-.8.8-1 .9-2.1 1.1-.4.1-.6.5-.5.9s.2.4 1.3.3c2-.3 3.2-.9 4-2.1.9-1.3 1.5-1.7 3-1.9.4 0 1.1-.2 1.4-.3 1.1-.3 1.7-.4 2.8-.4h1l.1-.7c.1-.8-.1-1.2-.6-1.6-.4-.2-.5-.2-1.1-.1m14.8 1v.1-.1m-3.4.6h.2c-.2-.1-.3-.1-.2 0m3.4.4c-.6 1.1-1.9 1.6-4 1.5-.7 0-.9 0-.3.1 2 .2 3.9-.5 4.4-1.7.2-.3.1-.3-.1.1m-.4 4.6v.1-.1m-1.1 2v.2-.2m3.2.4v.2c.1 0 .1-.1 0-.2.1-.1.1-.2.1-.2s-.1.1-.1.2m.1 1.1v.2-.2m2.5.7v.1-.1m8.6.4l-.5.5.5-.5c.3-.2.5-.4.5-.5.1 0 0 .1-.5.5m-3.7.5v.1-.1m40.4 29.3s.1.1.3.2l.3.2-.2-.2c-.3-.2-.4-.2-.4-.2m-4.5.9v.1-.1m.1 1.1c.1.1.4.3.4.3s-.1-.1-.3-.2c-.1-.2-.1-.2-.1-.1m5.3 7.4h.2c-.1 0-.3-.1-.2 0m-.8.2l-.2.2.2-.2c.4-.2.4-.2.3-.2-.1.1-.2.1-.3.2m-10.7 11.6c-.1.1-.2.3-.2.3h.1l.5-.5c-.2-.1-.3 0-.4.2m1-.3h0m-.8.4l-.2.2.2-.2.3-.2c0-.1-.2.1-.3.2m-6.7 16.1h0m-2 1.4v.1-.1m5.3 7.7h0m-21.9 5.7h0m1.5.8c.1.2.2.3.2.3s-.2-.5-.3-.5c0-.1 0 0 .1.2m-2.9 1.5v.1-.3c.1-.1 0 0 0 .2m16 1c-.2.2-.4.3-.4.4s0 0 .2-.1c.1-.2.4-.4.5-.4.1-.1.2-.1.1-.1 0-.1-.2 0-.4.2m.9-.1h.1c-.2-.1-.2 0-.1 0m1.6 1.8v.2-.2m-3 20.9v.1-.1m.4 1.3c.1.1.5.3.5.3s-.1-.1-.3-.2c-.1-.1-.2-.1-.2-.1m.8.3h0m4.1.1c0 .1 0 .1-.1.1s-.1 0 0 0c.1.1.2.1.1-.1h0m-2 8.3c0 .1 0 .2.1.3s.1.1 0 0c.1-.1 0-.2-.1-.3h0m3.9 1.3v.2-.2m-25.7 1.7l-.2.2.2-.2.3-.2c0-.1-.1 0-.3.2m.9-.2h.2c-.2-.1-.2 0-.2 0m23.8.3v.1-.1m-8.5 3.1h.2c-.2-.1-.3 0-.2 0m1.4.6c.2.3.2.3.2.2l-.2-.2-.1-.2.1.2m-3.1 4.5c-.2.2-.2.3-.1.3s.1 0 0-.1c.1 0 .1-.1.1-.2.2-.1.2-.2.2-.2l-.2.2m-38 6.7s.1.1.3.2l.3.2-.2-.2c-.3-.2-.4-.2-.4-.2m-.2.2s.1.1.3.2l.3.2-.2-.2c-.3-.2-.4-.3-.4-.2m1.1.4h0m3.6.9c0 .3 0 .4-.1.3-.1 0-.1 0 0 0 .1.3.1.2.1-.3v-.4.4m-3.3 6.3c-.1.1-.3.2-.4.3-.1.2-.1.2.1 0 .1-.1.3-.3.5-.3.1-.1.2-.1.2-.1-.1 0-.2 0-.4.1m-20.3.6h0m21.7 3.6h0m-9.5 2.2h0m1.5.8c.1.3.1.3.1.1 0-.1 0-.2-.1-.3v.2m-2.8.5h0m.2 1.4v.1-.1"/><path d="M-89.9 361c-.1.2-.1.2.1.3.5.2.8.9.5 1.3-.2.4-1 .6-1.4.3-.3-.2-.7 0-.5.2.6 1 2.5.2 2.5-1 0-.5-.5-1.3-.9-1.3h-.2s-.1.1-.1.2m-1.8 4.8c0 .2 0 .3.3.3 1.1.3 1 2-.2 2-.2 0-.4 0-.5-.1s-.2 0-.2.1c-.1.3-.1.4.2.5 1.4.5 2.6-1.2 1.8-2.4-.4-.7-1.4-1-1.4-.4m16.6 4.6c-1.2.3-2.4 1.1-4 2.6-1.1 1-1.2 1.1-2.2 1.1s-1.7-.2-3.1-1.1c-1.5-.9-1.9-1-3.2-.6l-.8.2v1.2c0 1.4-.1 1.8-1 2.7-.6.6-.6.7-.5-.7.1-1.1.1-1.2-.1-1.5-.3-.5-.6-1.1-.6-1.2-.1-.1-.9.4-1.1.6-.8.8-.4 2.8.5 3.1.5.1 3.7.5 4.2.5h.3v-.4c0-.2 0-.9-.1-1.4-.1-.6-.1-1-.1-1.1.1-.1 1.3 1.5 1.5 2.1.1.3.1.3.7-.1l.5-.4v-.4c0-.2-.1-.6-.1-.8v-.4l.2.1c.1.1.4.4.6.7.4.5.4.5.8.5.2 0 .8.1 1.3.2 1.6.4 2.9-.1 4-1.5 1.5-2 2.2-2.5 4-2.8 1.5-.3 2.2-.4 3-.3h.7l-.4-.3c-1.4-.7-3.5-1-5-.6"/></g></g></svg>