<svg xmlns="http://www.w3.org/2000/svg" width="150" height="200" viewBox="0 0 39.7 52.9"><path d="M26.831 15.8c.159-.265 4.982-1.987 5.645-2.173.848-1.776-1.484-3.312-2.491-4.16-.397-.027-1.219-.318-1.298.318.026.689.212.927-.159 1.59-.424.742-2.915 3.472-3.79 2.73-.769-.663-1.484-1.378-2.359-1.961 1.034-.344 3.524-.715 4.32-1.272.848-.132.451-1.59.556-2.226-.662-.556-.689-1.828-1.616-2.093-.477-.609-2.252-.768-2.941-.795-.424.636.106 1.219.636 1.458.212.927-3.312 3.233-4.055 3.578-.609.291-1.378.212-2.067.344l-.397-1.404-.239-.53c-2.411-3.604-4.558 1.113-6.864.53l-.345.159c-.291-.053-.583-.133-.848.132-.318.954 2.915 2.835 3.604 3.074-.133 1.325-.822 2.623-2.2 2.623-.318.318-.795.079-1.14-.053-1.696-.662-1.325-.371-2.941-.318-.875 1.563.08 3.948 1.325 4.797 1.51.424.239.265 2.093.503-1.06 2.915-3.18 4.505-4.903 6.254l-1.881 1.776c-2.12 1.935-.133 1.51 1.484.98 2.995-.98 4.69-3.418 6.864-5.645.53.716 1.431.265 1.934.822-.424.954-1.325 1.484-1.934 2.279-.928 1.14-1.802.954-2.756 1.749-.477.848-1.06 2.2-.504 3.127 1.034-.08 2.041-.345 3.021-.636-.61.874-1.802 2.226-2.597 2.782-.795-.027-1.219.795-1.722 1.325.398 1.087-.45 1.749.159 2.835 1.113.689 5.194-2.623 5.724-1.537.053 1.431-1.696 5.061-3.18 5.273-.636.08-1.722-3.047-1.802-3.63-.795 1.881-.185 7.129 1.616 8.215 1.987 1.139 5.432-3.657 5.724-5.486.477-.954.954-2.041 1.246-3.048a1.33 1.33 0 0 1 .053-.318c0-.159 0-.318.026-.451.026-.848-.106-2.279-.822-2.73-.238-.477-.98-.822-1.431-.795-.477-.132-1.034-.212-1.617-.106 1.245-1.617 3.074-2.438 4.399-3.948.053-.477.133-1.378-.398-1.564-.239-.265-.583-.503-.928-.662.371-1.06 2.518-2.888 3.313-3.71.424-1.325-.636-1.563-1.06-2.597-.291.053-.98-.477-1.457-.53-.716-.503-3.339 1.139-4.134 1.378 1.59-2.57 3.392-7.712 4.982-9.328 1.272-1.298 4.929 2.067 5.936 3.074-.822.98-2.146 1.033-3.074 1.802-.344-.079-.795.345-.265.371.636.08 2.782-.742 3.524-.874.848-.186.927.053 1.325.371a29.67 29.67 0 0 0 1.378 1.484c.079.053 2.836 2.968 2.994 3.1 1.855 1.722 2.968 4.505 4.532 5.141.901.344 2.093-.662 3.1-.901.185-.053 1.537-.026 1.617-.291l.265-.159c-2.147-3.578-7.288-5.141-11.183-10.043zm5.247 25.652c-1.219-1.06-6.36-3.578-7.632-2.385 1.166 1.564 2.2 3.286 3.313 4.85 1.06 1.458 2.438 2.968 4.028 3.472 2.995.981 1.669-4.744.291-5.936zm.875-8.162c-.98-2.067-1.537-1.882-3.259-2.067-1.219.689-2.597.557-3.975.742a7.29 7.29 0 0 1 .159-1.51c1.272-1.829 3.763-1.961 4.479-4.479-2.703-4.585-5.141-.874-8.612-.451l.53-.98c.212-.822.716-1.192 1.06-1.961.424-.238.371-1.352.874-1.882 0-.715-.53-1.192-1.404-1.617-.424-.212-1.033-.715-1.299 0-.026.106-.61 1.033-.689 1.139-.344.583-.848 2.438-1.033 2.73-.053.08-.239.742-.344.954 0 .398-1.192 2.332-1.299 3.127-1.723 1.378.344 1.802.795 2.862.106.61 2.465-.185 3.975-.318-1.272 2.968-4.929 5.035-7.393 5.857-.821 1.06-.45 2.332-.821 3.578 2.438 1.881 4.187-1.325 6.413-1.749-.663 1.643-2.067 4.478-3.127 5.671-2.465 3.18-4.293.345-3.524 1.696 1.007.981.026 1.431 1.484 1.643.742.106.398.53 1.139.503s1.431-.583 2.12-1.007c3.869-2.571 3.471-5.751 5.353-9.964 2.756-1.007 5.645-.238 8.453-.45l.451-.504c.397-.742-.265-.98-.504-1.563z" fill="#084"/></svg>