<svg xmlns="http://www.w3.org/2000/svg" width="150" height="200" viewBox="0 0 39.7 52.9"><path d="M2.14 39c.106.635.794 1.61 1.11 1.61s1.11-1.46 1.38-2.28c.873-2.91 1.08-6.01.847-13.7-.079-2.49-.027-5.24.027-5.29l.397-3.52a23.8 23.8 0 0 0 0-2.75c-.053-1.16-.132-1.77-.556-2.86l.079-.317c.212-.159.344-.212.45-.265.476 0 1.77 1.22 2.78 2.59.9-.767 1.83-1.53 2.04-1.53.159-.106 1.22-.556 2.83-1.22.503-.212 1.77-.82 3.1-1.53 4.39-2.51 6.32-3.28 7.88-3.28 3.18 0 7.75 3.47 7.88 6.01.026.714.026.714-1.46 3.1-.291.45-.767 2.2-1.22 4.68-.556 3.36-.794 7.65-.556 12.1.291 5.72.926 7.25 2.35 9.68.741 1.43 1.64 2.43 2.35 2.38.556-.026.635-.185.635-.582.026-1.06-.767-3.81-1.75-6.03-.9-2.04-1.4-5.79-1.4-5.79 1.59 1.3 2.46 4.05 4.13 5.56 2.41 3.07 2.8 3.76 2.43 8.63-.079 1.14-1.22 2.35-3.31 2.2-1.3-.106-1.98-.582-4-2.17-1.96-1.53-2.7-4.68-3.1-7.43-.132.503-.212.82-.212.926l-.714 3.15c-.582 2.86-3.1 7.22-4.13 7.22-.159 0-.37-.265-.609-.873-.053-.212-.238-.503-.45-.82l-2.17-2.7c-.159-.212-.556-.873-1.14-1.83v-.159c1.85.926 3.18 1.43 3.81 1.43.873 0 1.08-.318 2.06-3.97h-.661c-.767 0-.873-.053-2.38-.661-.318-.159-.582-.212-.794-.212-.529 0-.529 0-2.3 1.72-.344.318-.847.609-1.27.609-.529 0-1.43-.397-2.12-.873-.476-.397-.873-.609-1.06-.609-.582 0-1.51.873-2.96 2.7-.238.318-.609.503-.952.503-.476 0-.9-.265-1.08-.661-1.03-2.04-1.03-2.04-1.53-2.7-1.32 3.25-3.73 6.8-4.6 6.8-.318 0-.556-1.11-.582-1.61-.026-.265 0-1.93.026-3.07l.265-1.53zm24.4-9.9c-.238-4.39-.291-12.4.132-14.9.238-1.48.053-2.99-.079-3.81-.079-.476-.582-1.43-2.2-1.98-.635-.238-1.38-.106-2.49.423-1.67 1.03-2.41 1.03-4.1 2.43-.847.714-2.17 1.27-3.1 1.27-.476 0-1.14-.106-1.93-.265-.582-.159-1.11-.212-1.56-.212-.82 0-1.46.714-2.14 2.59-.82 2.14-1.03 5.05-.9 13.4 0 5.05-.053 5.9-.952 10.3.529.159.9.265 1.06.397l.847.503c.212.106.37.159.476.159.212 0 .503-.053.873-.265 1.06-.556 2.38-.979 3.02-.979.265 0 .794.106 1.38.318.265.053.476.106.582.106.37 0 .37 0 2.12-1.06.767-.45 1.32-.661 1.83-.661l.529.053c.106 0 .159-.053.159-.106 0-.159-.185-.397-.661-.82l.423-.053c.37.106.741.212.847.265 1.43.503 2.38.82 2.7.979.159.053.529.265 1.01.609.212-.82.344-1.53.318-2.09-.053-1.06-.82-1.93-1.67-1.93-.873 0-2.96.82-5.95 2.25-.873.397-1.53.609-1.98.609-.159 0-.476-.053-.952-.159-.212.82-.45 1.27-.82 1.27-.476 0-1.22-2.65-1.35-4.84-.106-1.83.291-8.1.609-9.31.238-1.16.476-1.93.476-1.98.159-1.11.238-1.27 1.35-2.09 1.24-.767 1.69-1.27 1.67-1.88 0-.212-.132-.609-.265-.979-1.67.661-2.09.767-2.51.767-.82 0-1.67-.318-2.8-1.16-.476-.397-.503-.45-.582-.979l.238-.159c.423.053.688.106.9.106 1.03 0 1.03 0 6.01-2.38 3.7-1.43 3.7-1.43 4.39-1.43 1.08 0 2.7.979 2.73 1.69.026.397-.212.661-.794.82-.159.053-.159.053-1.96.503-.82.212-1.16.318-2.51.767-.132.397-.265.767-.318.873-.132.397-.212.767-.212.926s.079.265.212.265c.053 0 .053 0 1.27-.397.265-.053.45-.106.714-.106 1.61 0 3.94 1.77 4 3.1.026.318-.106.82-.397 1.38-.37.82-.609 1.38-.635 1.53l-.556 3.1c-.026.318-.212.873-.529 1.77.45-.106.926-.212 1.03-.265.397-.106.767-.159.926-.159.82 0 1.69.82 1.75 1.69.026.397-.291.609-.847.661l-1.51.053c-4.71 1.22-5.42 1.43-6.67 2.2-.794.503-1.4.767-1.67.82l-.926.053c-.265 0-.45.318-.423.82.027.661.212 1.06.476 1.06.053 0 .979-.318 2.8-1.11 4.02-1.64 4.47-1.77 6.35-1.77.873 0 1.03.053 2.49.926.159.106.37.159.423.159.159 0 .212-.159.185-.609v-.159zm-12.3-.82c-.212 0-.344.397-.318 1.06.053 1.11.185 1.32.476 1.32.212 0 .82-.212 1.38-.503 1.67-.873 2.78-1.32 4.31-1.77.556-.106.82-.265.794-.45 0-.106-.132-.318-.291-.556-.106-.159-.106-.159-.291-.397-.053-.106-.053-.106-.053-.159-.053-.106-.053-.159-.053-.159-1.22.45-1.22.45-3.86 1.59-.397.159-.767.265-1.08.265-.106 0-.37-.053-.635-.159zm.714-2.54c.9-.714.979-.926 1.32-1.72-.952-.212-1.11-.265-1.67-.873-.053.873-.185 1.64-.212 1.93-.212.767-.291 1.32-.265 1.72 0 .159.159.265.37.265.635 0 2.35-.767 3.89-1.83.45-.265.794-.45 1.06-.45.212 0 .582.106 1.06.397.318-1.98.476-3.81.397-5.19-.053-.873-.37-1.27-1.01-1.27-.476 0-.476 0-3.33 1.83-2.25.82-2.25.82-2.22 1.27 0 .053.053.212.132.503a1.78 1.78 0 0 1 .079.609c.661-.212 1.43-.503 1.43-.503.265-.106.952-.503 2.01-1.06.291-.212.609-.265.767-.265.661 0 1.53.661 1.56 1.27.026.556-.423.873-2.04 1.59-.714.265-1.27.661-1.72 1.06l-.556.503a5.73 5.73 0 0 1-.767.265z" fill="#084"/></svg>