<svg xmlns="http://www.w3.org/2000/svg" width="150" height="200" viewBox="0 0 39.7 52.9"><path d="M37.8 25c-.106.291-1.43.265-1.61.291-1.01.212-2.2 1.24-3.1.9-1.56-.609-2.67-3.39-4.52-5.13-.185-.159-.423-.556-.714-.556l-1.08 4.07.132.238c.318.185 1.06.106 1.61.238.238.265.582.079.714.45.529.661 1.01 1.27 1.01 2.22-.609.503-.265.794-1.22.847-.741.026-1.4.423-2.14.609-.503.397-1.11.714-1.56 1.16l.582.132c1.98.926 2.59 3.68.926 5.32l-1.01 2.41c2.65 3.1 7.7 2.38 7.86 7.96-.503.609-.053 1.64-.9 1.98-1.93-1.08-7.59-7.43-9.08-6.96-2.54.688-2.62 3.25-6.96 2.28-.688-.132-2.06-1.64-1.69-2.59l-.132-.794c.847.847 1.88 1.53 3.28 1.16 1.08-.212 2.62-1.61 3.04-2.7-.952-.9-4.31-2.46-5.45-1.48-.265 1.01-.767 2.09-1.24 3.04-.291 1.83-3.73 6.61-5.71 5.48-1.8-1.08-2.41-6.32-1.61-8.2.079.582 1.16 3.73 1.8 3.65 1.48-.212 3.23-3.81 3.17-5.27-.503-1.08-4.6 2.22-5.71 1.53-.609-1.08.265-1.75-.159-2.83.503-.503.926-1.35 1.72-1.32.794-.556 1.98-1.9 2.59-2.78-1.01.291-1.98.556-3.02.635-.556-.926.027-2.3.503-3.12.952-.82 1.85-.609 2.75-1.75.609-.767 1.51-1.32 1.93-2.28-.529-.556-1.43-.106-1.93-.82-2.2 2.2-3.89 4.66-6.85 5.64-1.61.529-3.62.953-1.48-.979l1.88-1.77c1.72-1.75 3.84-3.33 4.89-6.24-1.85-.238-.582-.079-2.09-.503-1.24-.847-2.22-3.23-1.32-4.79 1.61-.053 1.24-.318 2.94.318.344.132.82.344 1.14.053 1.38 0 2.06-1.3 2.2-2.62-.688-.238-3.92-2.12-3.6-3.07.265-.265.556-.185.847-.132l.344-.159c2.3.556 4.47-4.15 6.85-.529l.238.529.397 1.4c.688-.132 1.48-.053 2.06-.344.741-.344 4.26-2.65 4.05-3.57-.529-.238-1.06-.847-.635-1.46.688.027 2.46.212 2.94.794.926.238.926 1.53 1.61 2.09-.106.635.291 2.09-.556 2.22-.794.556-3.28.926-4.31 1.27.873.556 1.59 1.3 2.35 1.96.873.714 3.36-2.01 3.78-2.73.37-.688.185-.9.159-1.59.079-.635.9-.344 1.3-.318 1.01.847 3.31 2.35 2.49 4.15-.635.185-5.48 1.93-5.64 2.17 3.89 4.89 9.02 6.46 11.3 10zm-12.3-7.04l-1.38-1.48c-.397-.318-.476-.556-1.32-.37-.741.132-2.88.952-3.52.873-.529-.026-.079-.423.265-.37.9-.767 2.25-.82 3.07-1.8-1.01-1.01-4.66-4.37-5.93-3.07-1.59 1.61-3.39 6.72-4.97 9.31.794-.238 3.41-1.9 4.13-1.38.503.079 1.16.582 1.46.529.423 1.03 1.48 1.27 1.06 2.59-.82.82-2.94 2.65-3.31 3.7.344.185.688.397.926.661.529.185.45 1.08.397 1.56-1.32 1.48-3.18 2.33-4.39 3.94.582-.079 1.14 0 1.61.106.45-.026 1.19.291 1.43.794.714.45.847 1.93.82 2.78.503-1.03 1.03-1.35 1.88-1.53-.37-.397-.45-1.03-.847-1.43-.026-.423.079-.741.476-.9 2.65-.9 5.03-2.2 6.88-4.47.37-.423.106-.635-.212-.979-.661-.714-.476-3.55-.159-4.47-.238-.053-2.54-.476-1.77.344-.45 1.96-1.69 6.91-2.86 8.31-.979 1.08-1.8-.873-1.77-1.77-.582-.291-.212-1.24-.344-1.77 1.22-.9 1.11-2.62 1.69-3.94.741-1.56-.318-2.51.185-4.05.291-.053.688.026.82.344.529.079.767.767 1.27.582 1.01-.979 3.28-2.8 4.68-2.22.318.291-.079-.265-.265-.423zm-6.03 17.1c.794.185 2.51 1.01 2.99 1.67.661-.714 1.14-2.94 1.22-3.94-.82-.847-3.6 1.53-4.21 2.28z" fill="#084"/></svg>