<svg xmlns="http://www.w3.org/2000/svg" width="150" height="200" viewBox="0 0 39.7 52.9"><path d="M31.3 14.4h2.49v5.72H31.3zM5.9 43.3h8.12v2.49H5.9zm-2.96 5.45h33.9V3.95H2.94zm12.6-1.43H4.44v-5.58h11.1zm-4.13-7.04v-27.8h16.9v27.8zm7.75 7.04h-2.17v-5.58h2.17zm3.65 0h-2.17v-5.58h2.17zm12.5 0h-11.1v-5.58h11.1zm0-7.04h-5.58v-9.55h5.58zm0-11h-5.58v-2.17h5.58zm0-3.62h-5.58v-2.17h5.58zm0-3.65h-5.58v-9.55h5.58zm-11.1-16.6h11.1v5.58h-11.1zm-3.65 0h2.17v5.58h-2.17zm-3.62 0h2.17v5.58h-2.17zm-12.6 0h11.1v5.58H4.34zm-.027 7.01h5.58v9.55h-5.58zm0 11h5.58v2.17h-5.58zm0 3.65h5.58v2.17h-5.58zm0 3.62h5.58v9.55h-5.58zm1.53-23.8h8.12v2.49h-8.12zm0 25.7h2.49v5.72h-2.49zm19.9-25.7h8.07v2.49h-8.07zm0 36.3h8.07v2.49h-8.07zm5.56-10.6h2.49v5.72h-2.49zm-25.4-18.3h2.49v5.72h-2.49z" fill="#339"/></svg>