<svg xmlns="http://www.w3.org/2000/svg" width="150" height="200" viewBox="0 0 39.7 52.9"><path d="M8.19 4.25H4.35v3.78h3.84zm-.609 3.18h-2.57V4.86h2.57zm-3.23 28.4v4.5h3.23v3.2h-2.57v-1.85h1.3v.556h-.609v.609h1.22v-1.88h-2.57v3.23h3.84v-4.52h-3.18v-3.23h2.57v1.96h-1.27v-.688h.609v-.609h-1.22v1.9h2.49v-3.18zm1.35-30.3h1.22v1.35h-1.22zm-1.35 3.23v4.52h3.23v3.23h-2.57V14.5h1.3v.661h-.609v.688h1.22v-1.96h-2.57v3.23h3.84v-4.58h-3.18v-3.17h2.57v1.96h-1.27v-.609h.609v-.661h-1.22v1.93h2.49v-3.23zm0 9.02v4.42h3.23v3.28h-2.57v-1.96h1.3v.688h-.609v.661h1.22v-1.96h-2.57v3.23h3.84v-4.5h-3.18v-3.25h2.57v1.96h-1.27v-.661h.609v-.661h-1.22v2.01h2.49v-3.25zm0 13.5h3.23v3.23h-2.57v-1.93h1.3v.609h-.609v.661h1.22v-1.9h-2.57v3.2h3.84v-4.47h-3.18v-3.23h2.57v1.88h-1.27v-.661h.609v-.609h-1.22v1.96h2.49v-3.25h-3.84zm8.36-23.8h-3.17V4.91h1.9v1.32h-.635v-.661h-.609v1.32h1.9v-2.62h-3.23v3.81h4.5v-3.18h3.31v2.57h-2.01v-1.24h.661v.688h.609v-1.35h-1.96v2.51h3.25v-3.81h-4.52zm-4.5 40.6h-3.18v-2.57h1.9v1.35h-.635v-.741h-.609v1.3h1.9v-2.51h-3.23v3.84h4.5v-3.23h3.31v2.57h-2.01v-1.22h.661v.556h.609v-1.3h-1.96v2.62h3.25v-3.84h-4.52zm23.9-29.6h2.51v1.96h-1.3v-.661h.688v-.661h-1.35v2.01h2.62v-3.25h-3.84v4.42h3.18v3.28h-2.51v-1.96h1.22v.688h-.661v.661h1.35v-1.96h-2.57v3.23h3.84v-4.5h-3.18zm0 18h2.51v1.96h-1.3v-.688h.688v-.609h-1.35v1.9h2.62v-3.18h-3.84v4.5h3.18v3.2h-2.51v-1.85h1.22v.556h-.661v.609h1.35v-1.88h-2.57v3.23h3.84v-4.52h-3.18zm0-23.9V9.41h2.51v1.96h-1.3v-.609h.688V10.1h-1.35v1.93h2.62V8.8h-3.84v4.52h3.18v3.23h-2.51v-2.01h1.22v.661h-.661v.688h1.35v-1.96h-2.57v3.23h3.84v-4.58zm-1.35-5.11h-3.28V4.9h1.93v1.32h-.609v-.661h-.661v1.32h1.96v-2.62h-3.23v3.81h4.5v-3.18h3.18v2.57h-1.93v-1.24h.714v.688h.609v-1.35h-1.96v2.51h3.31v-3.81h-4.52zm1.9 38.6h1.35v1.27h-1.35zm-1.22 2.62h3.84v-3.84h-3.84zm.661-3.23h2.51v2.57h-2.51zm-5.79 2.57h-3.28v-2.57h1.93v1.35h-.609v-.741h-.661v1.3h1.96v-2.51h-3.25v3.84h4.52v-3.23h3.18v2.57h-1.96v-1.22h.741v.556h.609v-1.3h-1.96v2.62h3.31v-3.84h-4.52zm5.79-20.6h2.51v1.88h-1.3v-.661H34v-.609h-1.35V30h2.62v-3.25h-3.84v4.52h3.18v3.23H32.1v-1.93h1.22v.609h-.661v.661h1.35v-1.9h-2.57v3.2h3.84v-4.47h-3.18zm-14.9 20.6h-3.2v-2.57h1.9v1.35h-.609v-.741h-.609v1.3h1.88v-2.51h-3.23v3.84h4.52v-3.23h3.28v2.57h-2.01v-1.22h.688v.556h.609v-1.3h-1.96v2.62h3.23v-3.84h-4.5zm4.44-40.6h-3.18V4.86h1.88v1.32h-.609v-.661h-.609v1.32h1.88v-2.62h-3.23v3.81h4.52v-3.18h3.28v2.57h-2.01v-1.24h.688v.688h.609v-1.35h-1.96v2.51h3.23v-3.81h-4.5z" fill="#339"/></svg>