<svg xmlns="http://www.w3.org/2000/svg" width="150" height="200" viewBox="0 0 39.7 52.9"><defs><radialGradient id="A" cx="-100" cy="357" r="8.84" gradientTransform="matrix(1.78,0,0,1.78,75.2,-194)" gradientUnits="userSpaceOnUse"><stop stop-color="#eee" offset="0"/><stop stop-color="#b32" offset="1"/></radialGradient></defs><g transform="matrix(.265 0 0 .265 47.3 -90.4)"><path d="M-92.2 420l-11.8-63.9h-.7l-13.2 63.7zm-12.2-51.5l7.2 49.9-7.2-1.2zm-13.5 95.2l11.8 63.9h.7l13.2-63.7zm12.1 51.5l-7.2-49.9 7.2 1.2zm-66.2-72.4l46.4 12.5v-26.2l-46.4 12.8zm8.7-.5l36-8.4-.3 8.4zm128-.7l-46.3-12.5v26.2l46.4-12.8v-.9zm-8.6.4l-36 8.4.3-8.4z"/><g fill="none" stroke-miterlimit="10"><path d="m-104 418c5.6 0 10.6 1.8 15 5.5 5.7 4.7 8.6 10.7 8.6 18.1 0 5.5-1.8 10.4-5.5 14.9-4.7 5.7-10.7 8.6-18.1 8.6-5.4 0-10.3-1.8-14.7-5.4-5.8-4.7-8.8-10.7-8.8-18.2 0-8.2 3.5-14.7 10.5-19.5 4-2.6 8.3-4 13-4z" stroke="#000" stroke-width="6"/><path d="m-157 431 6.8-59.8 33-7m64 89-6.8 59.8-33 7m39.8-89-6.8-59.8-33-7m-64 89 6.8 59.8 33 7" stroke="#b32" stroke-linecap="round" stroke-linejoin="round" stroke-width="4"/></g><circle cx="-104" cy="442" r="17" fill="#ded" paint-order="normal"/><circle cx="-104" cy="442" r="15" fill="url(#A)" paint-order="normal"/></g></svg>