<svg xmlns="http://www.w3.org/2000/svg" width="150" height="200" viewBox="0 0 39.7 52.9"><path d="M31.7 4.03H8c-3.39 0-5.08 1.24-5.08 3.73v37.4c0 2.49 1.69 3.73 5.08 3.73h23.7c3.39 0 5.08-1.24 5.08-3.73V7.76c0-2.49-1.69-3.73-5.08-3.73zm2.59 41.1c0 1.64-.873 2.46-2.59 2.46H8c-1.72 0-2.59-.82-2.59-2.46V7.73c0-1.64.873-2.46 2.59-2.46h23.7c1.72 0 2.59.82 2.59 2.46zm-5.61-38.3h-17.6c-2.51 0-3.78 1.08-3.78 3.25v32.6c0 2.17 1.27 3.25 3.78 3.25h17.6c2.51 0 3.78-1.08 3.78-3.25v-32.6c0-2.17-1.27-3.25-3.78-3.25zm-19.6 3.25c0-1.43.635-2.14 1.93-2.14h1.16v1.27c0 1.43-.635 2.14-1.93 2.14H9.08zm3.1 34.8h-1.16c-1.27 0-1.93-.714-1.93-2.14v-1.27h1.16c1.27 0 1.93.714 1.93 2.14zm18.4-2.14c0 1.43-.635 2.14-1.93 2.14h-1.16v-1.27c0-1.43.635-2.14 1.93-2.14h1.16zm0-2.41h-1.16c-2.01 0-3.02 1.08-3.02 3.25v1.27H13.3v-1.27c0-2.17-1.01-3.25-3.02-3.25H9.12v-27.8h1.16c2.01 0 3.02-1.08 3.02-3.25V8.01h13.1v1.27c0 2.17 1.01 3.25 3.02 3.25h1.16zm0-28.9h-1.16c-1.27 0-1.93-.714-1.93-2.14V8.02h1.16c1.27 0 1.93.714 1.93 2.14z" fill="#339"/></svg>