<svg xmlns="http://www.w3.org/2000/svg" width="150" height="200" viewBox="0 0 39.7 52.9"><path d="M24.748 15.965c-1.378.08-2.703.663-3.975 1.034.477-.477 1.987-1.272 2.729-1.431.345-.212.742-.424 1.034-.715-2.332 0-6.492.132-8.533.98-1.086.45-2.014 1.192-3.233 1.457-1.722.424-2.941-.662-3.79-1.722-.318-.424-.848-.742-.768-1.272.609 0 1.219.08 1.828 0 1.722-.106 3.498-.503 5.247-.742 3.313-.477 6.678-.689 9.964-1.272.875-.159 2.571-.662 3.392-.45.556.132 2.942 1.298 3.445 1.59 2.2 3.578-5.565 1.775-7.341 2.544z" fill="#b32"/><path d="M25.623 35.045c-1.829.424-7.076 2.12-8.082 3.339-.133.45-.186 1.06.291 1.378.901-.212 5.433-1.298 5.777-1.696.663-.212.927-.583 1.723-.318.768.238 1.643.53 2.253.98 2.438 1.749-.398 3.631-1.378 5.247.053.556 1.06.689.556 1.484-1.272.583-3.922-.875-6.811.795-.583.344-1.086.742-1.855.504-1.723-.53-2.173-4.876-2.438-6.227-.186-.954.132-2.067 1.086-2.73 1.723-1.14 4.267-1.458 6.015-2.65-3.047.291-5.644 1.378-8.162 2.862-.556.981-.636 2.094-1.404 2.995 0 .291-.185.53-.318.821-.742 1.749-2.12 3.79-4.452 4.399-.185.451-.954.451-1.245.132l1.007-1.828.662.159c1.882-1.829 3.206-5.247 3.551-7.606-.212-.504-1.404-.504-1.166-1.298a5.53 5.53 0 0 1 1.351-.742l.185-.186c.026-1.113.874-2.623-.398-3.498-.185-.583-.795-.901-.477-1.564.769-.079 1.405.345 2.12.504.927.609 1.775.238 2.517-.345l4.24-3.418c-.291-.185-.61-.45-.344-.768.662.133 1.457-.026 2.067.265.795-.159 2.279.795 2.57 1.352.186.451-.133.663-.053 1.113-.716.292-1.511.371-2.226.663l-7.181 2.65c.212.769-.133 2.12-.451 2.862 1.219-.08 9.513-1.563 10.203-1.934.345-.186.609-.53 1.086-.557.742-.053 2.12.742 2.465 1.245.609.265.344.928.344 1.352-.795.371-2.597.026-3.63.265zm-7.076 6.466c.106.768-.026 1.828.504 2.517.742.053 3.127-.185 3.763-.424 1.484-.503 2.226-2.862 2.518-4.001-1.564-.026-5.114 1.431-6.784 1.908z" fill="#084"/><path d="M31.665 4.04H7.974c-3.392 0-5.088 1.245-5.088 3.737v37.365c0 2.491 1.696 3.737 5.088 3.737h23.691c3.392 0 5.088-1.246 5.088-3.737V7.777c0-2.465-1.696-3.71-5.088-3.71zm3.392 41.075c0 1.643-1.669 2.464-3.392 2.464H7.974c-1.723 0-3.392-.822-3.392-2.465V7.75c0-1.643 1.669-2.465 3.392-2.465h23.691c1.723 0 3.392.822 3.392 2.465z" fill="#339"/></svg>