<svg xmlns="http://www.w3.org/2000/svg" width="150" height="200" viewBox="0 0 39.7 52.9"><path d="M31.506 20.735c-1.113.424-2.12-.08-3.207-.186l-3.524-.371c-2.57-.265-7.473.477-9.911 1.246-2.279.768-3.604 2.04-6.095.556-.874-.53-.954-.45-1.192-1.352-.053-.239-.265-.504.106-.689.715-.08 1.325.318 2.067.212 1.696-.212 3.233-.928 5.009-.981 1.457-.53 9.142-1.139 11.077-1.166.742-.345 1.616-.106 2.305-.398.954-.053 3.631 1.033 3.763 1.828.053.451-.318.848-.398 1.299zm-6.546-9.381c.159.212-2.279.689-2.676.795-1.961.477-8.056 3.365-9.063 3.313l-.026-.292c.928-.477 3.392-1.802 3.816-2.57-.901-1.087-1.723-1.113-2.279-2.57.954-.344 1.537.186 2.411.133.742-.08.742-.265 1.564-.186.901.106 2.624-1.59 3.896-1.325 1.245.265 1.564.53 2.756 1.166.186.663.954.901.053 1.325z" fill="#b32"/><path d="M25.623 35.045c-1.829.424-7.076 2.12-8.082 3.339-.133.45-.186 1.06.291 1.378.901-.212 5.433-1.298 5.777-1.696.663-.212.927-.583 1.723-.318.768.238 1.643.53 2.253.98 2.438 1.749-.398 3.631-1.378 5.247.053.556 1.06.689.556 1.484-1.272.583-3.922-.875-6.811.795-.583.344-1.086.742-1.855.504-1.723-.53-2.173-4.876-2.438-6.227-.186-.954.132-2.067 1.086-2.73 1.723-1.14 4.267-1.458 6.015-2.65-3.047.291-5.644 1.378-8.162 2.862-.556.981-.636 2.094-1.404 2.995 0 .291-.185.53-.318.821-.742 1.749-2.12 3.79-4.452 4.399-.185.451-.954.451-1.245.132l1.007-1.828.662.159c1.882-1.829 3.206-5.247 3.551-7.606-.212-.504-1.404-.504-1.166-1.298a5.53 5.53 0 0 1 1.351-.742l.185-.186c.026-1.113.874-2.623-.398-3.498-.185-.583-.795-.901-.477-1.564.769-.079 1.405.345 2.12.504.927.609 1.775.238 2.517-.345l4.24-3.418c-.291-.185-.61-.45-.344-.768.662.133 1.457-.026 2.067.265.795-.159 2.279.795 2.57 1.352.186.451-.133.663-.053 1.113-.716.292-1.511.371-2.226.663l-7.181 2.65c.212.769-.133 2.12-.451 2.862 1.219-.08 9.513-1.563 10.203-1.934.345-.186.609-.53 1.086-.557.742-.053 2.12.742 2.465 1.245.609.265.344.928.344 1.352-.795.371-2.597.026-3.63.265zm-7.076 6.466c.106.768-.026 1.828.504 2.517.742.053 3.127-.185 3.763-.424 1.484-.503 2.226-2.862 2.518-4.001-1.564-.026-5.114 1.431-6.784 1.908z" fill="#084"/><path d="M31.665 4.04H7.974c-3.392 0-5.088 1.245-5.088 3.737v37.365c0 2.491 1.696 3.737 5.088 3.737h23.691c3.392 0 5.088-1.246 5.088-3.737V7.777c0-2.465-1.696-3.71-5.088-3.71zm3.392 41.075c0 1.643-1.669 2.464-3.392 2.464H7.974c-1.723 0-3.392-.822-3.392-2.465V7.75c0-1.643 1.669-2.465 3.392-2.465h23.691c1.723 0 3.392.822 3.392 2.465z" fill="#339"/></svg>