<svg xmlns="http://www.w3.org/2000/svg" width="150" height="200" viewBox="0 0 39.7 52.9"><path d="M30.154 22.59c-.901.027-3.498-.768-4.743-.848-3.471-.265-8.506.557-11.527 2.041-.795.397-1.882.822-2.862.53-.795-.239-2.412-1.193-2.703-1.855-.345-.689-.026-.901.795-.663.424.106.477.159.928.106 1.007-.132 2.014-.424 3.047-.689 3.313-.769 6.731-1.166 10.15-1.537.928-.133 1.855-.212 2.73-.371 1.245-.212 1.723-.451 3.021-.053 1.352.424 2.994 1.352 2.703 2.703-.344.398-.954.663-1.537.636zM25.172 9.658c-.159.159-3.021 1.352-3.392 1.458-.874.265-1.829.344-2.623.768-1.06.583-2.544 1.298-3.286 2.093.212.768 5.3-.424 5.883-.742 1.219.265 2.676.61 3.18 1.617.398.769.026 1.193-.954 1.272-3.233.292-7.553 3.26-10.626 4.426l-.583-.026c1.458-1.352 3.471-2.173 5.141-3.365l-.185-.08a9.79 9.79 0 0 1-2.146-.742c-.265-.318-.583-.609-.663-.98-.159-.583-.053-1.325.424-1.775 1.219-1.14 2.624-2.094 3.79-3.312-1.246-.795-2.783-1.537-3.392-2.809.344 0 .742-.027 1.06.106.477-.08 1.007 0 1.511-.053.477-.027.954-.185 1.378-.344 1.034-.371 1.034-.53 2.253-.557 1.961-.053 2.253.027 3.524 1.272.133.53.159 1.352-.291 1.775z" fill="#b32"/><path d="M25.623 35.045c-1.829.424-7.076 2.12-8.082 3.339-.133.45-.186 1.06.291 1.378.901-.212 5.433-1.298 5.777-1.696.663-.212.927-.583 1.723-.318.768.238 1.643.53 2.253.98 2.438 1.749-.398 3.631-1.378 5.247.053.556 1.06.689.556 1.484-1.272.583-3.922-.875-6.811.795-.583.344-1.086.742-1.855.504-1.723-.53-2.173-4.876-2.438-6.227-.186-.954.132-2.067 1.086-2.73 1.723-1.14 4.267-1.458 6.015-2.65-3.047.291-5.644 1.378-8.162 2.862-.556.981-.636 2.094-1.404 2.995 0 .291-.185.53-.318.821-.742 1.749-2.12 3.79-4.452 4.399-.185.451-.954.451-1.245.132l1.007-1.828.662.159c1.882-1.829 3.206-5.247 3.551-7.606-.212-.504-1.404-.504-1.166-1.298a5.53 5.53 0 0 1 1.351-.742l.185-.186c.026-1.113.874-2.623-.398-3.498-.185-.583-.795-.901-.477-1.564.769-.079 1.405.345 2.12.504.927.609 1.775.238 2.517-.345l4.24-3.418c-.291-.185-.61-.45-.344-.768.662.133 1.457-.026 2.067.265.795-.159 2.279.795 2.57 1.352.186.451-.133.663-.053 1.113-.716.292-1.511.371-2.226.663l-7.181 2.65c.212.769-.133 2.12-.451 2.862 1.219-.08 9.513-1.563 10.203-1.934.345-.186.609-.53 1.086-.557.742-.053 2.12.742 2.465 1.245.609.265.344.928.344 1.352-.795.371-2.597.026-3.63.265zm-7.076 6.466c.106.768-.026 1.828.504 2.517.742.053 3.127-.185 3.763-.424 1.484-.503 2.226-2.862 2.518-4.001-1.564-.026-5.114 1.431-6.784 1.908z" fill="#084"/><path d="M31.665 4.04H7.974c-3.392 0-5.088 1.245-5.088 3.737v37.365c0 2.491 1.696 3.737 5.088 3.737h23.691c3.392 0 5.088-1.246 5.088-3.737V7.777c0-2.465-1.696-3.71-5.088-3.71zm3.392 41.075c0 1.643-1.669 2.464-3.392 2.464H7.974c-1.723 0-3.392-.822-3.392-2.465V7.75c0-1.643 1.669-2.465 3.392-2.465h23.691c1.723 0 3.392.822 3.392 2.465z" fill="#339"/></svg>