<svg xmlns="http://www.w3.org/2000/svg" width="150" height="200" viewBox="0 0 39.7 52.9"><path d="M29.571 15.7c-.291.398-.397.928-.583 1.325-.477 1.272-1.855 4.108-3.392 4.664-.265.079-.504.159-.716.291-.662-.424-1.723-1.696-2.226-2.332-.874-.026-1.696-.132-2.544.106-1.643.477-3.366.742-5.062 1.087-.477.424-1.192.556-1.855.477-1.166-.769-2.411-1.537-2.703-2.809-.265-1.245-.212-3.869-.901-4.876-.424-.583-1.166-1.06-1.113-1.749.424-.689 3.127 1.007 3.525 1.352l.45-.053c.053-.318.398-.503.556-.795.45-.742 1.034-.901 1.882-1.272 1.537-.61 9.964-1.219 12.004-1.193 1.034 0 2.915.822 3.392 1.564 1.961 1.219-.61 2.782-.716 4.213zm-2.385-3.551c-.848-.239-1.669-.503-2.571-.53l-.133-.027c-.583.027-1.166.106-1.723.133-.132.053-.397.106-.424.238.503.981.583 1.007.212 2.014.344 0 .715.027 1.007.186 1.484.026 1.06.45 1.537 1.245.026.901-1.086.768-1.802 1.007-.212.265-1.378.609-1.696.265-.398-.053-1.06.556-1.643-.027.159-.106 1.351-.768 1.034-.901-.715-.927-1.272-2.093-.795-3.18l-.265-.159c-.291.053-.954-.106-1.166.079-.318.053-.556.265-.901.345.106.662.291 2.12 0 2.703-1.537 1.219-.318 1.299-3.153 2.888-.398 0-.663-.185-.875-.424-.477-1.775 1.67-1.192 1.776-3.948-.133-.265-.133-.53-.318-.795l-.318-.053c-.45.053-.848.238-1.245.318-1.802 1.166-.848 3.895-.477 5.432.901.424 2.676-.265 3.631-.371.424-.291 1.034-.132 1.484-.424.318.159.874-.079 1.272-.026.159-.318.583 0 .848-.318l.133.132c.874-.026 1.404-.212 2.226.186.583.291 2.624.742 2.862 0 .424-.292 2.146-5.273 1.961-5.645-.079-.159-.265-.265-.477-.344z" fill="#b32"/><path d="M25.623 35.045c-1.829.424-7.076 2.12-8.082 3.339-.133.45-.186 1.06.291 1.378.901-.212 5.433-1.298 5.777-1.696.663-.212.927-.583 1.723-.318.768.238 1.643.53 2.253.98 2.438 1.749-.398 3.631-1.378 5.247.053.556 1.06.689.556 1.484-1.272.583-3.922-.875-6.811.795-.583.344-1.086.742-1.855.504-1.723-.53-2.173-4.876-2.438-6.227-.186-.954.132-2.067 1.086-2.73 1.723-1.14 4.267-1.458 6.015-2.65-3.047.291-5.644 1.378-8.162 2.862-.556.981-.636 2.094-1.404 2.995 0 .291-.185.53-.318.821-.742 1.749-2.12 3.79-4.452 4.399-.185.451-.954.451-1.245.132l1.007-1.828.662.159c1.882-1.829 3.206-5.247 3.551-7.606-.212-.504-1.404-.504-1.166-1.298a5.53 5.53 0 0 1 1.351-.742l.185-.186c.026-1.113.874-2.623-.398-3.498-.185-.583-.795-.901-.477-1.564.769-.079 1.405.345 2.12.504.927.609 1.775.238 2.517-.345l4.24-3.418c-.291-.185-.61-.45-.344-.768.662.133 1.457-.026 2.067.265.795-.159 2.279.795 2.57 1.352.186.451-.133.663-.053 1.113-.716.292-1.511.371-2.226.663l-7.181 2.65c.212.769-.133 2.12-.451 2.862 1.219-.08 9.513-1.563 10.203-1.934.345-.186.609-.53 1.086-.557.742-.053 2.12.742 2.465 1.245.609.265.344.928.344 1.352-.795.371-2.597.026-3.63.265zm-7.076 6.466c.106.768-.026 1.828.504 2.517.742.053 3.127-.185 3.763-.424 1.484-.503 2.226-2.862 2.518-4.001-1.564-.026-5.114 1.431-6.784 1.908z" fill="#084"/><path d="M31.665 4.04H7.974c-3.392 0-5.088 1.245-5.088 3.737v37.365c0 2.491 1.696 3.737 5.088 3.737h23.691c3.392 0 5.088-1.246 5.088-3.737V7.777c0-2.465-1.696-3.71-5.088-3.71zm3.392 41.075c0 1.643-1.669 2.464-3.392 2.464H7.974c-1.723 0-3.392-.822-3.392-2.465V7.75c0-1.643 1.669-2.465 3.392-2.465h23.691c1.723 0 3.392.822 3.392 2.465z" fill="#339"/></svg>