<svg xmlns="http://www.w3.org/2000/svg" width="150" height="200" viewBox="0 0 39.7 52.9"><path d="M31.1 21.4c-1.01.026-3.89-.847-5.27-.926-3.84-.291-9.45.609-12.8 2.28-.9.45-2.09.9-3.17.582-.9-.265-2.67-1.3-2.99-2.06-.397-.767-.027-.979.9-.741.476.106.529.185 1.03.106 1.11-.159 2.25-.476 3.39-.767 3.68-.847 7.49-1.27 11.2-1.72 1.03-.132 2.06-.238 3.02-.397 1.4-.238 1.93-.503 3.36-.053 1.51.476 3.31 1.51 2.99 2.99-.397.45-1.06.741-1.72.714zM25.6 7.1c-.185.185-3.36 1.51-3.78 1.64-.952.291-2.04.37-2.91.847-1.16.635-2.8 1.43-3.62 2.33.238.847 5.87-.476 6.51-.82 1.35.291 2.96.661 3.52 1.8.423.847.026 1.3-1.06 1.4-3.6.318-8.36 3.6-11.8 4.92l-.635-.026c1.61-1.51 3.84-2.41 5.69-3.73l-.212-.079c-.635-.106-1.83-.529-2.38-.82-.291-.344-.635-.661-.741-1.08-.185-.635-.079-1.48.476-1.98 1.35-1.24 2.91-2.33 4.21-3.68-1.4-.873-3.1-1.72-3.78-3.12.397 0 .82-.027 1.16.106.529-.079 1.11 0 1.67-.053.529-.027 1.06-.212 1.53-.37 1.14-.397 1.14-.582 2.49-.609 2.17-.053 2.49.026 3.92 1.4.212.529.265 1.46-.238 1.93zm5.95 35.8c-1.32 2.01-1.53 4.31-3.49 6.09-.476.45-1.51 1.19-2.2 1.22-.185-.132-.344-.291-.635-.344-.079-.503-.582-.82-.847-1.24-.476-.238-1.88-1.69-2.33-2.09 1.61.741 2.43.529 4.05.794.952-.688 2.8-4.76 2.46-5.77-.212-.635-4.84-.238-5.56.053.688.952 2.78 1.01 2.54 3.04.106.344-.079.661-.291.926-.952.238-1.22-.265-1.77-.714-2.14-.026-7.17 1.98-7.7 1.98-.609-.741-2.35-.952-1.27-2.12.952.185 2.2-.37 3.02-.794.291-.344.423-.847.212-1.24l-4.84 1.53c.397 1.59.847 2.88.397 4.55-.688-.318-1.01-.767-1.4-1.3-.952-.609-.423-1.56-.794-2.38-.423.053-.794.238-1.16.265-.714.265-1.98-1.06-1.43-1.4.635-.159 1.43-.265 1.98-.556 0-.45-.079-1.08.635-1.22.609-.397 4-1.8 4.05-2.09-1.53-.609-2.43-3.62-2.99-4.89.079-.318-.185-.9.318-1.06.212-.212.529-.265.82-.212l.185.265c.82-.37 1.56-.873 2.43-1.14-.503-.529-.529-1.27-.847-1.56-.476.185-3.07 1.4-3.36 1.27-.397-.159-.529-.503-.926-.688.132-.212-.794-.873-.423-1.46.794-.238.688-.265 1.4.079.741 0 2.35-.265 3.02-.529.714-.291-1.46-3.47-1.35-4.02.794.079 1.64.238 2.33.635.609.344 2.06 1.77 1.88 2.41.185.37 2.57-.106 2.96-.212.423-.741.582-1.56.847-2.33.238-.635-.688-1.4-1.27-1.69.026-.661 2.67-.185 3.12.026 1.83.847 1.32 2.04.423 3.2.423.132 2.86-.741 3.68-.556.291.476 1.85 1.08 1.64 1.77-.714 0-6.16.661-6.46.873-.582.079-1.35 1.4-1.93 1.72 1.22-.106 2.7-.397 3.92-.318 1.11.053 3.49 1.24 3.12 2.3-.318.979-2.59 4.44-3.7 4.87-.291.238-.9.079-1.24-.026l-.079-.318c-.503.079-.609.397-1.35.397-.291 0-.609.026-.847.185-.185.9-.106.423-.185 1.46.397-.026.794-.106 1.16-.212 1.88-.37 4.92-.82 6.85-.609.688-.37 2.2.053 2.75.503.344.291 1.03.873 1.11 1.27.106.609-.318.873-.635 1.4zm-14.3-2.75c-.952.026-5.13 1.88-5.77 2.46.476.582 5.27-1.22 6.19-1.51.212-.344.106-.767.106-1.14zm-.053-6.19c-.741.132-2.67.344-3.02.873.027.45-.132.9.106 1.32.503.873.714 1.53.688 2.51.926-.423 1.83-1.08 2.49-1.69-.688-.026-2.7-.318-3.02-.847.9-.476 2.67-.767 3.28-1.22.45-.37-.37-.582-.529-.952zm2.04-4.37c-.397.026-1.35.37-1.72.529-.079.661-1.03 2.12-.926 2.62 1.56-.079 3.31-2.01 3.7-3.15zm2.43 12.4c-.476 0-.926.079-1.4.132-.026.476-.026.926-.185 1.43.794-.026 1.67-.026 2.43-.212-.318-.397-.582-.9-.847-1.35zm-1.43-8.39c.476.185.238.529.741.688.238.079.503.106.741.238.291.026.503.318.741.397.503.979-1.4 1.22-1.93 1.72l-.106.767c.926-.026.609-.106 1.4.185.476.265.238.185.609.291 0-.185 0-1.35.079-1.51.132.423.079.291.529.37.238-.503 1.88-3.39 1.22-3.6-1.51-.529-2.59.344-4.02.45z" fill="#b32"/></svg>