<svg xmlns="http://www.w3.org/2000/svg" width="150" height="200" viewBox="0 0 39.7 52.9"><path d="M32.594 22.19c-1.934 1.537-7.42 1.246-9.911 1.166-.186-.185-.477.027-.61-.212-2.994-.397-4.452-2.73-3.471-5.035-.079-1.087.928-1.934 1.352-2.915.344-.291.954-1.643 1.404-2.226 0-.133.345-.822.503-.901.212-.371.689-.768.689-1.192-.689.265-1.431.371-2.173.53-.291.212-.689.318-.954.583-.61.557-1.007 1.246-1.564 1.829-1.06 1.007-1.537 2.888-2.677 3.71-.106.371-.503.583-.795.874-1.007 1.087-1.855 2.147-3.207 2.942l-1.404.822c-.822.079-1.166.636-2.067.397-.133-.026-.239-.053-.398-.026-1.06-.292-.715-1.298-.821-1.987-.345-.504-.636-1.06-.636-1.59.583-.053.795.212 1.113.53.106.397.53.715 1.033.768.212-.106.477-.265.61-.477.742-.556 1.564-1.113 1.988-1.855.821-.132 2.676-3.312 3.021-4.054-1.007.318-3.26.874-4.293.742-1.007-.106-1.352-.636-2.252-.901l-.318-.212c-.398-.239-.636-.477-.636-.928.318-.609 2.544-.397 3.127-1.113 1.14-.291 5.804-1.696 6.519-2.12 1.166-.239.504-2.226.079-2.756-.636-.848-.742-1.802-1.219-2.703.106-.106.398-.345.583-.106.716.185 1.405.53 2.146.583.504.477 4.24 1.431 4.24 2.756.742.318 1.829.053 2.438.689.716.344 1.511.583 2.332.795.398.583 1.325 1.882.345 2.517-.133.238-.291.53-.636.556-.318.557-1.06.875-1.245 1.484-.344.318-2.915 4.32-2.995 4.638l-.238.371c-.239 2.862-1.034 1.378 1.669 2.65l1.219.026c.795.212 1.511-.053 2.2 0 .503-.185 1.034-.265 1.537-.397 1.961-.557-.583-4.399-1.007-5.3l.61.027c1.325 1.192 2.093 2.677 3.683 3.71.504.318.822.822 1.404 1.113.398.848 1.617 1.299.424 2.173-.291-.106-.503 0-.742.026z" fill="#339"/><path d="M30.818 43.125c-1.325 2.014-1.537 4.319-3.498 6.095-.477.451-1.511 1.192-2.199 1.219-.186-.132-.344-.292-.636-.344-.079-.504-.583-.822-.848-1.246-.477-.238-1.881-1.696-2.332-2.093 1.616.742 2.438.53 4.054.795.954-.689 2.809-4.77 2.465-5.777-.212-.636-4.849-.239-5.565.053.689.954 2.783 1.007 2.544 3.048.106.344-.079.662-.291.928-.954.238-1.219-.265-1.776-.716-2.146-.026-7.181 1.988-7.712 1.988-.609-.742-2.358-.954-1.272-2.12.954.186 2.2-.371 3.021-.795.291-.344.424-.848.212-1.245l-4.85 1.537c.398 1.59.848 2.888.398 4.558-.689-.318-1.007-.768-1.405-1.298-.954-.609-.424-1.564-.795-2.385-.424.053-.795.238-1.166.265-.715.265-1.987-1.06-1.431-1.405.636-.159 1.431-.265 1.988-.556 0-.451-.08-1.087.636-1.219.609-.397 4.001-1.802 4.054-2.093-1.537-.609-2.438-3.63-2.995-4.903.08-.318-.185-.901.318-1.06.212-.212.53-.265.822-.212l.185.265c.822-.371 1.564-.874 2.438-1.139-.503-.53-.53-1.272-.848-1.564-.477.186-3.074 1.405-3.366 1.272-.398-.159-.53-.503-.927-.689.133-.212-.795-.874-.424-1.457.795-.238.689-.265 1.404.08.742 0 2.359-.265 3.021-.53.716-.292-1.457-3.472-1.351-4.028.795.08 1.643.239 2.332.636.61.345 2.067 1.775 1.881 2.412.186.371 2.571-.106 2.968-.212.424-.742.583-1.563.848-2.332.239-.636-.689-1.405-1.272-1.696.026-.662 2.676-.185 3.127.026 1.829.848 1.325 2.041.424 3.207.424.132 2.862-.742 3.684-.557.291.477 1.855 1.087 1.643 1.775-.716 0-6.175.663-6.466.875-.583.079-1.351 1.404-1.934 1.722 1.219-.106 2.703-.397 3.922-.318 1.113.053 3.498 1.245 3.127 2.305-.318.981-2.597 4.452-3.71 4.876-.291.238-.901.079-1.246-.027l-.079-.318c-.503.079-.609.398-1.351.398-.291 0-.609.026-.848.185-.186.901-.106.424-.186 1.458a5.66 5.66 0 0 0 1.166-.212c1.881-.371 4.929-.822 6.863-.609.689-.371 2.2.053 2.756.504.345.291 1.034.874 1.113 1.272.106.609-.318.875-.636 1.405zm-14.31-2.756c-.954.026-5.141 1.881-5.777 2.464.477.583 5.273-1.219 6.201-1.51.212-.345.106-.768.106-1.139zm-.053-6.201c-.742.132-2.676.344-3.021.874.026.45-.133.901.106 1.325.504.874.715 1.537.689 2.517.928-.424 1.829-1.087 2.491-1.696-.689-.026-2.703-.318-3.021-.848.901-.477 2.676-.768 3.286-1.219.451-.371-.371-.583-.53-.954zm2.04-4.373c-.397.026-1.351.371-1.723.53-.079.662-1.033 2.12-.927 2.623 1.564-.08 3.313-2.014 3.71-3.153zm2.438 12.402c-.477 0-.927.08-1.404.133-.026.477-.026.927-.186 1.431.795-.026 1.669-.026 2.438-.212-.318-.398-.583-.901-.848-1.352zm-1.431-8.4c.477.185.239.53.742.689.239.079.504.106.742.238.291.027.504.318.742.398.503.98-1.405 1.219-1.934 1.722l-.106.768c.927-.026.609-.106 1.404.185.477.265.239.186.609.292 0-.185 0-1.352.079-1.51.133.424.079.291.53.371.239-.504 1.881-3.392 1.219-3.604-1.511-.53-2.597.345-4.028.451z" fill="#b32"/></svg>