<svg xmlns="http://www.w3.org/2000/svg" width="150" height="200" viewBox="0 0 39.7 52.9"><g transform="matrix(.265 0 0 .265 47 -90.8)"><path d="M-104 530c-11.2-.1-21.7-2.9-31.4-8.7-7.8-4.7-14.3-10.8-19.3-18.3-5-7.4-8.2-15.6-9.6-24.5-.6-3.6-.9-7.2-.8-10.8.1-5.9 1-11.6 2.8-17.2 2.2-7 5.6-13.4 10-19.2 5.1-6.7 11.3-12 18.7-16 6.7-3.7 13.8-6 21.4-7.1 5.4-.7 10.8-.8 16.2.1.5.1.5.2.5.6l-.8 5.9c0 .4-.2.5-.7.5-5.2-.3-10.4-.5-15.5.2-4.6.6-8.9 2.1-13.2 3.9-6.7 2.9-12.5 7-17.5 12.3-6.3 6.7-10.6 14.5-12.9 23.4-1.3 5-2 10.1-1.8 15.2.3 7.6 2 14.8 5.3 21.7 2.5 5.2 5.8 9.9 9.7 14 4.9 5.2 10.7 9.2 17.3 12.1 5.1 2.2 10.4 3.6 16 4.2 9.8 1 19.1-.6 28-4.6 6.3-2.8 11.8-6.8 16.6-11.9 7.5-7.9 12.2-17.2 14-27.8 1-5.8 1.1-11.7.2-17.6-1.1-7.2-3.6-13.9-7.4-20.1-.6-1-.6-1.1.4-1.7l4.3-3c.5-.3.7-.3 1.1.2 4.7 7.1 7.6 14.9 8.9 23.2.5 2.8.7 5.7.7 8.5.2 9.2-1.6 18-5.3 26.4-2.5 5.6-5.9 10.7-10 15.3-8.9 10-19.8 16.4-32.9 19.3-4.3 1.1-8.7 1.5-13 1.5z" fill="#339"/><path d="M-135 460c2.1 1.3 4.2 2 6.5 2.4 3.2.5 6.3-.2 9.4-.8l8.8-1.5c4.6-.4 8.9.3 12.6 3.2 3 2.4 4.2 5.6 3.6 9.5-.2 1.2-.7 1.7-1.5 1.8s-1.8-.5-2.2-1.4c-.4-.8-.5-1.7-.6-2.5-.3-3-2-4.9-4.8-5.9-2.5-.9-5.1-1.1-7.9-.4 1.8 1.1 3.4 2 5.1 3 1.5.9 2.7 2 3.2 3.7.3 1 .2 2-.6 2.8s-1.8.9-2.8.6c-2-.5-3.5-1.8-5-3.1-1.7-1.5-3.3-3.2-4.6-5.2-.3-.5-.7-.7-1.3-.5-1.3.4-2.7.7-4 1-.5.1-.5.3-.3.7.8 1.6 1.9 3.1 3.1 4.5 2.2 2.5 4.8 4.4 7.4 6.3.9.7 1.8 1.4 2.6 2.1.9.8 1 1.4.6 2.3-.6 1.1-1.5 1.6-2.6 1.4-1-.2-1.9-.7-2.7-1.3-3-2-6-4.1-8.6-6.8-2.1-2.2-3.9-4.6-4.7-7.6-.2-.8-.7-1.2-1.5-1.3-2.3-.2-4.6-.6-6.8-1.4-3.7-1.3-6.5-3.8-8.9-6.8-1-1.2-2-2.5-2.6-4-1.6-3.8-1.2-7.5 1.1-10.9 2.6-4.1 5.4-8.1 8.1-12.1.3-.5.7-.9 1.3-1 1-.2 1.4 0 1.5 1 .2 1.7-.2 3.2-1.1 4.7-1.8 2.9-3.8 5.7-5.4 8.7-1.3 2.6-1.9 5.2-.6 8 .3.6.6 1.1 1 1.6.2.3.5.4.9.4 2.9-.2 5.7-.7 8.2-2.5 1.7-1.2 2.8-2.9 3.7-4.8.8-1.8 1.5-3.6 1.8-5.5.5-2.7 2.4-4.5 4.5-6 4.3-3.1 8.9-5.8 13.6-8.2 4.6-2.3 9.5-3.9 14.7-4.1h.6c1.8.2 2 .6 1.2 2.2-.7 1.4-1.9 2.3-3.4 2.7-3.1.8-6.2 1.6-9.1 2.9-4.7 1.9-8.9 4.7-12.9 7.8-1.9 1.4-3.5 3.1-4.6 5.2-.6 1.2-1.1 2.4-1.7 3.6-1.1 2-2.5 3.8-3.7 5.6-.3.5-.4.7.2 1 1.2.5 2.4 1.2 3.5 1.8 1.2.6 1.2 1.6.2 2.5-2.1 1.8-4.4 1.6-6.4.3-2.3-1.1-4-.4-6.1.3zm50.3-18c4.9 0 9 1.5 12.3 5 .7.7.8 1.3.3 2.3-1 1.9-2.6 3.3-4.1 4.7-2.4 2.2-5.4 3.7-8.2 5.4l-2.1 1.5c-.5.3-.6.8-.5 1.4.5 1.8.4 1.8 2.3 1.3 3.2-.9 6.4-2 9.2-3.9 1.8-1.2 3.2-3 4.5-4.7 2.4-3.2 5.2-5.9 8.1-8.5.3-.3.7-.5 1.1-.6s.9-.3 1.2.2.5.9.3 1.5c-.6 1.6-1.7 2.9-2.8 4.1-3.1 3.3-6.1 6.6-8.7 10.3-1.2 1.7-3 2.6-4.9 3.1l-8.4 2.2c-.7.2-.8.5-.8 1.1.1 2.3 0 4.5-.5 6.8-.7 2.7-1.6 5.3-3.8 7.1-2.9 2.4-6.1 2.3-9.4.9a11.5 11.5 0 0 1-4.2-3.1c-.6-.7-.9-1.5-.6-2.5.3-1.1 1.1-1.4 2.1-1 1.4.6 2.6 1.6 3.9 2.3 2.6 1.4 5.3.7 6.6-1.8.6-1.1 1-2.3 1.1-3.5.3-3.3-.3-6.4-1.2-9.5-1.1-3.7-3.8-5.6-7.5-6.4-2.6-.5-5.2-.2-7.9-.1-3.3.2-6.6.4-9.6-1.2-1-.5-1.5-1.2-1.2-2 .1-.3.2-.5.5-.2 1.1 1 2.5.9 3.8.8 4.5-.5 9.1-1.1 13.6-1.3 3.6-.2 6.8.5 9.7 2.8.1.1.3.2.4.3 1.2 1.1 1.2 1.1 2.5.2l5.7-3.9c.6-.4 1.3-.9 1.2-1.7-.1-.9-1-1-1.7-1.1-2.6-.7-5.2-.3-7.8.2-2 .4-3.8 1.3-5.8 1.7-1.3.3-1.6 0-1.5-1.4.1-3.8 2.4-6 5.7-7.4 2.2-1.1 4.7-1.4 7.1-1.4zm-65.1 26.9c0 1.6.2 3.2.4 4.8.1.6.2 1.3-.5 1.7s-1.4.1-1.9-.3c-1.7-1.2-2.7-2.8-3.1-4.8-.7-3.4-.4-6.7 1.1-9.9 1-2.2 2.7-3.2 4.8-2.7.8.2 1.2.7 1.2 1.5 0 .7-.1 1.3-.3 1.9-.1.3-.1.6.3.7 2.7.8 4.5 2.8 6.2 4.9.6.7 1.2 1.4 1.7 2.2.9 1.1 2 1.7 3.5 1.7 1.9 0 3.7-.1 5.6.5 2.7.9 4.1 2.5 4 5.3-.1 1.7.6 2.5 2 3.2 3.9 1.9 7.1 4.7 10.1 7.8.5.5.8.5 1.5.3 2.3-.7 4.4-.3 6.4.9.9.5 1 1.1.5 2-.7 1.1-1.8 1.5-2.9 2-1.9.7-3.9 1-5.8 1.2l-9.4 1.1c-2.9.2-5.5-.8-7.3-3.2-.4-.5-.8-1.2-.5-1.7.2-.4 1-.3 1.5-.2 1.9.2 3.7.5 5.6.7 1.6.2 3.2-.2 4.8-.5.3 0 .5-.2.2-.5-2.4-2.3-4.9-4.4-8-5.7-1.8-.7-3.5-.5-5.2.2l-5.3 2.3c-2.8 1.2-5.4.9-7.6-1.2-1.6-1.5-3.6-2.6-5.4-3.8-.4-.3-.8-.6-1.2-1-.6-.6-.4-1.5.3-1.7 2.2-.8 4.3-1.2 6.5-.1 1.1.6 1.9 1.5 2.8 2.4 1.2 1.2 1.3 1.2 2.6.4 2.5-1.6 5.2-2.5 8.1-3 .7-.1.8-.3.6-.9l-.6-2.1c-.2-.7-.7-1-1.4-.8-1 .2-1.9.4-2.9.7-1.7.4-3.2-.1-4.6-1.3-1.6-1.4-2.8-3.2-3.8-5.1-.8-1.5-2-2.6-3.8-2.9-.5-.1-.7 0-.7.5 0 .7-.1 1.6-.1 2.5zm31.5 34c.9 1.1 2.1 1.8 3.3 2.5l5.5 2.8c.3.1.5.1.7-.1l.7-.7c.5-.4 1.1-.5 1.6-.2.6.3.9.7 1 1.4 0 .5-.1.9-.2 1.4-.4 1.8.1 2.8 1.8 3.5s1.7.7 2-1.1c.2-1.4.3-2.9.9-4.3.3-.8.8-1.3 1.6-1.3.9 0 1.4.5 1.8 1.3.7 1.7.5 3.4.3 5.1 0 .1 0 .2-.1.4 1.3-.3 2.5-.8 3.6-1.4 3.3-1.5 6.2-3.5 8.8-6a6.57 6.57 0 0 1 1.7-1.2c.5-.3 1-.5 1.5-.1.5.5.4 1 .2 1.6-.8 1.8-2.1 3.3-3.6 4.6-4.3 3.8-9.3 6.3-15.1 7.1-2.1.3-4.3.2-6.3-.4-2.3-.7-3.6-2.3-4-4.6-.1-.6-.3-1.1-1-1.2-.6-.1-1.2-.2-1.7-.5-1.8-.9-3.6-.5-5.3.3-1.6.7-3.2 1.2-4.8 1.8-1.3.4-2.5.1-3.3-.9-.7-.9-.6-1.7.3-2.3 1.3-.9 2.7-1.5 4.1-2.3l1.2-.6c.6-.3.6-.7 0-1-.2-.1-.5-.2-.7-.3-1.4-.3-2.7-.7-4.1-1-.5-.1-1-.1-1.5.2l-4.3 2.1c-.8.4-1.5.9-2.1 1.7-.4.5-.8 1-1.5.8s-.8-.7-1-1.3c-.3-1.1-1-1.9-1.7-2.7-1.1-1.1-2.3-2.1-3.3-3.3-.7-.8-.8-1.5-.3-2.1s1.3-.8 2.2-.4c.8.3 1.4 1 2.1 1.6 1.1.9 2.1 1.8 3.1 2.7.3.3.6.3.9 0a22.8 22.8 0 0 1 2.2-2.2c.5-.4.4-.7 0-1.1-1.2-1.3-2.2-2.6-3.2-4-.3-.4-.7-1-.4-1.4.3-.5 1-.2 1.6-.1 1.9.6 3.7 1.4 5.4 2.3 2.2 1 4.6 1.3 7 1.2 3.1 0 6.1-1 9-2.1.8-.3 1.6-.6 2.4-.8 2.2-.6 4.5 1 4.6 3.2.1 2-.3 3.8-1.9 5.2-.8.7-1.7.7-2.6.7-.4 0-.6-.3-.6-.7-.1-.5-.1-1.1-.1-1.6 0-1.3-.5-1.7-1.7-1.4-1.8.4-3.6 1-5.5 1.3-.4-.2-.8-.3-1.2-.1z" fill="#084"/><path d="M-46.5 401l-5.8-2.9c-.4-.2-.4-.6-.3-1l.4-11.4c.1-.4-.2-.7-.5-.8l-2.4-1.2c-.5-.3-.8-.2-1 .3l-4.5 8.9c-.3.6-.5.8-1.2.4l-4.1-2c-.6-.3-.6-.6-.3-1.1l10.8-21.3 1.7-3.3c.2-.4.4-.6.9-.3 3.4 1.8 6.9 3.4 10.4 5.3 2.6 1.4 4.5 3.4 5 6.5.8 5-3.1 9.8-8.1 9.8-.7 0-.8.2-.8.9l-.1 12c-.1.2-.1.6-.1 1.2zm-.3-19.7c1.5 0 2.5-.8 3.1-2.5.5-1.5.1-2.7-1.1-3.6-1.5-1.1-3.3-1.8-4.9-2.7-.3-.2-.5 0-.6.3-.9 1.8-1.8 3.5-2.7 5.2-.2.5-.2.7.3.9 1.2.6 2.3 1.2 3.5 1.7.6.4 1.4.8 2.4.7zm-78.1-4.3c.1 3.2-.6 5.9-2.5 8.3s-4.6 3.6-7.6 4.1c-5.9 1.1-10.5-1.8-12.9-7-1.5-3.2-2.3-6.6-2.4-10.2-.3-6.1 3.1-10.7 9-12.1 3.1-.8 6.2-.7 9 1 2.5 1.5 4 3.7 5.2 6.4 1.4 3.2 2.2 6.6 2.2 9.5zm-6 .9c-.2-3.5-.9-6.8-2.6-9.8-1.4-2.5-3.3-3.5-5.8-3.1-2.9.5-4.5 2.2-4.8 5.2-.1 1.3 0 2.6.2 3.8.5 2.8 1.2 5.5 2.9 7.9 1.4 1.9 3.2 2.6 5.5 2.1s3.9-1.8 4.3-4.2c.2-.6.2-1.3.3-1.9zm19-10.4l3.6-5.1 4.4-6.2c.3-.4.6-.6 1-.6h6.4l-3.4 4.9-4 5.6c-.3.5-.3.8-.1 1.3l9.4 15.9.3.6c.2.4.1.5-.3.6l-6.2.2c-.4 0-.5-.3-.6-.5l-6.5-11.5c-.5-.9-.5-.9-1.1-.1-.4.6-.8 1.2-1.3 1.7-1.6 1.4-1.6 3.2-1.4 5.2l.2 5.2c0 .4-.1.4-.4.4l-5.1.2c-.4 0-.6-.1-.6-.6l-.3-9.8-.5-14.5-.1-3.5c0-.4.1-.7.6-.7l4.7-.2c.6 0 .9.2.9.8l.3 9.2c-.1.4-.1.9.1 1.5zm46.6-6.5l-.9 4.4c-.1.6-.4.4-.8.3l-11.7-2.5c-.5-.1-.8 0-.9.5l-1 4.6c-.1.5.1.7.5.8l8 1.7c.6.1.9.3.7 1l-.8 3.7c-.1.5-.3.6-.8.5l-7.7-1.6c-1.1-.2-1.1-.2-1.4.9l-1.1 5.3c-.1.5 0 .7.6.8l11.9 2.5c.7.1.9.3.7 1.1l-.8 3.6c-.1.5-.2.6-.8.5l-18.3-3.8c-.6-.1-.6-.3-.5-.9l5.7-27c.1-.7.4-.8 1-.6l17.6 3.7c.5.2.9.1.8.5z" fill="#b32"/><path d="M-60.5 470c-.3-2.1-1.2-4-2.1-5.7l-1.8-3.5c-.8-1.8-.4-2.7 1.5-3.3.7-.2 1.7-.2 2.1-.7s-.1-1.4 0-2.1c0-.5 0-1 .1-1.5.2-1.4 1-1.7 2.2-.9 1.6 1.1 2.4 2.7 2.9 4.5.8 3.1.4 6.1-.1 9.2l-1.2 6.9c-.5 2.3.1 4.1 1.6 5.8.6.7 1.2 1.4 1.7 2.2.5 1 .3 1.6-.7 2.2-.8.4-1.6.7-2.4.9-1.7.4-2.7 1.6-3.5 3-2.4 4.4-4.8 9-7.5 13.3-1.4 2.2-3.1 4.3-5.1 6-.8.6-1.6 1.1-2.6 1.2-.7.1-1.5.1-1.9-.5-.5-.7 0-1.3.4-1.9 1-1.5 2.1-3 3.1-4.5 3.3-5 6.4-10 9.2-15.3 1.7-3.2 1.8-6.6 1-10-.5-2-.9-4.1-1.4-6.2-.1-.4-.2-.7.1-1 .4-.3.7 0 1 .1.9.6 2.1 1.2 3.4 1.8zm-13.7 15.3l2.3-3c.4-.4.7-.8 1.2-1.2.7-.6 1.3-.4 1.6.4.4 1 .3 2.1-.1 3-2.7 6.6-7 11.7-13.8 14.3l-3.1 1.2c-.7.2-1.1.6-1.4 1.3-.6 1.7-1.7 3.1-3.3 4.1-.6.4-1.3.7-2 .3s-.7-1.2-.6-1.9c.1-.6.2-1.2.4-1.7.9-2.3 1.3-4.7 1.1-7.2-.2-4.3.9-8.2 3.6-11.5.5-.6 1-1.2 2-1 .8.2 1.5.6 1.7 1.5.2.5-.1 1.1-.2 1.6-.3 1.5-.9 2.9-1.5 4.3-.9 2.1-.8 4.2-.8 6.4 0 .5.2.5.6.3 2.2-.8 4.1-2.1 5.9-3.7.7-.7 1.4-1.4 2.1-2 .5-.5.6-1 .3-1.6-2.1-4-1.6-7.9.5-11.6 1-1.8 2.1-3.6 3.6-5 .9-.9 1.9-1.8 3.3-2.1.7-.1 1.4-.1 1.8.6.4.6.3 1.2-.1 1.8-1.1 1.9-2.6 3.4-4 5.1-.9 1.1-1.8 2.3-1.9 3.9 0 1.2.3 2.2.8 3.4z" fill="#084"/><path d="M-153 391c-.1 3-1.7 4.9-4.2 6.3-2.9 1.5-5.7 1.4-8.5-.2-.5-.3-.7-.5-.3-1.1l2-3.5c.2-.4.4-.5.9-.2.6.4 1.2.8 2 .8 1.4-.1 2.2-1 1.9-2.4-.4-1.5-1.1-2.8-1.7-4.2l-6.8-15.9c-.2-.6-.2-.8.4-1.1l4.3-1.8c.5-.2.8-.2 1 .4l8.2 19.2c.5 1.2.9 2.4.8 3.7z" fill="#b32"/><g fill="#084"><path d="M-89.5 404c0 .6-.1 1.3.2 2 .6 1.5 1.7 1.6 2.6.4l2.8-3.8a49.1 49.1 0 0 1 3.9-5.1c1.3-1.5 3-1.5 3.8 0 .4.7.5 1.5.4 2.4-.3 2.4-1.8 4.2-3.3 5.9-1.7 2.1-3.8 3.9-5.7 5.8-2.1 2.1-4 4.4-5.4 7-.8 1.5-2 2.8-3.1 4.1-.4.5-.9.8-1.5 1-.9.3-1.2.1-1.1-.9.3-1.5.8-3 1.2-4.5 1-3.5.9-7.1.9-10.7 0-2-.1-4.2 1.2-5.9.5-.7 1.2-1.1 2-.8s1.1 1 1.1 1.8zm2.9 21.4c-.5-.1-1-.1-1.4-.2-.7-.2-.9-.7-.5-1.3.5-.7 1.1-1.4 1.7-2.1 1.2-1.4 1.8-3 2.3-4.7.1-.5.3-1 .4-1.5.3-1.2 1.1-1.9 2.2-2.3l6.2-2.2c3.2-1.5 6-3.5 8.5-6l2.8-2.8c1.1-1.1 2.7-.9 3.5.4.7 1.1.6 2.2.2 3.4-.7 2-2.2 3.4-3.7 4.8-2.6 2.2-5.6 3.7-8.6 5.3l-3.9 2.1c-1.6.9-3 2.1-4.1 3.6-1.3 1.8-2.9 3.2-5.2 3.5zm-18.4-1.9c0 .4-.3.7-.6 1.1-2.4 2.3-5.2 3.7-8.4 4.6-1.5.5-3.1.7-4.7 1-2.2.4-3.9 1.6-5 3.5l-2.9 5.2c-.9 1.6-1.9 3-3.2 4.3-2 2-3.2 4.4-4.5 6.9-.3.5-.6 1-1 1.4-.5.4-.9.5-1.3-.2s-.6-1.4-.3-2.2c1-2.9 2.1-5.8 3.8-8.4a18.8 18.8 0 0 1 2.5-3.1c2.4-2.4 3.6-5.5 4.8-8.6l.9-2.1c.4-.9 1.2-1.4 2.1-1.4 3.7.3 7-.8 10.5-1.8 1.7-.5 3.4-.8 5.1-1.2.6-.1 1.1 0 1.7.1.4.1.5.4.5.9zm4.3 22.3c0 4.6-3.3 8.3-8.1 8.3s-8.3-3.6-8.2-8.4c.1-4.4 3.4-8 8.2-8 5.2 0 8.2 4.2 8.1 8.1zm-8.1-4.3c-2.3 0-4.4 2-4.4 4.3 0 2.4 1.9 4.4 4.4 4.4 2.3 0 4.3-2 4.3-4.3s-2-4.4-4.3-4.4z"/><path d="M-85.7 433l-1.5 2c-.9 1.1-1.9 1.5-2.8 1-1-.5-1.5-1.8-1.1-3.1 1.1-3.7 6-7.7 11.1-6.2 1.4.4 1.8 1.1 1.4 2.5-1.1 3.6-2.8 6.9-5.2 9.8-.4.5-.8.9-1.4.9-1.2.2-1.9-.5-1.6-1.8l1.2-4.2c0-.3.2-.6-.1-.9zm6.6 4.9c0-1.5 1-2.3 2.2-1.6 2.4 1.2 4.5 1 6.8-.3 1.2-.7 2.4-1.3 3.7-1.7.7-.2 1.4-.3 1.9.4.4.6.4 1.4-.3 2.1l-2.9 3c-.8.8-.8 1.3-.1 2.1.9 1.1 1.8 2.1 2.5 3.3.4.6.6 1.3.1 1.9s-1.3.7-2.1.4c-2.2-.8-3.9-2.4-5.8-3.7-1.1-.7-2.1-1.5-3.2-2.3-1.1-.7-1.8-1.7-2.6-2.7-.1-.3-.2-.6-.2-.9zm-60.7 58.1c-.3 2.2-1.4 3.7-4 2.6-1.5-.6-2.7-1.5-3.7-2.8-1.8-2.2-3.4-4.5-5-6.9-.9-1.4-.1-3.1 1.6-3.3.4 0 .8 0 1.1.2 3.9 1.5 7 4.1 9.2 7.6.5.8.7 1.7.8 2.6zm65.7-67.8c-1.3 0-2.3-.6-2.6-1.4s0-1.5.6-2.1c3-3.3 6.3-6.3 9.7-9.2.9-.8 1.9-1.4 3.1-1.1s1.7 1.2 1 2.3c-1 1.8-2.3 3.3-3.7 4.8-1.8 1.9-3.6 3.8-5.8 5.4-.7.7-1.6 1.2-2.3 1.3zm5.9 5.3c-.7-.1-1.2-.4-1.5-1s-.3-1.3.1-1.8c1.3-1.6 2.6-3.2 4.2-4.6l5.1-4.8c.6-.5 1.3-1.1 2.2-.9 1.5.4 2.1 1.8 1.3 3.1-1.3 2.1-3.2 3.7-5 5.5-1.2 1.2-2.3 2.3-3.7 3.3-.8.5-1.7 1-2.7 1.2zm-33.4 0c1.3-.1 2.5.4 3.4 1.2.8.7 1.7.8 2.7.6.9-.2 1.7-.4 2.6-.4s1.3.3 1.1 1.2c-.4 2-1.7 3.2-3.4 4-2.9 1.3-5.4.2-7.6-1.8-.4-.4-.8-.9-1.1-1.3-1.1-1.5-.3-3.2 1.6-3.4.2-.1.5-.1.7-.1zm3 55.5c.9.1 1.9.2 2.8.6 1.8.8 2.3 3.5 1 4.9-.4.4-.8.6-1.3.4-1.5-.7-3.1-.9-4.7-1-1.3-.1-2.6-.4-3.8-.9-.6-.2-1.1-.5-1.2-1.2-.1-.8.4-1.2.9-1.6 1-.7 2.1-.8 3.3-.9.9-.2 2-.2 3-.3zm-8.2-44c0 1.4-1 2.4-2.4 2.4a2.26 2.26 0 0 1-2.3-2.3c0-1.4 1-2.5 2.4-2.4a2.26 2.26 0 0 1 2.3 2.3z"/></g></g></svg>