<svg xmlns="http://www.w3.org/2000/svg" width="150" height="200" viewBox="0 0 39.7 52.9"><path d="M9.535 6.225c6.837-.716 9.779-1.06 12.799-1.617 2.836-.503 4.823-.927 6.784-.954.079.026 1.325.053 1.643.132.636.133 1.06.318 1.51.742.398.371.848.768.742 1.113-.265.768-1.325.609-2.067.742-3.922.371-1.405-.689-11.024.954.424.291.636.053 1.034.556.265.371.026.715-.397 1.033-.451.345-.981.504-1.988.901-1.113.424-1.908 1.06-3.154 1.617-1.166.53-2.014 1.087-2.253 1.749-.133.424-.185.795-.079 1.087 0 .106.053.212.185.344a7.37 7.37 0 0 1 1.484-1.06c1.272-.742 2.782-1.404 4.505-2.014 1.723-.556 3.286-.689 4.638-.397 1.139.106 2.04.503 2.729 1.219.689.662 1.007 1.245.954 1.696.504 3.047.61 5.538.398 7.473-.212 1.908-.848 3.418-1.961 4.532-.133.159-.397.239-.768.292-.371-.027-.901-.186-1.564-.451-1.193-.636-2.253-1.325-3.206-2.093a8.34 8.34 0 0 0-1.166-.079 13.47 13.47 0 0 0-1.564.106c-.583.026-1.457.212-2.597.477-.133.026-.292.026-.477.053 0 .238-.185.45-.53.609-.556.212-1.113.106-1.696-.318-.663-.689-1.14-1.828-1.431-3.418-.239-1.59-.291-2.888-.212-3.869l.185-2.358c0-.557.291-1.564.927-2.465.477-.689 1.325-1.51 2.544-2.332 1.219-.848 1.961-1.458 2.253-1.908a.49.49 0 0 0-.053-.53c-1.881.239-3.71.53-5.512.822-.636.079-3.206.583-4.293.265-.98-.291-1.484-.662-1.961-1.298-.185-.265.08-.742 1.325-.927.265-.133 2.889-.371 3.313-.424zm14.257 16.987c.424-2.279.636-4.267.609-6.016 0-1.696-.239-2.73-.742-3.074-.133-.424-1.166-.451-3.021-.027-2.889.609-5.459 1.272-7.208 1.987 0 .265-.106.61-.133 1.007-.026.318 0 .954.026 1.272.477-.238 1.484-.477 2.676-.689l2.597-.477c.344-.079 2.385-.53 2.703-.424s1.139.504 1.431.928c.265.371.398.662.291.795-.424.53-3.18 1.193-3.604 1.272-1.245.292 2.2-1.245.079-.848-.106.027-5.061 1.166-6.042 1.14 0 .026.079.768.239 1.087.079.238.265.636.53 1.325a11.84 11.84 0 0 1 1.987-.451c.61-.106 1.113-.159 1.511-.159.424 0 .689-.026.769-.079.583-.159 1.749 0 2.438.477.689.424 1.087.795 1.166 1.087v.106c.344.08.212.133.689.159.53.027.848-.106 1.007-.397z" fill="#339"/><path d="M30.311 42.795c-3.577-1.113-4.399-5.433-8.718-5.538-.742.795-1.564 1.537-2.094 2.464 1.669-.106 7.685-1.961 6.016.424-.795.742-1.405.663-1.988 1.034-1.246.662-2.597.768-4.028.556-.291.053-.954.371-1.219.795.133.503.424.98 1.007 1.272.795 0 4.956-1.669 5.565-2.12 1.06.027 2.438.662 2.782 1.537.424 1.007-.503 1.988-.821 2.941.318.53 0 1.113-.318 1.564-1.219.504-2.597.106-3.922.265-.689.079-1.219.504-1.881.557l-.212.53c-2.703-.397-3.684-6.36-2.756-6.996.583-.371 1.246-.662 1.855-.981-.106-.238-.424-.371-.609-.556-.583.265-1.749 1.537-2.253 2.014-1.404 1.378-1.776.795-3.18 1.484 0 1.961-.106 5.326-.715 5.671a.79.79 0 0 1-.715-.344c-1.139-1.617-2.782-2.941-4.213-4.373 1.219.265 2.279 1.113 3.577.954.424-.132.424-3.021.477-4.293-1.139.768-2.544 1.484-3.63 2.305-.477.344-.795.583-1.325.636-.424-.239-.318-.557-.583-.822-.106-.795-.848-1.696.239-2.226.61.345 1.06.079 1.564-.265 1.139-.689 2.491-1.113 3.683-1.802l.053-2.2a9.88 9.88 0 0 1-1.616.901c-.556.318-1.405.662-2.067.583-1.166-.186-2.067-1.087-2.676-1.829 0-.398-.901-.689-.026-1.06 2.094 1.007 4.399-.503 5.989-1.537 1.139-.742.689-2.04.821-3.047 0-.583-1.007-1.245-1.351-1.961.821-.318 3.392.318 4.001 1.245.186.689-.291 1.669-.344 2.438l.583-.026c.318.053.477.185.874.424.239.291.477.477.318.954-.186.662-1.457.927-1.987 1.404-.133.822-.398 1.59-.345 2.412.689-.318 1.855-.874 2.332-1.404l-.159.424c-.424 1.935-2.862 2.253-2.756 4.452.026.503-.106.98-.026 1.484 1.988-1.166 5.274-4.929 6.413-6.758-.291-.212-.212-.371-.424-.716-1.113.371-2.411.212-2.889-.874-.318-.716 2.385-.928 2.518-1.166.45-.848-1.431-1.749-1.458-3.153.742.026.689.609 1.14.662.795.133 1.616-.185 2.252.398.398.318.186.583.424.901.504-.212 1.06-.239 1.616-.371 1.06-.292 1.723-2.04 1.325-2.809-.212-.477-.715-1.06-1.351-1.087.106-.663.848-.318 1.404-.292.583.239 1.219.424 1.776.716 1.007.503-.212 1.935.689 2.412.742-.053 1.59.238 1.829.848.848 2.305-2.041.477-3.71 2.756-.61.477-1.139 1.087-1.961 1.246 2.173.662 4.187 3.021 6.599 4.001 1.431.556 3.18 1.139 4.532 1.775.742.477.689 1.007.106 1.007-1.034.662-2.995.504-4.028.159zM20.082 45.1c.318.556.079 1.272.504 1.775 2.756-.318 4.452-.451 4.505-3.127-1.696.398-3.339.954-5.008 1.352zm1.511-11.872c-.424.477-.318 1.219-.583 1.775.398.212.901.239 1.325.398.636-.318 1.007-1.007 1.06-1.563-.583-.265-1.139-.583-1.802-.61z" fill="#b32"/></svg>