<svg xmlns="http://www.w3.org/2000/svg" width="150" height="200" viewBox="0 0 39.7 52.9"><g transform="matrix(.265 0 0 .265 47 -91)"><path d="M-37.5 383c-.5-3.1-2.4-5.1-5-6.5-3.4-1.8-6.9-3.5-10.4-5.3-.5-.3-.7-.1-.9.3-.5 1.1-1.1 2.2-1.7 3.3l-10.8 21.3c-.3.6-.3.8.3 1.1 1.4.6 2.7 1.3 4.1 2 .6.4.9.2 1.2-.4l4.5-8.9c.3-.5.5-.6 1-.3l2.4 1.2c.4.2.6.4.5.8-.2.9-.1 1.9-.1 2.9l-.3 8.5c0 .4-.1.7.3 1 1.9.9 3.7 1.9 5.8 2.9v-1.4l.1-12c0-.6.1-.9.8-.9 5.1.2 9-4.6 8.2-9.6zm-6.3 1.9c-.6 1.7-1.6 2.5-3.1 2.5-.9 0-1.8-.3-2.6-.7-1.2-.5-2.3-1.2-3.5-1.7-.5-.2-.5-.4-.3-.9l2.7-5.2c.1-.3.3-.5.6-.3 1.6.9 3.4 1.5 4.9 2.7 1.4.9 1.8 2.2 1.3 3.6zm-81.1-1.8c.1 3.2-.6 5.9-2.5 8.3s-4.6 3.6-7.6 4.1c-5.9 1.1-10.5-1.8-12.9-7-1.5-3.2-2.3-6.6-2.4-10.2-.3-6.1 3.1-10.7 9-12.1 3.1-.8 6.2-.7 9 1 2.5 1.5 4 3.7 5.2 6.4 1.4 3.2 2.2 6.6 2.2 9.5zm-6 .9c-.2-3.5-.9-6.8-2.6-9.8-1.4-2.5-3.3-3.5-5.8-3.1-2.9.5-4.5 2.2-4.8 5.2-.1 1.3 0 2.6.2 3.8.5 2.8 1.2 5.5 2.9 7.9 1.4 1.9 3.2 2.6 5.5 2.1s3.9-1.8 4.3-4.2c.2-.6.2-1.3.3-1.9zm19-10.4l3.6-5.1 4.4-6.2c.3-.4.6-.6 1-.6h6.4l-3.4 4.9-4 5.6c-.3.5-.3.8-.1 1.3l9.4 15.9.3.6c.2.4.1.5-.3.6l-6.2.2c-.4 0-.5-.3-.6-.5l-6.5-11.5c-.5-.9-.5-.9-1.1-.1-.4.6-.8 1.2-1.3 1.7-1.6 1.4-1.6 3.2-1.4 5.2l.2 5.2c0 .4-.1.4-.4.4l-5.1.2c-.4 0-.6-.1-.6-.6l-.3-9.8-.5-14.5-.1-3.5c0-.4.1-.7.6-.7l4.7-.2c.6 0 .9.2.9.8l.3 9.2c-.1.4-.1.9.1 1.5zm46.6-6.5l-.9 4.4c-.1.6-.4.4-.8.3l-11.7-2.5c-.5-.1-.8 0-.9.5l-1 4.6c-.1.5.1.7.5.8l8 1.7c.6.1.9.3.7 1l-.8 3.7c-.1.5-.3.6-.8.5l-7.7-1.6c-1.1-.2-1.1-.2-1.4.9l-1.1 5.3c-.1.5 0 .7.6.8l11.9 2.5c.7.1.9.3.7 1.1l-.8 3.6c-.1.5-.2.6-.8.5l-18.3-3.8c-.6-.1-.6-.3-.5-.9l5.7-27c.1-.7.4-.8 1-.6l17.6 3.7c.5.2.9.1.8.5zm-87.6 29.6c-.1 3-1.7 4.9-4.2 6.3-2.9 1.5-5.7 1.4-8.5-.2-.5-.3-.7-.5-.3-1.1l2-3.5c.2-.4.4-.5.9-.2.6.4 1.2.8 2 .8 1.4-.1 2.2-1 1.9-2.4-.4-1.5-1.1-2.8-1.7-4.2l-6.8-15.9c-.2-.6-.2-.8.4-1.1l4.3-1.8c.5-.2.8-.2 1 .4l8.2 19.2c.5 1.2.9 2.4.8 3.7z" fill="#084"/><g fill="#339"><path d="m-56.1 467h4.9"/><path d="M-57.6 456c-.1 0-.1 0 0 0-.1.9-.1 1.7 0 2.6h.1c.3.1.5.1.8.2l8.2.3c0 .4-.1.9-.1 1.3l-8.1-1.6h-.9v-.1c-3.1 1-3.4.8-3-3-.4-.1-.9-.1-1.3-.3-.3-.2-.5-.6-.7-.9l1-.6c.7 1 3-.3 2.9 2-.2 0 .5 0 1.1.1-.1 0-.1-.1 0 0 0-.1.1 0 .3 0l8.6-.5c0-.1-.1-.4-.1-.8l3.9.8c.1-.4.2-.8.2-1.1l-13.6-3.7c.1-2.2 2.4-2.6 4.2-3.5s2.1-2.1 1.9-3.9c-.1-.9.3-2.1.8-2.9.7-1 2.1-1.6 2.7-2.6 1.5-2.3 6.6-2.5 4.2-7.1 1.9-2.9-1.1-3.5-2.4-4.7-1.4-1.3-2.8-1-3.7.7l-2.8 5c-2.3 4.1-4 4.9-9.4 3.8l4.3-3c-2.1.7-5.3-.9-5.8 3.1-3.9-.3-.3-3.1-1.8-4.6-1.3 1.3-2.7 2.5-4.4 4.2-.2-.9-.5-1.6-.4-2.2.2-.8.8-1.6 1.2-2.4l6.9-12.5c1.4-2.6-.8-3.8-2.4-5-1.7-1.2-3.4-1.1-4.6.9-2.3 3.6-4.7 7.2-6.8 11-1.1 1.9-1.9 2.7-4.1 1.4-2.6-1.5-5.3-2.8-8.1-3.7-15.3-4.8-30.1-3.1-43.6 5.4-14.2 9-22.7 21.6-23.2 39.1-.3 9.9 2.8 18.6 7.5 26.9 3.6 6.3 8.9 11.1 15.1 15.1 17.1 10.9 39.6 10.8 56.4-.8 2-1.4 3.3-3.6 5.3-4.9 4.2-2.9 7.5-6.7 9.7-11.1 2.6-5.3 4.1-11.1 6.1-16.7.1-.2.1-.5.1-.8.4-3.2 1-3.8 4.2-3.9.9 0 1.9-.2 2.8-.4 0-.3-.1-.6-.1-.9-.9.1-1.8.3-2.6.3-.9.1-1.8 0-2.8 0 0-.3 0-.6-.1-.9 1.8-.2 3.7-.4 5.5-.5-2.7-1.1-6.4 1-8.4-3.1-.8.2-1.6.3-2.4.5-.4.1-.9-.2-1.4-.3.1-.5.1-1.3.4-1.4 1.2-.5 2.5-1.1 3.7-1.1 3 0 6.1.3 9.1.4v-.6l-11.8-1.2c0-.3.1-.7.1-1 4.1-.2 8.1 1 12.3 1.1.1-.6.2-1.3.3-2 .6.1.9.1 1.3.1h1.3c-4-3.2-8.8-3-13.4-3.8-.1-.2-.2-.2-.2-.2zm10.6-27c.2 1.1.6 2.2.3 2.6-1.1 1.2-1.8 3.2-4.6 2.9zm-5.3 6.9c.3.3.6.6.9 1-1.1 1-2.2 2-3.2 3l-.9-.9c1-1 2.1-2 3.2-3.1zm-7.4 10.7l-4.7 3 .8-4.2c1.1.1 2.5.1 3.8.2.1.4.1.7.1 1zm-13.1 25.6c3.1-1.2 4.3 2.1 6.6 2.9-.1.2-.2.4-.3.7l-6.6-2.5c.1-.4.2-.8.3-1.1zm-.6-6.7c-1.8 1.2-3.7 1.8-5.8.9l-.3-.9c1.8-.8 3.5-1.7 5.3-2.4.3-.1 1.1.4 1.2.8.1.5-.1 1.4-.4 1.6zm.7-3.3l9.6-2.4c-1.1 3-6.9 4.5-9.6 2.4zm5.4-18.3c-.7-1.1-1.6-2.3-2.8-4.1 3.4.8 6 1.5 8.7 2.2v1zm9.4-5.5c-2.6 2.4-11.1.8-13.7-2.7zm-10.2-21.5c.3-.3 1.1-.3 1.6-.4.1.5.4 1.2.1 1.5-.9 1.2-1.3 3.4-3.9 2.4.9-1.4 1.5-2.5 2.2-3.5zm-4.8 8.3c.7-1.1 1.6-2.2 2.5-3.3a23.6 23.6 0 0 1 1.4 1.5c-1.1 1.2-2.1 2.1-3 3.1-.4-.5-1.1-1.2-.9-1.3zm-1.5 2.6c.3-.3 1.3.1 2 .2-.5 1.2-.9 2.5-1.7 3.5-.4.5-1.6.3-2.4.4-.1-.2-.2-.5-.3-.7.8-1.1 1.5-2.3 2.4-3.4zm-6.4 1.6c.3.4.1 1.1.1 1.7-.6 0-1.3.1-1.7-.2-1.2-.9-2.2-2-3.4-3.1 2.5-1.3 3.9-.3 5 1.6zm-6.4.5c.8.1 1.6.6 3.2 1.3-1.5.7-2.2 1.3-2.7 1.2-.8-.2-1.4-1-2.1-1.6.5-.3 1.1-.9 1.6-.9zm-1.8 4.5c.4.1.6.9.8 1.4l-4.9 1.7c1.1-2.6 2.1-3.9 4.1-3.1zm-11.2-11.9c.7.7 1.5 1.4 2 2.2.2.3-.4 1-.9 2.1-.9-1.5-1.6-2.4-2.1-3.3 0-.2.7-.7 1-1zm-1.6 8.9c1.1.6 2.3 1.2 3.7 1.9-2.9 2.1-10.1 3.3-12.3 2.2l8.6-4.1c-2.3.4-4.5.9-6.9 1.1-1.3.1-2.7-.5-4.1-.7 0-.4 0-.8.1-1.2l6.8-1.1v-.7h-3.9c-.7 0-1.5.1-2.1-.2-1.1-.5-2.1-1.2-3.1-1.9 1-.2 2-.5 3.1-.6 1.4-.2 2.9-.1 4.3-.3 3.5-.5 6 1.8 5.8 5.6zm-13.6-8.4l10-.2s.1.3.3 1.2c-3.4.3-6.5.5-9.7.7-.4 0-.8-.5-1.1-.9-.1-.1.3-.8.5-.8zm-35.3 32.2c2.8-8.4 7.5-15.4 14.2-21.2 1.9-1.6 3.2-1.4 4.8.3.6.7 1.5 1.3 2.2 1.9-.6 1-1.2 2-2 3.1.1.1.5.6 1.3 1.7l-4.7-1.9 3.9 4.7c-.3.2-.5.4-.8.7-.5-.5-1.1-1-1.8-1.6-1.8 1.9-3.4.9-5.3-.5.4.7.7 1.4 1.3 2.5l-2.8-.8c.2.8.4 1.4.8 2.5-1.2-.4-1.8-.7-2.7-1v1.5c-3.2-.1-3.2.7-2.9 3.9.2 2 3.1 3.6 1.1 5.9.7.4 1.3.7 2.4 1.3l-1.1 1.5-5.9-2.9c-.2.1-.3.3-.5.4.6.9 1.1 1.9 2.1 3.5-1.2-.6-1.8-.9-2.2-1.2-.6.7-1.2 1.3-1.8 1.9-.3-.8-.9-1.7-.9-2.5.4-1.3.9-2.5 1.3-3.7zm50.9 55.8c-.2 1.8-.6 2.7-2.4 2.7h-6.9c-.1-.3-.2-.5-.4-.8.9-.9 1.8-1.7 2.6-2.7.4-.4.9-.9 1-1.5.4-1.7-1.8-6-3.2-6.3-2.4-.5-5.4 1.7-6 4.4l-.6 3.5c-.2 1.8-1.3 2.2-2.9 1.6-8.8-2.8-16.8-7.1-22.9-14.2-2.1-2.5-4-5.2-6.3-8.3h.3c-.4-.5-.6-1-.4-1.6-.1 0-.2.1-.2.1 1.2-3.5 3.7-4.8 6.6-4.1.4-2.8-.7-4.4-3.3-4.6-1.3-.1-2.7-.3-3.8.2-2.5 1-3.2-.4-3.4-2.3-.4-3.2-.5-6.5-.8-9.7-.1-1.6.5-2.1 2.2-2.3 3.9-.4 8-.8 10.4-4.7 1.6-2.6 1.9-5.3 1.1-8.2-.5-1.9-.4-3 1.9-2.9 5.4.3 12-7.4 9.7-13-.7-1.7-.9-3.6-1.5-5.4-.5-1.7-.2-2.8 1.5-3.4 1.9-.7 3.7-1.4 5.5-2.2 1.9-.8 3.1 0 3.3 1.8.6 4.5 3.3 7.3 6.9 9.4 3.6 2.2 7.4 4.2 11 6.3 0 0-.1 0-.1-.1h.1c-.2-1.2-.2-2 1.4-2.1.9 0 1.8-.4 2.6-.9-2.9-.7-6.3 1-9.1-2.6 2.6-.5 4.8-.5 6.7-1.4 1.7-.8 3.1-2.4 4.6-3.7-.2-.2-.3-.4-.5-.6.2-.1.3-.2.5-.2 1.1.3 2.2.7 3.4 1.1-1 .8-1.9 1.7-2.9 2.4-.6.4-1.4.6-2.4.9 1 1.7 2.1 3.2 2.8 4.8.2.5-.4 1.6-.9 2-1.9 1.5-4 .9-6.1.4v.1c2.9 2.3 4.2 2.3 7.7.6 2.2-1.1 4.7-1.9 7-2.8.5-.5.9-1.1 1.4-1.5 2.4-1.9 4.7-3.7 7.3-5.6 1 1.1 2.2 2.7-.5 4.5l2.3 1.4c-1.2.8-2.1 1.4-2.9 2.1-.6.5-1.1 1.2-1.6 1.8.8.3 1.7.8 2.5.7 1.2-.1 2.4-.7 3.6-1 3-.6 5.4 1 5.9 3.9.1.4-.3 1.1-.7 1.3-1.1.4-2.3.9-3.4.8-1.2-.1-2.3-.8-3.4-1.2l-2.6 4.5c1.4.9 3.7.7 3.8 3.2 0 .1 1.7.2 2.6.1 1.6-.2 3.3-.4 4.9-.7 0 .3.1.6.1.9l-14.5 4.4c.6 3.2.6 3.2-3.8 5.4.7.2 1.4.4 2.2.7-.1.2-.3.4-.4.6-1.7-.2-3.4-.5-5.4-.7 1.2.7 2 1.5 2.7 2.7.5.2.9.3 1.4.4-1.1 2.3-2.1 2.4-6 1.8 1.7.6 3.4 1.7 5.2 1.8 5.3.5 8.5 3.4 10.6 8.3l-2.2.7c-1.4-2-2.4-3.8-3.8-5.1-1.3-1.2-3-.5-2.8 1.2 1 8.5-5.5 12.8-9.8 18.4-1.6 2.1-3.9 3.8-4.9 6-.8 2.6-1.3 5.6-1.6 8.5zm7.2-4.4c1.8-.5 3.3-1.7 5-2.5-.2-.3-.3-.7-.5-1-1.2.4-2.3 1-3.5 1.3-.7.2-1.5 0-2.2 0 .2-.8.3-1.8.8-2.4.6-.6 1.5-.9 2.4-1.2 1.6-.6 2.7-1.4 1.8-3.4-.2-.4-.2-1 0-1.2l8.2-9.2c1.4 2.3 1.3 2.4-.4 4.5v4.2c0 .3.3.6.3.9 0 1 .3 2.3-.2 2.9-4 4.7-8.4 9-14.1 12.4-.7-2.8-.4-4.5 2.4-5.3zm10.8 1.6c-1.5.8-3 1.7-4.5 2.4-.6.3-1.4.1-2.7.3l8-9.6c2.8 3.6 2.6 4.9-.8 6.9zm4-18.7c2.2-3.2 3.1-3.2 5.3-.3-1.8 0-3.3.1-5.3.3zm6.9-9.9c-2.6-1-4.8-1.8-4.5-5.1 2.6.6 4.7 1.4 4.5 5.1zm5.2 2.5c-2.6-1.4-4.4-3.2-5.2-6.6 1.9 1.1 3.4 1.9 4.9 2.7 1.4.8 2.8 1.5 4.2 2.3-.6 2.7-1.9 2.7-3.9 1.6zm6.4-6.8l-9.8-4.2c.2-.4.4-.9.6-1.3l9.8 4.5c-.2.3-.4.7-.6 1zm-7-7.7l7 2.9c-2.5 1.1-6-.1-7-2.9zm9.1 2.4l-8.7-3.8c2.4-1 8.3 1.7 8.7 3.8z"/></g><path d="M-136 493c1.9 2.2 5 3.3 7.6 4.9.5.3 1.2.4 1.7.8 5.4 4.7 10.9 3.5 15.7-.6 4.1-3.5 8.4-5.3 13.8-4.9-2.5-2.1-5.5-2.5-8.4-2.1-2.4.3-4.7 1.7-7 2.6-1.9.7-3.8 1.7-5.8 2.1-1 .2-3.2-.9-3.2-1.3.1-1.8 1.3-3.1 3.3-3.1 1.2 0 2.5.2 4 0-.8-.6-1.7-1.2-3.2-2.2 2.5.8 4.2 1.1 3.1-1.8-.1-.4.8-1.2 1.2-1.7 1.7.9 3.3 1.7 4.8 2.6.3-.3.6-.7.9-1-1.2-.6-2.5-1.1-3.7-1.7.3-.3.6-.7.8-1 1.6 1.1 3.3 2.1 4.9 3.2.1-.2.3-.3.4-.5-1-1.2-1.9-2.4-2.9-3.7.2-.2.4-.4.5-.6 2 .7 3.9 1.5 5.9 2.2.1-.2.2-.4.3-.5-.7-.9-1.5-1.7-2.2-2.6.2-.1.3-.3.5-.4l4.5 3c.2-.2.4-.5.6-.7-.6-.6-1.3-1.1-1.7-1.8-.3-.4-.2-1.1-.3-1.6.6 0 1.2 0 1.7.1 1.2.3 2.4.8 3.6 1.2l.3-.9c-.5-.4-1.1-.8-1.6-1.2-.8-.6-1.5-1.2-2.2-1.8 1.2-.7 2.3-1.8 3.5-2 1.4-.2 2.9.4 4.3.6.1-.2.1-.4.2-.7-.9-.4-1.9-.8-2.8-1.3-.6-.4-1.4-1.5-1.4-1.5 1.4-1.5 2.7-3.5 4.4-4.1 1.1-.4 2.6.2 4 .7-.7-1.2-1.5-2-2.7-2.7-.3 0-.7-.1-1.1-.1l4.1-5.6c-1 .1-1.7-.1-2.2.2-2.9 1.3-5.6 2.8-7.4 5.8-1.2 2.1-3 3.8-4.7 5.9-.5-.7-.7-2.6-.8-2.7-6.7 3.6-10.5 5.4-13.1 2.8-2.3-3.1-.8-4.6-.6-7.7h-.1c-4.1 3.5-8.2 4.3-11.6 2.1-1-.6-1.2-.9-1.7-1.9-.7-1.7 0-3 .4-3.6 1.6-2.3 4.4-5.4 4.5-8.9 1.6 5.4 5.8 6.3 8.5 8.5 1.5 1.3.2 2.6-.2 3.9 0 0 .1 0 .1-.1v.1c1.9-1.6 5.2-3.5 8.4-3.2 4.7.4 3.8-1.7 2.1-3.7-.9-1.1-.8-1.7.4-2.6 4.2-3 8.3-6 12.3-9.1.4-.3.7-.9.7-1.9-.8.3-1.7.7-2.5.9-1.9.4-3.8 1-5.6.9-3.3-.2-7.1 1.7-8.5 4.7-.2.5-.7 1-1.2 1.3-1.4.8-2.9 1.5-4.4 2.1-1 .4-2.2 2.5-3.3 0-.1-.1-1.2.2-2.5.4 1.2-1 1.9-1.5 2.6-2.1.6-.5 1.2-1 1.7-1.9-2.1 1-4.1 2.1-6.2 3.1-.2-.2-.3-.4-.5-.6 1.6-1.2 3.2-2.4 4.9-3.5 0-.1-.1-.2-.1-.3-1.6.7-3.2 1.3-4.8 2l-.6-.9c1.4-1 2.9-1.9 4.3-2.9 0-.1-.1-.3-.1-.4-1.6.5-3.1 1.1-5.5 1.8l3.4-5.5c-1 .5-1.4.5-1.6.8-4.3 4.9-7.7 10.2-8.8 16.8-.7 4.4.2 8.5 3.3 11.9 1.1 1.2 1.2 2.7-.2 3.5-1.8 1-3.9 1.9-6 2.1-3.1.4-4.3.8-6.7 4.2 4.6-2.2 7.6-.9 10.1 2.5l-6.9 4.6c-3.3-3.1-7.2-4.6-12-1.7-.2.6 0 1.1.4 1.6 5-1.1 8.7-1.4 11.9 2.4zm36.3-44c.4.1.6.5 1.2 1-1 .9-1.7 1.7-2.6 2.4-.8.6-1.7 1.1-2.6 1.2-.4.1-1.3-.8-1.3-1.3-.1-1.8 3.6-4 5.3-3.3zm-7.5 6.4c.1.3.3.6.4 1l-6.8 3.3c-.2-.3-.3-.7-.5-1zm-5.7 40.2c1-.4 1.9-.9 3.4-1.6-3.8 4.9-9.9 6.5-14.4 4.3-.5-.2-.6-1-1-1.5.5-.1 1.2-.4 1.6-.2 3.8 2.1 7.1.2 10.4-1zm-12.8-24.2c1.7-.1 2.3-3.2 4.5-1-.8 1.5-1.6 2.9-2.6 4.7-.7-1.3-1.2-2.4-1.9-3.7zm.3 12.6c1.5-.3 3.1-.5 5.4-.8-1.3-.8-1.9-1.3-3.3-2.1 2.5-.4 4.4-.7 6.2-.9.2-.2.3-.4.5-.6l-2.1-.9c.1-.2.2-.4.4-.6.4 0 .9-.1 1.2 0 1.4.8 2.6 1.1 3.8-.4.4-.4 1.3-.3 2-.5 2.1-.6 4.3-1.3 6.4-1.8.8-.2 1.7.3 2.6.4-.3.8-.4 2-1 2.4-.9.6-2.1.9-3.3 1.1-3.4.4-6.2 1.9-8.6 4.4-2 2-4 4.1-6.3 5.4-1.3.8-3.4.1-5.2.1-.1-.4-.1-.9-.2-1.3 1.1-.4 2.1-.8 3.2-1.3v-.5c-.6-.1-1.3-.1-1.9-.3s-1-.7-1.5-1.1c.7-.2 1.2-.6 1.7-.7zm77-10.1c-2.1-.1-4-.8-4.7 2.6-.9 4.6-2.2 9.3-4.2 13.6-2.2 4.6-4.9 8.8-8.5 12.7-6.6 7-14.5 11.4-23.3 14.7-7.5 2.7-15.2 2.7-23 2-9-.9-17.1-4.2-24.5-9.3s-13-11.8-17-20-5.6-16.9-4.9-26c.4-5.9 2.3-11.3 4.8-16.8 3.6-7.8 8.8-14 15.7-18.9 14.5-10.4 30.4-13.1 47.6-8.7 3.4.9 6.6 2.2 10.2 3.5 1.1-1.5 2.2-3.1 3.4-4.9-.8-.5-1.1-.8-1.6-1-2.4-1-4.8-2-7.3-2.8-21.9-7.1-41.7-3-59.4 11.3-8.7 7-14.3 16.3-17.9 26.9-2.9 8.4-3.2 17.1-1.6 25.7 2.4 12.5 8.9 22.9 17 32.4 1 1.2 2 2.3 3.3 3.2 6.7 5 14.1 8 22.2 10.1 13.8 3.4 27.3 3 40.3-2.5 13.1-5.6 23.4-14.5 29.9-27.4 2.7-5.3 4.9-10.9 5.2-16.9.1-1.4.9-3.5-1.7-3.5zm-29.8-21.2c.1.5.1 1.1.3 1.6 1.7 3.7 1.4 4.1-3.2 4.6l3.2-2.4c-.1-.2-.1-.3-.2-.5l-13.7 4c-.5.1-.9.6-1.2 1l-6.5 9.1c-.3-.2-.6-.3-.8-.5l3.6-8.5-4.8.3c-.1-.2-.1-.3-.2-.5l12.7-6.8a67.3 67.3 0 0 0-1.9 3.8l5.3-.5-2.9-4.2 4.9-2.2 1.6 2.2 1.7-1.4 2.2.9c-.1.1-.1 0-.1 0z" fill="#b32"/><path d="M-111 468c1.6-3 5.5-2.8 8.5-4-1.2 3.7-2.8 6.7-6.2 7.3-1.8.2-3.2-1.7-2.3-3.3z" fill="#339"/><path d="M-91.5 450c1.8-1.1 2.4.6 1.1 1.6-1.1.8-8.7 6.1-9.8 6.6-.9.4-1.1-1.6.1-2.3z" fill="#b32"/><path d="M-85.7 444l2.6 1.2 2.5-1.7-.2 3.3h-3.5c-.8 0-1.6-.2-2.4-.3zm2.8 56.9l-3.6 4.6m-32-42.3c0 2.2-2.2 3.3-3.4 3.1-1.3 0-2.1-.8-1.9-2.9.2-2.8 2.1-5.7 2.1-5.7.6 1.3 1.1 2.6 1.9 3 .7.4 1.2 1.8 1.3 2.5z" fill="#339"/></g></svg>