<svg xmlns="http://www.w3.org/2000/svg" width="150" height="200" viewBox="0 0 39.7 52.9"><path d="M19.3 10.1c-1.24 2.06-2.04 4.05-2.73 6.32-.238.741-2.83 3.55-3.73 2.8-.344-.503-1.64-2.7-2.33-2.7-1.83 1.24-2.22.503-4.07 2.51a1.85 1.85 0 0 1-1.53.556c-.847-1.24-1.43-3.7-.45-5 .291-.397.503-.741.635-1.19 1.75 0 2.54-.952 3.62-1.96.159-.741 1.3-1.46.635-2.2-.344-.344-.238-.661.238-.952 2.04-.45 3.68 2.14 4.6 3.36.741.952-.397 1.96-.106 2.86-.291.053.344.159.397.159 1.35-.741 3.52-4.82 4.52-6.22-.159-.291.45-.714.688-.9.291.794.106 1.69-.397 2.54zm-9.97 23c-.106 1.16-.397 9.76-.159 10.4-.238.503-.635 1.11-1.35 1.01-.344-.397-.688-.794-1.24-1.11-1.64-2.3-1.19-3.76-1.03-6.46l.106-.9c.159-3.55 1.43-7.12.344-10.6.397-.794.45-2.12 1.88-1.96.291 2.51 1.48 4.87 1.88 7.36-.37.741.027 1.53-.423 2.25zm13.9 3.81c1.53 1.85.291 1.4-.503 2.12-1.24-.106-4.31.238-5.56.503-.344-.291-.794.053-1.14.106-.238.661.503 1.01-.106 1.85a7.21 7.21 0 0 1-2.22-.344c-.794-1.3-1.53-2.59-2.43-3.86-.053-1.8-1.93-3.36-.952-5.21.45-.159.635-.397 1.14-.238.291.291.635.714 1.08.794 3.02-1.4 9.76-4.55 12.6-1.61.503.556.053 1.35.556 1.8.556 1.75-2.57 2.43-2.46 4.1zm.9-9.92c-1.03 0-1.69.661-2.78.556-.688.291-1.64.212-2.14.741-4.37 2.12-9.92-2.51-6.19-3.25 1.43-.238 3.18 0 4.47-.344 1.14-.291 2.22-.661 3.33-.847 1.24-1.4 2.73 0 3.41 1.01.026.688 1.14 1.64-.106 2.14zm7.14-14.9c-1.53-.291-2.67.291-4.13.503-.106.159-.238.344-.106.503.159.344 1.53 1.19 1.93 1.8 1.19 1.61.106 3.55-1.98 4 .503.661 3.52 1.69 4.52 2.12.635.609.952 1.35 1.35 2.06.291 3.86 1.93 22.3-1.3 24.8-.159.741-1.24.609-1.88.661-.952-1.4-2.67-2.2-4.21-3.15-.556-1.51-4.47-2.91-3.28-4.82.847-.159.741.952 1.43.794.397.344 3.86.847 4.47.741 2.04-1.16.741-16.7-.397-18.9-.952-.45-.688-1.9-2.04-1.56-.397-.397-1.03-.45-1.53-.741-1.3.556-4.92 1.46-6.4 1.85-1.53.344-3.18-.106-4.71.159l-1.19-.238c-.397-3.1 9.58-2.75 11.2-5.05.847-.238 1.59-1.51 2.22-2.06-.238-.397-.45-1.61-1.08-1.75-.741.661-1.75 1.01-2.28 1.8-.688 0-1.53.952-1.98.053-.688-.397-.503-1.3-.794-1.9.291-.503.291-.847.344-1.35.159-1.61 3.47-3.1 3.07-5.61-.159-.952-1.48-.794-1.93-1.96.952-.238.635-.609 1.88-.556 2.94.159 4.66 3.52 4.47 5.66 3.68-.291 3.86-1.75 7.94-.159 1.03.397.847.794.847 1.61-.767 1.08-3.23.529-4.47.688zm-11.5 21.3c-.688.556-3.81.556-4.76.556-1.19 0-1.43.741-1.35 1.16.9.397.688 1.4 1.24 2.06 1.24.45 1.75-.741 3.07-.556 1.24-.794 2.38-1.85 2.67-3.2h-.873z" fill="#339"/></svg>