<svg xmlns="http://www.w3.org/2000/svg" width="150" height="200" viewBox="0 0 39.7 52.9"><path d="M30.4 24.1c-1.08.159-1.88-.397-2.94-.344.37-1.16 1.35-.582 1.77-1.16 1.14-.529 3.44-.979 3.65-2.3-1.67-.873-4.71-.45-6.59-.45-1.24.397-4.02-.291-4.66.926.106.106.37.291.423.45l.265.185c.106.582.159 1.16 0 1.75-.582-.053-4.34 2.67-4.44 3.23.582.185 2.09.45 2.41-.238 1.61-1.32 2.67-3.12 4.07-4.58.529.635 2.67.635 2.62 1.46l.37.45c0 1.61-7.17 6.09-8.36 7.99 1.67.185 3.28-.238 4.82-.635-.159-.397-.318-.767-.423-1.16-.847.635.053-.476.159-.582l.318-.344c2.46.635 3.7.741 4.87 3.07.053.873.318 2.59-.794 3.07-.529.053-1.3.053-1.83-.159-1.24-1.16-1.06-2.3-3.04-1.08.212.82.212 1.75-.106 2.59.265 3.6-.212 7.22-.582 10.8-.159.238-.212.476-.318.741-.159.397-.635.291-1.08.185-1.4-.397-5.48-4.87-6.59-6.14-1.61 1.16-2.46 2.25-3.39 3.86-.423.741-.952.582-1.77.476-1.3-1.56-2.78-3.36-1.93-5.42.476-1.11.106-2.43 1.88-2.33.106.106.265.185.423.238.476.635 1.19 1.22 1.72 1.85 2.04-.635 4.07-1.16 6.16-1.72l-.053.82c-.476.106-.794.45-1.3.635-.37.45-1.14.741-.635 1.38.635.238 2.83.185 3.55.053.529-.159.847-6.14-.688-6.93-1.14.159-5.03 2.38-5.79 1.8-1.3-1.03-.847-2.78-.318-4.05 1.01-.688 4.23-1.72 4.5-2.96-1.14-.185-2.09.344-3.15.529-.318.291-.9.238-1.14.741-.794.238-.847-.238-1.35-.635.265-1.03-.318-2.04.053-3.07.794-.873 2.09-1.22 2.94-2.01 1.3-1.16 2.62-2.33 3.6-3.76-.9-.185-2.35.635-3.49.635-1.3 0-3.81.529-4.82 1.32-.476.397-.688.979-1.14 1.4-.476 2.67-1.77 5.37-2.57 7.99l-.635.185c-.423-.185-.582-.397-1.14-.291-.688-1.38-1.88-2.83-1.72-4.44.159-1.16 1.35-1.51 1.88-2.43.37-.635 1.4-3.36 1.4-4.05 0-1.11-2.04-.397-1.83-2.01.37-.159 1.46-.053 1.88.053.476.185 1.98.926 3.04 1.27 0 .45 1.01-.159 1.24-.238.741-.926 6.01-2.43 7.33-2.49.212-.344.529-.688.582-1.11-1.88-.159-6.32-2.65-6.96-4.29 1.19-.159 1.77-.053 2.99 0l.582-.106c1.35.053 2.62-.397 3.97-.635.794-.979.688-2.59.318-3.7-.688-.476-1.51-.873-2.3-1.22-.053-.291-.106-.582-.265-.767.318-.635.847-1.22 1.67-1.4 2.09.82 5.24 1.61 5.53 4 .053.582-.053 1.27.318 1.8 2.35.529 2.99-.741 4.55 1.8.318 1.9-3.92 2.2-5.24 2.83-.106.741-.476 1.4-.476 2.25 2.2.238 4.39-.238 6.59-.238.9-.45 5.13.635 6.06 1.08 1.35.688 3.97 4.02 1.24 5-1.3.503-4.18.37-5.9.635zm.847 19.2c-.159-.238-.529-.159-.741-.159l-.318-.185c-2.46-1.51-4.23-3.41-6.59-5.08.265-1.11 1.4-.238 1.98-.635 2.3.106 5.74.185 6.96 2.25.9 1.51 1.51 4.05-1.3 3.81z" fill="#084"/></svg>