<svg xmlns="http://www.w3.org/2000/svg" width="150" height="200" viewBox="0 0 39.7 52.9"><path d="M36.8 35.6c-1.98 3.36-2.3 7.22-5.24 10.2-.688.741-2.25 2.01-3.33 2.04-.265-.238-.529-.476-.952-.582-.106-.82-.847-1.38-1.3-2.09-.688-.397-2.83-2.83-3.49-3.52 2.41 1.22 3.65.873 6.11 1.32 1.46-1.16 4.23-7.99 3.7-9.66-.318-1.08-7.28-.397-8.36.106 1.01 1.61 4.18 1.72 3.81 5.13.159.582-.106 1.11-.423 1.56-1.46.397-1.83-.45-2.67-1.22-3.23-.053-10.8 3.31-11.6 3.31-.9-1.22-3.55-1.61-1.93-3.57 1.46.291 3.33-.635 4.55-1.32.423-.582.635-1.4.318-2.09l-7.28 2.59c.582 2.67 1.3 4.84.582 7.62-1.01-.529-1.51-1.27-2.09-2.2-1.46-1.03-.635-2.65-1.19-4-.635.106-1.19.397-1.77.45-1.08.45-2.99-1.75-2.14-2.33.952-.238 2.14-.45 2.99-.926 0-.741-.106-1.8.952-2.04.9-.688 6.01-3.02 6.11-3.52-2.3-1.03-3.65-6.09-4.5-8.2.106-.529-.265-1.51.476-1.75.318-.344.794-.45 1.24-.344l.265.45c1.24-.635 2.35-1.46 3.65-1.9-.741-.873-.794-2.14-1.3-2.65-.688.291-4.6 2.33-5.03 2.14-.582-.238-.794-.82-1.4-1.16.212-.344-1.19-1.46-.635-2.43 1.19-.397 1.01-.45 2.09.159 1.14 0 3.55-.45 4.55-.873 1.08-.476-2.2-5.79-2.04-6.72 1.19.159 2.46.397 3.49 1.08.9.582 3.1 2.96 2.83 4.05.265.635 3.86-.185 4.44-.344.635-1.22.847-2.65 1.3-3.89.37-1.08-1.01-2.33-1.93-2.83.053-1.11 4.02-.291 4.71.053 2.73 1.4 1.98 3.41.635 5.37.635.238 4.29-1.22 5.53-.926.423.767 2.78 1.8 2.46 2.96-1.08 0-9.26 1.11-9.71 1.46-.847.159-2.04 2.33-2.88 2.88 1.83-.185 4.07-.688 5.9-.529 1.67.106 5.24 2.09 4.71 3.86-.476 1.67-3.92 7.46-5.58 8.15-.423.397-1.35.159-1.88-.053l-.106-.529c-.741.159-.9.688-2.04.688-.423 0-.9.053-1.3.291-.265 1.51-.159.741-.265 2.43.582-.053 1.19-.185 1.77-.344 2.83-.635 7.38-1.38 10.3-1.03 1.01-.635 3.33.106 4.13.82.529.476 1.56 1.46 1.67 2.14.185.926-.476 1.38-.952 2.25zm-21.5-4.63c-1.46.053-7.73 3.18-8.68 4.15.688.979 7.94-2.04 9.31-2.54.318-.582.159-1.27.159-1.9zm-.053-10.3c-1.14.238-4.02.582-4.55 1.46.053.741-.212 1.51.159 2.2.741 1.46 1.08 2.59 1.01 4.21 1.4-.741 2.73-1.8 3.76-2.83-1.01-.053-4.07-.529-4.55-1.4 1.35-.767 4.02-1.27 4.92-2.04.714-.609-.529-1.01-.741-1.59zm3.04-7.3c-.582.053-2.04.635-2.57.873-.106 1.11-1.56 3.57-1.4 4.39 2.35-.159 4.97-3.36 5.58-5.27zm3.65 20.7c-.688 0-1.4.159-2.09.238-.053.767-.053 1.56-.265 2.38 1.19-.053 2.51-.053 3.65-.344-.503-.661-.873-1.48-1.3-2.28zm-2.14-14c.688.291.37.873 1.14 1.16.37.159.741.185 1.14.397.423.053.741.529 1.14.688.741 1.67-2.09 2.04-2.88 2.88l-.159 1.27c1.4-.053.9-.185 2.09.291.688.45.37.291.9.476 0-.291 0-2.25.106-2.54.212.741.106.476.794.635.37-.82 2.83-5.66 1.83-6.06-2.28-.847-3.94.609-6.09.794z" fill="#b32"/></svg>