<svg xmlns="http://www.w3.org/2000/svg" width="150" height="200" viewBox="0 0 39.7 52.9"><path d="M38.838 29.71c-1.299-.874-3.366-1.855-4.214-1.882-4.293-.212-8.056-4.903-12.455-4.267.133-.609-.212.053.159-.822 3.233-1.166 7.128-.583 10.574-.53 2.146-1.405.53-2.014-.477-3.18-2.146-1.219-5.432-.159-7.791.106.901-.53 6.069-2.782 6.227-3.233.424-.928-.742-1.749-.954-2.65-.848-.397-1.351-1.378-2.464-1.272-1.193 1.219-3.101.928-4.611 1.564l-1.669-1.325c2.146-.822 4.558-.981 6.704-1.908.371-.45.371-.927.424-1.404-.477-1.458-2.094-2.544-3.71-3.021-4.24 2.73-9.54 4.532-14.336 6.36l-.318.583c.848.928 1.722-.238 2.2.583 2.041-.106 4.028-.477 6.069-.822l-.053.291c-.954 1.087-.106 1.087.106 2.093-2.464.981-4.929 2.093-7.632 2.65-.159-.451-.265-.874-.424-1.325h-1.3c-.848.398-.106 1.033-.53 1.457.159 1.749.053 3.869 1.352 5.327-2.517 1.51-6.175 2.2-9.01 3.286.636 1.166 1.881 1.722 3.154 2.147 2.517.822 4.982-1.325 6.97-2.385.106-.053 1.086-.583 1.245-.45.159.185-.265.636-.371.768-2.252 3.074-4.717 6.387-8.109 8.507-.742.451-1.67.477-2.04 1.325l1.298.292c2.995-1.431 3.949.185 7.579-3.657.504-.503 5.459-6.492 7.182-8.851l.53-.239c-.079 2.014-.186 4.055.053 6.069.079.371.716 1.113.928 1.087.318-.079.821-.397 1.192-.318.186.053 1.378-.715 1.511-1.113.026-.874.133-4.664.345-5.3 1.139.238 3.127 2.57 4.187 2.968 3.18 1.139 4.849 4.319 8.083 4.372 1.511.053 1.325-.424 2.862-1.007.901-.742 1.696-.424 1.537-.875zM23.203 14.234c1.007-.159 2.094-.583 3.101-.345-.689 1.325-2.57 3.472-3.71 4.505.079-1.219.928-3.127.61-4.16zm-4.558 5.485c-.477.742-5.591 2.438-6.652 2.597-.159-.053-.53-.186-.583-.292 1.616-1.722 3.498-3.233 5.538-4.505.212-.689 1.086-.822 1.723-.874l.212.397c-.079.477-.026 2.385-.239 2.677z" fill="#b32"/><path d="M20.712 30.505c-.609-.026-1.934-.238-3.842 1.007-1.219 1.192-3.498 1.802-4.452 3.498l.026-.636c.08-.477-.133-1.829-.239-2.014-.477-.689-.239-1.245-.927-1.166-.477.106-1.564 1.404-1.776 1.935-.689 3.472.636 8.639 3.392 11.104.636.53 2.093 1.166 2.889 1.564 2.2-.636 4.346-1.617 6.705-1.669.848.689 1.007 1.802 1.616 2.65.689.186 1.299.451 1.934.477 4.77-2.544 4.664-7.87 6.227-11.978.636-1.67-1.139-2.2-1.616-3.578-2.968-1.537-6.545-1.829-9.937-1.193zm-4.054 9.355c.636.185 1.351.238 1.935.53-1.007.927-2.571 1.669-3.869 2.252-.954-2.014-1.087-4.214-1.723-6.307.424-.689.053-1.404 1.139-1.563 1.511-.159 2.942-.636 4.505-.636l.053 2.093c-1.723.398-3.392 1.034-5.141 1.272.106 1.457 2.358 1.325 3.101 2.358zm9.301 2.385c-1.245-.689-3.392-1.511-4.876-1.405.477-1.722 4.452-1.855 4.028-3.418-1.086-.53-1.669-1.404-3.047-1.378-.053-1.457.848-2.093 2.093-2.835.901 0 3.233 0 3.922.291.079 3.021-.742 6.015-2.12 8.745z" fill="#339"/></svg>