<svg xmlns="http://www.w3.org/2000/svg" width="150" height="200" viewBox="0 0 39.7 52.9"><path d="M37.2 45c-1.61.397-1.72-.212-3.07-.556-2.83-.794-6.06-1.11-9-1.03-4.82.159-13.1 1.08-17.3 3.12-1.51.741-2.57.979-4.23.741-.318-.926-3.65-3.28-.794-3.76l12.1-2.09c1.56-.291 3.04-1.72 3.39-3.02-1.3.238-3.65 1.32-4.87.82-1.24-.529-3.49-1.8-3.7-3.12.476-.529 7.73-1.27 9.31-1.75.106-.476-.053-2.59-.9-2.59-3.39.053-3.92.688-7.33-.476-.212-.397-.212-.873 0-1.32 2.25-.767 4.55-1.51 6.96-1.8 1.35-.185 2.73-.053 3.97-.476 1.83.185 4.71-.45 5.74 1.32 1.19 2.01-2.14 1.91-3.6 2.01-.423.873-1.01 1.8-1.24 2.78 1.01 0 1.93-.45 2.94-.397 1.35.688 1.88 1.85 2.35 3.07-.635 1.61-4.92.185-5.53 1.46-.37.82-.529 1.72-.688 2.65.794.106 1.72-.106 2.51-.291 3.65-.529 7.12-.238 10.7.688 1.83.45 2.25 1.19 3.12 2.62 0 .635-.212 1.08-.82 1.4zm-9.52-20.5c-1.14 1.4-2.78.397-3.76 1.67-2.46.238-4.71.45-7.12 1.22-1.3.45-2.41.159-3.65.45-2.83-1.11-2.09-8.2-5.03-10.9-.265-.767-.582-1.56-.265-2.33 2.46-1.22 7.51-3.47 8.57-5.79.423-.926-2.67-2.2-.212-3.02 3.04-1.03 3.86 1.75 5.48 3.31.053.741-.635 1.38-.582 1.9 3.28-1.16 6.75-.185 9.31 1.72 1.01.741 2.46 2.59 2.04 3.76-.344.979-4.05 7.12-4.79 7.99zm-17.6-8.97l2.62 2.09c.423-1.38 1.72-2.33 2.2-3.65-1.59.397-3.36.767-4.82 1.56zM19 14.5c-1.01-.238-2.04-.529-3.1-.45-.794 1.11-1.46 2.78-1.77 4.1 1.93-.476 3.81-1.08 5.69-1.61 1.51-1.22 4.92.45 4.87 2.2-2.62 2.3-5.53 1.27-7.67 2.88-.794.397-.9-.159-.794-.635-.529-.291-1.3-.529-1.77-.926-.106-.106-.265-.291-.423-.291-.318 1.51.053 3.31.318 4.84 2.62-.688 8.36-2.49 10.8-2.2 1.01-2.78 3.04-5.79 1.77-8.78-3.55.529-3.84 1.96-7.94.873z" fill="#d71"/></svg>