<svg xmlns="http://www.w3.org/2000/svg" width="150" height="200" viewBox="0 0 39.7 52.9"><path d="M17.52 16.67c1.272.186 1.934-.954 3.021-1.352 1.272-1.007 5.618-2.756 5.512-4.717-.079-2.014-3.339-3.763-5.035-3.604-.318.663 1.352 2.597.636 4.293-.742 1.669-3.736 4.081-4.134 5.379zM3.025 38.427c-.636 2.12-1.616 4.956.45 7.42.318-.768.636-1.643.848-2.544.371-1.352.318-2.783.583-4.134-1.192.609-.927-.742-1.881-.742zm5.724-1.166c-.239-.292-.504-.477-.768-.636l-.715.053c.318.874-.371 2.067-.133 3.233.08.715.769 2.941 1.775 2.464.45-.185.636-4.531.715-5.353-.53-.239-.556.106-.875.238zm23.161-5.115l.451-8.427c.185-2.412.848-4.823.689-7.261-1.59-2.359-5.194-4.134-7.685-2.359-.822.133-4.929 2.412-5.379 3.074-.583.822-1.033 1.775-1.219 2.756-.636-.424-1.272-.875-2.041-.954-.053-1.299-.689-2.412-1.351-3.365-4.425-.583-.583-4.346-6.599-4.293C9.545 15.16 6.02 21.334 3.9 24.329c-.954 1.298-1.537 1.457-2.995 2.067-.504 1.113.398 1.935 1.139 2.465l.689.53c1.034.768 4.399-2.412 5.697-2.65-.715 1.59-2.438 5.406-4.293 5.83l-.583.053c-2.305 1.06-.239 3.286 1.087 3.948l.636-.185c1.405-1.193 4.028-3.578 5.698-4.055-.954 1.404-1.537 1.828-2.544 3.233 1.775-1.166 2.995-2.358 4.478-3.604.822-.663 1.034 1.352 1.855.715 1.537-2.65.848-5.115-1.139-6.996-.451-.106-.901-.238-1.272-.583.583-1.007 2.862-4.055 3.657-4.77.265.344.768 1.007 1.034 1.298.689 1.537.053 5.671.53 7.606-.451 2.358.583 3.127 1.484 4.955-.318.928-1.537.663-1.776 1.723-.053.238-.053.424-.371.424-.318 3.578-2.889 4.478-.769 8.321 1.458-2.517 2.094-5.061 1.484-7.95.636-.716.715-1.723 1.484-.133 1.086.477.715 6.705 6.784 9.116 1.776.715 3.789.822 5.671.583.954-.132 4.611-1.352 4.744-2.412.079-.53-.451-1.696-.822-1.987-.636-.822-5.671-5.645-6.28-5.538.901 1.828 1.59 3.816 2.093 5.777-.583 1.405-4.982.636-6.015.106-2.438-1.245-2.756-2.835-3.71-5.247-.318-.768-.848-1.166-1.325-1.775l-.318-.053c-.079-.106-.186-.132-.265-.185 1.776-1.166 3.79-1.828 5.698-2.835.53.053.769-.477 1.272-.424.636.662 1.484 1.643 1.59 2.65-.503.133-1.086.133-1.457.583-.186.053-.53.398-.583.053-.901.186-1.166-.927-1.934-1.192 0 0 .186 1.882.079 2.465-.318 1.643.689 1.882 1.484 2.942.053.185.265.238.45.185.689.875.848-.768 1.272-.822-.133-1.007.689-1.192.53-2.12.239-.345.451-1.06.901-1.113.079.636.689.424.53 1.113 1.537-.663 1.219-2.226 2.12-3.286 1.007.477 2.04.874 3.021 1.352-.504 1.113-1.855.186-2.306 2.756 1.033-1.696 1.617-.715 3.021-1.06.53.477 1.325.186 1.908.53.503.053 1.033 0 1.351-.477-.185-.636 0-1.192.053-1.775.398-3.472-5.062-2.358-6.757-2.332zm-22.445-2.12c.715-1.193 1.484-2.412 2.173-3.657.503.636.583 1.484.636 2.305 0 .557-2.358 1.272-2.809 1.352zm.822-6.625c-.318.663-2.623.822-3.392 1.007 1.405-2.782 3.578-5.432 5.38-7.897.265.291.45.662.715 1.007-.53 2.173-1.749 3.948-2.703 5.883zm18.921 5.38c-.186.424-.053.928-.053 1.352 0 1.404-2.226-.239-2.889-.398-.238-.424-1.404-.212-1.457-.185a38.58 38.58 0 0 0-1.643.45c-.053.027-1.351.583-1.192.53-.504.212-2.226.822-2.465.822-.318-1.696.106-5.432.106-5.618 0-.477.106-1.749.106-1.749l.186-3.525c.053-.636-.504-1.882.265-2.12.53.106 1.802-.027 2.676-.398.981-.397 4.399-2.332 4.982-2.2.53.239.821.689 1.192 1.192.768 1.06.318 9.964.186 11.846zM11.69 34.955c-.318.132-.689.132-1.033.132l1.033 1.246c-.132 1.722 1.087 2.226 1.855 3.895h.398c2.146-2.995-.98-5.565-2.253-5.273zm8.586-13.515c-.212.026-.159-.08-.291-.053.133.238.291.583.291.609l.504.875c.239.159.53.583.768.768l-.795 2.385-.291 1.033s1.007-.822 1.404-1.272c-.133.239-.186.398-.451.689 0 0 1.007-.874 1.404-1.855a10.61 10.61 0 0 0 1.219.875l-1.007 1.51c-.821 1.272-1.511 2.04-2.041 2.385h.345l-.133.185c.742-.106 1.405-.556 1.696-.822l1.219-1.193 1.139-1.087c.345.344.663.636.821.874 0 .186-.132.398-.477.583l-1.087.583 1.908.053-.212.239c.291 0 .663.053 1.007.106.424.106.689.106.742.106.477-.159.689-.477.689-.98l-.186-1.113c-.53-.689-1.139-1.378-1.908-2.04.265-.397.61-.822 1.034-1.378l1.272-1.722c.053-.583-.053-.98-.265-1.113-.795-.636-1.351-1.033-1.643-1.113-.186.053-.477.451-.954 1.219-.397.345-.742.53-1.033.636v-.238l-.053-.742-.53-.689c-.265-.583-.424-.874-.556-.822-.079-.053-.212 0-.398.185-.61.106-.874.291-.874.689l.053 1.033c-.186.345-.291.742-.477 1.166-.822-.371-1.431-.556-1.855-.556zm4.214.874l.424-.768c.477.344.822.106 1.086 0-.079 1.007-.689 1.908-.901 2.226-.344-.185-.742-.45-1.166-.742.159-.186.397-.424.556-.716z" fill="#339"/></svg>