<svg xmlns="http://www.w3.org/2000/svg" width="150" height="200" viewBox="0 0 39.7 52.9"><path d="M3.33 37.3c-.635 2.12-1.61 4.95.45 7.41a16.77 16.77 0 0 0 .847-2.54c.37-1.35.318-2.78.582-4.13-1.19.609-.926-.741-1.88-.741zm5.72-1.16a2.81 2.81 0 0 0-.767-.635l-.714.053c.318.873-.37 2.06-.132 3.23.079.714.767 2.94 1.77 2.46.45-.185.635-4.52.714-5.34-.529-.238-.556.106-.873.238zm4.87-11.6c-.45-.106-.9-.238-1.27-.582.582-1.01 1.64-2.75 2.86-4.37l1.14-1.48c.397-.794-.265-3.18-1.16-2.94-4.42-.582-.397-5-6.4-4.95.767 3.84-2.75 10-4.87 13-.952 1.3-1.53 1.46-2.99 2.06-.503 1.11.397 1.93 1.14 2.46l.688.529c1.03.767 4.39-2.41 5.69-2.65-.714 1.59-2.43 5.4-4.29 5.82l-.582.053c-2.3 1.06-.238 3.28 1.08 3.94l.635-.185c1.4-1.19 4.02-3.57 5.69-4.05-.952 1.4-1.53 1.83-2.54 3.23 1.77-1.16 2.99-2.35 4.47-3.6.82-.661 1.03 1.35 1.85.714 1.53-2.67.847-5.13-1.14-7.01zM7.2 23.27c1.4-2.78 3.57-5.42 5.37-7.88.767-.873.926-.529.714 1.01-.529 2.17-1.75 3.94-2.7 5.87-.318.661-2.62.82-3.39 1.01zm2.57 5.61l2.17-3.65c.503.635.582 1.48.635 2.3 0 .556-2.35 1.27-2.8 1.35zm2.17 4.87c-.318.132-.688.132-1.03.132l1.03 1.24c-.132 1.72 1.08 2.22 1.85 3.89h.397c2.14-2.99-.979-5.56-2.25-5.27zm23.4-4.15c-1.16 0-2.09.265-3.86 1.19l-.106.265c3.28 1.14 3.6 1.3 3.6 1.56 0 .212-.185.423-.503.661v.212c.318.053.423.106.794.106 2.94 0 3.36-.159 3.36-.926 0-1.72-1.46-3.07-3.28-3.07zm-17.6-13.3l-.556 1.51c-.238.582-.37 1.08-.37 1.4 0 .582.556 1.35 1.03 1.35.37 0 .926-.37 1.48-.926a61.5 61.5 0 0 1 2.51-2.38c1.72-1.51 2.28-2.22 2.28-2.86 0-.661-1.22-2.17-2.09-2.59-.503-.265-1.16-.37-2.01-.37h-.37l-.132.159c.423 1.24.609 1.96.609 2.12 0 .873-1.35 3.02-1.88 3.02-.185 0-.291-.106-.318-.423zM26.1 30l-.291-.053c-.688 1.08-.926 1.91-.926 3.25 0 1.9 1.08 3.68 2.25 3.68.318 0 .609-.529.741-1.51.291-1.72.503-2.06 2.06-3.84l-.106-.159c-1.03.423-1.4.529-1.9.529-.714 0-1.08-.397-1.83-1.91zm2.8-18.5c.37.265.609.476.609.635-.053.318-1.11 1.56-2.38 2.75l.053.265c.503-.159.9-.318 1.08-.37l2.25-.926c.318-.106.741-.212 1.3-.318 1.69-.159 1.69-.159 2.06-.423.423-.265.688-.767.688-1.3 0-1.67-1.48-2.65-4.02-2.75-.926 0-1.53-.106-1.77-.212l-1.27-.635c-.053-.053-.291-.106-.609-.159l-.053.212c.291 1.19 1.32 2.75 2.06 3.23zm7.33 26.7l-1.59-1.35c-.291-.212-1.16-1.19-2.57-2.7-.132-.212-.609-.661-1.08-1.19l-.185.053c1.72 4.5 2.09 5.56 2.09 6.11 0 .318-.106.37-.476.476-1.88.423-1.96.423-2.99.423-3.28 0-5.56-1.51-6.67-4.39l-.688-1.83c-.106-.212-.185-.423-.37-.582-.291-.37-.556-.529-1.22-.714l-.106.212c.609 3.25 1.08 4.71 2.06 6.27 1.48 2.33 4.39 3.94 7.25 3.94 2.51 0 5.45-.767 6.83-1.77.37-.265.661-.767.661-1.24-.026-.556-.397-1.24-.952-1.72zm-10.5-11.6c1.11-.582 4.47-1.72 5-1.72.238 0 .423.265.423.582 0 .265-.106.476-.37.82l.053.265c.503.159.503.159 1.16.529.688.37.688.37.741.37.185 0 .476-.159.661-.37.318-.423.847-2.28.847-3.07 0-1.46-1.22-2.8-4.89-5.5l-.132.159c.106 1.03.106 1.03.741 2.8.106.159.291.661.476 1.19-1.9.37-4.21 1.03-6.11 1.88l-.609.106c0-.106.37-.529 1.08-1.24 2.99-3.02 2.99-3.02 2.99-3.62 0-1.19-1.72-3.62-2.62-3.62-.106 0-.291.106-.503.265l-.132.212c.132.635.185.873.185 1.19 0 1.56-2.88 6.01-5.08 7.83-.847.661-1.11 1.03-1.11 1.51 0 .212.37 1.56.609 2.12.238.609.741 1.08 1.11 1.08.238 0 .556-.159.794-.423 1.93-1.88 2.51-2.3 4.68-3.33zm-6.32 7.62c-.185.212-.238.265-.318.529-.185.318-.185.318-.238.318 0 0-.053 0-.053-.053l-.238-.318-.37-.423c-.185-.159-.503-.423-1.22-.767l-.185.212c.185.979.291 1.46.291 2.06a5.1 5.1 0 0 1-.291 1.72c-.423 1.19-.423 1.19-.423 1.88 0 1.77 1.08 3.68 2.06 3.68.556 0 1.11-1.19 1.08-2.38l-.132-3.62c0-.767.053-1.4.238-2.86z" fill="#339"/></svg>