<svg xmlns="http://www.w3.org/2000/svg" width="150" height="200" viewBox="0 0 39.7 52.9"><path d="M11.525 14.72c-.318.397-.106.927-.159 1.404.371.822 1.298 1.961 1.935 2.597 2.782 2.782 3.922-.981 3.154-2.73.159-1.67 1.935-3.18 2.677-4.638-.053-.822.265-.98 0-1.961-1.246 1.087-4.346 4.505-6.175 2.677-.795-.742-.848-1.219-2.2-1.113 1.881 1.378.318 2.2.769 3.763z" fill="#b32"/><path d="M15.765 30.62c.927-.344 1.511-1.59 1.299-2.2-.186-.53.106-.822-.583-1.139-.106-.053-1.139-.45-.927-.397-1.272-.265-1.484.371-1.961 1.139-.795.795-1.352 1.033-2.067 1.882-.345.424-.848.822-1.219 1.378-.106.079-.291.583-.61.715l.026.027c-1.802 2.2-4.214 4.055-5.75 6.386-.556 0 .45-2.332.504-2.65-1.325 1.563-1.193 2.04-1.961 3.71-1.59.874-1.192 2.332-1.696 3.71.318.345.556.742 1.139.689.424-.398 1.087-.477 1.537-.875l5.485-4.929c.424-.398.663-1.087 1.272-1.166.159 1.51.106 2.968-.265 4.452-1.643 1.405.212 6.546 2.358 6.837 1.193-2.544 1.14-7.87 2.836-9.62.133-.45.424-1.113.795-1.908 0-.265.026-.53.079-.795.053-.239.132-.451.212-.663.053-.159.079-.715.159-.371a1.36 1.36 0 0 1 .106-.927c-.053-.132-.053-.238-.079-.371L13.91 37.59l-.159-.291c.053-1.113-.106-2.332-.875-3.233.663-1.352 1.087-1.563 2.889-3.445z" fill="#339"/><path d="M38.741 42.28c-1.219-1.617-1.59-4.929-2.438-5.803-.318-.397-.662-2.544-1.987-3.312.424 2.438.556 5.459.053 7.87-2.385 3.313-11.845 2.73-11.898.292-.133-8.427 8.083-9.222 8.083-14.204-1.166-1.51-.239-4.055-4.849-3.816-.477.45-.981.291-1.564.927l1.404.477c.53.768.371 1.802.318 2.677-.556.98-2.253 4.32-3.101 5.115.477-2.862-.556-4.611-2.067-4.85-1.087-.159-1.749.53-2.544 1.166-.424.689-.795 2.412-.821 3.18.345.053.662-1.404 1.086-1.855.451-.689.822.238.822.238-.106 1.617-.186 6.228-.291 6.546.133 1.722-.504 3.313.133 5.114 1.749 5.141 7.367 5.141 11.74 4.691 2.358-.239 5.008-.477 6.996-1.855.795-1.007.874-1.855.927-2.597z" fill="#084"/><path d="M6.225 26.645c1.245 1.033 2.782 1.617 4.558 1.51 1.881-.768 3.233-2.093 5.247-2.73l-.397.477 1.987-.768 2.624-1.06c.821-.265 1.643-.238 2.438-.477.186-.053.345-.079.504-.053a27.42 27.42 0 0 1 3.419-2.093c1.457-.742 2.624-1.563 2.571-3.233-1.829-.53-3.498-.689-5.379.053-.477.822-2.889 1.405-3.869 1.67.477-.451.901-1.034 1.511-1.405 2.412-3.233 6.863-5.035 9.673-7.923 1.086-1.166-1.299-2.968-2.253-3.657-1.007-.822-2.146-1.617-3.604-1.855-.318 1.033.212 2.04-.106 3.074.212 1.67-1.007 3.074-2.146 4.293-4.134 4.638-7.393 9.275-14.072 11.13-.742.159-1.669.636-2.465.345-.689 0-1.245.344-1.669.795-.398 1.113 1.325.928 1.431 1.908z" fill="#b32"/></svg>