<svg xmlns="http://www.w3.org/2000/svg" width="150" height="200" viewBox="0 0 39.7 52.9"><path d="M37.204 38.5c-.371-.106-.583-.927-.795-1.219l-2.358-5.856c-.53-.053 0-1.087-1.246-1.034l-.265.53c.583 2.041.742 6.731-.848 8.454-1.988 2.147-12.057 2.941-12.535.185-.318-1.908 1.829-5.327 2.782-7.022.318-.53 1.458-2.677 2.2-2.783 1.696-2.623-.451-4.028-3.339-4.24.371.371.504.901.079 1.457a45.33 45.33 0 0 1-1.378 1.802c-.318.424-.477.795-.848 1.192-.212.53-.477 1.034-.768 1.458-1.007 3.472-3.975 6.545-2.094 10.308.212.451.583 1.034.954 1.378 2.889 2.65 10.335 2.2 14.204 1.405 2.146-.451 4.293-.928 6.334-1.802a3.76 3.76 0 0 0-.08-4.214z" fill="#084"/><path d="M12.48 17.83l-2.623 2.093c-.212.239-.053.53.318.451.848-.345 1.881-.927 2.729-1.325 3.154-1.325 6.281-2.597 9.063-4.532.689-.477 1.299-.53 2.094-.742.954-.238 1.457-.689 1.829-1.51.689-1.617.424-2.014-.689-3.312-.318-.477-2.835-.742-3.551-.768-.795-.053-.795.238-1.511.477-1.192 1.113-7.181 3.365-8.904 3.18-.742-.106-1.404-.159-2.146-.106.53 1.325 1.352 2.544 1.828 3.869.715.424 2.014 1.352 1.564 2.226z" fill="#b32"/><path d="M13.01 28.165c-.318.662-4.585 5.432-5.115 6.28-1.192 1.272-3.445 4.823-5.538 4.426-.53 1.272-.901 2.65-.636 4.002.636.689.954.874 1.935.636 2.465-.583 7.791-9.778 8.957-10.361.371-.636 1.272-1.722 2.306-2.809.106-.159 2.093-2.465 2.199-2.65 1.325-2.942-1.934-.583-4.108.477z" fill="#339"/><path d="M30.527 19.42c-.53-.927-1.458-.98-2.253-1.51-1.193-.053-3.445 0-4.399.583-.477.927-1.881 1.855-2.889 2.332-.477.239-1.086.398-1.564.583l-4.558 1.855c-1.404.583-9.328 4.346-10.733 3.127-.371-.345-.212-.981.159-1.325-1.298-.398-1.298.106-1.934.768-.318 2.597.291 3.79 2.756 5.115.133.159.795.212 1.113.265.477-.08 1.935-.663 2.305-.848 3.869-2.093 4.956-2.226 8.957-4.028.398-.186 1.537-.61 2.517-.928.477-.212.981-.397 1.14-.609.583-.795 3.604-1.669 4.717-2.252.318 0 .583-.159.795-.345 1.776-.424 4.24-.583 3.869-2.782z" fill="#b32"/></svg>