<svg xmlns="http://www.w3.org/2000/svg" width="150" height="200" viewBox="0 0 39.7 52.9"><path d="M35.9 33.4c-2.41-.291-3.81-.714-6.22-.714-.741 0-6.43 0-7.2-.079-7.06 1.22-10.2 3.23-16.8 4.95-2.2.582-2.62.159-4.66-.582a2.79 2.79 0 0 1 0-1.61c.9-.741 2.25-.582 3.39-.873a391.2 391.2 0 0 1 8.84-2.35c.37-.159-2.41-1.75-2.2-2.01-.741-1.16-.106-2.01 1.56-1.4-1.19-1.9-2.41-4.82-2.04-7.12l.265-.926-.635-.291c-.9-.397-1.83-1.03-2.46-1.72-.476-.45 0-1.8.952-1.16 3.44.45 6.72-1.22 9.08-1.38l.026-1.56c-.741-.053-4.97 1.61-5.56 1.22l-.688-.106c-1.19-1.16-2.35-1.67-3.44-2.94l-.344-.503c.582.185.82.318 1.56.212l1.98-.238c.847.185 2.14.291 2.88-.185 1.56 0 2.06-.318 3.39-.979.159-.873.079-1.35-.318-2.09-.503-.873-1.38-.635-1.59-1.67-.265-.979-.238-1.24 1.01-1.43.423-.106.847-.159 1.3-.397 3.39.82 3.76.873 4.39 4 .37.106 3.73-.952 4.1-.952 1.67 1.11 2.04-.529 2.88 2.2-.265.45-.159 1.22-1.01 1.03-1.01.185-5.11 1.08-5.87 1.77-1.4.106-1.56 1.85-1.01 2.01.529.185 3.31-.873 3.84-1.01 1.67.582 2.51-.053 3.65 1.61.582.159.265.82.318 1.16-1.51.926-5.69.106-6.8.979-3.49.767-6.54 1.75-9.97 2.78-.265.344.106.688.265 1.08.106.106.476.529.529.688.423-.529 1.24-.529 1.83-.767 1.35-.45 7.12-1.88 8.31-2.35 1.08-.45 5.69 1.08 4.71 3.41-.529 1.27-1.27 2.41-2.09 3.49 1.75.238 1.98.079 2.78 1.08.265.873-1.98 2.04-1.4 2.3 2.83-.291 3.89-.582 8.04-.291 2.67.397 2.73 1.16 3.23 2.96-.318.661-2.14 1.32-2.83.741zm-8.33 12.5c-.9.106-.847-.053-1.72-.185-.847-.291-3.55-.238-4.13-.053-2.2 0-4.87.82-6.32 1.8-2.2-.476-2.09-2.3-3.33-3.57-.265-2.33-2.3-5.21-1.08-7.22.106.344 2.62.635 2.94.82 1.35-.82 2.83-.476 4.13-1.38.582 0 2.73-.741 3.28-.926 1.93-.635 4.34-.635 4.71-.159.635.106 1.01.688 1.67.688 2.88 3.28 1.67 3.36-.159 6.72 0 1.16 1.01.926.688 2.25-.053.397-.714.847-.661 1.22zm-9.1-22.3c-.794.238-2.57.714-4.05.714-.529-.159.688 1.38.529 1.72.106.582-.106.926.45 1.01.265-.238 3.57-1.22 3.89-1.32.9-.185 4.07-.026 4.68-.741.582-.714 1.11-2.2-.582-2.7-1.16.106-4.05 1.14-4.92 1.32zm5.48 14.7c-1.93-.238-6.69 1.61-9.26 1.67-.159.873 1.08 2.2 1.14 3.07.318.159 1.4-.185 2.67-.238 1.24 0 2.99-.106 3.81-.926 1.4-.106 1.98-1.4 1.67-2.59-.079-.159.026-1.08-.026-.979zm-8.15-8.81c-.212.397.952 1.51 1.01 1.93 1.77-.476 5.37-.9 7.14-1.3.106-.635.582-1.83.582-2.46-5.61.397-6.72 1.69-8.73 1.83z" fill="#339"/></svg>