<svg xmlns="http://www.w3.org/2000/svg" width="150" height="200" viewBox="0 0 39.7 52.9"><path d="M38.7 29.1c-3.04.688-2.22.106-5.08.318-5.29-2.3-9.31-9.21-14.4-12l-2.25-1.51c-1.67 2.2-4.05 6.16-5.66 8.36 1.61.159 9.6-1.56 10.7-2.43 1.19-.106 1.61.82 2.46.82l.212.106c1.14.529 3.97 2.38 1.01 3.12-.688.159-1.72.106-2.46.185-2.51.397-4.92 1.22-7.17 2.3-.847-.106-1.72-.238-2.46-.582-1.98 2.88-3.23 2.43.053 5.21 2.2-.873 7.88-4.15 9.71-4.34 2.2-.238 5.69 1.8 6.22 3.76.37 1.38-.952 1.75-1.61 2.73-.952 1.4-1.72 3.07-2.25 4.63.37.979 1.67 1.4.794 2.59-1.56 2.09-4.23-.106-6.22.45-1.4.344-2.67.635-4.18.635-.318.582-.635 1.16-1.14 1.72-3.04.291-3.49-6.14-4.97-7.81-.265-1.61-1.3-3.02-.423-4.63.106-1.96.212-4.21 2.14-5.42l.476-.873c-.529-.344-1.19-.741-1.83-.741-2.94 3.52-4 5.64-8.49 7.59-.476.053-1.03.159-1.14-.476.529-1.11-.212-1.93.661-2.43.794-.609-.265 1.64 2.17-1.8 2.99-4.97 6.8-9.5 10-14.3.952-1.46 1.67-3.07 2.67-4.52.106-.582-.635-1.03-1.01-1.46.318-.979 1.24-.529 2.09-.397 1.24-.529 3.28 1.03 3.76 2.04.476.926-.318 1.46-.9 2.14-.741.291-1.08 1.08-1.35 1.67 1.61.291 2.86 1.56 4.23 2.35 1.4.767 2.73 2.7 3.97 3.62 3.15 2.43 3.62 3.28 7.06 5.37 2.25 1.4 3.04 1.93 3.78 2.73.529.291 1.61 1.01.794 1.3zm-24.3 6.85c-.106.185.741 4.29.9 4.87 1.88-.344 4.34-1.16 6.01-2.09.741-1.46 1.93-3.28 2.09-4.92-1.32.238-8.52 1.22-9 2.14z" fill="#b32"/></svg>