<svg xmlns="http://www.w3.org/2000/svg" width="150" height="200" viewBox="0 0 39.7 52.9"><path d="M5.71 26c.609-.265 1.16-.37 1.61-.37.714 0 1.8.37 2.62.9.503.318.847.847 1.11 1.88l1.96-1.32.212-5.13c0-.847-.291-1.32-.794-1.32-.053 0-.053 0-1.24.185-.265.053-.556.026-.82-.026l-.053-.159c.45-1.61 1.8-2.62 3.41-2.62s3.07 1.56 3.07 3.36l-.344 3.62c1.61-.9 2.46-1.27 3.2-1.27 1.8 0 5.16 1.98 5.16 3.04 0 .37-.212 1.06-.661 1.77-1.11 1.88-1.8 5.08-1.8 8.7 0 2.14.503 3.36 1.75 4.23 1.51 1.06 3.57 1.67 5.72 1.67 2.86 0 4.97-.688 4.97-1.51 0-.529-.503-1.83-1.75-4.23l.291.053 1.35 1.06 2.8 2.91c.556.661.741 1.48.609 2.43-.185 1.38-2.57 2.46-7.65 2.46-4.21 0-6.48-.688-8.49-2.41-1.96-1.67-2.62-3.57-2.62-7.06 0-2.51.212-4.92.714-7.81.106-.423.159-.847.159-1.16 0-.582-.45-1.11-.9-1.11-.609 0-1.24.423-2.91 2.04l-.159 4.71.212 7.33c0 2.35-1.4 6.61-2.17 6.61-.397 0-.794-.582-1.35-1.67l-1.61-4.23c-.397-1.16-.159-.873-.873-2.14l-.185-.476 1.96 1.56c.344.265.609.476.794.476.291 0 .344-.741.344-3.73l-.159-5.77c-1.51.847-2.01 1.22-2.7 1.88-.794 5.66-1.51 7.91-3.25 10-1.06 1.22-1.96 1.93-2.51 1.93-.45 0-.609-.37-.714-1.98-.053-.423-.291-1.16-.661-1.88-1.11-2.35-1.8-4.34-1.8-5.4 0-.37.291-.9.714-1.27.159-.212 1.96-1.56 5.32-4.1.053-.265.053-.476.053-.688 0-.529-.291-.9-.661-.9-.344 0-.714.106-1.24.265-.45.159-.9.265-1.16.265-.714 0-1.4-.265-2.35-.9-.503-.318-.556-.423-.661-1.01l.053-.265c.9-.159 1.46-.318 1.67-.423zm1.96 8.89c-.661.265-1.24.423-1.61.476-2.75.476-2.91.529-3.2.952-.159.106-.212.318-.212.476 0 .529 1.46 3.04 2.12 3.73.291.265.503.37.661.37.847 0 1.61-2.09 2.17-5.5zm1.14-24.9c.397.053.714.053.952.053.661 0 1.4-.212 2.57-.688 1.51-.635 1.51-.635 5.53-3.25.661-.423 1.35-.635 1.96-.635 1.51 0 4.07 1.67 4.07 2.73 0 .318-.291.794-.661 1.32-1.56 1.98-2.7 5.19-2.7 7.96 0 1.4.609 2.73 1.61 3.41.714.529 1.9.794 3.86.794 1.3 0 1.9-.265 1.9-.794a2.17 2.17 0 0 0-.291-1.11l.159-.053c.344.053.503.106.556.159l1.51.847c2.7.688 2.7.688 3.12 1.11.212.212.397.476.397.688 0 1.22-2.7 2.09-6.22 2.09-5.87 0-9.34-2.83-9.34-7.49 0-1.61 0-1.61.847-5.19.053-.212.053-.423.053-.529 0-.265-.106-.423-.397-.423-.212 0-.556.159-1.16.635-1.4 1.16-2.75 1.72-3.81 1.72-.9 0-1.96-.476-3.41-1.51-1.06-.794-1.16-.952-1.3-1.61zm14.1 9.68c.397-.318.582-.529.635-.529l.714-.423c.106-.106.212-.212.212-.265 0-.106 0-.159-.9-.423s-1.46-.952-1.46-1.77c0-.688.397-1.22 1.9-2.78.661-.688 1.11-1.46 1.11-1.98 0-.37-.106-.847-.344-1.4l.212-.159c.344-.053.609-.106.794-.106 1.46 0 3.31 1.16 3.31 2.04 0 .635-.212.847-3.36 3.2-.397.265-.556.476-.556.635 0 .212.212.423.397.37l3.36-.37c.106 0 1.01.582 1.35.847.397.423.556.794.556 1.22 0 .847-.609 1.16-2.3 1.16-1.3 0-1.51.053-3.36.529l-.794.212c-.106 0-.9.212-1.75.37zm.847 18.7c.185-.212.397-.397.635-.503.159-.079.37-.185.609-.318a44.12 44.12 0 0 1 2.17-1.06c.556-.318.952-.582.952-.741 0-.106-.106-.159-.794-.318-.661-.159-1.75-1.61-1.75-2.46 0-.423.212-1.06.661-1.83.9-1.77 1.35-2.88 1.35-3.25 0-.106 0-.212-.053-.212-.609-.37-.609-.37-.9-.741l.106-.265c.556-.265 1.06-.37 1.4-.37.952 0 2.12 1.01 2.12 1.88 0 .582-.794 2.3-1.67 3.84-.159.265-.291.476-.291.582 0 .159.212.318.45.318.053 0 .556-.053 1.24-.159h.503c1.8 0 3.41 1.22 3.41 2.62 0 .794-.159.847-4.02 1.88l-4.31.847a46.69 46.69 0 0 1-1.19.238c-.185.053-.397.053-.635.026z" fill="#b32"/></svg>