<svg xmlns="http://www.w3.org/2000/svg" width="150" height="200" viewBox="0 0 39.7 52.9"><path d="M17.85 8.94c.504.398 1.457.848 1.881.848.239 0 .636-.106 1.139-.318l-.636 1.563-1.511.424c-.318.133-.583.318-1.007.716-.583-.133-.689-.212-1.166-.636h-.186c-.239.344-.344.556-.344.715 0 .133.106.398.212.716a3.64 3.64 0 0 1 .291.954c.318 1.749.318 1.749.715 2.173.239.265.61.477.848.477.186 0 .318-.132.477-.477.318.027.583.08.715.106l.689.08c.133 0 .477-.053.821-.186 2.041-.689 4.293-1.219 5.221-1.219.345 0 .742.053 1.166.133.291.079.53.106.689.106.583 0 .848-.265 1.988-1.749.186-.238.583-.662 1.034-1.166.398-.397.609-.795.609-1.087 0-.636-2.279-2.147-3.259-2.147-.689 0-1.325.159-3.127.689l-2.173.609.716-1.563 3.736-.901c.848-.185 1.246-.371 1.246-.662 0-.583-1.14-1.219-2.146-1.219-.477 0-1.219.212-2.2.583l.742-2.279c0-.292-.239-.609-.583-.795-.742-.397-2.041-.715-2.968-.715-.239 0-.477.026-.848.185l-.026.212c.822.636 1.06 1.087 1.06 1.855 0 .583-.106 1.431-.291 2.305-2.041.556-2.465.609-4.055.609l-.106.133c.186.503.345.689.636.927zm.663 6.334l-.291-1.934c0-.636.291-.928.848-.928.106 0 .291 0 .424.027.239 1.192.291 1.404.689 2.385zm8.427-4.478c.583 0 .954.212.954.53 0 .397-.291.98-1.325 2.57-.504-.079-.742-.106-1.06-.106h-.424l.61-1.563c0-.265-.186-.53-.636-1.007.954-.318 1.378-.424 1.881-.424zm-5.327 2.888l.079-.954c0-.159 0-.371-.079-.715l1.669-.292c.212.371.291.557.291.769 0 .291-.106.556-.504 1.563l-1.511.424.053-.795zm5.406 4.081c.954.027 1.431-.132 1.431-.503 0-.636-1.511-1.563-2.491-1.563-.291 0-.795.106-1.404.291-.715.239-.715.239-4.319 1.166l-3.366.689c-.504 0-.742-.053-1.166-.291l-.212.026c-.026.186-.026.292-.026.398 0 .795 1.06 1.563 2.199 1.563.504 0 .689-.053 2.438-.61 2.624-.795 4.77-1.139 6.916-1.166zm-7.049 4.16c1.166 3.127 3.498 4.505 7.394 4.505 3.286 0 5.486-.583 5.486-1.405 0-.397-.239-.609-2.889-2.412l-1.829-1.51-1.033-.636-.133.027.212.636c.106.265.503 1.007 1.06 2.12.079.133.106.265.106.318 0 .371-.636.61-1.776.61-2.597 0-4.028-.689-4.823-2.412-.583-1.192-.636-1.298-.901-1.537-.397-.345-.848-.557-1.325-.557-.318 0-.504.053-.795.318l.026.106c.662.503.742.609 1.219 1.828zM7.7 22.959c-.477.132-.689.185-1.458.238l-.133.212c.848.689 1.405 1.06 1.775 1.06.212 0 .53-.08.928-.265.53-.265 1.06-.477 1.511-.609l1.935-.61.398-.212c-.08.663-.212.954-.53.954-.08 0-.185-.026-.318-.079l-.133.106.715 1.298.61 1.272c.185.291.398.477.583.477.318 0 1.007-.928 1.245-1.723.239-.874.239-.874.292-4.478l.106-6.625c.079-2.041.239-3.63.503-4.267.186-.504.239-.848.239-1.06 0-.345-.239-.716-.927-1.378 1.404-.371 1.829-.609 1.829-.901 0-.503-1.166-1.272-1.934-1.272-.344 0-.822.106-1.352.318-2.491.901-4.028 1.299-5.141 1.299-.239 0-.609-.027-1.113-.106l-.106.132c.08.609 1.113 1.537 2.146 1.882-.954 1.272-1.325 2.73-1.351 5.433v2.65c-1.67.53-1.961.583-2.544.583-.185 0-.345-.027-.636-.106l-.106.106c.08.503.185.662.503.98.504.503 1.219.901 1.564.901s1.007-.345 3.127-1.696c1.431-.848 2.2-1.219 3.074-1.404v2.915c-.026 1.007-.106 1.882-.291 3.392-.61-.504-.954-.663-1.351-.663-.133 0-.345.053-.636.133l.106-.557c1.51-.556 1.669-.636 1.669-.901 0-.239-.583-.477-1.139-.477-.106 0-.291.026-.504.053l.185-.663c.212-.132.424-.238.53-.265.291-.106.503-.212.583-.265a.22.22 0 0 0 .133-.212c0-.318-.583-.689-1.033-.689-.398 0-.715.106-1.855.689-1.06.557-1.404.663-2.358.928l-.08.159c.345.424.715.636 1.219.636l.61-.027-.08.424c-.742.318-1.007.371-2.2.477l-.08.185c.901.61 1.06.663 2.279.769l-.106.53-.901.318zm5.353-9.858c-.689-.291-1.007-.371-1.352-.371-.503 0-1.06.239-1.934.822l.026-1.378c1.405-.371 1.749-.504 3.286-1.087zm-.159-5.273c.291.345.318.504.318.928a15.4 15.4 0 0 1-.079 1.378c-.345-.159-.583-.212-.795-.212-.504 0-1.034.185-2.438.795l-.133-.636c-.026-.133-.026-.265-.026-.318 0-.769 1.06-1.431 3.154-1.935zm-.371 7.208c-.636 0-1.272.239-2.809.981l.08-1.14 1.219-.344 1.669-.583c.026-.026.185-.053.345-.106l-.08 1.245-.424-.053zm3.975 6.519c-.53.636-.636.875-.636 1.537 0 1.087.477 1.882 1.113 1.882.821 0 1.511-1.59 1.511-3.604 0-.822-.079-1.06-.424-1.537h-.186l-1.378 1.722zm14.654-3.551c-.689 0-1.166.133-2.173.556v.106c1.325.265 1.616.371 1.987.981l-1.511.583.079.159c1.828.053 2.279.079 2.915.265.848.212 1.511.318 1.749.318.318 0 .583-.265.583-.557 0-1.245-1.749-2.412-3.63-2.412zm-6.148 1.457c-.504 0-.928-.265-1.537-.927h-.212c-.424.397-.53.662-.53 1.06 0 1.219 1.06 2.942 1.855 2.942.318 0 .636-.292 1.219-1.139.716-1.087 1.06-1.431 2.332-2.544l-.079-.133-1.961.557c-.424.106-.821.185-1.086.185zM14.087 31.545c0-.451-.398-.848-1.245-1.219-.742-.345-1.458-.504-2.04-.504-.398 0-.742.08-1.431.292l.026.212c1.272.715 1.405 1.007 1.405 4.399 0 3.153-.424 7.844-.848 9.408-.477 1.775-.875 2.941-2.014 3.975-.133.133-.689.769-.689.769 4.452-1.193 5.804-3.418 6.121-10.388l.344-4.982c0-.106.133-.689.318-1.563.053-.159.053-.318.053-.397zm15.185-2.385c-1.564-1.139-3.259-1.828-4.505-1.828-2.889 0-8.056 1.166-11.21 2.57l-.079.265c.715.662 1.537 1.06 2.252 1.06.106 0 .345-.027.689-.08.106-.026.345-.053.689-.106.742.663.928 1.139.928 2.358v.477c-1.616.398-1.881.424-3.631.583l-.106.133c.318 1.166 1.564 2.2 2.703 2.2a6.28 6.28 0 0 0 1.14-.106c-1.166 1.802-1.669 2.279-3.206 3.153-.318.159-.398.212-.954.265l-.106.265c1.007 1.352 1.749 1.908 2.571 1.908.186 0 .636-.106 1.272-.345.026 3.154.186 4.717.477 5.697.239.768.583 1.219.901 1.219.186 0 .477-.265.742-.742.715-1.219.821-1.961 1.166-7.155.901-.159 1.06-.212 1.723-.265l1.616-.132c.345-.08.504-.239.504-.557 0-1.166-.928-2.12-2.173-2.12-.477 0-1.033.079-1.723.238l-.026-.689a15.09 15.09 0 0 1 2.65-1.828c.901-.477 1.219-.822 1.219-1.192 0-.583-1.749-1.484-2.889-1.484-.133 0-.344.027-.636.08.106-.663.133-.795.212-1.007.079-.239.106-.398.106-.477 0-.371-.504-.742-1.723-1.219 1.961-.53 3.259-.742 4.426-.742s1.616.398 1.616 1.484v1.59l.106 7.155.106 5.141c0 1.352 0 1.405-.344 1.405-.901 0-2.385-.318-4.717-1.034l-.186.212c.636.822.928 1.087 2.359 2.014.689.424 1.351.874 1.404.954l1.06.874c1.405 1.139 1.511 1.192 1.935 1.192.689 0 1.855-2.306 1.855-3.657 0-.451-.026-1.166-.133-2.014-.186-1.511-.239-3.339-.239-5.644 0-4.691.212-6.784.848-8.215.133-.344.212-.662.212-.822-.079-.318-.318-.609-.901-1.033z" fill="#b32"/></svg>