<svg xmlns="http://www.w3.org/2000/svg" width="150" height="200" viewBox="0 0 39.7 52.9"><path d="M18.345 6.56c-.689 1.06-1.14 2.067-1.537 3.233-.133.398-1.59 1.828-2.094 1.431-.186-.265-.928-1.378-1.299-1.378-1.007.636-1.245.265-2.279 1.272-.212.212-.503.318-.848.292-.477-.636-.795-1.908-.265-2.571.159-.212.291-.397.345-.609.98 0 1.431-.477 2.04-1.007.106-.397.742-.742.345-1.139-.185-.186-.133-.345.133-.477 1.139-.239 2.067 1.113 2.57 1.722.424.477-.212 1.007-.053 1.457-.159.027.186.08.212.08.769-.398 1.961-2.465 2.544-3.18-.106-.159.265-.371.371-.45.186.424.106.901-.186 1.325zm-5.591 11.766c-.053.583-.212 5.008-.106 5.327-.133.265-.345.556-.769.503a2.11 2.11 0 0 0-.689-.556c-.927-1.193-.662-1.935-.583-3.312l.053-.451c.106-1.828.795-3.63.185-5.432.212-.398.265-1.087 1.06-1.007.159 1.272.822 2.491 1.06 3.763-.185.398.026.822-.212 1.166zm7.817 1.961c.848.954.159.715-.291 1.087-.689-.053-2.411.133-3.127.265-.185-.159-.45.027-.636.053-.133.344.291.503-.053.954-.424 0-.822-.053-1.245-.186l-1.378-1.961c-.026-.928-1.087-1.722-.53-2.677.265-.08.344-.212.636-.133.159.159.344.371.609.398 1.696-.716 5.459-2.332 7.049-.822.291.292.026.689.318.928.344.874-1.404 1.245-1.352 2.093zm.504-5.088c-.583 0-.954.345-1.564.292-.371.159-.927.106-1.219.397-2.438 1.087-5.565-1.272-3.471-1.669.795-.132 1.776 0 2.517-.185l1.881-.424c.689-.716 1.537 0 1.908.503.026.345.663.822-.053 1.087zm4.002-7.605c-.848-.159-1.484.159-2.332.265-.053.08-.133.186-.053.265.106.185.848.609 1.087.927.662.822.053 1.829-1.113 2.041.291.344 1.961.874 2.544 1.087.344.318.53.689.768 1.06.159 1.961 1.087 11.395-.742 12.72-.106.397-.689.318-1.06.344-.53-.715-1.484-1.139-2.358-1.617-.318-.768-2.518-1.484-1.855-2.465.477-.08.424.477.795.397.212.186 2.173.424 2.518.398 1.139-.583.424-8.559-.212-9.699-.53-.238-.371-.98-1.139-.795-.212-.212-.583-.238-.848-.397-.742.291-2.756.742-3.604.954-.848.185-1.776-.053-2.65.079l-.663-.132c-.212-1.59 5.38-1.405 6.307-2.597.477-.132.901-.768 1.246-1.06-.133-.212-.265-.822-.61-.901-.424.345-.98.504-1.272.928-.371 0-.848.477-1.113.026-.371-.212-.291-.662-.451-.98.159-.265.159-.424.186-.689.106-.822 1.935-1.59 1.723-2.862-.106-.477-.822-.398-1.087-1.007.53-.133.345-.318 1.06-.292 1.643.08 2.597 1.802 2.517 2.888 2.067-.159 2.173-.901 4.452-.079.583.212.477.397.477.822-.45.583-1.802.292-2.517.371zm-6.413 10.892c-.371.292-2.12.292-2.677.292-.662 0-.795.397-.768.583.503.212.371.716.689 1.06.689.239.981-.397 1.723-.291.689-.398 1.325-.954 1.484-1.643z" fill="#339"/><path d="M16.225 35.975c-.53.08-.954-.238-1.484-.212.186-.689.689-.344.901-.689.556-.318 1.723-.557 1.829-1.325-.848-.504-2.385-.265-3.339-.265-.61.238-2.041-.159-2.359.53.053.053.185.159.212.265l.133.106c.053.344.08.689 0 1.033-.291-.027-2.2 1.563-2.252 1.882.291.106 1.06.265 1.219-.132.821-.769 1.351-1.828 2.067-2.677.265.371 1.352.371 1.325.848l.185.265c0 .928-3.63 3.551-4.213 4.664.848.106 1.643-.132 2.438-.371l-.212-.689c-.424.371.026-.291.08-.344l.159-.186c1.245.371 1.855.424 2.465 1.776.026.503.159 1.51-.398 1.775-.265.026-.663.026-.928-.08-.609-.689-.53-1.325-1.537-.636.106.477.106 1.033-.053 1.51.133 2.094-.106 4.187-.291 6.281-.08.132-.106.292-.159.424-.08.238-.318.159-.53.106-.715-.238-2.756-2.836-3.339-3.578-.821.689-1.245 1.299-1.696 2.253-.212.424-.477.344-.901.291-.663-.901-1.404-1.961-.98-3.153.238-.662.053-1.431.954-1.352.053.053.133.106.212.132.239.371.583.716.875 1.087l3.1-.981-.026.477c-.239.053-.398.265-.663.371-.185.265-.556.424-.318.795.318.132 1.431.106 1.776.026.265-.079.424-3.578-.345-4.028-.556.079-2.544 1.378-2.915 1.06-.663-.583-.424-1.617-.159-2.358.504-.398 2.146-.981 2.279-1.722-.556-.106-1.06.185-1.59.318-.159.159-.45.132-.556.424-.398.132-.424-.132-.689-.371.133-.583-.159-1.193.026-1.776.398-.504 1.06-.716 1.484-1.166.662-.689 1.325-1.352 1.802-2.173-.45-.106-1.193.371-1.749.371-.663 0-1.908.318-2.438.769-.239.238-.345.556-.556.822-.238 1.563-.901 3.127-1.298 4.664l-.318.106c-.212-.106-.291-.239-.556-.159-.345-.795-.954-1.643-.875-2.57.08-.689.689-.875.954-1.431.185-.371.715-1.961.715-2.358 0-.662-1.034-.238-.928-1.166.185-.079.742-.026.954.027l1.537.742c0 .265.504-.08.61-.133.371-.53 3.021-1.431 3.71-1.457.106-.212.265-.397.291-.662-.954-.08-3.18-1.537-3.525-2.491.583-.079.901-.026 1.511 0l.291-.053c.689.027 1.325-.238 2.014-.371.398-.556.345-1.51.159-2.147-.345-.291-.769-.503-1.166-.715-.026-.159-.053-.345-.133-.451.159-.371.424-.715.848-.822 1.06.477 2.65.927 2.782 2.332.026.345-.026.742.159 1.06 1.193.318 1.511-.424 2.306 1.06.159 1.113-1.988 1.272-2.65 1.643-.053.424-.239.822-.239 1.298 1.113.133 2.226-.132 3.339-.132.451-.265 2.597.371 3.048.636.689.397 2.544 2.491 1.166 3.074-.689.159-2.676-.079-3.551.08zm.424 11.183c-.079-.132-.265-.079-.371-.079l-.159-.106c-1.245-.874-2.146-1.987-3.339-2.941.133-.663.715-.133 1.007-.371 1.166.053 2.889.106 3.524 1.298.451.848.742 2.332-.662 2.2z" fill="#084"/><path d="M37.213 42.6c-1.007 1.961-1.166 4.187-2.65 5.936-.344.424-1.139 1.166-1.669 1.192-.133-.132-.265-.292-.477-.344-.053-.477-.424-.795-.663-1.219-.344-.238-1.431-1.643-1.749-2.041 1.219.716 1.829.504 3.074.768.742-.689 2.146-4.664 1.855-5.618-.159-.636-3.684-.238-4.213.053.503.928 2.12.981 1.908 2.968.08.344-.053.662-.212.901-.742.238-.928-.265-1.352-.715-1.616-.026-5.433 1.934-5.857 1.934-.451-.715-1.776-.928-.981-2.067.742.159 1.669-.371 2.306-.768.212-.345.318-.822.159-1.219l-3.684 1.511c.291 1.564.663 2.809.291 4.426-.504-.318-.769-.742-1.06-1.272-.742-.583-.318-1.537-.583-2.332-.318.053-.583.239-.901.265-.53.265-1.511-1.034-1.086-1.352.477-.132 1.086-.265 1.511-.53 0-.424-.053-1.06.477-1.192.45-.398 3.021-1.749 3.074-2.041-1.166-.583-1.829-3.551-2.279-4.77.053-.318-.133-.874.239-1.033.159-.212.398-.265.61-.212l.133.265c.609-.371 1.192-.848 1.829-1.113-.371-.503-.398-1.245-.663-1.537-.344.159-2.332 1.352-2.544 1.245-.291-.133-.398-.477-.716-.689.106-.186-.583-.848-.318-1.431.583-.238.504-.265 1.06.08.556 0 1.776-.265 2.306-.504.53-.291-1.113-3.365-1.033-3.922.583.079 1.245.238 1.749.636.45.344 1.564 1.722 1.431 2.358.133.371 1.961-.106 2.253-.212.318-.716.424-1.537.662-2.279.186-.636-.504-1.352-.98-1.643.026-.662 2.041-.159 2.385.027 1.378.822 1.007 1.987.318 3.127.318.133 2.173-.715 2.782-.53.212.45 1.404 1.06 1.245 1.722-.53 0-4.69.662-4.902.848-.424.079-1.034 1.352-1.457 1.669.927-.106 2.067-.398 2.968-.318.848.053 2.65 1.219 2.385 2.252-.238.954-1.987 4.346-2.809 4.743-.212.238-.689.079-.954-.026l-.053-.318c-.371.079-.451.398-1.034.398-.212 0-.451.026-.662.159-.133.875-.079.424-.133 1.431.291-.026.583-.106.901-.185 1.431-.371 3.737-.795 5.194-.583.504-.371 1.669.053 2.094.477.265.291.795.848.848 1.245.212.609-.106.874-.371 1.378zm-10.838-2.677c-.742.026-3.896 1.855-4.372 2.412.344.556 4.001-1.192 4.717-1.484.159-.345.079-.742.079-1.113zm-.026-6.015c-.556.132-2.041.344-2.306.848.026.424-.106.874.079 1.272.371.848.53 1.511.504 2.438.716-.424 1.378-1.06 1.881-1.643-.504-.026-2.067-.318-2.306-.822.689-.451 2.041-.742 2.491-1.192.371-.345-.239-.583-.344-.901zm1.537-4.267c-.291.026-1.033.371-1.299.503-.053.663-.795 2.067-.716 2.544 1.193-.08 2.518-1.961 2.809-3.074h-.795zm1.855 12.057c-.344 0-.716.08-1.06.133-.026.45-.026.901-.133 1.378.583-.026 1.272-.026 1.828-.185-.238-.398-.424-.875-.636-1.325zm-1.086-8.162c.345.159.186.503.556.689.186.079.371.106.557.238.212.027.371.318.556.398.371.954-1.06 1.192-1.457 1.669l-.079.742c.715-.027.45-.106 1.06.159.345.265.186.159.451.291l.053-1.484c.106.424.053.292.397.371.186-.477 1.431-3.286.928-3.525-1.113-.53-1.934.318-3.021.451z" fill="#b32"/></svg>