<svg xmlns="http://www.w3.org/2000/svg" width="150" height="200" viewBox="0 0 39.7 52.9"><path d="M15 46.8c-.556.82-1.24 1.14-2.12 1.27-.556-.661-.344-1.51-.82-2.12-.238 0-.529-.053-.714.106-.847-.37-5.19.661-5.98 1.22-.344.079-.556.344-.926.344-.079-.106-.185-.132-.265-.238-.318-.37-1.32-2.01-1.4-2.49-.185-.106-1.51-4.84-1.53-5.34.238-.556.476-1.11.82-1.59l.344-.026c-.556 1.19.9 3.28 1.3 3.04l.37-.847h.106c.344-.556 1.85-.9 2.33-1.38-.132-.609-.476-1.11-.609-1.72.556-1.16 1.51.37 2.06.556.053.45.318.529.556.82.794-.265 1.96.132 1.96-1.16a.4.4 0 0 1 .027-.45c-.027-.476-.344-.82-.661-1.08-.185.026-.37-.079-.529-.185.132-.132 0-.159-.079-.238-1.35.476-2.86.053-4.26.741-.238 0-.318.291-.767.344-.027-.741 1.51-1.16 1.93-1.72.106.106.132.053.159-.053-.159-.423-1.01-1.51-1.32-1.98l.106-.344c.952-.079 4.82-.344 5.24-1.24.212-.132.397-.37.688-.344.212-.185.556.106.82.106.37.212 1.16.794 1.35 1.16.212.397.476.714.423 1.22s-2.73 1.11-3.02 1.4c.397.159.741.423 1.14.556.794.661 1.64.952 1.59 2.25 1.27-.159 2.57-.185 3.62.661.344.291 1.11 1.14 1.06 1.64-.318 1.53-2.12 5.77-2.99 7.12zm-8.49-5.56c-.132.053-.265.053-.397.079-.45.291-1.14.106-1.64.132-.397.582-.132 2.65-.132 3.41.397.238 2.22-.079 2.2-.476-.079-1.11-.106-2.04-.027-3.15zm2.8-1.14l-.265.132c-.291.185-.582.159-.476.609-.318.45-.423 2.73-.45 3.39.291-.026.873-.185 1.08-.423.291-.291.609-3.15.609-3.7zm3.52-1.08c-.582 1.38-1.03 2.91-1.51 4.34 0 .212.185.291.318.344.635 0 1.19-.132 1.3.609l.37.344c.82-.926 1.72-4.37 1.88-5.69-.238-.185-1.96 0-2.35.053zm22.9 6.91l-.609.106c-1.03.185-2.43-.318-3.52-.344-2.7-1.67-1.27-4.71-1.32-7.17-.265-.397-1.06.37-1.3.556-.926.82-2.7 2.59-2.67 3.92 0 1.27-.344 2.43-.661 3.65-.794-.026-.556-2.2-1.3-1.27-.688.9-1.08 2.54-2.43 2.54-.794.026-1.08-.714-1.4-1.35-.556-1.14 1.67-5.34 1.22-5.87-.423-.053-.767-.265-1.06-.609-.185-.767-.82-1.08-.609-2.01.556-.212 1.06.026 1.59-.106.82-.185 1.59-.556 2.43-.609l.185-.079c.185-1.19-1.08-2.91-1.11-4.58.344.026.529.185.767.397.847-.053 1.69.026 2.3.741 1.77 2.09.291 4.68.397 7.09l2.28-2.38c.423-.397.926-.714 1.3-1.19.529-.661.291-1.98.344-2.8.079-1.27.185-2.65-.529-3.73-.079-.661-.9-1.06-.423-1.77.952.053 1.43.741 2.2 1.11.185.106.423.159.609.265 1.27.529.556 2.86.688 3.92.609.529 1.48.185 2.12-.053.926-.37.926.476 1.46.952.079.529.212 1.01-.159 1.46-.397.476-2.14 1.14-2.83 1.72-.476.397-.952.767-1.59.556-.318 1.14-.609 2.96.132 4 1.53.609 2.96-.609 4.39-.238.45.132.82.45 1.27.635.423.609.9 1.16.741 1.98-.714.926-1.93.503-2.88.582zm-11.7-5.27c-.45.212-1.32 1.35-2.06 1.72-.344.714-.82 1.77-.609 2.59.926-.185 3.1-1.35 2.8-2.65.159-.318.185-.529.185-.873-.053-.185-.079-.926-.318-.794zm-8.12-16.4c-.926.37-1.4-.344-2.25-.582-.476-.476-.9-1.24-1.46-1.51-.37-.503-1.98-1.69-2.59-1.8-.265.794.185 3.89-.053 5.24-.106.661-.397 1.27-.582 1.9-.212.185-.291.476-.609.556a.762.762 0 0 1-.661-.714c-.45-1.01-1.48-1.59-1.96-2.57-.556-.318-.556-.926-.794-1.43-.661.529-2.57 2.62-3.33 2.99l-.476-.159c0-.635.979-1.46 1.35-2.01l-.318.714c.318-.106 1.53-2.01 1.83-2.17.767-1.53 1.3-1.14 1.22-3.2.106.344.291.741.212 1.11.318-.423.582-.9.82-1.35-.291-.079-.529.37-1.01.132-2.22-1.03-3.84-6.14-1.53-7.81.9-.185 1.61-.767 2.33-1.3-.741-.476-1.53-.556-1.77-1.53.556-.185 1.14-.185 1.67-.423.212.238.37-.291.688-.106.265-.185 1.16-.344 1.03-.82.529-.82-.82-1.51-.714-1.96.212-1.03 1.46-.423 2.06-.212.397.132 1.11 1.11 1.4 1.46.212.318.45.265.767.053.794.212 1.67.503 1.83 1.4-.556.609-3.31 1.46-3.25 2.12 0 .079-.027.423.027.45 2.17-.503 4.87-1.08 6.24 1.08.291.45.45 1.3.026 1.69-1.56 1.51-1.9 3.31-3.78 4.84-.318-.079-.556.291-.979.212-.344-.318-.556-1.06-1.11-.714-.238 0-.476.185-.609.37l.027.794c2.62.82 3.44 2.14 6.16 2.73 1.19.265 2.3.82 3.41 1.3.344.82-2.7 1.24-3.25 1.22zm-11.5-12.4c-.185.291-.132.635-.159.952.661-.265 1.32-.556 2.01-.661.397-.397 1.03-.318 1.48-.635l.027-.82c-1.11.397-2.33.556-3.36 1.16zm.318 1.77c-.847.185-.344 1.06-.265 1.61.185.318.106.741.37 1.01.106.45.132.952.344 1.38.873-.212 1.69-.661 2.28-1.35l-.079-.397c-.847 0-1.69-.185-2.46-.556-.027-.291.212-.265.344-.45.635-.079 1.08-.635 1.72-.661.291-.397 1.43-.079.714-.9-.979.212-1.98.106-2.96.318zm3.15 6.96a1.25 1.25 0 0 0-.556-.053l-1.56 2.12c0 .9 1.22 2.14 2.2 1.96.37-.794.027-1.67.132-2.51-.37-.476 0-1.03-.212-1.51zm2.46-8.55c-.476.159-.503.529-.503.952.688.106 1.53.132 1.9.767-.053.423-.185.847-.529 1.16-.476.212-.688.714-1.14.926-.027.106-.027.238-.106.318.212-.026.45-.026.476.238.318.106.635.265.952.397.688-.265 1.51-2.83 1.72-3.52.132-.476.079-.952.159-1.43-.767-.476-2.14-.106-2.94.185zm26.3 9.92c-.159 1.64-1.3 5.37-3.28 5.66-.291.053-.37-.106-.45-.318-.344-.45-.82-1.19-1.38-1.43-.159-.291-.529-.423-.688-.767-.212-.132-.37-.344-.609-.45-.185-.344-.159-.82-.556-1.06-.026-.238.185-.318.37-.291.582.529 2.91 1.51 3.68 1.08.952-1.61 1.48-6.06 1.32-7.99-.926-1.03-2.49-.635-3.7-.714-.318.344-.794 1.24-.873 1.72 2.67 1.3-.291 2.25-.476 2.94.45.079.979.265 1.3.609.37.212.926 1.14.344 1.43-.503.212-1.06.159-1.59.265-.185-.026-.318.079-.529.132-.291 1.08-.106 2.3-.556 3.36 0 .238-.053.45-.106.661-.291.026-.132.688-.609.476-.45-.45-.873-1.01-.873-1.67-.265-.476-.079-1.06-.238-1.56-.503 0-1.56.212-1.85-.132-.079-.741-.635-1.38.238-1.93.45-.079 1.75-.265 1.43-.952-1.19.423-2.3.635-2.2-.926.159-.291.45-.503.661-.794-.159-.344-.106-.9-.37-1.14-.503.053-1.06.45-1.59.582-.053.132-.159.238-.291.212-1.77 1.32.238 5.4-.661 6.46-.37.159-.344-.132-.582-.291-.688-.767-1.22-1.59-1.16-2.65 0-.37.053-.741.079-1.14.106-1.19-.767-3.02-.45-3.81.212-.529 1.06-.503 1.53-.476.926.318 1.88.053 2.43-.741.291.132.212-.45.291-.609.185-.106.37-.079.582-.106.582 0 .767-1.22.82-1.64-2.2-.291-3.07-.106-4.1-2.35.926-.027 1.83-.238 2.75-.318.026-.159.238-.185.37-.159.476-.212.952-.397 1.35-.714 0-.847.344-3.41 0-4.02-.159-.291-.873-.079-.979-.556-.106-.556.529-.661.82-.952.714-.132 1.46.397 1.88.9 1.4.688 1.01 1.85.9 3.04.238.027.503-.027.741-.053.979.212 2.78.45 2.91 1.75.026.238-.159.238-.344.291-.873.132-2.73.423-3.28 1.16-.265.159-.45 1.01-.529 1.3.767-.503.952-.503 1.88-.423.159.106.476.132.503.37.397.291.476.794.635 1.22 1.11.106 2.25-.027 3.33.159.847.212 3.33 1.53 2.8 2.62-.688 1.48-.82 3.1-1.06 4.74zm-14.8-4.31c.026 1.08.556 1.16.979.185-.291-.132-.635-.159-.979-.185zm5.13-.45c.026.423.132.82.212 1.19 1.32-.397 1.51-.556 1.75-1.85-.318-.159-1.53.45-1.96.661zm1.3-2.88c-.132.291-.185.609-.212.9.212-.027 1.4-.132 1.46-.265.635-1.48-.37-.952-1.24-.635z" fill="#339"/></svg>