<svg xmlns="http://www.w3.org/2000/svg" width="150" height="200" viewBox="0 0 39.7 52.9"><path d="M10.435 10.83c.212.133.45.212.53.265 1.298.556 1.59.822 2.252 2.12.928-2.067 2.041-2.756 6.095-3.869l.106-2.57c0-1.431-.318-1.855-1.431-1.855l-.133-.291c.901-.848 1.537-1.192 2.12-1.192.769 0 2.067.424 2.703.901.159.106.291.318.291.477 0 .186-.106.61-.291 1.06-.159.451-.212.901-.451 2.57l1.086-.238 1.643-.345c.583-.132 1.007-.212 1.325-.212 1.219 0 4.426 2.491 4.426 3.418 0 .371-.053.424-2.094 1.988l-1.484 1.245c-.186.132-.742.609-1.299 1.06.291.45.424.901.424 1.219 0 .344-.291.636-.742.689-.106.026-.106.026-1.961.079-.609 0-.662.027-1.564.106l-.133 5.538c0 1.087-.212 2.942-.451 3.869-.212.928-.795 1.987-1.113 1.961-.689-.027-1.378-2.332-1.378-4.611v-.292l.053-5.989-2.438.609c-.45 0-.901-.185-1.616-.689.053.318.053.636.053.901 0 .292-.159.53-.424.53-.583 0-1.617-.556-2.279-1.298-.821-.848-.901-1.06-1.007-3.074-.053-.927-.159-1.192-.689-2.12-.371-.689-.504-.954-.504-1.246 0-.159.026-.371.133-.662zm8.772 1.113c-2.571 1.166-2.836 1.245-4.081 1.272-.663.026-1.087.609-1.087 1.537 0 .371.053.874.185 1.431l4.876-1.087zm4.134 2.623c1.749-2.067 2.995-3.895 2.995-4.452 0-.212-.212-.371-.504-.371-.663 0-1.723.265-3.657.98l-.053 3.948z" fill="#b32"/><path d="M36.246 26.73H24.957c-1.616 0-2.438.636-2.438 1.908v19.186c0 1.272.821 1.908 2.438 1.908h11.289c1.617 0 2.438-.636 2.438-1.908V28.638c0-1.272-.822-1.908-2.438-1.908zm1.245 21.121c0 .848-.424 1.272-1.245 1.272H24.957c-.821 0-1.245-.424-1.245-1.272V28.665c0-.848.424-1.272 1.245-1.272h11.289c.822 0 1.245.424 1.245 1.272zm-2.676-19.663h-8.401c-1.193 0-1.802.557-1.802 1.669v16.748c0 1.113.609 1.669 1.802 1.669h8.401c1.192 0 1.802-.556 1.802-1.669V29.857c0-1.113-.61-1.669-1.802-1.669zm-9.328 1.696c0-.742.318-1.113.928-1.113h.556v.662c0 .742-.318 1.113-.927 1.113h-.556zm1.484 17.835h-.556c-.61 0-.928-.371-.928-1.113v-.662h.556c.609 0 .927.371.927 1.113zm8.745-1.113c0 .742-.318 1.113-.928 1.113h-.556v-.662c0-.742.318-1.113.928-1.113h.556zm0-1.219h-.556c-.954 0-1.431.556-1.431 1.669v.662h-6.228v-.662c0-1.113-.477-1.669-1.431-1.669h-.556V31.103h.556c.954 0 1.431-.557 1.431-1.67v-.662h6.228v.662c0 1.113.477 1.67 1.431 1.67h.556zm0-14.867h-.556c-.609 0-.928-.371-.928-1.113v-.663h.556c.61 0 .928.371.928 1.113z" fill="#339"/><path d="M21.803 36.8c-.053.159-.821.133-.927.159-.583.133-1.272.689-1.802.504-.901-.345-1.537-1.908-2.624-2.888-.106-.106-.238-.318-.424-.318l-.636 2.305.08.132c.185.106.609.053.927.133.132.159.344.053.424.265.291.371.583.716.583 1.246-.344.291-.159.45-.689.477-.424.027-.795.239-1.245.345-.291.238-.636.398-.901.662l.344.08c1.14.53 1.484 2.067.53 2.994l-.583 1.352c1.537 1.749 4.452 1.325 4.558 4.478-.291.345-.026.928-.53 1.113-1.113-.609-4.373-4.187-5.247-3.922-1.458.398-1.51 1.828-4.028 1.298-.398-.079-1.192-.927-.98-1.457l-.08-.451c.477.477 1.086.848 1.881.663.636-.133 1.511-.901 1.749-1.511-.556-.504-2.491-1.378-3.154-.848-.159.557-.45 1.193-.715 1.723-.159 1.033-2.173 3.737-3.312 3.074-1.034-.609-1.405-3.551-.928-4.611.053.345.663 2.094 1.034 2.041.848-.106 1.855-2.147 1.828-2.968-.291-.609-2.65 1.245-3.286.875-.345-.609.133-.981-.08-1.59.291-.292.53-.768.98-.742.477-.318 1.139-1.06 1.51-1.563-.583.159-1.139.318-1.749.345-.318-.53 0-1.299.291-1.749.556-.451 1.06-.345 1.59-.98.345-.424.875-.742 1.113-1.272-.291-.318-.822-.053-1.113-.45-1.272 1.245-2.252 2.04-3.975 2.57-.927.292-2.093.53-.848-.556l1.086-.689c1.007-.98 2.226-1.563 2.835-3.207-1.086-.132-.344-.053-1.219-.291-.715-.477-1.272-1.828-.769-2.703.928-.026.715-.185 1.696.186.185.079.477.185.662.026.795 0 1.193-.742 1.272-1.484-.398-.133-2.252-1.193-2.067-1.723.159-.132.318-.106.477-.079l.212-.08c1.325.318 2.571-2.332 3.975-.291l.133.318.239.795c.398-.08.848-.027 1.193-.186.424-.185 2.465-1.484 2.332-2.014-.318-.132-.61-.477-.371-.822.398.027 1.431.106 1.696.45.53.133.53.848.927 1.166-.079.345.159 1.166-.318 1.246-.477.318-1.882.53-2.491.715.504.318.928.715 1.352 1.113.504.397 1.935-1.113 2.173-1.537.212-.371.106-.503.079-.901.053-.371.53-.185.742-.185.583.477 1.908 1.325 1.431 2.332-.371.106-3.154 1.087-3.259 1.219 2.252 2.756 5.22 3.63 6.545 5.645zm-7.076-3.948l-.795-.848c-.238-.185-.265-.318-.768-.212-.424.079-1.669.53-2.04.503-.318 0-.053-.239.159-.212.53-.424 1.298-.45 1.775-1.007-.583-.556-2.703-2.465-3.419-1.722-.927.901-1.961 3.79-2.889 5.247.45-.132 1.961-1.06 2.385-.768.291.053.663.318.848.291.239.583.848.716.61 1.457-.477.451-1.696 1.484-1.908 2.093.185.106.397.212.53.371.318.106.265.609.239.874-.768.848-1.828 1.299-2.544 2.2.345-.053.663 0 .928.053.265-.027.689.159.822.45.424.265.477 1.087.477 1.564.291-.583.61-.768 1.087-.875-.212-.212-.265-.583-.477-.795-.026-.238.053-.424.265-.504 1.511-.504 2.915-1.245 3.975-2.518.212-.238.079-.344-.133-.556-.398-.397-.265-1.987-.08-2.517-.133-.026-1.458-.265-1.034.212-.265 1.087-.98 3.895-1.669 4.664-.556.609-1.034-.477-1.007-1.007-.345-.159-.133-.689-.185-1.007.689-.504.636-1.484.98-2.2.424-.875-.185-1.404.106-2.279.159-.026.398.027.477.186.318.053.45.424.742.318.583-.557 1.908-1.59 2.703-1.246.186.186-.053-.132-.159-.212zm-3.498 9.62c.45.106 1.457.556 1.722.928.371-.398.663-1.643.689-2.226-.45-.451-2.04.901-2.411 1.298z" fill="#084"/></svg>