<svg xmlns="http://www.w3.org/2000/svg" width="150" height="200" viewBox="0 0 39.7 52.9"><path d="M35.3 31c-1.08.185-3.57-.318-4.79-.529-2.8-.37-5.72-.556-8.52-.132l-.503 14.7c-.185.741-.291 1.46-.847 1.98h-.423v.291c-2.8-1.32-1.32-15.2-2.3-15.9-1.11-.714-8.47 3.02-9.84 3.81-.979.609-2.38.847-3.57.952-1.59-1.38-1.53-.979-1.4-3.1.238-.423.476-.794 1.03-.9.238.291 1.77-.106 2.25-.132 3.52-1.59 7.12-3.07 10.8-4.31.185-1.08-1.59-1.98-2.12-3.07-.926.291-3.15 3.1-5.16 3.76-1.08-1.14-.503-4.18.979-4.74 1.64-2.01 3.41-4 4.5-6.35-1.72.423-3.28 1.56-5.05 1.88-1.4-.053-2.49-.529-3.33-1.59-.185-.979-.661-2.22.291-3.02.476-.132.926-.37 1.46-.37 2.43-1.14 5.24-.952 7.59-2.35.609-.318 2.54-1.8 2.62-2.41-.926-1.08-2.2-2.01-2.99-3.2v-.529c1.35-.106 4.79-.106 6.01.37.503.238.609.714.9 1.14l.318.132c.661 1.38.291 2.96-.714 4.1.9-.185 4.02-1.08 4.58-.291.979.423 1.72 1.16 1.51 2.3-1.46.661-3.36 1.69-4.97 1.22.106.423 1.11.952 1.53 1.14.979 1.08.847 2.06.9 3.44.661.291 1.53-.238 2.3.423.476.053.794.423 1.16.661.053.661.106 1.32.318 1.93-.847 1.46-6.43 5.08-8.1 5.45.053.132.106.318.185.423.556-.132 1.16-.37 1.72-.318 1.69-.423 9.84-1.56 10.9-.423.106.053.238.106.291.106 1.22.476 1.53 1.59 1.77 2.73-.265.476-.767.714-1.27.767zM13.6 14.1c-.794 0-4.44.423-4.79 1.03.979.106 1.83-.106 2.73.106.556-.37 1.77-.185 2.14-.794.053-.106.159-.344-.079-.344zm6.22 2.09c-2.01.185-4.97 4.55-3.47 5.98 1.88-.37 2.2-2.73 3.1-4.1.423-.661.979-1.32 1.16-2.12-.265-.053-.582 0-.794.238zm2.35.185c-2.49 2.3-2.91 4.74-3.57 7.91h.741c.053-.741.476-1.38.9-1.98 1.22-.476 2.91-4.31 2.96-5.64-.344-.159-.661-.291-1.03-.291zm.979 6.67c-.609.661-1.22 1.32-1.96 1.8-.106.106-.556.37-.318.529.926.556 3.04-1.51 3.65-2.12-.291-.714-.9-.397-1.38-.212z" fill="#084"/></svg>