<svg xmlns="http://www.w3.org/2000/svg" width="150" height="200" viewBox="0 0 39.7 52.9"><path d="M32.6 24.6c-1.22-.185-2.43.318-3.65.318 0 1.14-.767 2.25-.291 3.33-.344 1.38.053 2.78-.185 4.13.291.053 1.06.053 1.27-.185 1.56-.37 3.44-.794 4.58.794.767.132.688.741 1.27 1.08.397.661.688 1.03.291 1.83-.926.9-1.51.741-2.67.714-2.33-.529-5-.238-7.09.741a4.01 4.01 0 0 0-2.54.476c-.476.556-2.67.556-3.41.476-.688-.37-2.62-2.12-2.33-2.91.688-.37 1.75.053 2.09-.476l4.18-1.51c.45-.185.291-.741.291-1.14.053-1.14.344-4.47.106-5.37-.767.37-2.14.794-2.73 1.46-1.11.476-1.98-.291-2.96-.794 0-.318-.979-.661-1.22-.741-.529-.185-.873.609-1.75.423-.291.106-.529-.132-.82-.106-.529 0-.979.529-1.46.661-.635.714-1.61 1.46-1.51 2.54.106.794.397 1.56.45 2.41.106 1.75-.159 3.47.106 5.27-.45 1.64 1.16 3.25-.291 4.74-.741.238-1.03-.053-1.56-.476l-1.32-2.91c-1.16-1.14-.344-2.65-.397-3.94 0-1.93.476-3.92-.053-5.82-.291-.185-.767-.661-1.03-.714-.741.556-1.35 1.27-1.9 2.01-.45-.053-.688.238-.979.529-1.9 1.64-2.22-3.25-1.16-4.66 1.85-.106 4.66-6.83 5.98-8.23 1.11-3.1 2.04-3.02-.159-6.06 1.32-.794 5.21 2.22 5.79 3.33.106.714.582 1.03.238 1.8-.741 1.88-2.04 3.44-3.07 5.21-.767.556-2.43 2.73-3.07 3.57 0 .714 1.16 1.51 1.46 2.17.106.106.344.238.397.37 1.8-3.57 10.3-4.37 13.4-6.64.159-3.94.635-5.98-.979-9.79-.291-.714-.344-1.75.476-2.12.45-.238.873-.318 1.4-.318 5.11 1.46 2.2 6.48 3.15 10.1 1.64.714 3.2-1.27 5 0 1.35.979 2.83 1.4 2.33 3.39-.265 1.61-2.54.661-3.62 1.03zm-7.33-12.9c-1.22.556-.476 1.51.053 2.41z" fill="#339"/></svg>