<svg xmlns="http://www.w3.org/2000/svg" width="150" height="200" viewBox="0 0 39.7 52.9"><path d="M1.71 28.9c.45.503.767.714 1.08.714.159 0 .397-.106.767-.238.45-.238 1.48-.609 2.96-1.11.767-.212 3.28-1.22 5.9-2.3v-3.89c-1.43.159-1.96.45-5.37 3.07-2.14 1.61-2.8 2.06-4.1 2.67l-.265-.159.714-.714c1.48-1.61 1.85-2.06 2.35-3.12-2.14-1.75-2.91-2.57-2.91-3.15 0-.291.053-.45 1.19-1.8l1.08-1.16c.106-.106.979-2.17 1.19-2.62.318-.9.45-1.56.45-2.46 0-1.24-.106-1.56-.609-2.2l.106-.238c.318-.106.556-.212.714-.212.503 0 1.64.556 2.41 1.16.82.661 1.38 1.61 1.38 2.41 0 1.22-.609 3.25-1.53 5.03.397.159.661.212.82.212.265 0 .767-.159 1.43-.291.318-.106.82-.238 1.43-.397l.159-4.31c.053-.741.053-1.9.053-3.52 0-1.69-.265-2.25-1.59-3.07V6.81c.661-.212 1.27-.344 1.69-.344 1.85 0 4.44 2.62 4.44 4.47 0 .714 0 .714-.767 3.7-.661 2.57-1.22 6.38-1.22 8.57v.397l.053 2.91c.609.212.714.238 1.22.556 1.9 0 3.62-.503 8.26-2.2l3.49-1.24v-.397c0-1.24-.212-1.67-1.22-2.7-4.26 3.76-6.46 5.08-8.55 5.08-1.03 0-1.69-.503-2.46-1.8l.159-.159c.37.106.609.159.767.159 1.08 0 1.96-.503 4.26-2.51-1.27-1.35-1.43-1.61-1.9-3.07l-.873.053c-.503.106-.926.159-1.03.159-.159 0-.397-.053-.767-.106l-.053-.291c1.38-.794 1.85-1.3 2.86-2.8 2.2-3.31 3.44-5.77 3.44-6.83 0-.609-.318-1.01-1.53-2.06l-.053-.503 2.04-.344c.767 0 2.04.556 2.86 1.24.714.609.926 1.16.926 2.41l2.14-.556c.159-.053.397-.212.82-.344l.714-.344c.212-.106.45-.159.767-.159.82 0 1.08.159 3.02 2.06 1.03.953 1.32 1.46 1.32 2.06 0 .661-.159.794-1.64 1.8-.265.106-1.14.9-1.98 1.75l-3.28 3.2a14 14 0 0 1 1.43.609c1.8.714 2.46 1.35 2.46 2.46 0 .238-.053.556-.106.9l2.3-.556c1.08 0 1.06.582 2.2 1.48.767.661 1.08 1.11 1.08 1.75 0 .741-.661 1.24-1.69 1.24-.318 0-1.22-.026-1.8-.026-.503 0-1.19.053-2.09.106l-.106 4.15.159 5.11.053 2.96c0 3.2-.979 5.98-2.86 7.83-.503.503-.873.741-1.08.741-.37 0-.45-.053-1.69-1.61-.37-.503-1.14-1.3-2.09-2.2l-2.09-2.01-2.96-3.52.053-.238 1.22.556 3.68 1.85c.979.45 1.69.714 2.09.714.979 0 1.43-1.9 1.43-6.27l-.265-7.33-1.53.45-3.28 1.4a39.87 39.87 0 0 0-1.69.661c2.41 1.22 3.28 2.2 3.28 3.65 0 .9-.714 1.8-1.48 1.8-.318 0-.926-.159-1.75-.397-.979-.344-1.69-.45-4-.503v-.212c1.38-.9 1.69-1.22 2.3-2.01-.265-.291-.397-.45-.45-.556l-.503-1.16s-.159-.344-.37-.661c-1.19-.344-1.43-.503-2.41-1.46-.37.503-.45.556-1.14.794l-.053 8.57c0 4.58-.503 7.06-1.38 7.06-.265 0-.503-.291-.82-1.01-1.08-2.17-1.43-3.65-1.43-5.72v-.45l.106-6.98-3.78 1.67c.212.952.212 1.4.212 2.41 0 1.85-.265 2.91-1.14 4.58s-1.69 2.46-2.46 2.46c-.45 0-1.19-1.56-1.19-2.62 0-.291 0-.291.767-1.24.37-.45.661-1.8.661-2.8 0-.714-.106-1.06-.45-1.85-1.48-.503-2.14-.847-2.8-1.51-.609-.609-1.08-1.3-1.08-1.69 0-.238.212-.661.503-1.11zm23.8-11.4c-1.14-.952-1.27-1.11-2.25-2.2-.767 1.01-.926 1.16-1.75 1.9 1.19.556 1.38.714 2.57 1.67zm-.423-4.21c1.64.609 1.9.741 2.91 1.61 1.53-2.06 1.9-2.67 2.25-3.92-.556.053-1.14.159-1.32.212l-2.25.45-.318-.053z" fill="#339"/></svg>