<svg xmlns="http://www.w3.org/2000/svg" width="150" height="200" viewBox="0 0 39.7 52.9"><path d="M16.2 11.6c0-1.85-2.83-2.22-2.91-2.33a.83.83 0 0 1-.159-.344c-.027-.132.688-.212 2.14-.238l.9-.106c.714.053 1.85.529 3.44 1.4 1.56.873 1.85 1.27 1.85 1.27.503.609.767 1.22.318 2.54l-2.04 2.46-2.78 2.43c-1.01.556-1.77 1.43-2.59 2.06l-5.03 4.05c.318.318 1.59.741 1.8.847s1.77.053 2.25.079 1.46.185 1.64.185l2.78 1.4.847-1.01 1.72-2.04 1.93-2.38c.714-.82 2.14-1.98 2.73-2.83l1.59-2.38.714-1.64c.265-.212.212-1.01-.053-1.51-.609-1.19-2.35-1.43-2.38-1.51l1.93.079c.423.106.873.291 2.96 1.59s2.41 1.43 1.98 2.25l.053.529c.212.45-.45 1.08-.45 1.27-.079.37-.635.873-.847 1.38-.185.476-1.72 2.43-2.06 2.73l-3.89 4.15 3.12 2.2c.979.582 1.9 1.22 2.75 1.96s2.01 2.83 2.59 3.41c.582.609 1.06 2.43 1.59 3.49l.476 2.57.106 2.49-.529 1.11h-.423c-.318.45-1.77 1.16-1.77 1.16-.609.318-3.23-2.38-3.23-2.38-.132-.265-.212-.476-.212-.688l-.212-1.22c-.132-.265-.185-.741-.291-.794-.106-.026-.767.026-1.27.238-.212.053-.556 0-1.22.026s-1.27 0-2.14.212l-1.59.344c-.079.026-1.24.106-1.46.238l-5.37 1.27c-.556.159-1.27.212-2.22.688s-4.52 1.19-5.64 1.61c-1.24.397-2.01.37-2.3-.053s-.423-.847-.423-1.27l-.053-2.01-.318-1.08c.132-.185.265-.318.344-.344s1.64-.318 1.64-.582l1.4-.661c1.03-1.4 2.09-2.33 2.17-2.46 0 0 .635-.952.873-1.11s.609-.714 1.14-1.46l2.04-1.77 2.12-2.17c-.529 0-2.57-.053-2.83-.079-.503-.079-1.01.026-1.01-.053l-.873-.132c-.37.265-.714-.132-1.06-.079-.344.026-.397-.159-1.11 0s-.661.714-1.8.212c-1.14-.476-1.27-.423-1.27-.582-.106-.397-.318-.767-.556-1.08-.027-.053-.053-.079-.079-.132-.132-.238-.238-.794-.265-1.72-.027-.9-.027-1.43.053-1.56s.344-.265.847-.45c.45-.132 4.97-4.21 7.36-6.8 2.17-2.33 2.3-3.65 2.51-4.44m-4.1 25.8c.212.132 1.77-.344 1.88-.37.079-.026 2.46-.529 3.31-.582l4.66-.741c.397-.026 1.08.026 2.04.185.952.159 2.65.318 4.18.132l-.476-1.85s-.45-1.11-.45-1.3l-.529-1.22-.847-1.9-.529-1.08-1.51-2.28z" fill="#b32"/></svg>