<svg xmlns="http://www.w3.org/2000/svg" width="150" height="200" viewBox="0 0 39.7 52.9"><path d="M3.99 29.3c.476.37 1.27-.026 1.4-.079.82-.291 2.43-1.19 3.18-1.67.397-.265.9-.82 1.32-1.32l5.03-5.64c.847-.635 1.61-1.51 2.59-2.06l2.78-2.43 2.04-2.46c.45-1.32.185-1.93-.318-2.54 0 0-.291-.397-1.85-1.27s-2.73-1.35-3.44-1.4l-.9.106c-1.46.027-2.17.106-2.14.238a.82.82 0 0 0 .159.344c.079.106 2.91.476 2.91 2.33l.053.582c-.212.794-.344 2.12-2.51 4.44-2.41 2.59-7.65 8.57-8.55 9.68-.767.952-.926-.503-1.59 1.22-.159.423-.423 1.72-.159 1.93zm31.7 10.2c0-.185-.476-2.57-.476-2.57-.529-1.03-1.01-2.88-1.59-3.49s-1.72-2.7-2.59-3.41c-.847-.741-1.77-1.38-2.75-1.96-.979-.556-2.3-1.67-3.12-2.2l3.89-4.15c.344-.291 1.88-2.25 2.06-2.73s.767-1.01.847-1.38c0-.185.661-.82.45-1.27l-.053-.529c.423-.82.106-.952-1.98-2.25s-2.54-1.48-2.96-1.59-1.11-.079-1.93-.079c.026.079 1.77.318 2.38 1.51.238.476.318 1.3.053 1.51l-.714 1.64c-.079.053-1.01 1.56-1.59 2.38s-2.01 2.01-2.73 2.83l-1.93 2.38-4.13 4.76c.026 0-2.06 2.17-2.06 2.17l-2.04 1.77c-.529.741-.9 1.3-1.14 1.46s-.873 1.11-.873 1.11c-.079.132-1.14 1.08-2.17 2.46l-1.4.661c0 .265-1.53.556-1.64.582-.079.026-.212.159-.344.344l.318 1.08.053 2.01c0 .423.132.847.423 1.27s1.06.45 2.3.053c1.11-.423 4.68-1.11 5.64-1.61.952-.476 1.67-.556 2.22-.688.556-.159 5.37-1.27 5.37-1.27.212-.132 1.38-.212 1.46-.238s.688-.132 1.59-.344c.9-.185 1.48-.159 2.14-.212.661-.026 1.01.026 1.22-.026.503-.185 1.14-.265 1.27-.238.106.026.132.529.291.794l.212 1.22c0 .185.079.423.212.688 0 0 2.62 2.73 3.23 2.38 0 0 1.46-.714 1.77-1.16h.423l.529-1.11zm-11.2-3.36c-.952-.159-1.64-.238-2.04-.185-.397.026-4.66.741-4.66.741-.82.053-3.2.556-3.31.582-.079.026-1.67.503-1.88.37l11.7-11 1.51 2.28.529 1.08.847 1.9.529 1.22c0 .185.45 1.3.45 1.3l.476 1.85c-1.51.159-3.2 0-4.15-.159z" fill="#b32"/></svg>