<svg xmlns="http://www.w3.org/2000/svg" width="150" height="200" viewBox="0 0 39.7 52.9"><path d="M32.2 41.9c-1.83.661-2.17-.9-3.84-1.32-.9-.847-2.46-3.44-3.55-3.89-.741-.9-3.92-3.25-5.08-3.44-.529 1.4 1.19 7.62.714 10-.212 1.16-.582 1.93-1.11 2.57-.423.318-1.4.847-2.01.979-.741-.106-1.24-.609-1.3-1.27-.847-1.77-2.88-2.8-3.86-4.5-1.06-.556-1.06-1.64-1.56-2.51-1.3.926-5.11 4.18-6.61 4.84l-.952-.212c-1.19-1.27 1.01-2.91 1.69-3.89l.344.926c.635-.185 3.97-3.65 4.55-3.92 1.51-2.7 1.64-.873 1.53-4.47.212.609.582 1.3.423 1.96.635-.741 1.11-1.59 1.61-2.38-.582-.132-1.01.661-1.98.238-4.34-1.83-7.49-10.8-2.99-13.7 1.77-.318 3.15-1.35 4.55-2.3-1.46-.847-2.99-.979-3.47-2.7 1.06-.318 2.25-.318 3.25-.741.423.423.741-.503 1.35-.185.529-.318 2.3-.609 2.04-1.46 1.01-1.46-1.61-2.67-1.4-3.47.423-1.83 2.83-.741 4.07-.37.794.238 2.2 1.96 2.73 2.57.423.556.847.476 1.51.106 1.56.37 3.25.9 3.6 2.49-1.06 1.08-6.48 2.57-6.38 3.73 0 .132-.053.741.053.794 4.23-.9 9.52-1.9 12.3 1.9.582.794.847 2.3.053 2.99-3.04 2.67-3.76 5.79-7.43 8.52-.635-.132-1.06.503-1.93.37-.688-.556-1.06-1.88-2.2-1.27-.476 0-.9.318-1.16.661l.053 1.14c5.13 1.46 8.84 5.4 12.3 6.46 1.75.714 2.75 1.53 4.92 2.38.635 1.4-3.73 2.43-4.79 2.38zM9.5 18.3c-.37.503-.265 1.11-.318 1.69 1.3-.476 2.57-.979 3.97-1.16.794-.688 2.04-.556 2.88-1.11l.053-1.46c-2.14.688-4.55.979-6.59 2.04zm.635 3.15c-1.67.318-.688 1.88-.529 2.86.37.556.212 1.3.741 1.77.212.794.265 1.69.688 2.43 1.72-.37 3.31-1.16 4.44-2.38l-.159-.688c-1.67 0-3.31-.318-4.82-.979-.053-.503.423-.476.688-.794 1.24-.132 2.14-1.11 3.36-1.16.582-.714 2.78-.132 1.4-1.59-1.9.344-3.89.132-5.82.529zm6.16 12.2c-.318-.106-.688-.132-1.06-.106-1.06 1.22-1.98 2.51-3.04 3.73 0 1.59 2.41 3.78 4.29 3.47.741-1.4.053-2.94.265-4.39-.794-.873-.026-1.88-.45-2.7zm4.82-15c-.9.291-.952 1.46-.952 2.22 1.93-.661 3.94-.847 4.29.82.106 1.24-.926 1.51-1.56 2.06-.9.37-1.35.741-2.25 1.11-.053.185-.053.952-.212 1.08.423-.053.847-.053.9.423.635.185 1.24.476 1.88.688 1.35-.476 2.94-4.95 3.36-6.16.265-.847.159-1.69.318-2.51-1.48-.926-4.23-.265-5.77.265z" fill="#339"/></svg>