<svg xmlns="http://www.w3.org/2000/svg" width="150" height="200" viewBox="0 0 39.7 52.9"><path d="M33.4 37.2c-.45 2.88-2.86 9.31-6.59 9.63-.556.053-.714-.212-.794-.609-.609-.82-1.43-2.17-2.41-2.65-.291-.529-.926-.794-1.19-1.43-.397-.265-.688-.635-1.08-.847-.318-.635-.238-1.46-.926-1.9-.026-.423.37-.556.741-.476 1.03.979 5.29 2.94 6.75 2.25 1.93-2.75 3.28-10.5 3.12-13.9-1.64-1.9-4.58-1.35-6.85-1.61-.635.582-1.59 2.12-1.77 2.96 4.87 2.54-.741 3.89-1.11 5.08.794.185 1.8.556 2.33 1.19.688.397 1.61 2.09.529 2.57-.926.318-1.98.185-2.96.318-.344-.053-.609.106-.979.185-.661 1.88-.397 4-1.3 5.82-.026.423-.132.794-.265 1.16-.556.026-.318 1.19-1.16.794-.767-.847-1.53-1.85-1.48-3.02-.476-.873-.053-1.88-.318-2.78-.926-.053-2.91.238-3.44-.397-.079-1.32-1.06-2.49.635-3.39.82-.106 3.28-.318 2.73-1.56-2.28.635-4.31.9-3.97-1.83.318-.503.847-.847 1.3-1.35-.265-.635-.132-1.59-.609-2.04-.926.053-2.01.688-2.99.873-.106.238-.318.397-.582.344-3.41 2.17 1.06 10.8-1.51 12.6-.714.238-.661-.265-1.03-.556-1.19-1.43-2.41-4.23-2.22-6.06.027-.661.159-1.3.265-2.01.318-2.09-1.16-5.34-.476-6.72.45-.926 2.04-.794 2.88-.688 1.69.635 3.49.265 4.58-1.08.556.265.45-.767.609-1.06.37-.159.714-.106 1.08-.132 1.06.053 1.53-2.06 1.67-2.83-4.05-.714-5.69-.476-7.41-4.5 1.72.026 3.41-.238 5.16-.318.053-.265.476-.291.714-.238.873-.318 1.8-.609 2.54-1.14.079-1.48.952-5.95.344-7.04-.291-.529-1.61-.212-1.77-1.06-.159-.979 1.03-1.11 1.61-1.61 1.32-.159 2.65.847 3.41 1.77 2.54 1.35 1.72 3.36 1.4 5.4.45.079.926 0 1.38-.027 1.8.476 5.13 1.06 5.29 3.36.026.423-.318.397-.688.476-1.64.159-5.11.503-6.19 1.75-.529.265-.9 1.75-1.08 2.25 1.46-.82 1.83-.794 3.55-.582.291.212.847.265.873.688.741.556.794 1.46 1.06 2.2 2.06.291 4.15.159 6.19.582 1.56.45 6.06 3.02 5 4.84-1.56 2.67-1.96 5.45-2.57 8.33zM6.2 28.26c-.053 1.9.926 2.12 1.8.423-.529-.265-1.19-.344-1.8-.423zm9.58-.318c.027.741.185 1.46.291 2.12 2.46-.582 2.83-.847 3.41-3.1-.582-.318-2.91.635-3.7.979zm2.65-4.92c-.291.503-.397 1.06-.476 1.56.397-.026 2.59-.106 2.73-.344 1.32-2.54-.582-1.69-2.25-1.22z" fill="#339"/></svg>