<svg xmlns="http://www.w3.org/2000/svg" width="150" height="200" viewBox="0 0 39.7 52.9"><path d="M30.8 39.6c-1.08 1.46-2.46 2.01-4.26 2.25-1.14-1.16-.688-2.67-1.64-3.73-.503 0-1.03-.106-1.43.185-1.69-.661-10.4 1.16-12 2.14-.688.132-1.08.609-1.88.609-.159-.185-.397-.238-.556-.423-.635-.661-2.67-3.55-2.83-4.34-.344-.185-3.02-8.52-3.07-9.39.503-.979.952-1.96 1.64-2.8l.688-.053c-1.08 2.12 1.77 5.74 2.57 5.32l.741-1.51h.185c.688-.979 3.7-1.59 4.66-2.43-.238-1.08-.952-1.96-1.24-3.04 1.08-2.06 3.02.661 4.1.979.106.794.635.926 1.08 1.46 1.59-.476 3.92.238 3.92-2.06a.64.64 0 0 1 .053-.794c-.053-.847-.688-1.46-1.32-1.9-.397.053-.741-.132-1.03-.318.238-.238 0-.291-.159-.423-2.73.847-5.74.106-8.52 1.3-.503 0-.635.503-1.53.609-.053-1.3 3.02-2.06 3.86-3.04.185.185.238.106.291-.106-.291-.741-2.04-2.67-2.67-3.49l.185-.609c1.93-.132 9.66-.609 10.5-2.2.45-.238.794-.661 1.38-.609.45-.318 1.14.185 1.64.185.741.37 2.33 1.4 2.73 2.06.45.688.952 1.27.847 2.14-.106.9-5.45 1.96-6.03 2.49.794.291 1.48.741 2.28.979 1.59 1.16 3.25 1.69 3.18 3.92 2.51-.291 5.13-.318 7.28 1.16.688.503 2.22 2.01 2.12 2.91-.344 2.78-3.94 10.2-5.74 12.6zm-17-9.76c-.238.106-.556.106-.794.132-.9.503-2.28.185-3.25.238-.794 1.03-.238 4.63-.238 5.98.794.423 4.44-.132 4.39-.847-.238-1.9-.291-3.55-.106-5.5zm5.58-2.01l-.556.238c-.582.318-1.19.291-.952 1.08-.635.794-.847 4.76-.9 5.93.582-.053 1.72-.318 2.17-.741.582-.503 1.24-5.5 1.24-6.51zm7.09-1.88c-1.19 2.43-2.09 5.11-3.02 7.62 0 .37.344.503.635.609 1.3 0 2.38-.238 2.57 1.08l.741.609c1.64-1.64 3.47-7.67 3.76-10-.476-.344-3.89 0-4.68.079z" fill="#339"/></svg>