<svg xmlns="http://www.w3.org/2000/svg" width="150" height="200" viewBox="0 0 39.7 52.9"><path d="M25.497 3.445c.079-.079.133-.265.106-.318-.079-.079-.239-.159-.344-.132-.371.132-.742.238-1.086.45-.53.345-.981.742-1.511 1.113l-1.351.901c-.265.212-.556.53-.583.795-.026.371-.159.424-.424.371-.61-.159-1.616-.133-2.465.238-.106.053-.768.371-.424.954.159.265.795-.106 1.511-.159 1.272-.079 2.385.689 3.339 1.537.662.556 1.166 1.617 1.245 2.358.106 1.033.026 2.014-.663 2.888-.397.53-.848.742-1.299 1.007a4.55 4.55 0 0 1-1.033.318c-1.193.291-2.279.026-3.286-.663l-2.014-1.325c-.318-.212-.583-.133-.795.159-.186.238-.291.503 0 .874.106.291 1.034.901 1.325 1.06.954.503 2.544 1.298 3.948 1.298 1.06 0 1.988-.291 2.915-.768.901-.451 1.723-1.06 2.173-1.961.742-1.457.53-2.995.159-4.478-.265-.98-1.033-1.617-1.749-2.305-.53-.503-.53-1.325 0-1.802.848-.742 1.564-1.59 2.306-2.412z" fill="#b32"/><path d="M16.46 16.96c-.662-.45-2.2-1.219-2.995-.768-.98.583-1.139.768-1.723 1.749-.768 1.298-1.404 2.677-1.272 4.134v.874a.39.39 0 0 0 .663.159c.874-1.219.636-2.412 1.086-3.79.212-.636.556-1.113 1.007-1.537.424-.424 1.06-.583 1.696-.53.424.026.716.318 1.06.609.477.398.769 1.431.663 1.935l-.504 1.67c-.291.874-.371.901-1.299.795l-.45-.053c-.583-.08-.874.079-1.139.583l-1.219 2.491c-.345.742-.265 1.113.318 1.669.45.424.504.716.053 1.166L9.57 30.82c-.159.159-.345.291-.45.477-.053.079.053.344.106.371.291.026.636.079.875-.053 1.537-.848 2.889-1.988 3.843-3.418.954-1.458 1.643-3.1 2.385-4.69.61-1.298 1.193-2.942 1.299-4.373.106-1.298-.715-1.855-1.166-2.173zm-1.59 7.261c-.106.504-.265.98-.451 1.457a.6.6 0 0 1-.424.292c-.371 0-.742-.106-.848-.53-.026-.133-.026-.265-.053-.503.106-.557.398-1.087.98-1.405.159-.106.53-.079.663.053s.186.451.133.636zm9.407 6.784c-.133-.371-.291-1.033-.583-1.325-.239-.265-.742-.106-1.007-.371-.238-.212-.185-.424.053-.636l3.631-3.153c.689-.663 1.246-1.511 1.802-2.279l2.2-3.1c.291-.398.636-.742.98-1.06l2.862-2.412c1.087-.795 1.987-.716 2.862-.689.53.079.477.079.928.424s.636 1.643.477 2.093c-.185.503-.212.53-.583.901-.822.874-1.855 1.378-3.1 1.166-.026 0-.053 0-.08-.027-.344-.132-.53-.609-.212-.768l.159-.053c.424-.212.928-.292 1.352-.53.318-.186.663-.451.848-.768.106-.186.08-.583-.053-.795-.185-.292-.556-.345-.874-.186-.477.239-1.192.663-1.59 1.007-2.491 2.12-3.922 3.551-5.645 6.413a5.46 5.46 0 0 1-.928 1.139c-.689.663-.318.583.106 1.378.901 1.749.954 3.63.742 5.565-.026.265-.026.53-.026.822 0 .901-.451 1.617-.927 2.332a.5.5 0 0 1-.371.159c-.159-.132-.344-.344-.371-.53-.026-.398.026-.822.106-1.219.239-1.696.345-3.418.159-5.115-.053-.371-.239-.742-.424-1.087-.053-.106-.239-.212-.318-.186-.106.053-.848.954-.848 1.06l.133 2.04-.026 2.438c0 .318-.186.53-.504.503-.344 0-.583-.185-.636-.53.026-.185-.079-1.961-.291-2.623zm-11.21.636c.053-.212.08-.371.265-.397a.7.7 0 0 1 .636.318 10.42 10.42 0 0 1 .583 1.749l.848 4.32c.133.583.371 1.14.503 1.723v.159c-.053.292-.397.451-.689.318-.079-.027-.133-.08-.186-.133-.344-.583-.424-.98-.689-1.669-.239-.636-.53-1.882-.609-2.358-.106-.636-.636-.53-1.405.212l-1.59 1.431c-.61.583-.265 1.431.398 1.961a6.57 6.57 0 0 1 1.537 1.882c.026.053.106.132.106.212.026.212.133.53.026.636-.239.238-.556.159-.822-.08L10.76 40.68l-1.193-1.192c-.45-.398-.742-.345-1.298-.079-.636.318-1.299.556-1.961.795-.106.053-.239.053-.371.053-.291 0-.61-.053-.636-.398 0-.212.159-.477.345-.609.291-.212.663-.318.928-.556.159-.132.318-.398.318-.583 0-.132-.265-.291-.424-.371-1.113-.477-1.828-.318-2.65.583l-.954.954c-.106.106-.265.239-.398.292-.318.159-.663.318-.928.026-.291-.318-.106-.689.159-.927.848-.822 1.696-1.67 2.862-2.041 1.166-.397 2.252-.159 3.313.371.821.424.927.424 1.643-.185l2.889-2.438c.424-.344.901-.583.822-1.113-.026-.132-.08-.318-.08-.45.053-.027-.133-.874-.08-1.166z" fill="#084"/><path d="M24.013 50.085c-.901-.477-1.564-1.298-2.2-2.147l-2.465-3.392c-1.431-2.252-2.491-4.691-2.809-7.5l-.344-4.081c-.026-.265.053-.557.133-.795.079-.318.318-.583.61-.477.212.08.451.371.477.583l.212 2.358c.159 2.252.556 4.425 1.564 6.439l1.908 3.71c.848 1.299 1.855 2.465 2.809 3.684l.901 1.113c.53.636.239 1.139-.795.504z" fill="#339"/><path d="M25.974 19.345l-.371-3.392c-.026-.212 0-.477.106-.662s.344-.371.53-.397c.133 0 .345.265.398.45.291.927.689 1.882.795 2.835a7.77 7.77 0 0 1-1.113 4.956c-1.457 2.385-3.471 4.134-6.042 5.273-.108.051-.225.078-.344.08-.318.026-.662.026-.795-.345s.026-.662.344-.848l2.014-1.219c1.643-1.087 2.889-2.517 3.79-4.267.398-.742.715-1.537.689-2.465z" fill="#084"/><path d="M18.845 32.33a.85.85 0 0 1 .477-.768c.133-.053.477.159.556.318.265.583.291 1.537.424 2.173.265 1.431.556 2.597 1.166 4.002.212.662.53 1.166.556 1.51.026.212 0 .345-.159.451-.265.185-.61.079-.795-.212-.344-.503-.715-1.033-.954-1.59-.795-1.855-1.06-3.843-1.272-5.883zm4.691 4.478c0 .318-.186.662-.504.636-.186 0-.503-.292-.556-.504-.186-.742-.291-1.484-.424-2.226l-.477-2.65c-.026-.212-.026-.477.079-.609.133-.186.371-.345.583-.371.133-.027.424.159.477.291.159.53.239 1.06.345 1.59l.477 3.843zm2.094-2.252c-.053 2.756-.371 7.738-1.087 7.764-.901.053-.079-3.472-.026-7.658 0-.742-.106-1.696-.159-2.465-.079-.848-.212-1.219-.451-1.908-.265-.689-.079-.583.212-.663l.927-.265c.133-.026.451-.212.477-.079l.159 1.828c.053 1.192-.026 2.65-.053 3.445z" fill="#339"/><path d="M11.425 5.3c.185.026.371.026.556.106 1.378.424 2.597 1.219 3.816 1.987.159.106.344.424.318.53-.079.212-.318.477-.53.53a1.01 1.01 0 0 1-.822-.133l-2.942-2.332c-.185-.159-.318-.371-.477-.583.026-.027.053-.08.08-.106z" fill="#b32"/><path d="M18.845 20.14c.159-.398.239-.663.45-1.034.053-.106.291-.583.556-.53.291.053.291.344.318.477.053.239-.026.477-.079.716l-.742 2.491c-.132.451-.477.689-.874.848-.344.133-.477.053-.477-.344-.053 0 .504-1.749.848-2.623zm5.644-.159c-.079.238-.265.609-.689.583a.39.39 0 0 1-.318-.133c-.079-.212-.159-.477-.133-.689l.291-2.173c.053-.345.212-.663.636-.636s.477.371.53.689c.026.185.026.397.026.583.026 0-.133 1.219-.344 1.775zm-2.676 1.325c-.053.159-.477.212-.716.185-.106-.027-.291-.344-.265-.53l.318-1.775a3.3 3.3 0 0 1 .265-.716c.106-.185.371-.424.424-.424.477-.106.636.132.636.556 0 .079.026.212.026.318.026 0-.398 1.617-.689 2.385z" fill="#339"/><path d="M20.939 11.66c0 .82-.664 1.484-1.484 1.484s-1.484-.664-1.484-1.484.664-1.484 1.484-1.484c.822.027 1.484.689 1.484 1.484z" fill="#b32"/></svg>