<svg xmlns="http://www.w3.org/2000/svg" xmlns:xlink="http://www.w3.org/1999/xlink" width="150" height="200" viewBox="0 0 39.7 52.9"><defs><path id="A" d="M-105.3 405.3c1.1 0 2-.4 2.8-1.2s1.2-1.7 1.2-2.8-.4-2-1.2-2.8-1.7-1.2-2.8-1.2-2.1.4-2.9 1.2-1.2 1.7-1.2 2.8.4 2 1.2 2.8c.9.8 1.8 1.2 2.9 1.2z"/><path id="B" d="M-114.9 380.4c-1.1 0-2.1.4-2.9 1.2s-1.2 1.7-1.2 2.8.4 2 1.2 2.8 1.8 1.2 2.9 1.2 2-.4 2.8-1.2 1.2-1.7 1.2-2.8-.4-2-1.2-2.8-1.7-1.2-2.8-1.2z"/></defs><g transform="matrix(.265 0 0 .265 47 -90.3)" fill="#b32"><use xlink:href="#A"/><use xlink:href="#B"/><use x="29.2" y="50.7" xlink:href="#B"/><path d="M-122 404c.8-.8 1.2-1.7 1.2-2.8s-.4-2-1.2-2.8-1.7-1.2-2.8-1.2-2.1.4-2.9 1.2-1.2 1.7-1.2 2.8.4 2 1.2 2.8 1.8 1.2 2.9 1.2 2-.4 2.8-1.2z"/><use x="-29.2" y="16.8" xlink:href="#A"/><path d="M-34.8 456c-10.8 2.6-19.5 5.8-25.9 9.4-1.4-1.2-2.8-2.3-4.3-3.3 7.2-3.7 13.9-6.9 20.2-9.7 7.1-3.1 10.3-5.2 9.6-6.3-.7-1-3.4-.6-8.2 1.4-4.8 1.9-11.7 5.3-20.9 9.9l-4.5 2.2c-.1-.1-.1-.1-.2-.1l27.8-17.5c5.1-3.3 7.4-5.4 6.7-6.4s-4.4.8-11.3 5.2c-6.8 4.3-16 9.8-27.5 16.4-.9-.4-1.8-.8-2.9-1.2 2.7-2 4.7-4.3 6-6.9 1.8-3.6.5-5.1-3.8-4.5-2.2.3-4 .3-5.5 0 1.2-1 2.1-1.9 2.9-3h8.2c4.7 0 8.7-1.6 12-4.9s4.9-7.3 4.9-11.9-1.6-8.6-4.9-11.9-7.3-4.9-12-4.9h-.6a17.3 17.3 0 0 0 3.5-2.7c3.3-3.3 4.9-7.3 4.9-11.9s-1.6-8.6-4.9-11.9c-3.2-3.2-7.1-4.9-11.6-4.9 1.1-2.2 1.6-4.6 1.6-7.3 0-4.6-1.6-8.6-4.9-11.9s-7.3-4.9-12-4.9c-4.6 0-8.6 1.6-11.9 4.9-1 1-1.9 2.1-2.5 3.3-.7-1.2-1.6-2.3-2.6-3.3-3.3-3.3-7.3-4.9-12-4.9-4.6 0-8.6 1.6-11.9 4.9s-4.9 7.3-4.9 11.9c0 2.6.5 5.1 1.6 7.3-4.2.3-7.8 1.9-10.8 4.9-3.3 3.3-4.9 7.3-4.9 11.9s1.6 8.6 4.9 11.9c1.3 1.3 2.7 2.4 4.3 3.2-3 .7-5.7 2.2-8 4.5-3.3 3.3-4.9 7.3-4.9 11.9 0 2.6.5 4.9 1.5 7-8.4-4.7-12.9-7-13.5-6.8-.8.2-1 .7-.5 1.4s6.2 4.4 17.1 10.9c-2.5-.1-6.7-.4-12.7-1.1s-8.9-.4-8.7.8c-.1.7 1.1 1.2 3.8 1.6 7.3 1.2 13.5 1.9 18.6 2.2s9 .7 11.6 1.2c1.8.4 5.9 2.6 12.1 6.6-.1.1-.2.1-.3.2-.3.2-.5.4-.8.7-6.9-4-10.7-5.6-11.4-4.6-.5.7-.4 1.3.4 1.9s3.9 2.2 9.5 4.8l-.1.2c-6.6-.8-10.4-1.1-11.3-1-1 .2-1.5.7-1.3 1.5.1.9 4.1 1.4 11.9 1.5-.1.1-.1.3-.1.4-7.1 3.1-13.3 7.2-18.5 12.2-9.3 8.9-16.1 18.6-20.3 29.2-.2.8.4 1.2 1.9 1.2l25.5-.2c.4 1.8 2.7 2.7 6.7 2.5l12.6-.4h1.8c-.3 6.2.1 13 1.2 20.2l-7.8-2.3-.8 2 8.1 2.6-10.3 3.1.8 2 10.3-2.9-4.6 6 1.8 1.4 7.1-9c-.9-1.5-1.5-4.2-1.9-8.1-.4-3.7-.4-8.8-.2-15.2l13.3-.2c2.8 0 6.6-.1 11.4-.2-.3 6.4.1 13.4 1.2 20.8l-7.8-2.3-.8 2 8.1 2.6-10.3 3.1.8 2 10.3-2.9-4.6 6 1.8 1.4 7.1-9c-.9-1.5-1.5-4.2-1.9-8.1s-.4-9.1-.2-15.6c1.8-.1 3.8-.1 5.8-.2 3.4-.1 5.2-.9 5.3-2.5l14.8.1 22.1.2c1.5 0 2.1-.4 1.9-1.1-4.2-9.9-10.8-19-19.8-27.2 5.8-3.6 13.5-6.7 23.1-9.2 1.9-.5 2.8-1.1 2.6-1.8-.3-.6-1-.8-2.2-.5zm-30 10.5l-.9.3-9-3 4.2-1.4c1.9 1.3 3.8 2.7 5.7 4.1zm-22.4 18.7l8.8-3 8.9 3-8.9 3zm4.8 4.3l-.3.1c-.1-.1-.3-.3-.4-.3zm-52.3-86.1c-2.9.5-4.9.7-6.2.4-1.3-.2-1.6-.7-.9-1.3.7-.7 3.1-1.3 7-2-.1.4-.1.8-.1 1.2.1.6.1 1.2.2 1.7zm1 2.9c.4.8 1 1.5 1.5 2.2-2-.4-3.9-.5-5.8-.3 1.3-.4 2.7-1.1 4.3-1.9zm-6.4 6.6c1.6-1.6 3.5-2.4 5.7-2.4s4.1.8 5.6 2.4 2.3 3.5 2.3 5.7-.8 4.1-2.3 5.7-3.4 2.4-5.6 2.4-4.1-.8-5.7-2.4-2.4-3.5-2.4-5.7.8-4.2 2.4-5.7zm9.6-5.5c-1.6-1.6-2.4-3.5-2.4-5.7s.8-4.1 2.4-5.7 3.5-2.4 5.7-2.4 4.1.8 5.6 2.4 2.3 3.5 2.3 5.7-.8 4.1-2.3 5.7-3.4 2.4-5.6 2.4-4.1-.8-5.7-2.4zm9.9 5.5c1.6-1.6 3.5-2.4 5.7-2.4s4.1.8 5.6 2.4 2.3 3.5 2.3 5.7-.8 4.1-2.3 5.7-3.4 2.4-5.6 2.4-4.1-.8-5.7-2.4-2.4-3.5-2.4-5.7.8-4.2 2.4-5.7zm10.9 32.3c-1.3-.3-2.7-.4-4.2-.3-2.7.1-5.2.5-7.4 1.2 4.2-3.6 8.1-3.9 11.6-.9zm-1.2-4.1c-1.6-1.6-2.4-3.5-2.4-5.7s.8-4.1 2.4-5.7 3.5-2.4 5.7-2.4 4.1.8 5.6 2.4 2.3 3.5 2.3 5.7-.8 4.1-2.3 5.7-3.4 2.4-5.6 2.4-4.1-.8-5.7-2.4zm30.8-33.7c-1.5 1.6-3.4 2.4-5.6 2.4s-4.1-.8-5.7-2.4-2.4-3.5-2.4-5.7.8-4.1 2.4-5.7 3.5-2.4 5.7-2.4 4.1.8 5.6 2.4 2.3 3.5 2.3 5.7-.8 4.1-2.3 5.7zm4.4-5c2.1.3 3.5.6 4.1.9.7.4.7 1-.1 2-.7.9-3.1 2.1-7 3.6 1.8-1.9 2.8-4 3-6.5zm-14.1 10.5c1.5 1.6 2.3 3.5 2.3 5.7s-.8 4.1-2.3 5.7-3.4 2.4-5.6 2.4-4.1-.8-5.7-2.4-2.4-3.5-2.4-5.7.8-4.1 2.4-5.7 3.5-2.4 5.7-2.4 4.1.8 5.6 2.4zM-83 447l-8.3 2.7-8.3-2.7c5.3-.6 10.9-.6 16.6 0zm-12.2 4l-3 1c-.6-.7-1.2-1.3-1.8-1.9-.4-.4-.9-.8-1.4-1.2zm3.9 1.4l8.9 3-9 3-4-1.3c-.4-1-.8-2-1.3-2.9zm-2.8 9.6v-.3l2.6-.9 9 3-9 3.1-2.5-.9c.2-1.2.2-2.5-.1-4zm-.9 8.6l3.6-1.2 9 3-9 3.1-6-2.1c.1 0 .1 0 .2-.1.8-.8 1.6-1.7 2.2-2.7zm3.6 7.4l9.1 3-7.3 2.4c-1.4-1.4-2.6-2.7-3.7-4-.2-.2-.4-.4-.5-.7zm16.8 2.9l9-3 8.9 3-9 3zm-3.9-1.2l-9.1-3.1 9-3 9.1 3zm-9.1-11.6l9-3 9 3-9 3.1zm14.5-7.4l-5.5 1.9-9-3 7.8-2.6c2.3 1.2 4.5 2.4 6.7 3.7zm-2.6-13.6c3.4-.3 3.8.9 1.3 3.6-1 1.1-2.1 2.1-3.2 3l-1 .3-8.9-3zm-4.4-6c-1.5 1.6-3.4 2.4-5.6 2.4s-4.1-.8-5.7-2.4-2.4-3.5-2.4-5.7.8-4.1 2.4-5.7 3.5-2.4 5.7-2.4 4.1.8 5.6 2.4 2.3 3.5 2.3 5.7-.8 4.1-2.3 5.7zm4.3-4.3c.1-.4.1-.9.1-1.3 0-1-.1-2-.4-3 7.3 2.5 10.8 4.2 10.5 5.1-.2.9-3.6.6-10.2-.8zm12.6-3.5c0 1-4.5.3-13.5-2.2-.4-1-1.1-1.9-2-2.7-.1-.1-.2-.1-.3-.2 1 .3 2 .4 3.2.4.8 0 1.6-.1 2.4-.3 6.8 2.4 10.2 4.1 10.2 5zm-4.7-14.8c0 2.2-.8 4.1-2.3 5.7s-3.4 2.4-5.6 2.4-4.1-.8-5.7-2.4-2.4-3.5-2.4-5.7.8-4.1 2.4-5.7 3.5-2.4 5.7-2.4 4.1.8 5.6 2.4 2.3 3.5 2.3 5.7zm-.8-19.6c-.4.4-2.7.7-7.1 1.1-.2-1.2-.6-2.2-1.2-3.2 4.9.4 7.6.8 8.1 1 .5.3.6.6.2 1.1zm1.2-7.3c.5.5-.9 1.2-4 1.8l-6.9 1.5c-.1-.1-.1-.2-.2-.3-1.2-1.1-2.5-1.9-4-2.4l10.4-1.1c2.6-.3 4.2-.1 4.7.5zm-8.5-6.7c2.6-.5 4.3-.4 5.1.2.8.7-.2 1.4-3 2.3l-14.5 4.6c0-.1 0-.1.1-.2 1.5-1.4 2.4-3 2.7-4.9zm-5.1-6.9c.3.4.1 1-.5 1.8-.6.7-1.9 1.9-3.8 3.4-.1-1-.4-2-.9-2.9 3.1-1.8 4.8-2.6 5.2-2.3zm-2.2-5.6c.4.2.4 1-.1 2.2s-1.7 2.8-3.5 4.8c-.4-.7-.9-1.2-1.4-1.8-.3-.3-.6-.5-.9-.8 3.5-3.1 5.5-4.6 5.9-4.4zm-3.4-4.7c.6.7-.4 3.7-3.1 8.9-1-.8-2.2-1.3-3.4-1.5 3.6-5.8 5.8-8.2 6.5-7.4zm-4.2-2.8c.2.7-.7 4.1-2.6 10.1-.6-.1-1.2-.2-1.9-.2-.6 0-1.1 0-1.6.1 2.4-5.6 4-8.8 4.6-9.7.7-.8 1.2-.9 1.5-.3zm-6.2-3.9c1.3.1 1.3 4.8-.1 14-1.3.2-2.5.7-3.6 1.5 1-10.4 2.3-15.6 3.7-15.5zm1.7 15.8c2.2 0 4.1.8 5.6 2.4s2.3 3.5 2.3 5.7-.8 4.1-2.3 5.7-3.4 2.4-5.6 2.4-4.1-.8-5.7-2.4-2.4-3.5-2.4-5.7.8-4.1 2.4-5.7 3.5-2.4 5.7-2.4zm-8.5-11.7c.9.1 1.8 3.9 2.9 11.4-.4.3-.9.7-1.3 1.1-.7.7-1.3 1.5-1.8 2.3-.8-9.8-.7-14.8.2-14.8zm-1.4 28.6c2.2 0 4.1.8 5.6 2.4s2.3 3.5 2.3 5.7-.8 4.1-2.3 5.7-3.4 2.4-5.6 2.4-4.1-.8-5.7-2.4-2.4-3.5-2.4-5.7.8-4.1 2.4-5.7c1.7-1.6 3.5-2.4 5.7-2.4zm-4-3.2c-1.5 1.6-3.4 2.4-5.6 2.4s-4.1-.8-5.7-2.4-2.4-3.5-2.4-5.7.8-4.1 2.4-5.7 3.5-2.4 5.7-2.4 4.1.8 5.6 2.4 2.3 3.5 2.3 5.7-.8 4.1-2.3 5.7zm-.6-25.4c.5-1.3 1.1-1.8 1.8-1.3.6.4.6 5 0 13.7-1-1-2.2-1.8-3.4-2.2.6-5.4 1.1-8.8 1.6-10.2zm-5.6-3.7c1-.4 2.3 4.2 3.7 13.8-1-.3-2.1-.4-3.2-.4h-.1c-1.3-8.4-1.5-12.9-.4-13.4zm-5.9 3c.6-.5 2.6 3 5.9 10.4-1 .1-2 .3-3 .5-2.6-6.7-3.6-10.3-2.9-10.9zm-4 3.2c.7-.6 2.9 2.1 6.8 7.9-.7.2-1.4.5-2 1-3.8-5.4-5.4-8.4-4.8-8.9zm-1.9 4.6c1.3.8 3.3 2.5 5.9 4.9l-.5.5c-.7.7-1.3 1.5-1.8 2.2-4.5-5.2-6.6-8-6.3-8.5.2-.3 1.1 0 2.7.9zm-4.5 4.4c.3-.4 3 .8 8 3.6-.5.9-.8 1.9-1 3.1a172 172 0 0 0-5.5-4.4c-1.4-1.1-1.9-1.8-1.5-2.3zm-12.2 13.1c.7-.2 7.7.2 20.9 1.3-6.3-2-11-3.6-14-4.8-3-1.1-4.6-1.9-4.6-2.3s.2-.7.5-.8 5.7.6 16.3 2.3c.1.8.2 1.6.4 2.3l-2.1-.3c-4-.8-4.3-.6-1.1.5l3.7 1.3c.5 1 1.2 1.8 2 2.5.1.1.3.3.3.4-1-.4-2-.5-3.2-.5-2.5 0-4.6.7-6.4 2.2-4-.7-7-1.1-9-1.4-2.4-.4-3.8-.9-4.3-1.5-.3-.5-.2-.9.6-1.2zm-.4 7c-.1-.8 1-1.2 3.2-1.2 1.9 0 4.7.1 8.5.2-.7.9-1.2 1.8-1.5 2.9-3.3 0-5.8-.1-7.4-.3-1.8-.3-2.7-.8-2.8-1.6zm-6.8 30.3c1.2-.8 3.8-1.9 8-3.4.4.7 1 1.4 1.6 2 .2.3.5.5.8.8-4.8 1.2-7.9 1.8-9.6 1.9-1.7 0-2-.4-.8-1.3zm3.6 4.4c.8-.6 3.5-2 8-4.2 1.5.9 3.1 1.3 5.1 1.3h.5c-7.8 2.6-12.2 3.8-13.2 3.8-1.1.1-1.2-.2-.4-.9zm3.7 5.6c-2.1-.1-2.4-.5-1.1-1.4 1.2-.7 5.1-2.4 11.5-5.1-.9 1.5-1.3 3.1-1.3 4.9v.8c-4.3.7-7.4.9-9.1.8zm3.9 2.2l5.4-1.4c.3 1.2.8 2.4 1.5 3.4-1.9-1.2-4.2-1.9-6.9-2zm7.2-3.8c0-2.2.8-4.1 2.4-5.7s3.5-2.4 5.7-2.4 4.1.8 5.6 2.4 2.3 3.5 2.3 5.7-.8 4.1-2.3 5.7-3.4 2.4-5.6 2.4-4.1-.8-5.7-2.4-2.4-3.5-2.4-5.7zm5.6 10.7c1.5.2 3 .4 4.7.4-.7.2-1.3.5-2 .9-.4.2-.8.4-1.2.7zm-3 10.9c.3 1.8.9 3.6 1.9 5.2l-1.4.4-6.4-2.1c1.8-1.2 3.8-2.3 5.9-3.5zm-2.7 26.2c-.9 1-1.8 2-2.7 3.1l-3.2-1.1zm-9.7.7l-9-3 9.1-3 8.9 3zm3.7-7.3l9.1-3 5.1 1.6c-1.5 1.2-3 2.6-4.6 4.2l-.5.2zm13.1-4.2l7.6-2.5 1.5.2c-.4.2-.7.4-1.1.5-1.5.7-3 1.7-4.6 3zm-4.1-1.4l-8.8-3 8.9-3 5.7 2c.7.5 1.4 1 2.1 1.3zm-8.8-8.7l5.1 1.6-8.8 3-1.3-.4c1.5-1.5 3.2-2.9 5-4.2zm-10.2 9.2l6.3-2.1 8.9 3-9.1 3-7.4-2.4c.4-.5.9-1 1.3-1.5zm-2.9 3.3l5.4 1.9-9.1 3h-.1c1.2-1.7 2.4-3.3 3.8-4.9zm-6.4 8.3l2.7-.9 9 3-9.1 3.1-4.9-1.6c.7-1.2 1.5-2.4 2.3-3.6zm-3.6 5.5l2.5.9-3.6 1.2c.3-.6.7-1.3 1.1-2.1zm13.8 5.7a307 307 0 0 0-14.5.1c-1.2 0-1.8-.3-1.8-.8l8.8-3 9 3.1zm5.2-1.7l-9-3.1 9.1-3 5.4 1.8c-.4.4-.7.8-1.1 1.2-.6.7-1.1 1.4-1.6 2.1zm57.1 3.5l-17.9.3a605 605 0 0 0-18.9.3l-12.6.4c-4.5.1-5.1-1.9-1.6-6.3 8-9.4 15-15.7 21-18.8s8.9-5 8.7-5.7-.9-.6-2 .1-2.4 1.2-3.7 1.3c-4.3.5-8-.7-11.1-3.6-2.6-2.4-4-5.3-4.2-8.7-.1-2.4 1.4-4.5 4.6-6.2 2.5-1.3 5.7-2.1 9.8-2.3 4.5-.2 8.6 1.4 12.3 4.7 2.9 2.8 4.6 6.3 5.2 10.5.6 4.4-.2 7.4-2.3 9.1-3.4 2.7-7.2 5.1-11.3 7.3-4.1 2.1-6 3.4-5.8 3.9s1.7.2 4.3-.8c2.7-1 6.5-3.2 11.5-6.8.1.3 1.7 2.2 4.7 5.7s7.2 7.5 12.5 11.9c2.9 2.5 1.9 3.6-3.2 3.7zm7-3c-.4-.5-1.1-1.1-1.9-1.6l2.1-.7 7 2.3zm13.3-.6l-9.1-3 8.9-3 9.1 3zm20 1l-15.1-.2 7.5-2.5 8.1 2.7zm1.2-2.4l-4.9-1.6 3.5-1.2c.5.9 1 1.9 1.4 2.8zm-2.6-4.8l-5.9 2-9-3.1 9-3 4.3 1.4c.5 1 1.1 1.8 1.6 2.7zm-5-7l-1.1.3-9-3 6-2c1.5 1.6 2.9 3.1 4.1 4.7zm-5.9-6.5l-7.9 2.6-9.2-3.1 9-3 7 2.3zm-57.9-19.4c-1 0-1.8.3-2.5 1s-1 1.5-1 2.4c0 1 .3 1.8 1 2.5s1.5 1 2.5 1 1.8-.3 2.4-1c.7-.7 1-1.5 1-2.5s-.3-1.8-1-2.4c-.6-.7-1.4-1-2.4-1zm17.4-38.4c-.8.8-1.2 1.7-1.2 2.8s.4 2 1.2 2.8 1.8 1.2 2.9 1.2 2-.4 2.8-1.2 1.2-1.7 1.2-2.8-.4-2-1.2-2.8-1.7-1.2-2.8-1.2-2.1.5-2.9 1.2zm-23.8 22.6c.8-.8 1.2-1.7 1.2-2.8s-.4-2-1.2-2.8-1.7-1.2-2.8-1.2-2.1.4-2.9 1.2-1.2 1.7-1.2 2.8.4 2 1.2 2.8 1.8 1.2 2.9 1.2 2-.5 2.8-1.2z"/><use x="39.1" y="33.8" xlink:href="#B"/><path d="M-115 422c1.1 0 2-.4 2.8-1.2s1.2-1.7 1.2-2.8-.4-2-1.2-2.8-1.7-1.2-2.8-1.2-2.1.4-2.9 1.2-1.2 1.7-1.2 2.8.4 2 1.2 2.8 1.8 1.2 2.9 1.2zm12.4 15.8c.8-.8 1.2-1.7 1.2-2.8s-.4-2-1.2-2.8-1.7-1.2-2.8-1.2-2.1.4-2.9 1.2-1.2 1.7-1.2 2.8.4 2 1.2 2.8 1.8 1.2 2.9 1.2 2.1-.5 2.8-1.2zm16.8-40.5c-1.1 0-2.1.4-2.9 1.2s-1.2 1.7-1.2 2.8.4 2 1.2 2.8 1.8 1.2 2.9 1.2 2-.4 2.8-1.2 1.2-1.7 1.2-2.8-.4-2-1.2-2.8c-.8-.9-1.7-1.2-2.8-1.2z"/><use x="9.9" y="-16.9" xlink:href="#A"/><path d="M-95.7 476l.2.3.2-.2z"/></g></svg>