<svg xmlns="http://www.w3.org/2000/svg" width="150" height="200" viewBox="0 0 39.7 52.9"><path d="M20.7 11.2c-.45.45-.662 1.01-.662 1.61 0 .635.212 1.19.662 1.64s.979.688 1.64.688c.609 0 1.16-.238 1.61-.688s.688-1.01.688-1.64c0-.609-.238-1.16-.688-1.61s-1.01-.688-1.61-.688c-.662 0-1.19.238-1.64.688zm2.75 1.61c0 .318-.106.609-.344.82-.212.212-.503.344-.794.344-.318 0-.609-.106-.82-.344a1.16 1.16 0 0 1-.344-.82c0-.317.106-.582.344-.794a1.16 1.16 0 0 1 .82-.344c.317 0 .582.106.794.344.238.238.344.503.344.794zm14.4 12.1c-.45-.318-.926-.45-1.46-.423-.609.026-1.09.238-1.43.609l-.106.106-7.62.476c1.93-.741 3.23-1.8 3.86-3.18 1.61-3.36 2.41-6.25 2.41-8.6 0-1.59-.582-2.38-1.72-2.38-.609 0-1.24.212-1.88.609a8.52 8.52 0 0 0-1.69 1.43c-.026-1.98-1.09-3.52-3.12-4.61.556-.027 1.03-.106 1.43-.238 2.2-.768 4.42-2.67 6.7-5.8-3.1 2.43-5.37 3.63-6.83 3.63-1.27 0-2.57-.582-3.84-1.75-1.11-1.06-2.41-1.59-3.89-1.59-2.38 0-3.57.953-3.57 2.86-.027 1.01.185 1.75.662 2.17.873.979.503 1.48-1.09 1.51-.768 0-1.54-.079-2.3-.265 1.01 1.06 2.54 1.59 4.55 1.59.318 0 .503.185.556.582l.026 1.43c-.371-.159-.9-.265-1.56-.291-.635-.027-1.48.106-2.54.423-2.38.688-3.57 2.67-3.57 6.01 0 1.98.476 4.45 1.46 7.36l-5.9.344c-.027-.026-.079-.079-.106-.079-.397-.318-.9-.476-1.48-.423-.609.026-1.09.238-1.43.609s-.503.794-.476 1.27.212.873.609 1.19.873.476 1.48.423a2.22 2.22 0 0 0 1.46-.609c.053-.053.106-.106.106-.132l5.53-.344-.106.106c-.9.768-2.22 1.56-4 2.36-1.35.609-2.99 1.16-4.98 1.72-1.11.318-1.19.503-.212.529 4.21 0 8.02-1.61 11.5-4.82l2.7-.185c.106.556.132 1.24.132 2.09.026 4.63 1.32 9.58 3.84 14.8.873 1.69 1.85 3.04 2.94 4.05-.503-.82-1.48-3.02-2.96-6.62-1.56-3.71-2.38-7.52-2.46-11.4 0-1.09-.106-2.06-.291-2.96l.662.132c.265 5.61 1.22 10.5 2.91 14.8.688 1.77 1.27 3.1 1.75 4.02.688 1.35 1.24 2.17 1.69 2.41-.397-.82-.768-1.64-1.11-2.49l-1.54-3.92c-1.35-3.41-2.33-8.31-2.91-14.7.185.026.371.026.556.053.079 2.22.344 4.61.82 7.12.768 4.02 1.85 7.68 3.26 11l-2.2-8.68c.503 1.67.953 2.94 1.3 3.78.106 1.67.9 4.05 2.38 7.12-1.09-2.91-1.69-4.95-1.8-6.17.265.768.953 2.54 2.09 5.37-.265-2.14-.9-4.5-1.88-7.07-.053-.979-.079-1.83-.053-2.54.741 3.97 1.77 6.91 3.12 8.79-1.72-4.61-2.65-8.05-2.78-10.3l-.344-4.21c-.159-1.83-.238-3.28-.265-4.39.185-.026.344-.079.503-.106.053 5.48.344 9.21.847 11.2.582 2.43 1.19 4.13 1.83 5.03-1.38-5.58-2.04-11.1-2.01-16.5.106-.026.212-.079.318-.106-.185 6.17.768 12.5 2.83 18.9-1.59-8.68-2.22-15.1-1.93-19.2l9.77-.609c.079.053.132.106.185.132.397.318.873.476 1.48.423a2.16 2.16 0 0 0 1.4-.609c.39-.371.582-.794.529-1.27 0-.423-.238-.82-.688-1.14zm-9.5-9.42c1.48-1.72 2.49-2.62 3.02-2.67s.82.159.82.635c0 2.54-.582 5.27-1.72 8.18-.476 1.32-1.43 2.33-2.86 2.99.768-1.64 1.4-2.86 1.43-5.77.026-.82-.397-2.65-.688-3.36zm-1.3-.688c0 .715-.476 1.46-1.46 2.17-1.16.847-3.2 1.16-6.11.953l-.9-.053c.159-1.06.212-2.46.185-4.21-.026-1.4-.079-2.43-.212-3.15-.053-.318-.079-.662-.026-.953.053-.371.265-.556.635-.556h.132c1.8 0 3.26.238 4.39.715 2.25.953 3.36 2.65 3.36 5.08zm-9.77-8.52c.026-.926.582-1.4 1.67-1.4 1.11 0 1.98.318 2.62.979s1.46 1.16 2.43 1.54c-1.85.291-3.73.318-5.66.079-.715-.079-1.06-.476-1.06-1.19zm-5.77 22l-6.67.397c-.053.106-.132.185-.212.291-.212.212-.45.318-.715.344-.291.026-.529-.079-.741-.265a1.14 1.14 0 0 1-.344-.741.97.97 0 0 1 .238-.741c.185-.212.423-.344.715-.371.265-.026.529.079.768.291.106.079.185.159.238.238l6.72-.397c.079.344.079.662 0 .953zm1.06-.662c.238-.318.106-1.16-.371-2.57s-.715-2.38-.715-2.88c.82.503 1.46 1.35 1.96 2.49.238-1.64-.503-2.86-2.17-3.6-.079-.9-.106-1.46-.106-1.72.027-.794.079-1.3.212-1.48 2.09 1.96 3.15 3.57 3.15 4.84.106 0 .185-.265.265-.768.265-1.64-.768-3.28-3.15-4.98.265-.979.635-1.59 1.09-1.88 1.11.953 1.98 2.04 2.65 3.26.318.635.582 1.32.715 2.06l.026-1.88c.026-1.09-.82-2.41-2.49-4 .344-.291.9-.476 1.69-.582.662-.079 1.4.053 2.2.371 0 3.65-.741 6.93-2.25 9.85-.715 1.46-1.61 2.62-2.7 3.47zm1.38.503c.291-.291.582-.609.873-.926.027-.026.079-.079.106-.079l.185-.026c.132.053.291.212.503.503.079.106.159.265.238.423zm8.44 12.4c-1.48-3.94-2.36-7.81-2.62-11.6h.609c.265 3.26.768 6.06 1.51 8.42a71.59 71.59 0 0 0-.476-8.44c.238-.026.45-.026.662-.053a55.81 55.81 0 0 0 .212 4.79c.132 1.54.159 2.81.053 3.81-.079.979-.079 2.01.053 3.07zm-1.27-13.3h-.291c-.503 0-1.19-.053-2.04-.185-1.48-.212-2.43-.503-2.78-.873-.185-.212-.212-.423-.079-.635a18.55 18.55 0 0 0 1.85-4c.291-.926.529-1.75.688-2.46.318.053.582.106.794.106.185.556.079 1.83-.344 3.81-.185.9-.635 1.8-1.3 2.7 1.09-.582 1.83-1.72 2.25-3.44.265-1.19.344-2.17.238-2.99.265.026.503.026.715.053.079.476.106 1.19.106 2.2 0 1.24-.503 2.78-1.51 4.66 1.48-.979 2.28-2.75 2.33-5.27 0-.635-.026-1.09-.053-1.3l-.053-.291h.794c.079.529.106 1.27.106 2.2a7.45 7.45 0 0 1-1.56 4.66c.265-.132.582-.371.926-.662 1.06-.9 1.64-2.62 1.69-5.08a6.89 6.89 0 0 0-.106-1.22c.265-.026.503-.079.715-.106.079.185.132.635.212 1.3.132 2.41-.397 4.26-1.64 5.58.609-.318 1.09-.768 1.46-1.27.768-1.09 1.11-2.65 1.11-4.68 0-.132-.053-.556-.132-1.24.318-.106.609-.265.847-.423.106.582.132 1.22.132 1.88 0 1.75-.423 3.36-1.3 4.84.662-.556 1.19-1.27 1.59-2.12.344-.768.529-1.93.529-3.44 0-.265-.079-.873-.238-1.83.423-.45.662-.9.715-1.35.344.45.529 1.43.556 2.96-.026 1.61-.265 2.96-.715 4.05-.503 1.16-1.11 2.09-1.85 2.78-.715.609-2.14.979-4.37 1.09zm16.1-.212c-.212.212-.45.344-.715.371-.291.026-.529-.079-.715-.265-.106-.079-.159-.159-.212-.265l-9.98.609a12.63 12.63 0 0 0 1.06-1.01l8.87-.556c.026-.106.079-.185.132-.265.185-.238.423-.371.715-.371.265-.026.529.079.768.265.238.212.371.45.371.715.026.291-.079.529-.291.768z" fill="#b32"/></svg>