<svg xmlns="http://www.w3.org/2000/svg" xmlns:xlink="http://www.w3.org/1999/xlink" width="150" height="200" viewBox="0 0 39.7 52.9"><style><![CDATA[.G{stroke-linejoin:round}.H{stroke-miterlimit:10}.I{stroke-linecap:round}]]></style><defs><path id="A" d="M-160.3 441.8s.1.3.2.8.4 1.3.6 2.4l1.8 8.5c.6 3.5 1.3 7.6 1.7 12.1l.3 3.4.3 3.5c.2 2.3.2 4.7.3 7.1l-.1 7.1c0 1.2-.1 2.3-.2 3.5l-.3 3.4c-.2 2.2-.5 4.4-.8 6.4l-.9 5.7c-.3 1.8-.7 3.4-1 4.8s-.6 2.7-.9 3.7c-.2 1-.5 1.8-.6 2.4-.2.5-.2.8-.2.8s0-.3-.1-.9c0-.6-.1-1.4-.2-2.4l-.4-8.6c-.2-7.1-.2-16.5-.3-25.8s-.3-18.7 0-25.9c.1-3.6.3-6.5.4-8.6.1-1 .2-1.9.2-2.4.2-.7.2-1 .2-1z"/><path id="B" d="M-51 377.5a4.53 4.53 0 0 0 .1.8c0 .6.2 1.4.2 2.4l.4 8.5c.2 7 0 16.3 0 25.4l-.3 25.4c-.1 3.5-.3 6.4-.4 8.5-.1 1-.2 1.8-.2 2.4-.1.6-.1.8-.1.8s-.1-.3-.2-.8-.4-1.3-.6-2.3c-.5-2-1.2-4.9-1.9-8.3-.3-1.7-.6-3.6-.9-5.6s-.5-4.1-.8-6.3l-.3-3.3c-.1-1.1-.2-2.3-.2-3.4-.1-2.3-.1-4.7-.1-7 0-2.4.1-4.7.3-7l.3-3.4.3-3.3c.5-4.4 1.1-8.4 1.7-11.9s1.3-6.3 1.8-8.3c.2-1 .5-1.8.6-2.3.3-.7.3-1 .3-1z"/></defs><g transform="matrix(.265 0 0 .265 47.8 -90.1)"><g fill="none"><g stroke="#339" class="G H"><path d="m-99.3 380c0 75.3 7.2 110 28.4 134" stroke-width="4.2" class="I"/><g stroke-width="4.5" class="I"><path d="m-120 382c0 76.4 7.7 114 29.5 138"/><path d="m-118 404 18.5-2m-18.2 26.3 19.5-2m-16.4 25 18.2-2.5m-16 25.2 19.1-3.2m-12.1 22 17.2-3.8m-10.3 18.5 17.1-4.7"/></g><path d="M-67.6 516c-.7-2.1-6.6-2.4-13-.6-6.5 1.8-11.1 4.9-10.3 7s6.6 2.4 13 .6c6.5-1.8 11.1-4.9 10.3-7z" stroke-width="4.2"/></g><circle cx="-110" cy="370" r="13.5" stroke="#b32" stroke-width="3"/></g><path d="M-102 370a8.71 8.71 0 0 1-8.7 8.7 8.71 8.71 0 0 1-8.7-8.7 8.71 8.71 0 0 1 8.7-8.7c4.8-.1 8.7 3.9 8.7 8.7z" fill="#b32"/><g fill="#084"><use xlink:href="#A"/><use x="19" xlink:href="#A"/><use xlink:href="#B"/><use x="-20" xlink:href="#B"/></g></g></svg>