<svg xmlns="http://www.w3.org/2000/svg" width="150" height="200" viewBox="0 0 39.7 52.9"><path d="M7.615 8.875c0 .557-.424 1.007-.954 1.007s-.954-.45-.954-1.007.424-1.007.954-1.007.954.451.954 1.007z" fill="#084"/><path d="M20.07 36.435c-1.776.186-4.823.027-6.731-.689-1.776-.715-3.869-1.802-5.115-3.153-1.007-.98-1.643-2.226-1.802-3.551-.026-.742.026-1.51.212-2.252.215-.984.507-1.95.874-2.888a18.73 18.73 0 0 1 3.339-5.247l1.378-1.457.583-.662.609-.742c.398-.504.742-1.033 1.06-1.59l.344-.768c.106-.265.186-.557.265-.822l.08-.742c0-.132-.265-1.272-.265-1.272l-.609-.928c-.928-1.087-1.829-1.192-3.365-1.192a2.77 2.77 0 0 0-1.034.212c-.398.185-.715.477-.928.848-.345.768-.239 1.06-.185 1.882-.026.424-.424.954-.477.53l-.318-1.06c-.132-.822.026-1.669.45-2.385C8.913 7.842 10 7.153 10.901 7.1c1.643-.053 3.233.795 4.319 1.855.98.874 1.484 2.12 1.351 3.339-.186 1.219-.689 2.385-1.457 3.392a23.72 23.72 0 0 1-2.491 2.915c-2.12 2.147-3.63 4.743-4.373 7.526-.239.795-.397 1.59-.424 2.412a5.15 5.15 0 0 0 1.245 3.18s2.041 2.12 4.479 2.968c1.908.636 7.181 1.51 10.6.636.424.08.265.663-4.081 1.113zM6.475 15.553c-.026.027-.053.027-.08.027-.106.026-.185-.027-.212-.106a1.43 1.43 0 0 1 .08-.662l.08-.53c.026-.239-.345-.769-.345-.795l-.477-.795c-.479-.533-.93-1.09-1.351-1.669a3.07 3.07 0 0 1-.504-1.776c.106-.689.689-1.352 1.192-1.908.08-.106.265 0 .185.106-.265.344-.424.768-.504 1.166-.026 1.219.53 2.385 1.511 3.18.277.277.518.589.715.927.159.292.265.636.291.954s-.026.61-.106.901a3.07 3.07 0 0 1-.477.98z" fill="#339"/><path d="M35.334 14.175c-1.219 1.245-1.988 3.18-2.782 4.664a48.23 48.23 0 0 1-2.703 4.267c-1.802 2.65-4.743 4.505-8.135 5.088-.636.133-1.351-.45-.371-.927 1.457-.53 2.862-1.166 4.187-1.935.583-.371 1.113-.795 1.616-1.272.53-.477 1.007-1.007 1.457-1.537a19.24 19.24 0 0 0 1.511-2.093l1.457-2.332c.901-1.563 2.2-2.915 3.763-4.002 0-.026.053.027 0 .08z" fill="#084"/><path d="M33.135 23.715c-.371.769-.822 1.51-1.405 2.173a8.27 8.27 0 0 1-1.802 1.51c-.689.424-1.404.768-2.173 1.033a9.98 9.98 0 0 1-2.491.557c-.079 0-1.245.212-1.245-.371 0-.424.768-.503.874-.557l2.756-.98a9.38 9.38 0 0 0 2.305-1.298 7.76 7.76 0 0 0 1.564-1.669c.504-.822.927-1.67 1.272-2.544l1.139-2.942.636-1.431c.238-.477.53-.927.822-1.352.026-.053.133-.027.106.026-1.007 2.385-1.245 5.486-2.358 7.844z" fill="#339"/><path d="M31.704 29.81c-.662.292-1.351.477-2.093.557a6.3 6.3 0 0 1-1.219.053c-.424 0-.848-.053-1.245-.133a1.72 1.72 0 0 1-.451-.424c-.026-.132.053-.265.186-.291.345-.053.716-.08 1.06-.106l.954-.08h.079l.133-.026.212-.027.424-.079c.265-.053.53-.133.795-.212l.106-.027.079-.026.212-.106c.159-.053.291-.133.424-.212.291-.159.53-.345.769-.557a6.33 6.33 0 0 0 1.431-1.934 7.7 7.7 0 0 0 .715-2.65c.106-.928.106-1.882.08-2.809 0-.053.106-.08.106 0a10.06 10.06 0 0 1 .424 2.65c0 .901-.133 1.802-.451 2.65-.371 1.484-1.219 3.021-2.729 3.79z" fill="#084"/><path d="M35.732 29.015c-.583 1.193-1.669 2.12-3.021 2.544-.689.265-1.404.424-2.147.503-.371.053-.742.053-1.113.053a2.9 2.9 0 0 1-1.06-.212c-.053-.026-.371-.344-.371-.424-.026-.132.053-.265.186-.291s.291-.027.424-.027l1.192-.079a10.61 10.61 0 0 0 2.041-.371 7.11 7.11 0 0 0 1.776-.795c.53-.344.98-.795 1.298-1.325.291-.583.318-1.51.318-2.147 0-.026-.133-1.245-.106-1.272.027 0 .212-.238.53.928.265.662.345 2.252.053 2.915z" fill="#339"/><path d="M34.248 32.46c-.344.609-1.245 1.087-1.749 1.219-.45.132-.954.159-1.431.106a6.97 6.97 0 0 1-1.511-.345 8.43 8.43 0 0 1-.742-.291c-.239-.08-.451-.265-.53-.477-.026-.133.371-.61.371-.61l.583.159.53.212c.424.159.875.292 1.325.371.398.08.795.08 1.193.053.398-.053.769-.053 1.272-.715 1.882-2.544 1.643-1.113.689.318z" fill="#084"/><path d="M30.485 35.11c-.265.106-.53.133-.795.08a4.74 4.74 0 0 1-1.351-.424l-.186.133a3.99 3.99 0 0 1-.451.265c-.371.212-.742.371-1.139.504-.663.265-1.404.371-2.12.318-.053 0-.795-.371.291-.371a2.82 2.82 0 0 0 .928-.239c.344-.132.689-.291 1.007-.477l1.007-.557.398-.265c.106-.106.265-.159.451-.159.106 0 .186.053.212.133l1.192.265c.186.053.398.053.583.053.106-.027.212-.027.291-.08.133-.053.106-.026.212-.106.026-.026.053-.026.079-.026.053 0 .079.053.053.106 0 .265-.451.742-.663.848zm2.862-20.617c-1.59.689-3.021 1.643-4.187 2.862-1.087 1.166-2.067 2.412-2.942 3.71a40.97 40.97 0 0 1-2.941 3.842c-.901 1.113-1.829 2.014-3.18 2.65-.663.292-1.404.424-2.146.398-.398-.027-.768-.08-1.139-.186-.212-.053-.398-.132-.583-.212-1.246-.53-1.325-1.245-.053-.874.186.053.371.053.556.079.345.027.689.027 1.007 0-1.166-.98-2.146-2.332-2.305-3.737.026-.822.239-1.617.689-2.332l1.325-2.359a16.38 16.38 0 0 0 2.146-4.77c.186-.848.504-1.723.371-2.571-.265-2.067-1.696-4.108-3.736-5.565-1.033-.822-2.12-1.378-3.578-1.457-.742-.053-2.04-.159-3.312.371-1.298.504-3.419 2.147-4.267 3.313-.795.477-.291-1.193-.08-1.325.53-.822 2.65-2.995 4.452-3.498 1.802-.662 2.782-.424 3.684-.344 3.074.185 5.645 3.047 7.023 5.538.769 1.617 1.219 4.213.769 5.936-.291 1.113-1.007 2.2-1.564 3.207l.901-.716c.768-.609 1.484-1.272 2.173-1.961 1.086-1.06 1.961-2.279 2.57-3.63a5.43 5.43 0 0 0 .451-1.935c-.026-.689-.344-2.623-.477-3.286-.026-.106.026-.186.106-.239.133-.079.291-.026.371.08.318.397.742 2.147.769 2.65a4.32 4.32 0 0 1 0 1.431 7.07 7.07 0 0 1-1.087 2.756c-.874 1.298-1.988 2.438-3.259 3.418l-2.65 1.802-.742 1.298-1.325 2.358c-.398.662-.583 1.378-.53 2.12a4.28 4.28 0 0 0 .265.954l.212.45c.079.159.186.318.265.45l1.113 1.59.345-.079.239-.08.159-.079c.159-.053.291-.133.45-.186l.477-.265.212-.132.079-.053.053-.027.848-.662a7.3 7.3 0 0 0 .795-.769l.398-.424.318-.371c1.034-1.219 1.934-2.544 2.862-3.843l.186-.265a5.19 5.19 0 0 0 .556-1.749c.053-.424.053-.848.053-1.272l-.609.954c-.901 1.298-2.12 2.385-3.551 3.207a17.31 17.31 0 0 1-2.253 1.033l-1.219.398c-.451.132-.901.185-1.378.212-.106 0-.186-.053-.239-.133-.079-.132-.026-.291.106-.371l.636-.291.663-.239.636-.212.291-.106.212-.08c.742-.265 1.457-.609 2.146-.98.636-.371 1.245-.795 1.776-1.272.583-.53 1.086-1.087 1.511-1.696 1.034-1.404 1.723-2.968 2.067-4.611.318-1.643-.239-4.929-1.511-6.148-1.245-1.193.291-.371.715.132l.318.318c1.113 1.378 1.378 4.426 1.14 6.069-.159.98-.477 1.935-.901 2.835l.079.609a6.23 6.23 0 0 1 .08 1.723c1.404-1.961 3.524-3.418 6.015-4.081 2.756-.98 3.047-.397.106.716zm-24.857-.08c-.185.238-.424.45-.689.662-.053.027-.133 0-.106-.053.212-.238.345-.503.424-.768s.132-.53.132-.822c.026-.265 0-.557-.053-.822a.81.81 0 0 1-.053-.742c.08-.079.238-.106.371-.053.398.133.689.292.715.557.026.291-.239.874-.318 1.166a4.41 4.41 0 0 1-.424.874z" fill="#339"/><path d="M8.41 14.97c.08-.185.133-.371-.026-.477-.424-.292-1.722-.451-1.934-.371-.106.053-.239.185-.318.53l-1.087 8.586zm8.984 33.92s.821.636 2.093.424c0 0-1.06-.451-1.299-.954l1.564-8.136s.822-.451.318-2.597l-.344-1.298c-.079-.291-.636-2.093-1.325-3.578l-.053.848c0 .822.053 2.04.371 3.18.504 1.908.398 4.107-1.272 9.566 0 0-.318 2.438-5.115 2.517.822.371 2.544.133 3.763.159 0 0 .053.848-1.934 1.749-.026 0 1.722.265 3.233-1.881zm6.095-.742l1.537-7.897s.822-.45.318-2.597c0 0-.769-2.915-1.669-4.876v1.669c.053.742.133 1.537.318 2.358.503 1.908.397 4.108-1.272 9.566 0 0-.291 2.041-3.524 2.544.662.238 1.431.238 2.173.159 0 0 .053.848-1.934 1.749 0 0 1.776.292 3.259-1.882 0 0 1.723.609 2.995.398-.026 0-1.113-.186-2.2-1.192z" fill="#b32"/></svg>