<svg xmlns="http://www.w3.org/2000/svg" width="150" height="200" viewBox="0 0 39.7 52.9"><path d="M37.134 29.215c-.294-.366-1.079-1.116-1.574-1.503l-1.67-1.192-2.258-1.646c-.125-.109-.185-.217-.299-.535-.411-1.174-.89-2.234-1.463-3.207-.662-.435-1.338-.853-1.913-1.41.019.034.026.064.021.077-.04.095-.4.077-.66-.037-.477-.204-.927-.792-.927-1.208v-.204l-1.076-.551c-2.353-1.208-4.108-1.932-5.433-2.247-1.418-.334-2.38-.095-3.392.843-.313.289-.901.991-1.505 1.781l-.143.18.138.281c.435.861 1.158 1.937 1.842 2.73.49.572 1.752 1.744 2.446 2.276 1.46 1.124 2.624 1.844 6.095 3.79l2.862 1.619.612.366.612.005c.599.008.62.013.898.138.519.238.742.474 1.344 1.434.307.49.602.816.898 1.002a1.55 1.55 0 0 1 .257.185c.09.106.066.315-.074.583-.082.17-.13.318-.13.435 0 .172.008.18.252.326.135.079.387.265.559.411.225.186.339.254.4.239.17-.04.265-.193.352-.575.048-.204.117-.419.151-.472.04-.053.299-.201.594-.339a9.94 9.94 0 0 0 1.617-.935l1.457-1.126c.058-.087-.474-.986-.882-1.5zm-7.923-.8c-.061.196-.138.257-.26.186l-5.883-3.079c-2.703-1.495-4.478-2.942-5.724-4.69-.36-.496-.962-1.582-1.124-2.022l-.103-.286.178-.18c.196-.196.36-.48.554-.946.069-.162.156-.31.191-.331.04-.016.329-.053.649-.077a10.83 10.83 0 0 1 3.763.358c1.561.419 2.862 1.031 5.327 2.51l1.532.909c.313.178.387.238.469.397.056.106.233.363.4.575.294.387.525.766.578.97.027.095.048.114.191.114.342 0 .745.172.745.318 0 .037.087.358.196.713.148.48.199.721.209.959l.008.318-.217.117a2.71 2.71 0 0 0-.329.217c-.143.125-.268.122-.742-.024-.594-.186-.988-.416-1.799-1.055l-.697-.525-.231-.156.103-.17c.504-.792.183-1.781-.689-2.149-.125-.053-.278-.093-.329-.085-.087.013-.056.053.252.339.511.466.58.641.376.925-.069.101-.087.106-.315.085-.305-.032-.906-.225-1.389-.451-.53-.246-1.031-.564-1.995-1.264-1.14-.824-1.738-1.179-2.141-1.277l-.125-.029.082.133c.13.204.564.556 1.166.943.313.196.681.472.824.607.273.257.525.633.472.708s-.681.021-1.036-.085c-.649-.188-1.118-.443-2.602-1.41l-1.041-.652c-.39-.217-.837-.416-.872-.382-.048.04.26.387.538.607.135.109.559.387.941.62 1.065.644 1.24.792 4.081 3.472l2.523 2.147c.798.551 1.036.665 1.733.8.988.196 1.256.305 1.5.607.109.146.143.44.074.67zm-2.756-4.081c.305.289.39.395.376.466-.026.17-.143.13-.451-.154-.26-.241-.4-.323-1.049-.633-1.018-.482-1.304-.734-1.465-1.269-.061-.196-.066-.254-.019-.305.074-.079.39-.077.694.016a5.1 5.1 0 0 1 1.579.869l.17.146-.117.114c-.074.072-.114.154-.114.241 0 .119.056.191.395.509zm-.808.185c.906.641 1.696 1.296 2.245 1.866.429.443.39.48-.233.225-.983-.403-2.337-1.227-3.286-2.009-1.24-1.015-1.521-1.402-1.124-1.529l.148-.045a88.12 88.12 0 0 1 2.255 1.492zm6.678 5.141c-.191-.064-.363-.246-.363-.374 0-.032.069-.048.204-.045.347.005.49.093.49.305 0 .175-.079.201-.331.114zm3.816 1.301c-.09.156-.633.575-.912.705-.246.114-.326.13-.641.13-.217 0-.376-.021-.408-.048-.026-.024-.156-.342-.281-.705-.268-.753-.572-1.357-.859-1.712-.239-.294-.594-.599-.84-.729l-.183-.093-.042.114c-.125.334-.299.48-.525.435-.209-.045-.731-.551-1.084-1.047-.382-.535-1.269-1.99-1.235-2.022.013-.013.178.013.36.053.451.101 1.473.109 1.855.008l.334-.093c.056-.021.087 0 .122.079a.67.67 0 0 1 .042.18c0 .114.204.734.326.986.162.347.482.769.845 1.124.294.289.71.612 2.043 1.582a9.96 9.96 0 0 1 .79.652c.286.278.331.337.291.4zm1.089-.676c-.021 0-.58-.254-1.248-.567-1.444-.681-2.046-1.036-2.494-1.479-.511-.503-.708-.946-.681-1.537.008-.162.034-.302.061-.31.021-.008.17.079.321.193s.771.514 1.378.89c1.582.983 2.197 1.564 2.563 2.417.138.318.162.392.101.392z" fill="#084"/><path d="M21.419 37.165a.08.08 0 0 1 .008.037c0 .122-.644 1.51-.912 1.964-.164.284-1.222 2.862-1.842 3.392-.368.323-.376.337-.665.991-.747 1.685-1.391 2.52-2.144 2.782-.559.199-.596.175-.363-.231l.538-.98.586-1.018c.225-.347.223-.376-.079-.376-.36 0-.787.103-1.444.347l-.88.284c-.374.066-.954-.032-.888-.151.048-.098.395-.212 1.007-.331.678-.13.795-.164.967-.305.156-.122.212-.241.212-.456 0-.156-.019-.185-.13-.257-.072-.042-.262-.117-.427-.159-.363-.095-.57-.244-.546-.403.013-.106.019-.106.236-.098.527.019 1.177.236 2.078.684.31.156.604.284.649.284.138 0 .458-.204.631-.405.093-.106.254-.352.35-.546.352-.686 1.556-3.657 1.603-3.816.196-.567.578-.994 1.065-1.179l.278-.087-1.256-.292c-.098.371-.975 2.647-1.32 3.419-.419.935-1.004 1.927-1.158 1.972-.034.008-.734-.111-1.55-.268l-2.003-.345c-.631-.082-1.309-.085-1.664-.013-.493.106-.88.469-.747.71.125.223.551.326 1.328.326.572 0 .994.05 1.293.151.262.09.445.199.445.265 0 .056-.262.196-.678.36-.498.196-.684.246-1.94.546-1.688.397-2.181.567-2.676.941-.183.135-.374.313-.453.429-.159.228-.289.535-.239.559.058.026.795-.042 1.185-.111.199-.032.973-.212 1.709-.392 1.924-.469 2.756-.62 3.445-.639l.334-.011.013.231c.019.307-.093.655-.307.975-.191.281-.533.564-1.301 1.076l-.4.265.093.098a7.8 7.8 0 0 1 .382.527c.31.466.44.599.715.745.257.143.31.13.395-.095.183-.493.761-1.203 1.728-2.139.636-.615.951-.962 1.208-1.338.204-.294.514-.925.514-1.049 0-.037.034-.093.074-.122.093-.072.421-.05 1.28.09.67.109 1.208.135 1.32.066.058-.032.061-.069.032-.175-.085-.278-.268-.432-.848-.721a3.89 3.89 0 0 1-.501-.286c-.185-.138-.191-.196-.061-.697.254-.988.612-1.778 1.616-3.551l.617-1.113c.048-.093.109-.18.154-.225zm9.646 9.673a9.86 9.86 0 0 0-1.139-2.234c-.265-.358-.109-.564.527-.692.496-.098.652-.196.652-.419 0-.095-.027-.135-.122-.185-.238-.13-.49-.204-1.018-.307l-.583-.132c-.053-.032-.048-.257.029-2.192a27.16 27.16 0 0 1 .527-4.425s-.474-.034-.482 0c-.466 1.924-.511 2.435-.668 3.896-.061.578-.074 2.406-.021 2.6.021.077.103.175.225.27.236.178.239.228.087.615-.061.151-.109.307-.109.347 0 .196.162.445.625.973.527.591.649.8.649 1.094 0 .217-.127.527-.212.527-.095 0-.4-.384-.867-1.089-.419-.639-.814-1.169-.896-1.206-.069-.037-.395.133-.631.321-.421.337-.61.67-.975 1.741-.387 1.134-.591 1.513-.996 1.858-.313.265-.917.519-.917.384 0-.026.101-.228.223-.443l2.117-4.054a2.24 2.24 0 0 0-.482-.186 216.73 216.73 0 0 0-3.074.859c-.36.109-.522.138-.747.146-.278.003-.286 0-.299-.079-.019-.122.156-.297.387-.384.334-.127 3.763-.856 4.214-1.174.623-.44.652-.485.697-1.081.053-.718.204-1.275.35-2.056.122-.66.339-1.807.193-2.417l-.482.114c.079.737-.05 1.579-.26 2.348-.199.734-.371 1.664-.371 1.858 0 .109-.04.178-.188.331-.721.745-2.001 1.227-4.24 1.603-.347.056-.665.13-.713.159-.09.058-.31.384-.461.681-.13.257-.178.294-.543.397-.344.095-.456.162-.456.26 0 .072.223.344.318.39.17.082 1.073-.024 1.852-.212.541-.13.808-.236 1.534-.594.657-.323 1.049-.472 1.328-.506.249-.029.297.04.291.445 0 .562-.223.991-1.134 2.207l-.673.967c-.321.572-.371 1.004-.143 1.378.17.284.904.79.951.66l.09-.27c.122-.358.44-.806 1.073-1.524.983-1.113 1.092-1.291 1.166-1.998.061-.572.114-.774.252-.973.122-.17.413-.384.527-.384.04 0 .183.066.318.148.318.188.7.628.978 1.116.551.981.901 1.415 1.304 1.646.217.125.541.26.623.26.119.011.008-.747-.212-1.378z" fill="#b32"/><path d="M3.77 8.28c.019-.011 1.752-.231 2.006-.281.527-.106 1.373-.146 1.81-.082.175.024.072-.196-.029-.501-.034-.106.021-.334.103-.506.345-.716 1.267-1.37 1.267-1.37.896-.448 1.685-.647 1.937-.657.745-.029 1.656.082 2.414.477a12.4 12.4 0 0 1 1.611.983c.448.329.991.872 1.102.983.477.477.633 1.084.596 2.237-.024.768.048 1.815.048 1.961 0 .196-.122.196-.363.265-.199.058-.723-.098-.829-.098-.278 0-.898-.132-1.566-.132-1.261 0-1.935.106-3.684.575-.975.265-1.815.636-2.311.816l-.299-1.161c.008-.673.498-1.126.861-1.691l.199-.299c-.064-.08-.199-.443-.315-.649-.254-.435-.39-.594-.61-.697-.225-.109-.262-.08-.262.209 0 .363.148.694-.032.511-.098-.101-.559-.209-1.134-.299l-1.044-.209c-.776-.125-1.582-.331-1.484-.384zm2.968 2.361c-.265-.056-.596-.246-1.007-.575-.405-.329-2.321-1.211-2.29-1.259.011-.019 1.42.307 1.436.313a43.08 43.08 0 0 1 1.023.199c.636.127.943.217 1.336.384.405.175.419.207.215.575-.106.196-.151.246-.313.318a.46.46 0 0 1-.4.045zm27.03 24.141c-.09-.162-.281-.432-.429-.591-.299-.331-.411-.363-.578-.156-.077.095-.09.18-.103.583l-.034.559c-.026.122-.125.117-.342-.008-.17-.095-.456-.138-.456-.064a.74.74 0 0 0 .066.178c.151.339.027.506-.588.798-.265.122-.464.241-.525.318-.053.064-.125.122-.17.122-.135 0-.498-.35-.66-.636-.199-.355-.294-.684-.485-1.712-.183-.983-.305-1.373-.538-1.707-.191-.273-.363-.416-.387-.318-.04.162.477 2.192.723 2.862.053.13.077.249.066.27-.056.087-.763-.013-1.232-.178-.395-.138-.697-.286-1.126-.549-.355-.215-.578-.374-1.805-1.301-.819-.62-1.794-1.216-1.868-1.145-.026.024.122.254.305.488.339.419.811.8 1.874 1.513.933.625 1.484 1.163 1.781 1.746.164.315.305.782.326 1.084.019.188.008.207-.117.273-.209.114-.779.233-1.105.233-.4 0-.798-.077-1.643-.315-.975-.273-.967-.273-1.916-.432-.98-.17-1.574-.31-2.528-.604-2.311-.716-4.956-2.048-7.023-3.551-1.206-.874-2.676-2.154-3.498-3.074-2.536-2.782-3.763-5.724-3.922-8.666-.087-1.558.265-2.862.668-4.293.302-1.079.779-2.157 1.32-2.631.398-.35 1.479-.673 1.479-.673l3.392-.816c2.062-.416 4.134.299 4.134.299.973.244 2.131.912 2.451 1.06l2.676 1.293c1.518.689 2.994 1.866 4.108 2.782.888.737 1.765 1.611 1.913 1.892.575.557 1.251.975 1.913 1.41-.814-1.394-1.415-2.703-2.703-3.895-1.402-1.306-2.783-2.282-4.611-3.286-.755-.403-2.528-1.206-3.419-1.55l-.702-.294c-.05-.066-.607-.432-.652-.959-.034-.403-.04-1.359-.021-2.229.034-1.492-.697-2.221-1.524-2.915-.602-.506-1.768-1.821-2.915-2.226-.392-.138-.983-.286-1.195-.342-.488-.119-.79-.186-1.214-.122-1.073.156-2.075.625-2.756 1.044-.657.416-1.505 2.178-1.707 2.677-.04.109-.649.249-1.397.358l-1.296.191c-1.2.175-1.805.461-2.117.986l-.122.207.546.252c1.068.498 2.38 1.206 3.604 1.937.559.337.58.384.625.511.366 1.049.808 1.945.808 1.945l-.742.591c-.795 1.121-1.208 2.486-1.457 4.187a23.44 23.44 0 0 0-.021 3.737c.215 1.622.594 2.703 1.174 3.948.196.419.848 1.534 1.603 2.703.92 1.41 1.563 1.985 2.372 2.703.461.416.856.925 2.099 1.789.456.321 1.094.904 1.534 1.23 1.577 1.15 2.401 1.261 3.286 1.757.572.321 2.295.84 2.968 1.06.318.109 2.046.472 2.385.53l4.028.663c.774.093 1.921-.225 2.088-.286-.008-.477-.143-1.092-.167-1.359-.034-.397-.398-1.259-.398-1.259.22-.074 1.624.564 1.624.564l-.199 1.161.951.334c.331-.212.583-.27 1.105-.273a5.24 5.24 0 0 1 .681.029l.178.032.281-.541c.307-.583.435-.721.731-.798.143-.032.233-.029.443.021.143.032.273.048.286.04s.021-.225.021-.474c0-.451-.003-.472-.159-.766z" fill="#d71"/><path d="M11.72 7.485c0 .477-.371.848-.848.848s-.848-.371-.848-.848.371-.848.848-.848.848.371.848.848z" fill="#b32"/></svg>