<svg xmlns="http://www.w3.org/2000/svg" width="150" height="200" viewBox="0 0 39.7 52.9"><g transform="matrix(.265 0 0 .265 47.7 -91.2)"><g fill="none"><g stroke="#339"><path d="m-94.3 390c-4.5 48.5 13.8 95.3 28 122" stroke-width="4.2" stroke-linecap="round" stroke-linejoin="round" stroke-miterlimit="10"/><g stroke-linecap="round" stroke-linejoin="round" stroke-miterlimit="10" stroke-width="4.5"><path d="m-112 392c12.5 35.7-59.5 104 43.7 119"/><path d="m-110 413 14.3-1.5m-18.8 20 19.8-2.3m-25.8 19.3 27-3.5m-26.7 35.7 32.5-20m-23 34 27-20.7m-8 31.3 13.5-19.2"/></g></g><circle cx="-104" cy="374" r="17.8" stroke="#b32" stroke-width="4"/></g><path d="m-97.1 375a6.7 6.7 0 1 1-13.4 0 6.7 6.7 0 1 1 13.4 0z" fill="#b32"/><path d="M-147 396s.4 0 1.3.1c.8.1 2.1.2 3.6.6s3.4 1.1 5.3 2.4c1.9 1.2 3.9 3 5.6 5.4 1.6 2.4 3 5.2 3.7 8.4.8 3.1 1.1 6.5 1 9.9s-.8 6.9-1.6 10.3a91.6 91.6 0 0 1-3.3 10.1c-2.6 6.6-5.9 12.8-9.6 18.2s-7.7 10.1-11.5 13.7c-1.9 1.8-3.8 3.3-5.5 4.6s-3.3 2.3-4.6 3c-1.3.8-2.4 1.3-3.1 1.6s-1.1.5-1.1.5c-.2.1-.3 0-.4-.1s0-.3.1-.4c0 0 .4-.2 1.1-.6s1.7-1 2.9-1.9c2.4-1.7 5.7-4.4 9.1-8.2s6.9-8.6 10.1-14c3.1-5.5 6-11.6 8-18 1-3.2 1.8-6.4 2.3-9.6s.8-6.4.9-9.4 0-5.9-.4-8.5c-.2-1.3-.5-2.6-.8-3.8s-.8-2.3-1.3-3.3-1.1-2-1.7-2.8c-.6-.9-1.3-1.6-2-2.3-1.3-1.4-2.8-2.4-4-3.1l-3-1.6c-.7-.3-1.1-.5-1.1-.5-.2-.1-.2-.2-.2-.4s.1-.3.2-.3zm-1 0s.2.3.5.9c.4.6.9 1.5 1.4 2.7.6 1.2 1.1 2.8 1.6 4.5.3.9.5 1.9.7 2.9l.3 1.6.3 1.7c.4 2.3.6 4.7.6 7.4l-.4 8.2-.7 4.3-1 4.3-2.5 8.6c-1.8 5.7-4 11.3-6.5 16.3a94.1 94.1 0 0 1-3.8 7.1c-1.3 2.2-2.6 4.2-3.9 6.1-1.3 1.8-2.5 3.4-3.7 4.8s-2.2 2.6-3.1 3.5-1.6 1.6-2.2 2.1c-.5.5-.8.7-.8.7l-.4-.4s.2-.3.7-.8c.4-.5 1.1-1.3 1.9-2.3.4-.5.8-1.1 1.3-1.7.4-.6 1-1.3 1.4-2 1-1.5 2.1-3.2 3.1-5.1 1.1-1.9 2.2-4 3.2-6.2 1.1-2.3 2.1-4.7 3.1-7.2s1.9-5.2 2.8-7.9 1.6-5.5 2.3-8.3 1.2-5.6 1.6-8.4.7-5.6 1-8.2l.8-7.7c.2-2.4.3-4.7.4-6.9a58 58 0 0 0 0-5.9c0-.9-.1-1.7-.1-2.5s-.1-1.5-.1-2.1c-.1-.6-.1-1.2-.1-1.7-.1-.5-.1-.9-.2-1.3-.1-.7-.1-1.1-.1-1.1z" fill="#084"/><path d="m-122 374-21.6-2 20.7-1.7-19.5-6.9 21.4 3.1" fill="#b32"/><path d="M-63 391l-1.1.5c-.8.3-1.8.8-3 1.6s-2.6 1.8-4 3.1c-.7.7-1.3 1.4-2 2.3l-1.7 2.8c-.5 1-1 2.1-1.3 3.3-.4 1.2-.6 2.4-.8 3.8-.4 2.6-.5 5.5-.4 8.5s.4 6.2.9 9.4 1.3 6.4 2.3 9.6c2 6.4 4.9 12.5 8 18 3.2 5.5 6.7 10.3 10.1 14 3.4 3.8 6.7 6.5 9.1 8.2 1.2.9 2.2 1.5 2.9 1.9a25.2 25.2 0 0 0 1.1.6c.1.1.2.3.1.4s-.2.2-.4.1c0 0-.4-.2-1.1-.5s-1.8-.9-3.1-1.6c-1.3-.8-2.9-1.8-4.6-3-1.7-1.3-3.6-2.8-5.5-4.6-3.8-3.6-7.9-8.2-11.5-13.7-3.7-5.4-7-11.7-9.6-18.2a91.6 91.6 0 0 1-3.3-10.1c-.9-3.4-1.5-6.9-1.6-10.3s.2-6.8 1-9.9 2.1-6 3.7-8.4 3.6-4.2 5.6-5.4c1.9-1.2 3.8-1.9 5.3-2.4 1.5-.4 2.8-.6 3.6-.6s1.3-.1 1.3-.1c.2 0 .3.1.3.3a1.38 1.38 0 0 1-.3.4zm1.7-.5s0 .4-.1 1.1c0 .4-.1.8-.2 1.3s-.1 1.1-.1 1.7c-.1.6-.1 1.3-.1 2.1l-.1 2.5c-.1 1.7-.1 3.7 0 5.9 0 2.1.2 4.4.4 6.9l.8 7.7 1 8.2 1.6 8.4 2.3 8.3 2.8 7.9 3.1 7.2 3.2 6.2 3.1 5.1c.5.8 1 1.4 1.4 2s.9 1.2 1.3 1.7l1.9 2.3.7.8-.4.4s-.3-.3-.8-.7l-2.2-2.1a39.8 39.8 0 0 1-3.1-3.5c-1.2-1.4-2.4-3-3.7-4.8s-2.6-3.9-3.9-6.1l-3.8-7.1c-2.5-5-4.7-10.6-6.5-16.3-.9-2.9-1.8-5.8-2.5-8.6-.4-1.4-.7-2.9-1-4.3s-.5-2.9-.7-4.3c-.4-2.8-.4-5.6-.4-8.2.1-2.6.3-5.1.6-7.4l.3-1.7.3-1.6c.2-1 .5-2 .7-2.9.5-1.8 1.1-3.3 1.6-4.5.5-1.3 1-2.1 1.4-2.7s.5-.9.5-.9z" fill="#084"/><path d="M-70.5 502l1.1 1.3 1.1 1.5 1.4 1.9 1.6 2.3c.6.8 1.1 1.7 1.7 2.6l1.6 2.9a27.6 27.6 0 0 0 1.7 2.9c.6 1 1.3 1.9 1.9 2.8l2 2.7 3.7 4.6 2.8 3.1 1.1 1.2c.1.1.1.2 0 .3s-.2.1-.3 0c0 0-.5-.3-1.3-.9l-1.5-1.1c-.6-.4-1.2-.9-1.9-1.5l-4.6-4-2.4-2.4-2.4-2.7-2.3-2.7c-.7-.9-1.5-1.8-2.1-2.8-1.2-1.9-2-3.9-2.5-5.7l-.6-2.5-.2-1.9v-1.7c0-.1.1-.2.3-.2 0-.1 0-.1.1 0z" fill="#339"/></g></svg>