<svg xmlns="http://www.w3.org/2000/svg" width="150" height="200" viewBox="0 0 39.7 52.9"><path d="M18.61 15.17c0 .82-.664 1.484-1.484 1.484s-1.484-.664-1.484-1.484.664-1.484 1.484-1.484 1.484.664 1.484 1.484z" fill="#339"/><path d="M9.07 33.72c-.133 0-.318-.027-.45-.239-.026-.053-.106-.185-.08-.238.08-.186.159-.345.291-.477a15.98 15.98 0 0 1 1.034-.848l.742-.609c.556-.477.53-1.007.398-1.67-.371-2.014-.556-3.816-.583-5.459-.026-1.192.185-2.412.371-3.578l.133-.795c.053-.371.185-.715.318-1.087l.239-.715c.08-.265.133-.557.185-.822.08-.371.159-.768.291-1.113.08-.265.291-.583.504-.715 0 0 .053-.027.133-.027.186 0 .424.08.504.186a14.12 14.12 0 0 1 1.325 1.669c.662.98 1.59 1.484 2.703 1.484.132 0 .291 0 .424-.027 1.325-.132 2.332-.901 2.915-2.226.265-.636.424-1.299.503-1.828.186-1.034-.212-1.908-1.219-2.703-.716-.583-1.669-.901-2.65-.901-.875 0-1.723.265-2.359.742-.398.292-.715.689-1.034 1.087-.079.08-.133.186-.212.265-.159.186-.318.292-.504.292-.159 0-.318-.053-.504-.212l-1.537-1.087-3.736-2.65a.56.56 0 0 1-.185-.663c.053-.185.239-.397.504-.397h.159c.795.212 1.563.503 2.332.795l.61.238a5.42 5.42 0 0 1 .689.292c.345.159.689.318 1.06.424.239.079.504.106.715.106s.371-.027.53-.106l1.246-.636 5.009-2.809c.901-.583 1.643-1.404 2.385-2.2l.98-1.033.239-.265c.159-.159.291-.318.451-.424a.9.9 0 0 1 .477-.186h.053c.212.106.424.345.477.583.053.212.026.53-.106.716l-.079.106-1.881 2.73c-.371.45-.795.848-1.219 1.245l-.742.742c-.424.45-.609.795-.583 1.139.026.318.239.583.636.875 1.405.98 2.041 2.385 1.908 4.213-.079.98.398 1.643.875 2.279l.318.477c1.855 2.809 2.093 5.486.715 8.242-.159.318-.344.636-.556.875-1.988 2.04-4.532 3.445-7.818 4.267 0 0-.239.053-.53.053-.424 0-.662-.133-.689-.371-.026-.186.079-.398.291-.636.239-.292.583-.477.848-.477h.053l.663.053c.795 0 1.616-.212 2.464-.662l.345-.159c.742-.371 1.511-.769 2.173-1.299 1.829-1.457 2.597-3.551 2.279-6.254-.079-.689-.265-1.457-.583-2.332-.053-.106-.106-.239-.212-.371-.133-.186-.344-.265-.556-.265-.344 0-.689.265-.689.689 0 .397.133.742.265 1.087l.053.159c.583 1.59.45 3.207-.451 4.929-.053.08-.106.159-.186.239-.026.026-.053.053-.106.053s-.079-.027-.133-.053c-.026-.027-.053-.053-.026-.133.212-1.484.424-3.418.079-5.485-.026-.212-.186-.371-.398-.424-.053 0-.079-.027-.133-.027h-.106c-.318 0-.556.238-.609.556v.133c-.026.397-.079.795-.053 1.192.079 1.908-.159 3.551-.716 5.035-.026.053-.239.291-.291.371-.053.053-.133.08-.212.08-.159 0-.291-.106-.344-.265-.026-.132-.053-.238-.026-.291.662-1.829.609-3.683.503-5.088 0-.079-.026-.132-.053-.212-.133-.238-.344-.371-.61-.371a.76.76 0 0 0-.556.239 1.08 1.08 0 0 0-.159.291c-.053.345-.026.689-.026 1.034l-.053 1.139c-.159.927-.45 1.855-.742 2.756l-.053.132-.026.027c-.026.026-.079.053-.133.053-.079 0-.186-.08-.212-.186v-.106l.133-1.828.212-3.233c0-.079-.026-.159-.079-.265a.73.73 0 0 0-.583-.318.72.72 0 0 0-.45.159c-.106.08-.265.212-.291.398-.079.265-.053.556-.053.822 0 .212.026.424-.026.636l-.477 2.782-.398 2.358c-.424 2.624-2.253 4.267-4.266 5.83-.45.371-1.06.477-1.405.503zm3.71-7.659c-.345 0-.61.106-.795.292-.159.185-.239.45-.212.768v.159a6.49 6.49 0 0 0 .185 1.219c.08.239.371.609.636.609.318-.026.715-.212.874-.503s.265-.636.371-.98c.026-.133.08-.265.106-.398v-.053c-.053-.795-.371-1.113-1.166-1.113zm.371-3.472c-.848 0-1.193.318-1.219 1.14-.026.503.053.822.265 1.033.185.185.477.292.901.318h.398c.822 0 .822-.265.848-1.139.026-.848-.133-1.299-.98-1.352zm.053-3.843c-.689 0-.768.583-.822.981 0 .053-.026.106-.026.159-.053.397-.133 1.113.185 1.378.291.265.769.371 1.113.371.133 0 .239 0 .345-.026.371-.08.53-1.06.53-1.06 0-.053.026-.079 0-.132v-.292c-.026-.742-.477-1.245-1.166-1.352-.053-.027-.106-.027-.159-.027z" fill="#b32"/><path d="M27.276 50.68h-.079c-.053-.027-.106-.027-.186-.053-4.558-1.404-7.791-4.319-9.646-8.666-.583-1.378-1.033-2.862-1.484-4.293l-.239-.795c-.106-.345-.291-.928-.874-.928-.08 0-.133 0-.212.027-.239.053-.398.159-.504.318-.186.265-.133.636-.053.927l.424 1.749c.185.689.345 1.431.504 2.147 0 .053.026.106.026.159 0 .265-.239.451-.451.451-.079 0-.132-.026-.212-.053l-.079-.079c-.345-.53-.583-1.14-.848-1.723l-.133-.291c-.079-.186-.133-.424-.159-.716-.053-.556-.397-.954-.848-.954-.08 0-.159.026-.239.053-.398.132-.769.689-.848 1.113-.106.477-.106.954-.133 1.405a10.27 10.27 0 0 1-.053.901v.106c-.026.291-.053.583-.239.583h-.106c-.133 0-.212-.212-.291-.503a1.99 1.99 0 0 0-.185-.477c-.026-.053-.08-.079-.106-.132-.265-.345-.424-.53-.61-.53h-.053c-.371.106-.689.45-.848.742-.106.185-.133.398-.159.609s-.053.398-.159.556c-.026.053-.08.133-.106.212-.106.212-.265.53-.424.53-.026 0-.053 0-.106-.026-.026-.106-.026-.398-.026-.583 0-.159 0-.318-.026-.451 0-.106.026-.424.053-.715 0-.132.026-.265.026-.398s-.026-.238-.106-.345-.212-.159-.345-.159-.265.079-.371.185l-.345.504c-.133.212-.265.398-.318.451-.185.238-.345.503-.477.768l-.053.079c-.053.079-.133.132-.212.132-.106-.132 0-.398.053-.583s.159-.371.239-.53c.133-.238.265-.477.318-.742.053-.238-.026-.477-.106-.689-.08-.238-.291-.397-.53-.397-.08 0-.133 0-.185.026-.212.079-.424.159-.53.345-.185.344-.318.715-.424 1.06-.053.185-.133.371-.185.556l-.08.238c-.08.292-.133.398-.239.398-.026 0-.08 0-.133-.027-.08-.026-.239-.371-.239-.662-.08-1.06.398-2.252 1.245-3.153.822-.875 1.935-1.405 3.021-1.405h.477c1.511 0 2.624-.477 3.869-1.643.848-.795 2.014-1.325 3.127-1.828.371-.159.742-.344 1.113-.503l2.835-1.352c1.431-.662 2.915-1.352 4.346-2.12 2.014-1.06 3.206-2.995 4.187-4.929.186-.345.345-.689.504-1.034.663-1.352 1.325-2.756 2.385-3.895 1.139-1.219 2.173-1.775 3.366-1.775.185 0 .371.027.556.053 1.113.159 2.014 1.272 2.041 2.491 0 1.192-.769 2.093-1.988 2.305-.53.079-1.033.132-1.484.132h-.212c-.239 0-.556-.132-.636-.318-.106-.265.026-.371.238-.503.265-.159.556-.265.875-.371.106-.027.212-.08.318-.106s.212-.053.344-.079c.265-.053.53-.106.689-.292.557-.556.636-1.166.212-1.696-.239-.291-.556-.45-.901-.45-.212 0-.424.053-.636.132-1.193.504-1.934 1.59-2.544 2.438-.583.848-1.033 1.775-1.431 2.623-.768 1.643-1.643 3.339-3.074 4.611-.53.451-.716 1.034-.556 1.696.291 1.325.345 2.756.133 4.426s-.636 3.047-1.299 4.213c-.053.106-.159.185-.291.265-.053.027-.079.08-.133.106-.053 0-.106-.026-.133-.053s-.026-.053 0-.079l.239-.689c.053-.186.106-.318.159-.451.663-1.934.875-4.081.716-6.599a1.55 1.55 0 0 0-.053-.344c0-.053-.026-.106-.026-.186-.079-.424-.318-.662-.636-.662-.106 0-.212.027-.318.08-.265.106-.636.45-.636.768-.026.768-.026 1.563 0 2.332 0 .344.106.848.106 1.219 0 .133.106.689.106.928.026.344 0 .503 0 .689 0 0-.079.583-.291.53-.159-.053-.159-.477-.159-.477.053-.398.053-.954.026-1.193-.026-.185-.053-.318-.079-.371-.186-.795-.318-1.59-.451-2.279-.053-.371-.159-.875-.662-.875-.053 0-.106 0-.159.027-.344.079-.61.238-.769.477-.133.185-.159.424-.106.689.212.954.451 1.908.716 2.835l.133.53c.079.291.186.556.265.848.053.132.079.238.132.371 0 .026 0 .053-.026.079s-.053.053-.106.053c-.04-.007-.077-.025-.106-.053-.239-.318-.424-.609-.477-.742-.239-.556-.424-1.139-.583-1.696l-.159-.556c-.026-.079-.053-.185-.053-.265l-.079-.371c-.026-.053-.026-.079-.053-.132-.132-.345-.291-.795-.821-.795h-.133c-.239.026-.477.212-.636.477-.212.344-.265.742-.159 1.06.053.159.106.291.159.45.239.636.477 1.325.822 1.908.424.742.901 1.457 1.378 2.146.239.371.504.742.742 1.14.477.742.45.98.424 1.033 0 0-.026.027-.079.053-1.192-.318-1.749-1.325-2.279-2.279l-.106-.159c-.371-.689-.636-1.431-.901-2.173-.106-.318-.239-.662-.371-.98-.053-.106-.079-.239-.133-.345-.079-.291-.265-.848-.769-.848-.079 0-.186.026-.265.053-.291.106-.53.292-.662.557s-.159.583-.053.874l.053.159c.53 1.617 1.086 3.313 1.776 4.903.477 1.139 1.166 2.226 1.749 3.127 1.246 1.908 3.18 3.021 5.009 4.081.291.186.609.344.901.53.504.318 1.007.662 1.484.981l.106.079c.14.079.197.251.133.398-.291.185-.398.318-.583.318z" fill="#084"/></svg>