<svg xmlns="http://www.w3.org/2000/svg" width="150" height="200" viewBox="0 0 39.7 52.9"><g transform="matrix(.265 0 0 .265 47 -91)"><path d="M-71 522c1 1 2.3 1.5 4 1.5 1.5 0 2-.2 3.2-1.2 1.2-.9 1.5-2.2 1.5-3.5s-.3-2.6-1.5-3.6c-1.2-.9-1.7-1.2-3.2-1.2-1.7 0-3 .4-4 1.3-.1.1-.2.1-.3.3l-36.4-.4-.3-.3c-1.2-.9-2.5-1.4-4-1.4-1.7 0-3 .4-4 1.3-.1.1-.2.1-.3.3l-36.4-.4-.3-.3c-1.1-.9-2.4-1.4-4-1.4-1.7 0-2.3.3-3.4 1.2-1 .9-1.2 2.1-1.3 3.4 0 1.3.3 2.6 1.3 3.6s1.5 1.2 3.2 1.2c1.6 0 2.9-.4 4-1.4.2-.1.3-.3.4-.4l36.2.4c.2.1.3.3.4.4 1 1 2.3 1.5 4 1.5 1.5 0 2.8-.4 4-1.4.1-.1.2-.3.4-.4l36.2.4c.4.3.5.4.6.5zm-87.8-2.3c-.5-.6-.8-1.3-.7-2 0-.8.3-1.4.8-2 .5-.5 1.2-.8 2-.8.7 0 1.4.3 2.1.9a3.04 3.04 0 0 1 .5.7l36.7.4c-.1.4-.1.8-.2 1.3 0 .5 0 .9.1 1.3l-36.9-.4c-.1.2-.2.5-.4.7-.7.6-1.4.9-2.1.9-.7-.1-1.4-.4-1.9-1zm44.8.6c-.5-.6-.8-1.3-.7-2 0-.8.3-1.4.8-2 .5-.5 1.2-.8 2-.8.7 0 1.4.3 2 .8.6.6.9 1.2.9 2s-.3 1.4-.9 2-1.3.9-2 .9c-.9-.1-1.6-.3-2.1-.9zm45 .5c-.3-.2-.5-.4-.5-.7l-37-.4a3.08 3.08 0 0 0 .3-1.3c0-.5 0-.9-.1-1.3l36.9.4c.1-.3.3-.5.6-.7.5-.6 1.1-.8 2-.8.7 0 1.4.3 2 .8.6.6.9 1.2.9 2s-.3 1.4-.9 2-1.3.9-2 .9c-1.1 0-1.8-.3-2.2-.9z" fill="#084"/><path d="M-126 483c.94.32 3.94.92 4.27.86.18-.03-.74-1.7-1.53-2.78-1.16-1.59-2.43-2.86-3.77-3.69-1.22-.76-1.65-.93-4.43-1.64-3.09-.78-4.99-1.02-6.31-.79-.41.07-.68.08-.9-.01l.71 2.48c3.97 2.08 10.2 4.97 12 5.57z" fill="#339"/><path d="M-98.7 508c2.92.67 4.01.72 5.88.29.79-.2 1.77-.51 2.17-.71.93-.45 2.76-1.71 3.4-2.34 1.15-1.12 2.54-2.89 2.75-3.46.33-.96.44-2.87.24-3.95-.18-.94-.82-2.52-1.09-2.69s-1.67 2.08-2.42 3.9c-1.04 2.56-1.15 2.7-2.43 3.59-.96.64-1.33.8-2.48 1.06-1.66.37-3.7.26-6.12-.33-2.49-.63-2.22-.28-2.5-3.4-.22-2.55-.23-2.69.13-3.01.3-.28.33-.47.23-1.05-.18-.97.03-2.22.47-2.89.21-.33 1.2-1.33 2.21-2.24 3.33-3.06 4.37-4.45 4.65-6.28.25-1.72.19-1.79-1.9-2.9l-3.45-1.92c-1.42-.83-1.63-.91-1.72-.66a54.2 54.2 0 0 0-.54 2.27c-.49 2.22-.66 2.62-1.86 4.45-1.07 1.64-1.7 3.5-2.21 6.58-.21 1.32-.54 2.81-.71 3.34-.3.85-.41.99-1.06 1.35-.87.46-1.68.63-1.98.41-.49-.36-4.43-5.33-5.2-6.53-.46-.74-1.52-2.75-2.36-4.46-2.88-5.97-6.13-12-6.33-11.9-.23.19 1.34 7.46 1.98 9.16.19.48.17.55-.61 1.24-.92.85-1.49 1.65-1.8 2.54-.22.63-.25 1.48-.19 4.84.04 2.63-.11 3.36-1.04 4.56-1.2 1.59-1.62 1.52-3.41-.51-2.49-2.82-4.29-5.96-8.37-14.6l-2.37-4.98c-.1-.17-.07-.17.21-.02.05.03.11.06.17.09-.3-.83-.5-1.66-.71-2.48-.33-.14-.55-.54-.89-1.39a12 12 0 0 0-1-2.03c-.27-.44-.49-.83-.49-.89 0-.02-.02-.06-.04-.1-.25.19-.51.41-.76.58.07.06.11.12.09.16-.06.19-.14.77-.16 1.31l-.14 2.23c.22.84.34 1.75.41 2.65l.18.01.32 1.19c2.18 7.8 4.19 12.8 6.28 15.5 1.45 1.91 4.49 4.86 5.51 5.35.33.17.42.43 1.32 4.72 1.05 4.91 1.05 4.91.39 6.27-.39.79-1.21 1.45-2.39 1.92-1.77.71-5.49 2.53-7.36 3.6-1.99 1.13-7.99 5.27-8.78 6.05-.56.54-1.13 1.79-1.29 2.82-.14.86-.18 3.19-.07 3.26.04.02.42-.35.84-.83 1.85-2.1 2.91-3.08 4.86-4.43 2.46-1.7 2.9-1.89 3.74-1.59.95.32 1.74.1 3.76-1.06 1.13-.64 2.1-1.1 2.66-1.23l.89-.22-.75.48c-1.94 1.24-2.73 1.96-4.5 4.12-1.71 2.09-1.87 2.33-2.33 3.74-.44 1.34-.47 1.62-.33 2.76.09.68.23 1.41.33 1.62.16.34.24.28 1.25-1.24 1.29-1.94 2.35-3.18 4.54-5.35 2.01-1.97 2.63-2.48 3.94-3.14.98-.51 3.81-1.59 4.36-1.69.15-.03-.28.37-.98.88-.7.5-1.37 1.05-1.52 1.22-.33.41-.79 1.53-1 2.49-.17.79-.26 3.4-.11 3.48.04.02.56-.51 1.16-1.2 1.69-1.93 2.73-2.86 4.73-4.22 2.18-1.5 2.77-1.73 3.84-1.44.82.22 1.37.11 2.54-.54.5-.27.73-.33 1.13-.26l.52.09-.41.41c-.82.77-3.55 4.18-3.85 4.8-.17.35-.46 1.12-.64 1.7-.28.93-.3 1.29-.12 2.54.11.84.28 1.52.38 1.58.13.08.58-.48 1.32-1.59 2.09-3.16 6.21-7.24 8.37-8.3 1.53-.74 1.63-.76 2.81-.47.55.13 1.01.19 1.07.13.04-.07-.12-.28-.38-.5-.24-.22-.42-.43-.38-.48.04-.07.97-.31 2.07-.55 2.57-.56 3.33-.53 7.27.27 2.76.56 3.23.62 4.81.52 1.8-.12 3.19.03 5.1.53.67.17 1.12.21 1.17.11.08-.18-1.56-1.68-2.62-2.42-.83-.57-2.2-1.04-3.74-1.3-1.59-.25-7.29-2.11-7.74-2.5-.24-.2-.39-.65-.56-1.55-.44-2.36-.8-5.5-.64-5.53.08 0 1.15.22 2.38.51zm-22.8-12.2l-.16-.75c-.22-1.17-.38-3.77-.29-4.81.06-.6.33-1.46.82-2.48.41-.85.8-1.59.87-1.65.06-.06.16.12.21.39a13.6 13.6 0 0 0 .53 1.48l.4 1-.45.92c-.7 1.39-1.38 3.28-1.67 4.66zm.27 2.19l.57-.19c.32-.1.69-.29.83-.42.13-.13.46-1.35.73-2.69l.63-3.21.14-.77.37.83c1.6 3.53 4.36 6.35 7.04 7.18 1.05.33 1.1.37 1.22.93.06.32.24 1.02.39 1.55l.3.97-1.03.69c-1.48.98-3.05 1.32-5.22 1.15-1.79-.14-3.15-.4-4.52-.86-1.09-.36-1.04-.23-1.29-3.25zm13.1 11.3c-.4 1.21-1.01 1.8-2.62 2.48a88.5 88.5 0 0 0-5.81 2.75l-1.53.82-.6-.21c-1.15-.39-1.1-.31-1.63-3.23-.26-1.48-.5-3.07-.53-3.55l-.06-.84.96.17c.52.11 1.52.32 2.21.51 1.86.48 3.05.54 4.74.24 1.54-.29 2.75-.76 4.02-1.61l.72-.48.2 1.06c.17.84.16 1.23-.07 1.89zm3.47-14c-.14.15-.09-.03.13-.4.23-.38.51-1.14.64-1.71.61-2.81 1.42-4.93 2.49-6.51.89-1.3 1.08-1.87 1.29-3.58.07-.7.2-1.29.25-1.29.07-.01.8.22 1.61.51 1.59.57 2.12.91 2.43 1.58.17.38.1.52-1.03 1.86l-3.88 4.83c-2.43 3.09-3.12 3.93-3.93 4.71z" fill="#b32"/><path d="M-142 475l-3.79-1.53c-7.54-3.36-11.6-5.72-14.2-8.16-2.31-2.2-4.91-5.49-5.88-7.45-.16-.32-.51-1.22-.78-2-.28-.77-.48-1.42-.46-1.46.01-.02.52.46 1.12 1.07 2.78 2.85 7.61 6.5 13.2 10 6.18 3.87 10.4 5.07 11 5.62.25-.17.51-.39.76-.58-.2-.42-1.34-1.94-2.09-2.72-1.77-1.91-4.25-3.93-7.89-6.42l-8.04-5.67c-3.07-2.4-5.32-4.73-6.75-6.99-2.52-4.04-2.91-8.04-1.25-13.2.96-2.99 2.53-5.48 5.74-9.14 1.19-1.35 2.92-3.46 3.87-4.68 1.67-2.22 1.69-2.23 2.45-4.57 1.16-3.61 1.96-8.26 1.95-11.5 0-.71-.01-1.15.02-1.37-.36-.54-.72-1.08-1.09-1.53-.42 2.02-1.3 5.43-2 7.55-1.57 4.75-2.57 6.64-4.7 9.02-3.76 4.19-7.56 9.54-9.26 13-3.75 7.72-3.51 13.8.75 19.2l.95 1.23-.02 1.07c-.04 1.52.18 4.13.46 5.62.34 1.83.78 2.85 1.96 4.64 2.24 3.37 4.12 5.15 7.91 7.52 5.44 3.37 10.7 5.32 15.3 5.65l1.2.09c-.06-.9-.19-1.81-.41-2.65.03.13.02.22.02.22z" fill="#339"/><path d="M-120 429l.86-2.61c1.34-4 1.95-7.33 2.01-10.7.03-1.64-.06-2.34-.79-6.34-.87-4.69-1.2-5.84-2.56-8.77-1.77-3.82-4.98-7.79-11.1-13.7-1.97-1.88-2.94-2.96-3.48-3.76-.22-.34-.22-.36.19-.17 1.3.56 4.43 1.03 6.9 1.02 1.51-.01 4.51-.54 5.39-.95 1.36-.62 1.68-1.49.94-2.53-.45-.64-2.66-2.06-4.4-2.85-.81-.36-2.53-.91-3.81-1.23-1.3-.32-2.35-.59-2.32-.63.03-.02.71-.07 1.55-.09 2.32-.08 5.4-.64 6.43-1.15 1.81-.93 2.29-1.27 2.22-1.64-.13-.69-4.16-2.8-6.34-3.31-1.29-.31-6.7-.99-7.17-.91s-.24-.22.37-.52c2.2-1.03 6.95-4.98 6.82-5.67-.05-.25-.71-.64-1.41-.82-1.66-.42-5.39-.2-7.46.44-2.16.67-4.25 1.94-5.93 3.58-.77.76-.86.81-.96.55-.13-.34.52-2.18 1.19-3.38.53-.93 2.23-5.76 2.01-5.72-.29.05-3.04 1.48-4.19 2.19-1.72 1.05-3.3 2.34-5 4.06-1.05 1.07-1.5 1.42-1.76 1.39-.2-.01-.44.09-.6.29-.14.16-.27.26-.28.2-.01-.04.24-.88.57-1.84.38-1.1.79-1.98 1.16-2.45.31-.39 1.04-1.46 1.61-2.39.55-.91.96-1.65.87-1.63-.36.06-3.28 1.71-4.52 2.55-2.26 1.51-6.07 5.63-8.77 9.48-.81 1.15-1.58 2.37-1.7 2.71-.51 1.51.1 3.24 1.68 4.75l.39.37-.7-.26c-1.85-.65-4.83-.81-6.16-.3l-4.65 1.24 4.49 3.53c4.19 2.84 9.35 4.12 9.36 4.17.01.04-4.64.37-7.29 2.3-1.13.88-3.06 2.33-3.46 2.77-.39.43-3.72 3.86-3.7 3.93.02.1 5.27-.54 7.41-.95 1.88-.36 5.44-2.19 5.45-2.17 0 0-.35.29-.79.61-1.16.89-2.46 2.36-2.79 3.16-1.02 2.5.56 6 4.36 9.7l1.19 1.13c.12.09 1.38-.89 1.96-1.49.32-.35 1.01-1.25 1.51-2.01.82-1.21.93-1.32.99-.98.03.17-.06.77-.23 1.59.36.44.72.98 1.09 1.53.04-.35.15-.16.45.34.85 1.39 1.98 1.78 3.63 1.23 1.85-.62 3.01-1.66 3.55-3.19.49-1.37.52-2.38.11-4.64-.43-2.29-1.99-8.17-2.49-9.32-.43-.96-1.97-2.98-2.32-3.04-.36-.06-1.44.65-1.65 1.07-.29.6-.41 1.98-.29 3.48.15 2.23.17 4.7.05 4.72-.07.01-.19-.3-.28-.7-.17-.81-.71-2.47-1.46-4.41-.62-1.61-.7-1.78-.93-1.66-.11.05-.41.16-.69.26-.51.17-.51.17.25-.76.94-1.2.88-1.8-.3-2.6-.21-.16-.38-.3-.33-.32.03-.04.25-.2.49-.36.61-.43.75-1.31.4-2.66-.33-1.34-.65-1.76-2.35-2.94l-1.3-.91.86-.17c1.41-.28 2.94-1.4 4.21-3.06.57-.74 1.22-1.77 1.41-2.26.21-.49.36-.77.33-.59-.12.69-.04 1.3.19 1.49.39.31 1.63-.01 2.81-.73.57-.36 1.06-.64 1.07-.65.02 0 .14.39.28.87.42 1.42 1.88 2.87 3.3 3.27.6.15.99.15 1.99-.05l1.25-.24.18.41c.32.72 1.93 3.04 2.74 3.94.72.82.75.89.47 1.01-.82.36-.86 2.16-.06 3.94.32.71.91 1.56 1.85 2.63 2.71 3.1 3.95 4.67 5.56 7.02 4.24 6.22 5.71 9.33 6.55 13.9.44 2.38.42 4.06-.18 10.7-.5 5.63-.43 8.63.25 10h4.1z" fill="#b32"/><path d="M-98.4 443l-1.05-.76c-2.25-1.69-6.42-4.28-11-6.79-5.06-2.79-7.42-4.31-9.15-5.94l-.23-.22h-4.1c.52 1.08 2.12 2.29 7.85 5.91 7.69 4.87 10.9 7.22 14.3 10.4 2.78 2.63 5.54 5.88 6.85 8.12.39.63.66.84 2.27 1.69 1.01.54 1.88.96 1.91.96.05-.01-.12-.48-.35-1.05-.24-.55-.7-1.87-1.03-2.91-.81-2.65-1.99-4.56-4.27-6.96l-.96-.99.01-.01c-.74-.13-.95-.78-1.1-1.48z" fill="#084"/><path d="M-34.6 425l-1.6-3.06-1.92-10.5c-1.28-6.95-2.12-11.2-2.5-12.5-2.53-8.96-4.76-14.3-7.68-18.2-3.06-4.17-7.62-8.38-12.2-11.2-3.58-2.26-6.36-3.51-9.93-4.45-9.39-2.45-17-.08-23.9 7.42-5.83 6.37-8.75 16.3-8.23 27.9.11 2.5 1.25 9.32 2.12 12.8 2.7 10.6 4.3 18.3 4.28 20.6 0 1.97-1.42 9-1.8 8.95-.03-.01-.22-.13-.48-.31.15.7.36 1.35 1.09 1.47l1.36-2.12c2.86-4.42 3.31-5.46 3.69-8.66.21-1.68-.14-3.36-1.79-8.72-2.07-6.69-2.98-10.1-3.77-14.3-.7-3.67-.78-4.36-.82-8.01-.11-7.54.83-15.1 2.49-20.1 1.25-3.77 2.13-5.12 4.74-7.43 5.44-4.79 13-7.59 18.7-6.91 2.89.34 4.73 1.19 7.71 3.53 4.73 3.72 8.69 8.42 11 13 2.67 5.38 5.82 15 8.33 25.4 1.38 5.69 2.3 8.3 3.95 11.1 1.35 2.29 5.52 7.39 7.11 8.73 1.51 1.26 2.36 1.81 2.65 1.76.49-.08.07-1.07-2.6-6.15zm-43.1-52.5c7.31 3.57 13.4 8.9 17.4 15.3 1.25 1.99 3.19 5.84 3.98 7.91 1.31 3.4 2.68 8.44 3.51 12.9 1.15 6.09 3.71 12.8 7.21 18.8 1.46 2.52 2.39 3.98 3.31 5.19.78 1.04.75 1.04-.85.52-1.06-.36-1.57-.86-2.22-2.17-.25-.51-.86-1.54-1.35-2.31-1.57-2.36-2.09-3.64-5.66-13.8-3.14-8.91-4.14-11.2-6.55-15.2-2.05-3.4-4.16-6.09-6.87-8.81-1.65-1.66-3.22-2.72-5.18-3.6-2.24-.99-6.17-1.86-6.08-1.36.03.15 2.08 2.22 4.88 4.96.54.53 2 1.89 3.24 3.01a41.2 41.2 0 0 1 3.92 4.08c1.57 1.9 4.73 6.42 5.89 8.41 1.53 2.63 4.5 10.9 8.38 23.3 1.52 4.84 2.23 6.71 3.7 9.77 1.19 2.49 2.4 4.59 3.62 6.31.43.59.78 1.1.78 1.13.01.07-2.61-1.2-3.39-1.64-1.49-.86-2.61-2.54-4.14-6.22-2.44-5.85-4.18-10.3-5.67-14.6-3.99-11.5-6.11-16-9.59-20.3-1.7-2.11-3.25-3.62-5.37-5.25-1.34-1.04-4.24-2.72-4.58-2.66-.28.05.31 1.23 1.12 2.23l3.76 4.53c3.97 4.79 7.06 9.36 8.84 13.2 1.78 3.8 2.77 7.27 4.76 16.6 1.58 7.51 3.27 14.2 5.72 23 .43 1.51.74 2.78.7 2.85-.26.34-2.83-1.8-3.52-2.93-.84-1.36-1.47-3.9-1.96-7.9-.75-5.92-2.61-16.3-3.47-19.2-1.58-5.32-3.33-8.4-6.97-12.2-2.43-2.57-3.99-4.71-5.71-7.88l-1.07-1.95c-.18-.32-.43.5-.54 1.88-.23 2.31.52 4.77 2.97 9.89 1.61 3.39 2.94 5.96 4.54 8.73.82 1.44 1.81 3.32 2.21 4.18 2.68 5.9 4.16 13.4 4.54 23 .1 2.42.11 8.53.01 8.66-.05.07-1.11-.64-2.06-1.39-.79-.64-1.67-1.72-2.38-2.95-.3-.54-.62-.99-.69-.98-.2.03-.09 1.34.2 2.91.34 1.74 1.09 3.34 2.52 5.39 1.26 1.8 2.06 2.59 3.82 3.73 1.43.92 3.59 2 3.69 1.85.03-.04.01-1.42-.07-3.07-.13-3.68-.49-6.42-1.14-8.58-.27-.91-.47-1.69-.44-1.72.01-.03.77.69 1.66 1.6 2.78 2.82 3.97 3.69 5.68 4.12 1.41.36 3.34.41 3.72.09.1-.09-.01-1.57-.35-4.39-.61-5.06-1.53-9.67-2.19-11-.23-.45-.41-.84-.4-.87.03-.02.71.45 1.52 1.09 3.77 2.88 5.68 3.77 8.74 4.02 1.09.1 2.62.05 2.6-.05-.01-.03-.68-.83-1.51-1.78-4.33-5-5.55-6.93-7.02-11.1-.94-2.68-1.18-3.62-.92-3.59 2.33.29 3.47.22 4.24-.2.38-.22.52-.17 1.71.52 1.61.95 2.78 1.12 5.33.78l1.69-.21-1.21-.91c-3.69-2.76-8.35-7.64-9.91-10.4-2.3-4.06-4.66-10.8-7.83-22.5-2.96-10.9-2.96-10.9-4.2-13.4-1.14-2.33-2.19-3.93-4.21-6.42-2.45-3.04-5.06-5.41-8.08-7.32-3.2-2.01-6.88-3.43-9.98-3.81-1.24-.19-1.46-.12-.78.21zm-2.01 40c-.65.48-.72 1.45-.31 4.51 1.23 9.31 2.31 12.6 5.53 16.9 3.29 4.37 3.94 6.8 3.73 13.8-.24 7.47.06 11.7 1.19 17 1.01 4.79 1.91 6.92 4 9.54.83 1.04 1.51 1.7 2.28 2.22.6.41 1.11.72 1.14.68.04-.04-.21-.68-.52-1.42-3.49-8.07-5.06-16.7-4.53-24.6.09-1.24.2-2.44.26-2.68l.1-.44 1.15.91c.63.5 1.44 1.06 1.8 1.24.65.34 2.46.81 2.56.66.11-.14-1.23-2.37-1.99-3.26-.39-.48-.9-1.24-1.14-1.7-.5-.99-.95-3.19-.96-4.71-.03-2.5-.94-5.96-3.16-12-1.78-4.84-3.97-9.01-7.04-13.4-1.53-2.17-2.45-3.2-3.06-3.35-.56-.15-.65-.14-1.03.14z" fill="#b32"/><path d="M-135 437c-2.24.99-4.46 3.06-5.5 5.17-3.6 7.24-.25 15.8 9.11 23.1 2.7 2.13 7.63 5.1 11.1 6.72a41.2 41.2 0 0 1 2.61 1.37c1.68.95 3.57 1.72 5.92 2.35 2.91.81 7.58 1.51 7.95 1.21.07-.06.58.25 1.13.67 2.51 1.9 11.4 6.68 11.7 6.27.03-.04-.87-.81-2-1.69-3.1-2.44-6.39-5.21-8.43-7.14-2.61-2.45-8.01-8.6-13.8-15.7-2.09-2.57-4.36-4.82-7.41-7.36-2.1-1.76-8.68-6.13-8.85-5.89-.06.06.75.94 1.76 1.96 3.82 3.88 7.3 7.69 11.8 13 3.81 4.46 7.65 8.63 13.8 15.1l.44.44-1.16-.45c-4.79-1.87-11.8-5.48-15.4-7.9-4.61-3.13-9.55-7.53-12.3-11-4.06-5.01-5.61-9.51-4.5-13.2.53-1.79 1.02-2.27 5.59-5.43l4.08-2.83-.68-.02c-.37-.01-1.06-.01-1.51.01-1.21.02-4.4.72-5.49 1.19z" fill="#084"/><path d="M-83.8 428c-.08.11.42 1.54 1.34 3.77 4.21 10.3 5.29 14.6 5.1 20.2-.1 3.26.02 5.16.52 8.37.75 4.82 1.94 8.36 4 11.8 1.35 2.26 4.15 5.58 4.96 5.86.23.08.33.31-1.03-2.73-2.82-6.36-3.9-9.4-4.72-13-.8-3.64-.91-5.17-.74-10 .08-2 .08-4.47 0-5.49-.47-5.94-3.79-12.9-8.57-18.1-.44-.51-.79-.75-.86-.66z" fill="#b32"/><path d="M-118 449c-.1.11 1.63 1.88 5.47 5.63 4.31 4.19 5.72 5.69 7.63 8.07 1.88 2.35 3.46 4.77 4.87 7.45 2.46 4.72 4.7 7.9 7.95 11.2 3.48 3.59 8.3 7.34 12.4 9.59 1.78 1 2.34 1.16 2.24.65-.05-.25-.64-.89-6.02-6.66-2.92-3.11-7.5-8.66-9.34-11.3-.72-1.05-2.1-3.16-3.08-4.71-2.15-3.43-2.93-4.53-5.07-7.09-1.91-2.3-4.82-5.12-7.35-7.1-2.07-1.63-6.13-4.19-8.16-5.16-.79-.4-1.48-.67-1.51-.62zm10.4 4.65c.01.04.58.43 1.27.84 2.77 1.69 6.64 5.03 9.4 8.08 2.55 2.84 3.58 4.32 8.13 11.8l4.46 7.14c1.74 2.59 4.61 6.04 6.61 7.92 3.18 3 9.25 7.58 9.36 7.06.05-.27-1.58-3.23-2.81-5.05-1.2-1.82-2.84-4.03-5.99-8.15-3.55-4.62-3.76-4.9-3.63-4.92.07-.01 1.63.89 3.5 1.97 5.28 3.14 6.76 3.88 8.95 4.44 1.54.38 2.67.32 2.66-.17-.01-.32-3.63-4.49-8.55-9.87-1.54-1.68-3.58-4.05-4.55-5.26-4.6-5.83-6.33-7.89-7.45-8.83-2.12-1.8-7.71-4.61-8.11-4.08-.15.18 1.98 3.11 3.94 5.45 1.99 2.36 3.33 3.79 7.09 7.53 3.33 3.31 4.51 4.6 6.31 6.86.88 1.11 1.81 2.23 2.07 2.47l.47.45-.89-.28c-3.2-1.02-6.08-2.54-7.78-4.1-.45-.42-1.87-2.26-3.29-4.3-5.87-8.4-8.88-12.1-11.7-14.5-1.25-1.04-2.64-1.73-4.54-2.26-1.51-.42-2.3-.52-3.48-.45-1.08.04-1.44.11-1.42.21zm17.4.98c.01.06 1.65 1.63 3.63 3.52 3.83 3.59 4.81 4.67 6.41 7.07 1.33 1.98 2.9 3.8 4.14 4.88.76.63 1.04.81 1.06.61.01-.14-.71-1.49-1.6-2.99l-3.47-6.35c-.46-.93-1.19-2.12-1.62-2.66-1.46-1.8-4.26-3.33-7.27-3.97-1.09-.25-1.31-.25-1.28-.11z" fill="#084"/><circle cx="-150" cy="381" r="3.3" fill="#339"/></g></svg>