<svg xmlns="http://www.w3.org/2000/svg" width="150" height="200" viewBox="0 0 39.7 52.9"><path d="M20.635 11.325a2.22 2.22 0 0 0-.663 1.617c0 .636.212 1.193.663 1.643a2.22 2.22 0 0 0 1.643.689c.609 0 1.166-.239 1.616-.689s.689-1.007.689-1.643c0-.609-.238-1.166-.689-1.617s-1.007-.689-1.616-.689c-.663 0-1.192.238-1.643.689zm2.756 1.617c0 .318-.106.61-.344.822a1.15 1.15 0 0 1-.795.344c-.318 0-.61-.106-.822-.344-.212-.212-.344-.504-.344-.822s.106-.583.344-.795c.212-.212.504-.344.822-.344s.583.106.795.344c.239.239.345.504.345.795zm-7.499 15.185l-1.988.132c-.503.027-.822.371-.874.689.026.026 3.021-.212 3.021-.212 0 .026.132-.212.212-.318-.026 0-.318-.238-.371-.291zm-4.558.901l.556-.212c-.159-.159-.344-.503-.371-.397l-6.731.397c-.053.106-.133.186-.212.292a1.14 1.14 0 0 1-.715.344c-.291.027-.53-.079-.742-.265-.212-.212-.318-.45-.345-.742a.97.97 0 0 1 .239-.742c.186-.212.424-.345.715-.371.265-.027.53.079.769.291.106.08.185.159.239.239l6.89-.424s.026-.265.053-.345c-.053-.079-.238-.265-.265-.318l-6.069.371c-.026-.026-.08-.079-.106-.079-.398-.318-.901-.477-1.484-.424-.61.026-1.087.238-1.431.609a1.67 1.67 0 0 0-.477 1.272 1.56 1.56 0 0 0 .61 1.192c.398.318.875.477 1.484.424.583-.026 1.06-.238 1.457-.609.053-.053.106-.106.106-.133l5.539-.344c.08-.027.212-.027.291-.027zm11.739 12.508l-.053-2.544c.742 3.975 1.776 6.917 3.127 8.798-1.723-4.611-2.65-8.056-2.783-10.282l-.344-4.214c-.159-1.828-.239-3.286-.265-4.399-.026-.027-.026-.186-.053-.212-.159.053-.61.079-.663.079 0 .027-.026.239 0 .239 0 1.643.079 3.26.212 4.797s.159 2.809.053 3.816-.079 2.04.026 3.1c-1.484-3.948-2.359-7.817-2.624-11.607 0 0 .026-.239 0-.265-.053 0-.45-.027-.556-.053a.48.48 0 0 0-.026.265c.079 2.226.344 4.611.821 7.128.769 4.028 1.855 7.685 3.259 10.998l-2.199-8.692c.503 1.669.954 2.941 1.299 3.79.106 1.669.901 4.054 2.385 7.128-1.086-2.915-1.696-4.955-1.802-6.174.265.768.954 2.544 2.094 5.38-.291-2.147-.901-4.505-1.908-7.076zm15.449-15.264c-.026-.477-.265-.875-.689-1.219a2.24 2.24 0 0 0-1.458-.424c-.609.026-1.087.238-1.431.609l-.106.106-7.579.451c-.477-.027-1.007.715-.61.715l8.878-.556c.026-.106.08-.186.133-.265.186-.239.424-.371.715-.371.265-.027.53.079.769.265.238.212.371.45.371.715.026.292-.08.557-.292.768s-.45.345-.715.371c-.291.027-.53-.079-.715-.265a.67.67 0 0 1-.212-.265l-9.99.61c-.265.132-.636.503-.875.662l10.203-.636c.08.053.133.106.186.133.397.318.874.477 1.484.424.53-.027 1.007-.239 1.404-.61.398-.291.583-.715.53-1.219zm-11.103-10.15c-.026-.053-.133-.398-.159-.424-.106-.159-.239-.398-.265-.61-.106.663-.61 1.378-1.484 2.041-1.166.848-3.206 1.166-6.121.954l-.901-.053s-.291.053-.398.424c-.053.318.079.61.291.716.318.053.583.106.795.106.186.556.079 1.828-.344 3.816-.186.901-.636 1.802-1.299 2.703 1.086-.583 1.829-1.723 2.252-3.445.265-1.192.345-2.173.239-2.995.265.027.504.027.716.053.079.477.106 1.192.106 2.2 0 1.246-.504 2.782-1.511 4.664 1.484-.981 2.279-2.756 2.332-5.273 0-.636-.026-1.087-.053-1.298l-.053-.292h.795c.079.53.106 1.272.106 2.2 0 1.776-.53 3.313-1.564 4.664.265-.133.583-.371.927-.663 1.06-.901 1.643-2.623 1.696-5.088a6.89 6.89 0 0 0-.106-1.219c.265-.027.503-.08.715-.106.079.186.133.636.212 1.299.133 2.412-.398 4.266-1.643 5.591a4.26 4.26 0 0 0 1.457-1.272c.768-1.087 1.113-2.65 1.113-4.69 0-.133-.053-.557-.133-1.246.318-.106.61-.265.848-.424.106.583.133 1.219.133 1.882 0 1.749-.424 3.365-1.299 4.849.663-.556 1.193-1.272 1.59-2.12.345-.769.53-1.934.53-3.445 0-.265-.079-.874-.239-1.828.424-.45.663-.901.716-1.352-.026.053.026-.212 0-.318z" fill="#084"/><path d="M22.993 47.63l-1.537-3.922c-1.351-3.418-2.358-8.586-2.941-14.973l-.768-.106c.265 5.618 1.245 10.785 2.941 15.052.689 1.776 1.272 3.101 1.749 4.028.689 1.351 1.245 2.173 1.696 2.411a30.28 30.28 0 0 1-1.14-2.491zm-1.192-10.15a77.03 77.03 0 0 0-.504-8.772c-.556.053-1.06-.026-1.06-.026.291 3.286.822 6.466 1.564 8.798zm1.404-8.983c.053 5.486.345 9.513.848 11.554.583 2.438 1.192 4.134 1.829 5.035-1.378-5.591-2.041-11.368-2.014-16.775-.265.08-.451.106-.663.186z" fill="#b32"/><path d="M31.738 11.855c-.609 0-1.245.212-1.881.609a8.68 8.68 0 0 0-1.696 1.431v-.026c-.212.318-.636.795-.768 1.007a15.41 15.41 0 0 0-.61 1.034c.318.185.583.768.583.742.345.45.53 1.431.556 2.968-.026 1.617-.265 2.968-.715 4.055-.504 1.166-1.113 2.093-1.855 2.782-.636.583-2.067.928-4.32 1.06h-.291c-.504 0-1.193-.053-2.041-.185-1.484-.212-2.438-.504-2.782-.875-.186-.212-.212-.424-.079-.636a18.99 18.99 0 0 0 1.855-4.002l.689-2.465c.079-.53.106-1.139.106-1.139l.106-3.1c0-.08-.079-.716-.212-.98-.212-.345-.689-.583-.927-.689-.371-.159-.901-.265-1.564-.292-.636-.026-1.484.106-2.544.424-2.385.689-3.578 2.677-3.578 6.016 0 1.987.477 4.452 1.458 7.367l.212.636a1.82 1.82 0 0 1-.106 1.166l-.133.212-.133.186c-.795.768-2.359 1.722-4.134 2.517-1.352.609-2.995 1.166-4.982 1.722-1.113.318-1.192.504-.212.53 4.214 0 8.03-1.617 11.475-4.823 0 0 .398-.424.689-.689.291-.292.556-.583.848-.901.026-.027.08-.08.106-.08l.186-.026c.133.053.291.212.503.503.079.106.212.398.291.636l.079.212c.106.557.159 1.431.159 2.279.026 4.638 1.325 9.593 3.843 14.84.875 1.696 1.855 3.048 2.941 4.054-.503-.821-1.484-3.021-2.968-6.625-1.564-3.71-2.385-7.526-2.464-11.448a14.67 14.67 0 0 0-.291-2.968c1.166.371 2.809.397 3.816.371.477-.027 1.961-.027 3.286-.61-.186 6.175.768 12.481 2.835 18.921-1.59-8.692-2.226-15.078-1.934-19.186 0 0 .345-.291.53-.477l.053-.026c.398-.345.742-.795.98-1.14l.504-.715c1.935-.742 3.233-1.802 3.869-3.18 1.617-3.365 2.412-6.254 2.412-8.613-.026-1.59-.609-2.385-1.749-2.385zM15.149 24.522c-.689 1.404-1.564 2.57-2.677 3.445.239-.318.106-1.166-.371-2.571s-.715-2.385-.715-2.888c.821.504 1.457 1.352 1.961 2.491.239-1.643-.504-2.862-2.173-3.604-.08-.901-.106-1.457-.106-1.722.026-.795.08-1.298.212-1.484 2.093 1.961 3.154 3.578 3.154 4.85.106 0 .185-.265.265-.768.265-1.643-.769-3.286-3.154-4.982.265-.981.636-1.59 1.086-1.882 1.113.954 1.988 2.041 2.65 3.26.318.636.583 1.325.716 2.067l.026-1.882c.026-1.087-.822-2.412-2.491-4.002.345-.292.901-.477 1.696-.583.663-.08 1.404.053 2.2.371-.053 3.657-.795 6.943-2.279 9.885zm15.238-2.544c-.477 1.325-1.431 2.332-2.862 2.995.768-1.643 1.404-2.862 1.431-5.777 0-.822-.398-2.65-.689-3.365 1.484-1.722 2.491-2.623 3.021-2.677s.821.159.821.636c0 2.57-.556 5.273-1.722 8.188z" fill="#339"/><path d="M17.455 11.855l.026 1.431c-.026 0-.079 1.192-.053 1.192 0 1.192-.079 2.358-.239 3.472l1.351.106c.159-1.06.212-2.465.186-4.213l-.212-3.153c-.053-.318-.079-.662-.026-.954.053-.371.265-.556.636-.556h.133c1.802 0 3.259.238 4.399.715 2.226.927 3.339 2.623 3.339 5.062 0 .291-.079.556-.239.848.186-.106.742-.583.954-.848.344-.398.477-.927.477-1.245-.026-1.988-1.086-3.525-3.127-4.611.556-.026 1.034-.106 1.431-.238 2.2-.768 4.426-2.677 6.705-5.803-3.101 2.438-5.379 3.63-6.837 3.63-1.272 0-2.57-.583-3.842-1.749-1.113-1.06-2.411-1.59-3.896-1.59-2.385 0-3.578.954-3.578 2.862-.026 1.007.185 1.749.663 2.173.874.98.503 1.484-1.087 1.51-.769 0-1.537-.079-2.306-.265 1.007 1.06 2.544 1.59 4.558 1.59.371.053.556.238.583.636zm1.431-6.837c1.113 0 1.988.318 2.624.98s1.457 1.166 2.438 1.537c-1.855.291-3.736.318-5.671.08-.689-.106-1.06-.504-1.06-1.193.026-.927.583-1.404 1.669-1.404z" fill="#b32"/></svg>