<svg xmlns="http://www.w3.org/2000/svg" width="150" height="200" viewBox="0 0 39.7 52.9"><path d="M22.8 5.69c.847-.212 1.27-.503 1.27-.847 0-.318-.423-.582-1.27-.82s-1.83-.37-2.99-.37-2.14.132-2.99.37c-.82.238-1.24.529-1.24.82 0 .344.423.635 1.24.847.053.027.132.027.238.053v7.62c-.106.027-.185.027-.238.053-.82.265-1.24.529-1.24.847 0 .344.423.635 1.24.847.053.027.132.027.238.053v7.62c-.106.026-.185.026-.238.053-.82.238-1.24.503-1.24.847s.423.635 1.24.847 1.83.318 2.99.318c1.14 0 2.14-.106 2.99-.318s1.27-.503 1.27-.847c0-.318-.423-.609-1.27-.847-.106-.026-.238-.079-.344-.079v-7.57c.106-.027.238-.079.344-.079.847-.212 1.27-.503 1.27-.847 0-.318-.423-.582-1.27-.847l-.344-.079v-7.57c.106-.027.212-.079.344-.079zm-1.16 18.3c-.529.106-1.11.159-1.8.159s-1.3-.053-1.8-.159-.741-.238-.741-.423c0-.159.265-.291.767-.423l.635-.106v-7.67c.344.027.714.027 1.14.027l1.19-.027v7.7l.609.079c.529.132.794.291.794.423-.026.185-.291.318-.794.423zm0-9.34c-.529.106-1.11.159-1.8.159s-1.3-.053-1.8-.159-.741-.238-.741-.423c0-.159.238-.291.741-.423s1.08-.185 1.8-.185c.688 0 1.27.053 1.8.185s.794.265.794.423c-.026.159-.291.318-.794.423zm0-9.42a2.25 2.25 0 0 1-.609.106v7.75l-1.19-.053-1.14.027v-7.7c-.238-.027-.45-.053-.635-.106-.503-.106-.767-.238-.767-.397s.238-.291.741-.423 1.08-.185 1.8-.185c.688 0 1.27.053 1.8.185s.794.265.794.423c-.026.159-.291.291-.794.37zm1.16 24.8c.847-.212 1.27-.503 1.27-.847 0-.318-.423-.582-1.27-.82s-1.83-.37-2.99-.37-2.14.132-2.99.37c-.82.238-1.24.529-1.24.82 0 .344.423.635 1.24.847.053.026.132.026.238.053v7.62c-.106.026-.185.026-.238.053-.82.265-1.24.529-1.24.847 0 .344.423.635 1.24.847.053.026.132.026.238.053v7.62c-.106.026-.185.026-.238.053-.82.238-1.24.503-1.24.847s.423.635 1.24.847 1.83.318 2.99.318c1.14 0 2.14-.106 2.99-.318s1.27-.503 1.27-.847c0-.318-.423-.609-1.27-.847-.106-.026-.238-.079-.344-.079v-7.57c.106-.026.238-.079.344-.079.847-.212 1.27-.503 1.27-.847 0-.318-.423-.582-1.27-.847l-.344-.079v-7.57c.106-.053.212-.079.344-.079zm-1.16 18.3c-.529.106-1.11.159-1.8.159s-1.3-.053-1.8-.159-.741-.238-.741-.423c0-.159.265-.291.767-.423l.635-.106v-7.67c.344.026.714.026 1.14.026l1.19-.026v7.7l.609.079c.529.132.794.291.794.423-.026.185-.291.318-.794.423zm0-9.34c-.529.106-1.11.159-1.8.159s-1.3-.053-1.8-.159-.741-.238-.741-.423c0-.159.238-.291.741-.423s1.08-.185 1.8-.185c.688 0 1.27.053 1.8.185s.794.265.794.423c-.026.159-.291.318-.794.423zm0-9.42a2.25 2.25 0 0 1-.609.106v7.73l-1.19-.053-1.14.026v-7.7c-.238-.026-.45-.053-.635-.106-.503-.106-.767-.238-.767-.397s.238-.291.741-.423 1.08-.185 1.8-.185c.688 0 1.27.053 1.8.185s.794.265.794.423c-.026.159-.291.291-.794.397z" fill="#084" stroke="#084" stroke-miterlimit="10" stroke-width=".529"/></svg>