<svg xmlns="http://www.w3.org/2000/svg" xmlns:xlink="http://www.w3.org/1999/xlink" width="150" height="200" viewBox="0 0 39.7 52.9"><defs><path id="A" d="M-56.9 362.9c3.2-.8 4.8-1.9 4.8-3.2 0-1.2-1.6-2.2-4.8-3.1s-6.9-1.4-11.3-1.4-8.1.5-11.3 1.4c-3.1.9-4.7 2-4.7 3.1 0 1.3 1.6 2.4 4.7 3.2.2.1.5.1.9.2v28.8c-.4.1-.7.1-.9.2-3.1 1-4.7 2-4.7 3.2 0 1.3 1.6 2.4 4.7 3.2.2.1.5.1.9.2v28.8c-.4.1-.7.1-.9.2-3.1.9-4.7 1.9-4.7 3.2s1.6 2.4 4.7 3.2 6.9 1.2 11.3 1.2c4.3 0 8.1-.4 11.3-1.2s4.8-1.9 4.8-3.2c0-1.2-1.6-2.3-4.8-3.2-.4-.1-.9-.3-1.3-.3v-28.6c.4-.1.9-.3 1.3-.3 3.2-.8 4.8-1.9 4.8-3.2 0-1.2-1.6-2.2-4.8-3.2-.4-.1-.9-.2-1.3-.3v-28.6c.4-.1.9-.3 1.3-.3zm-4.4 69.3c-2 .4-4.2.6-6.8.6s-4.9-.2-6.8-.6-2.8-.9-2.8-1.6c0-.6 1-1.1 2.9-1.6.7-.1 1.5-.3 2.4-.4v-29c1.3.1 2.7.1 4.3.1s3 0 4.5-.1v29.1l2.3.3c2 .5 3 1.1 3 1.6 0 .7-1 1.2-3 1.6zm0-35.3c-2 .4-4.2.6-6.8.6s-4.9-.2-6.8-.6-2.8-.9-2.8-1.6c0-.6.9-1.1 2.8-1.6s4.1-.7 6.8-.7c2.6 0 4.8.2 6.8.7s3 1 3 1.6-1 1.2-3 1.6zm0-35.6c-.7.2-1.5.4-2.3.4V391c-1.5-.1-3-.2-4.5-.2s-3 0-4.3.1v-29.1c-.9-.1-1.7-.2-2.4-.4-1.9-.4-2.9-.9-2.9-1.5s.9-1.1 2.8-1.6 4.1-.7 6.8-.7c2.6 0 4.8.2 6.8.7s3 1 3 1.6-1 1.1-3 1.4z"/><path id="B" d="M-128.8 455.2c3.2-.8 4.8-1.9 4.8-3.2 0-1.2-1.6-2.2-4.8-3.1s-6.9-1.4-11.3-1.4-8.1.5-11.3 1.4c-3.1.9-4.7 2-4.7 3.1 0 1.3 1.6 2.4 4.7 3.2.2.1.5.1.9.2v28.8c-.4.1-.7.1-.9.2-3.1 1-4.7 2-4.7 3.2 0 1.3 1.6 2.4 4.7 3.2.2.1.5.1.9.2v28.8c-.4.1-.7.1-.9.2-3.1.9-4.7 1.9-4.7 3.2s1.6 2.4 4.7 3.2 6.9 1.2 11.3 1.2c4.3 0 8.1-.4 11.3-1.2s4.8-1.9 4.8-3.2c0-1.2-1.6-2.3-4.8-3.2-.4-.1-.9-.3-1.3-.3v-28.6c.4-.1.9-.3 1.3-.3 3.2-.8 4.8-1.9 4.8-3.2 0-1.2-1.6-2.2-4.8-3.2-.4-.1-.9-.2-1.3-.3v-28.6a3.08 3.08 0 0 1 1.3-.3zm-4.4 69.3c-2 .4-4.2.6-6.8.6s-4.9-.2-6.8-.6-2.8-.9-2.8-1.6c0-.6 1-1.1 2.9-1.6.7-.1 1.5-.3 2.4-.4v-29c1.3.1 2.7.1 4.3.1s3 0 4.5-.1V521l2.3.3c2 .5 3 1.1 3 1.6 0 .7-1 1.2-3 1.6zm0-35.3c-2 .4-4.2.6-6.8.6s-4.9-.2-6.8-.6-2.8-.9-2.8-1.6c0-.6.9-1.1 2.8-1.6s4.1-.7 6.8-.7c2.6 0 4.8.2 6.8.7s3 1 3 1.6-1 1.2-3 1.6zm0-35.6c-.7.2-1.5.4-2.3.4v29.2c-1.5-.1-3-.2-4.5-.2s-3 0-4.3.1V454c-.9-.1-1.7-.2-2.4-.4-1.9-.4-2.9-.9-2.9-1.5s.9-1.1 2.8-1.6 4.1-.7 6.8-.7c2.6 0 4.8.2 6.8.7s3 1 3 1.6-1 1.1-3 1.5z"/></defs><g transform="matrix(.265 0 0 .265 47.4 -90.3)" fill="#084" stroke="#084" stroke-miterlimit="10" stroke-width="2"><use xlink:href="#A"/><use xlink:href="#B"/><use x="71.9" xlink:href="#B"/><use x="-71.9" xlink:href="#A"/></g></svg>