<svg xmlns="http://www.w3.org/2000/svg" width="150" height="200" viewBox="0 0 39.7 52.9"><path d="M5.58 5.77v7.57c-.106.027-.238.079-.344.079-.847.212-1.27.503-1.27.847 0 .318.423.582 1.27.847l.344.079v4.37c-.503-.185-.847-.212-1.01-.026-.212.238-.106.714.344 1.46.185.318.423.609.661.926v.847c-.106.026-.238.079-.344.079-.847.212-1.27.503-1.27.847 0 .318.423.582 1.27.82s1.83.37 2.99.37h.873l.265.106c.794.397 1.3.476 1.51.238.132-.132.159-.344.053-.609.106-.026.185-.079.265-.079.82-.265 1.24-.529 1.24-.847 0-.344-.423-.635-1.24-.847-.053-.026-.132-.026-.238-.053v-.053l4.42-4.89c.106.053.212.106.318.185.794.37 1.3.45 1.48.238.238-.265.106-.767-.344-1.48l-.212-.291 3.23-3.57 3.23 3.57c-.053.106-.132.185-.212.291-.476.714-.609 1.22-.37 1.48.212.212.714.132 1.51-.238a2.01 2.01 0 0 0 .318-.185l4.44 4.95c-.079.026-.159.053-.265.053-.847.212-1.27.503-1.27.847 0 .318.423.582 1.24.847l.291.079c-.106.265-.079.476.053.609.212.238.714.159 1.48-.238.106-.026.185-.079.291-.106h.873c1.16 0 2.14-.132 2.99-.37.82-.238 1.24-.529 1.24-.82 0-.344-.423-.635-1.24-.847-.053-.026-.132-.026-.238-.053v-1.06l.529-.767c.45-.741.556-1.22.344-1.46-.159-.185-.45-.185-.873-.026v-4.34c.106-.027.185-.027.238-.053.82-.265 1.24-.529 1.24-.847 0-.344-.423-.635-1.24-.847-.053-.027-.132-.027-.238-.053V5.73c.106-.027.185-.027.238-.053.82-.238 1.24-.503 1.24-.847s-.423-.635-1.24-.847-1.83-.318-2.99-.318c-1.14 0-2.14.106-2.99.318s-1.27.503-1.27.847c0 .318.423.609 1.27.847.106.027.238.079.344.079v6.96c-.026-.053-.053-.106-.079-.185-.238-.265-.741-.185-1.51.238-.053.027-.132.053-.212.079l-5.08-5.61c.053-.079.106-.132.132-.185.476-.741.582-1.24.344-1.48-.238-.265-.714-.185-1.48.238-.37.185-.741.397-1.11.688-.397-.291-.767-.529-1.14-.688-.767-.397-1.24-.476-1.48-.238-.212.265-.079.741.37 1.48.026.027.079.106.106.185l-5.11 5.64c-.079-.027-.132-.079-.212-.079-.714-.397-1.19-.476-1.46-.238v-6.8c.106-.027.185-.027.238-.053.82-.238 1.24-.503 1.24-.847s-.423-.635-1.24-.847-1.83-.318-2.99-.318c-1.14 0-2.14.106-2.99.318s-1.27.503-1.27.847c0 .318.423.609 1.27.847l.423.079zm23.3 7.57c-.026.027-.079.027-.106.053.053-.159.106-.291.106-.37zm.026 10.3c0-.159.265-.291.794-.423.185-.026.397-.079.609-.079v-7.7l1.19.027 1.14-.027v7.67c.238.026.45.079.635.106.503.132.767.291.767.423 0 .185-.238.318-.741.423s-1.08.159-1.8.159c-.688 0-1.27-.053-1.8-.159-.529-.132-.794-.265-.794-.423zm0-9.37c0-.185.265-.318.794-.423s1.11-.159 1.8-.159 1.3.053 1.8.159.741.238.741.423c0 .159-.238.291-.741.423s-1.08.185-1.8.185c-.688 0-1.27-.053-1.8-.185s-.794-.265-.794-.423zm0-9.39c0-.159.265-.291.794-.423s1.11-.185 1.8-.185 1.3.053 1.8.185.741.265.741.423c0 .185-.265.318-.767.397a2.27 2.27 0 0 1-.635.106v7.7c-.344-.027-.714-.027-1.14-.027l-1.19.053v-7.73l-.609-.106c-.529-.079-.794-.212-.794-.397zm-3.36 12.1l.926-.767.82-.794 1.59 1.77v3.47zm-1.51-.741c.318-.423.741-.873 1.24-1.32.503-.476.979-.82 1.43-1.08.45-.265.714-.318.847-.212.026.027.026.079.026.106-.212.132-.318.291-.318.476 0 .079.026.132.053.212l-.053.027c-.265.423-.661.873-1.19 1.35a6.38 6.38 0 0 1-1.43 1.08c-.476.265-.767.318-.847.212-.159-.132-.079-.397.238-.847zm-3.2-4.47l.873-.952c.106.053.212.106.318.185.714.344 1.19.423 1.46.265l2.28 2.49-.873.714-.847.82zm-5.13 3.52c-.238-.265-.503-.503-.82-.794l-.9-.767 5.19-5.77-.37-.476c-.318-.423-.423-.714-.291-.847.106-.106.37-.053.847.212s.952.609 1.46 1.06c.503.476.9.9 1.16 1.35.291.423.37.688.265.82s-.397.079-.847-.185c-.185-.106-.37-.238-.556-.37zm-.582 1.59a7.5 7.5 0 0 1-1.46-1.08c-.503-.476-.9-.9-1.19-1.35 0-.027 0-.027-.027-.053.027-.053.027-.106.027-.185 0-.159-.106-.291-.291-.423 0-.053 0-.106.027-.132.106-.106.397-.053.82.212s.926.609 1.43 1.08a9.43 9.43 0 0 1 1.22 1.32c.318.423.397.714.291.82-.079.106-.37.026-.847-.212zm-4.15.238l1.48-1.67c.238.265.503.503.82.794l.9.767-3.2 3.55zm-5.32 6.48c0-.159.265-.291.794-.423.185-.026.397-.079.609-.079v-7.7l1.19.027 1.14-.027v7.67c.238.026.45.079.635.106.503.132.767.291.767.423 0 .185-.238.318-.741.423s-1.08.159-1.8.159c-.688 0-1.27-.053-1.8-.159-.529-.132-.794-.265-.794-.423zm0-9.37c0-.185.265-.318.794-.423s1.11-.159 1.8-.159 1.3.053 1.8.159.741.238.741.423c0 .159-.238.291-.741.423s-1.08.185-1.8.185c-.688 0-1.27-.053-1.8-.185s-.794-.265-.794-.423zm0-9.39c0-.159.265-.291.794-.423s1.11-.185 1.8-.185 1.3.053 1.8.185.741.265.741.423c0 .185-.265.318-.767.397a2.27 2.27 0 0 1-.635.106v7.7c-.344-.027-.714-.027-1.14-.027l-1.19.053v-7.73l-.609-.106c-.529-.079-.794-.212-.794-.397zm28.8 25.2c.847-.212 1.27-.503 1.27-.847 0-.318-.423-.582-1.27-.82s-1.83-.37-2.99-.37l-.873.026-.265-.132c-.794-.397-1.3-.476-1.51-.238-.132.159-.159.37-.053.635-.106.026-.185.026-.265.053-.82.265-1.24.529-1.24.847 0 .344.423.635 1.24.847.053.026.132.026.238.053v.053l-4.39 4.87a1.95 1.95 0 0 1-.317-.185c-.794-.37-1.3-.45-1.48-.238-.238.265-.106.767.344 1.48l.212.291-3.23 3.57-3.23-3.57c.053-.106.132-.185.212-.291.476-.714.609-1.22.37-1.48-.212-.212-.714-.132-1.51.238a2.01 2.01 0 0 0-.318.185l-4.44-4.95c.079-.026.159-.026.265-.053.847-.212 1.27-.503 1.27-.847 0-.318-.423-.582-1.24-.847l-.291-.053c.106-.265.079-.476-.053-.635-.212-.238-.714-.159-1.48.238-.106.026-.185.079-.291.132-.265-.026-.556-.026-.873-.026-1.16 0-2.14.132-2.99.37-.82.238-1.24.529-1.24.82 0 .344.423.635 1.24.847.053.026.132.026.238.053v1.06l-.529.767c-.45.741-.556 1.22-.344 1.46.159.185.45.185.873.053v4.31c-.106.026-.185.026-.238.053-.82.265-1.24.529-1.24.847 0 .344.423.635 1.24.847.053.026.132.026.238.053v7.62c-.106.026-.185.026-.238.053-.82.238-1.24.503-1.24.847s.423.635 1.24.847 1.83.318 2.99.318c1.14 0 2.14-.106 2.99-.318s1.27-.503 1.27-.847c0-.318-.423-.609-1.27-.847-.106-.026-.238-.079-.344-.079v-6.96c.027.079.053.132.079.185.238.265.741.185 1.51-.238a1.8 1.8 0 0 1 .212-.079l5.11 5.64c-.053.079-.106.132-.132.185-.476.741-.582 1.24-.344 1.48.238.265.714.185 1.48-.238.37-.185.741-.397 1.11-.688.397.291.767.529 1.14.688.767.397 1.24.476 1.48.238.212-.265.079-.741-.37-1.48-.026-.026-.079-.106-.106-.185l5.11-5.64c.079.026.132.079.212.079.714.397 1.19.476 1.46.265v6.77c-.106.026-.185.026-.238.053-.82.238-1.24.503-1.24.847s.423.635 1.24.847 1.83.318 2.99.318c1.14 0 2.14-.106 2.99-.318s1.27-.503 1.27-.847c0-.318-.423-.609-1.27-.847-.106-.026-.238-.079-.344-.079v-7.57c.106-.026.238-.079.344-.079.847-.212 1.27-.503 1.27-.847 0-.318-.423-.582-1.27-.847l-.344-.079v-4.34c.503.185.847.185 1.01 0 .212-.238.106-.714-.344-1.46-.185-.291-.423-.582-.661-.9v-.873c-.026-.053.106-.079.212-.079zm-24.4 18.3c-.529.106-1.11.159-1.8.159s-1.3-.053-1.8-.159-.741-.238-.741-.423c0-.159.265-.291.767-.423l.635-.106v-7.67c.344.026.714.026 1.14.026l1.19-.026v7.7l.609.079c.529.132.794.291.794.423 0 .185-.265.318-.794.423zm0-9.34c-.529.106-1.11.159-1.8.159s-1.3-.053-1.8-.159-.741-.238-.741-.423c0-.159.238-.291.741-.423s1.08-.185 1.8-.185c.688 0 1.27.053 1.8.185s.794.265.794.423-.265.318-.794.423zm0-9.42a2.25 2.25 0 0 1-.609.106v7.73l-1.19-.053-1.14.026v-7.7c-.238-.026-.45-.053-.635-.106-.503-.106-.767-.238-.767-.397s.238-.291.741-.423 1.08-.185 1.8-.185c.688 0 1.27.053 1.8.185s.794.265.794.423-.265.291-.794.397zm.82 10.3v-.344c.027-.026.079-.026.106-.026-.053.132-.079.265-.106.37zm0-4.29v-3.47l3.33 3.7-.926.767-.82.794zm1.32 3.6c-.027-.026-.027-.053-.027-.106.212-.132.318-.291.318-.476 0-.053-.027-.106-.053-.185l.053-.053c.265-.423.661-.873 1.19-1.35a6.38 6.38 0 0 1 1.43-1.08c.476-.265.767-.318.847-.212.132.106.053.397-.265.82s-.741.873-1.24 1.32c-.503.476-.979.82-1.43 1.08-.423.265-.688.344-.82.238zm4.07 2.38l-2.28-2.49.873-.714.847-.82 3.2 3.52-.873.952a2.01 2.01 0 0 1-.318-.185c-.714-.37-1.19-.45-1.46-.265zm4.31 3.23c.132.159.265.318.37.503.318.423.423.714.291.847-.106.106-.37.026-.847-.238a7.5 7.5 0 0 1-1.46-1.08c-.503-.476-.9-.9-1.16-1.35-.291-.423-.37-.688-.265-.82.106-.106.397-.053.847.212l.556.344 5.19-5.69c.238.265.503.503.82.794l.9.767zm6.98-5.61c-.106.106-.397.053-.82-.212s-.926-.609-1.43-1.08a9.43 9.43 0 0 1-1.22-1.32c-.318-.423-.397-.714-.291-.82s.37-.053.847.212a7.5 7.5 0 0 1 1.46 1.08c.503.476.9.9 1.19 1.35 0 .026 0 .053.026.079-.026.026-.026.079-.026.132 0 .185.106.318.291.476 0 .026-.026.053-.026.106zm1.22-3.44l-1.48 1.64c-.238-.265-.503-.503-.82-.794l-.9-.767 3.2-3.55zm4.52 12.6c-.529.106-1.11.159-1.8.159s-1.3-.053-1.8-.159-.741-.238-.741-.423c0-.159.265-.291.767-.423l.635-.106v-7.67c.344.026.714.026 1.14.026l1.19-.026v7.7l.609.079c.529.132.794.291.794.423 0 .185-.265.318-.794.423zm0-9.34c-.529.106-1.11.159-1.8.159s-1.3-.053-1.8-.159-.741-.238-.741-.423c0-.159.238-.291.741-.423s1.08-.185 1.8-.185c.688 0 1.27.053 1.8.185s.794.265.794.423-.265.318-.794.423zm0-9.42a2.25 2.25 0 0 1-.609.106v7.73l-1.19-.053-1.14.026v-7.7c-.238-.026-.45-.053-.635-.106-.503-.106-.767-.238-.767-.397s.238-.291.741-.423 1.08-.185 1.8-.185c.688 0 1.27.053 1.8.185s.794.265.794.423-.265.291-.794.397z" fill="#084" stroke="#084" stroke-miterlimit="10" stroke-width=".529"/></svg>