<svg xmlns="http://www.w3.org/2000/svg" width="150" height="200" viewBox="0 0 39.7 52.9" stroke-width=".53" stroke-miterlimit="10"><path d="M33.997 47.5v-7.579c.106-.026.238-.079.344-.079.848-.212 1.272-.504 1.272-.848 0-.318-.424-.583-1.272-.848l-.344-.079v-4.373c.503.186.848.212 1.007.027.212-.239.106-.716-.344-1.458-.185-.318-.424-.609-.662-.927v-.848c.106-.026.238-.079.344-.079.848-.212 1.272-.504 1.272-.848 0-.318-.424-.583-1.272-.822s-1.829-.371-2.995-.371h-.874l-.265-.106c-.795-.398-1.299-.477-1.511-.239-.133.133-.159.345-.053.61-.106.026-.186.079-.265.079-.821.265-1.245.53-1.245.848 0 .344.424.636 1.245.848.053.026.133.026.239.053v.053l-4.425 4.903c-.106-.053-.212-.106-.318-.186-.795-.371-1.299-.45-1.484-.238-.239.265-.106.768.344 1.484l.212.292-3.233 3.578-3.233-3.578c.053-.106.133-.186.212-.292.477-.715.61-1.219.371-1.484-.212-.212-.716-.133-1.511.238-.106.053-.212.106-.318.186l-4.452-4.956c.08-.027.159-.053.265-.053.848-.212 1.272-.504 1.272-.848 0-.318-.424-.583-1.245-.848l-.291-.079c.106-.265.08-.477-.053-.61-.212-.238-.715-.159-1.484.239-.106.026-.185.079-.291.106H8.08c-1.166 0-2.147.132-2.995.371-.821.239-1.245.53-1.245.822 0 .344.424.636 1.245.848.053.026.133.026.239.053v1.06l-.53.768c-.45.742-.556 1.219-.345 1.457.159.186.45.186.874.027v4.346c-.106.026-.185.026-.239.053-.821.265-1.245.53-1.245.848 0 .345.424.636 1.245.848.053.027.133.027.239.053v7.632c-.106.027-.185.027-.239.053-.821.238-1.245.504-1.245.848s.424.636 1.245.848 1.829.318 2.995.318c1.139 0 2.146-.106 2.995-.318s1.272-.504 1.272-.848c0-.318-.424-.609-1.272-.848-.106-.026-.239-.079-.345-.079v-6.97a1.29 1.29 0 0 1 .08.186c.239.265.742.185 1.51-.239a1.87 1.87 0 0 1 .212-.079l5.115 5.644c-.053.079-.106.133-.133.186-.477.742-.583 1.246-.344 1.484.239.265.716.186 1.484-.238.371-.186.742-.398 1.113-.689.398.292.769.53 1.14.689.768.398 1.245.477 1.484.238.212-.265.079-.742-.371-1.484a.57.57 0 0 1-.106-.186l5.115-5.644c.079.026.133.079.212.079.715.398 1.192.477 1.457.239v6.81c-.106.027-.186.027-.239.053-.821.238-1.245.504-1.245.848s.424.636 1.245.848 1.829.318 2.994.318c1.139 0 2.147-.106 2.995-.318s1.272-.504 1.272-.848c0-.318-.424-.609-1.272-.848zm-23.294-7.553c.026-.026.08-.026.106-.053-.053.159-.106.292-.106.371zm-.026-10.308c0 .159-.265.292-.795.424-.185.027-.398.08-.61.08v7.712l-1.192-.026-1.14.026V30.17c-.239-.026-.45-.079-.636-.106-.504-.132-.769-.291-.769-.424 0-.185.239-.318.742-.424s1.087-.159 1.802-.159c.689 0 1.272.053 1.802.159s.795.239.795.424zm0 9.381c0 .186-.265.318-.795.424s-1.113.159-1.802.159-1.299-.053-1.802-.159-.742-.238-.742-.424c0-.159.239-.291.742-.424s1.087-.185 1.802-.185c.689 0 1.272.053 1.802.185.53.106.795.265.795.424zm0 9.381c0 .159-.265.292-.795.424s-1.113.186-1.802.186-1.299-.053-1.802-.186-.742-.265-.742-.424c0-.185.265-.318.769-.397.185-.053.398-.106.636-.106v-7.712a14.97 14.97 0 0 0 1.14.027l1.192-.053v7.738l.61.106c.53.106.795.238.795.397zm3.365-12.163l-.927.768-.822.795-1.59-1.775v-3.472zm1.511.742c-.318.424-.742.875-1.246 1.325-.504.477-.98.822-1.431 1.087s-.715.318-.848.212c-.026-.026-.026-.079-.026-.106.212-.132.318-.292.318-.477 0-.079-.026-.132-.053-.212l.053-.027c.265-.424.663-.874 1.193-1.352a6.37 6.37 0 0 1 1.431-1.087c.477-.265.768-.318.848-.212.159.132.079.424-.239.848zm3.206 4.478l-.875.954c-.106-.053-.212-.106-.318-.186-.715-.344-1.192-.424-1.457-.265L13.83 39.47l.874-.715.848-.822zm5.141-3.525c.239.265.503.504.821.795l.901.768-5.194 5.777.371.477c.318.424.424.716.291.848-.106.106-.371.053-.848-.212s-.954-.609-1.457-1.06c-.504-.477-.901-.901-1.166-1.352-.291-.424-.371-.689-.265-.822s.397-.079.848.185c.186.106.371.239.556.371zm.583-1.563a7.15 7.15 0 0 1 1.458 1.087c.503.477.901.901 1.192 1.352 0 .026 0 .026.026.053-.026.053-.026.106-.026.186 0 .159.106.291.291.424 0 .053 0 .106-.026.132-.106.106-.398.053-.822-.212s-.927-.609-1.431-1.087a9.1 9.1 0 0 1-1.219-1.325c-.318-.424-.398-.716-.291-.822.079-.106.371-.053.848.212zm4.161-.238l-1.484 1.67c-.239-.265-.504-.504-.822-.795l-.901-.768 3.206-3.551zm5.326-6.493c0 .159-.265.292-.795.424-.186.027-.398.08-.61.08v7.712l-1.192-.026-1.14.026V30.17c-.239-.026-.451-.079-.636-.106-.503-.132-.768-.291-.768-.424 0-.185.239-.318.742-.424s1.087-.159 1.802-.159c.689 0 1.272.053 1.802.159s.795.239.795.424zm0 9.381c0 .186-.265.318-.795.424s-1.113.159-1.802.159-1.299-.053-1.802-.159-.742-.238-.742-.424c0-.159.239-.291.742-.424s1.087-.185 1.802-.185c.689 0 1.272.053 1.802.185.53.106.795.265.795.424zm0 9.381c0 .159-.265.292-.795.424s-1.113.186-1.802.186-1.299-.053-1.802-.186-.742-.265-.742-.424c0-.185.265-.318.768-.397.186-.053.398-.106.636-.106v-7.712c.345.027.716.027 1.14.027l1.192-.053v7.738l.61.106c.53.106.795.238.795.397z" fill="#084" stroke="#084"/><path d="M5.165 23.12c-.848.212-1.272.504-1.272.848 0 .318.424.583 1.272.822s1.829.371 2.995.371l.874-.026.265.132c.795.398 1.299.477 1.511.239.133-.159.159-.371.053-.636.106-.027.185-.027.265-.053.821-.265 1.245-.53 1.245-.848 0-.344-.424-.636-1.245-.848-.053-.026-.133-.026-.239-.053v-.053l4.426-4.902c.106.053.212.106.318.185.795.371 1.299.45 1.484.238.239-.265.106-.768-.344-1.484l-.212-.292 3.233-3.578 3.233 3.578c-.053.106-.133.186-.212.292-.477.715-.609 1.219-.371 1.484.212.212.715.133 1.511-.238a2.01 2.01 0 0 0 .318-.185l4.452 4.955c-.079.027-.159.027-.265.053-.848.212-1.272.504-1.272.848 0 .318.424.583 1.245.848l.291.053c-.106.265-.079.477.053.636.212.238.716.159 1.484-.239.106-.026.186-.079.291-.132a9.07 9.07 0 0 0 .875.026c1.166 0 2.146-.132 2.995-.371.822-.239 1.245-.53 1.245-.822 0-.344-.424-.636-1.245-.848-.053-.026-.133-.026-.239-.053v-1.06l.53-.768c.45-.742.556-1.219.344-1.457-.159-.186-.45-.186-.874-.053v-4.32c.106-.027.185-.027.239-.053.822-.265 1.245-.53 1.245-.848 0-.344-.424-.636-1.245-.848-.053-.026-.133-.026-.239-.053V5.975c.106-.026.185-.026.239-.053.822-.238 1.245-.503 1.245-.848s-.424-.636-1.245-.848-1.828-.318-2.995-.318c-1.139 0-2.146.106-2.994.318s-1.272.503-1.272.848c0 .318.424.609 1.272.848.106.027.239.08.345.08v6.969c-.026-.079-.053-.132-.079-.185-.239-.265-.742-.186-1.511.238-.053.027-.133.053-.212.08l-5.088-5.618c.053-.08.106-.133.133-.186.477-.742.583-1.245.345-1.484-.239-.265-.716-.185-1.484.239-.371.185-.742.397-1.113.689-.397-.292-.768-.53-1.139-.689-.769-.398-1.245-.477-1.484-.239-.212.265-.079.742.371 1.484a.57.57 0 0 1 .106.186l-5.115 5.644c-.08-.026-.133-.079-.212-.079-.715-.398-1.192-.477-1.457-.265V6.001c.106-.027.185-.027.239-.053.821-.239 1.245-.503 1.245-.848s-.424-.636-1.245-.848-1.829-.318-2.995-.318c-1.14 0-2.147.106-2.995.318s-1.272.504-1.272.848c0 .318.424.609 1.272.848.106.026.239.079.345.079v7.579c-.106.027-.239.08-.345.08-.848.212-1.272.503-1.272.848 0 .318.424.583 1.272.848l.345.079v4.346c-.504-.185-.848-.185-1.007 0-.212.239-.106.716.345 1.458.185.291.424.583.662.901v.874c-.026.026-.159.053-.265.079zm24.46-18.391c.53-.106 1.113-.159 1.802-.159s1.298.053 1.802.159.742.238.742.424c0 .159-.265.291-.768.424l-.636.106v7.685c-.345-.027-.716-.027-1.139-.027l-1.193.027V5.657l-.61-.079c-.53-.133-.795-.292-.795-.424 0-.186.265-.318.795-.424zm0 9.381c.53-.106 1.113-.159 1.802-.159s1.298.053 1.802.159.742.238.742.424c0 .159-.239.291-.742.424s-1.087.185-1.802.185c-.689 0-1.272-.053-1.802-.185s-.795-.265-.795-.424c0-.186.265-.318.795-.424zm0 9.407c.186-.053.398-.106.61-.106v-7.738l1.193.053 1.139-.027v7.712a3.97 3.97 0 0 1 .636.106c.503.106.768.238.768.397s-.239.292-.742.424-1.087.186-1.802.186c-.689 0-1.272-.053-1.802-.186s-.795-.265-.795-.424.265-.291.795-.397zm-.821-10.282v.345c-.026.026-.079.026-.106.026.053-.106.079-.238.106-.371zm0 4.293V21l-3.339-3.71.927-.768.822-.795zm-1.325-3.578c.026.026.026.053.026.106-.212.132-.318.291-.318.477 0 .053.026.106.053.185l-.053.053c-.265.424-.663.874-1.192 1.352a6.37 6.37 0 0 1-1.431 1.087c-.477.265-.768.318-.848.212-.133-.106-.053-.398.265-.822s.742-.874 1.245-1.325c.504-.477.98-.822 1.431-1.087.424-.291.689-.371.822-.238zm-4.081-2.385l2.279 2.491-.875.715-.848.822-3.206-3.525.874-.954c.106.053.212.106.318.186.716.344 1.192.424 1.457.265zm-4.319-3.233a3.51 3.51 0 0 1-.371-.503c-.318-.424-.424-.715-.291-.848.106-.106.371-.026.848.239a7.15 7.15 0 0 1 1.457 1.087c.503.477.901.901 1.166 1.352.291.424.371.689.265.822-.106.106-.398.053-.848-.212l-.556-.345-5.194 5.698c-.239-.265-.503-.503-.821-.795l-.901-.768zm-6.97 5.618c.106-.106.398-.053.822.212s.928.609 1.431 1.087a9.1 9.1 0 0 1 1.219 1.325c.318.424.397.715.291.822s-.371.053-.848-.212a7.15 7.15 0 0 1-1.458-1.087c-.504-.477-.901-.901-1.192-1.352 0-.026 0-.053-.026-.079.026-.027.026-.08.026-.132 0-.186-.106-.318-.291-.477-.026-.027 0-.08.026-.106zm-1.245 3.418l1.484-1.643c.239.265.504.503.822.795l.901.768-3.206 3.551zM6.331 4.729c.53-.106 1.113-.159 1.802-.159s1.298.053 1.802.159.742.238.742.424c0 .159-.265.291-.769.424l-.636.106v7.685c-.345-.027-.715-.027-1.139-.027l-1.193.027V5.656l-.61-.079c-.53-.133-.795-.292-.795-.424 0-.186.265-.318.795-.424zm0 9.381c.53-.106 1.113-.159 1.802-.159s1.298.053 1.802.159.742.238.742.424c0 .159-.239.291-.742.424s-1.087.186-1.802.186c-.689 0-1.272-.053-1.802-.186s-.795-.265-.795-.424c0-.186.265-.318.795-.424zm0 9.407c.185-.053.398-.106.61-.106v-7.738l1.193.053 1.139-.027v7.712a3.97 3.97 0 0 1 .636.106c.504.106.769.238.769.397s-.239.292-.742.424-1.087.186-1.802.186c-.689 0-1.272-.053-1.802-.186s-.795-.265-.795-.424.265-.291.795-.397z" fill="#339" stroke="#339"/></svg>