<svg xmlns="http://www.w3.org/2000/svg" xmlns:xlink="http://www.w3.org/1999/xlink" width="150" height="200" viewBox="0 0 39.7 52.9"><defs><path id="A" d="M-136.8 481.6c3.2-.5 4.8-1.1 4.8-2 0-.8-1.6-1.4-4.8-2s-6.9-.8-11.3-.8-8.1.3-11.3.8c-3.1.6-4.7 1.2-4.7 2s1.6 1.5 4.7 2c.2.1.5.1.9.2V500c-.4.1-.7.1-.9.2-3.1.6-4.7 1.2-4.7 2s1.6 1.5 4.7 2.1c.2 0 .5 0 .9.1v18.2c-.4.1-.7.1-.9.2-3.1.6-4.7 1.2-4.7 2s1.6 1.5 4.7 2 6.9.8 11.3.8c4.3 0 8.1-.3 11.3-.8s4.8-1.2 4.8-2-1.6-1.4-4.8-2c-.4-.1-.9-.2-1.3-.2v-18.1c.4-.1.9-.2 1.3-.2 3.2-.6 4.8-1.2 4.8-2.1 0-.8-1.6-1.4-4.8-2-.4-.1-.9-.1-1.3-.2v-18.2c.4-.1.9-.2 1.3-.2zm-15.5-.7c0-1.4 1.5-2.1 4.4-2.1s4.4.7 4.4 2.1v18.5c-1.5-.1-3-.1-4.5-.1h-4.3v-18.4zm8.8 42.5c0 1.5-1.5 2.2-4.4 2.2s-4.4-.7-4.4-2.2v-18.5c1.3.1 2.7.1 4.3.1s3 0 4.5-.1v18.5zm2.3-20.2c-2 .3-4.2.4-6.8.4s-4.9-.1-6.8-.4-2.8-.6-2.8-1c0-.3.9-.7 2.8-1s4.1-.5 6.8-.5c2.6 0 4.8.2 6.8.5s3 .6 3 1-1 .7-3 1z"/><path id="B" d="M-136.8 420.6c3.2-.5 4.8-1.2 4.8-2.1 0-.7-1.6-1.3-4.8-1.9s-6.9-.9-11.3-.9-8.1.3-11.3.9c-3.1.6-4.7 1.2-4.7 1.9 0 .9 1.6 1.6 4.7 2.1.2.1.5.1.9.1V439c-.4 0-.7 0-.9.1-3.1.6-4.7 1.3-4.7 2.1s1.6 1.5 4.7 2c.2.1.5.1.9.1v18.3c-.4.1-.7.1-.9.1-3.1.6-4.7 1.2-4.7 2.1s1.6 1.5 4.7 2 6.9.7 11.3.7c4.3 0 8.1-.2 11.3-.7s4.8-1.1 4.8-2-1.6-1.5-4.8-2.1c-.4-.1-.9-.1-1.3-.2v-18.1c.4-.1.9-.1 1.3-.2 3.2-.5 4.8-1.1 4.8-2 0-.8-1.6-1.5-4.8-2.1-.4-.1-.9-.1-1.3-.2v-18.1c.4-.1.9-.1 1.3-.2zm-15.5-.7c0-1.4 1.5-2.1 4.4-2.1s4.4.7 4.4 2.1v18.5c-1.5-.1-3-.1-4.5-.1s-3 0-4.3.1v-18.5zm8.8 42.5c0 1.4-1.5 2.1-4.4 2.1s-4.4-.7-4.4-2.1v-18.5h8.8v18.5zm2.3-20.2c-2 .2-4.2.4-6.8.4s-4.9-.1-6.8-.4c-1.9-.2-2.8-.6-2.8-1s.9-.8 2.8-1.1 4.1-.5 6.8-.5c2.6 0 4.8.2 6.8.5s3 .7 3 1.1-1 .7-3 1z"/><path id="C" d="M-48.9 360.1c3.2-.5 4.8-1.2 4.8-2.1 0-.7-1.6-1.3-4.8-1.9s-6.9-.9-11.3-.9-8.1.3-11.3.9c-3.1.6-4.7 1.2-4.7 1.9 0 .9 1.6 1.6 4.7 2.1.2.1.5.1.9.1v18.3c-.4 0-.7 0-.9.1-3.1.6-4.7 1.3-4.7 2.1s1.6 1.5 4.7 2c.2.1.5.1.9.1v18.3c-.4.1-.7.1-.9.1-3.1.6-4.7 1.2-4.7 2.1s1.6 1.5 4.7 2 6.9.7 11.3.7c4.3 0 8.1-.2 11.3-.7s4.8-1.1 4.8-2-1.6-1.5-4.8-2.1c-.4-.1-.9-.1-1.3-.2v-18.1c.4-.1.9-.1 1.3-.2 3.2-.5 4.8-1.1 4.8-2 0-.8-1.6-1.5-4.8-2.1-.4-.1-.9-.1-1.3-.2v-18.1c.4-.1.9-.2 1.3-.2zm-15.5-.8c0-1.4 1.5-2.1 4.4-2.1s4.4.7 4.4 2.1v18.5c-1.5-.1-3-.1-4.5-.1s-3 0-4.3.1v-18.5zm8.8 42.6c0 1.4-1.5 2.1-4.4 2.1s-4.4-.7-4.4-2.1v-18.5h8.8v18.5zm2.3-20.2c-2 .2-4.2.4-6.8.4s-4.9-.1-6.8-.4c-1.9-.2-2.8-.6-2.8-1s.9-.8 2.8-1.1 4.1-.5 6.8-.5c2.6 0 4.8.2 6.8.5s3 .7 3 1.1-1 .7-3 1z"/></defs><g transform="matrix(.265 0 0 .265 47.4 -90.3)" fill="#b32" stroke="#b32" stroke-miterlimit="10" stroke-width="2"><use xlink:href="#A"/><use xlink:href="#B"/><path d="M-92.8 360c3.2-.5 4.8-1.2 4.8-2.1 0-.7-1.6-1.3-4.8-1.9s-6.9-.9-11.3-.9-8.1.3-11.3.9c-3.1.6-4.7 1.2-4.7 1.9 0 .9 1.6 1.6 4.7 2.1.2.1.5.1.9.1v18.3c-.4 0-.7 0-.9.1-3.1.6-4.7 1.3-4.7 2.1s1.6 1.5 4.7 2c.2.1.5.1.9.1V401c-.4.1-.7.1-.9.1-3.1.6-4.7 1.2-4.7 2.1s1.6 1.5 4.7 2 6.9.7 11.3.7c4.3 0 8.1-.2 11.3-.7s4.8-1.1 4.8-2-1.6-1.5-4.8-2.1c-.4-.1-.9-.1-1.3-.2v-18.1c.4-.1.9-.1 1.3-.2 3.2-.5 4.8-1.1 4.8-2 0-.8-1.6-1.5-4.8-2.1-.4-.1-.9-.1-1.3-.2v-18.1c.4-.1.8-.2 1.3-.2zm-15.5-.8c0-1.4 1.5-2.1 4.4-2.1s4.4.7 4.4 2.1v18.5c-1.5-.1-3-.1-4.5-.1s-3 0-4.3.1zm8.8 42.6c0 1.4-1.5 2.1-4.4 2.1s-4.4-.7-4.4-2.1v-18.5h8.8zm2.3-20.2c-2 .2-4.2.4-6.8.4s-4.9-.1-6.8-.4c-1.9-.2-2.8-.6-2.8-1s.9-.8 2.8-1.1 4.1-.5 6.8-.5c2.6 0 4.8.2 6.8.5s3 .7 3 1.1-1.1.7-3 1z"/><use xlink:href="#C"/><use x="-87.9" xlink:href="#C"/><use x="87.9" xlink:href="#B"/><path d="M-92.8 482c3.2-.5 4.8-1.1 4.8-2 0-.8-1.6-1.4-4.8-2s-6.9-.8-11.3-.8-8.1.3-11.3.8c-3.1.6-4.7 1.2-4.7 2s1.6 1.5 4.7 2c.2.1.5.1.9.2v18.2c-.4.1-.7.1-.9.2-3.1.6-4.7 1.2-4.7 2s1.6 1.5 4.7 2.1c.2 0 .5 0 .9.1V523c-.4.1-.7.1-.9.2-3.1.6-4.7 1.2-4.7 2s1.6 1.5 4.7 2 6.9.8 11.3.8c4.3 0 8.1-.3 11.3-.8s4.8-1.2 4.8-2-1.6-1.4-4.8-2c-.4-.1-.9-.2-1.3-.2v-18.1c.4-.1.9-.2 1.3-.2 3.2-.6 4.8-1.2 4.8-2.1 0-.8-1.6-1.4-4.8-2-.4-.1-.9-.1-1.3-.2v-18.2c.4-.1.8-.2 1.3-.2zm-15.5-.7c0-1.4 1.5-2.1 4.4-2.1s4.4.7 4.4 2.1v18.5c-1.5-.1-3-.1-4.5-.1h-4.3zm8.8 42.5c0 1.5-1.5 2.2-4.4 2.2s-4.4-.7-4.4-2.2v-18.5c1.3.1 2.7.1 4.3.1s3 0 4.5-.1zm2.3-20.2c-2 .3-4.2.4-6.8.4s-4.9-.1-6.8-.4-2.8-.6-2.8-1c0-.3.9-.7 2.8-1s4.1-.5 6.8-.5c2.6 0 4.8.2 6.8.5s3 .6 3 1c-.1.4-1.1.7-3 1z"/><use x="87.9" xlink:href="#A"/><path d="M-92.8 421c3.2-.5 4.8-1.2 4.8-2.1 0-.7-1.6-1.3-4.8-1.9s-6.9-.9-11.3-.9-8.1.3-11.3.9c-3.1.6-4.7 1.2-4.7 1.9 0 .9 1.6 1.6 4.7 2.1.2.1.5.1.9.1v18.3c-.4 0-.7 0-.9.1-3.1.6-4.7 1.3-4.7 2.1s1.6 1.5 4.7 2c.2.1.5.1.9.1V462c-.4.1-.7.1-.9.1-3.1.6-4.7 1.2-4.7 2.1s1.6 1.5 4.7 2 6.9.7 11.3.7c4.3 0 8.1-.2 11.3-.7s4.8-1.1 4.8-2-1.6-1.5-4.8-2.1c-.4-.1-.9-.1-1.3-.2v-18.1c.4-.1.9-.1 1.3-.2 3.2-.5 4.8-1.1 4.8-2 0-.8-1.6-1.5-4.8-2.1-.4-.1-.9-.1-1.3-.2v-18.1c.4-.1.8-.1 1.3-.2zm-15.5-.7c0-1.4 1.5-2.1 4.4-2.1s4.4.7 4.4 2.1v18.5c-1.5-.1-3-.1-4.5-.1s-3 0-4.3.1zm8.8 42.5c0 1.4-1.5 2.1-4.4 2.1s-4.4-.7-4.4-2.1v-18.5h8.8zm2.3-20.2c-2 .2-4.2.4-6.8.4s-4.9-.1-6.8-.4c-1.9-.2-2.8-.6-2.8-1s.9-.8 2.8-1.1 4.1-.5 6.8-.5c2.6 0 4.8.2 6.8.5s3 .7 3 1.1-1.1.7-3 1z"/></g></svg>