<svg xmlns="http://www.w3.org/2000/svg" width="190" height="240" viewBox="0 0 50.3 63.5"><defs><linearGradient id="A" x1="34.5" x2="42.5" y1="7.95" y2="15.95" gradientUnits="userSpaceOnUse"><stop stop-color="#ddd" offset="0"/><stop stop-color="#bbb" offset="1"/></linearGradient><linearGradient id="B" x1="31.89" x2="39.79" y1="10.54" y2="18.49" gradientUnits="userSpaceOnUse"><stop stop-color="#eb6" offset="0"/><stop stop-color="#c94" offset="1"/></linearGradient></defs><path d="M14.6 0c-1.3 0-2.45.625-3.18 1.59v-.002l-7.14 7.14v50.8h37l7.41-7.41h-.002c.964-.723 1.59-1.87 1.59-3.18v-45a3.96 3.96 0 0 0-3.97-3.97z" fill="url(#A)"/><path d="M6.69 7.89c-1.3 0-2.45.624-3.18 1.59v-.001l-1.85 1.85v50.5h37.3l1.85-1.85-.003.001c.965-.723 1.59-1.87 1.59-3.18v-45a3.96 3.96 0 0 0-3.97-3.97z" fill="url(#B)"/><rect y="10.6" width="39.7" height="52.9" ry="3.97" fill="#fc7"/></svg>