<svg xmlns="http://www.w3.org/2000/svg" width="150" height="200" viewBox="0 0 39.7 52.9"><g transform="matrix(.265 0 0 .265 47.7 -89.4)"><path d="M-81.1 472c-2.6 0-6.3.7-10.2 1.5 1.3-2 2.1-4.4 2.1-6.9 0-7.5-6.7-13.6-15-13.6s-15 6.1-15 13.6c0 2.5.8 4.9 2.1 6.9-3.8-.8-7.6-1.5-10.2-1.5-2.5 0-4.1.7-4.8 2.1-1 2.3 1.3 4.7 3.8 6.8 2.1 1.8 3.6 4.6 5.2 7.6 3.3 6 7.3 13.5 18.9 13.5 11.5 0 15.6-7.5 18.9-13.5 1.6-2.9 3.1-5.7 5.2-7.6 2.4-2.1 4.8-4.5 3.8-6.8-.6-1.4-2.2-2.1-4.8-2.1m-.5 7.5c-7.3 6.3-7.4 20.5-22.5 20.5s-15.3-14.3-22.5-20.5c-4.7-4.1-3.9-5.4-.6-5.4 2.9 0 7.8 1 12.4 2.1 2.7 2.5 6.5 4.1 10.7 4.1s8-1.6 10.7-4.1c4.6-1.1 9.4-2.1 12.4-2.1 3.2 0 4.1 1.3-.6 5.4m-3.8-1.8c-3.2 0-13.2 3.6-18.8 3.6s-15.6-3.6-18.8-3.6c-1.4 0-1.5.7.8 2.7 7.5 6.8 6.4 15.1 18 15.2 11.6-.1 10.5-8.4 18-15.2 2.3-2 2.2-2.7.8-2.7m-18.8 15.8c-2.7 0-4.5-.5-5.9-1.5 1.1-.8 2.9-1.8 5.9-1.8s4.8 1 5.9 1.8c-1.4 1-3.2 1.5-5.9 1.5m12.5-10.6c-2 1.6-9.2 2.4-12.4 2.4s-10.4-.8-12.4-2.4c-.6-.5-.9-1.3-.9-2.1.3.1.6.2 1 .2 4.2 1.1 8.9 2.3 12.4 2.3s8.2-1.2 12.4-2.3c.3-.1.6-.2 1-.2-.3.8-.5 1.6-1.1 2.1" fill="#b32"/><g fill="#339"><path d="M-114 452c0-25.3-22.7-25.3-22.7 0-.1 7.5 22.7 7.5 22.7 0m-19 .1c0-20.3 18.2-20.3 18.2 0 0 6-18.2 6-18.2 0"/><ellipse cx="-123" cy="448" rx="5.7" ry="7.2"/><path d="M-94.4 452c0 7.6 22.7 7.6 22.7 0 0-25.4-22.7-25.4-22.7 0m.8.1c0-20.3 18.2-20.3 18.2 0 0 6-18.2 6-18.2 0m8.3-10.9c-3.1 0-5.7 3.2-5.7 7.2s2.5 7.2 5.7 7.2 5.7-3.2 5.7-7.2-2.6-7.2-5.7-7.2"/></g><path d="M-147 470c-6.6.8-9.9 2.8-9.9 6.7 0 .3 0 .6.1.9-4.6 1.4-7.8 4.1-7.8 7.2 0 1.3.6 2.6 1.6 3.7-2.5 1.7-4 3.8-4 6.2 0 3.5 3.3 6.5 8.2 8.2-.7 1-1.1 2.2-1.1 3.4 0 5.5 7.8 9.9 17.5 10 2.8 2.9 8.3 4.9 14.6 4.9 3.2 0 6.1-.5 8.6-1.4 3.4 2.4 9.2 4 15.8 4s12.3-1.6 15.8-4c2.5.9 5.5 1.4 8.6 1.4 6.3 0 11.8-2 14.6-4.9 9.7-.1 17.5-4.5 17.5-10 0-1.2-.4-2.3-1.1-3.4 4.9-1.7 8.2-4.7 8.2-8.2m.1.1c0-2.4-1.5-4.5-4-6.2 1-1.1 1.6-2.4 1.6-3.7 0-3.1-3.2-5.9-7.8-7.2.1-.3.1-.6.1-.9 0-3.9-3.4-6.1-10-6.8" fill="none" stroke="#084" stroke-linecap="round" stroke-miterlimit="10" stroke-width="4"/><path d="M-101 516c0 1.6-1.3 2.9-2.9 2.9s-2.9-1.3-2.9-2.9 1.3-2.9 2.9-2.9 2.9 1.3 2.9 2.9zm-26.8-3.2a2.7 2.7 0 1 1-5.4 0 2.69 2.69 0 0 1 2.7-2.7c1.6.1 2.7 1.3 2.7 2.7zm-17.7-6.3a2.3 2.3 0 1 1-4.6 0 2.26 2.26 0 0 1 2.3-2.3c1.3-.1 2.3 1 2.3 2.3zm-8.8-11.5c0 1.2-.9 2.1-2.1 2.1s-2.1-.9-2.1-2.1.9-2.1 2.1-2.1 2.1.9 2.1 2.1zm1.2-10.2a1.8 1.8 0 1 1-3.6 0 1.8 1.8 0 1 1 3.6 0zm5.8-7.8a1.54 1.54 0 0 1-1.5 1.5 1.54 1.54 0 0 1-1.5-1.5 1.54 1.54 0 0 1 1.5-1.5 1.54 1.54 0 0 1 1.5 1.5zm67.2 35.8a2.7 2.7 0 1 0 5.4 0 2.69 2.69 0 0 0-2.7-2.7c-1.5.1-2.7 1.3-2.7 2.7zm17.7-6.3a2.26 2.26 0 0 0 2.3 2.3 2.3 2.3 0 1 0 0-4.6c-1.2-.1-2.3 1-2.3 2.3zm8.9-11.5c0 1.2.9 2.1 2.1 2.1s2.1-.9 2.1-2.1-.9-2.1-2.1-2.1-2.1.9-2.1 2.1zm-1.3-10.2a1.8 1.8 0 1 0 3.6 0A1.79 1.79 0 0 0-53 483c-.9 0-1.8.8-1.8 1.8zm-5.7-7.8a1.54 1.54 0 0 0 1.5 1.5 1.54 1.54 0 0 0 1.5-1.5 1.54 1.54 0 0 0-1.5-1.5 1.54 1.54 0 0 0-1.5 1.5z" fill="#084"/><path d="M-64.8 425s.6 6.2 2 26c.2 5.1-.4 7-.4 7l.6-16.2c.2-6.8 3.5-6.3 5.3-6.3 5.7-.5 6.5 15 6.5 24 0 5.6-2.3 10.2-9.9 10.7-.6 4.4-1.5 8.1-2.7 11.2h0c-4.7 13.1-14.1 16.8-29.8 23.3-2.6 1.1-6.5 1.6-10.4 1.6s-7.8-.5-10.4-1.6c-15.7-6.5-25-10.2-29.8-23.2h0c-1.1-3.1-2-6.8-2.7-11.2-7.7-.5-9.9-5.1-9.9-10.7 0-9 .5-20 6.1-20.5 5.3.8 4.6 3.8 5.2 4.8 1.1 1.8 1.1 14.2 1.1 14.2s-.6-1.9-.4-7l2.1-28" fill="none" stroke="#b32" stroke-linecap="round" stroke-linejoin="round" stroke-miterlimit="10" stroke-width="4"/><g fill="#084"><path d="M-78.4 389c-2.4-8.8-14.3-15.8-15.7-24.2-.6-3.9 3.2-7.9-.5-11.7-1.1-1-2.9-1.9-5.3-1.9-11.9 0-24.9 8.4-29.3 18.6-6 13.7-2.3 22-10.7 27.2-2.3 1.5-5.2.5-8.6 1.3-5.1 1.2-21.7 7.2-22.2 13.2-.5 6.8 11.3 6.9 21.6 10 15.4 4.6 18.5 11.9 32.9 11.6 13.3-.3 34-1.2 43.2-4.1 1.5-.5 4.8-1.5 6.5-2.2 6-2.5 10.2-4.3 13-8.3 3.7-5.2 2.9-8.8 3.7-13.3 2.7-3.9 9.4-3.2 9.5-8.8.3-13.3-28.9-8-38.1-7.4zm24.5 15.2c2.7 20.1-22 20.6-35.5 23.5-6.9 1.5-24.5 2.2-33.5.2-8.3-1.9-18.2-7.6-27-10.5-6.2-2-14.2-1.5-16.3-5.4-1-4.7 6.7-6.3 11.3-8.1 4-1.6 9.5-3.4 12.9-3.2 3.6-.3 5.8-1.3 7.7-4.2 8.9-11.7 6.6-33.4 19.5-38 .8-.6 11.6-4.8 15.8-4.1 4.4 1.6.6 7.8 1.7 12.3 1.8 5.7 10.7 14.2 14.6 22.5 1.2 2 1.2 2.5 3.9 3.1 5.5.2 12.4-1.5 17.8-1.7 7.1-.2 14.4-.9 16.1 3.8.6 5.3-8.6 5.4-9 9.8z"/><path d="M-166 408v8c.2 0 .4.1.6.1l1.1.3v-9.2zm3.4-1.5v10.4c.6.2 1.2.3 1.8.5v-11.6zm3.5-1.5v12.8c.6.2 1.2.3 1.8.5v-14.1zm3.7-1.5c-.1 0-.1.1-.2.1v15.3c.6.2 1.2.4 1.8.5v-16.5zm3.2-1.2v17.6l1.8.6v-18.8zm3.5-1.1V421l1.8.6v-20.9zm3.5-.9v21.9l1.8.6v-23zm3.4-1v24.2l1.8.7v-25.4c-.6.1-1.2.3-1.8.5zm3.6-1.2c-.1 0-.1 0 0 0l-.1 26.7c.6.2 1.2.5 1.8.8v-28.5c-.5.4-1.1.8-1.7 1zm3.4-4.6l-.1 32.9 1.8.8v-36.1c-.5.8-1.1 1.6-1.7 2.4zm5.1-14.8l-1.6 7.6-.1 41.8 1.2.6c.2.1.4.2.6.4zm1.9-6l-.1 56.9c.6.8 1.2 1 1.8.6l-.1-60.8c-.6 1-1.1 2.1-1.6 3.3zm3.5-6.8l-.2 63.6c.6.8 1.2 1 1.8.6l-.1-67zm3.5-5l-.2 68.6c.6.8 1.2 1 1.8.6l-.1-70c-.6.3-1 .6-1.5.8zm3.5-1.8l-.2 70.5c.6.8 1.2 1 1.8.6l-.1-71.8c-.6.2-1.1.4-1.5.7zm3.4-1.9l-.2 72.3c.6.8 1.2 1 1.8.6l-.1-73.7c-.5.3-1 .6-1.5.8zm3.5-1.9l-.2 74.2c.6.8 1.2 1 1.8.6l-.2-75.7zm4.9-1.6l.2 76.4c-.6.4-1.2.2-1.8-.6l.2-75.2c.5-.6.9-.8 1.4-.6zm3.4 0l.2 76.4c-.6.4-1.2.2-1.8-.6l.2-75.2c.5-.6 1-.8 1.4-.6zm3.5 0l.2 76.4c-.6.4-1.2.2-1.8-.6l.2-75.2c.5-.6.9-.8 1.4-.6zm2.6 14.1c-.3-.4-.4-.7-.6-1.1l-.2 62.8c.6.8 1.2 1 1.8.6l-.1-60.6c-.4-.5-.7-1.1-.9-1.7zm3.7 4.7c-.2-.2-.4-.3-.6-.6-.1-.1-.1-.2-.2-.3l-.2 57.8c.6.8 1.2 1 1.8.6l-.1-56.2c-.3-.3-.5-.8-.7-1.3zm3.7 4c-.4-.3-.8-.5-1.1-.8l-.1 53.8c.6.8 1.2 1 1.8.6l-.1-52.1c-.2-.5-.3-1-.5-1.5zm3.2 4.9c-.3-.2-.6-.4-.8-.6l-.1 48.7c.6.8 1.2 1 1.8.6l-.1-46.5c-.4-.7-.6-1.5-.8-2.2zm4.1 7.9c-.5-.6-1-1.4-1.5-2.2l-.1 42.4c.2.3.4.5.6.7.3-.4.7-.7 1.1-1v-39.8zm1.9 1.3l-.1 37.9c.2 0 .5-.1.7-.1.4 0 .7-.1 1.1-.1v-37.6c-.6.1-1.1.1-1.7-.1zm3.5.2l-.1 37.3c.6-.1 1.2-.2 1.8-.4v-36.8c-.6 0-1.1-.1-1.7-.1zm3.5.1l-.1 36.5c.6-.1 1.2-.3 1.8-.4v-36.2c-.6 0-1.2 0-1.7.1zm3.4-.3l-.1 35.9c.4-.1.7-.1 1.1-.2.2-.2.4-.3.7-.5v-35.4c-.6.1-1.1.2-1.7.2zm3.5-.3l-.1 34.6 1.8-.9v-33.9zm3.5-.3l-.1 33.3 1.4-.6c.1-.1.2-.1.4-.2v-32.6c-.6 0-1.2 0-1.7.1zm4-.2h-.6l-.1 31.9 1.4-.6c.1-.1.2-.3.3-.4v-30.8c-.3-.1-.6-.1-1-.1zm2.9 0l-.1 28.6c.5-.7 1-1.4 1.4-2.2.1-.3.3-.6.4-.9v-25.6c-.6.1-1.1.1-1.7.1zm4.8 0h-1.3v14.1c.5-.5 1-.9 1.7-1.2v-12.8c-.2 0-.3-.1-.4-.1zm3.5 1.3l-1.4-.6v10.8c.5-.4 1-.7 1.1-.9.2-.2.4-.3.6-.5v-8.7c-.1 0-.2 0-.3-.1zm2.1 1.1v6.3c.5-.4 1-.8 1.6-1.1 0 0 .1 0 .1-.1v-4.4c-.6-.1-1.2-.4-1.7-.7z"/></g></g></svg>