<svg xmlns="http://www.w3.org/2000/svg" width="150" height="200" viewBox="0 0 39.7 52.9"><g transform="matrix(.265 0 0 .265 47.2 -89.5)"><path d="M-79.2 466c-2.7 0-6.6.8-10.7 1.7 1.4-2.3 2.2-4.9 2.2-7.8 0-8.5-7-15.3-15.7-15.3s-15.7 6.9-15.7 15.3c0 2.9.8 5.5 2.2 7.8-4-.9-7.9-1.7-10.7-1.7-2.7 0-4.3.8-5 2.4-1 2.6 1.4 5.3 3.9 7.7 2.2 2.1 3.8 5.2 5.5 8.5 3.4 6.8 7.7 15.2 19.8 15.2s16.3-8.4 19.7-15.2c1.7-3.3 3.3-6.4 5.5-8.5 2.5-2.4 5-5.1 3.9-7.7-.6-1.6-2.3-2.4-4.9-2.4m-.6 8.4c-7.6 7-7.7 23.1-23.6 23.1s-16-16.1-23.6-23.1c-5-4.6-4.1-6.1-.6-6.1 3.1 0 8.2 1.2 13 2.4 2.9 2.8 6.8 4.6 11.2 4.6s8.4-1.8 11.2-4.6c4.8-1.2 9.9-2.4 13-2.4 3.4 0 4.3 1.5-.6 6.1m-4-2c-3.3 0-13.8 4.1-19.6 4.1s-16.3-4.1-19.6-4.1c-1.5 0-1.5.8.8 3.1 7.8 7.6 6.7 17 18.8 17.1 12.1-.1 11-9.4 18.8-17.1 2.4-2.3 2.3-3.1.8-3.1m-19.6 17.8c-2.8 0-4.7-.6-6.2-1.6 1.1-1 3.1-2 6.2-2s5.1 1.1 6.2 2c-1.5 1-3.4 1.6-6.2 1.6m13-11.9c-2.1 1.8-9.6 2.7-13 2.7s-10.9-1-13-2.7c-.7-.6-.9-1.5-1-2.4.3.1.7.2 1 .3 4.4 1.2 9.3 2.5 13 2.5 3.6 0 8.6-1.3 13-2.5.3-.1.7-.2 1-.3-.1.9-.4 1.8-1 2.4" fill="#b32"/><g fill="#339"><path d="M-114 443c0-28.5-23.8-28.5-23.8 0 0 8.6 23.8 8.6 23.8 0m-19.8.2c0-22.8 19-22.8 19 0 0 6.8-19 6.8-19 0"/><ellipse cx="-123" cy="439" rx="5.9" ry="8.1"/><path d="M-93.2 443c0 8.5 23.8 8.5 23.8 0 0-28.5-23.8-28.5-23.8 0m.8.2c0-22.8 19-22.8 19 0 .1 6.8-19 6.8-19 0m8.7-12.3c-3.3 0-5.9 3.6-5.9 8.1s2.7 8.1 5.9 8.1 5.9-3.6 5.9-8.1-2.6-8.1-5.9-8.1"/></g><g fill="none"><g stroke-linecap="round" stroke-miterlimit="10" stroke-width="4"><path d="M-38.2 524c0-12.8-20.9-23.1-46.8-23.1 0 10.6-8 19.1-18 19.1h-.7c-9.9 0-18-8.6-18-19.1-25.8 0-46.8 10.3-46.8 23.1" stroke="#084"/><path d="M-59.8 414s-1.7 5.6-.3 27.8c.2 5.7-.4 7.9-.4 7.9l.7-18.3c.2-7.7 3.7-7.1 5.6-7.1 5.9-.6 6.8 16.9 6.8 27 0 6.3-2.4 11.5-10.4 12-.7 5-1.6 9.1-2.8 12.6-5 14.7-14.7 18.9-31.2 26.2-2.7 1.2-6.8 1.8-10.9 1.8s-8.2-.6-10.9-1.8c-16.4-7.3-26.2-11.5-31.2-26.1-1.2-3.5-2.1-7.7-2.8-12.6-8-.6-10.4-5.7-10.4-12 0-10.1.5-22.5 6.4-23.1 5.6.9 4.8 4.3 5.4 5.4 1.1 2 1.2 16 1.2 16s-.6-2.2-.4-7.9c1.3-18.7.2-26.5.2-26.5" stroke="#b32" stroke-linejoin="round"/></g><g stroke="#339"><g stroke-miterlimit="10" stroke-width="3.7"><path d="M-57.4 409c-.5-23.6-22.1-44.3-46-44.3s-46.8 21.8-46.8 45.4c0 13.4 93.2 15.6 92.8-1.1z"/><path d="M-125 419c-.2-30.3 9.4-54.1 21.5-54.1m17.7 54.1c0-30.7-9.6-52.2-19.2-55.2" stroke-linecap="round" stroke-linejoin="round"/></g><ellipse cx="-105" cy="358" rx="7" ry="5.7" stroke-linejoin="round" stroke-width="3.7"/></g></g></g></svg>