<svg xmlns="http://www.w3.org/2000/svg" width="150" height="200" viewBox="0 0 39.7 52.9"><g transform="matrix(.265 0 0 .265 47.1 -91.1)"><path d="M-79.2 466c-2.7 0-6.6.8-10.7 1.7 1.4-2.3 2.2-4.9 2.2-7.8 0-8.5-7-15.3-15.7-15.3s-15.7 6.9-15.7 15.3c0 2.9.8 5.5 2.2 7.8-4-.9-7.9-1.7-10.7-1.7-2.7 0-4.3.8-5 2.4-1 2.6 1.4 5.3 3.9 7.7 2.2 2.1 3.8 5.2 5.5 8.5 3.4 6.8 7.7 15.2 19.8 15.2s16.3-8.4 19.7-15.2c1.7-3.3 3.3-6.4 5.5-8.5 2.5-2.4 5-5.1 3.9-7.7-.6-1.6-2.3-2.4-4.9-2.4m-.6 8.4c-7.6 7-7.7 23.1-23.6 23.1s-16-16.1-23.6-23.1c-5-4.6-4.1-6.1-.6-6.1 3.1 0 8.2 1.2 13 2.4 2.9 2.8 6.8 4.6 11.2 4.6s8.4-1.8 11.2-4.6c4.8-1.2 9.9-2.4 13-2.4 3.4 0 4.3 1.5-.6 6.1m-4-2c-3.3 0-13.8 4.1-19.6 4.1s-16.3-4.1-19.6-4.1c-1.5 0-1.5.8.8 3.1 7.8 7.6 6.7 17 18.8 17.1 12.1-.1 11-9.4 18.8-17.1 2.4-2.3 2.3-3.1.8-3.1m-19.6 17.8c-2.8 0-4.7-.6-6.2-1.6 1.1-1 3.1-2 6.2-2s5.1 1.1 6.2 2c-1.5 1-3.4 1.6-6.2 1.6m13-11.9c-2.1 1.8-9.6 2.7-13 2.7s-10.9-1-13-2.7c-.7-.6-.9-1.5-1-2.4.3.1.7.2 1 .3 4.4 1.2 9.3 2.5 13 2.5 3.6 0 8.6-1.3 13-2.5.3-.1.7-.2 1-.3-.1.9-.4 1.8-1 2.4" fill="#b32"/><g fill="#339"><path d="M-114 443c0-28.5-23.8-28.5-23.8 0 0 8.6 23.8 8.6 23.8 0m-19.8.2c0-22.8 19-22.8 19 0 0 6.8-19 6.8-19 0"/><ellipse cx="-123" cy="439" rx="5.9" ry="8.1"/><path d="M-93.2 443c0 8.5 23.8 8.5 23.8 0 0-28.5-23.8-28.5-23.8 0m.8.2c0-22.8 19-22.8 19 0 .1 6.8-19 6.8-19 0m8.7-12.3c-3.3 0-5.9 3.6-5.9 8.1s2.7 8.1 5.9 8.1 5.9-3.6 5.9-8.1-2.6-8.1-5.9-8.1"/></g><path d="M-156 412c.1.1 1.1-.3 1.7-.4l-.1-.1c-.5-.4-.8-1-.8-1.7s.3-1.3.8-1.7 1.1-.7 1.8-.7c.2 0 .4 0 .7.1-.1-.5-.2-1-.2-1.5h-.5c-.2 0-.4 0-.8.1-1.2-3.1-1.8-5.4-1.8-7 0-.9.2-1.7.6-2.3.5-.8 1.2-1.2 2-1.2.7 0 1.3.3 1.8.9 0-.8.3-1.6.6-2.3-.7-.6-1.5-.9-2.5-.9-1.3 0-2.4.6-3.2 1.7-.7 1-1.1 2.2-1.1 3.6 0 .2 0 .6.1 1.1-1.5-1.7-3-2.6-4.6-2.6-1.1 0-2.1.4-2.8 1.2-.8.8-1.2 1.7-1.2 2.8 0 1.6.9 3.2 2.6 4.6h-.8c-1.5 0-2.7.3-3.7.9-1.2.8-1.8 1.9-1.8 3.3 0 1.3.5 2.4 1.6 3.2 1 .7 2.2 1.1 3.6 1.1.2 0 .6 0 1.1-.1 1.8-.4 2.3-.2 6.9-2.1zm-7.4-10.6a2.34 2.34 0 0 1 .7-1.7c.4-.5 1-.7 1.7-.7 1.4 0 2.7.9 3.9 2.8.6.9 1.4 2.5 2.3 4.6-.5.3-.9.7-1.3 1.1-4.9-2-7.3-4-7.3-6.1zm0 11c-.9 0-1.7-.2-2.3-.6-.8-.5-1.2-1.2-1.2-2s.4-1.5 1.2-2a4.38 4.38 0 0 1 2.3-.6c1.7 0 3.9.6 6.7 1.8-.1.3-.1.6-.1.9 0 .2 0 .5.1.9-2.8 1-5 1.6-6.7 1.6zm123-8.6c-1-.6-2.2-.9-3.7-.9h-.8c1.8-1.5 2.6-3 2.6-4.6 0-1.1-.4-2-1.2-2.8s-1.7-1.2-2.8-1.2c-1.6 0-3.1.9-4.6 2.6 0-.5.1-.8.1-1.1 0-1.4-.4-2.6-1.1-3.6-.8-1.1-1.9-1.7-3.2-1.7-1 0-1.8.3-2.5.9.4.7.6 1.5.6 2.3.5-.6 1.1-.9 1.8-.9.8 0 1.5.4 2 1.2a4.38 4.38 0 0 1 .6 2.3c0 1.6-.6 3.9-1.8 7-.3-.1-.6-.1-.8-.1h-.5c0 .5-.1 1-.2 1.5.2 0 .4-.1.7-.1.7 0 1.3.2 1.8.7.5.4.8 1 .8 1.7s-.3 1.2-.8 1.7l-.6.6c.6 0 6.7 1.6 7 1.8.2 0 2.8.2 3.1.2 1.4 0 2.6-.4 3.6-1.1 1.1-.8 1.6-1.9 1.6-3.2.1-1.4-.5-2.5-1.7-3.2zm-11.3 1.1c-.3-.5-.8-.8-1.3-1.1.9-2.2 1.7-3.7 2.3-4.6 1.3-1.9 2.6-2.8 3.9-2.8a2.19 2.19 0 0 1 1.7.7c.4.5.7 1 .7 1.7 0 1.9-2.4 4-7.3 6.1zm9.7 4.2a4.38 4.38 0 0 1-2.3.6c-1.7 0-3.9-.6-6.8-1.7.1-.3.1-.6.1-.9s0-.6-.1-.9c2.8-1.2 5.1-1.8 6.7-1.8.9 0 1.7.2 2.3.6.8.5 1.2 1.2 1.2 2 0 .9-.4 1.6-1.1 2.1z" fill="#b32"/><g fill="none"><g stroke="#339" stroke-linecap="round" stroke-miterlimit="10" stroke-width="3.7"><path d="M-54.2 506c43-118-5.5-88.2-3.2-97 6-22.8-22.1-44.3-46-44.3s-51.7 22.4-46.8 45.4c1.4 6.4-44.6-10.1-.8 95.2"/><path d="m-60.5 420c-33.3-3.2-44.7-26-45.8-38m-37.4 38.6c9.3-3 43.6-15 36.3-44.8" stroke-linejoin="round"/></g><g stroke-linecap="round" stroke-miterlimit="10" stroke-width="4"><path d="M-38.2 524c0-12.8-20.9-23.1-46.8-23.1 0 10.6-8 19.1-18 19.1h-.7c-9.9 0-18-8.6-18-19.1-25.8 0-46.8 10.3-46.8 23.1" stroke="#084"/><path d="M-59.8 414s-1.7 5.6-.3 27.8c.2 5.7-.4 7.9-.4 7.9l.7-18.3c.2-7.7 3.7-7.1 5.6-7.1 5.9-.6 6.8 16.9 6.8 27 0 6.3-2.4 11.5-10.4 12-.7 5-1.6 9.1-2.8 12.6-5 14.7-14.7 18.9-31.2 26.2-2.7 1.2-6.8 1.8-10.9 1.8s-8.2-.6-10.9-1.8c-16.4-7.3-26.2-11.5-31.2-26.1-1.2-3.5-2.1-7.7-2.8-12.6-8-.6-10.4-5.7-10.4-12 0-10.1.5-22.5 6.4-23.1 5.6.9 4.8 4.3 5.4 5.4 1.1 2 1.2 16 1.2 16s-.6-2.2-.4-7.9c1.3-18.7.2-26.5.2-26.5" stroke="#b32" stroke-linejoin="round"/></g></g></g></svg>