<svg xmlns="http://www.w3.org/2000/svg" width="150" height="200" viewBox="0 0 39.7 52.9"><style><![CDATA[.E{stroke-linejoin:round}.F{stroke-linecap:round}]]></style><g transform="matrix(.265 0 0 .265 47.7 -90.6)"><g fill="none" class="E"><g class="F"><path d="m-59.2 452c17.9-24.2-1.8-49.6 14.5-59.7 9.4-6.5 8.4-13.4-1.7-9.5-26.6 9.5-9.9 44.5-17.1 54.2" stroke="#d71" stroke-width="4.8"/><path d="M-122 381c-8.9 7-17.2 6.7-25-.6m-.2-24.4c12.2 6.1 22.1 13.6 25.3 25m27.4-3.8c2.3 4.1 6.1 8.8 11.5 11.3m14.3-29.8c-9.6 4.9-23 4.5-25.9 18.5m-42.5 45.6c29.3 27 36.7 3.2 45.7-5m18.1 22.9c4.7 17.4-4.1 31.8-5.2 50.1m-37.9-1.6c-6.9-3.2-9.8-9.5-11.9-16.3" stroke="#339" stroke-width="2.7"/></g><g stroke="#b32"><g stroke-width="2.3" class="F"><path d="m-130 404c4.1 4.6 3.3 12.8 17.9 8.4"/><path d="m-120 406-10.2-1.1m20.7 21.4c-1-8-2.4-19.1-10.5-20.3m15.8 20.5-5.4-0.2m25.7-22c-7.7 4.2-19.8-6.8-20.3 22.3"/><path d="m-102 413c4.5-1.7 11.6 3.2 12.3-8m-18.8 24.3-1-3.7"/><path d="M-104 426l-4.2 3.5m-7.1 2.1l7-2m2.2 2c-.6-.7-1.5-1.3-2-2m9.7-16.9c-2.1-.9-1.1-2.6-1.4-4m7.2-3.5c1.5 1.5 3 3 2 5.6m-25.1-3.2c1.2 2.6 1 4.7-1 6.2m-7.6-8.5c-1.8 1.6-1.9 3.9-1.6 5.5"/></g><path d="M-94.9 408c0 .7-.6 1.3-1.3 1.3s-1.3-.6-1.3-1.3.6-1.3 1.3-1.3 1.3.5 1.3 1.3zm-24.3 0c0 .8-.6 1.4-1.4 1.4s-1.4-.6-1.4-1.4.6-1.4 1.4-1.4c.8.1 1.4.7 1.4 1.4z" stroke-width="2.3"/></g><path d="M-77.8 516c.7 3.5 2.8 8.4 1 9.9-1.5 1.3-3.1-.4-4.3-1.8.5 1.8-.3 3.3-1.2 3.8-1.2.7-3.9.7-5.5-2.7l-.7 1.8c-.5 1.5-2.2 2.4-3.7 2-6-1.6-7.8-5.2-9.1-9-1.2-3.7 1.6-6.7 2.8-9.9.5-6.8.6-13.5 0-20.3-6.1 1.9-12.2 1.7-18.3-.6 0 11.4 3.2 23.3-.2 34.2-1.8 4.3-5.1 5.9-8.1 5.2-1.7-.4-2.5-1.9-2.6-3.2-.4 4.6-3.3 4.4-5.6 4-2.4-1-3-3.1-1.6-8.2-1.2 3.1-2.5 4.1-4.4 3.6-2.5-1-2.3-3.9-2.1-7.6.1-2.1 1.1-4 2.7-5.2-.2-11 .2-22-2.6-33-14-38.2-2.5-59.2-11.4-67.6-4.4-4.1.3-22.6 5.3-30.8.2-8.6-3.3-19 .8-25.7 6.6 1.5 13.2 2.6 19.9 7.8 13.4-4.6 16.5-2.1 21.9-1.2 12.1-2.7 24.6-4.5 38.8-3l-7.4 9.3c-2.6 3.4-4.1 7.6-4.1 11.9 0 6.6-2.7 8.2-5.6 9.6 2.1 7.2.8 11.4-1.8 20.9 48.9 36.8 16.8 98 7 98.2z" stroke="#d71" stroke-width="4.8"/></g><path d="M-171 398s.9.2 2.4.4c.8.1 1.7.3 2.8.5.5.1 1.1.2 1.7.4.6.1 1.2.4 1.9.6l4.1 1.4 4.6 1.6 4.9 1.9 2.5 1 2.5 1.1 4.9 2.3 5.7 3.1 3 2.1 1.8 1.4c.6.4 1.1 1 1.6 1.4.5.5 1 .8 1.4 1.4.4.5.7 1 1.1 1.4l1.5 2.4 1 2.3s-.6-.7-1.5-2c-.5-.6-1.2-1.3-1.9-2-.4-.4-.8-.7-1.3-1.1-.2-.2-.4-.4-.7-.6-.2-.2-.5-.4-.7-.6-.5-.4-1-.9-1.6-1.3l-1.8-1.3c-.6-.5-1.3-.9-1.9-1.3-.3-.2-.7-.4-1-.7l-1.1-.6c-1.4-.9-2.9-1.7-4.5-2.5l-4.8-2.3-2.4-1.1-2.5-1c-1.6-.7-3.3-1.2-4.8-1.8l-4.6-1.6-4.1-1.3c-.6-.2-1.3-.3-1.8-.6-.6-.2-1.1-.5-1.6-.7l-2.6-1.1c-1.3-.8-2.2-1.2-2.2-1.2zm-1.9 15.3l2.3-.3 2.7-.3c.5 0 1.1-.1 1.7-.1h1.8l4.1.2 4.6.3 4.9.6 2.5.4c.8.1 1.7.3 2.5.5.8.1 1.7.3 2.5.5l2.5.6 2.4.7c.8.2 1.6.5 2.3.8.8.2 1.5.5 2.2.8l2.1.9 1.9.9 1.8 1c1.2.6 2.1 1.4 2.9 2.1l1.9 1.9 1.5 1.8-1.9-1.4-2.2-1.4c-.5-.2-.9-.5-1.4-.7-.3-.1-.5-.3-.7-.5s-.5-.3-.8-.5l-1.7-1-1.9-.9-2-.9c-.7-.3-1.4-.6-2.2-.8-.7-.2-1.5-.5-2.3-.8l-2.4-.7-2.4-.6-5-1-2.5-.4c-1.6-.3-3.3-.4-4.8-.6l-4.5-.3-4.1-.2h-1.8l-1.6-.2-2.7-.3zm1.9 14.1l2-.8c.6-.2 1.4-.5 2.3-.9.5-.2.9-.3 1.5-.5.5-.2 1.1-.2 1.7-.3l3.7-.7c1.3-.3 2.7-.5 4.2-.7l4.5-.6 4.7-.4 4.7-.2 4.6.2c.4 0 .7.1 1.1.1.4.1.7.1 1.1.2l2.1.4 2 .5 1.8.6c1.2.3 2.1.9 3 1.4.8.6 1.5 1 2.1 1.4l1.7 1.4-2-.8c-.6-.3-1.4-.5-2.3-.8-.4-.2-.9-.3-1.4-.4s-1-.4-1.5-.6-1.1-.3-1.7-.5l-1.9-.4c-.6-.2-1.3-.2-2-.3-.3-.1-.7-.1-1-.2-.4 0-.7-.1-1.1-.1-1.4-.2-2.9-.2-4.4-.2l-4.6.2-4.6.4-4.5.6-4.2.7-3.7.7c-.6.1-1.1.3-1.6.3s-1 .1-1.5.1l-2.5.2c-1.5-.1-2.3 0-2.3 0zm72.3-6.5l1.7-1.8 2.2-1.9c.9-.6 1.9-1.4 3.2-1.9l2-.9c.7-.2 1.4-.5 2.1-.8s1.5-.5 2.3-.7 1.6-.5 2.4-.6l2.5-.5 2.6-.4c.9-.2 1.8-.2 2.7-.3l2.7-.2 5.4-.2 5.2.2 4.9.4 4.3.6c.7.1 1.3.2 1.9.4l1.7.5c1.1.3 2 .6 2.7.9l2.3.8-2.5-.3c-.8-.1-1.7-.3-2.8-.3-.5 0-1.1-.1-1.7-.1s-1.2-.2-1.9-.3l-4.3-.6-4.8-.4-5.1-.2-5.3.2c-.9 0-1.8.2-2.6.2l-2.6.3-2.6.4-2.5.5-2.4.6c-.8.2-1.5.4-2.2.7s-1.4.5-2.1.7c-.6.3-1.3.6-1.9.8-.3.1-.6.3-.9.4-.3.2-.5.3-.8.4-.6.2-1.1.5-1.6.7l-2.4 1.3zm-.5 1.9l2.1-1.3c.7-.4 1.6-.7 2.6-1.2l1.7-.6c.6-.2 1.2-.3 1.9-.4l4.3-.6 2.4-.2 2.5-.1c.8-.1 1.7-.1 2.6-.1h2.6l5.4.3c1.8.1 3.6.4 5.3.6l5.1.9 4.7 1.2 2.2.6c.7.2 1.3.5 2 .7.6.3 1.3.4 1.8.7l1.5.9c1 .5 1.8 1 2.4 1.5l2 1.4-2.3-.9c-.7-.3-1.6-.6-2.6-.9l-3.4-1.2-1.9-.7-2.1-.6c-1.4-.5-3-.8-4.6-1.2l-5-.9-5.2-.6c-1.8-.2-3.5-.2-5.2-.3H-79l-4.9.2-2.3.2c-1.5.1-2.9.4-4.2.6-.7.1-1.2.3-1.8.4l-1.7.2-2.7.6zm0 1.8l2.3-.8 2.8-.7 1.7-.3c.6-.1 1.3 0 1.9-.1l4.3.2 2.4.2 2.4.3 2.5.4c.8.2 1.7.3 2.6.5l5.2 1.3c.9.3 1.7.5 2.6.7l2.5.8 4.8 1.8c.8.3 1.5.7 2.2 1l1.1.5 1 .6 2 1.1c.6.3 1.2.7 1.8 1.1s1.2.6 1.6 1c.5.4.9.8 1.3 1.2.8.7 1.5 1.4 2 2l1.6 1.9s-.8-.5-2-1.4c-.6-.5-1.4-.9-2.4-1.5l-3.1-1.8c-.6-.3-1.1-.7-1.7-1.1l-1.9-1a4.67 4.67 0 0 0-1-.5c-.3-.2-.7-.3-1.1-.5l-2.2-1-2.3-.9-2.4-.9-2.5-.8c-.8-.3-1.7-.5-2.5-.7l-5.1-1.3-2.5-.5c-.8-.2-1.6-.3-2.5-.4l-2.4-.3-2.3-.2c-1.5-.2-2.9-.1-4.2-.2-.7 0-1.3.1-1.9 0-.6 0-1.2-.1-1.7-.1h-2.8z" fill="#084"/></g></svg>