<svg xmlns="http://www.w3.org/2000/svg" width="150" height="200" viewBox="0 0 39.7 52.9"><g transform="matrix(.265 0 0 .265 47.2 -91.2)"><path d="m-126 396c0 2.9-2.4 5.2-5.3 5.2s-5.3-2.3-5.3-5.2 2.4-5.2 5.3-5.2 5.3 2.3 5.3 5.2z" fill="#b32"/><path d="m-51.1 486c3.9 1.8 17.6 9.3 12 22" fill="none" stroke="#084" stroke-linecap="round" stroke-linejoin="round" stroke-width="4.2"/><g fill="#084"><path d="M-160 487l1.3 1.3c.8.9 2.1 2 3.7 3.5l6.1 5a96.1 96.1 0 0 0 8.5 5.7c3.2 1.9 6.8 3.8 10.7 5.6 3.9 1.7 8.1 3.4 12.6 4.8 8.9 2.9 18.7 4.9 28.6 5.7 4.9.4 9.9.5 14.7.3 4.8-.3 9.6-.8 14-1.7 4.5-.9 8.6-2.1 12.2-3.8s6.4-4.1 7.5-6.9.4-5.9-.9-8.5c-1.2-2.6-2.9-4.6-4.3-6.3-.4-.4-.7-.8-1-1.2s-.6-.7-.9-1c-.6-.6-1.1-1.1-1.5-1.6l-1.3-1.3c-.1-.1-.1-.3 0-.4s.2-.1.3 0a29 29 0 0 0 1.5 1c.5.3 1.1.7 1.8 1.3.4.3.7.5 1.1.8s.8.7 1.2 1c1.7 1.5 3.8 3.4 5.6 6.1.9 1.4 1.7 3 2.2 4.9s.6 4.2 0 6.4-1.9 4.3-3.5 5.9c-1.6 1.7-3.6 3-5.6 4.2-4.1 2.3-8.8 3.7-13.6 4.7-4.8.9-9.9 1.3-14.9 1.3-5.1 0-10.2-.3-15.3-1-10.2-1.3-20.2-3.7-29.1-7-4.5-1.7-8.7-3.5-12.6-5.5s-7.5-4.1-10.7-6.2a91.9 91.9 0 0 1-8.4-6.2c-2.4-2-4.4-3.8-5.9-5.4-1.6-1.6-2.8-2.8-3.5-3.7-.8-.9-1.2-1.4-1.2-1.4-.1-.1-.1-.3 0-.4.4-.1.5-.1.6 0zm32.8-73.4s.3-.1.7-.4c.5-.3 1.2-.6 2-1 1.7-.8 4-1.7 6.5-2 2.4-.4 4.9-.3 6.7-.2l2.2.2a4.53 4.53 0 0 0 .8.1h-.8c-.5 0-1.3 0-2.2-.1-1.8 0-4.3.1-6.6.7-2.3.5-4.5 1.6-6.1 2.4-.8.4-1.4.8-1.8 1.1l-.7.5a.78.78 0 0 1-1-.2c-.2-.3-.1-.8.3-1.1z"/><path d="M-128 414s.3-.1.8-.2l2.2-.4 3.2-.2h1.8c.6 0 1.2.1 1.9.2.6.1 1.2.2 1.8.4.6.1 1.2.3 1.7.5l1.5.6c.5.2.9.5 1.3.7s.8.5 1.1.7.6.4.8.6l.7.5-.7-.5c-.2-.1-.5-.3-.8-.5s-.7-.4-1.1-.6-.9-.4-1.4-.6-1-.3-1.6-.5c-.6-.1-1.1-.3-1.7-.4s-1.2-.2-1.8-.2-1.2-.1-1.8 0c-.6 0-1.2.1-1.7.1a20.8 20.8 0 0 0-3 .5l-2.1.5-.8.2c-.4.1-.9-.1-1-.6 0-.2.2-.6.7-.8h0z"/><path d="M-127 414s.3 0 .9-.1h1.2c.4.1.9.1 1.4.2s1.1.2 1.6.4l1.7.6c.6.3 1.2.5 1.8.9.6.3 1.2.7 1.7 1l1.6 1.2 1.5 1.3c.5.4.9.9 1.3 1.3s.7.9 1 1.3.5.8.8 1.1c.2.3.4.7.5.9.3.5.4.8.4.8l-.5-.8c-.2-.2-.3-.5-.6-.9-.3-.3-.5-.7-.8-1.1s-.7-.8-1.1-1.2l-1.3-1.2-1.5-1.1c-.5-.4-1.1-.7-1.6-1l-1.7-.9c-.6-.3-1.2-.5-1.7-.7-.6-.2-1.1-.4-1.7-.5l-1.5-.3c-.5-.1-.9-.1-1.3-.1h-.9c-.6.1-.9.1-.9.1-.5.1-.9-.3-1-.7-.2 0 .2-.5.7-.5-.1 0 0 0 0 0z"/></g><path d="M-37.7 438c-.3-2-1.2-8.6-2.6-13.1-.8-2.7-1.8-5.7-3.4-8.1-1.6-2.3-3.1-4.5-4.7-6.6-1.6-2-3.3-3.9-5.1-5.6s-3.8-3.1-6-4.4l-10.7-3.1a22.6 22.6 0 0 0-5.2 0c-1.7.2-3.5.3-5.3.4-1.8 0-3.6.2-5.3.4-1 .1-2.1.6-3.3 1.2-1.5.7-3.2.6-4.6-.3l-3.5-2.2 3.6-3.2c1.1-1 1.9-2.2 2.3-3.6l.1-.3c.6-2 .4-4.1-.6-6-.2-.4-.4-.7-.6-1.1-.7-1.4-3.9-6.2-9.8-5.9l-1.9.3-.3-3.8c-.1-1-.5-2.5-1-3.4-1.2-2-3.1-3.4-5.3-4l-.5-.1c-.8-.2-1.6-.3-2.4-.2-.6.1-1.3.2-1.9.5-1.2.4-2.3.8-3.4 1.1-1.2.4-2.3.8-3.4 1.1-1.3.8-2.5 1.5-3.7 2.2s-2.1 1.5-2.8 2.6-1.4 2.2-2 3.5c-2.6.1-5.2.4-7.6.8-2.5.4-4.9 1.5-7.2 3.3s-4.7 3-7.1 3.7-4.9 1.9-7.4 3.4c-1.3.8-2.5 1.6-3.7 2.6-1.7 1.4-4.2 5.2-4.2 6l-1.3 1.5c-1.9 2.4-1.7 3.8-.5 7.3 0 0 1.4 3.2 2.5 4.6 1.1 1.5 1.9 2.3 3.3 3.4.9.3 3.3 2.1 3.3 2.1 1.2.4 6.2.7 7 1.5s2.1 1.8 3.1 2.3c1 .4 7.6 3.8 19.3 6.2l3.3-.2c-2.7 2.1-5.8 7.9-.8 15.6l-.4.5c-2.1 3.4-3.7 4.4-5.1 8.1l-2.2 14.6c-.6 1.2-1.8 2.6-3.2 3.2-.5.2-3.9 2.9-3.3 3.6 0 0 .5.6 1 .7 1.4.2 2.9-.1 4.1-.9l2.9-1.9c3.7-2.1 2.2-16.4 6.9-24.3l.8-1.6 1.4 1.7c2.3 2.8 3 6.5 1.9 9.9l-2.6 17.6c-.6 1.3-2 2.4-2 2.4-1.2.9-4.3 1.8-4.5 3.3-.2 1.2.6 1.1 1.3 1.3 1 .3 2.1-.5 4.8-1.9 2.9-1.5 3.4-2.8 3.2-3.7l1.7-8.5c.3-2.7 1.7-10.4 2.7-13v-.1c.3.5.5.8.6 1 1.6 1.7 4.1 4.3 5.4 5.4 3.9 4 7.4 7.3 9.3 9.2s4.2 4.1 6.2 5.7c1.8 1.5 4 3.1 6.1 4.4-1.6 1.5-5.2 7.5-5.3 8.8l-3.3 1.1c-2 .3-4.9 1.4-3.9 2.1 1.7 1.9 5.7 1.6 6.9 2.3 2 .2 2.1.9 3.6-.9.4.5-.1 2.2.8 2.3l1.4.7 4.3 1.3.6-.1c1.4-.2 2.7-1 3.6-2.1l1.1-1.5c.5-.6.8-1.4 1-2.2l.6-3 .9-2.6 9.2 1.2c2.8.4 5.6.9 8.4 1.7l3.1.7c.9.2 3.4 1.1 5.4 1 2.3.1 3.7 1.1 3.7 1.1.2-1.9-.1-2.8 2-3.3.2-1.9 2.9-6.1 5.3-13.4l1.4-3.8c1.2-3.4 2.2-6.9 2.9-10.4 0-.2 2-11.3.6-20.1zm-82.6-68.7c5.3-2.9 10.3-2.2 11.6 1.4 1 2.5 2.3 6.1-2.4 8.6-1.1.6-1.9 1.5-2.7 2.4l-2.8 3-.5-1.9c-1.1-4-4.9-6.4-6.3-6.6l-3.9-.5c3-4.3 5.8-5.8 7-6.4zm34.1 120l-.6.7c-1.6 1.1-4.8.3-6.9-.4.1-.6 3.8-9.5 4.2-11.3 2.2 1.2 4.1 2.6 6.4 3.5zm43.1-27.8c-1.6 7-4.3 16.1-10.5 23.3l-4.7-1.2-5.9-.9s-12.3-1.3-15.3-2.3l-4.3-1.6c-2.3-1-5.6-2.2-7.4-3.8-1.2-1-3.3-2.3-4.4-3.3-2.3-1.8-4.4-3.2-6.4-5.4-1.5-1.7-4.8-4.5-6.2-6.4-1.1-1-3.4-3.3-4.9-4.8-2.3-1.6-4.9-6.4-6.9-8.4-.1 0-.1 0-.2-.1-.3-.4-.6-.9-1.1-1.5-1.2-1.6-2.4-3.1-3.6-4.4-1.3-1.3-2.3-3-3.1-5-.4-1-.8-1.9-.9-2.8-.6-4.4 1.2-5.2 1.2-5.2 1.3-.9 2.5-1.5 3-2.9.1-1-.5-1.9-1.4-2.2-1.3-.4-3.3-.1-5.4-.3 0 0-2.2-.2-4.8-1l-6.8-2.2 3.8-1.4s5.7.7 7.3-.3c0 0 .9-.1.9-1.1 0-.7-.6-1.4-1.3-1.6-1.4-.4-4.3-1.2-6.6-1.7l-2.3-.8c-3.7-1.8-5.3-2.7-5.3-2.7-1.5-1-3.4-2.4-4.6-1.6 0 0-.9 1.5 1 3.6.7.8 4.4 3.6 4.6 4.6l-.3 1.9-6.2-4.1a7.89 7.89 0 0 0-3-1.2l-1.1-.2c-1.3-.4-2.4-1-3.4-1.7-1-.8-2-1.6-3-2.3-.7-.5-1.4-1.1-2.1-1.7-.6-.7-1.3-1.4-1.9-2.1l-.9-1.4c-1.5-2-1.3-5.2.4-7.1l3.2-3.6c3.2-2.5 6.4-4.3 9.6-5.6 3.2-1.2 6.5-2.8 9.8-4.8s6.6-3 10-3.1c3-.1 6.5-.3 9.7-.1.7.1 1.4.3 2 .7l.9.6c.8.5 1.3 1.4 1.3 2.4-.1 1.1.2 2.3.6 3.3l.2.4c.4.8 1.2 1.4 2.1 1.4 1.6.1 3.1-.6 3.9-1.9 0 0 4.9-6 10.9-7.7l1.1-.1c5.2.4 8 5.2 6 9.8 0 0-.9 3.8-5.1 5.3-1.5.5-3.4 1.8-3.4 1.8-1.3 1-3.4 2-1.8 3.3 1.1 1.4 4.7-.5 5.7-1.2l2.8 3.9c1.8 2.1 4.5 1.9 6.5 1.6s6-1.7 10.5-2.8c3.3-.8 6.4-.9 10-.3l5.5 1.3c6.1 1.9 10.7 6.3 11.6 7.4 4.1 4.4 6.4 8.1 7.9 11.4 1.2 2.3 3.9 9.8 4.6 18.1 1.1 12.4-2.1 23.8-2.1 23.8z" fill="#339" stroke="#339" stroke-miterlimit="10" stroke-width=".5"/></g></svg>