<svg xmlns="http://www.w3.org/2000/svg" width="150" height="200" viewBox="0 0 39.7 52.9"><g transform="matrix(.265 0 0 .265 47.4 -90.7)"><path d="M-65.4 356l1.8 2.23c.4.43.89 1.27 1.36 2.33l.73 1.78c-.01.06-.14-.03-.3-.18-.18-.18-.42-.26-.62-.23-.25.05-.73-.26-1.85-1.23-1.82-1.56-3.49-2.69-5.27-3.58-1.19-.6-4.01-1.77-4.3-1.8-.21-.02 1.9 4.63 2.5 5.51.77 1.13 1.57 2.9 1.48 3.26-.07.26-.17.23-.99-.46-1.8-1.48-3.96-2.55-6.14-3.02-2.09-.45-5.76-.33-7.34.25-.68.24-1.29.69-1.31.94-.06.7 4.96 4.2 7.21 5.03.63.25.89.53.41.49-.47-.04-5.71 1.14-6.94 1.56-2.09.71-5.84 3.18-5.9 3.88-.03.37.46.67 2.33 1.43 1.06.42 4.12.7 6.41.56l1.52-.05c.03.03-.97.4-2.21.84-1.23.44-2.86 1.14-3.62 1.57-1.64.94-3.66 2.56-4.05 3.24-.62 1.11-.24 1.94 1.16 2.43.9.33 3.89.59 5.37.46 2.42-.22 5.45-.97 6.67-1.65.38-.22.38-.21.2.15-.45.85-1.31 2.01-3.06 4.06-5.4 6.41-8.18 10.7-9.56 14.6-1.05 3.04-1.27 4.21-1.69 8.97-.34 4.05-.37 4.76-.19 6.38.37 3.39 1.28 6.64 2.96 10.5l1.09 2.52-.54.62c-1.55 1.78-3.71 3.51-8.41 6.75-4.25 2.92-8.09 5.88-10.1 7.76-.69.65-1.33 1.18-1.4 1.21-.37.09-2.41-6.79-2.59-8.74-.24-2.32.62-10.1 2.27-20.9.54-3.51 1.02-10.4.89-12.9-.58-11.6-4.35-21.2-10.7-27-7.44-6.84-15.2-8.51-24.1-5.2-3.41 1.26-6.01 2.75-9.31 5.33-4.19 3.26-8.26 7.86-10.9 12.3-2.5 4.21-4.19 9.7-5.83 18.8-.25 1.38-.68 5.66-1.29 12.7l-.91 10.6-1.28 3.19c-2.13 5.3-2.45 6.33-1.97 6.37.29.02 1.07-.6 2.43-1.99 1.44-1.47 5.04-6.93 6.15-9.34 1.35-2.94 2.02-5.63 2.84-11.4 1.49-10.6 3.68-20.4 5.8-26 1.83-4.83 5.27-9.87 9.56-14 2.7-2.6 4.42-3.61 7.22-4.22 5.52-1.2 13.2.9 19 5.17 2.78 2.06 3.76 3.32 5.33 6.96 2.09 4.82 3.71 12.2 4.3 19.8.3 3.64.29 4.33-.06 8.05-.39 4.18-.96 7.7-2.36 14.6-1.12 5.49-1.31 7.19-.94 8.85.67 3.14 1.2 4.14 4.42 8.28l1.54 2-.85 1.07c-2.01 2.6-2.99 4.61-3.54 7.32-.22 1.07-.56 2.42-.74 2.99-.17.59-.29 1.07-.24 1.08.03 0 .85-.5 1.78-1.13 1.49-.99 1.74-1.22 2.06-1.89 1.07-2.35 3.47-5.83 5.95-8.71 3.07-3.52 6-6.14 13.1-11.7 5.27-4.13 6.73-5.48 7.14-6.59.54-1.46.33-4.46-.68-10-1.2-6.56-1.38-8.23-1.17-10.6.41-4.59 1.56-7.82 5.13-14.4 1.36-2.49 2.43-4.16 4.8-7.5.82-1.15 1.33-2.06 1.57-2.79.62-1.84.42-3.64-.42-3.92-.29-.1-.26-.17.37-1.05.71-.96 2.07-3.42 2.31-4.17l.14-.43 1.25.12c1 .1 1.38.07 1.96-.13 1.35-.53 2.65-2.11 2.93-3.56.09-.49.18-.89.19-.89s.52.24 1.11.55c1.22.6 2.46.81 2.82.47.21-.21.24-.82.05-1.5-.05-.17.12.09.38.56.24.47.97 1.44 1.59 2.12 1.4 1.53 3 2.51 4.41 2.66l.86.09-1.19 1.03c-1.56 1.33-1.82 1.77-2.03 3.14-.22 1.38 0 2.24.64 2.61.25.14.48.28.51.31.05.02-.1.17-.29.35-1.08.9-1.08 1.5-.05 2.62.82.85.82.85.31.73a8.28 8.28 0 0 1-.7-.2c-.24-.1-.3.08-.76 1.74-.55 2-.93 3.7-1.02 4.52-.05.4-.15.73-.21.72-.11-.01-.32-2.47-.39-4.7-.03-1.51-.27-2.87-.61-3.44-.24-.4-1.37-1-1.72-.91-.33.09-1.65 2.24-1.99 3.23-.38 1.19-1.37 7.19-1.57 9.5-.19 2.29-.06 3.29.54 4.61.67 1.47 1.9 2.41 3.77 2.85 1.66.4 2.74-.1 3.44-1.56.4-.85.39-.86.55.98.29 3.2 1.5 7.76 2.98 11.2.96 2.25.98 2.27 2.82 4.32a112 112 0 0 0 4.23 4.31c3.48 3.35 5.25 5.69 6.47 8.58 2.1 4.94 2.09 8.96-.01 13.2-1.19 2.38-3.18 4.91-5.96 7.58-1.27 1.22-2.5 2.27-7.35 6.38-3.34 2.82-5.58 5.05-7.13 7.12-.72.93-1.85 2.82-1.82 3.01.01.06-.17.47-.39.93-.24.45-.6 1.39-.79 2.12-.42 1.47-.62 1.65-1.63 1.56-1.31-.11-3.15.3-6.1 1.36-2.65.96-3.06 1.17-4.18 2.04-1.23.95-2.36 2.33-3.35 4.02-.67 1.15-1.42 2.89-1.24 2.91.32.03 3.21-.84 4.1-1.25 1.74-.77 7.67-4.3 11.4-6.74.26-.17.29-.17.21 0-.06.12-.9 2.44-1.86 5.17-3.19 8.96-4.66 12.2-6.84 15.3-1.57 2.19-1.97 2.29-3.29.82-1.01-1.11-1.23-1.82-1.44-4.44-.26-3.35-.37-4.19-.64-4.8-.38-.86-1.02-1.61-2-2.37-.83-.61-.86-.68-.71-1.18.47-1.75 1.33-9.13 1.08-9.3-.22-.15-2.83 6.19-5.1 12.4-.66 1.78-1.52 3.88-1.9 4.66-.65 1.27-4.05 6.58-4.49 6.98-.27.25-1.08.15-1.97-.23-.68-.3-.8-.43-1.16-1.24-.22-.52-.68-1.97-1-3.26-.78-3.02-1.57-4.82-2.77-6.35-1.35-1.71-1.55-2.09-2.24-4.26-.33-1.07-.67-2.06-.74-2.22-.11-.25-.31-.15-1.62.81-.8.59-2.25 1.6-3.2 2.23-1.94 1.29-2 1.37-1.59 3.06.45 1.8 1.59 3.09 5.14 5.83 1.07.81 2.14 1.72 2.37 2.02.5.63.82 1.85.73 2.83-.05.58 0 .77.32 1.02.38.29.39.42.41 2.99.02 3.13.25 2.76-2.13 3.61-2.31.81-4.3 1.11-5.96.89-1.15-.16-1.53-.28-2.53-.83-1.34-.76-1.46-.89-2.71-3.35-.91-1.75-2.49-3.86-2.73-3.67-.25.19-.73 1.82-.82 2.78-.1 1.09.19 2.98.6 3.91.26.55 1.78 2.19 3.02 3.19.69.57 2.6 1.65 3.55 2.02.41.16 1.41.38 2.19.5 1.87.27 2.93.11 5.73-.82 1.18-.4 2.2-.72 2.29-.71.16.01.1 3.17-.12 5.56-.08.91-.19 1.37-.4 1.59-.4.43-5.8 2.8-7.34 3.2-1.49.4-2.78 1-3.54 1.64-.97.84-2.44 2.47-2.34 2.65.06.1.49.01 1.13-.22 1.82-.67 3.17-.95 4.94-.99 1.56-.05 2.01-.15 4.66-.96 3.78-1.15 4.52-1.26 7.09-.93 1.1.14 2.03.29 2.08.36.04.05-.11.28-.32.51-.23.24-.37.47-.32.53.06.05.51-.05 1.03-.23 1.13-.4 1.23-.39 2.79.21 2.21.85 6.63 4.54 8.96 7.5.82 1.03 1.32 1.56 1.44 1.46.09-.07.2-.77.22-1.61.06-1.26.01-1.61-.35-2.51-.23-.56-.59-1.3-.79-1.63-.36-.59-3.35-3.73-4.22-4.43l-.44-.37.5-.14c.38-.1.61-.07 1.13.16 1.21.54 1.76.6 2.54.31 1.01-.38 1.62-.21 3.89 1.08 2.09 1.17 3.19 2 5.03 3.77.65.63 1.21 1.11 1.24 1.08.14-.09-.19-2.68-.43-3.45-.29-.94-.85-2.02-1.21-2.39-.17-.15-.88-.63-1.61-1.07s-1.19-.79-1.04-.78c.55.05 3.42.86 4.43 1.28 1.34.54 2.01.98 4.15 2.76 2.34 1.96 3.5 3.1 4.94 4.91 1.13 1.42 1.21 1.47 1.34 1.12.08-.22.15-.95.18-1.64.04-1.14-.02-1.42-.58-2.71-.58-1.36-.76-1.59-2.63-3.51-1.93-1.99-2.77-2.63-4.79-3.69l-.78-.41.89.14c.57.08 1.56.45 2.72.99 2.09.98 2.88 1.12 3.78.71.8-.37 1.25-.23 3.81 1.24 2.04 1.17 3.17 2.05 5.17 3.97.45.45.86.78.9.75.11-.08-.15-2.39-.37-3.24-.25-1.02-.93-2.2-1.53-2.69-.85-.71-7.11-4.28-9.17-5.22-1.93-.9-5.74-2.37-7.54-2.92-1.19-.36-2.06-.94-2.51-1.69-.77-1.3-.77-1.3-.2-6.28.48-4.36.54-4.62.85-4.82.95-.58 3.65-3.8 4.9-5.83 1.79-2.89 3.3-8.08 4.7-16l.21-1.22 1.34-.23c4.46-.75 9.42-3.17 14.4-7.02 3.49-2.7 5.17-4.65 7.05-8.21.98-1.89 1.32-2.94 1.49-4.8.13-1.51.1-4.13-.07-5.64l-.12-1.06.82-1.32c3.67-5.8 3.34-11.9-1.05-19.2-1.98-3.3-6.2-8.28-10.3-12.1-2.31-2.17-3.46-3.97-5.44-8.55-1.25-2.89-3.09-8.3-3.04-8.9.03-.34.15-.24 1.07.89.56.71 1.32 1.54 1.67 1.86.62.55 1.95 1.4 2.06 1.3.02-.03.49-.58 1.06-1.23 3.38-4.03 4.6-7.66 3.37-10.1-.41-.77-1.81-2.11-3.03-2.89-.47-.28-.84-.54-.84-.54 0-.01 3.66 1.47 5.53 1.66 2.14.21 7.34.38 7.35.27.01-.07-3.57-3.18-3.99-3.58-.44-.4-2.46-1.67-3.65-2.44-2.78-1.67-7.36-1.58-7.36-1.62s4.94-1.79 8.78-5l4.07-3.93-4.66-.81c-1.36-.39-4.25.04-6.01.86l-.67.32.35-.41c1.4-1.64 1.84-3.43 1.2-4.88-.15-.33-1.01-1.47-1.92-2.54-3-3.58-7.12-7.34-9.47-8.64-1.29-.73-4.31-2.1-4.67-2.13-.1-.02.36.68.99 1.54zm26.3 95.2c-.18.8-.45 1.72-.57 2.06-.77 2.04-3.01 5.56-5.07 7.96-2.29 2.67-6.08 5.38-13.2 9.42-1.2.68-3.57 1.87-3.57 1.87l-.37-2.42c-.07-.53-.2-1.1-.28-1.29-.22-.46 3.99-1.86 10.3-6.77 5.16-3.99 9.54-8.07 12-11.2.53-.66.99-1.18 1-1.16.03.03-.11.7-.31 1.49zm-63 33.8c.36 1.69.6 2.23 1.59 3.45 1.19 1.47 2.19 3.51 3.04 6.25.18.56.52 1.29.79 1.65.25.35.31.52.16.39-.87-.71-1.62-1.48-4.27-4.34l-4.25-4.46c-1.23-1.23-1.32-1.36-1.19-1.76.24-.7.73-1.08 2.23-1.8.77-.36 1.46-.66 1.53-.65.06.01.23.58.37 1.27zm21 2.7c.57.97.92 1.8 1.03 2.39.19 1.02.27 3.64.16 4.82l-.08.76-.37-1.22c-.42-1.35-1.26-3.16-2.07-4.48l-.53-.87.3-1.03c.18-.57.34-1.25.38-1.52.02-.27.11-.46.17-.41.08.05.52.75 1.01 1.56zm-1.35 7.08c.39 1.31.83 2.49.96 2.61.15.12.53.27.85.34l.58.14.03 1.91c.03 3.03.07 2.9-.97 3.35-1.29.58-2.6.97-4.35 1.27-2.11.36-3.68.17-5.22-.67l-1.08-.59.2-.99c.1-.53.21-1.25.24-1.58.07-.57.1-.61 1.1-1.04 2.55-1.08 4.99-4.14 6.23-7.8l.29-.86.21.76zm2.83 17.1c-.25 2.96-.2 2.87-1.29 3.37l-.56.27-1.57-.68c-1.92-.8-4.12-1.62-5.95-2.21-1.64-.53-2.29-1.05-2.79-2.23-.29-.64-.33-1.02-.26-1.89l.1-1.08.75.41c1.32.73 2.55 1.09 4.09 1.24 1.69.14 2.85-.03 4.62-.68a66.3 66.3 0 0 1 2.12-.71l.92-.25.02.85c0 .49-.09 2.1-.2 3.59z" fill="#b32"/><path d="M-134 377c-6.83 4.22-12.3 10.1-15.6 16.8-1.03 2.1-2.58 6.1-3.16 8.24-.96 3.5-1.84 8.65-2.24 13.1-.56 6.17-2.45 13.1-5.31 19.4-1.2 2.64-1.97 4.18-2.75 5.47-.67 1.1-.64 1.11.88.44 1-.46 1.46-1 1.97-2.36.19-.53.7-1.61 1.11-2.42 1.32-2.49 1.71-3.81 4.26-14.2 2.25-9.16 3.01-11.6 5-15.7 1.69-3.58 3.51-6.45 5.91-9.4 1.47-1.8 2.9-3.01 4.74-4.05 2.1-1.19 5.87-2.42 5.82-1.91-.01.15-1.83 2.4-4.32 5.38-.48.58-1.78 2.06-2.89 3.29-1.23 1.37-2.56 3.06-3.46 4.42-1.36 2.04-4.03 6.82-4.99 8.91-1.26 2.75-3.39 11.2-6.04 24-1.04 4.96-1.56 6.88-2.72 10.1-.93 2.59-1.93 4.79-2.95 6.61-.37.63-.66 1.16-.66 1.19-.01.07 2.45-1.43 3.16-1.94 1.38-1 2.32-2.77 3.47-6.57 1.84-6.05 3.13-10.6 4.19-15.1 2.84-11.8 4.5-16.5 7.5-21.1 1.47-2.25 2.84-3.9 4.77-5.72 1.21-1.16 3.9-3.1 4.24-3.07.28.02-.19 1.25-.89 2.32l-3.26 4.86c-3.44 5.13-6.04 9.97-7.44 13.9-1.39 3.95-2.03 7.49-3.12 17-.85 7.62-1.88 14.4-3.47 23.4-.28 1.54-.46 2.84-.42 2.9.28.31 2.6-2.05 3.18-3.24.7-1.43 1.07-4.02 1.18-8.05.18-5.96 1.04-16.4 1.62-19.4 1.05-5.44 2.48-8.67 5.69-12.8a34.2 34.2 0 0 0 4.86-8.36l.87-2.03c.14-.33.47.46.71 1.82.44 2.28-.06 4.8-1.99 10.1-1.26 3.52-2.33 6.2-3.63 9.1-.67 1.51-1.47 3.47-1.77 4.37-2.08 6.12-2.83 13.7-2.31 23.4.13 2.42.69 8.51.79 8.62.06.07 1.03-.74 1.89-1.57.72-.71 1.47-1.86 2.06-3.15.25-.57.52-1.04.58-1.03.19.02.21 1.33.07 2.91-.17 1.76-.76 3.43-1.97 5.6-1.07 1.91-1.78 2.77-3.4 4.06-1.32 1.05-3.33 2.32-3.44 2.18-.03-.03-.14-1.41-.22-3.06-.21-3.68-.12-6.44.32-8.65.18-.93.3-1.72.27-1.75-.01-.03-.69.75-1.48 1.74-2.46 3.06-3.54 4.03-5.18 4.62-1.35.49-3.23.72-3.63.43-.11-.08-.14-1.56-.07-4.4.12-5.09.6-9.77 1.13-11.1.19-.47.32-.88.31-.91-.03-.02-.65.52-1.38 1.22-3.42 3.22-5.21 4.27-8.19 4.8-1.06.2-2.56.29-2.55.19 0-.03.58-.88 1.31-1.91 3.78-5.37 4.79-7.41 5.84-11.7.67-2.76.82-3.71.57-3.66-2.25.5-3.38.54-4.17.19-.39-.18-.53-.12-1.63.67-1.49 1.09-2.62 1.37-5.15 1.26l-1.68-.05 1.1-1.02c3.36-3.09 7.47-8.37 8.74-11.2 1.88-4.25 3.55-11.2 5.57-23.1 1.88-11.2 1.88-11.2 2.87-13.8.9-2.42 1.78-4.11 3.52-6.78 2.12-3.25 4.46-5.85 7.23-8.03 2.95-2.29 6.42-4.05 9.42-4.71 1.25-.29 1.47-.24.83.16z" fill="#084"/><path d="M-129 417c.68.42.84 1.38.72 4.46-.34 9.38-1.09 12.8-3.85 17.3-2.81 4.65-3.23 7.13-2.37 14.1.93 7.41 1.03 11.7.42 17.1-.54 4.86-1.23 7.06-3.03 9.86-.72 1.11-1.32 1.83-2.03 2.42-.55.47-1.02.82-1.05.78-.05-.03.14-.7.37-1.46 2.67-8.36 3.4-17.1 2.15-24.9-.2-1.22-.42-2.42-.5-2.65l-.14-.43-1.04 1.01c-.57.55-1.31 1.18-1.64 1.4-.61.4-2.33 1.04-2.45.89-.12-.13.99-2.48 1.64-3.43a11.7 11.7 0 0 0 .96-1.8c.4-1.03.63-3.26.5-4.78-.21-2.49.37-6.02 1.98-12.2 1.29-4.98 3.05-9.33 5.65-14 1.3-2.3 2.1-3.4 2.69-3.61.54-.2.62-.19 1.02.05z" fill="#339"/><path d="M-72.4 436c2.28.78 4.65 2.64 5.87 4.64 4.2 6.88 1.71 15.7-6.78 23.8-2.45 2.37-7 5.77-10.3 7.71-.66.4-1.77 1.11-2.43 1.6-1.55 1.1-3.33 2.03-5.58 2.88-2.78 1.07-7.29 2.19-7.67 1.94-.08-.05-.55.3-1.05.77-2.28 2.12-10.5 7.69-10.8 7.31-.03-.03.78-.88 1.8-1.86 2.81-2.71 5.77-5.77 7.59-7.88 2.33-2.68 7.05-9.29 12.1-16.9 1.81-2.75 3.83-5.2 6.57-8.01 1.89-1.95 7.93-6.9 8.12-6.67.06.05-.64 1-1.54 2.11-3.38 4.21-6.44 8.32-10.4 14-3.32 4.79-6.69 9.29-12.1 16.3l-.39.48 1.09-.55c4.52-2.3 11.1-6.54 14.3-9.27 4.22-3.54 8.65-8.37 11.1-12 3.51-5.36 4.61-9.98 3.19-13.5-.68-1.73-1.21-2.17-5.97-4.89l-4.26-2.44.66-.08a27.3 27.3 0 0 1 1.48-.13c1.2-.1 4.38.3 5.49.67zm-50.8-4.26c.09.1-.27 1.57-.96 3.88-3.17 10.7-3.82 15-3.12 20.6.4 3.24.46 5.14.27 8.38-.28 4.87-1.13 8.5-2.82 12.2-1.11 2.38-3.55 5.93-4.31 6.29-.22.1-.29.34.75-2.81 2.17-6.59 2.95-9.72 3.41-13.4.44-3.7.41-5.24-.21-10-.27-1.98-.49-4.44-.51-5.46-.1-5.96 2.51-13.2 6.71-18.8.4-.57.72-.84.79-.76z" fill="#084"/><path d="M-87.7 450c.11.1-1.42 2.02-4.84 6.11-3.84 4.57-5.07 6.19-6.72 8.73-1.63 2.51-2.95 5.06-4.08 7.86-1.97 4.92-3.87 8.3-6.74 11.9-3.07 3.89-7.45 8.07-11.2 10.7-1.65 1.15-2.18 1.37-2.13.86.02-.25.54-.95 5.28-7.18 2.57-3.36 6.54-9.31 8.1-12.1.6-1.11 1.77-3.34 2.58-4.98 1.79-3.61 2.45-4.78 4.31-7.52 1.66-2.46 4.25-5.54 6.53-7.74 1.88-1.81 5.62-4.73 7.51-5.88.74-.46 1.4-.8 1.42-.75z" fill="#339"/><path d="M-97.4 455c0 .04-.53.48-1.16.95-2.56 1.94-6.04 5.61-8.45 8.9-2.23 3.06-3.11 4.63-6.87 12.4l-3.7 7.51c-1.47 2.74-3.95 6.44-5.73 8.49-2.84 3.28-8.36 8.4-8.51 7.89-.07-.26 1.24-3.36 2.28-5.29 1-1.92 2.4-4.27 5.11-8.66 3.05-4.92 3.22-5.22 3.09-5.23-.06-.01-1.51 1.03-3.24 2.28-4.88 3.6-6.26 4.48-8.36 5.24-1.47.52-2.58.56-2.62.08-.02-.32 3.14-4.81 7.46-10.6 1.35-1.81 3.13-4.36 3.96-5.66 3.97-6.23 5.47-8.43 6.48-9.48 1.91-1.99 7.12-5.3 7.57-4.81.17.16-1.65 3.28-3.35 5.78-1.73 2.53-2.91 4.07-6.24 8.14-2.95 3.6-3.99 4.99-5.54 7.4-.76 1.19-1.57 2.38-1.8 2.65l-.42.49.85-.36c3.04-1.31 5.71-3.08 7.24-4.79.4-.46 1.62-2.42 2.82-4.58 4.97-8.9 7.58-12.9 10.1-15.5 1.13-1.15 2.43-1.96 4.24-2.67 1.44-.55 2.21-.73 3.37-.77 1.04-.01 1.39.02 1.38.13z" fill="#084"/><g fill="#339"><path d="M-114 458c-.01.06-1.46 1.77-3.23 3.84-3.42 3.92-4.27 5.09-5.63 7.62-1.12 2.09-2.48 4.05-3.6 5.23-.68.69-.95.9-.98.7-.02-.14.56-1.55 1.29-3.13l2.81-6.64c.36-.96.96-2.22 1.34-2.79 1.26-1.92 3.86-3.71 6.75-4.62 1.05-.33 1.26-.36 1.25-.21z"/><ellipse transform="matrix(-.996 .0929 -.0929 -.996 -90 762)" cx="-62.7" cy="379" rx="3.2" ry="3.3"/></g></g></svg>