<svg xmlns="http://www.w3.org/2000/svg" width="150" height="200" viewBox="0 0 39.7 52.9"><path d="M14.24 17.55l-1.352.053c-1.431 1.007-3.1-.185-3.1-.185-.08.822 1.06 1.431 1.06 1.431 1.935 1.007 4.77-.609 4.77-.609-1.06 0-1.378-.663-1.378-.689zm-4.346-6.095s1.484-1.378 2.915-.371l1.537.238s.451-.424 1.564-.503c0 0-2.968-1.749-4.902-.795 0 0-1.166.61-1.113 1.431zm5.326 8.586s-.742.609-1.616.238-.45.185-.45.185a2.46 2.46 0 0 0 1.245.451c1.06.053 1.616-.503 1.616-.503s.451-.265.795-.742c.318-.451.61-1.617.61-1.617l-1.193.265c-.212.928-1.007 1.723-1.007 1.723zm-1.405-11.13c.875-.371 1.617.239 1.617.239s.821.742 1.007 1.669l1.192.265s-.265-1.166-.609-1.617-.795-.742-.795-.742-.556-.61-1.616-.504c-.689.053-1.245.451-1.245.451s-.318.556.45.238zm5.486 9.142l-.556-.185-.61.185-.556 1.617c-1.669 1.617-.609 2.226-.609 2.226 0-.742 1.007-1.617 1.007-1.617.716-.556 1.325-2.226 1.325-2.226zm.239-10.255c-.927.133-1.484 1.67-1.484 2.041s.424 1.298.424 1.298l1.06-.133s-.556-.822-.556-1.431c0-.133.053-.265.079-.424a1.5 1.5 0 0 1 1.245-.874h.053s-.424-.556-.822-.477zm1.431 10.441l-.874-.053-.504 1.749-.874 2.358c-.133.503-.053 1.166-.053 1.007l1.166-2.279.424-.557c.345-.503.662-2.226.715-2.226zm-.503-7.235s.821.08 1.06.239c0 0 .186-1.166.424-1.537l1.06-1.352s-.424-.08-.98.371c-.556.477-1.431 1.537-1.564 2.279zm2.226 8.348l-.795-.636-.451 1.113c-.186.318-.874 1.166-1.113 1.749-.265.61.053 1.352.053 1.352l.079-.451c.079-.503.927-1.669 1.351-1.987.398-.344.874-1.192.874-1.139zm1.06-9.195c0-.557.451-1.166.927-1.67l.318-.503s-.636.318-.874.503-.928 1.193-1.06 1.67l-.451 1.484s.875-.238 1.299-.079c-.026 0-.106-.875-.159-1.404zm2.279 2.014l1.007-1.192c.079-.133 1.378-.795 1.802-.795 0 0-1.007-.371-1.934 0s-1.802 1.537-1.802 1.537zm1.06.954l.318.265 1.484-1.007c.318-.185 1.192-.132 1.192-.132h.927l-1.537-.689-1.299.132c-.556.133-1.484.875-1.484.875zm7.261 6.917l.822.424-1.06-1.299-1.193-.45c-.556-.106-1.722.132-1.722.132l.053.636.186.371 1.749-.238c.424-.027 1.166.424 1.166.424zm-10.467.609l-.61-.874-.61.927s-.742.742-1.299 1.669-.609 1.802-.556 1.617c.079-.239 1.166-1.749 1.431-1.908.291-.133 1.643-1.484 1.643-1.431zm8.162-6.175c-.874-.822-1.802-.556-1.802-.556l-1.192.556.689 1.007 1.166-.742.875.053s.503.371.45.689c-.053.345.742-.212-.185-1.007zm-1.669 2.968l.424.318 1.537-.795 1.484-.132 1.166.132s-.556-.503-1.298-.556l-.742-.053-1.007-.133-1.669.451zm-9.725 7.526c.609-.053 2.676-1.802 2.676-1.802l1.166-.795-.133-1.166-.927.928-2.041 1.908c-.742.822-1.351 1.007-1.351 1.007zm-9.646-8.824l-.265-.928s-1.431.424-2.041.875-1.802 2.412-2.279 3.392c-.795 1.617-.636 5.565-.795 6.943-.053.08.08.133.133.053.795-1.722.265-5.247 1.007-6.678.61-1.113 1.802-3.047 2.358-3.233.53-.186 1.829-.424 1.882-.424zm-4.24-7.049l-2.65-4.638c0-.106-.133-.053-.133.053.133 1.378 1.616 3.286 2.411 4.903.424.98 1.67 2.915 2.279 3.392.61.451 2.041.875 2.041.875l.265-.928-1.855-.424c-.53-.159-1.802-2.12-2.358-3.233zm26.447 13.17l1.988.186s.556-.08.239-.318-1.988-.557-1.988-.557l-1.802-.689-.238 1.007.079.186zM22.72 24.175l-.742.556 2.226.265.185-1.139zm10.256.742c.238.053 1.749-.133 1.749-.133s1.007-.556 1.06-.874c0 0-.503-.08-1.06.185-.504.265-1.246.318-1.669-.053s-1.484-.689-1.484-.689v1.298c0-.027 1.219.212 1.405.265zm-13.674 1.192s1.378-.185 1.802-.132l1.802.318.795-.742-1.802-.133-1.431.053c-.556 0-1.166.636-1.166.636zm2.544 1.033s-2.306-.132-3.286.08-1.908.927-1.908.927c.742-.424 2.915-.609 2.915-.609l1.616.318zM33.612 44.95l1.351 1.537s-.822-1.669-1.298-2.226c-.45-.504-1.749-1.537-1.749-1.537l-2.094-2.226c-.265-.132-1.299-.45-1.299-.45l.318 1.007.795.45c.186.132 1.378 1.484 1.802 1.935.371.477 2.094 1.51 2.173 1.51zm-10.706 3.975s.875-1.007 1.484-2.041l1.299-2.041.371-2.173c-.079-.239-.186-.928-.186-.928l-.821-.636s-.053 1.06 0 1.352l-.133 1.908c-.079.371-1.166 2.412-1.166 2.412zm-.556-6.758v2.041l-1.06 1.351-1.431 1.484 1.616-1.007 1.537-1.617c.239-.371 0-2.12.186-2.544s.795-1.166.795-1.166l-.742-.795-.795 1.564c-.079.238-.132.451-.132.689zm10.812-1.298l.185.186-.185-.557c-.133-.318-.371-.556-.636-.636l-1.431-.503-1.299-.875c-.239-.185-.556-.265-.821-.265l-1.007-.053.318.795h.636c.265 0 .609.079.821.238l1.352.822 1.166.265c.344.027.609.212.901.583zm-13.41-11.738c-.689-.239-1.749.053-1.749.053s-1.351.318-1.616.795c-.186.318.133.238.424.079.239-.079.504-.132.742-.132l.742.053.742.424zm-.821 3.895c-.186-.318-.186-1.193-.186-1.193s-1.537.504-2.226 1.193c-.689.636-.689 1.802-.689 1.802s.318-.45.451-.795c.133-.318 1.06-.61 1.06-.61zm.238.98s-.874.874-1.299 1.166c-.371.265-.504.742-.795 1.06s-.133.742-.133.742l.742 1.749c.133-.451-.186-1.617-.186-1.617s.504-.874.795-1.166c.265-.238 1.431-.927 1.431-.927zm.133 3.472c-.45.636-1.007 1.749-1.192 2.173l-1.299 2.093s1.166-.689 1.431-1.298l1.616-2.173c.424-.424.689-1.351.689-1.351l-.451-.928s-.239.875-.795 1.484zm.689 2.835s-.186 1.192-.61 2.226l-.927 2.968 1.431-2.094c.451-.504.61-1.988 1.007-2.411.371-.424 1.06-1.908 1.06-1.908l-.742-.875zm12.005-12.349c.424.318 1.935.45 1.935.45l.874-.185s-.689-.371-1.007-.424c-.371-.053-1.113-.424-1.431-.742l-1.007-1.007-.795.927c0 .027 1.007.663 1.431.981zm0 2.888s1.166.053 1.378-.238c0 0-.424-.265-1.007-.318-.61-.053-1.245-.371-1.431-.875-.186-.45-.98-1.298-.98-1.298l-.61 1.113 1.113.927c.159.186 1.537.689 1.537.689zm-4.637 1.987c.45.239 1.987.133 1.987.133l.822-.318s-.742-.239-1.06-.239c-.371 0-1.166-.238-1.537-.503l-1.166-.822-.636 1.06c.026 0 1.139.451 1.59.689zm2.544-.609c.503.132 1.564.185 2.041-.133l-1.749-.424-1.06-.874-.795-.795-1.06.609 1.06.795c.424.265 1.06.689 1.564.822zm-2.067 2.093h1.908c.291 0 .742.185.742.185s-.556-.609-1.007-.742-1.802-.424-1.802-.424l-1.802.185.424 1.007zm.822 1.537c.689-.133 2.041.132 2.041.132l1.484.318-1.431-.927-2.041-.318c-.424-.053-1.908.265-1.908.265l.318 1.06c.026.026.795-.398 1.537-.53zm.477 1.669l1.935.424c.265 0 1.007-.318 1.007-.318l-.928-.132-2.041-.742c-.318-.053-1.669 0-1.669 0l.318.795h1.378z" fill="#b32"/><path d="M11.06 14.37c0 1.378.636 2.12 1.431 2.491 1.378.609 2.915-.45 2.862-1.934-.053-.318 0-.636 0-.981.079-1.431-1.352-2.544-2.677-2.093-.875.318-1.616 1.034-1.616 2.517zm6.572-2.756s-1.007-.451-2.676-.053c0 0 1.166.318 1.166 2.782s-1.166 2.968-1.166 2.968 1.723.742 2.65-.133c-.026 0-.583-2.73.026-5.565zm3.074 0c-.451-.08-1.193-.133-2.279.079 0 0-.795 3.657 0 5.618 0 0 .927.318 1.855.371.451 0 .874-.265.98-.742.239-1.06.556-3.047.186-4.638-.106-.345-.371-.636-.742-.689zm5.088 2.147c.238-.238.238-.636-.053-.822-.61-.451-1.749-1.113-3.524-.795 0 0 .265 1.617.133 3.233s-.742 2.491-.742 2.491 1.007.689 1.351.689c.345.026 1.351-3.18 2.836-4.797zm.874.133s-2.173 2.65-3.101 5.061c0 0 .318 1.007 1.06 1.431 0 0 1.908-2.465 3.419-3.021l1.431-.186c.026 0-.609-2.597-2.809-3.286zm-1.431 8.639c1.669-.795 5.194-.795 5.194-.795.556-2.04-.742-3.525-.742-3.525-1.934-.079-4.637 2.915-4.637 2.915-.318.795.239 1.404.186 1.404zm5.247.318c-2.306-.45-5.247.61-5.247.61-.795 1.007-.451 2.093-.451 2.093 1.855-.371 5.141.795 5.141.795 1.193-1.219.61-3.551.556-3.498zm-5.936 3.339c-.98.132-1.749 1.298-1.749 1.298 2.491.239 4.161 2.173 4.161 2.173 2.173-.636 2.491-2.412 2.491-2.412-1.192-1.166-4.902-1.007-4.902-1.06zm-4.876 4.452c1.669 0 5.194 1.431 5.194 1.431l1.351-1.749c-.504-1.352-4.16-2.226-4.16-2.226-1.696.768-2.385 2.544-2.385 2.544zm1.988 4.16c.874-.132 2.12-.106 2.862 0 .318.053.636-.265.556-.636-.133-.689-.504-1.484-.504-1.484-1.007-.424-3.604-1.113-4.823-1.298-.133-.053-.239.053-.239.186-.239 1.166.424 2.465.795 3.047.291.477.795.291 1.351.185zm4.081.477s-.609.424-1.245.371c-.556-.053-1.988-.424-3.047.132-.239.106-.318.424-.239.636.239.61.822 1.723 1.616 2.093 0 0 .689-.185 1.299-.451s1.007-.503 1.935-1.007c.954-.53-.318-1.776-.318-1.776zm0 5.618c.981.079 2.677-.742 1.007-3.392l-3.339 1.722c.026 0 1.325 1.564 2.332 1.669zm2.041-.185s-.874.875-1.537.875c0 0 1.246 1.908 1.908 1.722s-.371-2.597-.371-2.597z" fill="none" stroke="#084" stroke-miterlimit="10" stroke-width=".662"/></svg>