<svg xmlns="http://www.w3.org/2000/svg" width="150" height="200" viewBox="0 0 39.7 52.9"><path d="M31.506 20.735c-1.113.424-2.12-.08-3.207-.186l-3.524-.371c-2.57-.265-7.473.477-9.911 1.246-2.279.768-3.604 2.04-6.095.556-.874-.53-.954-.45-1.192-1.352-.053-.239-.265-.504.106-.689.715-.08 1.325.318 2.067.212 1.696-.212 3.233-.928 5.009-.981 1.457-.53 9.142-1.139 11.077-1.166.742-.345 1.616-.106 2.305-.398.954-.053 3.631 1.033 3.763 1.828.053.451-.318.848-.398 1.299zm-6.546-9.381c.159.212-2.279.689-2.676.795-1.961.477-8.056 3.365-9.063 3.313l-.026-.292c.928-.477 3.392-1.802 3.816-2.57-.901-1.087-1.723-1.113-2.279-2.57.954-.344 1.537.186 2.411.133.742-.08.742-.265 1.564-.186.901.106 2.624-1.59 3.896-1.325 1.245.265 1.564.53 2.756 1.166.186.663.954.901.053 1.325z" fill="#b32"/><path d="M31.029 45.38c-.954.212-1.352-.238-2.146-.424a21.65 21.65 0 0 0-5.406-.53c-2.889.079-7.87.556-10.361 1.59-.901.371-1.537.504-2.544.371-.185-.477-2.173-1.669-.477-1.934l7.235-1.087c.927-.159 1.829-.875 2.014-1.564-.768.132-2.173.689-2.915.424s-2.094-.928-2.226-1.59c.291-.265 4.611-.662 5.592-.901.053-.239-.026-1.325-.556-1.325-2.014.027-2.332.345-4.399-.238-.133-.212-.133-.451 0-.689 1.351-.397 2.729-.768 4.187-.927.795-.106 1.643-.027 2.385-.239 1.087.106 2.836-.238 3.445.689.716 1.034-1.272.981-2.146 1.034-.265.451-.61.927-.742 1.431.61 0 1.166-.238 1.776-.212.795.344 1.113.954 1.404 1.59-.398.821-2.941.106-3.312.742-.212.424-.318.875-.424 1.352.477.053 1.034-.053 1.511-.159 2.173-.265 4.267-.132 6.413.345 1.087.238 1.669.742 2.173 1.484a.79.79 0 0 1-.477.768zM24.987 34.7c-.662.715-1.669.212-2.253.848-1.484.132-2.835.238-4.267.636-.769.238-1.457.079-2.173.238-1.696-.583-1.246-4.213-3.021-5.591-.159-.398-.345-.795-.159-1.193 1.484-.636 4.505-1.775 5.141-2.968.265-.477-1.616-1.14-.133-1.564 1.829-.53 2.306.901 3.286 1.696.026.371-.397.689-.344.98 1.961-.609 4.054-.106 5.592.875.61.371 1.484 1.325 1.219 1.935-.239.504-2.438 3.657-2.889 4.108zM14.44 30.09l1.563 1.087c.265-.689 1.034-1.192 1.325-1.882-.954.185-2.014.397-2.889.795zm5.326-.53c-.609-.133-1.219-.265-1.855-.239-.477.583-.874 1.431-1.06 2.094 1.166-.239 2.279-.557 3.392-.822.901-.636 2.941.239 2.915 1.14-1.564 1.166-3.312.662-4.584 1.484-.477.212-.556-.079-.477-.318-.318-.159-.768-.265-1.06-.477-.053-.053-.159-.159-.265-.159-.186.769.026 1.696.186 2.491 1.564-.344 5.009-1.272 6.493-1.139.61-1.431 1.829-2.968 1.06-4.505-2.093.292-2.252 1.007-4.744.451z" fill="#339"/><path d="M31.665 4.04H7.974c-3.392 0-5.088 1.245-5.088 3.737v37.365c0 2.491 1.696 3.737 5.088 3.737h23.691c3.392 0 5.088-1.246 5.088-3.737V7.777c0-2.465-1.696-3.71-5.088-3.71zm3.392 41.075c0 1.643-1.669 2.464-3.392 2.464H7.974c-1.723 0-3.392-.822-3.392-2.465V7.75c0-1.643 1.669-2.465 3.392-2.465h23.691c1.723 0 3.392.822 3.392 2.465z" fill="#084"/></svg>