<svg xmlns="http://www.w3.org/2000/svg" width="150" height="200" viewBox="0 0 39.7 52.9"><path d="M30.154 22.59c-.901.027-3.498-.768-4.743-.848-3.471-.265-8.506.557-11.527 2.041-.795.397-1.882.822-2.862.53-.795-.239-2.412-1.193-2.703-1.855-.345-.689-.026-.901.795-.663.424.106.477.159.928.106 1.007-.132 2.014-.424 3.047-.689 3.313-.769 6.731-1.166 10.15-1.537.928-.133 1.855-.212 2.73-.371 1.245-.212 1.723-.451 3.021-.053 1.352.424 2.994 1.352 2.703 2.703-.344.398-.954.663-1.537.636zM25.172 9.658c-.159.159-3.021 1.352-3.392 1.458-.874.265-1.829.344-2.623.768-1.06.583-2.544 1.298-3.286 2.093.212.768 5.3-.424 5.883-.742 1.219.265 2.676.61 3.18 1.617.398.769.026 1.193-.954 1.272-3.233.292-7.553 3.26-10.626 4.426l-.583-.026c1.458-1.352 3.471-2.173 5.141-3.365l-.185-.08a9.79 9.79 0 0 1-2.146-.742c-.265-.318-.583-.609-.663-.98-.159-.583-.053-1.325.424-1.775 1.219-1.14 2.624-2.094 3.79-3.312-1.246-.795-2.783-1.537-3.392-2.809.344 0 .742-.027 1.06.106.477-.08 1.007 0 1.511-.053.477-.027.954-.185 1.378-.344 1.034-.371 1.034-.53 2.253-.557 1.961-.053 2.253.027 3.524 1.272.133.53.159 1.352-.291 1.775z" fill="#b32"/><path d="M31.029 45.38c-.954.212-1.352-.238-2.146-.424a21.65 21.65 0 0 0-5.406-.53c-2.889.079-7.87.556-10.361 1.59-.901.371-1.537.504-2.544.371-.185-.477-2.173-1.669-.477-1.934l7.235-1.087c.927-.159 1.829-.875 2.014-1.564-.768.132-2.173.689-2.915.424s-2.094-.928-2.226-1.59c.291-.265 4.611-.662 5.592-.901.053-.239-.026-1.325-.556-1.325-2.014.027-2.332.345-4.399-.238-.133-.212-.133-.451 0-.689 1.351-.397 2.729-.768 4.187-.927.795-.106 1.643-.027 2.385-.239 1.087.106 2.836-.238 3.445.689.716 1.034-1.272.981-2.146 1.034-.265.451-.61.927-.742 1.431.61 0 1.166-.238 1.776-.212.795.344 1.113.954 1.404 1.59-.398.821-2.941.106-3.312.742-.212.424-.318.875-.424 1.352.477.053 1.034-.053 1.511-.159 2.173-.265 4.267-.132 6.413.345 1.087.238 1.669.742 2.173 1.484a.79.79 0 0 1-.477.768zM24.987 34.7c-.662.715-1.669.212-2.253.848-1.484.132-2.835.238-4.267.636-.769.238-1.457.079-2.173.238-1.696-.583-1.246-4.213-3.021-5.591-.159-.398-.345-.795-.159-1.193 1.484-.636 4.505-1.775 5.141-2.968.265-.477-1.616-1.14-.133-1.564 1.829-.53 2.306.901 3.286 1.696.026.371-.397.689-.344.98 1.961-.609 4.054-.106 5.592.875.61.371 1.484 1.325 1.219 1.935-.239.504-2.438 3.657-2.889 4.108zM14.44 30.09l1.563 1.087c.265-.689 1.034-1.192 1.325-1.882-.954.185-2.014.397-2.889.795zm5.326-.53c-.609-.133-1.219-.265-1.855-.239-.477.583-.874 1.431-1.06 2.094 1.166-.239 2.279-.557 3.392-.822.901-.636 2.941.239 2.915 1.14-1.564 1.166-3.312.662-4.584 1.484-.477.212-.556-.079-.477-.318-.318-.159-.768-.265-1.06-.477-.053-.053-.159-.159-.265-.159-.186.769.026 1.696.186 2.491 1.564-.344 5.009-1.272 6.493-1.139.61-1.431 1.829-2.968 1.06-4.505-2.093.292-2.252 1.007-4.744.451z" fill="#339"/><path d="M31.665 4.04H7.974c-3.392 0-5.088 1.245-5.088 3.737v37.365c0 2.491 1.696 3.737 5.088 3.737h23.691c3.392 0 5.088-1.246 5.088-3.737V7.777c0-2.465-1.696-3.71-5.088-3.71zm3.392 41.075c0 1.643-1.669 2.464-3.392 2.464H7.974c-1.723 0-3.392-.822-3.392-2.465V7.75c0-1.643 1.669-2.465 3.392-2.465h23.691c1.723 0 3.392.822 3.392 2.465z" fill="#084"/></svg>